%TF.GenerationSoftware,KiCad,Pcbnew,9.0.0*%
%TF.CreationDate,2025-05-30T17:35:02+05:30*%
%TF.ProjectId,MCU datalogger,4d435520-6461-4746-916c-6f676765722e,1*%
%TF.SameCoordinates,Original*%
%TF.FileFunction,Copper,L2,Bot*%
%TF.FilePolarity,Positive*%
%FSLAX46Y46*%
G04 Gerber Fmt 4.6, Leading zero omitted, Abs format (unit mm)*
G04 Created by KiCad (PCBNEW 9.0.0) date 2025-05-30 17:35:02*
%MOMM*%
%LPD*%
G01*
G04 APERTURE LIST*
%TA.AperFunction,ComponentPad*%
%ADD10R,1.700000X1.700000*%
%TD*%
%TA.AperFunction,ComponentPad*%
%ADD11O,1.700000X1.700000*%
%TD*%
%TA.AperFunction,ViaPad*%
%ADD12C,0.900000*%
%TD*%
%TA.AperFunction,ViaPad*%
%ADD13C,0.800000*%
%TD*%
%TA.AperFunction,Conductor*%
%ADD14C,0.300000*%
%TD*%
%TA.AperFunction,Conductor*%
%ADD15C,0.350000*%
%TD*%
G04 APERTURE END LIST*
D10*
%TO.P,J1,1,Pin_1*%
%TO.N,GND*%
X109601000Y-102235000D03*
D11*
%TO.P,J1,2,Pin_2*%
%TO.N,/Vcc*%
X109601000Y-104775000D03*
%TO.P,J1,3,Pin_3*%
%TO.N,/SDA*%
X109601000Y-107315000D03*
%TO.P,J1,4,Pin_4*%
%TO.N,/SCK*%
X109601000Y-109855000D03*
%TD*%
D10*
%TO.P,J4,1,Pin_1*%
%TO.N,/MISO*%
X107061000Y-93345000D03*
D11*
%TO.P,J4,2,Pin_2*%
%TO.N,/Vcc*%
X109601000Y-93345000D03*
%TO.P,J4,3,Pin_3*%
%TO.N,/SCK*%
X107061000Y-95885000D03*
%TO.P,J4,4,Pin_4*%
%TO.N,/MOSI*%
X109601000Y-95885000D03*
%TO.P,J4,5,Pin_5*%
%TO.N,/RESET*%
X107061000Y-98425000D03*
%TO.P,J4,6,Pin_6*%
%TO.N,GND*%
X109601000Y-98425000D03*
%TD*%
D10*
%TO.P,J2,1,Pin_1*%
%TO.N,GND*%
X97647600Y-113639600D03*
D11*
%TO.P,J2,2,Pin_2*%
%TO.N,/Vcc*%
X100187600Y-113639600D03*
%TO.P,J2,3,Pin_3*%
%TO.N,/RX*%
X102727600Y-113639600D03*
%TO.P,J2,4,Pin_4*%
%TO.N,/TX*%
X105267600Y-113639600D03*
%TD*%
D10*
%TO.P,J3,1,Pin_1*%
%TO.N,/D2*%
X71628000Y-113690400D03*
D11*
%TO.P,J3,2,Pin_2*%
%TO.N,/D3*%
X74168000Y-113690400D03*
%TO.P,J3,3,Pin_3*%
%TO.N,/D4*%
X76708000Y-113690400D03*
%TO.P,J3,4,Pin_4*%
%TO.N,/D5*%
X79248000Y-113690400D03*
%TO.P,J3,5,Pin_5*%
%TO.N,/D6*%
X81788000Y-113690400D03*
%TO.P,J3,6,Pin_6*%
%TO.N,/D7*%
X84328000Y-113690400D03*
%TO.P,J3,7,Pin_7*%
%TO.N,/D8*%
X86868000Y-113690400D03*
%TO.P,J3,8,Pin_8*%
%TO.N,GND*%
X89408000Y-113690400D03*
%TO.P,J3,9,Pin_9*%
%TO.N,/Vcc*%
X91948000Y-113690400D03*
%TD*%
D10*
%TO.P,BT1,1,+*%
%TO.N,/Vcc*%
X65786000Y-94564200D03*
D11*
%TO.P,BT1,2,-*%
%TO.N,GND*%
X65786000Y-97104200D03*
%TD*%
D12*
%TO.N,GND*%
X85844805Y-87458368D03*
D13*
%TO.N,/Vcc*%
X85217000Y-96774000D03*
X89535000Y-99149000D03*
X99364800Y-88392000D03*
X92837000Y-97409000D03*
X87985600Y-90119200D03*
%TO.N,/RESET*%
X96520000Y-94535000D03*
X86750000Y-94667880D03*
%TO.N,Net-(U4-AREF)*%
X88400000Y-98000000D03*
%TO.N,/TX*%
X86233000Y-99060000D03*
%TO.N,/RX*%
X86995000Y-99949000D03*
D12*
%TO.N,GND*%
X100010000Y-105984000D03*
X92862400Y-88341200D03*
X99466400Y-91998800D03*
X99364800Y-91084400D03*
X72263971Y-105350581D03*
D13*
X74168000Y-97028000D03*
D12*
%TO.N,/Vcc*%
X101600000Y-99568000D03*
D13*
%TO.N,Net-(U4-PB7)*%
X85750400Y-89712800D03*
X83845354Y-99782109D03*
%TO.N,Net-(U4-AREF)*%
X94234000Y-107594400D03*
%TO.N,/SCK*%
X73660000Y-99060000D03*
X78319097Y-101854000D03*
X104648000Y-98552000D03*
%TO.N,/SDA*%
X97476930Y-98144666D03*
X103009043Y-104587685D03*
%TO.N,/D2*%
X84048600Y-95681800D03*
%TO.N,/D5*%
X83858000Y-103002066D03*
%TO.N,/D6*%
X84366000Y-104137934D03*
%TO.N,/D7*%
X85415996Y-104141568D03*
%TO.N,/D8*%
X86456847Y-104279895D03*
%TO.N,/RESET*%
X94196000Y-94361000D03*
X90678000Y-93472000D03*
%TO.N,/MISO*%
X92964000Y-101600000D03*
D12*
%TO.N,GND*%
X89663998Y-94595830D03*
%TD*%
D14*
%TO.N,/SDA*%
X102979027Y-104557545D02*
X102979027Y-104557669D01*
X102979027Y-104557669D02*
X103009043Y-104587685D01*
X102968259Y-104513432D02*
X102969553Y-104514726D01*
X102969553Y-104548071D02*
X102979027Y-104557545D01*
X102968259Y-104496584D02*
X102968259Y-104513432D01*
X102969553Y-104514726D02*
X102969553Y-104548071D01*
X102986606Y-104451211D02*
X102975089Y-104462728D01*
X102986606Y-104002606D02*
X102986606Y-104451211D01*
X97476930Y-98492930D02*
X102986606Y-104002606D01*
X102975089Y-104462728D02*
X102975089Y-104489754D01*
X102975089Y-104489754D02*
X102968259Y-104496584D01*
X97476930Y-98144666D02*
X97476930Y-98492930D01*
D15*
%TO.N,GND*%
X91979568Y-87458368D02*
X85844805Y-87458368D01*
X92862400Y-88341200D02*
X91979568Y-87458368D01*
%TO.N,/Vcc*%
X110877000Y-94621000D02*
X109601000Y-93345000D01*
X110877000Y-98953537D02*
X110877000Y-94621000D01*
X110129537Y-99701000D02*
X110877000Y-98953537D01*
X101733000Y-99701000D02*
X110129537Y-99701000D01*
X101600000Y-99568000D02*
X101733000Y-99701000D01*
D14*
%TO.N,Net-(U4-AREF)*%
X88400000Y-102370821D02*
X93623579Y-107594400D01*
X88400000Y-98000000D02*
X88400000Y-102370821D01*
X93623579Y-107594400D02*
X94234000Y-107594400D01*
%TO.N,/RESET*%
X90678000Y-93472000D02*
X88011000Y-93472000D01*
X88011000Y-93472000D02*
X86815120Y-94667880D01*
X86815120Y-94667880D02*
X86750000Y-94667880D01*
%TO.N,/Vcc*%
X89145414Y-96774000D02*
X89535000Y-97163586D01*
X89535000Y-97163586D02*
X89535000Y-99149000D01*
X85217000Y-96774000D02*
X89145414Y-96774000D01*
D15*
X65786000Y-93141800D02*
X65786000Y-94564200D01*
X70535800Y-88392000D02*
X65786000Y-93141800D01*
X87376000Y-88392000D02*
X70535800Y-88392000D01*
X88823800Y-89839800D02*
X87376000Y-88392000D01*
D14*
%TO.N,/RX*%
X101828600Y-110744000D02*
X99822000Y-110744000D01*
X102727600Y-113639600D02*
X102727600Y-111643000D01*
X102727600Y-111643000D02*
X101828600Y-110744000D01*
%TO.N,/D6*%
X83778471Y-111712529D02*
X84366000Y-111125000D01*
%TO.N,/TX*%
X87630000Y-99060000D02*
X86233000Y-99060000D01*
X87868000Y-104276835D02*
X87756847Y-104165682D01*
X87868000Y-104432894D02*
X87868000Y-104276835D01*
X87756847Y-104165682D02*
X87756847Y-99186847D01*
X93163106Y-109728000D02*
X87868000Y-104432894D01*
X103492300Y-109728000D02*
X93163106Y-109728000D01*
X87756847Y-99186847D02*
X87630000Y-99060000D01*
X105156000Y-111391700D02*
X103492300Y-109728000D01*
X105156000Y-113284000D02*
X105156000Y-111391700D01*
D15*
%TO.N,/Vcc*%
X106496200Y-114915600D02*
X101463600Y-114915600D01*
X107188000Y-114223800D02*
X106496200Y-114915600D01*
X107188000Y-104775000D02*
X107188000Y-114223800D01*
X101463600Y-114915600D02*
X100187600Y-113639600D01*
D14*
%TO.N,/RX*%
X99822000Y-110744000D02*
X93432629Y-110744000D01*
%TO.N,/D8*%
X86868000Y-104691048D02*
X86456847Y-104279895D01*
X86868000Y-112776000D02*
X86868000Y-104691048D01*
X86487000Y-113157000D02*
X86868000Y-112776000D01*
%TO.N,/RX*%
X87256847Y-104372788D02*
X87256847Y-100210847D01*
X93432629Y-110744000D02*
X87368000Y-104679371D01*
X87368000Y-104679371D02*
X87368000Y-104483942D01*
X87256847Y-100210847D02*
X86995000Y-99949000D01*
X87368000Y-104483942D02*
X87256847Y-104372788D01*
%TO.N,/D7*%
X85415996Y-112602404D02*
X84328000Y-113690400D01*
X85415996Y-104141568D02*
X85415996Y-112602404D01*
%TO.N,/D6*%
X84366000Y-111074200D02*
X84366000Y-104137934D01*
X81800600Y-113690400D02*
X83778471Y-111712529D01*
X81788000Y-113690400D02*
X81800600Y-113690400D01*
%TO.N,/D5*%
X83758681Y-103002066D02*
X83858000Y-103002066D01*
X83566000Y-103194747D02*
X83758681Y-103002066D01*
X83566000Y-108712000D02*
X83566000Y-103194747D01*
X79248000Y-113690400D02*
X79248000Y-113030000D01*
X79248000Y-113030000D02*
X83566000Y-108712000D01*
%TO.N,/D2*%
X83058000Y-96672400D02*
X84048600Y-95681800D01*
X83058000Y-102260400D02*
X83058000Y-96672400D01*
X71704200Y-113614200D02*
X83058000Y-102260400D01*
%TO.N,/SCK*%
X78319097Y-101687097D02*
X78319097Y-101854000D01*
X73660000Y-99060000D02*
X75692000Y-99060000D01*
X75692000Y-99060000D02*
X78319097Y-101687097D01*
%TO.N,/Vcc*%
X87985600Y-90119200D02*
X88544400Y-90119200D01*
X88544400Y-90119200D02*
X88823800Y-89839800D01*
X90956004Y-92005686D02*
X92964000Y-92005686D01*
X90132800Y-91182482D02*
X90956004Y-92005686D01*
X88823800Y-89839800D02*
X90132800Y-91148800D01*
X90132800Y-91148800D02*
X90132800Y-91182482D01*
%TO.N,Net-(U4-PB7)*%
X85750400Y-95109229D02*
X85750400Y-89712800D01*
X83845354Y-97014275D02*
X85750400Y-95109229D01*
X83845354Y-99782109D02*
X83845354Y-97014275D01*
%TO.N,/Vcc*%
X95751114Y-92005686D02*
X99364800Y-88392000D01*
X92964000Y-92005686D02*
X95751114Y-92005686D01*
X92837000Y-92132686D02*
X92837000Y-97409000D01*
X92964000Y-92005686D02*
X92837000Y-92132686D01*
X65532000Y-94564200D02*
X65532000Y-94188200D01*
D15*
X109220000Y-105156000D02*
X109601000Y-104775000D01*
X107188000Y-104775000D02*
X106807000Y-104775000D01*
X106807000Y-104775000D02*
X101600000Y-99568000D01*
X109601000Y-104775000D02*
X107188000Y-104775000D01*
D14*
%TO.N,/SCK*%
X104648000Y-98298000D02*
X104648000Y-98552000D01*
X107061000Y-95885000D02*
X104648000Y-98298000D01*
%TO.N,/D8*%
X86409040Y-104279895D02*
X86456847Y-104279895D01*
X86868000Y-113690400D02*
X86741000Y-113563400D01*
%TO.N,/MISO*%
X92964000Y-101600000D02*
X95720000Y-98844000D01*
X97536000Y-94996000D02*
X105410000Y-94996000D01*
X95720000Y-98844000D02*
X95720000Y-96812000D01*
X95720000Y-96812000D02*
X97536000Y-94996000D01*
X105410000Y-94996000D02*
X107061000Y-93345000D01*
%TO.N,/RESET*%
X94196000Y-94361000D02*
X94370000Y-94535000D01*
X94370000Y-94535000D02*
X96520000Y-94535000D01*
%TD*%
%TA.AperFunction,Conductor*%
%TO.N,GND*%
G36*
X84933604Y-89087185D02*
G01*
X84979359Y-89139989D01*
X84989303Y-89209147D01*
X84969667Y-89260391D01*
X84952390Y-89286247D01*
X84952383Y-89286259D01*
X84884506Y-89450132D01*
X84884503Y-89450141D01*
X84849900Y-89624104D01*
X84849900Y-89801495D01*
X84884503Y-89975458D01*
X84884506Y-89975467D01*
X84952383Y-90139340D01*
X84952390Y-90139353D01*
X85050934Y-90286833D01*
X85050935Y-90286834D01*
X85050936Y-90286835D01*
X85063580Y-90299479D01*
X85097065Y-90360799D01*
X85099900Y-90387161D01*
X85099900Y-94788420D01*
X85080215Y-94855459D01*
X85063581Y-94876101D01*
X84877672Y-95062010D01*
X84816349Y-95095495D01*
X84746657Y-95090511D01*
X84702310Y-95062010D01*
X84622638Y-94982338D01*
X84622634Y-94982335D01*
X84475153Y-94883790D01*
X84475140Y-94883783D01*
X84311267Y-94815906D01*
X84311258Y-94815903D01*
X84137294Y-94781300D01*
X84137291Y-94781300D01*
X83959909Y-94781300D01*
X83959906Y-94781300D01*
X83785941Y-94815903D01*
X83785932Y-94815906D01*
X83622059Y-94883783D01*
X83622046Y-94883790D01*
X83474565Y-94982335D01*
X83474561Y-94982338D01*
X83349138Y-95107761D01*
X83349135Y-95107765D01*
X83250590Y-95255246D01*
X83250583Y-95255259D01*
X83182706Y-95419132D01*
X83182703Y-95419141D01*
X83148100Y-95593104D01*
X83148100Y-95610991D01*
X83128415Y-95678030D01*
X83111781Y-95698672D01*
X82552727Y-96257725D01*
X82552721Y-96257732D01*
X82492775Y-96347448D01*
X82492776Y-96347449D01*
X82481534Y-96364274D01*
X82432499Y-96482655D01*
X82432497Y-96482661D01*
X82407500Y-96608328D01*
X82407500Y-101939591D01*
X82387815Y-102006630D01*
X82371181Y-102027272D01*
X72094871Y-112303581D01*
X72033548Y-112337066D01*
X72007190Y-112339900D01*
X70730129Y-112339900D01*
X70730123Y-112339901D01*
X70670516Y-112346308D01*
X70535671Y-112396602D01*
X70535664Y-112396606D01*
X70420455Y-112482852D01*
X70420452Y-112482855D01*
X70334206Y-112598064D01*
X70334202Y-112598071D01*
X70283908Y-112732917D01*
X70277501Y-112792516D01*
X70277500Y-112792535D01*
X70277500Y-114588270D01*
X70277501Y-114588276D01*
X70283908Y-114647883D01*
X70334202Y-114782728D01*
X70334206Y-114782735D01*
X70420452Y-114897944D01*
X70420455Y-114897947D01*
X70535664Y-114984193D01*
X70535671Y-114984197D01*
X70670517Y-115034491D01*
X70670516Y-115034491D01*
X70677444Y-115035235D01*
X70730127Y-115040900D01*
X72525872Y-115040899D01*
X72585483Y-115034491D01*
X72720331Y-114984196D01*
X72835546Y-114897946D01*
X72921796Y-114782731D01*
X72970810Y-114651316D01*
X73012681Y-114595384D01*
X73078145Y-114570966D01*
X73146418Y-114585817D01*
X73174673Y-114606969D01*
X73288213Y-114720509D01*
X73460179Y-114845448D01*
X73460181Y-114845449D01*
X73460184Y-114845451D01*
X73649588Y-114941957D01*
X73851757Y-115007646D01*
X74061713Y-115040900D01*
X74061714Y-115040900D01*
X74274286Y-115040900D01*
X74274287Y-115040900D01*
X74484243Y-115007646D01*
X74686412Y-114941957D01*
X74875816Y-114845451D01*
X74962138Y-114782735D01*
X75047786Y-114720509D01*
X75047788Y-114720506D01*
X75047792Y-114720504D01*
X75198104Y-114570192D01*
X75198106Y-114570188D01*
X75198109Y-114570186D01*
X75323048Y-114398220D01*
X75323047Y-114398220D01*
X75323051Y-114398216D01*
X75327514Y-114389454D01*
X75375488Y-114338659D01*
X75443308Y-114321863D01*
X75509444Y-114344399D01*
X75548486Y-114389456D01*
X75552951Y-114398220D01*
X75677890Y-114570186D01*
X75828213Y-114720509D01*
X76000179Y-114845448D01*
X76000181Y-114845449D01*
X76000184Y-114845451D01*
X76189588Y-114941957D01*
X76391757Y-115007646D01*
X76601713Y-115040900D01*
X76601714Y-115040900D01*
X76814286Y-115040900D01*
X76814287Y-115040900D01*
X77024243Y-115007646D01*
X77226412Y-114941957D01*
X77415816Y-114845451D01*
X77502138Y-114782735D01*
X77587786Y-114720509D01*
X77587788Y-114720506D01*
X77587792Y-114720504D01*
X77738104Y-114570192D01*
X77738106Y-114570188D01*
X77738109Y-114570186D01*
X77863048Y-114398220D01*
X77863047Y-114398220D01*
X77863051Y-114398216D01*
X77867514Y-114389454D01*
X77915488Y-114338659D01*
X77983308Y-114321863D01*
X78049444Y-114344399D01*
X78088486Y-114389456D01*
X78092951Y-114398220D01*
X78217890Y-114570186D01*
X78368213Y-114720509D01*
X78540179Y-114845448D01*
X78540181Y-114845449D01*
X78540184Y-114845451D01*
X78729588Y-114941957D01*
X78931757Y-115007646D01*
X79141713Y-115040900D01*
X79141714Y-115040900D01*
X79354286Y-115040900D01*
X79354287Y-115040900D01*
X79564243Y-115007646D01*
X79766412Y-114941957D01*
X79955816Y-114845451D01*
X80042138Y-114782735D01*
X80127786Y-114720509D01*
X80127788Y-114720506D01*
X80127792Y-114720504D01*
X80278104Y-114570192D01*
X80278106Y-114570188D01*
X80278109Y-114570186D01*
X80403048Y-114398220D01*
X80403047Y-114398220D01*
X80403051Y-114398216D01*
X80407514Y-114389454D01*
X80455488Y-114338659D01*
X80523308Y-114321863D01*
X80589444Y-114344399D01*
X80628486Y-114389456D01*
X80632951Y-114398220D01*
X80757890Y-114570186D01*
X80908213Y-114720509D01*
X81080179Y-114845448D01*
X81080181Y-114845449D01*
X81080184Y-114845451D01*
X81269588Y-114941957D01*
X81471757Y-115007646D01*
X81681713Y-115040900D01*
X81681714Y-115040900D01*
X81894286Y-115040900D01*
X81894287Y-115040900D01*
X82104243Y-115007646D01*
X82306412Y-114941957D01*
X82495816Y-114845451D01*
X82582138Y-114782735D01*
X82667786Y-114720509D01*
X82667788Y-114720506D01*
X82667792Y-114720504D01*
X82818104Y-114570192D01*
X82818106Y-114570188D01*
X82818109Y-114570186D01*
X82943048Y-114398220D01*
X82943047Y-114398220D01*
X82943051Y-114398216D01*
X82947514Y-114389454D01*
X82995488Y-114338659D01*
X83063308Y-114321863D01*
X83129444Y-114344399D01*
X83168486Y-114389456D01*
X83172951Y-114398220D01*
X83297890Y-114570186D01*
X83448213Y-114720509D01*
X83620179Y-114845448D01*
X83620181Y-114845449D01*
X83620184Y-114845451D01*
X83809588Y-114941957D01*
X84011757Y-115007646D01*
X84221713Y-115040900D01*
X84221714Y-115040900D01*
X84434286Y-115040900D01*
X84434287Y-115040900D01*
X84644243Y-115007646D01*
X84846412Y-114941957D01*
X85035816Y-114845451D01*
X85122138Y-114782735D01*
X85207786Y-114720509D01*
X85207788Y-114720506D01*
X85207792Y-114720504D01*
X85358104Y-114570192D01*
X85358106Y-114570188D01*
X85358109Y-114570186D01*
X85483048Y-114398220D01*
X85483047Y-114398220D01*
X85483051Y-114398216D01*
X85487514Y-114389454D01*
X85535488Y-114338659D01*
X85603308Y-114321863D01*
X85669444Y-114344399D01*
X85708486Y-114389456D01*
X85712951Y-114398220D01*
X85837890Y-114570186D01*
X85988213Y-114720509D01*
X86160179Y-114845448D01*
X86160181Y-114845449D01*
X86160184Y-114845451D01*
X86349588Y-114941957D01*
X86551757Y-115007646D01*
X86761713Y-115040900D01*
X86761714Y-115040900D01*
X86974286Y-115040900D01*
X86974287Y-115040900D01*
X87184243Y-115007646D01*
X87386412Y-114941957D01*
X87575816Y-114845451D01*
X87662138Y-114782735D01*
X87747786Y-114720509D01*
X87747788Y-114720506D01*
X87747792Y-114720504D01*
X87898104Y-114570192D01*
X87898106Y-114570188D01*
X87898109Y-114570186D01*
X87965515Y-114477407D01*
X88023051Y-114398216D01*
X88027793Y-114388908D01*
X88075763Y-114338111D01*
X88143583Y-114321311D01*
X88209719Y-114343845D01*
X88248763Y-114388900D01*
X88253377Y-114397955D01*
X88378272Y-114569859D01*
X88378276Y-114569864D01*
X88528535Y-114720123D01*
X88528540Y-114720127D01*
X88700442Y-114845020D01*
X88889782Y-114941495D01*
X89091871Y-115007157D01*
X89158000Y-115017631D01*
X89158000Y-114123412D01*
X89215007Y-114156325D01*
X89342174Y-114190400D01*
X89473826Y-114190400D01*
X89600993Y-114156325D01*
X89658000Y-114123412D01*
X89658000Y-115017630D01*
X89724126Y-115007157D01*
X89724129Y-115007157D01*
X89926217Y-114941495D01*
X90115557Y-114845020D01*
X90287459Y-114720127D01*
X90287464Y-114720123D01*
X90437723Y-114569864D01*
X90437727Y-114569859D01*
X90562620Y-114397958D01*
X90567232Y-114388907D01*
X90615205Y-114338109D01*
X90683025Y-114321312D01*
X90749161Y-114343847D01*
X90788204Y-114388904D01*
X90792949Y-114398217D01*
X90917890Y-114570186D01*
X91068213Y-114720509D01*
X91240179Y-114845448D01*
X91240181Y-114845449D01*
X91240184Y-114845451D01*
X91429588Y-114941957D01*
X91631757Y-115007646D01*
X91841713Y-115040900D01*
X91841714Y-115040900D01*
X92054286Y-115040900D01*
X92054287Y-115040900D01*
X92264243Y-115007646D01*
X92466412Y-114941957D01*
X92655816Y-114845451D01*
X92742138Y-114782735D01*
X92827786Y-114720509D01*
X92827788Y-114720506D01*
X92827792Y-114720504D01*
X92978104Y-114570192D01*
X92978106Y-114570188D01*
X92978109Y-114570186D01*
X93103048Y-114398220D01*
X93103047Y-114398220D01*
X93103051Y-114398216D01*
X93199557Y-114208812D01*
X93265246Y-114006643D01*
X93298500Y-113796687D01*
X93298500Y-113584113D01*
X93265246Y-113374157D01*
X93199557Y-113171988D01*
X93176043Y-113125839D01*
X94231987Y-113125839D01*
X94240242Y-113160217D01*
X94241287Y-113164977D01*
X94247036Y-113193877D01*
X94247892Y-113198672D01*
X94287277Y-113447341D01*
X94287944Y-113452164D01*
X94291404Y-113481397D01*
X94291881Y-113486235D01*
X94294959Y-113525314D01*
X94295246Y-113530179D01*
X94296404Y-113559631D01*
X94296500Y-113564503D01*
X94296500Y-113758868D01*
X95299600Y-113758868D01*
X95299600Y-113689054D01*
X95309039Y-113641602D01*
X95309868Y-113639600D01*
X95309039Y-113637598D01*
X95299600Y-113590146D01*
X95299600Y-112728423D01*
X95299644Y-112725109D01*
X95300180Y-112705061D01*
X95300313Y-112701745D01*
X95301742Y-112675058D01*
X95301964Y-112671744D01*
X95303577Y-112651695D01*
X95303889Y-112648383D01*
X95315055Y-112544531D01*
X95316122Y-112536862D01*
X95324028Y-112490684D01*
X95325572Y-112483099D01*
X95339915Y-112422388D01*
X95341932Y-112414905D01*
X95348728Y-112392500D01*
X94231987Y-112392500D01*
X94231987Y-113125839D01*
X93176043Y-113125839D01*
X93103051Y-112982584D01*
X93103049Y-112982581D01*
X93103048Y-112982579D01*
X92978109Y-112810613D01*
X92827786Y-112660290D01*
X92655820Y-112535351D01*
X92466414Y-112438844D01*
X92466413Y-112438843D01*
X92466412Y-112438843D01*
X92264243Y-112373154D01*
X92264241Y-112373153D01*
X92264240Y-112373153D01*
X92102957Y-112347608D01*
X92054287Y-112339900D01*
X91841713Y-112339900D01*
X91793042Y-112347608D01*
X91631760Y-112373153D01*
X91553806Y-112398482D01*
X91447636Y-112432979D01*
X91429585Y-112438844D01*
X91240179Y-112535351D01*
X91068213Y-112660290D01*
X90917890Y-112810613D01*
X90792949Y-112982582D01*
X90788202Y-112991899D01*
X90740227Y-113042693D01*
X90672405Y-113059487D01*
X90606271Y-113036948D01*
X90567234Y-112991895D01*
X90562622Y-112982844D01*
X90437727Y-112810940D01*
X90437723Y-112810935D01*
X90287464Y-112660676D01*
X90287459Y-112660672D01*
X90115557Y-112535779D01*
X89926215Y-112439303D01*
X89724124Y-112373641D01*
X89658000Y-112363168D01*
X89658000Y-113257388D01*
X89600993Y-113224475D01*
X89473826Y-113190400D01*
X89342174Y-113190400D01*
X89215007Y-113224475D01*
X89158000Y-113257388D01*
X89158000Y-112363168D01*
X89157999Y-112363168D01*
X89091875Y-112373641D01*
X88889784Y-112439303D01*
X88700442Y-112535779D01*
X88528540Y-112660672D01*
X88528535Y-112660676D01*
X88378276Y-112810935D01*
X88378272Y-112810940D01*
X88253378Y-112982843D01*
X88248762Y-112991902D01*
X88200784Y-113042695D01*
X88132963Y-113059487D01*
X88066829Y-113036946D01*
X88027794Y-112991893D01*
X88023051Y-112982584D01*
X88023049Y-112982581D01*
X88023048Y-112982579D01*
X87898109Y-112810613D01*
X87747786Y-112660290D01*
X87571875Y-112532485D01*
X87572851Y-112531140D01*
X87530834Y-112484695D01*
X87518500Y-112430782D01*
X87518500Y-111258868D01*
X89231987Y-111258868D01*
X90733987Y-111258868D01*
X90733987Y-110376688D01*
X90114167Y-109756868D01*
X89231987Y-109756868D01*
X89231987Y-111258868D01*
X87518500Y-111258868D01*
X87518500Y-106049179D01*
X87538185Y-105982140D01*
X87590989Y-105936385D01*
X87660147Y-105926441D01*
X87723703Y-105955466D01*
X87730181Y-105961498D01*
X93017954Y-111249272D01*
X93017961Y-111249278D01*
X93124492Y-111320459D01*
X93124496Y-111320461D01*
X93124503Y-111320466D01*
X93170357Y-111339459D01*
X93242885Y-111369501D01*
X93242889Y-111369501D01*
X93242890Y-111369502D01*
X93368557Y-111394500D01*
X93368560Y-111394500D01*
X93496698Y-111394500D01*
X99757931Y-111394500D01*
X101507792Y-111394500D01*
X101574831Y-111414185D01*
X101595473Y-111430819D01*
X102040781Y-111876127D01*
X102074266Y-111937450D01*
X102077100Y-111963808D01*
X102077100Y-112379982D01*
X102057415Y-112447021D01*
X102023008Y-112480699D01*
X102023725Y-112481685D01*
X101847813Y-112609490D01*
X101697490Y-112759813D01*
X101572549Y-112931782D01*
X101568084Y-112940546D01*
X101520109Y-112991342D01*
X101452288Y-113008136D01*
X101386153Y-112985598D01*
X101347116Y-112940546D01*
X101342650Y-112931782D01*
X101217709Y-112759813D01*
X101067386Y-112609490D01*
X100895420Y-112484551D01*
X100706014Y-112388044D01*
X100706013Y-112388043D01*
X100706012Y-112388043D01*
X100503843Y-112322354D01*
X100503841Y-112322353D01*
X100503840Y-112322353D01*
X100342557Y-112296808D01*
X100293887Y-112289100D01*
X100081313Y-112289100D01*
X100032642Y-112296808D01*
X99871360Y-112322353D01*
X99797631Y-112346309D01*
X99715015Y-112373153D01*
X99669185Y-112388044D01*
X99479779Y-112484551D01*
X99307815Y-112609489D01*
X99193885Y-112723419D01*
X99132562Y-112756903D01*
X99062870Y-112751919D01*
X99006937Y-112710047D01*
X98990022Y-112679070D01*
X98940954Y-112547513D01*
X98940950Y-112547506D01*
X98854790Y-112432412D01*
X98854787Y-112432409D01*
X98739693Y-112346249D01*
X98739686Y-112346245D01*
X98604979Y-112296003D01*
X98604972Y-112296001D01*
X98545444Y-112289600D01*
X97897600Y-112289600D01*
X97897600Y-113206588D01*
X97840593Y-113173675D01*
X97713426Y-113139600D01*
X97581774Y-113139600D01*
X97454607Y-113173675D01*
X97397600Y-113206588D01*
X97397600Y-112289600D01*
X96749755Y-112289600D01*
X96690227Y-112296001D01*
X96690220Y-112296003D01*
X96555513Y-112346245D01*
X96555506Y-112346249D01*
X96440412Y-112432409D01*
X96440409Y-112432412D01*
X96354249Y-112547506D01*
X96354245Y-112547513D01*
X96304003Y-112682220D01*
X96304001Y-112682227D01*
X96297600Y-112741755D01*
X96297600Y-113389600D01*
X97214588Y-113389600D01*
X97181675Y-113446607D01*
X97147600Y-113573774D01*
X97147600Y-113705426D01*
X97181675Y-113832593D01*
X97214588Y-113889600D01*
X96297600Y-113889600D01*
X96297600Y-114537444D01*
X96304001Y-114596972D01*
X96304003Y-114596979D01*
X96354245Y-114731686D01*
X96354249Y-114731693D01*
X96440409Y-114846787D01*
X96440412Y-114846790D01*
X96555506Y-114932950D01*
X96555513Y-114932954D01*
X96690220Y-114983196D01*
X96690227Y-114983198D01*
X96749755Y-114989599D01*
X96749772Y-114989600D01*
X97397600Y-114989600D01*
X97397600Y-114072612D01*
X97454607Y-114105525D01*
X97581774Y-114139600D01*
X97713426Y-114139600D01*
X97840593Y-114105525D01*
X97897600Y-114072612D01*
X97897600Y-114989600D01*
X98545428Y-114989600D01*
X98545444Y-114989599D01*
X98604972Y-114983198D01*
X98604979Y-114983196D01*
X98739686Y-114932954D01*
X98739693Y-114932950D01*
X98854787Y-114846790D01*
X98854790Y-114846787D01*
X98940950Y-114731693D01*
X98940954Y-114731686D01*
X98990022Y-114600129D01*
X99031893Y-114544195D01*
X99097357Y-114519778D01*
X99165630Y-114534630D01*
X99193885Y-114555781D01*
X99307813Y-114669709D01*
X99479779Y-114794648D01*
X99479781Y-114794649D01*
X99479784Y-114794651D01*
X99669188Y-114891157D01*
X99871357Y-114956846D01*
X100081313Y-114990100D01*
X100081314Y-114990100D01*
X100293886Y-114990100D01*
X100293887Y-114990100D01*
X100480892Y-114960481D01*
X100550185Y-114969436D01*
X100587971Y-114995273D01*
X101032988Y-115440291D01*
X101032995Y-115440297D01*
X101099315Y-115484610D01*
X101099316Y-115484610D01*
X101143631Y-115514220D01*
X101179637Y-115529134D01*
X101266564Y-115565141D01*
X101397064Y-115591099D01*
X101397068Y-115591100D01*
X101397069Y-115591100D01*
X106562732Y-115591100D01*
X106562733Y-115591099D01*
X106693236Y-115565141D01*
X106816169Y-115514220D01*
X106926806Y-115440295D01*
X107712695Y-114654406D01*
X107738624Y-114615599D01*
X107792235Y-114570794D01*
X107861560Y-114562085D01*
X107924588Y-114592239D01*
X107961308Y-114651681D01*
X107965725Y-114683772D01*
X107973711Y-116065178D01*
X107954414Y-116132330D01*
X107901876Y-116178390D01*
X107849713Y-116189895D01*
X68627800Y-116189895D01*
X68560761Y-116170210D01*
X68515006Y-116117406D01*
X68503800Y-116065895D01*
X68503800Y-115191895D01*
X94231987Y-115191895D01*
X95468448Y-115191895D01*
X95461238Y-115178691D01*
X95457277Y-115170777D01*
X95435019Y-115122041D01*
X95431630Y-115113861D01*
X95358021Y-114916504D01*
X95355542Y-114909164D01*
X95341932Y-114864295D01*
X95339915Y-114856812D01*
X95325572Y-114796101D01*
X95324028Y-114788516D01*
X95318610Y-114756868D01*
X94231987Y-114756868D01*
X94231987Y-115191895D01*
X68503800Y-115191895D01*
X68503800Y-111651793D01*
X64246087Y-111736947D01*
X64178668Y-111718607D01*
X64131866Y-111666729D01*
X64119610Y-111613708D01*
X64114728Y-110791644D01*
X69231987Y-110791644D01*
X69590600Y-111143157D01*
X69624697Y-111204143D01*
X69627800Y-111231711D01*
X69627800Y-111258868D01*
X70733987Y-111258868D01*
X70733987Y-111255080D01*
X71731987Y-111255080D01*
X73230199Y-109756868D01*
X71731987Y-109756868D01*
X71731987Y-111255080D01*
X70733987Y-111255080D01*
X70733987Y-109756868D01*
X69231987Y-109756868D01*
X69231987Y-110791644D01*
X64114728Y-110791644D01*
X64108582Y-109756868D01*
X65106600Y-109756868D01*
X65111579Y-110595413D01*
X65733987Y-110582965D01*
X65733987Y-110563005D01*
X66731987Y-110563005D01*
X68233987Y-110532965D01*
X68233987Y-109756868D01*
X66731987Y-109756868D01*
X66731987Y-110563005D01*
X65733987Y-110563005D01*
X65733987Y-109756868D01*
X65106600Y-109756868D01*
X64108582Y-109756868D01*
X64093734Y-107256868D01*
X65091752Y-107256868D01*
X65100672Y-108758868D01*
X65733987Y-108758868D01*
X66731987Y-108758868D01*
X68233987Y-108758868D01*
X69231987Y-108758868D01*
X70733987Y-108758868D01*
X71731987Y-108758868D01*
X73233987Y-108758868D01*
X73233987Y-108755080D01*
X74231987Y-108755080D01*
X75730199Y-107256868D01*
X74231987Y-107256868D01*
X74231987Y-108755080D01*
X73233987Y-108755080D01*
X73233987Y-107256868D01*
X71731987Y-107256868D01*
X71731987Y-108758868D01*
X70733987Y-108758868D01*
X70733987Y-107256868D01*
X69231987Y-107256868D01*
X69231987Y-108758868D01*
X68233987Y-108758868D01*
X68233987Y-107256868D01*
X66731987Y-107256868D01*
X66731987Y-108758868D01*
X65733987Y-108758868D01*
X65733987Y-107256868D01*
X65091752Y-107256868D01*
X64093734Y-107256868D01*
X64078886Y-104756868D01*
X65076904Y-104756868D01*
X65085824Y-106258868D01*
X65733987Y-106258868D01*
X66731987Y-106258868D01*
X68233987Y-106258868D01*
X69231987Y-106258868D01*
X70733987Y-106258868D01*
X74231987Y-106258868D01*
X75733987Y-106258868D01*
X75733987Y-106255080D01*
X76731987Y-106255080D01*
X78230199Y-104756868D01*
X76731987Y-104756868D01*
X76731987Y-106255080D01*
X75733987Y-106255080D01*
X75733987Y-104756868D01*
X74231987Y-104756868D01*
X74231987Y-106258868D01*
X70733987Y-106258868D01*
X70733987Y-104756868D01*
X69231987Y-104756868D01*
X69231987Y-106258868D01*
X68233987Y-106258868D01*
X68233987Y-104756868D01*
X66731987Y-104756868D01*
X66731987Y-106258868D01*
X65733987Y-106258868D01*
X65733987Y-104756868D01*
X65076904Y-104756868D01*
X64078886Y-104756868D01*
X64064038Y-102256868D01*
X65062056Y-102256868D01*
X65070976Y-103758868D01*
X65733987Y-103758868D01*
X66731987Y-103758868D01*
X68233987Y-103758868D01*
X69231987Y-103758868D01*
X70733987Y-103758868D01*
X71731987Y-103758868D01*
X73233987Y-103758868D01*
X74231987Y-103758868D01*
X75733987Y-103758868D01*
X76731987Y-103758868D01*
X78233987Y-103758868D01*
X78233987Y-103752500D01*
X78205906Y-103752500D01*
X78199823Y-103752351D01*
X78163051Y-103750545D01*
X78156981Y-103750097D01*
X78108209Y-103745294D01*
X78102168Y-103744549D01*
X78065737Y-103739145D01*
X78059740Y-103738104D01*
X77837689Y-103693935D01*
X77831748Y-103692601D01*
X77796013Y-103683649D01*
X77790145Y-103682025D01*
X77743252Y-103667798D01*
X77737477Y-103665890D01*
X77702825Y-103653491D01*
X77697148Y-103651301D01*
X77488002Y-103564671D01*
X77482441Y-103562206D01*
X77449159Y-103546466D01*
X77443720Y-103543729D01*
X77406206Y-103523678D01*
X79231987Y-103523678D01*
X79231987Y-103755080D01*
X80730199Y-102256868D01*
X80174655Y-102256868D01*
X80159032Y-102335408D01*
X80157698Y-102341349D01*
X80148746Y-102377084D01*
X80147122Y-102382952D01*
X80132895Y-102429845D01*
X80130987Y-102435620D01*
X80118588Y-102470272D01*
X80116398Y-102475949D01*
X80029768Y-102685095D01*
X80027303Y-102690656D01*
X80011563Y-102723938D01*
X80008826Y-102729377D01*
X79985724Y-102772599D01*
X79982724Y-102777894D01*
X79963788Y-102809488D01*
X79960531Y-102814632D01*
X79834754Y-103002869D01*
X79831250Y-103007845D01*
X79809318Y-103037417D01*
X79805573Y-103042215D01*
X79774484Y-103080097D01*
X79770510Y-103084704D01*
X79745779Y-103111991D01*
X79741581Y-103116400D01*
X79581497Y-103276484D01*
X79577088Y-103280682D01*
X79549801Y-103305413D01*
X79545194Y-103309387D01*
X79507312Y-103340476D01*
X79502514Y-103344221D01*
X79472942Y-103366153D01*
X79467966Y-103369657D01*
X79279729Y-103495434D01*
X79274585Y-103498691D01*
X79242991Y-103517627D01*
X79237696Y-103520627D01*
X79231987Y-103523678D01*
X77406206Y-103523678D01*
X77400498Y-103520627D01*
X77395203Y-103517627D01*
X77363609Y-103498691D01*
X77358465Y-103495434D01*
X77170228Y-103369657D01*
X77165252Y-103366153D01*
X77135680Y-103344221D01*
X77130882Y-103340476D01*
X77093000Y-103309387D01*
X77088393Y-103305413D01*
X77061106Y-103280682D01*
X77056697Y-103276484D01*
X76896613Y-103116400D01*
X76892415Y-103111991D01*
X76867684Y-103084704D01*
X76863710Y-103080097D01*
X76832621Y-103042215D01*
X76828876Y-103037417D01*
X76806944Y-103007845D01*
X76803440Y-103002869D01*
X76731987Y-102895932D01*
X76731987Y-103758868D01*
X75733987Y-103758868D01*
X75733987Y-102256868D01*
X74231987Y-102256868D01*
X74231987Y-103758868D01*
X73233987Y-103758868D01*
X73233987Y-102256868D01*
X71731987Y-102256868D01*
X71731987Y-103758868D01*
X70733987Y-103758868D01*
X70733987Y-102256868D01*
X69231987Y-102256868D01*
X69231987Y-103758868D01*
X68233987Y-103758868D01*
X68233987Y-102256868D01*
X66731987Y-102256868D01*
X66731987Y-103758868D01*
X65733987Y-103758868D01*
X65733987Y-102256868D01*
X65062056Y-102256868D01*
X64064038Y-102256868D01*
X64049190Y-99756868D01*
X65047208Y-99756868D01*
X65056128Y-101258868D01*
X65733987Y-101258868D01*
X66731987Y-101258868D01*
X68233987Y-101258868D01*
X69231987Y-101258868D01*
X70733987Y-101258868D01*
X71731987Y-101258868D01*
X73233987Y-101258868D01*
X73233987Y-100910953D01*
X73178592Y-100899935D01*
X73172651Y-100898601D01*
X73136916Y-100889649D01*
X73131048Y-100888025D01*
X73088011Y-100874968D01*
X74231987Y-100874968D01*
X74231987Y-101258868D01*
X75559539Y-101258868D01*
X75009170Y-100708500D01*
X74609133Y-100708500D01*
X74583894Y-100723627D01*
X74578599Y-100726627D01*
X74535377Y-100749729D01*
X74529938Y-100752466D01*
X74496656Y-100768206D01*
X74491095Y-100770671D01*
X74281949Y-100857301D01*
X74276272Y-100859491D01*
X74241620Y-100871890D01*
X74235845Y-100873798D01*
X74231987Y-100874968D01*
X73088011Y-100874968D01*
X73084155Y-100873798D01*
X73078380Y-100871890D01*
X73043728Y-100859491D01*
X73038051Y-100857301D01*
X72828905Y-100770671D01*
X72823344Y-100768206D01*
X72790062Y-100752466D01*
X72784623Y-100749729D01*
X72741401Y-100726627D01*
X72736106Y-100723627D01*
X72704512Y-100704691D01*
X72699368Y-100701434D01*
X72511131Y-100575657D01*
X72506155Y-100572153D01*
X72476583Y-100550221D01*
X72471785Y-100546476D01*
X72433903Y-100515387D01*
X72429296Y-100511413D01*
X72402009Y-100486682D01*
X72397600Y-100482484D01*
X72237516Y-100322400D01*
X72233318Y-100317991D01*
X72208587Y-100290704D01*
X72204613Y-100286097D01*
X72173524Y-100248215D01*
X72169779Y-100243417D01*
X72147847Y-100213845D01*
X72144343Y-100208869D01*
X72018566Y-100020632D01*
X72015309Y-100015488D01*
X71996373Y-99983894D01*
X71993373Y-99978599D01*
X71970271Y-99935377D01*
X71967534Y-99929938D01*
X71951794Y-99896656D01*
X71949329Y-99891095D01*
X71893731Y-99756868D01*
X71731987Y-99756868D01*
X71731987Y-101258868D01*
X70733987Y-101258868D01*
X70733987Y-99756868D01*
X69231987Y-99756868D01*
X69231987Y-101258868D01*
X68233987Y-101258868D01*
X68233987Y-99756868D01*
X66731987Y-99756868D01*
X66731987Y-101258868D01*
X65733987Y-101258868D01*
X65733987Y-99756868D01*
X65047208Y-99756868D01*
X64049190Y-99756868D01*
X64044525Y-98971304D01*
X72759500Y-98971304D01*
X72759500Y-99148695D01*
X72794103Y-99322658D01*
X72794106Y-99322667D01*
X72861983Y-99486540D01*
X72861990Y-99486553D01*
X72960535Y-99634034D01*
X72960538Y-99634038D01*
X73085961Y-99759461D01*
X73085965Y-99759464D01*
X73233446Y-99858009D01*
X73233459Y-99858016D01*
X73326746Y-99896656D01*
X73397334Y-99925894D01*
X73397336Y-99925894D01*
X73397341Y-99925896D01*
X73571304Y-99960499D01*
X73571307Y-99960500D01*
X73571309Y-99960500D01*
X73748693Y-99960500D01*
X73748694Y-99960499D01*
X73816494Y-99947013D01*
X73922658Y-99925896D01*
X73922661Y-99925894D01*
X73922666Y-99925894D01*
X74086547Y-99858013D01*
X74234035Y-99759464D01*
X74236631Y-99756868D01*
X74246681Y-99746819D01*
X74308004Y-99713334D01*
X74334362Y-99710500D01*
X75371192Y-99710500D01*
X75438231Y-99730185D01*
X75458873Y-99746819D01*
X77382395Y-101670340D01*
X77415880Y-101731663D01*
X77417490Y-101759217D01*
X77418597Y-101759217D01*
X77418597Y-101942695D01*
X77453200Y-102116658D01*
X77453203Y-102116667D01*
X77521080Y-102280540D01*
X77521087Y-102280553D01*
X77619632Y-102428034D01*
X77619635Y-102428038D01*
X77745058Y-102553461D01*
X77745062Y-102553464D01*
X77892543Y-102652009D01*
X77892556Y-102652016D01*
X77985843Y-102690656D01*
X78056431Y-102719894D01*
X78056433Y-102719894D01*
X78056438Y-102719896D01*
X78230401Y-102754499D01*
X78230404Y-102754500D01*
X78230406Y-102754500D01*
X78407790Y-102754500D01*
X78407791Y-102754499D01*
X78483665Y-102739407D01*
X78581755Y-102719896D01*
X78581758Y-102719894D01*
X78581763Y-102719894D01*
X78745644Y-102652013D01*
X78893132Y-102553464D01*
X79018561Y-102428035D01*
X79117110Y-102280547D01*
X79184991Y-102116666D01*
X79219597Y-101942691D01*
X79219597Y-101765309D01*
X79219597Y-101765306D01*
X79219596Y-101765304D01*
X79184993Y-101591341D01*
X79184990Y-101591332D01*
X79181591Y-101583127D01*
X79151842Y-101511304D01*
X79117113Y-101427459D01*
X79117106Y-101427446D01*
X79018561Y-101279965D01*
X79018558Y-101279961D01*
X78893135Y-101154538D01*
X78893131Y-101154535D01*
X78745650Y-101055990D01*
X78745637Y-101055983D01*
X78581765Y-100988106D01*
X78581757Y-100988104D01*
X78566584Y-100985086D01*
X78504673Y-100952700D01*
X78503095Y-100951150D01*
X77736267Y-100184321D01*
X79231987Y-100184321D01*
X79237694Y-100187372D01*
X79242991Y-100190373D01*
X79274585Y-100209309D01*
X79279729Y-100212566D01*
X79467966Y-100338343D01*
X79472942Y-100341847D01*
X79502514Y-100363779D01*
X79507312Y-100367524D01*
X79545194Y-100398613D01*
X79549801Y-100402587D01*
X79577088Y-100427318D01*
X79581497Y-100431516D01*
X79741581Y-100591600D01*
X79745779Y-100596009D01*
X79770510Y-100623296D01*
X79774484Y-100627903D01*
X79805573Y-100665785D01*
X79809318Y-100670583D01*
X79831250Y-100700155D01*
X79834754Y-100705131D01*
X79960531Y-100893368D01*
X79963788Y-100898512D01*
X79982724Y-100930106D01*
X79985724Y-100935401D01*
X80008826Y-100978623D01*
X80011563Y-100984062D01*
X80027303Y-101017344D01*
X80029768Y-101022905D01*
X80116398Y-101232051D01*
X80118588Y-101237728D01*
X80126152Y-101258868D01*
X80733987Y-101258868D01*
X80733987Y-99756868D01*
X79231987Y-99756868D01*
X79231987Y-100184321D01*
X77736267Y-100184321D01*
X76106674Y-98554727D01*
X76106673Y-98554726D01*
X76106669Y-98554723D01*
X76000127Y-98483535D01*
X75992826Y-98480511D01*
X75881744Y-98434499D01*
X75881738Y-98434497D01*
X75756071Y-98409500D01*
X75756069Y-98409500D01*
X74334362Y-98409500D01*
X74267323Y-98389815D01*
X74246681Y-98373181D01*
X74234038Y-98360538D01*
X74234034Y-98360535D01*
X74086553Y-98261990D01*
X74086540Y-98261983D01*
X73922667Y-98194106D01*
X73922658Y-98194103D01*
X73748694Y-98159500D01*
X73748691Y-98159500D01*
X73571309Y-98159500D01*
X73571306Y-98159500D01*
X73397341Y-98194103D01*
X73397332Y-98194106D01*
X73233459Y-98261983D01*
X73233446Y-98261990D01*
X73085965Y-98360535D01*
X73085961Y-98360538D01*
X72960538Y-98485961D01*
X72960535Y-98485965D01*
X72861990Y-98633446D01*
X72861983Y-98633459D01*
X72794106Y-98797332D01*
X72794103Y-98797341D01*
X72759500Y-98971304D01*
X64044525Y-98971304D01*
X64043263Y-98758868D01*
X67451904Y-98758868D01*
X68233987Y-98758868D01*
X69231987Y-98758868D01*
X70733987Y-98758868D01*
X71731987Y-98758868D01*
X71784206Y-98758868D01*
X71820065Y-98578592D01*
X71821399Y-98572651D01*
X71830351Y-98536916D01*
X71831975Y-98531048D01*
X71846202Y-98484155D01*
X71848110Y-98478380D01*
X71860509Y-98443728D01*
X71862699Y-98438051D01*
X71949329Y-98228905D01*
X71951794Y-98223344D01*
X71967534Y-98190062D01*
X71970271Y-98184623D01*
X71993373Y-98141401D01*
X71996373Y-98136106D01*
X72015309Y-98104512D01*
X72018566Y-98099368D01*
X72144343Y-97911131D01*
X72147847Y-97906155D01*
X72169779Y-97876583D01*
X72173524Y-97871785D01*
X72204613Y-97833903D01*
X72208587Y-97829296D01*
X72233318Y-97802009D01*
X72237516Y-97797600D01*
X72258265Y-97776851D01*
X76731987Y-97776851D01*
X76758704Y-97798775D01*
X76763315Y-97802753D01*
X76790617Y-97827497D01*
X76795027Y-97831696D01*
X77722198Y-98758868D01*
X78233987Y-98758868D01*
X79231987Y-98758868D01*
X80733987Y-98758868D01*
X80733987Y-97256868D01*
X79231987Y-97256868D01*
X79231987Y-98758868D01*
X78233987Y-98758868D01*
X78233987Y-97256868D01*
X76731987Y-97256868D01*
X76731987Y-97776851D01*
X72258265Y-97776851D01*
X72397600Y-97637516D01*
X72402009Y-97633318D01*
X72429296Y-97608587D01*
X72433903Y-97604613D01*
X72471785Y-97573524D01*
X72476583Y-97569779D01*
X72506155Y-97547847D01*
X72511131Y-97544343D01*
X72699368Y-97418566D01*
X72704512Y-97415309D01*
X72736106Y-97396373D01*
X72741401Y-97393373D01*
X72784623Y-97370271D01*
X72790062Y-97367534D01*
X72823344Y-97351794D01*
X72828905Y-97349329D01*
X72922850Y-97310416D01*
X72914369Y-97256868D01*
X71731987Y-97256868D01*
X71731987Y-98758868D01*
X70733987Y-98758868D01*
X70733987Y-97256868D01*
X69231987Y-97256868D01*
X69231987Y-98758868D01*
X68233987Y-98758868D01*
X68233987Y-97256868D01*
X68131596Y-97256868D01*
X68133628Y-97291330D01*
X68085406Y-97595792D01*
X68084551Y-97600580D01*
X68078811Y-97629443D01*
X68077769Y-97634195D01*
X68068621Y-97672312D01*
X68067391Y-97677028D01*
X68059389Y-97705405D01*
X68057974Y-97710069D01*
X67980191Y-97949463D01*
X67978595Y-97954064D01*
X67968396Y-97981709D01*
X67966621Y-97986245D01*
X67951619Y-98022461D01*
X67949669Y-98026919D01*
X67937340Y-98053663D01*
X67935215Y-98058045D01*
X67820950Y-98282300D01*
X67818654Y-98286594D01*
X67804264Y-98312289D01*
X67801803Y-98316488D01*
X67781322Y-98349911D01*
X67778696Y-98354014D01*
X67762329Y-98378509D01*
X67759545Y-98382503D01*
X67611592Y-98586144D01*
X67608650Y-98590031D01*
X67590392Y-98613189D01*
X67587301Y-98616955D01*
X67561840Y-98646762D01*
X67558606Y-98650401D01*
X67538632Y-98672006D01*
X67535262Y-98675510D01*
X67451904Y-98758868D01*
X64043263Y-98758868D01*
X64000921Y-91629628D01*
X64002444Y-91615858D01*
X64001792Y-91615797D01*
X64002559Y-91607704D01*
X64002561Y-91607697D01*
X64000512Y-91551265D01*
X64000435Y-91547626D01*
X64000100Y-91491137D01*
X64000099Y-91491133D01*
X63999054Y-91483548D01*
X63997780Y-91475996D01*
X63989455Y-91448898D01*
X63988583Y-91379034D01*
X64025621Y-91319789D01*
X64088810Y-91289974D01*
X64114699Y-91288664D01*
X66274194Y-91405846D01*
X66340065Y-91429133D01*
X66382892Y-91484339D01*
X66389073Y-91553935D01*
X66356647Y-91615824D01*
X66355153Y-91617344D01*
X65261307Y-92711190D01*
X65261304Y-92711194D01*
X65187383Y-92821824D01*
X65187378Y-92821834D01*
X65136459Y-92944762D01*
X65132090Y-92966727D01*
X65116431Y-93045453D01*
X65116431Y-93045455D01*
X65110500Y-93075269D01*
X65110500Y-93089700D01*
X65090815Y-93156739D01*
X65038011Y-93202494D01*
X64986501Y-93213700D01*
X64888130Y-93213700D01*
X64888123Y-93213701D01*
X64828516Y-93220108D01*
X64693671Y-93270402D01*
X64693664Y-93270406D01*
X64578455Y-93356652D01*
X64578452Y-93356655D01*
X64492206Y-93471864D01*
X64492202Y-93471871D01*
X64441908Y-93606717D01*
X64436015Y-93661535D01*
X64435501Y-93666323D01*
X64435500Y-93666335D01*
X64435500Y-95462070D01*
X64435501Y-95462076D01*
X64441908Y-95521683D01*
X64492202Y-95656528D01*
X64492206Y-95656535D01*
X64578452Y-95771744D01*
X64578455Y-95771747D01*
X64693664Y-95857993D01*
X64693671Y-95857997D01*
X64693674Y-95857998D01*
X64825598Y-95907202D01*
X64881531Y-95949073D01*
X64905949Y-96014537D01*
X64891098Y-96082810D01*
X64869947Y-96111065D01*
X64756271Y-96224741D01*
X64631379Y-96396642D01*
X64534904Y-96585982D01*
X64469242Y-96788070D01*
X64469242Y-96788073D01*
X64458769Y-96854200D01*
X65352988Y-96854200D01*
X65320075Y-96911207D01*
X65286000Y-97038374D01*
X65286000Y-97170026D01*
X65320075Y-97297193D01*
X65352988Y-97354200D01*
X64458769Y-97354200D01*
X64469242Y-97420326D01*
X64469242Y-97420329D01*
X64534904Y-97622417D01*
X64631379Y-97811757D01*
X64756272Y-97983659D01*
X64756276Y-97983664D01*
X64906535Y-98133923D01*
X64906540Y-98133927D01*
X65078442Y-98258820D01*
X65267782Y-98355295D01*
X65469871Y-98420957D01*
X65536000Y-98431431D01*
X65536000Y-97537212D01*
X65593007Y-97570125D01*
X65720174Y-97604200D01*
X65851826Y-97604200D01*
X65978993Y-97570125D01*
X66036000Y-97537212D01*
X66036000Y-98431430D01*
X66102126Y-98420957D01*
X66102129Y-98420957D01*
X66304217Y-98355295D01*
X66493557Y-98258820D01*
X66665459Y-98133927D01*
X66665464Y-98133923D01*
X66815723Y-97983664D01*
X66815727Y-97983659D01*
X66940620Y-97811757D01*
X67037095Y-97622417D01*
X67102757Y-97420329D01*
X67102757Y-97420326D01*
X67113231Y-97354200D01*
X66219012Y-97354200D01*
X66251925Y-97297193D01*
X66286000Y-97170026D01*
X66286000Y-97038374D01*
X66251925Y-96911207D01*
X66219012Y-96854200D01*
X67113231Y-96854200D01*
X67102757Y-96788073D01*
X67102757Y-96788070D01*
X67037095Y-96585982D01*
X66940620Y-96396642D01*
X66840522Y-96258868D01*
X69231987Y-96258868D01*
X70733987Y-96258868D01*
X71731987Y-96258868D01*
X73152057Y-96258868D01*
X73190511Y-96205940D01*
X73203148Y-96191144D01*
X73233987Y-96160305D01*
X73233987Y-95754000D01*
X74231987Y-95754000D01*
X74258507Y-95754000D01*
X74277905Y-95755527D01*
X74456690Y-95783844D01*
X74475610Y-95788386D01*
X74647765Y-95844322D01*
X74665742Y-95851768D01*
X74827026Y-95933947D01*
X74843616Y-95944114D01*
X74990060Y-96050511D01*
X75004856Y-96063148D01*
X75132852Y-96191144D01*
X75145489Y-96205940D01*
X75183943Y-96258868D01*
X75733987Y-96258868D01*
X76731987Y-96258868D01*
X78233987Y-96258868D01*
X79231987Y-96258868D01*
X80733987Y-96258868D01*
X80733987Y-94756868D01*
X79231987Y-94756868D01*
X79231987Y-96258868D01*
X78233987Y-96258868D01*
X78233987Y-94756868D01*
X76731987Y-94756868D01*
X76731987Y-96258868D01*
X75733987Y-96258868D01*
X75733987Y-94756868D01*
X74231987Y-94756868D01*
X74231987Y-95754000D01*
X73233987Y-95754000D01*
X73233987Y-94756868D01*
X71731987Y-94756868D01*
X71731987Y-96258868D01*
X70733987Y-96258868D01*
X70733987Y-94756868D01*
X69231987Y-94756868D01*
X69231987Y-96258868D01*
X66840522Y-96258868D01*
X66815727Y-96224740D01*
X66815723Y-96224735D01*
X66702053Y-96111065D01*
X66668568Y-96049742D01*
X66673552Y-95980050D01*
X66715424Y-95924117D01*
X66746400Y-95907202D01*
X66878331Y-95857996D01*
X66993546Y-95771746D01*
X67079796Y-95656531D01*
X67130091Y-95521683D01*
X67136500Y-95462073D01*
X67136499Y-93758868D01*
X69231987Y-93758868D01*
X70733987Y-93758868D01*
X71731987Y-93758868D01*
X73233987Y-93758868D01*
X74231987Y-93758868D01*
X75733987Y-93758868D01*
X76731987Y-93758868D01*
X78233987Y-93758868D01*
X79231987Y-93758868D01*
X80733987Y-93758868D01*
X81731987Y-93758868D01*
X83233987Y-93758868D01*
X83233987Y-92256868D01*
X81731987Y-92256868D01*
X81731987Y-93758868D01*
X80733987Y-93758868D01*
X80733987Y-92256868D01*
X79231987Y-92256868D01*
X79231987Y-93758868D01*
X78233987Y-93758868D01*
X78233987Y-92256868D01*
X76731987Y-92256868D01*
X76731987Y-93758868D01*
X75733987Y-93758868D01*
X75733987Y-92256868D01*
X74231987Y-92256868D01*
X74231987Y-93758868D01*
X73233987Y-93758868D01*
X73233987Y-92256868D01*
X71731987Y-92256868D01*
X71731987Y-93758868D01*
X70733987Y-93758868D01*
X70733987Y-92256868D01*
X69231987Y-92256868D01*
X69231987Y-93758868D01*
X67136499Y-93758868D01*
X67136499Y-93666328D01*
X67130091Y-93606717D01*
X67117482Y-93572911D01*
X67079797Y-93471871D01*
X67079793Y-93471864D01*
X66993547Y-93356655D01*
X66993544Y-93356652D01*
X66878335Y-93270406D01*
X66878330Y-93270403D01*
X66865639Y-93265670D01*
X66809706Y-93223798D01*
X66785289Y-93158334D01*
X66800141Y-93090061D01*
X66821288Y-93061811D01*
X68624232Y-91258868D01*
X71731987Y-91258868D01*
X73233987Y-91258868D01*
X74231987Y-91258868D01*
X75733987Y-91258868D01*
X76731987Y-91258868D01*
X78233987Y-91258868D01*
X79231987Y-91258868D01*
X80733987Y-91258868D01*
X81731987Y-91258868D01*
X83233987Y-91258868D01*
X83233987Y-90065500D01*
X81731987Y-90065500D01*
X81731987Y-91258868D01*
X80733987Y-91258868D01*
X80733987Y-90065500D01*
X79231987Y-90065500D01*
X79231987Y-91258868D01*
X78233987Y-91258868D01*
X78233987Y-90065500D01*
X76731987Y-90065500D01*
X76731987Y-91258868D01*
X75733987Y-91258868D01*
X75733987Y-90065500D01*
X74231987Y-90065500D01*
X74231987Y-91258868D01*
X73233987Y-91258868D01*
X73233987Y-90065500D01*
X71731987Y-90065500D01*
X71731987Y-91258868D01*
X68624232Y-91258868D01*
X70779282Y-89103819D01*
X70840605Y-89070334D01*
X70866963Y-89067500D01*
X84866565Y-89067500D01*
X84933604Y-89087185D01*
G37*
%TD.AperFunction*%
%TA.AperFunction,Conductor*%
G36*
X92129539Y-92675871D02*
G01*
X92175294Y-92728675D01*
X92186500Y-92780186D01*
X92186500Y-96734638D01*
X92166815Y-96801677D01*
X92150181Y-96822319D01*
X92137538Y-96834961D01*
X92137535Y-96834965D01*
X92038990Y-96982446D01*
X92038983Y-96982459D01*
X91971106Y-97146332D01*
X91971103Y-97146341D01*
X91936500Y-97320304D01*
X91936500Y-97497695D01*
X91971103Y-97671658D01*
X91971106Y-97671667D01*
X92038983Y-97835540D01*
X92038990Y-97835553D01*
X92137535Y-97983034D01*
X92137538Y-97983038D01*
X92262961Y-98108461D01*
X92262965Y-98108464D01*
X92410446Y-98207009D01*
X92410459Y-98207016D01*
X92533363Y-98257923D01*
X92574334Y-98274894D01*
X92574336Y-98274894D01*
X92574341Y-98274896D01*
X92748304Y-98309499D01*
X92748307Y-98309500D01*
X92748309Y-98309500D01*
X92925693Y-98309500D01*
X92925694Y-98309499D01*
X92983682Y-98297964D01*
X93099658Y-98274896D01*
X93099661Y-98274894D01*
X93099666Y-98274894D01*
X93263547Y-98207013D01*
X93411035Y-98108464D01*
X93536464Y-97983035D01*
X93635013Y-97835547D01*
X93702894Y-97671666D01*
X93704567Y-97663258D01*
X93732522Y-97522717D01*
X93737500Y-97497691D01*
X93737500Y-97320309D01*
X93737500Y-97320306D01*
X93737499Y-97320304D01*
X93702896Y-97146341D01*
X93702893Y-97146332D01*
X93635016Y-96982459D01*
X93635009Y-96982446D01*
X93536464Y-96834965D01*
X93536461Y-96834961D01*
X93523819Y-96822319D01*
X93490334Y-96760996D01*
X93487500Y-96734638D01*
X93487500Y-95202605D01*
X93507185Y-95135566D01*
X93559989Y-95089811D01*
X93629147Y-95079867D01*
X93680388Y-95099501D01*
X93769453Y-95159013D01*
X93769455Y-95159014D01*
X93769459Y-95159016D01*
X93880923Y-95205185D01*
X93933334Y-95226894D01*
X93933336Y-95226894D01*
X93933341Y-95226896D01*
X94107304Y-95261499D01*
X94107307Y-95261500D01*
X94107309Y-95261500D01*
X94284693Y-95261500D01*
X94284694Y-95261499D01*
X94383136Y-95241918D01*
X94458658Y-95226896D01*
X94458661Y-95226894D01*
X94458666Y-95226894D01*
X94535813Y-95194938D01*
X94583265Y-95185500D01*
X95845638Y-95185500D01*
X95912677Y-95205185D01*
X95933319Y-95221819D01*
X95945961Y-95234461D01*
X95945965Y-95234464D01*
X95986425Y-95261499D01*
X96079074Y-95323405D01*
X96123879Y-95377017D01*
X96132586Y-95446342D01*
X96102432Y-95509370D01*
X96097864Y-95514188D01*
X95214724Y-96397328D01*
X95159610Y-96479814D01*
X95143535Y-96503871D01*
X95094499Y-96622255D01*
X95094497Y-96622261D01*
X95069500Y-96747928D01*
X95069500Y-98523192D01*
X95049815Y-98590231D01*
X95033181Y-98610873D01*
X92980873Y-100663181D01*
X92919550Y-100696666D01*
X92893192Y-100699500D01*
X92875306Y-100699500D01*
X92701341Y-100734103D01*
X92701332Y-100734106D01*
X92537459Y-100801983D01*
X92537446Y-100801990D01*
X92389965Y-100900535D01*
X92389961Y-100900538D01*
X92264538Y-101025961D01*
X92264535Y-101025965D01*
X92165990Y-101173446D01*
X92165983Y-101173459D01*
X92098106Y-101337332D01*
X92098103Y-101337341D01*
X92063500Y-101511304D01*
X92063500Y-101688695D01*
X92098103Y-101862658D01*
X92098106Y-101862667D01*
X92165983Y-102026540D01*
X92165990Y-102026553D01*
X92264535Y-102174034D01*
X92264538Y-102174038D01*
X92389961Y-102299461D01*
X92389965Y-102299464D01*
X92537446Y-102398009D01*
X92537459Y-102398016D01*
X92628245Y-102435620D01*
X92701334Y-102465894D01*
X92701336Y-102465894D01*
X92701341Y-102465896D01*
X92875304Y-102500499D01*
X92875307Y-102500500D01*
X92875309Y-102500500D01*
X93052693Y-102500500D01*
X93052694Y-102500499D01*
X93110682Y-102488964D01*
X93226658Y-102465896D01*
X93226661Y-102465894D01*
X93226666Y-102465894D01*
X93390547Y-102398013D01*
X93538035Y-102299464D01*
X93663464Y-102174035D01*
X93762013Y-102026547D01*
X93829894Y-101862666D01*
X93864500Y-101688691D01*
X93864500Y-101670808D01*
X93884185Y-101603769D01*
X93900819Y-101583127D01*
X95320603Y-100163343D01*
X96731987Y-100163343D01*
X96731987Y-101258868D01*
X97911538Y-101258868D01*
X96774000Y-100121330D01*
X96731987Y-100163343D01*
X95320603Y-100163343D01*
X96225272Y-99258674D01*
X96225277Y-99258669D01*
X96296466Y-99152126D01*
X96334497Y-99060309D01*
X96345501Y-99033744D01*
X96356481Y-98978547D01*
X96370500Y-98908071D01*
X96370500Y-98450015D01*
X96390185Y-98382976D01*
X96442989Y-98337221D01*
X96512147Y-98327277D01*
X96575703Y-98356302D01*
X96609061Y-98402563D01*
X96611035Y-98407330D01*
X96611036Y-98407332D01*
X96611934Y-98409500D01*
X96678913Y-98571207D01*
X96678920Y-98571219D01*
X96777465Y-98718700D01*
X96777468Y-98718704D01*
X96902892Y-98844128D01*
X96902895Y-98844130D01*
X96929988Y-98862233D01*
X96964199Y-98896444D01*
X96971652Y-98907598D01*
X96971655Y-98907602D01*
X102156591Y-104092537D01*
X102190076Y-104153860D01*
X102185092Y-104223552D01*
X102183472Y-104227669D01*
X102143148Y-104325022D01*
X102143146Y-104325026D01*
X102108543Y-104498989D01*
X102108543Y-104676380D01*
X102143146Y-104850343D01*
X102143149Y-104850352D01*
X102211026Y-105014225D01*
X102211033Y-105014238D01*
X102309578Y-105161719D01*
X102309581Y-105161723D01*
X102435004Y-105287146D01*
X102435008Y-105287149D01*
X102582489Y-105385694D01*
X102582502Y-105385701D01*
X102675789Y-105424341D01*
X102746377Y-105453579D01*
X102746379Y-105453579D01*
X102746384Y-105453581D01*
X102920347Y-105488184D01*
X102920350Y-105488185D01*
X102920352Y-105488185D01*
X103097736Y-105488185D01*
X103097737Y-105488184D01*
X103188226Y-105470185D01*
X103271701Y-105453581D01*
X103271704Y-105453579D01*
X103271709Y-105453579D01*
X103435590Y-105385698D01*
X103583078Y-105287149D01*
X103708507Y-105161720D01*
X103807056Y-105014232D01*
X103874937Y-104850351D01*
X103909543Y-104676376D01*
X103909543Y-104498994D01*
X103909543Y-104498991D01*
X103909542Y-104498989D01*
X103874939Y-104325026D01*
X103874936Y-104325017D01*
X103807059Y-104161144D01*
X103807052Y-104161131D01*
X103708507Y-104013650D01*
X103708504Y-104013646D01*
X103664626Y-103969769D01*
X103631140Y-103908446D01*
X103630689Y-103906278D01*
X103612108Y-103812869D01*
X103612107Y-103812862D01*
X103584945Y-103747288D01*
X103584945Y-103747287D01*
X103563075Y-103694486D01*
X103563073Y-103694483D01*
X103563072Y-103694480D01*
X103535684Y-103653491D01*
X103491884Y-103587938D01*
X103491878Y-103587931D01*
X98384457Y-98480511D01*
X98350972Y-98419188D01*
X98350521Y-98368638D01*
X98377430Y-98233359D01*
X98377430Y-98055972D01*
X98377429Y-98055970D01*
X98342826Y-97882007D01*
X98342823Y-97881998D01*
X98274946Y-97718125D01*
X98274939Y-97718112D01*
X98176394Y-97570631D01*
X98176391Y-97570627D01*
X98050968Y-97445204D01*
X98050964Y-97445201D01*
X98014340Y-97420729D01*
X99231987Y-97420729D01*
X99274231Y-97522717D01*
X99276421Y-97528394D01*
X99288820Y-97563046D01*
X99290728Y-97568821D01*
X99304955Y-97615714D01*
X99306579Y-97621582D01*
X99315531Y-97657317D01*
X99316865Y-97663258D01*
X99361034Y-97885309D01*
X99362075Y-97891306D01*
X99367479Y-97927737D01*
X99368224Y-97933778D01*
X99373027Y-97982550D01*
X99373475Y-97988620D01*
X99375281Y-98025392D01*
X99375430Y-98031475D01*
X99375430Y-98060099D01*
X99908436Y-98593105D01*
X99910999Y-98588830D01*
X99914256Y-98583686D01*
X100045504Y-98387260D01*
X100049007Y-98382286D01*
X100070940Y-98352712D01*
X100074686Y-98347912D01*
X100105775Y-98310030D01*
X100109749Y-98305423D01*
X100134480Y-98278136D01*
X100138678Y-98273727D01*
X100305727Y-98106678D01*
X100310136Y-98102480D01*
X100337423Y-98077749D01*
X100342030Y-98073775D01*
X100379912Y-98042686D01*
X100384712Y-98038940D01*
X100414286Y-98017007D01*
X100419260Y-98013504D01*
X100615686Y-97882256D01*
X100620830Y-97878999D01*
X100652422Y-97860064D01*
X100657718Y-97857064D01*
X100700939Y-97833963D01*
X100706374Y-97831227D01*
X100733987Y-97818167D01*
X100733987Y-97620031D01*
X101731987Y-97620031D01*
X101760975Y-97621455D01*
X101767046Y-97621903D01*
X101815815Y-97626706D01*
X101821858Y-97627451D01*
X101858286Y-97632855D01*
X101864281Y-97633896D01*
X102095987Y-97679985D01*
X102101924Y-97681318D01*
X102137652Y-97690267D01*
X102143522Y-97691891D01*
X102190418Y-97706118D01*
X102196197Y-97708027D01*
X102230859Y-97720430D01*
X102236535Y-97722620D01*
X102454783Y-97813021D01*
X102460346Y-97815487D01*
X102493626Y-97831227D01*
X102499061Y-97833963D01*
X102542282Y-97857064D01*
X102547578Y-97860064D01*
X102579170Y-97878999D01*
X102584314Y-97882256D01*
X102780740Y-98013504D01*
X102785714Y-98017007D01*
X102799863Y-98027500D01*
X102818743Y-98027500D01*
X102819975Y-98023048D01*
X102834202Y-97976155D01*
X102836110Y-97970380D01*
X102848509Y-97935728D01*
X102850699Y-97930051D01*
X102937329Y-97720905D01*
X102939794Y-97715344D01*
X102955534Y-97682062D01*
X102958271Y-97676623D01*
X102981373Y-97633401D01*
X102984373Y-97628106D01*
X103003309Y-97596512D01*
X103006566Y-97591368D01*
X103132343Y-97403131D01*
X103135847Y-97398155D01*
X103157779Y-97368583D01*
X103161524Y-97363785D01*
X103192613Y-97325903D01*
X103196587Y-97321296D01*
X103221318Y-97294009D01*
X103225516Y-97289600D01*
X103233987Y-97281129D01*
X103233987Y-97256868D01*
X101731987Y-97256868D01*
X101731987Y-97620031D01*
X100733987Y-97620031D01*
X100733987Y-97256868D01*
X99231987Y-97256868D01*
X99231987Y-97420729D01*
X98014340Y-97420729D01*
X97903483Y-97346656D01*
X97903470Y-97346649D01*
X97739597Y-97278772D01*
X97739588Y-97278769D01*
X97565624Y-97244166D01*
X97565621Y-97244166D01*
X97388239Y-97244166D01*
X97388236Y-97244166D01*
X97214271Y-97278769D01*
X97214262Y-97278772D01*
X97050389Y-97346649D01*
X97050376Y-97346656D01*
X96902895Y-97445201D01*
X96902891Y-97445204D01*
X96777468Y-97570627D01*
X96777465Y-97570631D01*
X96678920Y-97718112D01*
X96678913Y-97718125D01*
X96609061Y-97886768D01*
X96565221Y-97941172D01*
X96498927Y-97963237D01*
X96431227Y-97945958D01*
X96383616Y-97894821D01*
X96370500Y-97839316D01*
X96370500Y-97132808D01*
X96390185Y-97065769D01*
X96406819Y-97045127D01*
X97769127Y-95682819D01*
X97830450Y-95649334D01*
X97856808Y-95646500D01*
X105474070Y-95646500D01*
X105493372Y-95642660D01*
X105565316Y-95628349D01*
X105634906Y-95634576D01*
X105690084Y-95677438D01*
X105713329Y-95743327D01*
X105711981Y-95769356D01*
X105710500Y-95778713D01*
X105710500Y-95991287D01*
X105719880Y-96050511D01*
X105744516Y-96206055D01*
X105742877Y-96206314D01*
X105739738Y-96268883D01*
X105710342Y-96315710D01*
X104325296Y-97700756D01*
X104285069Y-97727636D01*
X104221453Y-97753986D01*
X104073965Y-97852535D01*
X104073961Y-97852538D01*
X103948538Y-97977961D01*
X103948535Y-97977965D01*
X103849990Y-98125446D01*
X103849983Y-98125459D01*
X103782106Y-98289332D01*
X103782103Y-98289341D01*
X103747500Y-98463304D01*
X103747500Y-98640695D01*
X103782103Y-98814658D01*
X103782105Y-98814662D01*
X103782106Y-98814666D01*
X103798419Y-98854049D01*
X103805886Y-98923518D01*
X103774611Y-98985997D01*
X103714521Y-99021649D01*
X103683857Y-99025500D01*
X102446950Y-99025500D01*
X102379911Y-99005815D01*
X102343849Y-98970393D01*
X102338301Y-98962090D01*
X102205911Y-98829700D01*
X102205907Y-98829697D01*
X102050237Y-98725681D01*
X102050228Y-98725676D01*
X101877251Y-98654027D01*
X101877243Y-98654025D01*
X101693620Y-98617500D01*
X101693616Y-98617500D01*
X101506384Y-98617500D01*
X101506379Y-98617500D01*
X101322756Y-98654025D01*
X101322748Y-98654027D01*
X101149771Y-98725676D01*
X101149762Y-98725681D01*
X100994092Y-98829697D01*
X100994088Y-98829700D01*
X100861700Y-98962088D01*
X100861697Y-98962092D01*
X100757681Y-99117762D01*
X100757676Y-99117771D01*
X100686027Y-99290748D01*
X100686025Y-99290756D01*
X100649500Y-99474379D01*
X100649500Y-99661620D01*
X100686025Y-99845243D01*
X100686027Y-99845251D01*
X100757676Y-100018228D01*
X100757681Y-100018237D01*
X100861697Y-100173907D01*
X100861700Y-100173911D01*
X100994088Y-100306299D01*
X100994092Y-100306302D01*
X101149762Y-100410318D01*
X101149768Y-100410321D01*
X101149769Y-100410322D01*
X101322749Y-100481973D01*
X101470755Y-100511413D01*
X101506379Y-100518499D01*
X101506383Y-100518500D01*
X101506384Y-100518500D01*
X101543837Y-100518500D01*
X101610876Y-100538185D01*
X101631518Y-100554819D01*
X106376390Y-105299692D01*
X106376391Y-105299693D01*
X106376394Y-105299695D01*
X106457391Y-105353815D01*
X106502196Y-105407426D01*
X106512500Y-105456917D01*
X106512500Y-112675242D01*
X106492815Y-112742281D01*
X106440011Y-112788036D01*
X106370853Y-112797980D01*
X106307297Y-112768955D01*
X106300819Y-112762923D01*
X106147386Y-112609490D01*
X105975419Y-112484551D01*
X105975418Y-112484550D01*
X105975416Y-112484549D01*
X105918100Y-112455345D01*
X105874205Y-112432979D01*
X105823409Y-112385004D01*
X105806500Y-112322494D01*
X105806500Y-111327628D01*
X105781502Y-111201961D01*
X105781501Y-111201960D01*
X105781501Y-111201956D01*
X105732465Y-111083573D01*
X105721081Y-111066535D01*
X105661277Y-110977031D01*
X105661275Y-110977028D01*
X103906973Y-109222726D01*
X103906969Y-109222723D01*
X103800427Y-109151535D01*
X103682044Y-109102499D01*
X103682038Y-109102497D01*
X103556371Y-109077500D01*
X103556369Y-109077500D01*
X93483914Y-109077500D01*
X93416875Y-109057815D01*
X93396233Y-109041181D01*
X88532851Y-104177799D01*
X88499366Y-104116476D01*
X88498914Y-104114307D01*
X88493501Y-104087091D01*
X88455574Y-103995527D01*
X88444466Y-103968710D01*
X88444462Y-103968703D01*
X88436946Y-103957455D01*
X88436941Y-103957448D01*
X88428242Y-103944428D01*
X88407367Y-103877750D01*
X88407347Y-103875541D01*
X88407347Y-103597476D01*
X88427032Y-103530437D01*
X88479836Y-103484682D01*
X88548994Y-103474738D01*
X88612550Y-103503763D01*
X88619028Y-103509795D01*
X93208905Y-108099673D01*
X93208906Y-108099674D01*
X93208909Y-108099676D01*
X93311815Y-108168435D01*
X93315450Y-108170864D01*
X93315451Y-108170864D01*
X93315452Y-108170865D01*
X93433835Y-108219901D01*
X93433839Y-108219901D01*
X93433840Y-108219902D01*
X93559507Y-108244900D01*
X93559510Y-108244900D01*
X93559638Y-108244900D01*
X93559703Y-108244919D01*
X93565570Y-108245497D01*
X93565460Y-108246609D01*
X93626677Y-108264585D01*
X93647319Y-108281219D01*
X93659961Y-108293861D01*
X93659965Y-108293864D01*
X93807446Y-108392409D01*
X93807459Y-108392416D01*
X93902890Y-108431944D01*
X93971334Y-108460294D01*
X93971336Y-108460294D01*
X93971341Y-108460296D01*
X94145304Y-108494899D01*
X94145307Y-108494900D01*
X94145309Y-108494900D01*
X94322693Y-108494900D01*
X94322694Y-108494899D01*
X94425178Y-108474514D01*
X94496658Y-108460296D01*
X94496661Y-108460294D01*
X94496666Y-108460294D01*
X94660547Y-108392413D01*
X94808035Y-108293864D01*
X94850413Y-108251486D01*
X104231987Y-108251486D01*
X104243843Y-108257094D01*
X104249280Y-108259831D01*
X104292498Y-108282932D01*
X104297794Y-108285932D01*
X104329371Y-108304859D01*
X104334511Y-108308114D01*
X104481789Y-108406521D01*
X104486761Y-108410023D01*
X104516321Y-108431944D01*
X104521119Y-108435687D01*
X104559004Y-108466775D01*
X104563615Y-108470753D01*
X104590917Y-108495497D01*
X104595327Y-108499696D01*
X104854499Y-108758868D01*
X105514500Y-108758868D01*
X105514500Y-107256868D01*
X104231987Y-107256868D01*
X104231987Y-108251486D01*
X94850413Y-108251486D01*
X94933464Y-108168435D01*
X94992889Y-108079500D01*
X96731987Y-108079500D01*
X98233987Y-108079500D01*
X99231987Y-108079500D01*
X100733987Y-108079500D01*
X101731987Y-108079500D01*
X103233987Y-108079500D01*
X103233987Y-107256868D01*
X101731987Y-107256868D01*
X101731987Y-108079500D01*
X100733987Y-108079500D01*
X100733987Y-107256868D01*
X100377069Y-107256868D01*
X100329319Y-107272383D01*
X100310399Y-107276925D01*
X100123840Y-107306473D01*
X100104442Y-107308000D01*
X99915558Y-107308000D01*
X99896160Y-107306473D01*
X99709601Y-107276925D01*
X99690681Y-107272383D01*
X99642931Y-107256868D01*
X99231987Y-107256868D01*
X99231987Y-108079500D01*
X98233987Y-108079500D01*
X98233987Y-107256868D01*
X96731987Y-107256868D01*
X96731987Y-108079500D01*
X94992889Y-108079500D01*
X95032013Y-108020947D01*
X95099894Y-107857066D01*
X95134500Y-107683091D01*
X95134500Y-107505709D01*
X95134500Y-107505706D01*
X95134499Y-107505704D01*
X95099896Y-107331741D01*
X95099893Y-107331732D01*
X95032016Y-107167859D01*
X95032009Y-107167846D01*
X94933464Y-107020365D01*
X94933461Y-107020361D01*
X94808038Y-106894938D01*
X94808034Y-106894935D01*
X94660553Y-106796390D01*
X94660540Y-106796383D01*
X94496667Y-106728506D01*
X94496658Y-106728503D01*
X94322694Y-106693900D01*
X94322691Y-106693900D01*
X94145309Y-106693900D01*
X94145306Y-106693900D01*
X93971341Y-106728503D01*
X93971341Y-106728504D01*
X93971338Y-106728505D01*
X93971334Y-106728506D01*
X93840200Y-106782823D01*
X93770730Y-106790291D01*
X93708251Y-106759015D01*
X93705067Y-106755942D01*
X92645025Y-105695900D01*
X94231987Y-105695900D01*
X94347191Y-105695900D01*
X94353274Y-105696049D01*
X94390046Y-105697855D01*
X94396116Y-105698303D01*
X94444888Y-105703106D01*
X94450929Y-105703851D01*
X94487360Y-105709255D01*
X94493357Y-105710296D01*
X94715408Y-105754465D01*
X94721349Y-105755799D01*
X94757084Y-105764751D01*
X94762952Y-105766375D01*
X94809845Y-105780602D01*
X94815620Y-105782510D01*
X94850272Y-105794909D01*
X94855949Y-105797099D01*
X95065095Y-105883729D01*
X95070656Y-105886194D01*
X95103938Y-105901934D01*
X95109377Y-105904671D01*
X95152599Y-105927773D01*
X95157894Y-105930773D01*
X95189488Y-105949709D01*
X95194632Y-105952966D01*
X95382869Y-106078743D01*
X95387845Y-106082247D01*
X95417417Y-106104179D01*
X95422215Y-106107924D01*
X95460097Y-106139013D01*
X95464704Y-106142987D01*
X95491991Y-106167718D01*
X95496400Y-106171916D01*
X95583352Y-106258868D01*
X95733987Y-106258868D01*
X96731987Y-106258868D01*
X98233987Y-106258868D01*
X98233987Y-106045659D01*
X104231987Y-106045659D01*
X104231987Y-106258868D01*
X105514500Y-106258868D01*
X105514500Y-105849185D01*
X104824238Y-105158923D01*
X104822841Y-105163530D01*
X104820933Y-105169305D01*
X104808534Y-105203957D01*
X104806344Y-105209634D01*
X104719714Y-105418780D01*
X104717249Y-105424341D01*
X104701509Y-105457623D01*
X104698772Y-105463062D01*
X104675670Y-105506284D01*
X104672670Y-105511579D01*
X104653734Y-105543173D01*
X104650477Y-105548317D01*
X104524700Y-105736554D01*
X104521196Y-105741530D01*
X104499264Y-105771102D01*
X104495519Y-105775900D01*
X104464430Y-105813782D01*
X104460456Y-105818389D01*
X104435725Y-105845676D01*
X104431527Y-105850085D01*
X104271443Y-106010169D01*
X104267034Y-106014367D01*
X104239747Y-106039098D01*
X104235140Y-106043072D01*
X104231987Y-106045659D01*
X98233987Y-106045659D01*
X98233987Y-104756868D01*
X96731987Y-104756868D01*
X96731987Y-106258868D01*
X95733987Y-106258868D01*
X95733987Y-104756868D01*
X94231987Y-104756868D01*
X94231987Y-105695900D01*
X92645025Y-105695900D01*
X90320603Y-103371478D01*
X91731987Y-103371478D01*
X92119377Y-103758868D01*
X93233987Y-103758868D01*
X93233987Y-103481989D01*
X93223358Y-103484104D01*
X93217360Y-103485145D01*
X93180929Y-103490549D01*
X93174888Y-103491294D01*
X93126116Y-103496097D01*
X93120046Y-103496545D01*
X93083274Y-103498351D01*
X93077191Y-103498500D01*
X92850809Y-103498500D01*
X92844726Y-103498351D01*
X92807954Y-103496545D01*
X92801884Y-103496097D01*
X92753112Y-103491294D01*
X92747071Y-103490549D01*
X92710640Y-103485145D01*
X92704643Y-103484104D01*
X92482592Y-103439935D01*
X92476651Y-103438601D01*
X92440916Y-103429649D01*
X92435048Y-103428025D01*
X92388155Y-103413798D01*
X92382380Y-103411890D01*
X92347728Y-103399491D01*
X92342051Y-103397301D01*
X92132905Y-103310671D01*
X92127344Y-103308206D01*
X92094062Y-103292466D01*
X92088623Y-103289729D01*
X92045401Y-103266627D01*
X92040106Y-103263627D01*
X92008512Y-103244691D01*
X92003368Y-103241434D01*
X91815131Y-103115657D01*
X91810155Y-103112153D01*
X91780583Y-103090221D01*
X91775785Y-103086476D01*
X91737903Y-103055387D01*
X91733296Y-103051413D01*
X91731987Y-103050226D01*
X91731987Y-103371478D01*
X90320603Y-103371478D01*
X89966022Y-103016897D01*
X94231987Y-103016897D01*
X94231987Y-103758868D01*
X95733987Y-103758868D01*
X96731987Y-103758868D01*
X98233987Y-103758868D01*
X99231987Y-103758868D01*
X100411538Y-103758868D01*
X99231987Y-102579317D01*
X99231987Y-103758868D01*
X98233987Y-103758868D01*
X98233987Y-102256868D01*
X96731987Y-102256868D01*
X96731987Y-103758868D01*
X95733987Y-103758868D01*
X95733987Y-102256868D01*
X94746837Y-102256868D01*
X94674671Y-102431095D01*
X94672206Y-102436656D01*
X94656466Y-102469938D01*
X94653729Y-102475377D01*
X94630627Y-102518599D01*
X94627627Y-102523894D01*
X94608691Y-102555488D01*
X94605434Y-102560632D01*
X94479657Y-102748869D01*
X94476153Y-102753845D01*
X94454221Y-102783417D01*
X94450476Y-102788215D01*
X94419387Y-102826097D01*
X94415413Y-102830704D01*
X94390682Y-102857991D01*
X94386484Y-102862400D01*
X94231987Y-103016897D01*
X89966022Y-103016897D01*
X89086819Y-102137694D01*
X89053334Y-102076371D01*
X89050500Y-102050013D01*
X89050500Y-100108586D01*
X89070185Y-100041547D01*
X89122989Y-99995792D01*
X89192147Y-99985848D01*
X89221947Y-99994023D01*
X89272334Y-100014894D01*
X89272337Y-100014894D01*
X89272341Y-100014896D01*
X89446304Y-100049499D01*
X89446307Y-100049500D01*
X89446309Y-100049500D01*
X89623693Y-100049500D01*
X89623694Y-100049499D01*
X89711443Y-100032045D01*
X89797658Y-100014896D01*
X89797661Y-100014894D01*
X89797666Y-100014894D01*
X89937535Y-99956958D01*
X89961540Y-99947016D01*
X89961540Y-99947015D01*
X89961547Y-99947013D01*
X90109035Y-99848464D01*
X90234464Y-99723035D01*
X90333013Y-99575547D01*
X90400894Y-99411666D01*
X90435500Y-99237691D01*
X90435500Y-99060309D01*
X90435500Y-99060306D01*
X90435499Y-99060300D01*
X90400896Y-98886341D01*
X90400893Y-98886332D01*
X90333016Y-98722459D01*
X90333009Y-98722446D01*
X90234464Y-98574965D01*
X90234461Y-98574961D01*
X90221819Y-98562319D01*
X90188334Y-98500996D01*
X90185500Y-98474638D01*
X90185500Y-97099514D01*
X90160502Y-96973847D01*
X90160501Y-96973846D01*
X90160501Y-96973842D01*
X90111465Y-96855459D01*
X90105848Y-96847053D01*
X90105848Y-96847051D01*
X90040278Y-96748918D01*
X90040272Y-96748911D01*
X89560087Y-96268726D01*
X89550651Y-96262421D01*
X89453541Y-96197535D01*
X89335158Y-96148499D01*
X89335152Y-96148497D01*
X89209485Y-96123500D01*
X89209483Y-96123500D01*
X85955436Y-96123500D01*
X85888397Y-96103815D01*
X85842642Y-96051011D01*
X85832698Y-95981853D01*
X85861723Y-95918297D01*
X85867755Y-95911819D01*
X85995730Y-95783844D01*
X86255677Y-95523898D01*
X86255679Y-95523894D01*
X86257957Y-95521617D01*
X86319280Y-95488132D01*
X86388972Y-95493116D01*
X86393076Y-95494731D01*
X86487334Y-95533774D01*
X86487336Y-95533774D01*
X86487341Y-95533776D01*
X86661304Y-95568379D01*
X86661307Y-95568380D01*
X86661309Y-95568380D01*
X86838693Y-95568380D01*
X86838694Y-95568379D01*
X86922944Y-95551621D01*
X87012658Y-95533776D01*
X87012661Y-95533774D01*
X87012666Y-95533774D01*
X87176547Y-95465893D01*
X87324035Y-95367344D01*
X87449464Y-95241915D01*
X87548013Y-95094427D01*
X87615894Y-94930546D01*
X87617692Y-94921511D01*
X87644186Y-94788313D01*
X87676570Y-94726402D01*
X87678064Y-94724881D01*
X88244127Y-94158819D01*
X88305450Y-94125334D01*
X88331808Y-94122500D01*
X90003638Y-94122500D01*
X90070677Y-94142185D01*
X90091319Y-94158819D01*
X90103961Y-94171461D01*
X90103965Y-94171464D01*
X90251446Y-94270009D01*
X90251459Y-94270016D01*
X90346014Y-94309181D01*
X90415334Y-94337894D01*
X90415336Y-94337894D01*
X90415341Y-94337896D01*
X90589304Y-94372499D01*
X90589307Y-94372500D01*
X90589309Y-94372500D01*
X90766693Y-94372500D01*
X90766694Y-94372499D01*
X90833665Y-94359178D01*
X90940658Y-94337896D01*
X90940661Y-94337894D01*
X90940666Y-94337894D01*
X91104547Y-94270013D01*
X91252035Y-94171464D01*
X91377464Y-94046035D01*
X91476013Y-93898547D01*
X91543894Y-93734666D01*
X91556936Y-93669103D01*
X91578499Y-93560695D01*
X91578500Y-93560693D01*
X91578500Y-93383306D01*
X91578499Y-93383304D01*
X91543896Y-93209341D01*
X91543893Y-93209332D01*
X91476014Y-93045455D01*
X91476009Y-93045446D01*
X91377464Y-92897965D01*
X91377461Y-92897961D01*
X91347367Y-92867867D01*
X91313882Y-92806544D01*
X91318866Y-92736852D01*
X91360738Y-92680919D01*
X91426202Y-92656502D01*
X91435048Y-92656186D01*
X92062500Y-92656186D01*
X92129539Y-92675871D01*
G37*
%TD.AperFunction*%
%TA.AperFunction,Conductor*%
G36*
X111608365Y-99329805D02*
G01*
X111645082Y-99389250D01*
X111649499Y-99422051D01*
X111649499Y-111437182D01*
X111647015Y-111461875D01*
X111646403Y-111464882D01*
X111649266Y-111511526D01*
X111649499Y-111519121D01*
X111649499Y-111565894D01*
X111650295Y-111568863D01*
X111654287Y-111593356D01*
X111654475Y-111596419D01*
X111654476Y-111596424D01*
X111669309Y-111640729D01*
X111671498Y-111647999D01*
X111683606Y-111693184D01*
X111683610Y-111693192D01*
X111685151Y-111695862D01*
X111695338Y-111718471D01*
X111697928Y-111726204D01*
X111700554Y-111796024D01*
X111665015Y-111856180D01*
X111602595Y-111887573D01*
X111582861Y-111889560D01*
X108257049Y-111956976D01*
X107990012Y-111962388D01*
X107922588Y-111944067D01*
X107875773Y-111892201D01*
X107863500Y-111838414D01*
X107863500Y-105574500D01*
X107883185Y-105507461D01*
X107935989Y-105461706D01*
X107987500Y-105450500D01*
X108359288Y-105450500D01*
X108426327Y-105470185D01*
X108459606Y-105501615D01*
X108570890Y-105654785D01*
X108570894Y-105654790D01*
X108721213Y-105805109D01*
X108893182Y-105930050D01*
X108901946Y-105934516D01*
X108952742Y-105982491D01*
X108969536Y-106050312D01*
X108946998Y-106116447D01*
X108901946Y-106155484D01*
X108893182Y-106159949D01*
X108721213Y-106284890D01*
X108570890Y-106435213D01*
X108445951Y-106607179D01*
X108349444Y-106796585D01*
X108283753Y-106998760D01*
X108250500Y-107208713D01*
X108250500Y-107421286D01*
X108283753Y-107631239D01*
X108349444Y-107833414D01*
X108445951Y-108022820D01*
X108570890Y-108194786D01*
X108721213Y-108345109D01*
X108893182Y-108470050D01*
X108901946Y-108474516D01*
X108952742Y-108522491D01*
X108969536Y-108590312D01*
X108946998Y-108656447D01*
X108901946Y-108695484D01*
X108893182Y-108699949D01*
X108721213Y-108824890D01*
X108570890Y-108975213D01*
X108445951Y-109147179D01*
X108349444Y-109336585D01*
X108283753Y-109538760D01*
X108250500Y-109748713D01*
X108250500Y-109961286D01*
X108283753Y-110171239D01*
X108349444Y-110373414D01*
X108445951Y-110562820D01*
X108570890Y-110734786D01*
X108721213Y-110885109D01*
X108893179Y-111010048D01*
X108893181Y-111010049D01*
X108893184Y-111010051D01*
X109082588Y-111106557D01*
X109284757Y-111172246D01*
X109494713Y-111205500D01*
X109494714Y-111205500D01*
X109707286Y-111205500D01*
X109707287Y-111205500D01*
X109917243Y-111172246D01*
X110119412Y-111106557D01*
X110308816Y-111010051D01*
X110330789Y-110994086D01*
X110480786Y-110885109D01*
X110480788Y-110885106D01*
X110480792Y-110885104D01*
X110631104Y-110734792D01*
X110631106Y-110734788D01*
X110631109Y-110734786D01*
X110756048Y-110562820D01*
X110756047Y-110562820D01*
X110756051Y-110562816D01*
X110852557Y-110373412D01*
X110918246Y-110171243D01*
X110951500Y-109961287D01*
X110951500Y-109748713D01*
X110918246Y-109538757D01*
X110852557Y-109336588D01*
X110756051Y-109147184D01*
X110756049Y-109147181D01*
X110756048Y-109147179D01*
X110631109Y-108975213D01*
X110480786Y-108824890D01*
X110308820Y-108699951D01*
X110308115Y-108699591D01*
X110300054Y-108695485D01*
X110249259Y-108647512D01*
X110232463Y-108579692D01*
X110254999Y-108513556D01*
X110300054Y-108474515D01*
X110308816Y-108470051D01*
X110391438Y-108410023D01*
X110480786Y-108345109D01*
X110480788Y-108345106D01*
X110480792Y-108345104D01*
X110631104Y-108194792D01*
X110631106Y-108194788D01*
X110631109Y-108194786D01*
X110756048Y-108022820D01*
X110756047Y-108022820D01*
X110756051Y-108022816D01*
X110852557Y-107833412D01*
X110918246Y-107631243D01*
X110951500Y-107421287D01*
X110951500Y-107208713D01*
X110918246Y-106998757D01*
X110852557Y-106796588D01*
X110756051Y-106607184D01*
X110756049Y-106607181D01*
X110756048Y-106607179D01*
X110631109Y-106435213D01*
X110480786Y-106284890D01*
X110308820Y-106159951D01*
X110308115Y-106159591D01*
X110300054Y-106155485D01*
X110249259Y-106107512D01*
X110232463Y-106039692D01*
X110254999Y-105973556D01*
X110300054Y-105934515D01*
X110308816Y-105930051D01*
X110347516Y-105901934D01*
X110480786Y-105805109D01*
X110480788Y-105805106D01*
X110480792Y-105805104D01*
X110631104Y-105654792D01*
X110631106Y-105654788D01*
X110631109Y-105654786D01*
X110756048Y-105482820D01*
X110756047Y-105482820D01*
X110756051Y-105482816D01*
X110852557Y-105293412D01*
X110918246Y-105091243D01*
X110951500Y-104881287D01*
X110951500Y-104668713D01*
X110918246Y-104458757D01*
X110852557Y-104256588D01*
X110756051Y-104067184D01*
X110756049Y-104067181D01*
X110756048Y-104067179D01*
X110631109Y-103895213D01*
X110517181Y-103781285D01*
X110483696Y-103719962D01*
X110488680Y-103650270D01*
X110530552Y-103594337D01*
X110561529Y-103577422D01*
X110693086Y-103528354D01*
X110693093Y-103528350D01*
X110808187Y-103442190D01*
X110808190Y-103442187D01*
X110894350Y-103327093D01*
X110894354Y-103327086D01*
X110944596Y-103192379D01*
X110944598Y-103192372D01*
X110950999Y-103132844D01*
X110951000Y-103132827D01*
X110951000Y-102485000D01*
X110034012Y-102485000D01*
X110066925Y-102427993D01*
X110101000Y-102300826D01*
X110101000Y-102169174D01*
X110066925Y-102042007D01*
X110034012Y-101985000D01*
X110951000Y-101985000D01*
X110951000Y-101337172D01*
X110950999Y-101337155D01*
X110944598Y-101277627D01*
X110944596Y-101277620D01*
X110894354Y-101142913D01*
X110894350Y-101142906D01*
X110808190Y-101027812D01*
X110808187Y-101027809D01*
X110693093Y-100941649D01*
X110693086Y-100941645D01*
X110558379Y-100891403D01*
X110558372Y-100891401D01*
X110498844Y-100885000D01*
X109851000Y-100885000D01*
X109851000Y-101801988D01*
X109793993Y-101769075D01*
X109666826Y-101735000D01*
X109535174Y-101735000D01*
X109408007Y-101769075D01*
X109351000Y-101801988D01*
X109351000Y-100885000D01*
X108703155Y-100885000D01*
X108643627Y-100891401D01*
X108643620Y-100891403D01*
X108508913Y-100941645D01*
X108508906Y-100941649D01*
X108393812Y-101027809D01*
X108393809Y-101027812D01*
X108307649Y-101142906D01*
X108307645Y-101142913D01*
X108257403Y-101277620D01*
X108257401Y-101277627D01*
X108251000Y-101337155D01*
X108251000Y-101985000D01*
X109167988Y-101985000D01*
X109135075Y-102042007D01*
X109101000Y-102169174D01*
X109101000Y-102300826D01*
X109135075Y-102427993D01*
X109167988Y-102485000D01*
X108251000Y-102485000D01*
X108251000Y-103132844D01*
X108257401Y-103192372D01*
X108257403Y-103192379D01*
X108307645Y-103327086D01*
X108307649Y-103327093D01*
X108393809Y-103442187D01*
X108393812Y-103442190D01*
X108508906Y-103528350D01*
X108508913Y-103528354D01*
X108640470Y-103577422D01*
X108696404Y-103619293D01*
X108720821Y-103684758D01*
X108705969Y-103753031D01*
X108684819Y-103781285D01*
X108570889Y-103895215D01*
X108459606Y-104048385D01*
X108404276Y-104091051D01*
X108359288Y-104099500D01*
X107138163Y-104099500D01*
X107071124Y-104079815D01*
X107050482Y-104063181D01*
X103575482Y-100588181D01*
X103541997Y-100526858D01*
X103546981Y-100457166D01*
X103588853Y-100401233D01*
X103654317Y-100376816D01*
X103663163Y-100376500D01*
X110196069Y-100376500D01*
X110196070Y-100376499D01*
X110326573Y-100350541D01*
X110449506Y-100299620D01*
X110560143Y-100225695D01*
X111401695Y-99384143D01*
X111406741Y-99376591D01*
X111422399Y-99353156D01*
X111476013Y-99308353D01*
X111545338Y-99299648D01*
X111608365Y-99329805D01*
G37*
%TD.AperFunction*%
%TA.AperFunction,Conductor*%
G36*
X106071604Y-87028553D02*
G01*
X106117359Y-87081357D01*
X106128557Y-87131555D01*
X106172000Y-91236800D01*
X111509494Y-91236800D01*
X111576533Y-91256485D01*
X111622288Y-91309289D01*
X111633493Y-91360305D01*
X111644616Y-94144684D01*
X111625199Y-94211801D01*
X111572579Y-94257767D01*
X111503460Y-94267986D01*
X111439789Y-94239216D01*
X111417516Y-94214071D01*
X111401696Y-94190394D01*
X110956673Y-93745371D01*
X110923188Y-93684048D01*
X110921881Y-93638292D01*
X110926882Y-93606716D01*
X110951500Y-93451287D01*
X110951500Y-93238713D01*
X110918246Y-93028757D01*
X110852557Y-92826588D01*
X110756051Y-92637184D01*
X110756049Y-92637181D01*
X110756048Y-92637179D01*
X110631109Y-92465213D01*
X110480786Y-92314890D01*
X110308820Y-92189951D01*
X110119414Y-92093444D01*
X110119413Y-92093443D01*
X110119412Y-92093443D01*
X109917243Y-92027754D01*
X109917241Y-92027753D01*
X109917240Y-92027753D01*
X109755957Y-92002208D01*
X109707287Y-91994500D01*
X109494713Y-91994500D01*
X109446042Y-92002208D01*
X109284760Y-92027753D01*
X109082585Y-92093444D01*
X108893179Y-92189951D01*
X108721215Y-92314889D01*
X108607673Y-92428431D01*
X108546350Y-92461915D01*
X108476658Y-92456931D01*
X108420725Y-92415059D01*
X108403810Y-92384082D01*
X108354797Y-92252671D01*
X108354793Y-92252664D01*
X108268547Y-92137455D01*
X108268544Y-92137452D01*
X108153335Y-92051206D01*
X108153328Y-92051202D01*
X108018482Y-92000908D01*
X108018483Y-92000908D01*
X107958883Y-91994501D01*
X107958881Y-91994500D01*
X107958873Y-91994500D01*
X107958864Y-91994500D01*
X106163129Y-91994500D01*
X106163123Y-91994501D01*
X106103516Y-92000908D01*
X105968671Y-92051202D01*
X105968664Y-92051206D01*
X105853455Y-92137452D01*
X105853452Y-92137455D01*
X105767206Y-92252664D01*
X105767202Y-92252671D01*
X105716908Y-92387517D01*
X105710501Y-92447116D01*
X105710500Y-92447135D01*
X105710500Y-93724191D01*
X105690815Y-93791230D01*
X105674181Y-93811872D01*
X105176873Y-94309181D01*
X105115550Y-94342666D01*
X105089192Y-94345500D01*
X97499054Y-94345500D01*
X97432015Y-94325815D01*
X97386260Y-94273011D01*
X97384493Y-94268952D01*
X97318016Y-94108459D01*
X97318009Y-94108446D01*
X97219464Y-93960965D01*
X97219461Y-93960961D01*
X97094038Y-93835538D01*
X97094034Y-93835535D01*
X96946553Y-93736990D01*
X96946540Y-93736983D01*
X96782667Y-93669106D01*
X96782658Y-93669103D01*
X96608694Y-93634500D01*
X96608691Y-93634500D01*
X96431309Y-93634500D01*
X96431306Y-93634500D01*
X96257341Y-93669103D01*
X96257332Y-93669106D01*
X96093459Y-93736983D01*
X96093446Y-93736990D01*
X95945965Y-93835535D01*
X95945961Y-93835538D01*
X95933319Y-93848181D01*
X95871996Y-93881666D01*
X95845638Y-93884500D01*
X95026914Y-93884500D01*
X94959875Y-93864815D01*
X94923812Y-93829391D01*
X94895464Y-93786965D01*
X94895462Y-93786962D01*
X94770038Y-93661538D01*
X94770034Y-93661535D01*
X94622553Y-93562990D01*
X94622540Y-93562983D01*
X94458667Y-93495106D01*
X94458658Y-93495103D01*
X94284694Y-93460500D01*
X94284691Y-93460500D01*
X94107309Y-93460500D01*
X94107306Y-93460500D01*
X93933341Y-93495103D01*
X93933332Y-93495106D01*
X93769459Y-93562983D01*
X93769446Y-93562990D01*
X93680391Y-93622496D01*
X93613714Y-93643374D01*
X93546333Y-93624890D01*
X93499643Y-93572911D01*
X93487500Y-93519394D01*
X93487500Y-92798761D01*
X97289368Y-92798761D01*
X97351095Y-92824329D01*
X97356656Y-92826794D01*
X97389938Y-92842534D01*
X97395377Y-92845271D01*
X97438599Y-92868373D01*
X97443894Y-92871373D01*
X97475488Y-92890309D01*
X97480632Y-92893566D01*
X97668869Y-93019343D01*
X97673845Y-93022847D01*
X97703417Y-93044779D01*
X97708215Y-93048524D01*
X97746097Y-93079613D01*
X97750704Y-93083587D01*
X97777991Y-93108318D01*
X97782400Y-93112516D01*
X97942484Y-93272600D01*
X97946682Y-93277009D01*
X97971413Y-93304296D01*
X97975387Y-93308903D01*
X98006476Y-93346785D01*
X98007034Y-93347500D01*
X98233987Y-93347500D01*
X98233987Y-93302176D01*
X99231987Y-93302176D01*
X99231987Y-93347500D01*
X100733987Y-93347500D01*
X101731987Y-93347500D01*
X103233987Y-93347500D01*
X104231987Y-93347500D01*
X104712500Y-93347500D01*
X104712500Y-92433752D01*
X104712545Y-92430428D01*
X104713084Y-92410326D01*
X104713217Y-92407006D01*
X104714649Y-92380320D01*
X104714871Y-92377011D01*
X104716481Y-92357018D01*
X104716792Y-92353715D01*
X104727205Y-92256868D01*
X104231987Y-92256868D01*
X104231987Y-93347500D01*
X103233987Y-93347500D01*
X103233987Y-92256868D01*
X101731987Y-92256868D01*
X101731987Y-93347500D01*
X100733987Y-93347500D01*
X100733987Y-92382122D01*
X100696415Y-92497758D01*
X100688969Y-92515735D01*
X100603217Y-92684032D01*
X100593050Y-92700622D01*
X100482027Y-92853433D01*
X100469390Y-92868229D01*
X100335829Y-93001790D01*
X100321033Y-93014427D01*
X100168222Y-93125450D01*
X100151632Y-93135617D01*
X99983335Y-93221369D01*
X99965358Y-93228815D01*
X99785719Y-93287183D01*
X99766799Y-93291725D01*
X99580240Y-93321273D01*
X99560842Y-93322800D01*
X99371958Y-93322800D01*
X99352560Y-93321273D01*
X99231987Y-93302176D01*
X98233987Y-93302176D01*
X98233987Y-92490377D01*
X98178017Y-92318119D01*
X98173475Y-92299199D01*
X98166770Y-92256868D01*
X97831262Y-92256868D01*
X97289368Y-92798761D01*
X93487500Y-92798761D01*
X93487500Y-92780186D01*
X93507185Y-92713147D01*
X93559989Y-92667392D01*
X93611500Y-92656186D01*
X95815185Y-92656186D01*
X95910735Y-92637179D01*
X95940858Y-92631187D01*
X96059241Y-92582151D01*
X96165783Y-92510963D01*
X97417878Y-91258868D01*
X101731987Y-91258868D01*
X103233987Y-91258868D01*
X104231987Y-91258868D01*
X105048170Y-91258868D01*
X105032276Y-89756868D01*
X104231987Y-89756868D01*
X104231987Y-91258868D01*
X103233987Y-91258868D01*
X103233987Y-89756868D01*
X101731987Y-89756868D01*
X101731987Y-91258868D01*
X97417878Y-91258868D01*
X99347927Y-89328819D01*
X99409250Y-89295334D01*
X99435608Y-89292500D01*
X99453493Y-89292500D01*
X99453494Y-89292499D01*
X99511482Y-89280964D01*
X99627458Y-89257896D01*
X99627461Y-89257894D01*
X99627466Y-89257894D01*
X99791347Y-89190013D01*
X99938835Y-89091464D01*
X100064264Y-88966035D01*
X100162813Y-88818547D01*
X100187533Y-88758868D01*
X101731987Y-88758868D01*
X103233987Y-88758868D01*
X104231987Y-88758868D01*
X105021715Y-88758868D01*
X105013757Y-88006868D01*
X104231987Y-88006868D01*
X104231987Y-88758868D01*
X103233987Y-88758868D01*
X103233987Y-88006868D01*
X101731987Y-88006868D01*
X101731987Y-88758868D01*
X100187533Y-88758868D01*
X100230694Y-88654666D01*
X100231866Y-88648778D01*
X100265299Y-88480695D01*
X100265300Y-88480693D01*
X100265300Y-88303306D01*
X100265299Y-88303304D01*
X100230696Y-88129341D01*
X100230693Y-88129332D01*
X100162816Y-87965459D01*
X100162809Y-87965446D01*
X100064264Y-87817965D01*
X100064261Y-87817961D01*
X99938838Y-87692538D01*
X99938834Y-87692535D01*
X99791353Y-87593990D01*
X99791340Y-87593983D01*
X99627467Y-87526106D01*
X99627458Y-87526103D01*
X99453494Y-87491500D01*
X99453491Y-87491500D01*
X99276109Y-87491500D01*
X99276106Y-87491500D01*
X99102141Y-87526103D01*
X99102132Y-87526106D01*
X98938259Y-87593983D01*
X98938246Y-87593990D01*
X98790765Y-87692535D01*
X98790761Y-87692538D01*
X98665338Y-87817961D01*
X98665335Y-87817965D01*
X98566790Y-87965446D01*
X98566783Y-87965459D01*
X98498906Y-88129332D01*
X98498903Y-88129341D01*
X98464300Y-88303304D01*
X98464300Y-88321192D01*
X98444615Y-88388231D01*
X98427981Y-88408873D01*
X95517987Y-91318867D01*
X95456664Y-91352352D01*
X95430306Y-91355186D01*
X91276812Y-91355186D01*
X91209773Y-91335501D01*
X91189131Y-91318867D01*
X90714536Y-90844272D01*
X90699115Y-90825481D01*
X90638078Y-90734132D01*
X90638072Y-90734125D01*
X90261133Y-90357186D01*
X91731987Y-90357186D01*
X93233987Y-90357186D01*
X94231987Y-90357186D01*
X95068284Y-90357186D01*
X95668601Y-89756868D01*
X94231987Y-89756868D01*
X94231987Y-90357186D01*
X93233987Y-90357186D01*
X93233987Y-89756868D01*
X91731987Y-89756868D01*
X91731987Y-90357186D01*
X90261133Y-90357186D01*
X89428322Y-89524376D01*
X89412900Y-89505585D01*
X89401806Y-89488981D01*
X89348495Y-89409194D01*
X89348493Y-89409192D01*
X89348491Y-89409189D01*
X87946170Y-88006868D01*
X89357554Y-88006868D01*
X90071522Y-88720836D01*
X90075721Y-88725246D01*
X90100465Y-88752548D01*
X90104444Y-88757161D01*
X90105845Y-88758868D01*
X90733987Y-88758868D01*
X94231987Y-88758868D01*
X95733987Y-88758868D01*
X95733987Y-88006868D01*
X94231987Y-88006868D01*
X94231987Y-88758868D01*
X90733987Y-88758868D01*
X90733987Y-88006868D01*
X89357554Y-88006868D01*
X87946170Y-88006868D01*
X87806609Y-87867307D01*
X87806605Y-87867304D01*
X87695975Y-87793383D01*
X87695965Y-87793378D01*
X87573036Y-87742459D01*
X87573028Y-87742457D01*
X87442535Y-87716500D01*
X87442531Y-87716500D01*
X70602331Y-87716500D01*
X70469269Y-87716500D01*
X70469264Y-87716500D01*
X70338771Y-87742456D01*
X70338767Y-87742458D01*
X70338765Y-87742458D01*
X70338764Y-87742459D01*
X70327231Y-87747235D01*
X70251838Y-87778463D01*
X70251839Y-87778464D01*
X70215836Y-87793378D01*
X70215831Y-87793380D01*
X70215827Y-87793383D01*
X70182674Y-87815535D01*
X70105191Y-87867306D01*
X68657299Y-89315198D01*
X68595976Y-89348683D01*
X68526284Y-89343699D01*
X68470351Y-89301827D01*
X68445934Y-89236363D01*
X68445648Y-89224801D01*
X68491854Y-87130131D01*
X68513012Y-87063544D01*
X68566813Y-87018965D01*
X68615824Y-87008868D01*
X106004565Y-87008868D01*
X106071604Y-87028553D01*
G37*
%TD.AperFunction*%
%TD*%
M02*
