%TF.GenerationSoftware,KiCad,Pcbnew,9.0.0*%
%TF.CreationDate,2025-05-30T17:35:02+05:30*%
%TF.ProjectId,MCU datalogger,4d435520-6461-4746-916c-6f676765722e,1*%
%TF.SameCoordinates,Original*%
%TF.FileFunction,Copper,L1,Top*%
%TF.FilePolarity,Positive*%
%FSLAX46Y46*%
G04 Gerber Fmt 4.6, Leading zero omitted, Abs format (unit mm)*
G04 Created by KiCad (PCBNEW 9.0.0) date 2025-05-30 17:35:02*
%MOMM*%
%LPD*%
G01*
G04 APERTURE LIST*
G04 Aperture macros list*
%AMRoundRect*
0 Rectangle with rounded corners*
0 $1 Rounding radius*
0 $2 $3 $4 $5 $6 $7 $8 $9 X,Y pos of 4 corners*
0 Add a 4 corners polygon primitive as box body*
4,1,4,$2,$3,$4,$5,$6,$7,$8,$9,$2,$3,0*
0 Add four circle primitives for the rounded corners*
1,1,$1+$1,$2,$3*
1,1,$1+$1,$4,$5*
1,1,$1+$1,$6,$7*
1,1,$1+$1,$8,$9*
0 Add four rect primitives between the rounded corners*
20,1,$1+$1,$2,$3,$4,$5,0*
20,1,$1+$1,$4,$5,$6,$7,0*
20,1,$1+$1,$6,$7,$8,$9,0*
20,1,$1+$1,$8,$9,$2,$3,0*%
G04 Aperture macros list end*
%TA.AperFunction,SMDPad,CuDef*%
%ADD10RoundRect,0.250000X-0.250000X-0.475000X0.250000X-0.475000X0.250000X0.475000X-0.250000X0.475000X0*%
%TD*%
%TA.AperFunction,SMDPad,CuDef*%
%ADD11RoundRect,0.243750X-0.243750X-0.456250X0.243750X-0.456250X0.243750X0.456250X-0.243750X0.456250X0*%
%TD*%
%TA.AperFunction,SMDPad,CuDef*%
%ADD12R,1.500000X0.550000*%
%TD*%
%TA.AperFunction,SMDPad,CuDef*%
%ADD13R,0.550000X1.500000*%
%TD*%
%TA.AperFunction,SMDPad,CuDef*%
%ADD14R,2.400000X3.500000*%
%TD*%
%TA.AperFunction,SMDPad,CuDef*%
%ADD15R,3.500000X2.400000*%
%TD*%
%TA.AperFunction,SMDPad,CuDef*%
%ADD16RoundRect,0.250000X0.262500X0.450000X-0.262500X0.450000X-0.262500X-0.450000X0.262500X-0.450000X0*%
%TD*%
%TA.AperFunction,SMDPad,CuDef*%
%ADD17RoundRect,0.250000X0.250000X0.475000X-0.250000X0.475000X-0.250000X-0.475000X0.250000X-0.475000X0*%
%TD*%
%TA.AperFunction,ComponentPad*%
%ADD18R,1.700000X1.700000*%
%TD*%
%TA.AperFunction,ComponentPad*%
%ADD19O,1.700000X1.700000*%
%TD*%
%TA.AperFunction,SMDPad,CuDef*%
%ADD20RoundRect,0.250000X-0.262500X-0.450000X0.262500X-0.450000X0.262500X0.450000X-0.262500X0.450000X0*%
%TD*%
%TA.AperFunction,SMDPad,CuDef*%
%ADD21RoundRect,0.243750X0.243750X0.456250X-0.243750X0.456250X-0.243750X-0.456250X0.243750X-0.456250X0*%
%TD*%
%TA.AperFunction,SMDPad,CuDef*%
%ADD22RoundRect,0.162500X-0.650000X-0.162500X0.650000X-0.162500X0.650000X0.162500X-0.650000X0.162500X0*%
%TD*%
%TA.AperFunction,SMDPad,CuDef*%
%ADD23RoundRect,0.073750X-0.911250X-0.221250X0.911250X-0.221250X0.911250X0.221250X-0.911250X0.221250X0*%
%TD*%
%TA.AperFunction,ViaPad*%
%ADD24C,0.900000*%
%TD*%
%TA.AperFunction,ViaPad*%
%ADD25C,0.800000*%
%TD*%
%TA.AperFunction,Conductor*%
%ADD26C,0.300000*%
%TD*%
%TA.AperFunction,Conductor*%
%ADD27C,0.350000*%
%TD*%
G04 APERTURE END LIST*
D10*
%TO.P,C5,1*%
%TO.N,/Vcc*%
X89540000Y-88265000D03*
%TO.P,C5,2*%
%TO.N,GND*%
X91440000Y-88265000D03*
%TD*%
D11*
%TO.P,D2,1,K*%
%TO.N,Net-(D2-K)*%
X96169000Y-88392000D03*
%TO.P,D2,2,A*%
%TO.N,/Vcc*%
X98044000Y-88392000D03*
%TD*%
D12*
%TO.P,U4,1,PD3*%
%TO.N,/D3*%
X82514000Y-94416371D03*
%TO.P,U4,2,PD4*%
%TO.N,/D4*%
X82514000Y-95216371D03*
%TO.P,U4,3,GND*%
%TO.N,GND*%
X82514000Y-96016371D03*
%TO.P,U4,4,VCC*%
%TO.N,/Vcc*%
X82514000Y-96816371D03*
%TO.P,U4,5,GND*%
%TO.N,GND*%
X82514000Y-97616371D03*
%TO.P,U4,6,VCC*%
%TO.N,unconnected-(U4-VCC-Pad6)*%
X82514000Y-98416371D03*
%TO.P,U4,7,PB6*%
%TO.N,Net-(U4-PB6)*%
X82514000Y-99216371D03*
%TO.P,U4,8,PB7*%
%TO.N,Net-(U4-PB7)*%
X82514000Y-100016371D03*
D13*
%TO.P,U4,9,PD5*%
%TO.N,/D5*%
X84014000Y-101516371D03*
%TO.P,U4,10,PD6*%
%TO.N,/D6*%
X84814000Y-101516371D03*
%TO.P,U4,11,PD7*%
%TO.N,/D7*%
X85614000Y-101516371D03*
%TO.P,U4,12,PB0*%
%TO.N,/D8*%
X86414000Y-101516371D03*
%TO.P,U4,13,PB1*%
%TO.N,unconnected-(U4-PB1-Pad13)*%
X87214000Y-101516371D03*
%TO.P,U4,14,PB2*%
%TO.N,unconnected-(U4-PB2-Pad14)*%
X88014000Y-101516371D03*
%TO.P,U4,15,PB3*%
%TO.N,/MOSI*%
X88814000Y-101516371D03*
%TO.P,U4,16,PB4*%
%TO.N,/MISO*%
X89614000Y-101516371D03*
D12*
%TO.P,U4,17,PB5*%
%TO.N,/SCK*%
X91114000Y-100016371D03*
%TO.P,U4,18,AVCC*%
%TO.N,/Vcc*%
X91114000Y-99216371D03*
%TO.P,U4,19,ADC6*%
%TO.N,unconnected-(U4-ADC6-Pad19)*%
X91114000Y-98416371D03*
%TO.P,U4,20,AREF*%
%TO.N,Net-(U4-AREF)*%
X91114000Y-97616371D03*
%TO.P,U4,21,GND*%
%TO.N,GND*%
X91114000Y-96816371D03*
%TO.P,U4,22,ADC7*%
%TO.N,unconnected-(U4-ADC7-Pad22)*%
X91114000Y-96016371D03*
%TO.P,U4,23,PC0*%
%TO.N,unconnected-(U4-PC0-Pad23)*%
X91114000Y-95216371D03*
%TO.P,U4,24,PC1*%
%TO.N,unconnected-(U4-PC1-Pad24)*%
X91114000Y-94416371D03*
D13*
%TO.P,U4,25,PC2*%
%TO.N,unconnected-(U4-PC2-Pad25)*%
X89614000Y-92916371D03*
%TO.P,U4,26,PC3*%
%TO.N,unconnected-(U4-PC3-Pad26)*%
X88814000Y-92916371D03*
%TO.P,U4,27,PC4*%
%TO.N,/SDA*%
X88014000Y-92916371D03*
%TO.P,U4,28,PC5*%
%TO.N,/SCK*%
X87214000Y-92916371D03*
%TO.P,U4,29,PC6/~{RESET}*%
%TO.N,/RESET*%
X86414000Y-92916371D03*
%TO.P,U4,30,PD0*%
%TO.N,/RX*%
X85614000Y-92916371D03*
%TO.P,U4,31,PD1*%
%TO.N,/TX*%
X84814000Y-92916371D03*
%TO.P,U4,32,PD2*%
%TO.N,/D2*%
X84014000Y-92916371D03*
%TD*%
D14*
%TO.P,Y2,1,1*%
%TO.N,Net-(U3-X2)*%
X66040000Y-107308000D03*
%TO.P,Y2,2,2*%
%TO.N,Net-(U3-X1)*%
X66040000Y-102108000D03*
%TD*%
D15*
%TO.P,Y1,1,1*%
%TO.N,Net-(U4-PB7)*%
X89468000Y-106680000D03*
%TO.P,Y1,2,2*%
%TO.N,Net-(U4-PB6)*%
X84268000Y-106680000D03*
%TD*%
D16*
%TO.P,R1,2*%
%TO.N,/Vcc*%
X70421500Y-109410500D03*
%TO.P,R1,1*%
%TO.N,Net-(U3-~{INTA})*%
X72246500Y-109410500D03*
%TD*%
D17*
%TO.P,C4,2*%
%TO.N,Net-(U4-AREF)*%
X96332000Y-107594400D03*
%TO.P,C4,1*%
%TO.N,GND*%
X98232000Y-107594400D03*
%TD*%
D16*
%TO.P,R4,1*%
%TO.N,/Vcc*%
X98251000Y-95885000D03*
%TO.P,R4,2*%
%TO.N,/SDA*%
X96426000Y-95885000D03*
%TD*%
%TO.P,R3,1*%
%TO.N,/Vcc*%
X98171000Y-99695000D03*
%TO.P,R3,2*%
%TO.N,/SCK*%
X96346000Y-99695000D03*
%TD*%
D18*
%TO.P,J1,1,Pin_1*%
%TO.N,GND*%
X109601000Y-102235000D03*
D19*
%TO.P,J1,2,Pin_2*%
%TO.N,/Vcc*%
X109601000Y-104775000D03*
%TO.P,J1,3,Pin_3*%
%TO.N,/SDA*%
X109601000Y-107315000D03*
%TO.P,J1,4,Pin_4*%
%TO.N,/SCK*%
X109601000Y-109855000D03*
%TD*%
D18*
%TO.P,J4,1,Pin_1*%
%TO.N,/MISO*%
X107061000Y-93345000D03*
D19*
%TO.P,J4,2,Pin_2*%
%TO.N,/Vcc*%
X109601000Y-93345000D03*
%TO.P,J4,3,Pin_3*%
%TO.N,/SCK*%
X107061000Y-95885000D03*
%TO.P,J4,4,Pin_4*%
%TO.N,/MOSI*%
X109601000Y-95885000D03*
%TO.P,J4,5,Pin_5*%
%TO.N,/RESET*%
X107061000Y-98425000D03*
%TO.P,J4,6,Pin_6*%
%TO.N,GND*%
X109601000Y-98425000D03*
%TD*%
D10*
%TO.P,C1,1*%
%TO.N,/Vcc*%
X80650000Y-88265000D03*
%TO.P,C1,2*%
%TO.N,GND*%
X82550000Y-88265000D03*
%TD*%
D20*
%TO.P,R5,1*%
%TO.N,GND*%
X100711000Y-92075000D03*
%TO.P,R5,2*%
%TO.N,Net-(D1-K)*%
X102536000Y-92075000D03*
%TD*%
D21*
%TO.P,D1,1,K*%
%TO.N,Net-(D1-K)*%
X102537500Y-88392000D03*
%TO.P,D1,2,A*%
%TO.N,/SCK*%
X100662500Y-88392000D03*
%TD*%
D18*
%TO.P,J2,1,Pin_1*%
%TO.N,GND*%
X97647600Y-113639600D03*
D19*
%TO.P,J2,2,Pin_2*%
%TO.N,/Vcc*%
X100187600Y-113639600D03*
%TO.P,J2,3,Pin_3*%
%TO.N,/RX*%
X102727600Y-113639600D03*
%TO.P,J2,4,Pin_4*%
%TO.N,/TX*%
X105267600Y-113639600D03*
%TD*%
D10*
%TO.P,C3,1*%
%TO.N,GND*%
X85090000Y-88265000D03*
%TO.P,C3,2*%
%TO.N,Net-(U4-PB7)*%
X86990000Y-88265000D03*
%TD*%
D22*
%TO.P,U1,1,A0*%
%TO.N,/Vcc*%
X69780597Y-95885000D03*
%TO.P,U1,2,A1*%
X69780597Y-97155000D03*
%TO.P,U1,3,A2*%
X69780597Y-98425000D03*
%TO.P,U1,4,GND*%
%TO.N,GND*%
X69780597Y-99695000D03*
%TO.P,U1,5,SDA*%
%TO.N,/SDA*%
X76955597Y-99695000D03*
%TO.P,U1,6,SCL*%
%TO.N,/SCK*%
X76955597Y-98425000D03*
%TO.P,U1,7,WP*%
%TO.N,GND*%
X76955597Y-97155000D03*
%TO.P,U1,8,VCC*%
%TO.N,/Vcc*%
X76955597Y-95885000D03*
%TD*%
D20*
%TO.P,R7,1*%
%TO.N,Net-(D2-K)*%
X96266000Y-92075000D03*
%TO.P,R7,2*%
%TO.N,GND*%
X98091000Y-92075000D03*
%TD*%
D22*
%TO.P,U2,1,A0*%
%TO.N,/Vcc*%
X70288597Y-88011000D03*
%TO.P,U2,2,A1*%
%TO.N,GND*%
X70288597Y-89281000D03*
%TO.P,U2,3,A2*%
%TO.N,/Vcc*%
X70288597Y-90551000D03*
%TO.P,U2,4,GND*%
%TO.N,GND*%
X70288597Y-91821000D03*
%TO.P,U2,5,SDA*%
%TO.N,/SDA*%
X77463597Y-91821000D03*
%TO.P,U2,6,SCL*%
%TO.N,/SCK*%
X77463597Y-90551000D03*
%TO.P,U2,7,WP*%
%TO.N,GND*%
X77463597Y-89281000D03*
%TO.P,U2,8,VCC*%
%TO.N,/Vcc*%
X77463597Y-88011000D03*
%TD*%
D16*
%TO.P,R2,1*%
%TO.N,/Vcc*%
X76334000Y-109410500D03*
%TO.P,R2,2*%
%TO.N,Net-(U3-SQW{slash}~INT)*%
X74509000Y-109410500D03*
%TD*%
D18*
%TO.P,J3,1,Pin_1*%
%TO.N,/D2*%
X71628000Y-113690400D03*
D19*
%TO.P,J3,2,Pin_2*%
%TO.N,/D3*%
X74168000Y-113690400D03*
%TO.P,J3,3,Pin_3*%
%TO.N,/D4*%
X76708000Y-113690400D03*
%TO.P,J3,4,Pin_4*%
%TO.N,/D5*%
X79248000Y-113690400D03*
%TO.P,J3,5,Pin_5*%
%TO.N,/D6*%
X81788000Y-113690400D03*
%TO.P,J3,6,Pin_6*%
%TO.N,/D7*%
X84328000Y-113690400D03*
%TO.P,J3,7,Pin_7*%
%TO.N,/D8*%
X86868000Y-113690400D03*
%TO.P,J3,8,Pin_8*%
%TO.N,GND*%
X89408000Y-113690400D03*
%TO.P,J3,9,Pin_9*%
%TO.N,/Vcc*%
X91948000Y-113690400D03*
%TD*%
D23*
%TO.P,U3,1,X1*%
%TO.N,Net-(U3-X1)*%
X70612000Y-102362000D03*
%TO.P,U3,2,X2*%
%TO.N,Net-(U3-X2)*%
X70612000Y-103632000D03*
%TO.P,U3,3,~{INTA}*%
%TO.N,Net-(U3-~{INTA})*%
X70612000Y-104902000D03*
%TO.P,U3,4,GND*%
%TO.N,GND*%
X70612000Y-106172000D03*
%TO.P,U3,5,SDA*%
%TO.N,/SDA*%
X75562000Y-106172000D03*
%TO.P,U3,6,SCL*%
%TO.N,/SCK*%
X75562000Y-104902000D03*
%TO.P,U3,7,SQW/~INT*%
%TO.N,Net-(U3-SQW{slash}~INT)*%
X75562000Y-103632000D03*
%TO.P,U3,8,VCC*%
%TO.N,/Vcc*%
X75562000Y-102362000D03*
%TD*%
D20*
%TO.P,R6,1*%
%TO.N,/Vcc*%
X100791000Y-95885000D03*
%TO.P,R6,2*%
%TO.N,/RESET*%
X102616000Y-95885000D03*
%TD*%
D17*
%TO.P,C2,1*%
%TO.N,GND*%
X98166000Y-104140000D03*
%TO.P,C2,2*%
%TO.N,Net-(U4-PB6)*%
X96266000Y-104140000D03*
%TD*%
D18*
%TO.P,BT1,1,+*%
%TO.N,/Vcc*%
X65786000Y-94564200D03*
D19*
%TO.P,BT1,2,-*%
%TO.N,GND*%
X65786000Y-97104200D03*
%TD*%
D24*
%TO.N,GND*%
X85844805Y-87458368D03*
D25*
%TO.N,/Vcc*%
X85217000Y-96774000D03*
X89535000Y-99149000D03*
X99364800Y-88392000D03*
X92837000Y-97409000D03*
X87985600Y-90119200D03*
%TO.N,/RESET*%
X96520000Y-94535000D03*
X86750000Y-94667880D03*
%TO.N,Net-(U4-AREF)*%
X88400000Y-98000000D03*
%TO.N,/TX*%
X86233000Y-99060000D03*
%TO.N,/RX*%
X86995000Y-99949000D03*
D24*
%TO.N,GND*%
X100010000Y-105984000D03*
X92862400Y-88341200D03*
X99466400Y-91998800D03*
X99364800Y-91084400D03*
X72263971Y-105350581D03*
D25*
X74168000Y-97028000D03*
D24*
%TO.N,/Vcc*%
X101600000Y-99568000D03*
D25*
%TO.N,Net-(U4-PB7)*%
X85750400Y-89712800D03*
X83845354Y-99782109D03*
%TO.N,Net-(U4-AREF)*%
X94234000Y-107594400D03*
%TO.N,/SCK*%
X73660000Y-99060000D03*
X78319097Y-101854000D03*
X104648000Y-98552000D03*
%TO.N,/SDA*%
X97476930Y-98144666D03*
X103009043Y-104587685D03*
%TO.N,/D2*%
X84048600Y-95681800D03*
%TO.N,/D5*%
X83858000Y-103002066D03*
%TO.N,/D6*%
X84366000Y-104137934D03*
%TO.N,/D7*%
X85415996Y-104141568D03*
%TO.N,/D8*%
X86456847Y-104279895D03*
%TO.N,/RESET*%
X94196000Y-94361000D03*
X90678000Y-93472000D03*
%TO.N,/MISO*%
X92964000Y-101600000D03*
D24*
%TO.N,GND*%
X89663998Y-94595830D03*
%TD*%
D26*
%TO.N,/SCK*%
X110852000Y-108604000D02*
X110852000Y-95437529D01*
X109601000Y-109855000D02*
X110852000Y-108604000D01*
X110010471Y-94596000D02*
X108350000Y-94596000D01*
X108350000Y-94596000D02*
X107061000Y-95885000D01*
X110852000Y-95437529D02*
X110010471Y-94596000D01*
D27*
%TO.N,GND*%
X103759000Y-102235000D02*
X100010000Y-105984000D01*
D26*
%TO.N,/MOSI*%
X88814000Y-102566371D02*
X88814000Y-101516371D01*
X102166828Y-103014000D02*
X89261629Y-103014000D01*
X103520828Y-101660000D02*
X102166828Y-103014000D01*
X105524471Y-101660000D02*
X103520828Y-101660000D01*
X109601000Y-95885000D02*
X108262000Y-97224000D01*
X108262000Y-97224000D02*
X108262000Y-98922471D01*
%TO.N,/SDA*%
X109601000Y-107315000D02*
X106873685Y-104587685D01*
D27*
%TO.N,GND*%
X109601000Y-102235000D02*
X103759000Y-102235000D01*
D26*
%TO.N,/MOSI*%
X108262000Y-98922471D02*
X105524471Y-101660000D01*
X89261629Y-103014000D02*
X88814000Y-102566371D01*
%TO.N,/SDA*%
X106873685Y-104587685D02*
X103009043Y-104587685D01*
D27*
%TO.N,GND*%
X85844805Y-87510195D02*
X85090000Y-88265000D01*
X85844805Y-87458368D02*
X85844805Y-87510195D01*
X97647600Y-113639600D02*
X97647600Y-108178800D01*
X97647600Y-108178800D02*
X98232000Y-107594400D01*
D26*
%TO.N,Net-(U4-AREF)*%
X88400711Y-98000000D02*
X88784340Y-97616371D01*
X88400000Y-98000000D02*
X88400711Y-98000000D01*
X88784340Y-97616371D02*
X91114000Y-97616371D01*
%TO.N,/SCK*%
X87214000Y-93647782D02*
X87214000Y-92916371D01*
X87500000Y-93933782D02*
X87214000Y-93647782D01*
X87500000Y-98918371D02*
X87500000Y-93933782D01*
X88598000Y-100016371D02*
X87500000Y-98918371D01*
X91114000Y-100016371D02*
X88598000Y-100016371D01*
%TO.N,/RX*%
X87028463Y-99153940D02*
X87028463Y-99915537D01*
X87028463Y-99915537D02*
X86995000Y-99949000D01*
X87000000Y-99125478D02*
X87028463Y-99153940D01*
X87000000Y-96205529D02*
X87000000Y-99125478D01*
X85614000Y-94819529D02*
X87000000Y-96205529D01*
X85614000Y-92916371D02*
X85614000Y-94819529D01*
%TO.N,/RESET*%
X86750000Y-94310218D02*
X86750000Y-94667880D01*
X86414000Y-92916371D02*
X86414000Y-93974218D01*
X86414000Y-93974218D02*
X86750000Y-94310218D01*
D27*
%TO.N,GND*%
X67057000Y-97104200D02*
X67062000Y-97109200D01*
X65786000Y-97104200D02*
X67057000Y-97104200D01*
X67062000Y-97788902D02*
X68968098Y-99695000D01*
X68968098Y-99695000D02*
X69780597Y-99695000D01*
X67062000Y-97109200D02*
X67062000Y-97788902D01*
X68834000Y-91821000D02*
X67062000Y-93593000D01*
X67062000Y-93593000D02*
X67062000Y-97109200D01*
X70288597Y-91821000D02*
X68834000Y-91821000D01*
X80838000Y-107052000D02*
X85794000Y-112008000D01*
X85794000Y-112008000D02*
X87725600Y-112008000D01*
X80932600Y-98647055D02*
X80838000Y-98741655D01*
X80838000Y-98741655D02*
X80838000Y-107052000D01*
X87725600Y-112008000D02*
X89408000Y-113690400D01*
X80932600Y-97598298D02*
X80932600Y-98647055D01*
X80944098Y-97586800D02*
X80932600Y-97598298D01*
%TO.N,/Vcc*%
X69463000Y-110369000D02*
X70421500Y-109410500D01*
X69463000Y-114065400D02*
X69463000Y-110369000D01*
X91948000Y-114077400D02*
X90811000Y-115214400D01*
X90811000Y-115214400D02*
X70612000Y-115214400D01*
X70612000Y-115214400D02*
X69463000Y-114065400D01*
X91948000Y-113690400D02*
X91948000Y-114077400D01*
D26*
%TO.N,/D4*%
X79756000Y-110642400D02*
X77114400Y-113284000D01*
X79756000Y-99010482D02*
X79756000Y-110642400D01*
X80357600Y-98408882D02*
X79756000Y-99010482D01*
X81423828Y-95216371D02*
X80357600Y-96282599D01*
X80357600Y-96282599D02*
X80357600Y-98408882D01*
X82514000Y-95216371D02*
X81423828Y-95216371D01*
%TO.N,/D3*%
X79819099Y-96041866D02*
X81444595Y-94416371D01*
X81444595Y-94416371D02*
X82514000Y-94416371D01*
X79819099Y-98169567D02*
X79819099Y-96041866D01*
X79219097Y-108639303D02*
X79219097Y-98769569D01*
X74168000Y-113690400D02*
X79219097Y-108639303D01*
X79219097Y-98769569D02*
X79819099Y-98169567D01*
D27*
%TO.N,/Vcc*%
X75208000Y-110536500D02*
X76334000Y-109410500D01*
X71547500Y-110536500D02*
X75208000Y-110536500D01*
X70421500Y-109410500D02*
X71547500Y-110536500D01*
D26*
%TO.N,Net-(U3-~{INTA})*%
X69226000Y-106542000D02*
X69215000Y-106553000D01*
X69502058Y-105476000D02*
X69226000Y-105752058D01*
X69226000Y-105752058D02*
X69226000Y-106542000D01*
X69627000Y-104902000D02*
X70201000Y-105476000D01*
X70612000Y-104902000D02*
X69627000Y-104902000D01*
X70201000Y-105476000D02*
X69502058Y-105476000D01*
%TO.N,/SDA*%
X78719097Y-93076500D02*
X77463597Y-91821000D01*
X78119097Y-98313933D02*
X78719097Y-97713933D01*
X78119097Y-98804702D02*
X78119097Y-98313933D01*
X78719097Y-97713933D02*
X78719097Y-93076500D01*
X76955597Y-99695000D02*
X77228799Y-99695000D01*
X77228799Y-99695000D02*
X78119097Y-98804702D01*
%TO.N,/SCK*%
X78669097Y-98541751D02*
X78669097Y-101504000D01*
X79269097Y-97941751D02*
X78669097Y-98541751D01*
X79269097Y-95179691D02*
X79269097Y-97941751D01*
X87101629Y-91754000D02*
X82694788Y-91754000D01*
X87214000Y-91866371D02*
X87101629Y-91754000D01*
X78669097Y-101504000D02*
X78319097Y-101854000D01*
X87214000Y-92916371D02*
X87214000Y-91866371D01*
X82694788Y-91754000D02*
X79269097Y-95179691D01*
%TO.N,/D3*%
X74168000Y-113690400D02*
X74354580Y-113690400D01*
%TO.N,Net-(U4-PB6)*%
X81682802Y-99216371D02*
X82514000Y-99216371D01*
X81413000Y-104375000D02*
X81413000Y-99486173D01*
X83718000Y-106680000D02*
X81413000Y-104375000D01*
X81413000Y-99486173D02*
X81682802Y-99216371D01*
X84268000Y-106680000D02*
X83718000Y-106680000D01*
%TO.N,/SCK*%
X76200000Y-91002098D02*
X76651098Y-90551000D01*
X78206600Y-94107206D02*
X76200000Y-92100606D01*
X77843509Y-97881000D02*
X78206600Y-97517909D01*
X77499597Y-97881000D02*
X77843509Y-97881000D01*
X76955597Y-98425000D02*
X77499597Y-97881000D01*
X76651098Y-90551000D02*
X77463597Y-90551000D01*
X76200000Y-92100606D02*
X76200000Y-91002098D01*
X78206600Y-97517909D02*
X78206600Y-94107206D01*
D27*
%TO.N,GND*%
X82514000Y-97616371D02*
X82484429Y-97586800D01*
X82484429Y-97586800D02*
X80944098Y-97586800D01*
X80944098Y-97123469D02*
X80944098Y-97586800D01*
D26*
%TO.N,/D2*%
X84014000Y-95647200D02*
X84048600Y-95681800D01*
X84014000Y-92916371D02*
X84014000Y-95647200D01*
%TO.N,Net-(U4-AREF)*%
X96332000Y-107594400D02*
X94234000Y-107594400D01*
D27*
%TO.N,GND*%
X98399600Y-107594400D02*
X100010000Y-105984000D01*
X98232000Y-107594400D02*
X98399600Y-107594400D01*
X98166000Y-104140000D02*
X100010000Y-105984000D01*
D26*
%TO.N,/Vcc*%
X88874600Y-88265000D02*
X89540000Y-88265000D01*
X87985600Y-89154000D02*
X88874600Y-88265000D01*
X87985600Y-90119200D02*
X87985600Y-89154000D01*
D27*
%TO.N,GND*%
X92786200Y-88265000D02*
X92862400Y-88341200D01*
X91440000Y-88265000D02*
X92786200Y-88265000D01*
D26*
%TO.N,/SDA*%
X92811771Y-91680400D02*
X90630718Y-91680400D01*
X94996000Y-93864629D02*
X92811771Y-91680400D01*
X94996000Y-95035370D02*
X94996000Y-93864629D01*
X96426000Y-95885000D02*
X95845630Y-95885000D01*
X95845630Y-95885000D02*
X94996000Y-95035370D01*
X90630718Y-91680400D02*
X90136318Y-91186000D01*
X90136318Y-91186000D02*
X88011000Y-91186000D01*
%TO.N,Net-(U4-PB7)*%
X85750400Y-89504600D02*
X85750400Y-89712800D01*
X86990000Y-88265000D02*
X85750400Y-89504600D01*
%TO.N,/Vcc*%
X99364800Y-88392000D02*
X98044000Y-88392000D01*
D27*
%TO.N,GND*%
X98381600Y-91084400D02*
X99364800Y-91084400D01*
X98091000Y-92075000D02*
X98091000Y-91375000D01*
X98091000Y-91375000D02*
X98381600Y-91084400D01*
X99542600Y-92075000D02*
X99466400Y-91998800D01*
X100711000Y-92075000D02*
X99542600Y-92075000D01*
D26*
%TO.N,/SDA*%
X97476930Y-96935930D02*
X96426000Y-95885000D01*
X97476930Y-98144666D02*
X97476930Y-96935930D01*
%TO.N,/TX*%
X86233000Y-96145635D02*
X86233000Y-99060000D01*
X84814000Y-94726635D02*
X86233000Y-96145635D01*
X84814000Y-92916371D02*
X84814000Y-94726635D01*
%TO.N,/Vcc*%
X85174629Y-96816371D02*
X85217000Y-96774000D01*
X82514000Y-96816371D02*
X85174629Y-96816371D01*
D27*
%TO.N,GND*%
X90014000Y-96816371D02*
X89663998Y-96466369D01*
X89663998Y-96466369D02*
X89663998Y-94595830D01*
X89755227Y-94648773D02*
X89716941Y-94648773D01*
X89755227Y-94648773D02*
X89716941Y-94648773D01*
X91114000Y-96816371D02*
X90014000Y-96816371D01*
D26*
%TO.N,/SCK*%
X91114000Y-100016371D02*
X91046629Y-99949000D01*
%TO.N,/RESET*%
X92456000Y-93472000D02*
X93345000Y-94361000D01*
X93345000Y-94361000D02*
X94196000Y-94361000D01*
X90678000Y-93472000D02*
X92456000Y-93472000D01*
%TO.N,/Vcc*%
X92456002Y-98924371D02*
X92837000Y-98543373D01*
X92837000Y-98543373D02*
X92837000Y-97409000D01*
X92837000Y-98543373D02*
X92837000Y-97409000D01*
X92164002Y-99216371D02*
X92837000Y-98543373D01*
%TO.N,/SDA*%
X88014000Y-91189000D02*
X88011000Y-91186000D01*
X88014000Y-92916371D02*
X88014000Y-91189000D01*
X88011000Y-91186000D02*
X78486000Y-91186000D01*
X77851000Y-91821000D02*
X77463597Y-91821000D01*
X78486000Y-91186000D02*
X77851000Y-91821000D01*
D27*
%TO.N,GND*%
X72644000Y-90043000D02*
X72644000Y-89281000D01*
X70866000Y-91821000D02*
X72644000Y-90043000D01*
X70288597Y-91821000D02*
X70866000Y-91821000D01*
D26*
%TO.N,Net-(U3-X1)*%
X66294000Y-102362000D02*
X66040000Y-102108000D01*
X70612000Y-102362000D02*
X66294000Y-102362000D01*
%TO.N,Net-(U3-X2)*%
X66174000Y-107308000D02*
X66040000Y-107308000D01*
X69850000Y-103632000D02*
X66174000Y-107308000D01*
X70612000Y-103632000D02*
X69850000Y-103632000D01*
%TO.N,Net-(U3-~{INTA})*%
X72246500Y-109410500D02*
X71145500Y-108309500D01*
X71145500Y-108309500D02*
X70943558Y-108309500D01*
%TO.N,/Vcc*%
X92164002Y-99216371D02*
X91114000Y-99216371D01*
X92456002Y-98924371D02*
X92164002Y-99216371D01*
X92456002Y-98924371D02*
X92456000Y-98924371D01*
D27*
%TO.N,GND*%
X72232868Y-105435244D02*
X72238233Y-105429879D01*
X72263487Y-105352209D02*
X72263658Y-105352038D01*
X77598597Y-89416000D02*
X81399000Y-89416000D01*
X72181072Y-105530929D02*
X72181190Y-105530811D01*
X72180241Y-105532170D02*
X72180241Y-105532104D01*
X72180395Y-105531886D02*
X72180543Y-105531738D01*
X72173728Y-105541404D02*
X72173728Y-105541239D01*
X72190068Y-105516961D02*
X72197835Y-105509194D01*
X72163475Y-105555450D02*
X72164202Y-105554723D01*
X72181962Y-105529667D02*
X72182040Y-105529589D01*
X72180685Y-105531535D02*
X72180685Y-105531477D01*
X72232868Y-105442474D02*
X72232868Y-105435244D01*
X72170419Y-105545826D02*
X72170940Y-105545305D01*
X72181962Y-105529701D02*
X72181962Y-105529667D01*
X72262611Y-105355123D02*
X72262980Y-105354754D01*
X72169324Y-105547343D02*
X72169880Y-105546787D01*
X72180241Y-105532104D02*
X72180395Y-105531950D01*
X72176923Y-105536897D02*
X72176923Y-105536777D01*
X72263791Y-105351191D02*
X72263893Y-105351089D01*
X72177762Y-105535598D02*
X72178020Y-105535340D01*
X72181190Y-105530811D02*
X72181190Y-105530762D01*
X72180949Y-105531102D02*
X72181072Y-105530979D01*
X72213054Y-105476352D02*
X72220194Y-105469212D01*
X72261546Y-105360270D02*
X72261546Y-105358601D01*
X72182040Y-105529589D02*
X72182040Y-105528877D01*
X72166915Y-105550931D02*
X72166915Y-105550680D01*
X72167545Y-105550050D02*
X72167545Y-105549807D01*
X72181881Y-105529782D02*
X72181962Y-105529701D01*
X80944099Y-96509272D02*
X80944098Y-97123469D01*
X72168157Y-105548960D02*
X72168749Y-105548368D01*
X72170419Y-105546033D02*
X72170419Y-105545826D01*
X72165598Y-105552506D02*
X72166266Y-105551838D01*
X72263266Y-105352949D02*
X72263487Y-105352728D01*
X72175637Y-105538576D02*
X72175977Y-105538236D01*
X72263791Y-105351502D02*
X72263791Y-105351191D01*
X72205550Y-105496216D02*
X72205550Y-105490318D01*
X72181612Y-105530162D02*
X72181706Y-105530068D01*
X81437000Y-96016371D02*
X80944099Y-96509272D01*
X72178267Y-105534988D02*
X72178267Y-105534887D01*
X72177493Y-105536088D02*
X72177493Y-105535975D01*
X72171445Y-105544404D02*
X72171933Y-105543916D01*
X72174534Y-105540272D02*
X72174534Y-105540115D01*
X72242905Y-105418121D02*
X72242905Y-105411374D01*
X72175283Y-105539217D02*
X72175283Y-105539071D01*
X72263266Y-105353615D02*
X72263266Y-105352949D01*
X77463597Y-89281000D02*
X77598597Y-89416000D01*
X72172406Y-105543074D02*
X72172862Y-105542618D01*
X72180820Y-105531286D02*
X72180949Y-105531157D01*
X72238233Y-105422793D02*
X72242905Y-105418121D01*
X72176620Y-105537327D02*
X72176620Y-105537200D01*
X72242905Y-105411374D02*
X72246898Y-105407381D01*
X72169880Y-105546572D02*
X72170419Y-105546033D01*
X72263658Y-105351635D02*
X72263791Y-105351502D01*
X72180395Y-105531950D02*
X72180395Y-105531886D01*
X72165598Y-105552772D02*
X72165598Y-105552506D01*
X72177214Y-105536486D02*
X72177214Y-105536367D01*
X72171933Y-105543729D02*
X72172406Y-105543256D01*
X72259845Y-105366552D02*
X72259845Y-105364030D01*
X82514000Y-96016371D02*
X81437000Y-96016371D01*
X72181706Y-105530029D02*
X72181795Y-105529940D01*
X72182040Y-105528877D02*
X72190068Y-105520849D01*
X72263893Y-105351089D02*
X72263893Y-105350847D01*
X72181410Y-105530449D02*
X72181513Y-105530346D01*
X72238233Y-105429879D02*
X72238233Y-105422793D01*
X72177214Y-105536367D02*
X72177493Y-105536088D01*
X72197835Y-105503931D02*
X72205550Y-105496216D01*
X72179159Y-105533718D02*
X72179159Y-105533631D01*
X72178020Y-105535235D02*
X72178267Y-105534988D01*
X72181795Y-105529940D02*
X72181795Y-105529903D01*
X72179735Y-105532819D02*
X72179912Y-105532642D01*
X72166266Y-105551580D02*
X72166915Y-105550931D01*
X72250255Y-105392130D02*
X72253037Y-105389348D01*
X72177493Y-105535975D02*
X72177762Y-105535706D01*
X72255316Y-105382090D02*
X72255316Y-105377787D01*
X72197835Y-105509194D02*
X72197835Y-105503931D01*
X72172862Y-105542441D02*
X72173302Y-105542001D01*
X72257166Y-105375937D02*
X72257166Y-105372286D01*
X72181410Y-105530495D02*
X72181410Y-105530449D01*
X72174915Y-105539734D02*
X72174915Y-105539585D01*
X72179552Y-105533156D02*
X72179552Y-105533077D01*
X72176305Y-105537642D02*
X72176620Y-105537327D01*
X72261546Y-105358601D02*
X72262141Y-105358006D01*
X72178732Y-105534326D02*
X72178732Y-105534233D01*
X76955597Y-97155000D02*
X74295000Y-97155000D01*
X72175977Y-105538236D02*
X72175977Y-105538100D01*
X72263893Y-105350847D02*
X72263971Y-105350769D01*
X70612000Y-106172000D02*
X71597000Y-106172000D01*
X72163475Y-105605525D02*
X72163475Y-105555450D01*
X72180685Y-105531477D02*
X72180820Y-105531342D01*
X72174138Y-105540668D02*
X72174534Y-105540272D01*
X70288597Y-89281000D02*
X72644000Y-89281000D01*
X72226833Y-105448509D02*
X72232868Y-105442474D01*
X72246898Y-105407381D02*
X72246898Y-105401130D01*
X72263658Y-105352038D02*
X72263658Y-105351635D01*
X72170940Y-105545105D02*
X72171445Y-105544600D01*
X72168749Y-105548368D02*
X72168749Y-105548140D01*
X72253037Y-105389348D02*
X72253037Y-105384369D01*
X72250255Y-105397773D02*
X72250255Y-105392130D01*
X71597000Y-106172000D02*
X72163475Y-105605525D01*
X72220194Y-105469212D02*
X72220194Y-105462314D01*
X72259845Y-105364030D02*
X72260794Y-105363081D01*
X72176305Y-105537772D02*
X72176305Y-105537642D01*
X72168157Y-105549195D02*
X72168157Y-105548960D01*
X72169324Y-105547565D02*
X72169324Y-105547343D01*
X72181072Y-105530979D02*
X72181072Y-105530929D01*
X74295000Y-97155000D02*
X74168000Y-97028000D01*
X72164202Y-105554442D02*
X72164910Y-105553734D01*
X72164910Y-105553460D02*
X72165598Y-105552772D01*
X72178950Y-105534015D02*
X72178950Y-105533927D01*
X72179159Y-105533631D02*
X72179360Y-105533430D01*
X72172406Y-105543256D02*
X72172406Y-105543074D01*
X72181795Y-105529903D02*
X72181881Y-105529817D01*
X72262980Y-105353901D02*
X72263266Y-105353615D01*
X72180820Y-105531342D02*
X72180820Y-105531286D01*
X72173302Y-105541830D02*
X72173728Y-105541404D01*
X72180949Y-105531157D02*
X72180949Y-105531102D01*
X72178732Y-105534233D02*
X72178950Y-105534015D01*
X72257166Y-105372286D02*
X72258654Y-105370798D01*
X72263487Y-105352728D02*
X72263487Y-105352209D01*
X72179360Y-105533348D02*
X72179552Y-105533156D01*
X72175637Y-105538717D02*
X72175637Y-105538576D01*
X72180543Y-105531738D02*
X72180543Y-105531677D01*
X72262141Y-105358006D02*
X72262141Y-105356665D01*
X72246898Y-105401130D02*
X72250255Y-105397773D01*
X72262980Y-105354754D02*
X72262980Y-105353901D01*
X72176923Y-105536777D02*
X72177214Y-105536486D01*
X72174138Y-105540829D02*
X72174138Y-105540668D01*
X72226833Y-105455675D02*
X72226833Y-105448509D01*
X72164202Y-105554723D02*
X72164202Y-105554442D01*
X72181303Y-105530602D02*
X72181410Y-105530495D01*
X72178020Y-105535340D02*
X72178020Y-105535235D01*
X72179360Y-105533430D02*
X72179360Y-105533348D01*
X72181513Y-105530346D02*
X72181513Y-105530303D01*
X72167545Y-105549807D02*
X72168157Y-105549195D01*
X72170940Y-105545305D02*
X72170940Y-105545105D01*
X72258654Y-105370798D02*
X72258654Y-105367743D01*
X72178267Y-105534887D02*
X72178505Y-105534649D01*
X72262611Y-105356195D02*
X72262611Y-105355123D01*
X72172862Y-105542618D02*
X72172862Y-105542441D01*
X72173728Y-105541239D02*
X72174138Y-105540829D01*
X72181513Y-105530303D02*
X72181612Y-105530204D01*
X81399000Y-89416000D02*
X82550000Y-88265000D01*
X72190068Y-105520849D02*
X72190068Y-105516961D01*
X72178505Y-105534649D02*
X72178505Y-105534553D01*
X72176620Y-105537200D02*
X72176923Y-105536897D01*
X72181881Y-105529817D02*
X72181881Y-105529782D01*
X72180080Y-105532331D02*
X72180241Y-105532170D01*
X72181190Y-105530762D02*
X72181303Y-105530649D01*
X72253037Y-105384369D02*
X72255316Y-105382090D01*
X72255316Y-105377787D02*
X72257166Y-105375937D01*
X72181706Y-105530068D02*
X72181706Y-105530029D01*
X72260794Y-105361022D02*
X72261546Y-105360270D01*
X72213054Y-105482814D02*
X72213054Y-105476352D01*
X72181303Y-105530649D02*
X72181303Y-105530602D01*
X72177762Y-105535706D02*
X72177762Y-105535598D01*
X72263971Y-105350769D02*
X72263971Y-105350581D01*
X72179735Y-105532894D02*
X72179735Y-105532819D01*
X72180543Y-105531677D02*
X72180685Y-105531535D01*
X72179912Y-105532642D02*
X72179912Y-105532569D01*
X72164910Y-105553734D02*
X72164910Y-105553460D01*
X72174534Y-105540115D02*
X72174915Y-105539734D01*
X72258654Y-105367743D02*
X72259845Y-105366552D01*
X72260794Y-105363081D02*
X72260794Y-105361022D01*
X72175977Y-105538100D02*
X72176305Y-105537772D01*
X72180080Y-105532401D02*
X72180080Y-105532331D01*
X72166915Y-105550680D02*
X72167545Y-105550050D01*
X72262141Y-105356665D02*
X72262611Y-105356195D01*
X72169880Y-105546787D02*
X72169880Y-105546572D01*
X72178505Y-105534553D02*
X72178732Y-105534326D01*
X72220194Y-105462314D02*
X72226833Y-105455675D01*
X72173302Y-105542001D02*
X72173302Y-105541830D01*
X72181612Y-105530204D02*
X72181612Y-105530162D01*
X72179552Y-105533077D02*
X72179735Y-105532894D01*
X72175283Y-105539071D02*
X72175637Y-105538717D01*
X72166266Y-105551838D02*
X72166266Y-105551580D01*
X72168749Y-105548140D02*
X72169324Y-105547565D01*
X72205550Y-105490318D02*
X72213054Y-105482814D01*
X72171445Y-105544600D02*
X72171445Y-105544404D01*
X72179912Y-105532569D02*
X72180080Y-105532401D01*
X82550000Y-88265000D02*
X85090000Y-88265000D01*
X72178950Y-105533927D02*
X72179159Y-105533718D01*
X72171933Y-105543916D02*
X72171933Y-105543729D01*
X72174915Y-105539585D02*
X72175283Y-105539217D01*
X72644000Y-89281000D02*
X77463597Y-89281000D01*
%TO.N,/Vcc*%
X70288597Y-88011000D02*
X69909329Y-88011000D01*
X69780597Y-95885000D02*
X69780597Y-98425000D01*
X101473000Y-99695000D02*
X101600000Y-99568000D01*
X69909329Y-88011000D02*
X69050097Y-88870232D01*
X69780597Y-98425000D02*
X72320597Y-95885000D01*
X75562000Y-102362000D02*
X74577000Y-102362000D01*
X72320597Y-95885000D02*
X76955597Y-95885000D01*
X73650000Y-103289000D02*
X73650000Y-106182000D01*
X69050097Y-88870232D02*
X69050097Y-89878097D01*
X73570500Y-110447000D02*
X73660000Y-110536500D01*
X69723000Y-90551000D02*
X70288597Y-90551000D01*
X98301930Y-99564070D02*
X98301930Y-95935930D01*
X100791000Y-95885000D02*
X98251000Y-95885000D01*
X77463597Y-88011000D02*
X80396000Y-88011000D01*
X73570500Y-106261500D02*
X73570500Y-110447000D01*
X98171000Y-99695000D02*
X101473000Y-99695000D01*
X98171000Y-99695000D02*
X98301930Y-99564070D01*
X98301930Y-95935930D02*
X98251000Y-95885000D01*
X76334000Y-109410500D02*
X76056500Y-109410500D01*
X80396000Y-88011000D02*
X80650000Y-88265000D01*
X69050097Y-89878097D02*
X69723000Y-90551000D01*
X73650000Y-106182000D02*
X73570500Y-106261500D01*
X74577000Y-102362000D02*
X73650000Y-103289000D01*
D26*
%TO.N,Net-(U4-PB6)*%
X85819000Y-108231000D02*
X84268000Y-106680000D01*
X96266000Y-104140000D02*
X92175000Y-108231000D01*
X92175000Y-108231000D02*
X85819000Y-108231000D01*
%TO.N,Net-(U4-PB7)*%
X83715240Y-105051240D02*
X82677000Y-104013000D01*
X82514000Y-100016371D02*
X83611092Y-100016371D01*
X89468000Y-106680000D02*
X87839240Y-105051240D01*
X83611092Y-100016371D02*
X83845354Y-99782109D01*
X82677000Y-104013000D02*
X82677000Y-100179371D01*
X87839240Y-105051240D02*
X83715240Y-105051240D01*
X82677000Y-100179371D02*
X82514000Y-100016371D01*
%TO.N,Net-(D1-K)*%
X102536000Y-92075000D02*
X102536000Y-88393500D01*
X102536000Y-88393500D02*
X102537500Y-88392000D01*
%TO.N,/SCK*%
X76143098Y-98425000D02*
X76955597Y-98425000D01*
X101713500Y-87341000D02*
X103034358Y-87341000D01*
X100662500Y-88392000D02*
X101713500Y-87341000D01*
X105860000Y-94684000D02*
X107061000Y-95885000D01*
X76955597Y-98425000D02*
X74295000Y-98425000D01*
X76948000Y-104501000D02*
X76948000Y-101332000D01*
X96346000Y-99695000D02*
X97578000Y-100927000D01*
X97578000Y-100927000D02*
X102273000Y-100927000D01*
X96346000Y-99695000D02*
X96086000Y-99955000D01*
X75692000Y-98876098D02*
X76143098Y-98425000D01*
X74295000Y-98425000D02*
X73660000Y-99060000D01*
X105860000Y-90166642D02*
X105860000Y-94684000D01*
X96086000Y-99955000D02*
X90660000Y-99955000D01*
X75692000Y-100076000D02*
X75692000Y-98876098D01*
X76547000Y-104902000D02*
X76948000Y-104501000D01*
X102273000Y-100927000D02*
X104648000Y-98552000D01*
X103034358Y-87341000D02*
X105860000Y-90166642D01*
X76948000Y-101332000D02*
X75692000Y-100076000D01*
X75562000Y-104902000D02*
X76547000Y-104902000D01*
%TO.N,Net-(D2-K)*%
X96266000Y-92075000D02*
X96266000Y-88489000D01*
X96266000Y-88489000D02*
X96169000Y-88392000D01*
%TO.N,/SDA*%
X77448000Y-105271000D02*
X77448000Y-100187403D01*
X76547000Y-106172000D02*
X77448000Y-105271000D01*
X77448000Y-100187403D02*
X76955597Y-99695000D01*
X75562000Y-106172000D02*
X76547000Y-106172000D01*
%TO.N,/D5*%
X84014000Y-101516371D02*
X84014000Y-102846066D01*
X84014000Y-102846066D02*
X83858000Y-103002066D01*
%TO.N,/D6*%
X84814000Y-101516371D02*
X84814000Y-103689934D01*
X84814000Y-103689934D02*
X84366000Y-104137934D01*
%TO.N,/D7*%
X85614000Y-103489000D02*
X85415996Y-103687004D01*
X85415996Y-103687004D02*
X85415996Y-104141568D01*
X85614000Y-101516371D02*
X85614000Y-103489000D01*
%TO.N,/D8*%
X86414000Y-104237048D02*
X86456847Y-104279895D01*
X86414000Y-101516371D02*
X86414000Y-104237048D01*
%TO.N,/RESET*%
X104521000Y-95885000D02*
X107061000Y-98425000D01*
X102616000Y-95885000D02*
X104521000Y-95885000D01*
%TO.N,/MISO*%
X92880371Y-101516371D02*
X92964000Y-101600000D01*
X89614000Y-101516371D02*
X92880371Y-101516371D01*
%TO.N,Net-(U3-SQW{slash}~INT)*%
X74509000Y-109410500D02*
X74226000Y-109127500D01*
X74577000Y-103632000D02*
X75562000Y-103632000D01*
X74226000Y-109127500D02*
X74226000Y-103983000D01*
X74226000Y-103983000D02*
X74577000Y-103632000D01*
%TO.N,/Vcc*%
X89602371Y-99216371D02*
X89535000Y-99149000D01*
X91114000Y-99216371D02*
X89602371Y-99216371D01*
%TO.N,/RESET*%
X102616000Y-95885000D02*
X102616000Y-95185000D01*
X102616000Y-95185000D02*
X101966000Y-94535000D01*
X101966000Y-94535000D02*
X96520000Y-94535000D01*
%TO.N,Net-(U3-~{INTA})*%
X70891400Y-108331000D02*
X69173842Y-106613442D01*
D27*
%TO.N,GND*%
X109601000Y-100269344D02*
X109601000Y-102235000D01*
X109135828Y-99804172D02*
X109601000Y-100269344D01*
X109601000Y-99339000D02*
X109135828Y-99804172D01*
X109601000Y-98425000D02*
X109601000Y-99339000D01*
%TD*%
%TA.AperFunction,Conductor*%
%TO.N,/Vcc*%
G36*
X102129993Y-104921820D02*
G01*
X102185926Y-104963692D01*
X102201220Y-104990549D01*
X102211028Y-105014229D01*
X102211033Y-105014238D01*
X102309578Y-105161719D01*
X102309581Y-105161723D01*
X102435004Y-105287146D01*
X102435008Y-105287149D01*
X102582489Y-105385694D01*
X102582502Y-105385701D01*
X102705406Y-105436608D01*
X102746377Y-105453579D01*
X102746379Y-105453579D01*
X102746384Y-105453581D01*
X102920347Y-105488184D01*
X102920350Y-105488185D01*
X102920352Y-105488185D01*
X103097736Y-105488185D01*
X103097737Y-105488184D01*
X103155725Y-105476649D01*
X103271701Y-105453581D01*
X103271704Y-105453579D01*
X103271709Y-105453579D01*
X103435590Y-105385698D01*
X103583078Y-105287149D01*
X103583081Y-105287146D01*
X103595724Y-105274504D01*
X103657047Y-105241019D01*
X103683405Y-105238185D01*
X106552877Y-105238185D01*
X106619916Y-105257870D01*
X106640558Y-105274504D01*
X108250342Y-106884288D01*
X108283827Y-106945611D01*
X108283319Y-106993755D01*
X108284516Y-106993945D01*
X108250500Y-107208713D01*
X108250500Y-107421286D01*
X108269964Y-107544181D01*
X108283754Y-107631243D01*
X108341226Y-107808124D01*
X108349444Y-107833414D01*
X108445951Y-108022820D01*
X108570890Y-108194786D01*
X108721213Y-108345109D01*
X108893182Y-108470050D01*
X108901946Y-108474516D01*
X108952742Y-108522491D01*
X108969536Y-108590312D01*
X108946998Y-108656447D01*
X108901946Y-108695484D01*
X108893182Y-108699949D01*
X108721213Y-108824890D01*
X108570890Y-108975213D01*
X108445951Y-109147179D01*
X108349444Y-109336585D01*
X108349443Y-109336587D01*
X108349443Y-109336588D01*
X108325427Y-109410500D01*
X108283753Y-109538760D01*
X108262516Y-109672846D01*
X108250500Y-109748713D01*
X108250500Y-109961287D01*
X108283754Y-110171243D01*
X108349294Y-110372954D01*
X108349444Y-110373414D01*
X108445951Y-110562820D01*
X108570890Y-110734786D01*
X108721213Y-110885109D01*
X108893179Y-111010048D01*
X108893181Y-111010049D01*
X108893184Y-111010051D01*
X109082588Y-111106557D01*
X109284757Y-111172246D01*
X109494713Y-111205500D01*
X109494714Y-111205500D01*
X109707286Y-111205500D01*
X109707287Y-111205500D01*
X109917243Y-111172246D01*
X110119412Y-111106557D01*
X110308816Y-111010051D01*
X110390746Y-110950526D01*
X110480786Y-110885109D01*
X110480788Y-110885106D01*
X110480792Y-110885104D01*
X110631104Y-110734792D01*
X110631106Y-110734788D01*
X110631109Y-110734786D01*
X110756048Y-110562820D01*
X110756047Y-110562820D01*
X110756051Y-110562816D01*
X110852557Y-110373412D01*
X110918246Y-110171243D01*
X110951500Y-109961287D01*
X110951500Y-109748713D01*
X110937528Y-109660500D01*
X110917484Y-109533945D01*
X110919133Y-109533683D01*
X110922241Y-109471169D01*
X110951652Y-109424291D01*
X111357276Y-109018669D01*
X111392911Y-108965337D01*
X111422397Y-108921209D01*
X111476009Y-108876404D01*
X111545334Y-108867697D01*
X111608361Y-108897851D01*
X111645081Y-108957294D01*
X111649499Y-108990100D01*
X111649499Y-111437182D01*
X111647015Y-111461875D01*
X111646403Y-111464882D01*
X111649266Y-111511526D01*
X111649499Y-111519121D01*
X111649499Y-111565894D01*
X111650295Y-111568863D01*
X111654287Y-111593356D01*
X111654475Y-111596419D01*
X111654476Y-111596424D01*
X111669309Y-111640729D01*
X111671498Y-111647999D01*
X111683606Y-111693184D01*
X111683610Y-111693192D01*
X111685151Y-111695862D01*
X111695338Y-111718470D01*
X111696313Y-111721381D01*
X111696638Y-111722047D01*
X111696864Y-111723027D01*
X111698892Y-111729081D01*
X111698307Y-111729276D01*
X111709200Y-111776430D01*
X111709200Y-111790064D01*
X111689515Y-111857103D01*
X111636711Y-111902858D01*
X111586876Y-111914053D01*
X107950000Y-111963200D01*
X107949999Y-111963201D01*
X107973440Y-116065186D01*
X107954139Y-116132337D01*
X107901597Y-116178393D01*
X107849442Y-116189895D01*
X68625992Y-116189895D01*
X68558953Y-116170210D01*
X68513198Y-116117406D01*
X68501993Y-116066306D01*
X68499094Y-115191895D01*
X94239180Y-115191895D01*
X95467873Y-115191895D01*
X95460795Y-115178933D01*
X95456833Y-115171019D01*
X95434575Y-115122282D01*
X95431187Y-115114102D01*
X95357531Y-114916618D01*
X95355052Y-114909279D01*
X95341447Y-114864428D01*
X95339432Y-114856952D01*
X95325084Y-114796237D01*
X95323539Y-114788645D01*
X95318098Y-114756868D01*
X94239180Y-114756868D01*
X94239180Y-115191895D01*
X68499094Y-115191895D01*
X68498348Y-114966831D01*
X68487244Y-111616845D01*
X68487244Y-111616844D01*
X64245910Y-111702616D01*
X64178486Y-111684291D01*
X64131673Y-111632422D01*
X64119406Y-111579383D01*
X64109494Y-109910486D01*
X69409001Y-109910486D01*
X69419494Y-110013197D01*
X69474641Y-110179619D01*
X69474643Y-110179624D01*
X69566684Y-110328845D01*
X69690654Y-110452815D01*
X69839875Y-110544856D01*
X69839880Y-110544858D01*
X70006302Y-110600005D01*
X70006309Y-110600006D01*
X70109019Y-110610499D01*
X70171499Y-110610498D01*
X70171500Y-110610498D01*
X70171500Y-109660500D01*
X69409001Y-109660500D01*
X69409001Y-109910486D01*
X64109494Y-109910486D01*
X64105325Y-109208463D01*
X64124610Y-109141313D01*
X64177142Y-109095246D01*
X64246240Y-109084892D01*
X64309967Y-109113538D01*
X64345504Y-109164399D01*
X64396202Y-109300328D01*
X64396206Y-109300335D01*
X64482452Y-109415544D01*
X64482455Y-109415547D01*
X64597664Y-109501793D01*
X64597671Y-109501797D01*
X64732517Y-109552091D01*
X64732516Y-109552091D01*
X64739444Y-109552835D01*
X64792127Y-109558500D01*
X67287872Y-109558499D01*
X67347483Y-109552091D01*
X67482331Y-109501796D01*
X67597546Y-109415546D01*
X67683796Y-109300331D01*
X67734091Y-109165483D01*
X67740500Y-109105873D01*
X67740499Y-106712807D01*
X67760184Y-106645769D01*
X67776818Y-106625127D01*
X68140702Y-106261243D01*
X68363820Y-106038125D01*
X68425142Y-106004641D01*
X68494834Y-106009625D01*
X68550767Y-106051497D01*
X68575184Y-106116961D01*
X68575500Y-106125807D01*
X68575500Y-106333465D01*
X68566062Y-106380914D01*
X68564164Y-106385499D01*
X68548340Y-106423701D01*
X68548338Y-106423705D01*
X68523343Y-106549368D01*
X68523343Y-106677515D01*
X68548339Y-106803178D01*
X68548341Y-106803186D01*
X68587603Y-106897974D01*
X68597377Y-106921569D01*
X68648952Y-106998757D01*
X68668568Y-107028115D01*
X68668569Y-107028116D01*
X69776437Y-108135983D01*
X69809922Y-108197306D01*
X69804938Y-108266998D01*
X69763066Y-108322931D01*
X69753853Y-108329202D01*
X69690659Y-108368180D01*
X69690655Y-108368183D01*
X69566684Y-108492154D01*
X69474643Y-108641375D01*
X69474641Y-108641380D01*
X69419494Y-108807802D01*
X69419493Y-108807809D01*
X69409000Y-108910513D01*
X69409000Y-109160500D01*
X70297500Y-109160500D01*
X70364539Y-109180185D01*
X70410294Y-109232989D01*
X70421500Y-109284500D01*
X70421500Y-109410500D01*
X70547500Y-109410500D01*
X70614539Y-109430185D01*
X70660294Y-109482989D01*
X70671500Y-109534500D01*
X70671500Y-110610499D01*
X70733972Y-110610499D01*
X70733986Y-110610498D01*
X70836697Y-110600005D01*
X71003119Y-110544858D01*
X71003124Y-110544856D01*
X71152342Y-110452817D01*
X71245964Y-110359195D01*
X71307287Y-110325710D01*
X71376979Y-110330694D01*
X71421327Y-110359195D01*
X71515344Y-110453212D01*
X71664666Y-110545314D01*
X71831203Y-110600499D01*
X71933991Y-110611000D01*
X72559008Y-110610999D01*
X72559016Y-110610998D01*
X72559019Y-110610998D01*
X72615302Y-110605248D01*
X72661797Y-110600499D01*
X72828334Y-110545314D01*
X72977656Y-110453212D01*
X73101712Y-110329156D01*
X73193814Y-110179834D01*
X73248999Y-110013297D01*
X73254392Y-109960505D01*
X73280788Y-109895814D01*
X73337968Y-109855663D01*
X73407779Y-109852799D01*
X73468056Y-109888133D01*
X73499661Y-109950445D01*
X73501108Y-109960506D01*
X73506501Y-110013297D01*
X73506501Y-110013299D01*
X73521700Y-110059165D01*
X73561686Y-110179834D01*
X73653788Y-110329156D01*
X73777844Y-110453212D01*
X73927166Y-110545314D01*
X74093703Y-110600499D01*
X74196491Y-110611000D01*
X74821508Y-110610999D01*
X74821516Y-110610998D01*
X74821519Y-110610998D01*
X74877802Y-110605248D01*
X74924297Y-110600499D01*
X75090834Y-110545314D01*
X75240156Y-110453212D01*
X75334175Y-110359192D01*
X75395494Y-110325710D01*
X75465186Y-110330694D01*
X75509534Y-110359195D01*
X75603154Y-110452815D01*
X75752375Y-110544856D01*
X75752380Y-110544858D01*
X75918802Y-110600005D01*
X75918809Y-110600006D01*
X76021516Y-110610499D01*
X76028578Y-110610499D01*
X76095619Y-110630177D01*
X76141379Y-110682977D01*
X76151330Y-110752134D01*
X76122311Y-110815693D01*
X76116271Y-110822180D01*
X74598710Y-112339742D01*
X74537387Y-112373227D01*
X74489245Y-112372715D01*
X74489055Y-112373916D01*
X74384111Y-112357294D01*
X74274287Y-112339900D01*
X74061713Y-112339900D01*
X74013042Y-112347608D01*
X73851760Y-112373153D01*
X73750672Y-112405998D01*
X73670489Y-112432052D01*
X73649585Y-112438844D01*
X73460179Y-112535351D01*
X73288215Y-112660289D01*
X73174673Y-112773831D01*
X73113350Y-112807315D01*
X73043658Y-112802331D01*
X72987725Y-112760459D01*
X72970810Y-112729482D01*
X72921797Y-112598071D01*
X72921793Y-112598064D01*
X72835547Y-112482855D01*
X72835544Y-112482852D01*
X72720335Y-112396606D01*
X72720328Y-112396602D01*
X72585482Y-112346308D01*
X72585483Y-112346308D01*
X72525883Y-112339901D01*
X72525881Y-112339900D01*
X72525873Y-112339900D01*
X72525864Y-112339900D01*
X70730129Y-112339900D01*
X70730123Y-112339901D01*
X70670516Y-112346308D01*
X70535671Y-112396602D01*
X70535664Y-112396606D01*
X70420455Y-112482852D01*
X70420452Y-112482855D01*
X70334206Y-112598064D01*
X70334202Y-112598071D01*
X70283908Y-112732917D01*
X70277501Y-112792516D01*
X70277500Y-112792535D01*
X70277500Y-114588270D01*
X70277501Y-114588276D01*
X70283908Y-114647883D01*
X70334202Y-114782728D01*
X70334206Y-114782735D01*
X70420452Y-114897944D01*
X70420455Y-114897947D01*
X70535664Y-114984193D01*
X70535671Y-114984197D01*
X70670517Y-115034491D01*
X70670516Y-115034491D01*
X70677444Y-115035235D01*
X70730127Y-115040900D01*
X72525872Y-115040899D01*
X72585483Y-115034491D01*
X72720331Y-114984196D01*
X72835546Y-114897946D01*
X72921796Y-114782731D01*
X72970810Y-114651316D01*
X73012681Y-114595384D01*
X73078145Y-114570966D01*
X73146418Y-114585817D01*
X73174673Y-114606969D01*
X73288213Y-114720509D01*
X73460179Y-114845448D01*
X73460181Y-114845449D01*
X73460184Y-114845451D01*
X73649588Y-114941957D01*
X73851757Y-115007646D01*
X74061713Y-115040900D01*
X74061714Y-115040900D01*
X74274286Y-115040900D01*
X74274287Y-115040900D01*
X74484243Y-115007646D01*
X74686412Y-114941957D01*
X74875816Y-114845451D01*
X74946330Y-114794220D01*
X75047786Y-114720509D01*
X75047788Y-114720506D01*
X75047792Y-114720504D01*
X75198104Y-114570192D01*
X75198106Y-114570188D01*
X75198109Y-114570186D01*
X75323048Y-114398220D01*
X75323047Y-114398220D01*
X75323051Y-114398216D01*
X75327514Y-114389454D01*
X75375488Y-114338659D01*
X75443308Y-114321863D01*
X75509444Y-114344399D01*
X75548486Y-114389456D01*
X75552951Y-114398220D01*
X75677890Y-114570186D01*
X75828213Y-114720509D01*
X76000179Y-114845448D01*
X76000181Y-114845449D01*
X76000184Y-114845451D01*
X76189588Y-114941957D01*
X76391757Y-115007646D01*
X76601713Y-115040900D01*
X76601714Y-115040900D01*
X76814286Y-115040900D01*
X76814287Y-115040900D01*
X77024243Y-115007646D01*
X77226412Y-114941957D01*
X77415816Y-114845451D01*
X77486330Y-114794220D01*
X77587786Y-114720509D01*
X77587788Y-114720506D01*
X77587792Y-114720504D01*
X77738104Y-114570192D01*
X77738106Y-114570188D01*
X77738109Y-114570186D01*
X77863048Y-114398220D01*
X77863047Y-114398220D01*
X77863051Y-114398216D01*
X77867514Y-114389454D01*
X77915488Y-114338659D01*
X77983308Y-114321863D01*
X78049444Y-114344399D01*
X78088486Y-114389456D01*
X78092951Y-114398220D01*
X78217890Y-114570186D01*
X78368213Y-114720509D01*
X78540179Y-114845448D01*
X78540181Y-114845449D01*
X78540184Y-114845451D01*
X78729588Y-114941957D01*
X78931757Y-115007646D01*
X79141713Y-115040900D01*
X79141714Y-115040900D01*
X79354286Y-115040900D01*
X79354287Y-115040900D01*
X79564243Y-115007646D01*
X79766412Y-114941957D01*
X79955816Y-114845451D01*
X80026330Y-114794220D01*
X80127786Y-114720509D01*
X80127788Y-114720506D01*
X80127792Y-114720504D01*
X80278104Y-114570192D01*
X80278106Y-114570188D01*
X80278109Y-114570186D01*
X80403048Y-114398220D01*
X80403047Y-114398220D01*
X80403051Y-114398216D01*
X80407514Y-114389454D01*
X80455488Y-114338659D01*
X80523308Y-114321863D01*
X80589444Y-114344399D01*
X80628486Y-114389456D01*
X80632951Y-114398220D01*
X80757890Y-114570186D01*
X80908213Y-114720509D01*
X81080179Y-114845448D01*
X81080181Y-114845449D01*
X81080184Y-114845451D01*
X81269588Y-114941957D01*
X81471757Y-115007646D01*
X81681713Y-115040900D01*
X81681714Y-115040900D01*
X81894286Y-115040900D01*
X81894287Y-115040900D01*
X82104243Y-115007646D01*
X82306412Y-114941957D01*
X82495816Y-114845451D01*
X82566330Y-114794220D01*
X82667786Y-114720509D01*
X82667788Y-114720506D01*
X82667792Y-114720504D01*
X82818104Y-114570192D01*
X82818106Y-114570188D01*
X82818109Y-114570186D01*
X82943048Y-114398220D01*
X82943047Y-114398220D01*
X82943051Y-114398216D01*
X82947514Y-114389454D01*
X82995488Y-114338659D01*
X83063308Y-114321863D01*
X83129444Y-114344399D01*
X83168486Y-114389456D01*
X83172951Y-114398220D01*
X83297890Y-114570186D01*
X83448213Y-114720509D01*
X83620179Y-114845448D01*
X83620181Y-114845449D01*
X83620184Y-114845451D01*
X83809588Y-114941957D01*
X84011757Y-115007646D01*
X84221713Y-115040900D01*
X84221714Y-115040900D01*
X84434286Y-115040900D01*
X84434287Y-115040900D01*
X84644243Y-115007646D01*
X84846412Y-114941957D01*
X85035816Y-114845451D01*
X85106330Y-114794220D01*
X85207786Y-114720509D01*
X85207788Y-114720506D01*
X85207792Y-114720504D01*
X85358104Y-114570192D01*
X85358106Y-114570188D01*
X85358109Y-114570186D01*
X85483048Y-114398220D01*
X85483047Y-114398220D01*
X85483051Y-114398216D01*
X85487514Y-114389454D01*
X85535488Y-114338659D01*
X85603308Y-114321863D01*
X85669444Y-114344399D01*
X85708486Y-114389456D01*
X85712951Y-114398220D01*
X85837890Y-114570186D01*
X85988213Y-114720509D01*
X86160179Y-114845448D01*
X86160181Y-114845449D01*
X86160184Y-114845451D01*
X86349588Y-114941957D01*
X86551757Y-115007646D01*
X86761713Y-115040900D01*
X86761714Y-115040900D01*
X86974286Y-115040900D01*
X86974287Y-115040900D01*
X87184243Y-115007646D01*
X87386412Y-114941957D01*
X87575816Y-114845451D01*
X87646330Y-114794220D01*
X87747786Y-114720509D01*
X87747788Y-114720506D01*
X87747792Y-114720504D01*
X87898104Y-114570192D01*
X87898106Y-114570188D01*
X87898109Y-114570186D01*
X88023048Y-114398220D01*
X88023047Y-114398220D01*
X88023051Y-114398216D01*
X88027514Y-114389454D01*
X88075488Y-114338659D01*
X88143308Y-114321863D01*
X88209444Y-114344399D01*
X88248486Y-114389456D01*
X88252951Y-114398220D01*
X88377890Y-114570186D01*
X88528213Y-114720509D01*
X88700179Y-114845448D01*
X88700181Y-114845449D01*
X88700184Y-114845451D01*
X88889588Y-114941957D01*
X89091757Y-115007646D01*
X89301713Y-115040900D01*
X89301714Y-115040900D01*
X89514286Y-115040900D01*
X89514287Y-115040900D01*
X89724243Y-115007646D01*
X89926412Y-114941957D01*
X90115816Y-114845451D01*
X90186330Y-114794220D01*
X90287786Y-114720509D01*
X90287788Y-114720506D01*
X90287792Y-114720504D01*
X90438104Y-114570192D01*
X90438106Y-114570188D01*
X90438109Y-114570186D01*
X90505515Y-114477407D01*
X90563051Y-114398216D01*
X90567793Y-114388908D01*
X90615763Y-114338111D01*
X90683583Y-114321311D01*
X90749719Y-114343845D01*
X90788763Y-114388900D01*
X90793377Y-114397955D01*
X90918272Y-114569859D01*
X90918276Y-114569864D01*
X91068535Y-114720123D01*
X91068540Y-114720127D01*
X91240442Y-114845020D01*
X91429782Y-114941495D01*
X91631871Y-115007157D01*
X91698000Y-115017631D01*
X91698000Y-114123412D01*
X91755007Y-114156325D01*
X91882174Y-114190400D01*
X92013826Y-114190400D01*
X92140993Y-114156325D01*
X92198000Y-114123412D01*
X92198000Y-115017630D01*
X92264126Y-115007157D01*
X92264129Y-115007157D01*
X92466217Y-114941495D01*
X92655557Y-114845020D01*
X92827459Y-114720127D01*
X92827464Y-114720123D01*
X92977723Y-114569864D01*
X92977727Y-114569859D01*
X93102620Y-114397957D01*
X93199095Y-114208617D01*
X93264757Y-114006529D01*
X93264757Y-114006526D01*
X93275231Y-113940400D01*
X92381012Y-113940400D01*
X92413925Y-113883393D01*
X92448000Y-113756226D01*
X92448000Y-113624574D01*
X92413925Y-113497407D01*
X92381012Y-113440400D01*
X93275231Y-113440400D01*
X93264757Y-113374273D01*
X93264757Y-113374270D01*
X93199095Y-113172182D01*
X93191843Y-113157950D01*
X94239180Y-113157950D01*
X94239769Y-113160405D01*
X94240811Y-113165157D01*
X94246551Y-113194020D01*
X94247406Y-113198808D01*
X94295628Y-113503270D01*
X94292499Y-113556327D01*
X94254685Y-113690400D01*
X94273996Y-113758868D01*
X95299101Y-113758868D01*
X95299100Y-112728352D01*
X95299145Y-112725028D01*
X95299684Y-112704927D01*
X95299817Y-112701607D01*
X95301249Y-112674920D01*
X95301471Y-112671611D01*
X95303081Y-112651618D01*
X95303392Y-112648315D01*
X95314562Y-112544425D01*
X95315629Y-112536757D01*
X95323536Y-112490571D01*
X95325081Y-112482981D01*
X95339426Y-112422270D01*
X95341442Y-112414791D01*
X95355050Y-112369928D01*
X95357529Y-112362588D01*
X95396959Y-112256868D01*
X94239180Y-112256868D01*
X94239180Y-113157950D01*
X93191843Y-113157950D01*
X93102620Y-112982842D01*
X92977727Y-112810940D01*
X92977723Y-112810935D01*
X92827464Y-112660676D01*
X92827459Y-112660672D01*
X92655557Y-112535779D01*
X92466215Y-112439303D01*
X92264124Y-112373641D01*
X92198000Y-112363168D01*
X92198000Y-113257388D01*
X92140993Y-113224475D01*
X92013826Y-113190400D01*
X91882174Y-113190400D01*
X91755007Y-113224475D01*
X91698000Y-113257388D01*
X91698000Y-112363168D01*
X91697999Y-112363168D01*
X91631875Y-112373641D01*
X91429784Y-112439303D01*
X91240442Y-112535779D01*
X91068540Y-112660672D01*
X91068535Y-112660676D01*
X90918276Y-112810935D01*
X90918272Y-112810940D01*
X90793378Y-112982843D01*
X90788762Y-112991902D01*
X90740784Y-113042695D01*
X90672963Y-113059487D01*
X90606829Y-113036946D01*
X90567794Y-112991893D01*
X90563051Y-112982584D01*
X90563049Y-112982581D01*
X90563048Y-112982579D01*
X90438109Y-112810613D01*
X90287786Y-112660290D01*
X90115820Y-112535351D01*
X89926414Y-112438844D01*
X89926413Y-112438843D01*
X89926412Y-112438843D01*
X89724243Y-112373154D01*
X89724241Y-112373153D01*
X89724240Y-112373153D01*
X89562957Y-112347608D01*
X89514287Y-112339900D01*
X89301713Y-112339900D01*
X89114707Y-112369519D01*
X89045413Y-112360564D01*
X89007628Y-112334727D01*
X88156209Y-111483307D01*
X88156205Y-111483304D01*
X88045575Y-111409383D01*
X88045565Y-111409378D01*
X87922636Y-111358459D01*
X87922628Y-111358457D01*
X87792135Y-111332500D01*
X87792131Y-111332500D01*
X86125163Y-111332500D01*
X86058124Y-111312815D01*
X86037482Y-111296181D01*
X85896195Y-111154894D01*
X89239180Y-111154894D01*
X89343153Y-111258868D01*
X90741180Y-111258868D01*
X90741180Y-109879500D01*
X91739180Y-109879500D01*
X91739180Y-111258868D01*
X93241180Y-111258868D01*
X94239180Y-111258868D01*
X95741180Y-111258868D01*
X95741180Y-109789760D01*
X95693641Y-109779582D01*
X95687074Y-109777987D01*
X95647600Y-109767256D01*
X95641125Y-109765305D01*
X95615664Y-109756868D01*
X94239180Y-109756868D01*
X94239180Y-111258868D01*
X93241180Y-111258868D01*
X93241180Y-109756868D01*
X92798965Y-109756868D01*
X92724028Y-109787908D01*
X92718352Y-109790098D01*
X92683690Y-109802501D01*
X92677910Y-109804410D01*
X92631015Y-109818636D01*
X92625149Y-109820260D01*
X92589424Y-109829209D01*
X92583485Y-109830542D01*
X92409738Y-109865104D01*
X92403740Y-109866145D01*
X92367307Y-109871549D01*
X92361266Y-109872294D01*
X92312494Y-109877097D01*
X92306424Y-109877545D01*
X92269652Y-109879351D01*
X92263569Y-109879500D01*
X91739180Y-109879500D01*
X90741180Y-109879500D01*
X89239180Y-109879500D01*
X89239180Y-111154894D01*
X85896195Y-111154894D01*
X85075801Y-110334500D01*
X86739180Y-110334500D01*
X87816633Y-110334500D01*
X87822715Y-110334649D01*
X87859490Y-110336455D01*
X87865561Y-110336903D01*
X87914331Y-110341706D01*
X87920374Y-110342451D01*
X87956801Y-110347855D01*
X87962796Y-110348896D01*
X88141372Y-110384417D01*
X88147309Y-110385750D01*
X88183037Y-110394699D01*
X88188907Y-110396323D01*
X88235803Y-110410550D01*
X88241180Y-110412326D01*
X88241180Y-109879500D01*
X86739180Y-109879500D01*
X86739180Y-110334500D01*
X85075801Y-110334500D01*
X83333481Y-108592180D01*
X83299996Y-108530857D01*
X83304980Y-108461165D01*
X83346852Y-108405232D01*
X83412316Y-108380815D01*
X83421162Y-108380499D01*
X84997191Y-108380499D01*
X85064230Y-108400184D01*
X85084872Y-108416818D01*
X85404324Y-108736271D01*
X85404327Y-108736274D01*
X85404330Y-108736276D01*
X85465907Y-108777420D01*
X85510873Y-108807465D01*
X85629256Y-108856501D01*
X85629260Y-108856501D01*
X85629261Y-108856502D01*
X85754928Y-108881500D01*
X85754931Y-108881500D01*
X92239071Y-108881500D01*
X92344685Y-108860491D01*
X92364744Y-108856501D01*
X92483127Y-108807465D01*
X92528093Y-108777420D01*
X92589669Y-108736277D01*
X93276682Y-108049262D01*
X93338003Y-108015779D01*
X93407694Y-108020763D01*
X93463628Y-108062634D01*
X93467463Y-108068054D01*
X93534535Y-108168434D01*
X93534538Y-108168438D01*
X93659961Y-108293861D01*
X93659965Y-108293864D01*
X93807446Y-108392409D01*
X93807459Y-108392416D01*
X93930363Y-108443323D01*
X93971334Y-108460294D01*
X93971336Y-108460294D01*
X93971341Y-108460296D01*
X94145304Y-108494899D01*
X94145307Y-108494900D01*
X94145309Y-108494900D01*
X94322693Y-108494900D01*
X94322694Y-108494899D01*
X94425168Y-108474516D01*
X94496658Y-108460296D01*
X94496661Y-108460294D01*
X94496666Y-108460294D01*
X94660547Y-108392413D01*
X94808035Y-108293864D01*
X94808038Y-108293861D01*
X94820681Y-108281219D01*
X94882004Y-108247734D01*
X94908362Y-108244900D01*
X95259983Y-108244900D01*
X95327022Y-108264585D01*
X95372777Y-108317389D01*
X95377686Y-108329889D01*
X95397186Y-108388734D01*
X95489288Y-108538056D01*
X95613344Y-108662112D01*
X95762666Y-108754214D01*
X95929203Y-108809399D01*
X96031991Y-108819900D01*
X96632008Y-108819899D01*
X96632016Y-108819898D01*
X96632019Y-108819898D01*
X96688302Y-108814148D01*
X96734797Y-108809399D01*
X96809098Y-108784777D01*
X96878923Y-108782376D01*
X96938965Y-108818107D01*
X96970158Y-108880627D01*
X96972100Y-108902484D01*
X96972100Y-112165100D01*
X96952415Y-112232139D01*
X96899611Y-112277894D01*
X96848101Y-112289100D01*
X96749730Y-112289100D01*
X96749723Y-112289101D01*
X96690116Y-112295508D01*
X96555271Y-112345802D01*
X96555264Y-112345806D01*
X96440055Y-112432052D01*
X96440052Y-112432055D01*
X96353806Y-112547264D01*
X96353802Y-112547271D01*
X96303508Y-112682117D01*
X96297101Y-112741716D01*
X96297100Y-112741735D01*
X96297100Y-114537470D01*
X96297101Y-114537476D01*
X96303508Y-114597083D01*
X96353802Y-114731928D01*
X96353806Y-114731935D01*
X96440052Y-114847144D01*
X96440055Y-114847147D01*
X96555264Y-114933393D01*
X96555271Y-114933397D01*
X96690117Y-114983691D01*
X96690116Y-114983691D01*
X96694786Y-114984193D01*
X96749727Y-114990100D01*
X98545472Y-114990099D01*
X98605083Y-114983691D01*
X98739931Y-114933396D01*
X98855146Y-114847146D01*
X98941396Y-114731931D01*
X98990602Y-114600001D01*
X99032472Y-114544068D01*
X99097937Y-114519650D01*
X99166210Y-114534501D01*
X99194465Y-114555653D01*
X99308135Y-114669323D01*
X99308140Y-114669327D01*
X99480042Y-114794220D01*
X99669382Y-114890695D01*
X99871471Y-114956357D01*
X99937600Y-114966831D01*
X99937600Y-114072612D01*
X99994607Y-114105525D01*
X100121774Y-114139600D01*
X100253426Y-114139600D01*
X100380593Y-114105525D01*
X100437600Y-114072612D01*
X100437600Y-114966830D01*
X100503726Y-114956357D01*
X100503729Y-114956357D01*
X100705817Y-114890695D01*
X100895157Y-114794220D01*
X101067059Y-114669327D01*
X101067064Y-114669323D01*
X101217323Y-114519064D01*
X101217327Y-114519059D01*
X101342220Y-114347158D01*
X101346832Y-114338107D01*
X101394805Y-114287309D01*
X101462625Y-114270512D01*
X101528761Y-114293047D01*
X101567804Y-114338104D01*
X101572549Y-114347417D01*
X101697490Y-114519386D01*
X101847813Y-114669709D01*
X102019779Y-114794648D01*
X102019781Y-114794649D01*
X102019784Y-114794651D01*
X102209188Y-114891157D01*
X102411357Y-114956846D01*
X102621313Y-114990100D01*
X102621314Y-114990100D01*
X102833886Y-114990100D01*
X102833887Y-114990100D01*
X103043843Y-114956846D01*
X103246012Y-114891157D01*
X103435416Y-114794651D01*
X103464089Y-114773819D01*
X103607386Y-114669709D01*
X103607388Y-114669706D01*
X103607392Y-114669704D01*
X103757704Y-114519392D01*
X103757706Y-114519388D01*
X103757709Y-114519386D01*
X103882648Y-114347420D01*
X103882650Y-114347417D01*
X103882651Y-114347416D01*
X103887114Y-114338654D01*
X103935088Y-114287859D01*
X104002908Y-114271063D01*
X104069044Y-114293599D01*
X104108084Y-114338654D01*
X104111012Y-114344399D01*
X104112551Y-114347420D01*
X104237490Y-114519386D01*
X104387813Y-114669709D01*
X104559779Y-114794648D01*
X104559781Y-114794649D01*
X104559784Y-114794651D01*
X104749188Y-114891157D01*
X104951357Y-114956846D01*
X105161313Y-114990100D01*
X105161314Y-114990100D01*
X105373886Y-114990100D01*
X105373887Y-114990100D01*
X105583843Y-114956846D01*
X105786012Y-114891157D01*
X105975416Y-114794651D01*
X106004089Y-114773819D01*
X106147386Y-114669709D01*
X106147388Y-114669706D01*
X106147392Y-114669704D01*
X106297704Y-114519392D01*
X106297706Y-114519388D01*
X106297709Y-114519386D01*
X106422648Y-114347420D01*
X106422650Y-114347417D01*
X106422651Y-114347416D01*
X106519157Y-114158012D01*
X106584846Y-113955843D01*
X106618100Y-113745887D01*
X106618100Y-113533313D01*
X106584846Y-113323357D01*
X106519157Y-113121188D01*
X106422651Y-112931784D01*
X106422649Y-112931781D01*
X106422648Y-112931779D01*
X106297709Y-112759813D01*
X106147386Y-112609490D01*
X105975420Y-112484551D01*
X105786014Y-112388044D01*
X105786013Y-112388043D01*
X105786012Y-112388043D01*
X105583843Y-112322354D01*
X105583841Y-112322353D01*
X105583840Y-112322353D01*
X105422557Y-112296808D01*
X105373887Y-112289100D01*
X105161313Y-112289100D01*
X105112642Y-112296808D01*
X104951360Y-112322353D01*
X104877631Y-112346309D01*
X104795015Y-112373153D01*
X104749185Y-112388044D01*
X104559779Y-112484551D01*
X104387813Y-112609490D01*
X104237490Y-112759813D01*
X104112549Y-112931782D01*
X104108084Y-112940546D01*
X104060109Y-112991342D01*
X103992288Y-113008136D01*
X103926153Y-112985598D01*
X103887116Y-112940546D01*
X103882650Y-112931782D01*
X103757709Y-112759813D01*
X103607386Y-112609490D01*
X103435420Y-112484551D01*
X103246014Y-112388044D01*
X103246013Y-112388043D01*
X103246012Y-112388043D01*
X103043843Y-112322354D01*
X103043841Y-112322353D01*
X103043840Y-112322353D01*
X102882557Y-112296808D01*
X102833887Y-112289100D01*
X102621313Y-112289100D01*
X102572642Y-112296808D01*
X102411360Y-112322353D01*
X102337631Y-112346309D01*
X102255015Y-112373153D01*
X102209185Y-112388044D01*
X102019779Y-112484551D01*
X101847813Y-112609490D01*
X101697490Y-112759813D01*
X101572549Y-112931782D01*
X101567802Y-112941099D01*
X101519827Y-112991893D01*
X101452005Y-113008687D01*
X101385871Y-112986148D01*
X101346834Y-112941095D01*
X101342222Y-112932044D01*
X101217327Y-112760140D01*
X101217323Y-112760135D01*
X101067064Y-112609876D01*
X101067059Y-112609872D01*
X100895157Y-112484979D01*
X100705815Y-112388503D01*
X100503724Y-112322841D01*
X100437600Y-112312368D01*
X100437600Y-113206588D01*
X100380593Y-113173675D01*
X100253426Y-113139600D01*
X100121774Y-113139600D01*
X99994607Y-113173675D01*
X99937600Y-113206588D01*
X99937600Y-112312368D01*
X99937599Y-112312368D01*
X99871475Y-112322841D01*
X99669384Y-112388503D01*
X99480042Y-112484979D01*
X99308141Y-112609871D01*
X99194465Y-112723547D01*
X99133142Y-112757031D01*
X99063450Y-112752047D01*
X99007517Y-112710175D01*
X98990602Y-112679198D01*
X98989006Y-112674920D01*
X98941396Y-112547269D01*
X98941395Y-112547268D01*
X98941393Y-112547264D01*
X98855147Y-112432055D01*
X98855144Y-112432052D01*
X98739935Y-112345806D01*
X98739928Y-112345802D01*
X98605082Y-112295508D01*
X98605083Y-112295508D01*
X98545483Y-112289101D01*
X98545481Y-112289100D01*
X98545473Y-112289100D01*
X98545465Y-112289100D01*
X98447100Y-112289100D01*
X98380061Y-112269415D01*
X98334306Y-112216611D01*
X98323100Y-112165100D01*
X98323100Y-111258868D01*
X99321100Y-111258868D01*
X100741180Y-111258868D01*
X101739180Y-111258868D01*
X103241180Y-111258868D01*
X104239180Y-111258868D01*
X105741180Y-111258868D01*
X106739180Y-111258868D01*
X107066406Y-111258868D01*
X107436074Y-110882023D01*
X107476893Y-110859221D01*
X107451314Y-110809019D01*
X107449189Y-110804636D01*
X107436846Y-110777861D01*
X107434891Y-110773392D01*
X107419893Y-110737175D01*
X107418121Y-110732647D01*
X107407936Y-110705037D01*
X107406342Y-110700440D01*
X107328545Y-110461007D01*
X107327131Y-110456347D01*
X107319138Y-110428005D01*
X107317911Y-110423300D01*
X107308758Y-110385183D01*
X107307713Y-110380423D01*
X107301964Y-110351523D01*
X107301108Y-110346728D01*
X107261723Y-110098059D01*
X107261056Y-110093236D01*
X107257596Y-110064003D01*
X107257119Y-110059165D01*
X107254041Y-110020086D01*
X107253754Y-110015221D01*
X107252596Y-109985769D01*
X107252500Y-109980897D01*
X107252500Y-109756868D01*
X106739180Y-109756868D01*
X106739180Y-111258868D01*
X105741180Y-111258868D01*
X105741180Y-109756868D01*
X104239180Y-109756868D01*
X104239180Y-111258868D01*
X103241180Y-111258868D01*
X103241180Y-109756868D01*
X101739180Y-109756868D01*
X101739180Y-111258868D01*
X100741180Y-111258868D01*
X100741180Y-109756868D01*
X99321100Y-109756868D01*
X99321100Y-111258868D01*
X98323100Y-111258868D01*
X98323100Y-108943899D01*
X98342785Y-108876860D01*
X98395589Y-108831105D01*
X98447100Y-108819899D01*
X98532002Y-108819899D01*
X98532008Y-108819899D01*
X98634797Y-108809399D01*
X98787289Y-108758868D01*
X101739180Y-108758868D01*
X103241180Y-108758868D01*
X104239180Y-108758868D01*
X105741180Y-108758868D01*
X106739180Y-108758868D01*
X107523724Y-108758868D01*
X107565622Y-108676639D01*
X107567917Y-108672346D01*
X107582307Y-108646650D01*
X107584769Y-108642450D01*
X107605250Y-108609027D01*
X107607874Y-108604927D01*
X107621187Y-108585000D01*
X107607874Y-108565073D01*
X107605250Y-108560973D01*
X107584769Y-108527550D01*
X107582307Y-108523350D01*
X107567917Y-108497654D01*
X107565622Y-108493361D01*
X107451314Y-108269019D01*
X107449189Y-108264636D01*
X107436846Y-108237861D01*
X107434891Y-108233392D01*
X107419893Y-108197175D01*
X107418121Y-108192647D01*
X107407936Y-108165037D01*
X107406342Y-108160440D01*
X107328545Y-107921007D01*
X107327131Y-107916347D01*
X107319138Y-107888005D01*
X107317911Y-107883300D01*
X107308758Y-107845183D01*
X107307713Y-107840423D01*
X107301964Y-107811523D01*
X107301108Y-107806728D01*
X107261723Y-107558059D01*
X107261056Y-107553236D01*
X107257596Y-107524003D01*
X107257119Y-107519165D01*
X107254041Y-107480086D01*
X107253754Y-107475221D01*
X107252596Y-107445769D01*
X107252500Y-107440897D01*
X107252500Y-107297830D01*
X107211538Y-107256868D01*
X106739180Y-107256868D01*
X106739180Y-108758868D01*
X105741180Y-108758868D01*
X105741180Y-107256868D01*
X104239180Y-107256868D01*
X104239180Y-108758868D01*
X103241180Y-108758868D01*
X103241180Y-107256868D01*
X101739180Y-107256868D01*
X101739180Y-108758868D01*
X98787289Y-108758868D01*
X98801334Y-108754214D01*
X98950656Y-108662112D01*
X99074712Y-108538056D01*
X99166814Y-108388734D01*
X99221999Y-108222197D01*
X99232500Y-108119409D01*
X99232499Y-107768161D01*
X99252183Y-107701123D01*
X99268813Y-107680486D01*
X99978482Y-106970819D01*
X100039805Y-106937334D01*
X100066163Y-106934500D01*
X100103617Y-106934500D01*
X100103618Y-106934499D01*
X100287251Y-106897973D01*
X100460231Y-106826322D01*
X100615908Y-106722302D01*
X100748302Y-106589908D01*
X100852322Y-106434231D01*
X100923973Y-106261251D01*
X100960500Y-106077616D01*
X100960500Y-106040162D01*
X100980185Y-105973123D01*
X100996814Y-105952485D01*
X101998980Y-104950319D01*
X102060301Y-104916836D01*
X102129993Y-104921820D01*
G37*
%TD.AperFunction*%
%TA.AperFunction,Conductor*%
G36*
X78489992Y-102758215D02*
G01*
X78545172Y-102801076D01*
X78568419Y-102866965D01*
X78568597Y-102873607D01*
X78568597Y-108318495D01*
X78548912Y-108385534D01*
X78532278Y-108406176D01*
X77314273Y-109624181D01*
X77252950Y-109657666D01*
X77226592Y-109660500D01*
X76458000Y-109660500D01*
X76390961Y-109640815D01*
X76345206Y-109588011D01*
X76334000Y-109536500D01*
X76334000Y-109410500D01*
X76208000Y-109410500D01*
X76140961Y-109390815D01*
X76095206Y-109338011D01*
X76084000Y-109286500D01*
X76084000Y-109160500D01*
X76584000Y-109160500D01*
X77346499Y-109160500D01*
X77346499Y-108910528D01*
X77346498Y-108910513D01*
X77336005Y-108807802D01*
X77280858Y-108641380D01*
X77280856Y-108641375D01*
X77188815Y-108492154D01*
X77064845Y-108368184D01*
X76915624Y-108276143D01*
X76915619Y-108276141D01*
X76749197Y-108220994D01*
X76749190Y-108220993D01*
X76646486Y-108210500D01*
X76584000Y-108210500D01*
X76584000Y-109160500D01*
X76084000Y-109160500D01*
X76084000Y-108210500D01*
X76083999Y-108210499D01*
X76021528Y-108210500D01*
X76021511Y-108210501D01*
X75918802Y-108220994D01*
X75752380Y-108276141D01*
X75752375Y-108276143D01*
X75603157Y-108368182D01*
X75509534Y-108461805D01*
X75448210Y-108495289D01*
X75378519Y-108490305D01*
X75334172Y-108461804D01*
X75240157Y-108367789D01*
X75240156Y-108367788D01*
X75147388Y-108310569D01*
X75090836Y-108275687D01*
X75090835Y-108275686D01*
X75090834Y-108275686D01*
X74976686Y-108237861D01*
X74961495Y-108232827D01*
X74904051Y-108193054D01*
X74877228Y-108128538D01*
X74876500Y-108115121D01*
X74876500Y-107091499D01*
X74896185Y-107024460D01*
X74948989Y-106978705D01*
X75000500Y-106967499D01*
X76510888Y-106967499D01*
X76623151Y-106952720D01*
X76623150Y-106952720D01*
X76623159Y-106952719D01*
X76762853Y-106894856D01*
X76882810Y-106802810D01*
X76974856Y-106682853D01*
X76978682Y-106673613D01*
X77005562Y-106633382D01*
X77953276Y-105685670D01*
X78024465Y-105579127D01*
X78073501Y-105460744D01*
X78076845Y-105443931D01*
X78098500Y-105335069D01*
X78098500Y-102878321D01*
X78118185Y-102811282D01*
X78170989Y-102765527D01*
X78224314Y-102756645D01*
X78224314Y-102754500D01*
X78407789Y-102754500D01*
X78420401Y-102751991D01*
X78489992Y-102758215D01*
G37*
%TD.AperFunction*%
%TA.AperFunction,Conductor*%
G36*
X69369152Y-87028553D02*
G01*
X69414907Y-87081357D01*
X69424851Y-87150515D01*
X69395826Y-87214071D01*
X69366264Y-87238984D01*
X69227019Y-87323161D01*
X69227015Y-87323164D01*
X69113260Y-87436919D01*
X69030024Y-87574607D01*
X68982164Y-87728197D01*
X68982161Y-87728207D01*
X68979182Y-87760999D01*
X68979182Y-87761000D01*
X71598012Y-87761000D01*
X71598011Y-87760999D01*
X71595032Y-87728207D01*
X71595029Y-87728197D01*
X71547169Y-87574607D01*
X71463933Y-87436919D01*
X71350178Y-87323164D01*
X71350174Y-87323161D01*
X71210930Y-87238984D01*
X71163743Y-87187456D01*
X71151905Y-87118597D01*
X71179174Y-87054268D01*
X71236893Y-87014895D01*
X71275081Y-87008868D01*
X76477113Y-87008868D01*
X76544152Y-87028553D01*
X76589907Y-87081357D01*
X76599851Y-87150515D01*
X76570826Y-87214071D01*
X76541264Y-87238984D01*
X76402019Y-87323161D01*
X76402015Y-87323164D01*
X76288260Y-87436919D01*
X76205024Y-87574607D01*
X76157164Y-87728197D01*
X76157161Y-87728207D01*
X76154182Y-87760999D01*
X76154182Y-87761000D01*
X78773012Y-87761000D01*
X78773011Y-87760999D01*
X78770032Y-87728207D01*
X78770029Y-87728197D01*
X78722169Y-87574607D01*
X78638933Y-87436919D01*
X78525178Y-87323164D01*
X78525174Y-87323161D01*
X78385930Y-87238984D01*
X78338743Y-87187456D01*
X78326905Y-87118597D01*
X78354174Y-87054268D01*
X78411893Y-87014895D01*
X78450081Y-87008868D01*
X79821109Y-87008868D01*
X79888148Y-87028553D01*
X79933903Y-87081357D01*
X79943847Y-87150515D01*
X79914822Y-87214071D01*
X79908790Y-87220549D01*
X79807684Y-87321654D01*
X79715643Y-87470875D01*
X79715641Y-87470880D01*
X79660494Y-87637302D01*
X79660493Y-87637309D01*
X79650000Y-87740013D01*
X79650000Y-88015000D01*
X80526000Y-88015000D01*
X80593039Y-88034685D01*
X80638794Y-88087489D01*
X80650000Y-88139000D01*
X80650000Y-88391000D01*
X80630315Y-88458039D01*
X80577511Y-88503794D01*
X80526000Y-88515000D01*
X79650001Y-88515000D01*
X79650001Y-88616500D01*
X79630316Y-88683539D01*
X79577512Y-88729294D01*
X79526001Y-88740500D01*
X78764837Y-88740500D01*
X78697798Y-88720815D01*
X78652043Y-88668011D01*
X78642099Y-88598853D01*
X78658720Y-88552350D01*
X78722169Y-88447392D01*
X78770029Y-88293802D01*
X78770032Y-88293792D01*
X78773011Y-88261000D01*
X76154182Y-88261000D01*
X76157161Y-88293792D01*
X76157164Y-88293802D01*
X76204157Y-88444610D01*
X76205308Y-88514470D01*
X76168507Y-88573863D01*
X76105439Y-88603930D01*
X76085772Y-88605500D01*
X71666422Y-88605500D01*
X71599383Y-88585815D01*
X71553628Y-88533011D01*
X71543684Y-88463853D01*
X71548037Y-88444610D01*
X71595029Y-88293802D01*
X71595032Y-88293792D01*
X71598011Y-88261000D01*
X68979182Y-88261000D01*
X68982161Y-88293792D01*
X68982164Y-88293802D01*
X69030024Y-88447392D01*
X69111015Y-88581366D01*
X69128851Y-88648920D01*
X69111015Y-88709666D01*
X69029566Y-88844397D01*
X68981666Y-88998116D01*
X68976810Y-89051557D01*
X68976104Y-89059336D01*
X68975597Y-89064911D01*
X68975597Y-89497098D01*
X68981665Y-89563882D01*
X68981668Y-89563893D01*
X69029564Y-89717598D01*
X69029565Y-89717600D01*
X69029566Y-89717602D01*
X69111015Y-89852335D01*
X69128851Y-89919887D01*
X69111015Y-89980633D01*
X69030024Y-90114607D01*
X68982164Y-90268197D01*
X68982161Y-90268207D01*
X68979182Y-90300999D01*
X68979182Y-90301000D01*
X70164597Y-90301000D01*
X70231636Y-90320685D01*
X70277391Y-90373489D01*
X70288597Y-90425000D01*
X70288597Y-90677000D01*
X70268912Y-90744039D01*
X70216108Y-90789794D01*
X70164597Y-90801000D01*
X68979182Y-90801000D01*
X68982161Y-90833792D01*
X68982164Y-90833802D01*
X69029157Y-90984610D01*
X69030308Y-91054470D01*
X68993507Y-91113863D01*
X68930439Y-91143930D01*
X68910772Y-91145500D01*
X68767467Y-91145500D01*
X68636969Y-91171458D01*
X68636959Y-91171461D01*
X68514038Y-91222376D01*
X68514020Y-91222386D01*
X68425646Y-91281436D01*
X68425646Y-91281437D01*
X68403391Y-91296306D01*
X66537307Y-93162390D01*
X66533441Y-93167102D01*
X66531664Y-93165644D01*
X66485915Y-93203889D01*
X66436410Y-93214200D01*
X66036000Y-93214200D01*
X66036000Y-94131188D01*
X65978993Y-94098275D01*
X65851826Y-94064200D01*
X65720174Y-94064200D01*
X65593007Y-94098275D01*
X65536000Y-94131188D01*
X65536000Y-93214200D01*
X64888155Y-93214200D01*
X64828627Y-93220601D01*
X64828620Y-93220603D01*
X64693913Y-93270845D01*
X64693906Y-93270849D01*
X64578812Y-93357009D01*
X64578809Y-93357012D01*
X64492649Y-93472106D01*
X64492645Y-93472113D01*
X64442403Y-93606820D01*
X64442401Y-93606827D01*
X64436000Y-93666355D01*
X64436000Y-94314200D01*
X65352988Y-94314200D01*
X65320075Y-94371207D01*
X65286000Y-94498374D01*
X65286000Y-94630026D01*
X65320075Y-94757193D01*
X65352988Y-94814200D01*
X64436000Y-94814200D01*
X64436000Y-95462044D01*
X64442401Y-95521572D01*
X64442403Y-95521579D01*
X64492645Y-95656286D01*
X64492649Y-95656293D01*
X64578809Y-95771387D01*
X64578812Y-95771390D01*
X64693906Y-95857550D01*
X64693913Y-95857554D01*
X64825470Y-95906622D01*
X64881404Y-95948493D01*
X64905821Y-96013958D01*
X64890969Y-96082231D01*
X64869819Y-96110485D01*
X64755889Y-96224415D01*
X64630951Y-96396379D01*
X64534444Y-96585785D01*
X64468753Y-96787960D01*
X64435500Y-96997913D01*
X64435500Y-97210487D01*
X64442846Y-97256868D01*
X64465496Y-97399877D01*
X64468754Y-97420443D01*
X64524299Y-97591393D01*
X64534444Y-97622614D01*
X64630951Y-97812020D01*
X64755890Y-97983986D01*
X64906213Y-98134309D01*
X65078179Y-98259248D01*
X65078181Y-98259249D01*
X65078184Y-98259251D01*
X65267588Y-98355757D01*
X65469757Y-98421446D01*
X65679713Y-98454700D01*
X65679714Y-98454700D01*
X65892286Y-98454700D01*
X65892287Y-98454700D01*
X66102243Y-98421446D01*
X66304412Y-98355757D01*
X66468683Y-98272056D01*
X66537351Y-98259161D01*
X66602092Y-98285437D01*
X66612658Y-98294861D01*
X68443403Y-100125606D01*
X68537492Y-100219695D01*
X68580678Y-100248550D01*
X68598535Y-100265104D01*
X68599557Y-100264083D01*
X68604859Y-100269385D01*
X68604861Y-100269388D01*
X68718709Y-100383236D01*
X68856495Y-100466531D01*
X69010210Y-100514430D01*
X69077006Y-100520500D01*
X70484187Y-100520499D01*
X70484194Y-100520499D01*
X70550979Y-100514431D01*
X70550982Y-100514430D01*
X70550984Y-100514430D01*
X70704699Y-100466531D01*
X70842485Y-100383236D01*
X70956333Y-100269388D01*
X71039628Y-100131602D01*
X71087527Y-99977887D01*
X71093597Y-99911091D01*
X71093596Y-99478910D01*
X71093596Y-99478901D01*
X71087528Y-99412117D01*
X71087525Y-99412106D01*
X71039629Y-99258400D01*
X71039628Y-99258398D01*
X71029033Y-99240872D01*
X70958178Y-99123664D01*
X70940342Y-99056112D01*
X70958179Y-98995365D01*
X71039168Y-98861394D01*
X71039169Y-98861393D01*
X71087029Y-98707802D01*
X71087032Y-98707792D01*
X71090011Y-98675000D01*
X69904597Y-98675000D01*
X69837558Y-98655315D01*
X69791803Y-98602511D01*
X69780597Y-98551000D01*
X69780597Y-98425000D01*
X69654597Y-98425000D01*
X69587558Y-98405315D01*
X69541803Y-98352511D01*
X69530597Y-98301000D01*
X69530597Y-98175000D01*
X70030597Y-98175000D01*
X71090012Y-98175000D01*
X71090011Y-98174999D01*
X71087032Y-98142207D01*
X71087029Y-98142197D01*
X71039169Y-97988606D01*
X71039168Y-97988604D01*
X70957887Y-97854151D01*
X70940050Y-97786596D01*
X70957887Y-97725849D01*
X71039168Y-97591395D01*
X71039169Y-97591393D01*
X71087029Y-97437802D01*
X71087032Y-97437792D01*
X71090011Y-97405000D01*
X70030597Y-97405000D01*
X70030597Y-98175000D01*
X69530597Y-98175000D01*
X69530597Y-97405000D01*
X68471182Y-97405000D01*
X68474161Y-97437792D01*
X68474164Y-97437802D01*
X68522024Y-97591392D01*
X68603307Y-97725850D01*
X68621143Y-97793405D01*
X68603307Y-97854150D01*
X68522025Y-97988605D01*
X68510582Y-98025328D01*
X68471844Y-98083475D01*
X68407818Y-98111448D01*
X68338833Y-98100366D01*
X68304516Y-98076117D01*
X67773819Y-97545420D01*
X67740334Y-97484097D01*
X67737500Y-97457739D01*
X67737500Y-96904999D01*
X68471182Y-96904999D01*
X68471182Y-96905000D01*
X69530597Y-96905000D01*
X70030597Y-96905000D01*
X71090012Y-96905000D01*
X71090011Y-96904999D01*
X71087032Y-96872207D01*
X71087029Y-96872197D01*
X71039169Y-96718606D01*
X71039168Y-96718604D01*
X70957887Y-96584151D01*
X70940050Y-96516596D01*
X70957887Y-96455849D01*
X71039168Y-96321395D01*
X71039169Y-96321393D01*
X71087029Y-96167802D01*
X71087032Y-96167792D01*
X71090011Y-96135000D01*
X70030597Y-96135000D01*
X70030597Y-96905000D01*
X69530597Y-96905000D01*
X69530597Y-96135000D01*
X68471182Y-96135000D01*
X68474161Y-96167792D01*
X68474164Y-96167802D01*
X68522024Y-96321392D01*
X68603307Y-96455850D01*
X68621143Y-96523405D01*
X68603307Y-96584150D01*
X68522024Y-96718607D01*
X68474164Y-96872197D01*
X68474161Y-96872207D01*
X68471182Y-96904999D01*
X67737500Y-96904999D01*
X67737500Y-95634999D01*
X68471182Y-95634999D01*
X68471182Y-95635000D01*
X69530597Y-95635000D01*
X70030597Y-95635000D01*
X71090012Y-95635000D01*
X71090011Y-95634999D01*
X71087032Y-95602207D01*
X71087029Y-95602197D01*
X71039169Y-95448607D01*
X70955933Y-95310919D01*
X70842177Y-95197163D01*
X70704493Y-95113929D01*
X70550889Y-95066065D01*
X70484140Y-95060000D01*
X70030597Y-95060000D01*
X70030597Y-95635000D01*
X69530597Y-95635000D01*
X69530597Y-95060000D01*
X69077054Y-95060000D01*
X69010304Y-95066065D01*
X68856700Y-95113929D01*
X68719016Y-95197163D01*
X68605260Y-95310919D01*
X68522024Y-95448607D01*
X68474164Y-95602197D01*
X68474161Y-95602207D01*
X68471182Y-95634999D01*
X67737500Y-95634999D01*
X67737500Y-94756868D01*
X71786434Y-94756868D01*
X71790337Y-94762522D01*
X71794403Y-94768810D01*
X71908840Y-94958110D01*
X71912519Y-94964634D01*
X71933582Y-95004766D01*
X71936861Y-95011500D01*
X71961621Y-95066513D01*
X71964488Y-95073433D01*
X71980562Y-95115816D01*
X71983005Y-95122897D01*
X72047695Y-95330493D01*
X72049480Y-95336802D01*
X72059262Y-95375239D01*
X72060710Y-95381633D01*
X72071006Y-95433401D01*
X72072114Y-95439859D01*
X72077784Y-95479106D01*
X72078549Y-95485615D01*
X72103166Y-95756540D01*
X72097194Y-95807325D01*
X72071043Y-95885000D01*
X72097194Y-95962675D01*
X72103166Y-96013460D01*
X72080868Y-96258868D01*
X72431664Y-96258868D01*
X72457329Y-96196905D01*
X72459794Y-96191344D01*
X72475534Y-96158062D01*
X72478271Y-96152623D01*
X72501373Y-96109401D01*
X72504373Y-96104106D01*
X72523309Y-96072512D01*
X72526566Y-96067368D01*
X72652343Y-95879131D01*
X72655847Y-95874155D01*
X72677779Y-95844583D01*
X72681524Y-95839785D01*
X72712613Y-95801903D01*
X72716587Y-95797296D01*
X72741318Y-95770009D01*
X72745516Y-95765600D01*
X72876117Y-95634999D01*
X75646182Y-95634999D01*
X75646182Y-95635000D01*
X76705597Y-95635000D01*
X76705597Y-95060000D01*
X76252054Y-95060000D01*
X76185304Y-95066065D01*
X76031700Y-95113929D01*
X75894016Y-95197163D01*
X75780260Y-95310919D01*
X75697024Y-95448607D01*
X75649164Y-95602197D01*
X75649161Y-95602207D01*
X75646182Y-95634999D01*
X72876117Y-95634999D01*
X72905600Y-95605516D01*
X72910009Y-95601318D01*
X72937296Y-95576587D01*
X72941903Y-95572613D01*
X72979785Y-95541524D01*
X72984583Y-95537779D01*
X73014155Y-95515847D01*
X73019131Y-95512343D01*
X73207368Y-95386566D01*
X73212512Y-95383309D01*
X73241180Y-95366126D01*
X73241180Y-94756868D01*
X71786434Y-94756868D01*
X67737500Y-94756868D01*
X67737500Y-93924163D01*
X67757185Y-93857124D01*
X67773819Y-93836482D01*
X68169853Y-93440448D01*
X71739180Y-93440448D01*
X71739180Y-93758868D01*
X73241180Y-93758868D01*
X74239180Y-93758868D01*
X75526931Y-93758868D01*
X74971696Y-93203633D01*
X74967497Y-93199223D01*
X74942753Y-93171921D01*
X74938775Y-93167310D01*
X74907687Y-93129425D01*
X74903944Y-93124627D01*
X74882023Y-93095067D01*
X74878521Y-93090095D01*
X74780114Y-92942817D01*
X74776859Y-92937677D01*
X74757932Y-92906100D01*
X74754932Y-92900804D01*
X74731831Y-92857586D01*
X74729094Y-92852149D01*
X74713347Y-92818855D01*
X74710881Y-92813291D01*
X74643092Y-92649634D01*
X74640902Y-92643958D01*
X74628499Y-92609296D01*
X74626590Y-92603517D01*
X74612363Y-92556620D01*
X74610739Y-92550752D01*
X74601789Y-92515022D01*
X74600456Y-92509083D01*
X74589161Y-92452298D01*
X74565897Y-92335347D01*
X74564856Y-92329351D01*
X74559451Y-92292916D01*
X74558706Y-92286872D01*
X74555751Y-92256868D01*
X74239180Y-92256868D01*
X74239180Y-93758868D01*
X73241180Y-93758868D01*
X73241180Y-92256868D01*
X72796816Y-92256868D01*
X72501011Y-92552671D01*
X72491466Y-92583306D01*
X72489022Y-92590390D01*
X72472948Y-92632773D01*
X72470081Y-92639692D01*
X72445322Y-92694704D01*
X72442043Y-92701439D01*
X72420980Y-92741571D01*
X72417301Y-92748095D01*
X72302801Y-92937500D01*
X72298735Y-92943789D01*
X72272997Y-92981078D01*
X72268560Y-92987108D01*
X72231358Y-93034597D01*
X72226560Y-93040355D01*
X72196494Y-93074293D01*
X72191359Y-93079747D01*
X72034844Y-93236262D01*
X72029390Y-93241397D01*
X71995452Y-93271463D01*
X71989694Y-93276261D01*
X71942205Y-93313463D01*
X71936175Y-93317900D01*
X71898886Y-93343638D01*
X71892597Y-93347704D01*
X71739180Y-93440448D01*
X68169853Y-93440448D01*
X69077482Y-92532819D01*
X69138805Y-92499334D01*
X69165163Y-92496500D01*
X69171074Y-92496500D01*
X69235222Y-92514382D01*
X69364495Y-92592531D01*
X69518210Y-92640430D01*
X69585006Y-92646500D01*
X70992187Y-92646499D01*
X70992194Y-92646499D01*
X71058979Y-92640431D01*
X71058982Y-92640430D01*
X71058984Y-92640430D01*
X71212699Y-92592531D01*
X71350485Y-92509236D01*
X71464333Y-92395388D01*
X71547628Y-92257602D01*
X71595527Y-92103887D01*
X71597172Y-92085779D01*
X71622838Y-92020799D01*
X71632974Y-92009325D01*
X73168695Y-90473606D01*
X73200749Y-90425633D01*
X73242620Y-90362969D01*
X73273149Y-90289265D01*
X73293541Y-90240036D01*
X73319500Y-90109531D01*
X73319500Y-90080500D01*
X73339185Y-90013461D01*
X73391989Y-89967706D01*
X73443500Y-89956500D01*
X76026289Y-89956500D01*
X76093328Y-89976185D01*
X76139083Y-90028989D01*
X76149027Y-90098147D01*
X76120002Y-90161703D01*
X76113970Y-90168181D01*
X75694727Y-90587423D01*
X75694724Y-90587426D01*
X75650379Y-90653793D01*
X75650380Y-90653794D01*
X75623534Y-90693972D01*
X75574499Y-90812353D01*
X75574497Y-90812359D01*
X75549500Y-90938026D01*
X75549500Y-92164676D01*
X75554613Y-92190379D01*
X75567985Y-92257602D01*
X75573351Y-92284579D01*
X75574499Y-92290350D01*
X75622955Y-92407334D01*
X75623535Y-92408733D01*
X75661492Y-92465540D01*
X75694726Y-92515279D01*
X75694727Y-92515280D01*
X77519781Y-94340333D01*
X77553266Y-94401656D01*
X77556100Y-94428014D01*
X77556100Y-94936000D01*
X77536415Y-95003039D01*
X77483611Y-95048794D01*
X77432100Y-95060000D01*
X77205597Y-95060000D01*
X77205597Y-95761000D01*
X77185912Y-95828039D01*
X77133108Y-95873794D01*
X77081597Y-95885000D01*
X76955597Y-95885000D01*
X76955597Y-96011000D01*
X76935912Y-96078039D01*
X76883108Y-96123794D01*
X76831597Y-96135000D01*
X75646182Y-96135000D01*
X75649161Y-96167792D01*
X75649164Y-96167802D01*
X75696157Y-96318610D01*
X75697308Y-96388470D01*
X75660507Y-96447863D01*
X75597439Y-96477930D01*
X75577772Y-96479500D01*
X74944362Y-96479500D01*
X74877323Y-96459815D01*
X74856681Y-96443181D01*
X74742038Y-96328538D01*
X74742034Y-96328535D01*
X74594553Y-96229990D01*
X74594540Y-96229983D01*
X74430667Y-96162106D01*
X74430658Y-96162103D01*
X74256694Y-96127500D01*
X74256691Y-96127500D01*
X74079309Y-96127500D01*
X74079306Y-96127500D01*
X73905341Y-96162103D01*
X73905332Y-96162106D01*
X73741459Y-96229983D01*
X73741446Y-96229990D01*
X73593965Y-96328535D01*
X73593961Y-96328538D01*
X73468538Y-96453961D01*
X73468535Y-96453965D01*
X73369990Y-96601446D01*
X73369983Y-96601459D01*
X73302106Y-96765332D01*
X73302103Y-96765341D01*
X73267500Y-96939304D01*
X73267500Y-97116695D01*
X73302103Y-97290658D01*
X73302106Y-97290667D01*
X73369983Y-97454540D01*
X73369990Y-97454553D01*
X73468535Y-97602034D01*
X73468538Y-97602038D01*
X73593961Y-97727461D01*
X73593965Y-97727464D01*
X73741454Y-97826014D01*
X73745571Y-97828215D01*
X73795415Y-97877177D01*
X73810876Y-97945314D01*
X73787045Y-98010994D01*
X73774800Y-98025254D01*
X73676871Y-98123182D01*
X73615551Y-98156666D01*
X73589192Y-98159500D01*
X73571306Y-98159500D01*
X73397341Y-98194103D01*
X73397332Y-98194106D01*
X73233459Y-98261983D01*
X73233446Y-98261990D01*
X73085965Y-98360535D01*
X73085961Y-98360538D01*
X72960538Y-98485961D01*
X72960535Y-98485965D01*
X72861990Y-98633446D01*
X72861983Y-98633459D01*
X72794106Y-98797332D01*
X72794103Y-98797341D01*
X72759500Y-98971304D01*
X72759500Y-99148695D01*
X72794103Y-99322658D01*
X72794106Y-99322667D01*
X72861983Y-99486540D01*
X72861990Y-99486553D01*
X72960535Y-99634034D01*
X72960538Y-99634038D01*
X73085961Y-99759461D01*
X73085965Y-99759464D01*
X73233446Y-99858009D01*
X73233459Y-99858016D01*
X73356363Y-99908923D01*
X73397334Y-99925894D01*
X73397336Y-99925894D01*
X73397341Y-99925896D01*
X73571304Y-99960499D01*
X73571307Y-99960500D01*
X73571309Y-99960500D01*
X73748693Y-99960500D01*
X73748694Y-99960499D01*
X73806682Y-99948964D01*
X73922658Y-99925896D01*
X73922661Y-99925894D01*
X73922666Y-99925894D01*
X74072315Y-99863908D01*
X74086540Y-99858016D01*
X74086540Y-99858015D01*
X74086547Y-99858013D01*
X74234035Y-99759464D01*
X74359464Y-99634035D01*
X74458013Y-99486547D01*
X74525894Y-99322666D01*
X74525896Y-99322657D01*
X74555206Y-99175309D01*
X74587591Y-99113398D01*
X74648307Y-99078823D01*
X74676823Y-99075500D01*
X74917500Y-99075500D01*
X74984539Y-99095185D01*
X75030294Y-99147989D01*
X75041500Y-99199500D01*
X75041500Y-100140071D01*
X75063470Y-100250517D01*
X75063471Y-100250520D01*
X75066498Y-100265743D01*
X75115165Y-100383233D01*
X75115535Y-100384127D01*
X75181254Y-100482484D01*
X75186726Y-100490673D01*
X75186727Y-100490674D01*
X76051373Y-101355319D01*
X76084858Y-101416642D01*
X76079874Y-101486333D01*
X76038002Y-101542267D01*
X75972538Y-101566684D01*
X75963692Y-101567000D01*
X75812000Y-101567000D01*
X75812000Y-102238000D01*
X75792315Y-102305039D01*
X75739511Y-102350794D01*
X75688000Y-102362000D01*
X75562000Y-102362000D01*
X75562000Y-102488000D01*
X75542315Y-102555039D01*
X75489511Y-102600794D01*
X75438000Y-102612000D01*
X74077000Y-102612000D01*
X74077000Y-102620863D01*
X74091768Y-102733028D01*
X74091769Y-102733032D01*
X74149578Y-102872598D01*
X74186797Y-102921102D01*
X74211991Y-102986272D01*
X74197953Y-103054716D01*
X74186798Y-103072074D01*
X74149142Y-103121149D01*
X74145312Y-103130395D01*
X74118435Y-103170617D01*
X73720724Y-103568328D01*
X73659083Y-103660581D01*
X73659084Y-103660582D01*
X73649536Y-103674871D01*
X73649533Y-103674877D01*
X73600499Y-103793255D01*
X73600497Y-103793261D01*
X73575500Y-103918928D01*
X73575500Y-108584051D01*
X73563885Y-108636449D01*
X73561688Y-108641160D01*
X73561686Y-108641165D01*
X73561686Y-108641166D01*
X73506501Y-108807703D01*
X73506501Y-108807704D01*
X73506500Y-108807704D01*
X73501107Y-108860495D01*
X73474710Y-108925187D01*
X73417529Y-108965337D01*
X73347718Y-108968199D01*
X73287441Y-108932865D01*
X73255837Y-108870551D01*
X73254391Y-108860491D01*
X73253983Y-108856501D01*
X73248999Y-108807703D01*
X73193814Y-108641166D01*
X73101712Y-108491844D01*
X72977656Y-108367788D01*
X72884888Y-108310569D01*
X72828336Y-108275687D01*
X72828331Y-108275685D01*
X72794833Y-108264585D01*
X72661797Y-108220501D01*
X72661795Y-108220500D01*
X72559016Y-108210000D01*
X72559009Y-108210000D01*
X72017308Y-108210000D01*
X71950269Y-108190315D01*
X71929627Y-108173681D01*
X71560174Y-107804227D01*
X71560173Y-107804226D01*
X71560169Y-107804223D01*
X71453627Y-107733035D01*
X71335244Y-107683999D01*
X71335240Y-107683998D01*
X71335233Y-107683996D01*
X71330680Y-107683090D01*
X71330676Y-107683090D01*
X71209571Y-107659000D01*
X71209569Y-107659000D01*
X71190708Y-107659000D01*
X71123669Y-107639315D01*
X71103027Y-107622681D01*
X70659526Y-107179180D01*
X70626041Y-107117857D01*
X70631025Y-107048165D01*
X70672897Y-106992232D01*
X70738361Y-106967815D01*
X70747207Y-106967499D01*
X71560888Y-106967499D01*
X71673151Y-106952720D01*
X71673150Y-106952720D01*
X71673159Y-106952719D01*
X71812853Y-106894856D01*
X71932810Y-106802810D01*
X71987702Y-106731270D01*
X72017188Y-106703654D01*
X72027606Y-106696695D01*
X72412919Y-106311380D01*
X72474240Y-106277897D01*
X72476310Y-106277465D01*
X72541222Y-106264554D01*
X72714202Y-106192903D01*
X72869879Y-106088883D01*
X73002273Y-105956489D01*
X73106293Y-105800812D01*
X73177944Y-105627832D01*
X73214471Y-105444197D01*
X73214471Y-105256965D01*
X73177944Y-105073330D01*
X73106293Y-104900350D01*
X73106292Y-104900349D01*
X73106289Y-104900343D01*
X73002273Y-104744673D01*
X73002270Y-104744669D01*
X72869882Y-104612281D01*
X72869878Y-104612278D01*
X72714208Y-104508262D01*
X72714199Y-104508257D01*
X72541222Y-104436608D01*
X72541214Y-104436606D01*
X72357591Y-104400081D01*
X72357587Y-104400081D01*
X72170355Y-104400081D01*
X72150605Y-104404009D01*
X72125695Y-104408964D01*
X72056103Y-104402735D01*
X72003129Y-104362832D01*
X71999804Y-104358499D01*
X71987516Y-104342485D01*
X71962323Y-104277317D01*
X71976361Y-104208872D01*
X71987518Y-104191513D01*
X72024856Y-104142853D01*
X72056092Y-104067442D01*
X72082719Y-104003159D01*
X72097500Y-103890887D01*
X72097499Y-103373114D01*
X72091472Y-103327335D01*
X72082720Y-103260848D01*
X72082719Y-103260847D01*
X72082719Y-103260841D01*
X72038123Y-103153177D01*
X72024856Y-103121146D01*
X71987518Y-103072487D01*
X71962323Y-103007318D01*
X71976361Y-102938873D01*
X71987518Y-102921513D01*
X72024856Y-102872853D01*
X72039914Y-102836500D01*
X72082719Y-102733159D01*
X72097500Y-102620887D01*
X72097499Y-102103136D01*
X74077000Y-102103136D01*
X74077000Y-102112000D01*
X75312000Y-102112000D01*
X75312000Y-101567000D01*
X74613136Y-101567000D01*
X74500971Y-101581768D01*
X74500967Y-101581769D01*
X74361401Y-101639578D01*
X74241547Y-101731547D01*
X74149578Y-101851401D01*
X74091769Y-101990967D01*
X74091768Y-101990971D01*
X74077000Y-102103136D01*
X72097499Y-102103136D01*
X72097499Y-102103114D01*
X72087419Y-102026547D01*
X72082720Y-101990848D01*
X72082719Y-101990847D01*
X72082719Y-101990841D01*
X72024856Y-101851147D01*
X71932810Y-101731190D01*
X71812853Y-101639144D01*
X71812852Y-101639143D01*
X71812850Y-101639142D01*
X71673162Y-101581282D01*
X71673160Y-101581281D01*
X71673159Y-101581281D01*
X71560887Y-101566500D01*
X69663111Y-101566500D01*
X69550848Y-101581279D01*
X69550837Y-101581282D01*
X69411148Y-101639142D01*
X69411146Y-101639144D01*
X69350244Y-101685876D01*
X69285075Y-101711070D01*
X69274758Y-101711500D01*
X67864499Y-101711500D01*
X67797460Y-101691815D01*
X67751705Y-101639011D01*
X67740499Y-101587500D01*
X67740499Y-100612735D01*
X71914468Y-100612735D01*
X71963022Y-100625744D01*
X71970791Y-100628100D01*
X72017290Y-100643885D01*
X72024882Y-100646743D01*
X72224958Y-100729616D01*
X72232350Y-100732965D01*
X72276385Y-100754681D01*
X72283539Y-100758505D01*
X72340143Y-100791184D01*
X72347034Y-100795469D01*
X72387870Y-100822754D01*
X72394468Y-100827481D01*
X72566281Y-100959318D01*
X72572553Y-100964466D01*
X72609472Y-100996843D01*
X72615394Y-101002390D01*
X72661610Y-101048606D01*
X72667157Y-101054528D01*
X72699534Y-101091447D01*
X72704682Y-101097719D01*
X72828336Y-101258868D01*
X73241180Y-101258868D01*
X73241180Y-100912384D01*
X73178592Y-100899935D01*
X73172651Y-100898601D01*
X73136916Y-100889649D01*
X73131048Y-100888025D01*
X73084155Y-100873798D01*
X73078380Y-100871890D01*
X73043728Y-100859491D01*
X73038051Y-100857301D01*
X72828905Y-100770671D01*
X72823344Y-100768206D01*
X72790062Y-100752466D01*
X72784623Y-100749729D01*
X72741401Y-100726627D01*
X72736106Y-100723627D01*
X72704512Y-100704691D01*
X72699368Y-100701434D01*
X72511131Y-100575657D01*
X72506155Y-100572153D01*
X72476583Y-100550221D01*
X72471785Y-100546476D01*
X72433903Y-100515387D01*
X72429296Y-100511413D01*
X72402009Y-100486682D01*
X72397600Y-100482484D01*
X72237516Y-100322400D01*
X72233318Y-100317991D01*
X72208587Y-100290704D01*
X72204613Y-100286097D01*
X72173524Y-100248215D01*
X72169779Y-100243417D01*
X72147847Y-100213845D01*
X72144343Y-100208869D01*
X72077208Y-100108396D01*
X72072607Y-100140246D01*
X72071499Y-100146705D01*
X72061203Y-100198468D01*
X72059754Y-100204862D01*
X72049973Y-100243292D01*
X72048190Y-100249596D01*
X71983467Y-100457305D01*
X71981023Y-100464387D01*
X71964949Y-100506771D01*
X71962082Y-100513692D01*
X71937322Y-100568705D01*
X71934043Y-100575439D01*
X71914468Y-100612735D01*
X67740499Y-100612735D01*
X67740499Y-100310129D01*
X67740498Y-100310123D01*
X67740497Y-100310116D01*
X67734091Y-100250517D01*
X67733747Y-100249596D01*
X67683797Y-100115671D01*
X67683793Y-100115664D01*
X67597547Y-100000455D01*
X67597544Y-100000452D01*
X67482335Y-99914206D01*
X67482328Y-99914202D01*
X67347482Y-99863908D01*
X67347483Y-99863908D01*
X67287883Y-99857501D01*
X67287881Y-99857500D01*
X67287873Y-99857500D01*
X67287864Y-99857500D01*
X64792129Y-99857500D01*
X64792123Y-99857501D01*
X64732516Y-99863908D01*
X64597671Y-99914202D01*
X64597664Y-99914206D01*
X64482455Y-100000452D01*
X64482452Y-100000455D01*
X64396206Y-100115664D01*
X64396202Y-100115671D01*
X64345908Y-100250517D01*
X64341588Y-100290704D01*
X64339501Y-100310123D01*
X64339500Y-100310135D01*
X64339500Y-103905870D01*
X64339501Y-103905876D01*
X64345908Y-103965483D01*
X64396202Y-104100328D01*
X64396206Y-104100335D01*
X64482452Y-104215544D01*
X64482455Y-104215547D01*
X64597664Y-104301793D01*
X64597671Y-104301797D01*
X64732517Y-104352091D01*
X64732516Y-104352091D01*
X64739444Y-104352835D01*
X64792127Y-104358500D01*
X67287872Y-104358499D01*
X67347483Y-104352091D01*
X67482331Y-104301796D01*
X67597546Y-104215546D01*
X67683796Y-104100331D01*
X67734091Y-103965483D01*
X67740500Y-103905873D01*
X67740500Y-103136500D01*
X67760185Y-103069461D01*
X67812989Y-103023706D01*
X67864500Y-103012500D01*
X69058568Y-103012500D01*
X69125607Y-103032185D01*
X69171362Y-103084989D01*
X69181306Y-103154147D01*
X69173129Y-103183952D01*
X69141282Y-103260837D01*
X69141281Y-103260841D01*
X69126500Y-103373105D01*
X69126500Y-103384191D01*
X69106815Y-103451230D01*
X69090181Y-103471872D01*
X67513565Y-105048487D01*
X67452242Y-105081972D01*
X67382551Y-105076988D01*
X67347487Y-105063910D01*
X67347480Y-105063908D01*
X67287883Y-105057501D01*
X67287881Y-105057500D01*
X67287873Y-105057500D01*
X67287864Y-105057500D01*
X64792129Y-105057500D01*
X64792123Y-105057501D01*
X64732516Y-105063908D01*
X64597671Y-105114202D01*
X64597664Y-105114206D01*
X64482455Y-105200452D01*
X64482452Y-105200455D01*
X64396206Y-105315664D01*
X64396202Y-105315671D01*
X64345908Y-105450517D01*
X64339501Y-105510116D01*
X64339500Y-105510135D01*
X64339500Y-106880388D01*
X64319815Y-106947427D01*
X64267011Y-106993182D01*
X64197853Y-107003126D01*
X64134297Y-106974101D01*
X64096523Y-106915323D01*
X64091502Y-106881129D01*
X64000921Y-91629628D01*
X64002444Y-91615858D01*
X64001792Y-91615797D01*
X64002559Y-91607704D01*
X64002561Y-91607697D01*
X64000512Y-91551265D01*
X64000435Y-91547626D01*
X64000100Y-91491137D01*
X64000099Y-91491133D01*
X63999054Y-91483548D01*
X63997781Y-91476001D01*
X63996648Y-91472313D01*
X63996607Y-91469040D01*
X63996428Y-91467978D01*
X63996593Y-91467950D01*
X63995776Y-91402449D01*
X64032813Y-91343203D01*
X64096002Y-91313387D01*
X64121997Y-91312083D01*
X66903600Y-91465400D01*
X68453000Y-90043000D01*
X68496140Y-87131030D01*
X68516815Y-87064291D01*
X68570291Y-87019323D01*
X68620126Y-87008868D01*
X69302113Y-87008868D01*
X69369152Y-87028553D01*
G37*
%TD.AperFunction*%
%TA.AperFunction,Conductor*%
G36*
X108193540Y-102930185D02*
G01*
X108239295Y-102982989D01*
X108250501Y-103034500D01*
X108250501Y-103132876D01*
X108256908Y-103192483D01*
X108307202Y-103327328D01*
X108307206Y-103327335D01*
X108393452Y-103442544D01*
X108393455Y-103442547D01*
X108508664Y-103528793D01*
X108508671Y-103528797D01*
X108570902Y-103552007D01*
X108640598Y-103578002D01*
X108696531Y-103619873D01*
X108720949Y-103685337D01*
X108706098Y-103753610D01*
X108684947Y-103781865D01*
X108571271Y-103895541D01*
X108446379Y-104067442D01*
X108349904Y-104256782D01*
X108284242Y-104458870D01*
X108284242Y-104458873D01*
X108273769Y-104525000D01*
X109167988Y-104525000D01*
X109135075Y-104582007D01*
X109101000Y-104709174D01*
X109101000Y-104840826D01*
X109135075Y-104967993D01*
X109167988Y-105025000D01*
X108282308Y-105025000D01*
X108215269Y-105005315D01*
X108194627Y-104988681D01*
X107288359Y-104082412D01*
X107288358Y-104082411D01*
X107265955Y-104067442D01*
X107181812Y-104011220D01*
X107162358Y-104003162D01*
X107063429Y-103962184D01*
X107063423Y-103962182D01*
X106937756Y-103937185D01*
X106937754Y-103937185D01*
X103683405Y-103937185D01*
X103616366Y-103917500D01*
X103595724Y-103900866D01*
X103583081Y-103888223D01*
X103583077Y-103888220D01*
X103435596Y-103789675D01*
X103435587Y-103789670D01*
X103411907Y-103779862D01*
X103357504Y-103736021D01*
X103335439Y-103669727D01*
X103352718Y-103602028D01*
X103371674Y-103577625D01*
X104002482Y-102946819D01*
X104063805Y-102913334D01*
X104090163Y-102910500D01*
X108126501Y-102910500D01*
X108193540Y-102930185D01*
G37*
%TD.AperFunction*%
%TA.AperFunction,Conductor*%
G36*
X99728609Y-95205185D02*
G01*
X99774364Y-95257989D01*
X99784928Y-95322103D01*
X99778500Y-95385013D01*
X99778500Y-95635000D01*
X100667000Y-95635000D01*
X100734039Y-95654685D01*
X100779794Y-95707489D01*
X100791000Y-95759000D01*
X100791000Y-95885000D01*
X100917000Y-95885000D01*
X100984039Y-95904685D01*
X101029794Y-95957489D01*
X101041000Y-96009000D01*
X101041000Y-97084999D01*
X101103472Y-97084999D01*
X101103486Y-97084998D01*
X101206197Y-97074505D01*
X101372619Y-97019358D01*
X101372624Y-97019356D01*
X101521842Y-96927317D01*
X101615464Y-96833695D01*
X101676787Y-96800210D01*
X101746479Y-96805194D01*
X101790827Y-96833695D01*
X101884844Y-96927712D01*
X102034166Y-97019814D01*
X102200703Y-97074999D01*
X102303491Y-97085500D01*
X102928508Y-97085499D01*
X102928516Y-97085498D01*
X102928519Y-97085498D01*
X102996016Y-97078603D01*
X103031297Y-97074999D01*
X103197834Y-97019814D01*
X103347156Y-96927712D01*
X103471212Y-96803656D01*
X103563314Y-96654334D01*
X103574528Y-96620494D01*
X103614301Y-96563050D01*
X103678817Y-96536228D01*
X103692233Y-96535500D01*
X104200192Y-96535500D01*
X104267231Y-96555185D01*
X104287873Y-96571819D01*
X105376194Y-97660140D01*
X105409679Y-97721463D01*
X105404695Y-97791155D01*
X105397715Y-97800478D01*
X105398661Y-97799629D01*
X105467631Y-97788453D01*
X105531695Y-97816338D01*
X105539859Y-97823805D01*
X105710342Y-97994288D01*
X105743827Y-98055611D01*
X105743319Y-98103755D01*
X105744516Y-98103945D01*
X105728263Y-98206561D01*
X105698334Y-98269696D01*
X105639022Y-98306627D01*
X105569160Y-98305629D01*
X105510927Y-98267019D01*
X105491229Y-98234615D01*
X105446016Y-98125459D01*
X105446009Y-98125446D01*
X105349076Y-97980377D01*
X105328198Y-97913700D01*
X105344607Y-97853882D01*
X105297359Y-97871505D01*
X105229086Y-97856653D01*
X105219622Y-97850923D01*
X105074553Y-97753990D01*
X105074540Y-97753983D01*
X104910667Y-97686106D01*
X104910658Y-97686103D01*
X104736694Y-97651500D01*
X104736691Y-97651500D01*
X104559309Y-97651500D01*
X104559306Y-97651500D01*
X104385341Y-97686103D01*
X104385332Y-97686106D01*
X104221459Y-97753983D01*
X104221446Y-97753990D01*
X104073965Y-97852535D01*
X104073961Y-97852538D01*
X103948538Y-97977961D01*
X103948535Y-97977965D01*
X103849990Y-98125446D01*
X103849983Y-98125459D01*
X103782106Y-98289332D01*
X103782103Y-98289341D01*
X103747500Y-98463304D01*
X103747500Y-98481192D01*
X103727815Y-98548231D01*
X103711181Y-98568873D01*
X102039873Y-100240181D01*
X101978550Y-100273666D01*
X101952192Y-100276500D01*
X99307500Y-100276500D01*
X99240461Y-100256815D01*
X99194706Y-100204011D01*
X99183500Y-100152500D01*
X99183500Y-99945000D01*
X98295000Y-99945000D01*
X98227961Y-99925315D01*
X98182206Y-99872511D01*
X98171000Y-99821000D01*
X98171000Y-99569000D01*
X98190685Y-99501961D01*
X98243489Y-99456206D01*
X98295000Y-99445000D01*
X99183499Y-99445000D01*
X99183499Y-99195028D01*
X99183498Y-99195013D01*
X99173005Y-99092302D01*
X99117858Y-98925880D01*
X99117856Y-98925875D01*
X99025815Y-98776654D01*
X98901845Y-98652684D01*
X98752624Y-98560643D01*
X98752619Y-98560641D01*
X98586197Y-98505494D01*
X98586190Y-98505493D01*
X98483486Y-98495000D01*
X98476480Y-98495000D01*
X98409441Y-98475315D01*
X98363686Y-98422511D01*
X98353742Y-98353353D01*
X98354863Y-98346808D01*
X98377430Y-98233359D01*
X98377430Y-98055972D01*
X98377429Y-98055970D01*
X98342826Y-97882007D01*
X98342823Y-97881998D01*
X98314936Y-97814672D01*
X99444259Y-97814672D01*
X99450493Y-97818517D01*
X99456521Y-97822482D01*
X99492281Y-97847522D01*
X99498067Y-97851830D01*
X99543633Y-97887860D01*
X99549159Y-97892497D01*
X99581757Y-97921508D01*
X99587001Y-97926456D01*
X99752044Y-98091499D01*
X99756992Y-98096743D01*
X99786003Y-98129341D01*
X99790640Y-98134867D01*
X99826670Y-98180433D01*
X99830978Y-98186219D01*
X99856018Y-98221979D01*
X99859983Y-98228007D01*
X99982524Y-98426678D01*
X99986131Y-98432926D01*
X100006849Y-98471351D01*
X100010086Y-98477797D01*
X100034634Y-98530443D01*
X100037491Y-98537067D01*
X100053600Y-98577618D01*
X100056066Y-98584393D01*
X100113882Y-98758868D01*
X100551315Y-98758868D01*
X100584373Y-98713367D01*
X100597010Y-98698571D01*
X100730571Y-98565010D01*
X100741180Y-98555949D01*
X100741180Y-98082995D01*
X100465842Y-98083000D01*
X100462687Y-98082960D01*
X100443617Y-98082475D01*
X100440470Y-98082355D01*
X100415093Y-98081064D01*
X100411933Y-98080863D01*
X100392878Y-98079405D01*
X100389735Y-98079124D01*
X100247276Y-98064570D01*
X100240567Y-98063699D01*
X100200133Y-98057324D01*
X100193482Y-98056088D01*
X100140233Y-98044686D01*
X100133665Y-98043092D01*
X100094197Y-98032362D01*
X100087724Y-98030411D01*
X99867895Y-97957567D01*
X99861118Y-97955100D01*
X99820566Y-97938990D01*
X99813945Y-97936135D01*
X99761298Y-97911587D01*
X99754851Y-97908349D01*
X99716426Y-97887631D01*
X99710178Y-97884024D01*
X99521000Y-97767338D01*
X99444259Y-97814672D01*
X98314936Y-97814672D01*
X98274946Y-97718125D01*
X98274939Y-97718112D01*
X98176394Y-97570631D01*
X98176391Y-97570627D01*
X98163749Y-97557985D01*
X98130264Y-97496662D01*
X98127430Y-97470304D01*
X98127430Y-97084999D01*
X98501000Y-97084999D01*
X98563472Y-97084999D01*
X98563486Y-97084998D01*
X98666197Y-97074505D01*
X98832619Y-97019358D01*
X98832624Y-97019356D01*
X98981845Y-96927315D01*
X99105815Y-96803345D01*
X99197856Y-96654124D01*
X99197858Y-96654119D01*
X99253005Y-96487697D01*
X99253006Y-96487690D01*
X99263499Y-96384986D01*
X99778501Y-96384986D01*
X99788994Y-96487697D01*
X99844141Y-96654119D01*
X99844143Y-96654124D01*
X99936184Y-96803345D01*
X100060154Y-96927315D01*
X100209375Y-97019356D01*
X100209380Y-97019358D01*
X100375802Y-97074505D01*
X100375809Y-97074506D01*
X100478519Y-97084999D01*
X100540999Y-97084998D01*
X100541000Y-97084998D01*
X100541000Y-96135000D01*
X99778501Y-96135000D01*
X99778501Y-96384986D01*
X99263499Y-96384986D01*
X99263500Y-96384973D01*
X99263500Y-96135000D01*
X98501000Y-96135000D01*
X98501000Y-97084999D01*
X98127430Y-97084999D01*
X98127430Y-96871858D01*
X98102432Y-96746191D01*
X98102431Y-96746190D01*
X98102431Y-96746186D01*
X98053395Y-96627803D01*
X98053389Y-96627794D01*
X98035789Y-96601452D01*
X98035788Y-96601451D01*
X98021896Y-96580659D01*
X98001020Y-96513981D01*
X98001000Y-96511771D01*
X98001000Y-96009000D01*
X98020685Y-95941961D01*
X98073489Y-95896206D01*
X98125000Y-95885000D01*
X98251000Y-95885000D01*
X98251000Y-95759000D01*
X98270685Y-95691961D01*
X98323489Y-95646206D01*
X98375000Y-95635000D01*
X99263499Y-95635000D01*
X99263499Y-95385028D01*
X99263498Y-95385010D01*
X99257072Y-95322101D01*
X99269842Y-95253408D01*
X99317723Y-95202524D01*
X99380430Y-95185500D01*
X99661570Y-95185500D01*
X99728609Y-95205185D01*
G37*
%TD.AperFunction*%
%TA.AperFunction,Conductor*%
G36*
X85079123Y-95917152D02*
G01*
X85103532Y-95936113D01*
X85546181Y-96378762D01*
X85579666Y-96440085D01*
X85582500Y-96466443D01*
X85582500Y-98385638D01*
X85562815Y-98452677D01*
X85546181Y-98473319D01*
X85533538Y-98485961D01*
X85533535Y-98485965D01*
X85434990Y-98633446D01*
X85434983Y-98633459D01*
X85367106Y-98797332D01*
X85367103Y-98797341D01*
X85332500Y-98971304D01*
X85332500Y-99148695D01*
X85367103Y-99322658D01*
X85367106Y-99322667D01*
X85434983Y-99486540D01*
X85434990Y-99486553D01*
X85533535Y-99634034D01*
X85533538Y-99634038D01*
X85658961Y-99759461D01*
X85658965Y-99759464D01*
X85806446Y-99858009D01*
X85806459Y-99858016D01*
X85883106Y-99889763D01*
X85970334Y-99925894D01*
X85995552Y-99930910D01*
X86057461Y-99963293D01*
X86092037Y-100024008D01*
X86093371Y-100032014D01*
X86111400Y-100122654D01*
X86105172Y-100192246D01*
X86062308Y-100247423D01*
X85996418Y-100270667D01*
X85976533Y-100270135D01*
X85936873Y-100265871D01*
X85936864Y-100265871D01*
X85291129Y-100265871D01*
X85291120Y-100265872D01*
X85227248Y-100272738D01*
X85200742Y-100272738D01*
X85196483Y-100272280D01*
X85136873Y-100265871D01*
X85136867Y-100265871D01*
X84805246Y-100265871D01*
X84738207Y-100246186D01*
X84692452Y-100193382D01*
X84682508Y-100124224D01*
X84690685Y-100094419D01*
X84711248Y-100044775D01*
X84713787Y-100032014D01*
X84738213Y-99909215D01*
X84745854Y-99870800D01*
X84745854Y-99693418D01*
X84745854Y-99693415D01*
X84745853Y-99693413D01*
X84711250Y-99519450D01*
X84711247Y-99519441D01*
X84643370Y-99355568D01*
X84643363Y-99355555D01*
X84544818Y-99208074D01*
X84544815Y-99208070D01*
X84419392Y-99082647D01*
X84419388Y-99082644D01*
X84271907Y-98984099D01*
X84271894Y-98984092D01*
X84108021Y-98916215D01*
X84108012Y-98916212D01*
X83934048Y-98881609D01*
X83934045Y-98881609D01*
X83887240Y-98881609D01*
X83820201Y-98861924D01*
X83774446Y-98809120D01*
X83763950Y-98744360D01*
X83764499Y-98739250D01*
X83764500Y-98739244D01*
X83764499Y-98093499D01*
X83758091Y-98033888D01*
X83758089Y-98033884D01*
X83757632Y-98029626D01*
X83757632Y-98003116D01*
X83758089Y-97998857D01*
X83758091Y-97998854D01*
X83764500Y-97939244D01*
X83764499Y-97293499D01*
X83758091Y-97233888D01*
X83758090Y-97233887D01*
X83757380Y-97227275D01*
X83757381Y-97200764D01*
X83763999Y-97139213D01*
X83764000Y-97139198D01*
X83764000Y-97066371D01*
X83745409Y-97066371D01*
X83678370Y-97046686D01*
X83646144Y-97016684D01*
X83621546Y-96983825D01*
X83530457Y-96915636D01*
X83488588Y-96859704D01*
X83483604Y-96790012D01*
X83517089Y-96728689D01*
X83530452Y-96717109D01*
X83621546Y-96648917D01*
X83646143Y-96616058D01*
X83702076Y-96574189D01*
X83745409Y-96566371D01*
X83786982Y-96566371D01*
X83797666Y-96560536D01*
X83848222Y-96560084D01*
X83868394Y-96564096D01*
X83959906Y-96582300D01*
X83959909Y-96582300D01*
X84137293Y-96582300D01*
X84137294Y-96582299D01*
X84234067Y-96563050D01*
X84311258Y-96547696D01*
X84311261Y-96547694D01*
X84311266Y-96547694D01*
X84475147Y-96479813D01*
X84622635Y-96381264D01*
X84748064Y-96255835D01*
X84846613Y-96108347D01*
X84901291Y-95976339D01*
X84945130Y-95921939D01*
X85011424Y-95899873D01*
X85079123Y-95917152D01*
G37*
%TD.AperFunction*%
%TA.AperFunction,Conductor*%
G36*
X89806539Y-98286556D02*
G01*
X89852294Y-98339360D01*
X89863500Y-98390871D01*
X89863500Y-98739240D01*
X89863501Y-98739247D01*
X89870619Y-98805463D01*
X89870619Y-98831970D01*
X89864000Y-98893540D01*
X89864000Y-98966371D01*
X89882591Y-98966371D01*
X89949630Y-98986056D01*
X89981855Y-99016057D01*
X90006454Y-99048917D01*
X90097541Y-99117105D01*
X90139411Y-99173037D01*
X90144395Y-99242729D01*
X90110910Y-99304052D01*
X90097541Y-99315636D01*
X90063477Y-99341137D01*
X89998013Y-99365555D01*
X89989165Y-99365871D01*
X88918808Y-99365871D01*
X88851769Y-99346186D01*
X88831127Y-99329552D01*
X88580485Y-99078910D01*
X88547000Y-99017587D01*
X88551984Y-98947895D01*
X88593856Y-98891962D01*
X88643974Y-98869611D01*
X88662666Y-98865894D01*
X88826547Y-98798013D01*
X88974035Y-98699464D01*
X89099464Y-98574035D01*
X89198013Y-98426547D01*
X89232445Y-98343418D01*
X89276285Y-98289015D01*
X89342579Y-98266950D01*
X89347006Y-98266871D01*
X89739500Y-98266871D01*
X89806539Y-98286556D01*
G37*
%TD.AperFunction*%
%TA.AperFunction,Conductor*%
G36*
X92569701Y-94506094D02*
G01*
X92576180Y-94512127D01*
X92930328Y-94866275D01*
X93015149Y-94922950D01*
X93015148Y-94922950D01*
X93036871Y-94937464D01*
X93036872Y-94937464D01*
X93036873Y-94937465D01*
X93155256Y-94986501D01*
X93155260Y-94986501D01*
X93155261Y-94986502D01*
X93280928Y-95011500D01*
X93280931Y-95011500D01*
X93521638Y-95011500D01*
X93588677Y-95031185D01*
X93609319Y-95047819D01*
X93621961Y-95060461D01*
X93621965Y-95060464D01*
X93769446Y-95159009D01*
X93769459Y-95159016D01*
X93872601Y-95201738D01*
X93933334Y-95226894D01*
X93933336Y-95226894D01*
X93933341Y-95226896D01*
X94107304Y-95261499D01*
X94107307Y-95261500D01*
X94107309Y-95261500D01*
X94284687Y-95261500D01*
X94284691Y-95261500D01*
X94284694Y-95261499D01*
X94290085Y-95260968D01*
X94358732Y-95273982D01*
X94409446Y-95322043D01*
X94416808Y-95336915D01*
X94419533Y-95343493D01*
X94419535Y-95343497D01*
X94490723Y-95450039D01*
X94490726Y-95450043D01*
X94490727Y-95450044D01*
X95380362Y-96339678D01*
X95413847Y-96401001D01*
X95416039Y-96414756D01*
X95423501Y-96487797D01*
X95423501Y-96487799D01*
X95469891Y-96627794D01*
X95478686Y-96654334D01*
X95570788Y-96803656D01*
X95694844Y-96927712D01*
X95844166Y-97019814D01*
X96010703Y-97074999D01*
X96113491Y-97085500D01*
X96655191Y-97085499D01*
X96722230Y-97105183D01*
X96742872Y-97121818D01*
X96790111Y-97169057D01*
X96823596Y-97230380D01*
X96826430Y-97256738D01*
X96826430Y-97470304D01*
X96806745Y-97537343D01*
X96790111Y-97557985D01*
X96777468Y-97570627D01*
X96777465Y-97570631D01*
X96678920Y-97718112D01*
X96678913Y-97718125D01*
X96611036Y-97881998D01*
X96611033Y-97882007D01*
X96576430Y-98055970D01*
X96576430Y-98233361D01*
X96598897Y-98346309D01*
X96592670Y-98415900D01*
X96549807Y-98471078D01*
X96483917Y-98494322D01*
X96477280Y-98494500D01*
X96033498Y-98494500D01*
X96033480Y-98494501D01*
X95930703Y-98505000D01*
X95930700Y-98505001D01*
X95764168Y-98560185D01*
X95764163Y-98560187D01*
X95614842Y-98652289D01*
X95490789Y-98776342D01*
X95398687Y-98925663D01*
X95398685Y-98925668D01*
X95379324Y-98984096D01*
X95346669Y-99082645D01*
X95343501Y-99092204D01*
X95343500Y-99092205D01*
X95333193Y-99193102D01*
X95306797Y-99257794D01*
X95249616Y-99297946D01*
X95209835Y-99304500D01*
X92252688Y-99304500D01*
X92185649Y-99284815D01*
X92139894Y-99232011D01*
X92129950Y-99162853D01*
X92158975Y-99099297D01*
X92178376Y-99081234D01*
X92221546Y-99048917D01*
X92246143Y-99016058D01*
X92302076Y-98974189D01*
X92345409Y-98966371D01*
X92364000Y-98966371D01*
X92364000Y-98893543D01*
X92363999Y-98893531D01*
X92357380Y-98831975D01*
X92357380Y-98805461D01*
X92358090Y-98798856D01*
X92358091Y-98798854D01*
X92364500Y-98739244D01*
X92364499Y-98306500D01*
X94239180Y-98306500D01*
X94608015Y-98306500D01*
X94656621Y-98227696D01*
X94660587Y-98221667D01*
X94685628Y-98185907D01*
X94689934Y-98180123D01*
X94725964Y-98134556D01*
X94730602Y-98129029D01*
X94759613Y-98096431D01*
X94764561Y-98091187D01*
X94929687Y-97926061D01*
X94934931Y-97921113D01*
X94967529Y-97892102D01*
X94973056Y-97887464D01*
X95018623Y-97851434D01*
X95024407Y-97847128D01*
X95060167Y-97822087D01*
X95066197Y-97818121D01*
X95151788Y-97765327D01*
X95146197Y-97761879D01*
X95140167Y-97757913D01*
X95104407Y-97732872D01*
X95098623Y-97728566D01*
X95053056Y-97692536D01*
X95047529Y-97687898D01*
X95014931Y-97658887D01*
X95009687Y-97653939D01*
X94844561Y-97488813D01*
X94839613Y-97483569D01*
X94810602Y-97450971D01*
X94805964Y-97445444D01*
X94769934Y-97399877D01*
X94765628Y-97394093D01*
X94740587Y-97358333D01*
X94736621Y-97352303D01*
X94677757Y-97256868D01*
X94239180Y-97256868D01*
X94239180Y-98306500D01*
X92364499Y-98306500D01*
X92364499Y-98093499D01*
X92358091Y-98033888D01*
X92358089Y-98033884D01*
X92357632Y-98029626D01*
X92357632Y-98003116D01*
X92358089Y-97998857D01*
X92358091Y-97998854D01*
X92364500Y-97939244D01*
X92364499Y-97293499D01*
X92358091Y-97233888D01*
X92358089Y-97233884D01*
X92357632Y-97229626D01*
X92357632Y-97203116D01*
X92358089Y-97198857D01*
X92358091Y-97198854D01*
X92364500Y-97139244D01*
X92364499Y-96493499D01*
X92358091Y-96433888D01*
X92358089Y-96433884D01*
X92357632Y-96429626D01*
X92357632Y-96403116D01*
X92358089Y-96398857D01*
X92358091Y-96398854D01*
X92364500Y-96339244D01*
X92364499Y-95693499D01*
X92358091Y-95633888D01*
X92358089Y-95633884D01*
X92357632Y-95629626D01*
X92357632Y-95603116D01*
X92358089Y-95598857D01*
X92358091Y-95598854D01*
X92364500Y-95539244D01*
X92364499Y-94893499D01*
X92358091Y-94833888D01*
X92358089Y-94833884D01*
X92357632Y-94829626D01*
X92357632Y-94803116D01*
X92358089Y-94798857D01*
X92358091Y-94798854D01*
X92364500Y-94739244D01*
X92364499Y-94599806D01*
X92384183Y-94532769D01*
X92436987Y-94487014D01*
X92506145Y-94477070D01*
X92569701Y-94506094D01*
G37*
%TD.AperFunction*%
%TA.AperFunction,Conductor*%
G36*
X88778148Y-87028553D02*
G01*
X88823903Y-87081357D01*
X88833847Y-87150515D01*
X88804822Y-87214071D01*
X88798790Y-87220549D01*
X88697684Y-87321654D01*
X88605643Y-87470875D01*
X88605641Y-87470880D01*
X88550494Y-87637302D01*
X88550493Y-87637309D01*
X88540000Y-87740013D01*
X88540000Y-88015000D01*
X89416000Y-88015000D01*
X89483039Y-88034685D01*
X89528794Y-88087489D01*
X89540000Y-88139000D01*
X89540000Y-88265000D01*
X89666000Y-88265000D01*
X89733039Y-88284685D01*
X89778794Y-88337489D01*
X89790000Y-88389000D01*
X89790000Y-89489999D01*
X89839972Y-89489999D01*
X89839986Y-89489998D01*
X89942697Y-89479505D01*
X90109119Y-89424358D01*
X90109124Y-89424356D01*
X90258345Y-89332315D01*
X90382318Y-89208342D01*
X90384165Y-89205348D01*
X90385969Y-89203724D01*
X90386798Y-89202677D01*
X90386976Y-89202818D01*
X90436110Y-89158621D01*
X90505073Y-89147396D01*
X90569156Y-89175236D01*
X90595243Y-89205341D01*
X90597288Y-89208656D01*
X90721344Y-89332712D01*
X90870666Y-89424814D01*
X91037203Y-89479999D01*
X91139991Y-89490500D01*
X91740008Y-89490499D01*
X91740016Y-89490498D01*
X91740019Y-89490498D01*
X91824980Y-89481819D01*
X91842797Y-89479999D01*
X92009334Y-89424814D01*
X92158656Y-89332712D01*
X92279817Y-89211550D01*
X92341136Y-89178068D01*
X92410828Y-89183052D01*
X92414942Y-89184671D01*
X92585149Y-89255173D01*
X92718586Y-89281715D01*
X92768779Y-89291699D01*
X92768783Y-89291700D01*
X92768784Y-89291700D01*
X92956017Y-89291700D01*
X92956018Y-89291699D01*
X93139651Y-89255173D01*
X93312631Y-89183522D01*
X93468308Y-89079502D01*
X93600702Y-88947108D01*
X93704722Y-88791431D01*
X93776373Y-88618451D01*
X93812900Y-88434816D01*
X93812900Y-88247584D01*
X93776373Y-88063949D01*
X93704722Y-87890969D01*
X93704721Y-87890968D01*
X93704718Y-87890962D01*
X93600702Y-87735292D01*
X93600699Y-87735288D01*
X93468311Y-87602900D01*
X93468307Y-87602897D01*
X93312637Y-87498881D01*
X93312628Y-87498876D01*
X93139651Y-87427227D01*
X93139643Y-87427225D01*
X92956020Y-87390700D01*
X92956016Y-87390700D01*
X92768784Y-87390700D01*
X92768779Y-87390700D01*
X92585156Y-87427225D01*
X92585144Y-87427228D01*
X92493832Y-87465051D01*
X92424363Y-87472520D01*
X92361884Y-87441245D01*
X92340841Y-87415587D01*
X92325491Y-87390700D01*
X92282712Y-87321344D01*
X92181917Y-87220549D01*
X92148432Y-87159226D01*
X92153416Y-87089534D01*
X92195288Y-87033601D01*
X92260752Y-87009184D01*
X92269598Y-87008868D01*
X95587872Y-87008868D01*
X95654911Y-87028553D01*
X95700666Y-87081357D01*
X95710610Y-87150515D01*
X95681585Y-87214071D01*
X95626876Y-87250573D01*
X95617986Y-87253519D01*
X95608577Y-87256637D01*
X95608566Y-87256642D01*
X95460500Y-87347971D01*
X95460496Y-87347974D01*
X95337474Y-87470996D01*
X95337471Y-87471000D01*
X95246142Y-87619066D01*
X95246137Y-87619077D01*
X95191413Y-87784223D01*
X95181000Y-87886144D01*
X95181000Y-88897855D01*
X95191413Y-88999776D01*
X95246137Y-89164922D01*
X95246142Y-89164933D01*
X95337471Y-89312999D01*
X95337474Y-89313003D01*
X95460497Y-89436026D01*
X95556597Y-89495301D01*
X95603321Y-89547248D01*
X95615500Y-89600839D01*
X95615500Y-90913331D01*
X95595815Y-90980370D01*
X95556600Y-91018868D01*
X95534843Y-91032288D01*
X95410789Y-91156342D01*
X95318687Y-91305663D01*
X95318685Y-91305668D01*
X95306247Y-91343203D01*
X95263501Y-91472203D01*
X95263501Y-91472204D01*
X95263500Y-91472204D01*
X95253000Y-91574983D01*
X95253000Y-92575001D01*
X95253001Y-92575019D01*
X95263500Y-92677796D01*
X95263501Y-92677799D01*
X95312870Y-92826782D01*
X95318686Y-92844334D01*
X95410788Y-92993656D01*
X95534844Y-93117712D01*
X95684166Y-93209814D01*
X95850703Y-93264999D01*
X95953491Y-93275500D01*
X96578508Y-93275499D01*
X96578516Y-93275498D01*
X96578519Y-93275498D01*
X96634802Y-93269748D01*
X96681297Y-93264999D01*
X96847834Y-93209814D01*
X96997156Y-93117712D01*
X97090819Y-93024049D01*
X97152142Y-92990564D01*
X97221834Y-92995548D01*
X97266181Y-93024049D01*
X97359844Y-93117712D01*
X97509166Y-93209814D01*
X97675703Y-93264999D01*
X97778491Y-93275500D01*
X98403508Y-93275499D01*
X98403516Y-93275498D01*
X98403519Y-93275498D01*
X98459802Y-93269748D01*
X98506297Y-93264999D01*
X98672834Y-93209814D01*
X98822156Y-93117712D01*
X98946212Y-92993656D01*
X98979951Y-92938954D01*
X99031896Y-92892232D01*
X99100858Y-92881008D01*
X99132942Y-92889491D01*
X99189149Y-92912773D01*
X99314351Y-92937677D01*
X99372779Y-92949299D01*
X99372783Y-92949300D01*
X99372784Y-92949300D01*
X99560017Y-92949300D01*
X99560017Y-92949299D01*
X99714596Y-92918552D01*
X99784187Y-92924779D01*
X99839364Y-92967642D01*
X99844324Y-92975071D01*
X99855788Y-92993656D01*
X99979844Y-93117712D01*
X100129166Y-93209814D01*
X100295703Y-93264999D01*
X100398491Y-93275500D01*
X101023508Y-93275499D01*
X101023516Y-93275498D01*
X101023519Y-93275498D01*
X101079802Y-93269748D01*
X101126297Y-93264999D01*
X101292834Y-93209814D01*
X101442156Y-93117712D01*
X101535819Y-93024049D01*
X101597142Y-92990564D01*
X101666834Y-92995548D01*
X101711181Y-93024049D01*
X101804844Y-93117712D01*
X101954166Y-93209814D01*
X102120703Y-93264999D01*
X102223491Y-93275500D01*
X102848508Y-93275499D01*
X102848516Y-93275498D01*
X102848519Y-93275498D01*
X102904802Y-93269748D01*
X102951297Y-93264999D01*
X103117834Y-93209814D01*
X103267156Y-93117712D01*
X103391212Y-92993656D01*
X103483314Y-92844334D01*
X103538499Y-92677797D01*
X103549000Y-92575009D01*
X103548999Y-91574992D01*
X103546197Y-91547566D01*
X103538499Y-91472203D01*
X103538498Y-91472200D01*
X103521288Y-91420265D01*
X103483314Y-91305666D01*
X103391212Y-91156344D01*
X103267156Y-91032288D01*
X103245400Y-91018868D01*
X103198677Y-90966918D01*
X103186500Y-90913331D01*
X103186500Y-89541934D01*
X103206185Y-89474895D01*
X103240720Y-89440993D01*
X103240336Y-89440507D01*
X103244866Y-89436924D01*
X103245407Y-89436393D01*
X103246003Y-89436026D01*
X103369026Y-89313003D01*
X103460362Y-89164925D01*
X103515087Y-88999775D01*
X103515087Y-88999771D01*
X103516091Y-88996743D01*
X103555863Y-88939298D01*
X103620379Y-88912475D01*
X103689155Y-88924790D01*
X103721478Y-88948066D01*
X105173181Y-90399769D01*
X105206666Y-90461092D01*
X105209500Y-90487450D01*
X105209500Y-94748070D01*
X105212375Y-94762522D01*
X105228242Y-94842289D01*
X105233013Y-94866270D01*
X105233014Y-94866281D01*
X105233015Y-94866281D01*
X105234498Y-94873742D01*
X105234500Y-94873747D01*
X105283533Y-94992125D01*
X105354726Y-95098673D01*
X105354727Y-95098674D01*
X105710342Y-95454288D01*
X105743827Y-95515611D01*
X105743319Y-95563755D01*
X105744516Y-95563945D01*
X105710500Y-95778713D01*
X105710500Y-95855191D01*
X105690815Y-95922230D01*
X105638011Y-95967985D01*
X105568853Y-95977929D01*
X105505297Y-95948904D01*
X105498819Y-95942872D01*
X104935673Y-95379726D01*
X104928958Y-95375239D01*
X104829127Y-95308535D01*
X104710744Y-95259499D01*
X104710738Y-95259497D01*
X104585071Y-95234500D01*
X104585069Y-95234500D01*
X103692233Y-95234500D01*
X103625194Y-95214815D01*
X103579439Y-95162011D01*
X103574528Y-95149506D01*
X103569995Y-95135829D01*
X103563314Y-95115666D01*
X103471212Y-94966344D01*
X103347156Y-94842288D01*
X103254388Y-94785069D01*
X103197836Y-94750187D01*
X103197835Y-94750186D01*
X103197834Y-94750186D01*
X103154276Y-94735752D01*
X103081102Y-94711504D01*
X103032426Y-94681479D01*
X102380673Y-94029726D01*
X102307822Y-93981049D01*
X102274127Y-93958535D01*
X102155744Y-93909499D01*
X102155742Y-93909498D01*
X102155735Y-93909496D01*
X102151736Y-93908701D01*
X102151734Y-93908701D01*
X102030071Y-93884500D01*
X102030069Y-93884500D01*
X97194362Y-93884500D01*
X97127323Y-93864815D01*
X97106681Y-93848181D01*
X97094038Y-93835538D01*
X97094034Y-93835535D01*
X96946553Y-93736990D01*
X96946540Y-93736983D01*
X96782667Y-93669106D01*
X96782658Y-93669103D01*
X96608694Y-93634500D01*
X96608691Y-93634500D01*
X96431309Y-93634500D01*
X96431306Y-93634500D01*
X96257341Y-93669103D01*
X96257332Y-93669106D01*
X96093459Y-93736983D01*
X96093446Y-93736990D01*
X95945965Y-93835535D01*
X95945961Y-93835538D01*
X95858181Y-93923319D01*
X95796858Y-93956804D01*
X95727166Y-93951820D01*
X95671233Y-93909948D01*
X95646816Y-93844484D01*
X95646500Y-93835638D01*
X95646500Y-93800557D01*
X95621502Y-93674890D01*
X95621501Y-93674889D01*
X95621501Y-93674885D01*
X95572465Y-93556502D01*
X95560098Y-93537993D01*
X95552398Y-93526468D01*
X95552398Y-93526467D01*
X95501279Y-93449963D01*
X95501273Y-93449955D01*
X93226444Y-91175126D01*
X93220959Y-91171461D01*
X93119898Y-91103935D01*
X93001515Y-91054899D01*
X93001509Y-91054897D01*
X92875842Y-91029900D01*
X92875840Y-91029900D01*
X90951525Y-91029900D01*
X90884486Y-91010215D01*
X90863848Y-90993585D01*
X90550987Y-90680723D01*
X90444445Y-90609535D01*
X90444446Y-90609535D01*
X90444441Y-90609532D01*
X90326065Y-90560500D01*
X90326063Y-90560499D01*
X90326062Y-90560499D01*
X90326060Y-90560498D01*
X90326058Y-90560498D01*
X90322065Y-90559704D01*
X90322065Y-90559703D01*
X90200389Y-90535500D01*
X90200387Y-90535500D01*
X88075069Y-90535500D01*
X86500562Y-90535500D01*
X86433523Y-90515815D01*
X86387768Y-90463011D01*
X86377824Y-90393853D01*
X86406849Y-90330297D01*
X86412881Y-90323819D01*
X86449861Y-90286838D01*
X86449864Y-90286835D01*
X86548413Y-90139347D01*
X86616294Y-89975466D01*
X86617534Y-89969236D01*
X86650899Y-89801495D01*
X86650900Y-89801493D01*
X86650900Y-89618017D01*
X86652792Y-89618017D01*
X86664161Y-89558023D01*
X86712218Y-89507306D01*
X86774549Y-89490499D01*
X87290008Y-89490499D01*
X87290016Y-89490498D01*
X87290019Y-89490498D01*
X87374980Y-89481819D01*
X87392797Y-89479999D01*
X87559334Y-89424814D01*
X87708656Y-89332712D01*
X87832712Y-89208656D01*
X87924814Y-89059334D01*
X87979999Y-88892797D01*
X87990500Y-88790009D01*
X87990500Y-88789986D01*
X88540001Y-88789986D01*
X88550494Y-88892697D01*
X88605641Y-89059119D01*
X88605643Y-89059124D01*
X88697684Y-89208345D01*
X88821654Y-89332315D01*
X88970875Y-89424356D01*
X88970880Y-89424358D01*
X89137302Y-89479505D01*
X89137309Y-89479506D01*
X89240019Y-89489999D01*
X89289999Y-89489998D01*
X89290000Y-89489998D01*
X89290000Y-88515000D01*
X88540001Y-88515000D01*
X88540001Y-88789986D01*
X87990500Y-88789986D01*
X87990499Y-87739992D01*
X87990018Y-87735288D01*
X87979999Y-87637203D01*
X87979998Y-87637200D01*
X87974063Y-87619290D01*
X87924814Y-87470666D01*
X87832712Y-87321344D01*
X87731917Y-87220549D01*
X87698432Y-87159226D01*
X87703416Y-87089534D01*
X87745288Y-87033601D01*
X87810752Y-87009184D01*
X87819598Y-87008868D01*
X88711109Y-87008868D01*
X88778148Y-87028553D01*
G37*
%TD.AperFunction*%
%TA.AperFunction,Conductor*%
G36*
X111576053Y-91256748D02*
G01*
X111622052Y-91309340D01*
X111633496Y-91360877D01*
X111648249Y-95049064D01*
X111628833Y-95116182D01*
X111576212Y-95162147D01*
X111507094Y-95172367D01*
X111443423Y-95143597D01*
X111421147Y-95118449D01*
X111409673Y-95101277D01*
X111357275Y-95022857D01*
X111357272Y-95022854D01*
X110675378Y-94340961D01*
X110641893Y-94279638D01*
X110646877Y-94209947D01*
X110662741Y-94180394D01*
X110755622Y-94052554D01*
X110852095Y-93863217D01*
X110917757Y-93661129D01*
X110917757Y-93661126D01*
X110928231Y-93595000D01*
X110034012Y-93595000D01*
X110066925Y-93537993D01*
X110101000Y-93410826D01*
X110101000Y-93279174D01*
X110066925Y-93152007D01*
X110034012Y-93095000D01*
X110928231Y-93095000D01*
X110917757Y-93028873D01*
X110917757Y-93028870D01*
X110852095Y-92826782D01*
X110755620Y-92637442D01*
X110630727Y-92465540D01*
X110630723Y-92465535D01*
X110480464Y-92315276D01*
X110480459Y-92315272D01*
X110308557Y-92190379D01*
X110119215Y-92093903D01*
X109917124Y-92028241D01*
X109851000Y-92017768D01*
X109851000Y-92911988D01*
X109793993Y-92879075D01*
X109666826Y-92845000D01*
X109535174Y-92845000D01*
X109408007Y-92879075D01*
X109351000Y-92911988D01*
X109351000Y-92017768D01*
X109350999Y-92017768D01*
X109284875Y-92028241D01*
X109082784Y-92093903D01*
X108893442Y-92190379D01*
X108721541Y-92315271D01*
X108607865Y-92428947D01*
X108546542Y-92462431D01*
X108476850Y-92457447D01*
X108420917Y-92415575D01*
X108404002Y-92384598D01*
X108393699Y-92356975D01*
X108356636Y-92257601D01*
X108354797Y-92252671D01*
X108354793Y-92252664D01*
X108268547Y-92137455D01*
X108268544Y-92137452D01*
X108153335Y-92051206D01*
X108153328Y-92051202D01*
X108018482Y-92000908D01*
X108018483Y-92000908D01*
X107958883Y-91994501D01*
X107958881Y-91994500D01*
X107958873Y-91994500D01*
X107958865Y-91994500D01*
X106634500Y-91994500D01*
X106567461Y-91974815D01*
X106521706Y-91922011D01*
X106510500Y-91870500D01*
X106510500Y-91383941D01*
X106530185Y-91316902D01*
X106582989Y-91271147D01*
X106633919Y-91259943D01*
X111508924Y-91237374D01*
X111576053Y-91256748D01*
G37*
%TD.AperFunction*%
%TA.AperFunction,Conductor*%
G36*
X100148411Y-87028553D02*
G01*
X100194166Y-87081357D01*
X100204110Y-87150515D01*
X100175085Y-87214071D01*
X100120376Y-87250573D01*
X100111486Y-87253519D01*
X100102077Y-87256637D01*
X100102066Y-87256642D01*
X99954000Y-87347971D01*
X99953996Y-87347974D01*
X99830974Y-87470996D01*
X99830971Y-87471000D01*
X99739642Y-87619066D01*
X99739637Y-87619077D01*
X99684913Y-87784223D01*
X99674500Y-87886144D01*
X99674500Y-88897855D01*
X99684913Y-88999776D01*
X99739637Y-89164922D01*
X99739642Y-89164933D01*
X99830971Y-89312999D01*
X99830974Y-89313003D01*
X99953996Y-89436025D01*
X99954000Y-89436028D01*
X100102066Y-89527357D01*
X100102069Y-89527358D01*
X100102075Y-89527362D01*
X100267225Y-89582087D01*
X100369152Y-89592500D01*
X100369157Y-89592500D01*
X100955843Y-89592500D01*
X100955848Y-89592500D01*
X101057775Y-89582087D01*
X101222925Y-89527362D01*
X101371003Y-89436026D01*
X101494026Y-89313003D01*
X101494458Y-89312301D01*
X101494881Y-89311921D01*
X101498507Y-89307336D01*
X101499290Y-89307955D01*
X101546402Y-89265575D01*
X101615364Y-89254349D01*
X101679448Y-89282188D01*
X101701342Y-89307455D01*
X101701493Y-89307336D01*
X101704143Y-89310687D01*
X101705540Y-89312299D01*
X101705974Y-89313003D01*
X101828997Y-89436026D01*
X101828999Y-89436027D01*
X101834661Y-89440504D01*
X101833394Y-89442105D01*
X101873316Y-89486480D01*
X101885500Y-89540083D01*
X101885500Y-90913331D01*
X101865815Y-90980370D01*
X101826600Y-91018868D01*
X101804843Y-91032288D01*
X101711181Y-91125951D01*
X101649858Y-91159436D01*
X101580166Y-91154452D01*
X101535819Y-91125951D01*
X101442157Y-91032289D01*
X101442156Y-91032288D01*
X101292834Y-90940186D01*
X101126297Y-90885001D01*
X101126295Y-90885000D01*
X101023510Y-90874500D01*
X100398474Y-90874500D01*
X100395935Y-90874630D01*
X100395395Y-90874500D01*
X100395335Y-90874501D01*
X100395335Y-90874486D01*
X100327983Y-90858372D01*
X100279609Y-90807957D01*
X100275084Y-90798243D01*
X100215251Y-90653794D01*
X100207122Y-90634169D01*
X100207120Y-90634166D01*
X100207118Y-90634162D01*
X100103102Y-90478492D01*
X100103099Y-90478488D01*
X99970711Y-90346100D01*
X99970707Y-90346097D01*
X99815037Y-90242081D01*
X99815028Y-90242076D01*
X99642051Y-90170427D01*
X99642043Y-90170425D01*
X99458420Y-90133900D01*
X99458416Y-90133900D01*
X99271184Y-90133900D01*
X99271179Y-90133900D01*
X99087556Y-90170425D01*
X99087548Y-90170427D01*
X98914571Y-90242076D01*
X98914562Y-90242081D01*
X98758892Y-90346097D01*
X98758888Y-90346100D01*
X98732408Y-90372581D01*
X98671085Y-90406066D01*
X98644727Y-90408900D01*
X98315067Y-90408900D01*
X98184569Y-90434858D01*
X98184559Y-90434861D01*
X98061638Y-90485776D01*
X98061625Y-90485783D01*
X97987218Y-90535501D01*
X97987217Y-90535502D01*
X97950991Y-90559706D01*
X97621696Y-90889001D01*
X97573021Y-90919025D01*
X97509168Y-90940184D01*
X97359842Y-91032289D01*
X97266181Y-91125951D01*
X97204858Y-91159436D01*
X97135166Y-91154452D01*
X97090819Y-91125951D01*
X96997156Y-91032288D01*
X96975400Y-91018868D01*
X96928677Y-90966918D01*
X96916500Y-90913331D01*
X96916500Y-89448391D01*
X96936185Y-89381352D01*
X96952819Y-89360710D01*
X96963264Y-89350265D01*
X97000526Y-89313003D01*
X97001255Y-89311821D01*
X97001966Y-89311181D01*
X97005007Y-89307336D01*
X97005663Y-89307855D01*
X97053201Y-89265097D01*
X97122164Y-89253873D01*
X97186246Y-89281715D01*
X97208261Y-89307123D01*
X97208388Y-89307023D01*
X97210613Y-89309838D01*
X97212333Y-89311822D01*
X97212865Y-89312685D01*
X97212869Y-89312690D01*
X97335808Y-89435629D01*
X97483785Y-89526903D01*
X97483790Y-89526905D01*
X97648826Y-89581592D01*
X97750684Y-89591999D01*
X97750697Y-89592000D01*
X97794000Y-89592000D01*
X98294000Y-89592000D01*
X98337303Y-89592000D01*
X98337315Y-89591999D01*
X98439173Y-89581592D01*
X98604209Y-89526905D01*
X98604214Y-89526903D01*
X98752191Y-89435629D01*
X98875129Y-89312691D01*
X98966403Y-89164714D01*
X98966405Y-89164709D01*
X99021092Y-88999673D01*
X99031499Y-88897815D01*
X99031500Y-88897802D01*
X99031500Y-88642000D01*
X98294000Y-88642000D01*
X98294000Y-89592000D01*
X97794000Y-89592000D01*
X97794000Y-88516000D01*
X97813685Y-88448961D01*
X97866489Y-88403206D01*
X97918000Y-88392000D01*
X98044000Y-88392000D01*
X98044000Y-88266000D01*
X98063685Y-88198961D01*
X98116489Y-88153206D01*
X98168000Y-88142000D01*
X99031500Y-88142000D01*
X99031500Y-87886197D01*
X99031499Y-87886184D01*
X99021092Y-87784326D01*
X98966405Y-87619290D01*
X98966403Y-87619285D01*
X98875129Y-87471308D01*
X98752191Y-87348370D01*
X98604214Y-87257096D01*
X98604211Y-87257095D01*
X98584531Y-87250574D01*
X98527087Y-87210801D01*
X98500264Y-87146285D01*
X98512579Y-87077509D01*
X98560123Y-87026309D01*
X98623536Y-87008868D01*
X100081372Y-87008868D01*
X100148411Y-87028553D01*
G37*
%TD.AperFunction*%
%TD*%
M02*
