M48
; DRILL file {KiCad 9.0.0} date 2025-05-30T17:40:21+0530
; FORMAT={-:-/ absolute / inch / decimal}
; #@! TF.CreationDate,2025-05-30T17:40:21+05:30
; #@! TF.GenerationSoftware,Kicad,Pcbnew,9.0.0
; #@! TF.FileFunction,Plated,1,2,PTH
FMAT,2
INCH
; #@! TA.AperFunction,Plated,PTH,ViaDrill
T1C0.0118
; #@! TA.AperFunction,Plated,PTH,ViaDrill
T2C0.0157
; #@! TA.AperFunction,Plated,PTH,ComponentDrill
T3C0.0394
%
G90
G05
T1
X2.9Y-3.9
X2.92Y-3.82
X3.0834Y-4.01
X3.301Y-3.9284
X3.3015Y-4.0552
X3.309Y-3.767
X3.3215Y-4.0999
X3.355Y-3.81
X3.3628Y-4.1001
X3.376Y-3.532
X3.395Y-3.9
X3.4038Y-4.1055
X3.4154Y-3.7271
X3.425Y-3.935
X3.464Y-3.548
X3.4803Y-3.8583
X3.525Y-3.9035
X3.57Y-3.68
X3.655Y-3.835
X3.66Y-4.0
X3.7085Y-3.715
X3.71Y-4.236
X3.8Y-3.7219
X3.8377Y-3.864
X3.912Y-3.48
X4.0555Y-4.1176
X4.12Y-3.88
T2
X2.845Y-4.1477
X3.3797Y-3.4432
X3.5301Y-3.7242
X3.656Y-3.478
X3.912Y-3.586
X3.916Y-3.622
X3.9374Y-4.1726
X4.0Y-3.92
T3
X2.59Y-3.723
X2.59Y-3.823
X2.82Y-4.476
X2.92Y-4.476
X3.02Y-4.476
X3.12Y-4.476
X3.22Y-4.476
X3.32Y-4.476
X3.42Y-4.476
X3.52Y-4.476
X3.62Y-4.476
X3.8444Y-4.474
X3.9444Y-4.474
X4.0444Y-4.474
X4.1444Y-4.474
X4.215Y-3.675
X4.215Y-3.775
X4.215Y-3.875
X4.315Y-3.675
X4.315Y-3.775
X4.315Y-3.875
X4.315Y-4.025
X4.315Y-4.125
X4.315Y-4.225
X4.315Y-4.325
M30
