%TF.GenerationSoftware,KiCad,Pcbnew,9.0.0*%
%TF.CreationDate,2025-05-30T17:35:02+05:30*%
%TF.ProjectId,MCU datalogger,4d435520-6461-4746-916c-6f676765722e,1*%
%TF.SameCoordinates,Original*%
%TF.FileFunction,Legend,Top*%
%TF.FilePolarity,Positive*%
%FSLAX46Y46*%
G04 Gerber Fmt 4.6, Leading zero omitted, Abs format (unit mm)*
G04 Created by KiCad (PCBNEW 9.0.0) date 2025-05-30 17:35:02*
%MOMM*%
%LPD*%
G01*
G04 APERTURE LIST*
%ADD10C,0.100000*%
%ADD11C,0.050000*%
%ADD12C,0.120000*%
%ADD13C,0.152400*%
%ADD14C,0.254000*%
%ADD15C,0.127000*%
%ADD16C,0.200000*%
G04 APERTURE END LIST*
D10*
X101505292Y-99232993D02*
X101505292Y-98732993D01*
X102029101Y-99185374D02*
X102005292Y-99209184D01*
X102005292Y-99209184D02*
X101933863Y-99232993D01*
X101933863Y-99232993D02*
X101886244Y-99232993D01*
X101886244Y-99232993D02*
X101814816Y-99209184D01*
X101814816Y-99209184D02*
X101767197Y-99161564D01*
X101767197Y-99161564D02*
X101743387Y-99113945D01*
X101743387Y-99113945D02*
X101719578Y-99018707D01*
X101719578Y-99018707D02*
X101719578Y-98947279D01*
X101719578Y-98947279D02*
X101743387Y-98852041D01*
X101743387Y-98852041D02*
X101767197Y-98804422D01*
X101767197Y-98804422D02*
X101814816Y-98756803D01*
X101814816Y-98756803D02*
X101886244Y-98732993D01*
X101886244Y-98732993D02*
X101933863Y-98732993D01*
X101933863Y-98732993D02*
X102005292Y-98756803D01*
X102005292Y-98756803D02*
X102029101Y-98780612D01*
X102219578Y-99209184D02*
X102291006Y-99232993D01*
X102291006Y-99232993D02*
X102410054Y-99232993D01*
X102410054Y-99232993D02*
X102457673Y-99209184D01*
X102457673Y-99209184D02*
X102481482Y-99185374D01*
X102481482Y-99185374D02*
X102505292Y-99137755D01*
X102505292Y-99137755D02*
X102505292Y-99090136D01*
X102505292Y-99090136D02*
X102481482Y-99042517D01*
X102481482Y-99042517D02*
X102457673Y-99018707D01*
X102457673Y-99018707D02*
X102410054Y-98994898D01*
X102410054Y-98994898D02*
X102314816Y-98971088D01*
X102314816Y-98971088D02*
X102267197Y-98947279D01*
X102267197Y-98947279D02*
X102243387Y-98923469D01*
X102243387Y-98923469D02*
X102219578Y-98875850D01*
X102219578Y-98875850D02*
X102219578Y-98828231D01*
X102219578Y-98828231D02*
X102243387Y-98780612D01*
X102243387Y-98780612D02*
X102267197Y-98756803D01*
X102267197Y-98756803D02*
X102314816Y-98732993D01*
X102314816Y-98732993D02*
X102433863Y-98732993D01*
X102433863Y-98732993D02*
X102505292Y-98756803D01*
X102719577Y-99232993D02*
X102719577Y-98732993D01*
X102719577Y-98732993D02*
X102910053Y-98732993D01*
X102910053Y-98732993D02*
X102957672Y-98756803D01*
X102957672Y-98756803D02*
X102981482Y-98780612D01*
X102981482Y-98780612D02*
X103005291Y-98828231D01*
X103005291Y-98828231D02*
X103005291Y-98899660D01*
X103005291Y-98899660D02*
X102981482Y-98947279D01*
X102981482Y-98947279D02*
X102957672Y-98971088D01*
X102957672Y-98971088D02*
X102910053Y-98994898D01*
X102910053Y-98994898D02*
X102719577Y-98994898D01*
X100362436Y-100037965D02*
X100362436Y-99537965D01*
X100362436Y-99537965D02*
X100529103Y-99895108D01*
X100529103Y-99895108D02*
X100695769Y-99537965D01*
X100695769Y-99537965D02*
X100695769Y-100037965D01*
X100933865Y-100037965D02*
X100933865Y-99537965D01*
X101148151Y-100014156D02*
X101219579Y-100037965D01*
X101219579Y-100037965D02*
X101338627Y-100037965D01*
X101338627Y-100037965D02*
X101386246Y-100014156D01*
X101386246Y-100014156D02*
X101410055Y-99990346D01*
X101410055Y-99990346D02*
X101433865Y-99942727D01*
X101433865Y-99942727D02*
X101433865Y-99895108D01*
X101433865Y-99895108D02*
X101410055Y-99847489D01*
X101410055Y-99847489D02*
X101386246Y-99823679D01*
X101386246Y-99823679D02*
X101338627Y-99799870D01*
X101338627Y-99799870D02*
X101243389Y-99776060D01*
X101243389Y-99776060D02*
X101195770Y-99752251D01*
X101195770Y-99752251D02*
X101171960Y-99728441D01*
X101171960Y-99728441D02*
X101148151Y-99680822D01*
X101148151Y-99680822D02*
X101148151Y-99633203D01*
X101148151Y-99633203D02*
X101171960Y-99585584D01*
X101171960Y-99585584D02*
X101195770Y-99561775D01*
X101195770Y-99561775D02*
X101243389Y-99537965D01*
X101243389Y-99537965D02*
X101362436Y-99537965D01*
X101362436Y-99537965D02*
X101433865Y-99561775D01*
X101743388Y-99537965D02*
X101838626Y-99537965D01*
X101838626Y-99537965D02*
X101886245Y-99561775D01*
X101886245Y-99561775D02*
X101933864Y-99609394D01*
X101933864Y-99609394D02*
X101957674Y-99704632D01*
X101957674Y-99704632D02*
X101957674Y-99871298D01*
X101957674Y-99871298D02*
X101933864Y-99966536D01*
X101933864Y-99966536D02*
X101886245Y-100014156D01*
X101886245Y-100014156D02*
X101838626Y-100037965D01*
X101838626Y-100037965D02*
X101743388Y-100037965D01*
X101743388Y-100037965D02*
X101695769Y-100014156D01*
X101695769Y-100014156D02*
X101648150Y-99966536D01*
X101648150Y-99966536D02*
X101624341Y-99871298D01*
X101624341Y-99871298D02*
X101624341Y-99704632D01*
X101624341Y-99704632D02*
X101648150Y-99609394D01*
X101648150Y-99609394D02*
X101695769Y-99561775D01*
X101695769Y-99561775D02*
X101743388Y-99537965D01*
X102671960Y-100204632D02*
X102671960Y-99490346D01*
X102957674Y-99537965D02*
X103124340Y-100037965D01*
X103124340Y-100037965D02*
X103291007Y-99537965D01*
X103671959Y-100014156D02*
X103624340Y-100037965D01*
X103624340Y-100037965D02*
X103529102Y-100037965D01*
X103529102Y-100037965D02*
X103481483Y-100014156D01*
X103481483Y-100014156D02*
X103457673Y-99990346D01*
X103457673Y-99990346D02*
X103433864Y-99942727D01*
X103433864Y-99942727D02*
X103433864Y-99799870D01*
X103433864Y-99799870D02*
X103457673Y-99752251D01*
X103457673Y-99752251D02*
X103481483Y-99728441D01*
X103481483Y-99728441D02*
X103529102Y-99704632D01*
X103529102Y-99704632D02*
X103624340Y-99704632D01*
X103624340Y-99704632D02*
X103671959Y-99728441D01*
X104100530Y-100014156D02*
X104052911Y-100037965D01*
X104052911Y-100037965D02*
X103957673Y-100037965D01*
X103957673Y-100037965D02*
X103910054Y-100014156D01*
X103910054Y-100014156D02*
X103886244Y-99990346D01*
X103886244Y-99990346D02*
X103862435Y-99942727D01*
X103862435Y-99942727D02*
X103862435Y-99799870D01*
X103862435Y-99799870D02*
X103886244Y-99752251D01*
X103886244Y-99752251D02*
X103910054Y-99728441D01*
X103910054Y-99728441D02*
X103957673Y-99704632D01*
X103957673Y-99704632D02*
X104052911Y-99704632D01*
X104052911Y-99704632D02*
X104100530Y-99728441D01*
X100338627Y-100819128D02*
X100410055Y-100842937D01*
X100410055Y-100842937D02*
X100529103Y-100842937D01*
X100529103Y-100842937D02*
X100576722Y-100819128D01*
X100576722Y-100819128D02*
X100600531Y-100795318D01*
X100600531Y-100795318D02*
X100624341Y-100747699D01*
X100624341Y-100747699D02*
X100624341Y-100700080D01*
X100624341Y-100700080D02*
X100600531Y-100652461D01*
X100600531Y-100652461D02*
X100576722Y-100628651D01*
X100576722Y-100628651D02*
X100529103Y-100604842D01*
X100529103Y-100604842D02*
X100433865Y-100581032D01*
X100433865Y-100581032D02*
X100386246Y-100557223D01*
X100386246Y-100557223D02*
X100362436Y-100533413D01*
X100362436Y-100533413D02*
X100338627Y-100485794D01*
X100338627Y-100485794D02*
X100338627Y-100438175D01*
X100338627Y-100438175D02*
X100362436Y-100390556D01*
X100362436Y-100390556D02*
X100386246Y-100366747D01*
X100386246Y-100366747D02*
X100433865Y-100342937D01*
X100433865Y-100342937D02*
X100552912Y-100342937D01*
X100552912Y-100342937D02*
X100624341Y-100366747D01*
X101124340Y-100795318D02*
X101100531Y-100819128D01*
X101100531Y-100819128D02*
X101029102Y-100842937D01*
X101029102Y-100842937D02*
X100981483Y-100842937D01*
X100981483Y-100842937D02*
X100910055Y-100819128D01*
X100910055Y-100819128D02*
X100862436Y-100771508D01*
X100862436Y-100771508D02*
X100838626Y-100723889D01*
X100838626Y-100723889D02*
X100814817Y-100628651D01*
X100814817Y-100628651D02*
X100814817Y-100557223D01*
X100814817Y-100557223D02*
X100838626Y-100461985D01*
X100838626Y-100461985D02*
X100862436Y-100414366D01*
X100862436Y-100414366D02*
X100910055Y-100366747D01*
X100910055Y-100366747D02*
X100981483Y-100342937D01*
X100981483Y-100342937D02*
X101029102Y-100342937D01*
X101029102Y-100342937D02*
X101100531Y-100366747D01*
X101100531Y-100366747D02*
X101124340Y-100390556D01*
X101338626Y-100842937D02*
X101338626Y-100342937D01*
X101624340Y-100842937D02*
X101410055Y-100557223D01*
X101624340Y-100342937D02*
X101338626Y-100628651D01*
X102719578Y-101009604D02*
X102719578Y-100295318D01*
X103076720Y-100842937D02*
X103076720Y-100342937D01*
X103076720Y-100342937D02*
X103243387Y-100700080D01*
X103243387Y-100700080D02*
X103410053Y-100342937D01*
X103410053Y-100342937D02*
X103410053Y-100842937D01*
X103743387Y-100342937D02*
X103838625Y-100342937D01*
X103838625Y-100342937D02*
X103886244Y-100366747D01*
X103886244Y-100366747D02*
X103933863Y-100414366D01*
X103933863Y-100414366D02*
X103957673Y-100509604D01*
X103957673Y-100509604D02*
X103957673Y-100676270D01*
X103957673Y-100676270D02*
X103933863Y-100771508D01*
X103933863Y-100771508D02*
X103886244Y-100819128D01*
X103886244Y-100819128D02*
X103838625Y-100842937D01*
X103838625Y-100842937D02*
X103743387Y-100842937D01*
X103743387Y-100842937D02*
X103695768Y-100819128D01*
X103695768Y-100819128D02*
X103648149Y-100771508D01*
X103648149Y-100771508D02*
X103624340Y-100676270D01*
X103624340Y-100676270D02*
X103624340Y-100509604D01*
X103624340Y-100509604D02*
X103648149Y-100414366D01*
X103648149Y-100414366D02*
X103695768Y-100366747D01*
X103695768Y-100366747D02*
X103743387Y-100342937D01*
X104148150Y-100819128D02*
X104219578Y-100842937D01*
X104219578Y-100842937D02*
X104338626Y-100842937D01*
X104338626Y-100842937D02*
X104386245Y-100819128D01*
X104386245Y-100819128D02*
X104410054Y-100795318D01*
X104410054Y-100795318D02*
X104433864Y-100747699D01*
X104433864Y-100747699D02*
X104433864Y-100700080D01*
X104433864Y-100700080D02*
X104410054Y-100652461D01*
X104410054Y-100652461D02*
X104386245Y-100628651D01*
X104386245Y-100628651D02*
X104338626Y-100604842D01*
X104338626Y-100604842D02*
X104243388Y-100581032D01*
X104243388Y-100581032D02*
X104195769Y-100557223D01*
X104195769Y-100557223D02*
X104171959Y-100533413D01*
X104171959Y-100533413D02*
X104148150Y-100485794D01*
X104148150Y-100485794D02*
X104148150Y-100438175D01*
X104148150Y-100438175D02*
X104171959Y-100390556D01*
X104171959Y-100390556D02*
X104195769Y-100366747D01*
X104195769Y-100366747D02*
X104243388Y-100342937D01*
X104243388Y-100342937D02*
X104362435Y-100342937D01*
X104362435Y-100342937D02*
X104433864Y-100366747D01*
X104648149Y-100842937D02*
X104648149Y-100342937D01*
X100648150Y-101647909D02*
X100481484Y-101409814D01*
X100362436Y-101647909D02*
X100362436Y-101147909D01*
X100362436Y-101147909D02*
X100552912Y-101147909D01*
X100552912Y-101147909D02*
X100600531Y-101171719D01*
X100600531Y-101171719D02*
X100624341Y-101195528D01*
X100624341Y-101195528D02*
X100648150Y-101243147D01*
X100648150Y-101243147D02*
X100648150Y-101314576D01*
X100648150Y-101314576D02*
X100624341Y-101362195D01*
X100624341Y-101362195D02*
X100600531Y-101386004D01*
X100600531Y-101386004D02*
X100552912Y-101409814D01*
X100552912Y-101409814D02*
X100362436Y-101409814D01*
X100862436Y-101386004D02*
X101029103Y-101386004D01*
X101100531Y-101647909D02*
X100862436Y-101647909D01*
X100862436Y-101647909D02*
X100862436Y-101147909D01*
X100862436Y-101147909D02*
X101100531Y-101147909D01*
X101291008Y-101624100D02*
X101362436Y-101647909D01*
X101362436Y-101647909D02*
X101481484Y-101647909D01*
X101481484Y-101647909D02*
X101529103Y-101624100D01*
X101529103Y-101624100D02*
X101552912Y-101600290D01*
X101552912Y-101600290D02*
X101576722Y-101552671D01*
X101576722Y-101552671D02*
X101576722Y-101505052D01*
X101576722Y-101505052D02*
X101552912Y-101457433D01*
X101552912Y-101457433D02*
X101529103Y-101433623D01*
X101529103Y-101433623D02*
X101481484Y-101409814D01*
X101481484Y-101409814D02*
X101386246Y-101386004D01*
X101386246Y-101386004D02*
X101338627Y-101362195D01*
X101338627Y-101362195D02*
X101314817Y-101338385D01*
X101314817Y-101338385D02*
X101291008Y-101290766D01*
X101291008Y-101290766D02*
X101291008Y-101243147D01*
X101291008Y-101243147D02*
X101314817Y-101195528D01*
X101314817Y-101195528D02*
X101338627Y-101171719D01*
X101338627Y-101171719D02*
X101386246Y-101147909D01*
X101386246Y-101147909D02*
X101505293Y-101147909D01*
X101505293Y-101147909D02*
X101576722Y-101171719D01*
X101791007Y-101386004D02*
X101957674Y-101386004D01*
X102029102Y-101647909D02*
X101791007Y-101647909D01*
X101791007Y-101647909D02*
X101791007Y-101147909D01*
X101791007Y-101147909D02*
X102029102Y-101147909D01*
X102171960Y-101147909D02*
X102457674Y-101147909D01*
X102314817Y-101647909D02*
X102314817Y-101147909D01*
X102743388Y-101814576D02*
X102743388Y-101100290D01*
X103362435Y-101171719D02*
X103314816Y-101147909D01*
X103314816Y-101147909D02*
X103243387Y-101147909D01*
X103243387Y-101147909D02*
X103171959Y-101171719D01*
X103171959Y-101171719D02*
X103124340Y-101219338D01*
X103124340Y-101219338D02*
X103100530Y-101266957D01*
X103100530Y-101266957D02*
X103076721Y-101362195D01*
X103076721Y-101362195D02*
X103076721Y-101433623D01*
X103076721Y-101433623D02*
X103100530Y-101528861D01*
X103100530Y-101528861D02*
X103124340Y-101576480D01*
X103124340Y-101576480D02*
X103171959Y-101624100D01*
X103171959Y-101624100D02*
X103243387Y-101647909D01*
X103243387Y-101647909D02*
X103291006Y-101647909D01*
X103291006Y-101647909D02*
X103362435Y-101624100D01*
X103362435Y-101624100D02*
X103386244Y-101600290D01*
X103386244Y-101600290D02*
X103386244Y-101433623D01*
X103386244Y-101433623D02*
X103291006Y-101433623D01*
X103600530Y-101647909D02*
X103600530Y-101147909D01*
X103600530Y-101147909D02*
X103886244Y-101647909D01*
X103886244Y-101647909D02*
X103886244Y-101147909D01*
X104124340Y-101647909D02*
X104124340Y-101147909D01*
X104124340Y-101147909D02*
X104243388Y-101147909D01*
X104243388Y-101147909D02*
X104314816Y-101171719D01*
X104314816Y-101171719D02*
X104362435Y-101219338D01*
X104362435Y-101219338D02*
X104386245Y-101266957D01*
X104386245Y-101266957D02*
X104410054Y-101362195D01*
X104410054Y-101362195D02*
X104410054Y-101433623D01*
X104410054Y-101433623D02*
X104386245Y-101528861D01*
X104386245Y-101528861D02*
X104362435Y-101576480D01*
X104362435Y-101576480D02*
X104314816Y-101624100D01*
X104314816Y-101624100D02*
X104243388Y-101647909D01*
X104243388Y-101647909D02*
X104124340Y-101647909D01*
X105192133Y-93925344D02*
X104492133Y-93925344D01*
X105125466Y-93192011D02*
X105158800Y-93225344D01*
X105158800Y-93225344D02*
X105192133Y-93325344D01*
X105192133Y-93325344D02*
X105192133Y-93392011D01*
X105192133Y-93392011D02*
X105158800Y-93492011D01*
X105158800Y-93492011D02*
X105092133Y-93558678D01*
X105092133Y-93558678D02*
X105025466Y-93592011D01*
X105025466Y-93592011D02*
X104892133Y-93625344D01*
X104892133Y-93625344D02*
X104792133Y-93625344D01*
X104792133Y-93625344D02*
X104658800Y-93592011D01*
X104658800Y-93592011D02*
X104592133Y-93558678D01*
X104592133Y-93558678D02*
X104525466Y-93492011D01*
X104525466Y-93492011D02*
X104492133Y-93392011D01*
X104492133Y-93392011D02*
X104492133Y-93325344D01*
X104492133Y-93325344D02*
X104525466Y-93225344D01*
X104525466Y-93225344D02*
X104558800Y-93192011D01*
X105158800Y-92925344D02*
X105192133Y-92825344D01*
X105192133Y-92825344D02*
X105192133Y-92658678D01*
X105192133Y-92658678D02*
X105158800Y-92592011D01*
X105158800Y-92592011D02*
X105125466Y-92558678D01*
X105125466Y-92558678D02*
X105058800Y-92525344D01*
X105058800Y-92525344D02*
X104992133Y-92525344D01*
X104992133Y-92525344D02*
X104925466Y-92558678D01*
X104925466Y-92558678D02*
X104892133Y-92592011D01*
X104892133Y-92592011D02*
X104858800Y-92658678D01*
X104858800Y-92658678D02*
X104825466Y-92792011D01*
X104825466Y-92792011D02*
X104792133Y-92858678D01*
X104792133Y-92858678D02*
X104758800Y-92892011D01*
X104758800Y-92892011D02*
X104692133Y-92925344D01*
X104692133Y-92925344D02*
X104625466Y-92925344D01*
X104625466Y-92925344D02*
X104558800Y-92892011D01*
X104558800Y-92892011D02*
X104525466Y-92858678D01*
X104525466Y-92858678D02*
X104492133Y-92792011D01*
X104492133Y-92792011D02*
X104492133Y-92625344D01*
X104492133Y-92625344D02*
X104525466Y-92525344D01*
X105192133Y-92225344D02*
X104492133Y-92225344D01*
X104492133Y-92225344D02*
X104492133Y-91958677D01*
X104492133Y-91958677D02*
X104525466Y-91892011D01*
X104525466Y-91892011D02*
X104558800Y-91858677D01*
X104558800Y-91858677D02*
X104625466Y-91825344D01*
X104625466Y-91825344D02*
X104725466Y-91825344D01*
X104725466Y-91825344D02*
X104792133Y-91858677D01*
X104792133Y-91858677D02*
X104825466Y-91892011D01*
X104825466Y-91892011D02*
X104858800Y-91958677D01*
X104858800Y-91958677D02*
X104858800Y-92225344D01*
X68838466Y-114421277D02*
X68805133Y-114487944D01*
X68805133Y-114487944D02*
X68805133Y-114587944D01*
X68805133Y-114587944D02*
X68838466Y-114687944D01*
X68838466Y-114687944D02*
X68905133Y-114754611D01*
X68905133Y-114754611D02*
X68971800Y-114787944D01*
X68971800Y-114787944D02*
X69105133Y-114821277D01*
X69105133Y-114821277D02*
X69205133Y-114821277D01*
X69205133Y-114821277D02*
X69338466Y-114787944D01*
X69338466Y-114787944D02*
X69405133Y-114754611D01*
X69405133Y-114754611D02*
X69471800Y-114687944D01*
X69471800Y-114687944D02*
X69505133Y-114587944D01*
X69505133Y-114587944D02*
X69505133Y-114521277D01*
X69505133Y-114521277D02*
X69471800Y-114421277D01*
X69471800Y-114421277D02*
X69438466Y-114387944D01*
X69438466Y-114387944D02*
X69205133Y-114387944D01*
X69205133Y-114387944D02*
X69205133Y-114521277D01*
X69505133Y-114087944D02*
X68805133Y-114087944D01*
X68805133Y-114087944D02*
X68805133Y-113821277D01*
X68805133Y-113821277D02*
X68838466Y-113754611D01*
X68838466Y-113754611D02*
X68871800Y-113721277D01*
X68871800Y-113721277D02*
X68938466Y-113687944D01*
X68938466Y-113687944D02*
X69038466Y-113687944D01*
X69038466Y-113687944D02*
X69105133Y-113721277D01*
X69105133Y-113721277D02*
X69138466Y-113754611D01*
X69138466Y-113754611D02*
X69171800Y-113821277D01*
X69171800Y-113821277D02*
X69171800Y-114087944D01*
X69505133Y-113387944D02*
X68805133Y-113387944D01*
X68805133Y-112921278D02*
X68805133Y-112787944D01*
X68805133Y-112787944D02*
X68838466Y-112721278D01*
X68838466Y-112721278D02*
X68905133Y-112654611D01*
X68905133Y-112654611D02*
X69038466Y-112621278D01*
X69038466Y-112621278D02*
X69271800Y-112621278D01*
X69271800Y-112621278D02*
X69405133Y-112654611D01*
X69405133Y-112654611D02*
X69471800Y-112721278D01*
X69471800Y-112721278D02*
X69505133Y-112787944D01*
X69505133Y-112787944D02*
X69505133Y-112921278D01*
X69505133Y-112921278D02*
X69471800Y-112987944D01*
X69471800Y-112987944D02*
X69405133Y-113054611D01*
X69405133Y-113054611D02*
X69271800Y-113087944D01*
X69271800Y-113087944D02*
X69038466Y-113087944D01*
X69038466Y-113087944D02*
X68905133Y-113054611D01*
X68905133Y-113054611D02*
X68838466Y-112987944D01*
X68838466Y-112987944D02*
X68805133Y-112921278D01*
X95379800Y-115167677D02*
X95413133Y-115067677D01*
X95413133Y-115067677D02*
X95413133Y-114901011D01*
X95413133Y-114901011D02*
X95379800Y-114834344D01*
X95379800Y-114834344D02*
X95346466Y-114801011D01*
X95346466Y-114801011D02*
X95279800Y-114767677D01*
X95279800Y-114767677D02*
X95213133Y-114767677D01*
X95213133Y-114767677D02*
X95146466Y-114801011D01*
X95146466Y-114801011D02*
X95113133Y-114834344D01*
X95113133Y-114834344D02*
X95079800Y-114901011D01*
X95079800Y-114901011D02*
X95046466Y-115034344D01*
X95046466Y-115034344D02*
X95013133Y-115101011D01*
X95013133Y-115101011D02*
X94979800Y-115134344D01*
X94979800Y-115134344D02*
X94913133Y-115167677D01*
X94913133Y-115167677D02*
X94846466Y-115167677D01*
X94846466Y-115167677D02*
X94779800Y-115134344D01*
X94779800Y-115134344D02*
X94746466Y-115101011D01*
X94746466Y-115101011D02*
X94713133Y-115034344D01*
X94713133Y-115034344D02*
X94713133Y-114867677D01*
X94713133Y-114867677D02*
X94746466Y-114767677D01*
X95046466Y-114467677D02*
X95046466Y-114234344D01*
X95413133Y-114134344D02*
X95413133Y-114467677D01*
X95413133Y-114467677D02*
X94713133Y-114467677D01*
X94713133Y-114467677D02*
X94713133Y-114134344D01*
X95413133Y-113434344D02*
X95079800Y-113667677D01*
X95413133Y-113834344D02*
X94713133Y-113834344D01*
X94713133Y-113834344D02*
X94713133Y-113567677D01*
X94713133Y-113567677D02*
X94746466Y-113501011D01*
X94746466Y-113501011D02*
X94779800Y-113467677D01*
X94779800Y-113467677D02*
X94846466Y-113434344D01*
X94846466Y-113434344D02*
X94946466Y-113434344D01*
X94946466Y-113434344D02*
X95013133Y-113467677D01*
X95013133Y-113467677D02*
X95046466Y-113501011D01*
X95046466Y-113501011D02*
X95079800Y-113567677D01*
X95079800Y-113567677D02*
X95079800Y-113834344D01*
X95413133Y-113134344D02*
X94713133Y-113134344D01*
X95213133Y-112834344D02*
X95213133Y-112501011D01*
X95413133Y-112901011D02*
X94713133Y-112667678D01*
X94713133Y-112667678D02*
X95413133Y-112434344D01*
X95413133Y-111867678D02*
X95413133Y-112201011D01*
X95413133Y-112201011D02*
X94713133Y-112201011D01*
X104677255Y-109611733D02*
X104677255Y-108911733D01*
X104977255Y-108978400D02*
X105010588Y-108945066D01*
X105010588Y-108945066D02*
X105077255Y-108911733D01*
X105077255Y-108911733D02*
X105243922Y-108911733D01*
X105243922Y-108911733D02*
X105310588Y-108945066D01*
X105310588Y-108945066D02*
X105343922Y-108978400D01*
X105343922Y-108978400D02*
X105377255Y-109045066D01*
X105377255Y-109045066D02*
X105377255Y-109111733D01*
X105377255Y-109111733D02*
X105343922Y-109211733D01*
X105343922Y-109211733D02*
X104943922Y-109611733D01*
X104943922Y-109611733D02*
X105377255Y-109611733D01*
X106077255Y-109545066D02*
X106043922Y-109578400D01*
X106043922Y-109578400D02*
X105943922Y-109611733D01*
X105943922Y-109611733D02*
X105877255Y-109611733D01*
X105877255Y-109611733D02*
X105777255Y-109578400D01*
X105777255Y-109578400D02*
X105710589Y-109511733D01*
X105710589Y-109511733D02*
X105677255Y-109445066D01*
X105677255Y-109445066D02*
X105643922Y-109311733D01*
X105643922Y-109311733D02*
X105643922Y-109211733D01*
X105643922Y-109211733D02*
X105677255Y-109078400D01*
X105677255Y-109078400D02*
X105710589Y-109011733D01*
X105710589Y-109011733D02*
X105777255Y-108945066D01*
X105777255Y-108945066D02*
X105877255Y-108911733D01*
X105877255Y-108911733D02*
X105943922Y-108911733D01*
X105943922Y-108911733D02*
X106043922Y-108945066D01*
X106043922Y-108945066D02*
X106077255Y-108978400D01*
X107165400Y-110138477D02*
X107198733Y-110038477D01*
X107198733Y-110038477D02*
X107198733Y-109871811D01*
X107198733Y-109871811D02*
X107165400Y-109805144D01*
X107165400Y-109805144D02*
X107132066Y-109771811D01*
X107132066Y-109771811D02*
X107065400Y-109738477D01*
X107065400Y-109738477D02*
X106998733Y-109738477D01*
X106998733Y-109738477D02*
X106932066Y-109771811D01*
X106932066Y-109771811D02*
X106898733Y-109805144D01*
X106898733Y-109805144D02*
X106865400Y-109871811D01*
X106865400Y-109871811D02*
X106832066Y-110005144D01*
X106832066Y-110005144D02*
X106798733Y-110071811D01*
X106798733Y-110071811D02*
X106765400Y-110105144D01*
X106765400Y-110105144D02*
X106698733Y-110138477D01*
X106698733Y-110138477D02*
X106632066Y-110138477D01*
X106632066Y-110138477D02*
X106565400Y-110105144D01*
X106565400Y-110105144D02*
X106532066Y-110071811D01*
X106532066Y-110071811D02*
X106498733Y-110005144D01*
X106498733Y-110005144D02*
X106498733Y-109838477D01*
X106498733Y-109838477D02*
X106532066Y-109738477D01*
X107132066Y-109038477D02*
X107165400Y-109071810D01*
X107165400Y-109071810D02*
X107198733Y-109171810D01*
X107198733Y-109171810D02*
X107198733Y-109238477D01*
X107198733Y-109238477D02*
X107165400Y-109338477D01*
X107165400Y-109338477D02*
X107098733Y-109405144D01*
X107098733Y-109405144D02*
X107032066Y-109438477D01*
X107032066Y-109438477D02*
X106898733Y-109471810D01*
X106898733Y-109471810D02*
X106798733Y-109471810D01*
X106798733Y-109471810D02*
X106665400Y-109438477D01*
X106665400Y-109438477D02*
X106598733Y-109405144D01*
X106598733Y-109405144D02*
X106532066Y-109338477D01*
X106532066Y-109338477D02*
X106498733Y-109238477D01*
X106498733Y-109238477D02*
X106498733Y-109171810D01*
X106498733Y-109171810D02*
X106532066Y-109071810D01*
X106532066Y-109071810D02*
X106565400Y-109038477D01*
X107198733Y-108738477D02*
X106498733Y-108738477D01*
X107198733Y-108338477D02*
X106798733Y-108638477D01*
X106498733Y-108338477D02*
X106898733Y-108738477D01*
X107165400Y-107700077D02*
X107198733Y-107600077D01*
X107198733Y-107600077D02*
X107198733Y-107433411D01*
X107198733Y-107433411D02*
X107165400Y-107366744D01*
X107165400Y-107366744D02*
X107132066Y-107333411D01*
X107132066Y-107333411D02*
X107065400Y-107300077D01*
X107065400Y-107300077D02*
X106998733Y-107300077D01*
X106998733Y-107300077D02*
X106932066Y-107333411D01*
X106932066Y-107333411D02*
X106898733Y-107366744D01*
X106898733Y-107366744D02*
X106865400Y-107433411D01*
X106865400Y-107433411D02*
X106832066Y-107566744D01*
X106832066Y-107566744D02*
X106798733Y-107633411D01*
X106798733Y-107633411D02*
X106765400Y-107666744D01*
X106765400Y-107666744D02*
X106698733Y-107700077D01*
X106698733Y-107700077D02*
X106632066Y-107700077D01*
X106632066Y-107700077D02*
X106565400Y-107666744D01*
X106565400Y-107666744D02*
X106532066Y-107633411D01*
X106532066Y-107633411D02*
X106498733Y-107566744D01*
X106498733Y-107566744D02*
X106498733Y-107400077D01*
X106498733Y-107400077D02*
X106532066Y-107300077D01*
X107198733Y-107000077D02*
X106498733Y-107000077D01*
X106498733Y-107000077D02*
X106498733Y-106833410D01*
X106498733Y-106833410D02*
X106532066Y-106733410D01*
X106532066Y-106733410D02*
X106598733Y-106666744D01*
X106598733Y-106666744D02*
X106665400Y-106633410D01*
X106665400Y-106633410D02*
X106798733Y-106600077D01*
X106798733Y-106600077D02*
X106898733Y-106600077D01*
X106898733Y-106600077D02*
X107032066Y-106633410D01*
X107032066Y-106633410D02*
X107098733Y-106666744D01*
X107098733Y-106666744D02*
X107165400Y-106733410D01*
X107165400Y-106733410D02*
X107198733Y-106833410D01*
X107198733Y-106833410D02*
X107198733Y-107000077D01*
X106998733Y-106333410D02*
X106998733Y-106000077D01*
X107198733Y-106400077D02*
X106498733Y-106166744D01*
X106498733Y-106166744D02*
X107198733Y-105933410D01*
X106600333Y-104972744D02*
X107300333Y-104739411D01*
X107300333Y-104739411D02*
X106600333Y-104506077D01*
X107267000Y-103972744D02*
X107300333Y-104039411D01*
X107300333Y-104039411D02*
X107300333Y-104172744D01*
X107300333Y-104172744D02*
X107267000Y-104239411D01*
X107267000Y-104239411D02*
X107233666Y-104272744D01*
X107233666Y-104272744D02*
X107167000Y-104306077D01*
X107167000Y-104306077D02*
X106967000Y-104306077D01*
X106967000Y-104306077D02*
X106900333Y-104272744D01*
X106900333Y-104272744D02*
X106867000Y-104239411D01*
X106867000Y-104239411D02*
X106833666Y-104172744D01*
X106833666Y-104172744D02*
X106833666Y-104039411D01*
X106833666Y-104039411D02*
X106867000Y-103972744D01*
X107267000Y-103372744D02*
X107300333Y-103439411D01*
X107300333Y-103439411D02*
X107300333Y-103572744D01*
X107300333Y-103572744D02*
X107267000Y-103639411D01*
X107267000Y-103639411D02*
X107233666Y-103672744D01*
X107233666Y-103672744D02*
X107167000Y-103706077D01*
X107167000Y-103706077D02*
X106967000Y-103706077D01*
X106967000Y-103706077D02*
X106900333Y-103672744D01*
X106900333Y-103672744D02*
X106867000Y-103639411D01*
X106867000Y-103639411D02*
X106833666Y-103572744D01*
X106833666Y-103572744D02*
X106833666Y-103439411D01*
X106833666Y-103439411D02*
X106867000Y-103372744D01*
X106786066Y-102270877D02*
X106752733Y-102337544D01*
X106752733Y-102337544D02*
X106752733Y-102437544D01*
X106752733Y-102437544D02*
X106786066Y-102537544D01*
X106786066Y-102537544D02*
X106852733Y-102604211D01*
X106852733Y-102604211D02*
X106919400Y-102637544D01*
X106919400Y-102637544D02*
X107052733Y-102670877D01*
X107052733Y-102670877D02*
X107152733Y-102670877D01*
X107152733Y-102670877D02*
X107286066Y-102637544D01*
X107286066Y-102637544D02*
X107352733Y-102604211D01*
X107352733Y-102604211D02*
X107419400Y-102537544D01*
X107419400Y-102537544D02*
X107452733Y-102437544D01*
X107452733Y-102437544D02*
X107452733Y-102370877D01*
X107452733Y-102370877D02*
X107419400Y-102270877D01*
X107419400Y-102270877D02*
X107386066Y-102237544D01*
X107386066Y-102237544D02*
X107152733Y-102237544D01*
X107152733Y-102237544D02*
X107152733Y-102370877D01*
X107452733Y-101937544D02*
X106752733Y-101937544D01*
X106752733Y-101937544D02*
X107452733Y-101537544D01*
X107452733Y-101537544D02*
X106752733Y-101537544D01*
X107452733Y-101204211D02*
X106752733Y-101204211D01*
X106752733Y-101204211D02*
X106752733Y-101037544D01*
X106752733Y-101037544D02*
X106786066Y-100937544D01*
X106786066Y-100937544D02*
X106852733Y-100870878D01*
X106852733Y-100870878D02*
X106919400Y-100837544D01*
X106919400Y-100837544D02*
X107052733Y-100804211D01*
X107052733Y-100804211D02*
X107152733Y-100804211D01*
X107152733Y-100804211D02*
X107286066Y-100837544D01*
X107286066Y-100837544D02*
X107352733Y-100870878D01*
X107352733Y-100870878D02*
X107419400Y-100937544D01*
X107419400Y-100937544D02*
X107452733Y-101037544D01*
X107452733Y-101037544D02*
X107452733Y-101204211D01*
X97017522Y-111053266D02*
X96950855Y-111019933D01*
X96950855Y-111019933D02*
X96850855Y-111019933D01*
X96850855Y-111019933D02*
X96750855Y-111053266D01*
X96750855Y-111053266D02*
X96684189Y-111119933D01*
X96684189Y-111119933D02*
X96650855Y-111186600D01*
X96650855Y-111186600D02*
X96617522Y-111319933D01*
X96617522Y-111319933D02*
X96617522Y-111419933D01*
X96617522Y-111419933D02*
X96650855Y-111553266D01*
X96650855Y-111553266D02*
X96684189Y-111619933D01*
X96684189Y-111619933D02*
X96750855Y-111686600D01*
X96750855Y-111686600D02*
X96850855Y-111719933D01*
X96850855Y-111719933D02*
X96917522Y-111719933D01*
X96917522Y-111719933D02*
X97017522Y-111686600D01*
X97017522Y-111686600D02*
X97050855Y-111653266D01*
X97050855Y-111653266D02*
X97050855Y-111419933D01*
X97050855Y-111419933D02*
X96917522Y-111419933D01*
X97350855Y-111719933D02*
X97350855Y-111019933D01*
X97350855Y-111019933D02*
X97750855Y-111719933D01*
X97750855Y-111719933D02*
X97750855Y-111019933D01*
X98084188Y-111719933D02*
X98084188Y-111019933D01*
X98084188Y-111019933D02*
X98250855Y-111019933D01*
X98250855Y-111019933D02*
X98350855Y-111053266D01*
X98350855Y-111053266D02*
X98417522Y-111119933D01*
X98417522Y-111119933D02*
X98450855Y-111186600D01*
X98450855Y-111186600D02*
X98484188Y-111319933D01*
X98484188Y-111319933D02*
X98484188Y-111419933D01*
X98484188Y-111419933D02*
X98450855Y-111553266D01*
X98450855Y-111553266D02*
X98417522Y-111619933D01*
X98417522Y-111619933D02*
X98350855Y-111686600D01*
X98350855Y-111686600D02*
X98250855Y-111719933D01*
X98250855Y-111719933D02*
X98084188Y-111719933D01*
X99243255Y-111019933D02*
X99476589Y-111719933D01*
X99476589Y-111719933D02*
X99709922Y-111019933D01*
X100243255Y-111686600D02*
X100176589Y-111719933D01*
X100176589Y-111719933D02*
X100043255Y-111719933D01*
X100043255Y-111719933D02*
X99976589Y-111686600D01*
X99976589Y-111686600D02*
X99943255Y-111653266D01*
X99943255Y-111653266D02*
X99909922Y-111586600D01*
X99909922Y-111586600D02*
X99909922Y-111386600D01*
X99909922Y-111386600D02*
X99943255Y-111319933D01*
X99943255Y-111319933D02*
X99976589Y-111286600D01*
X99976589Y-111286600D02*
X100043255Y-111253266D01*
X100043255Y-111253266D02*
X100176589Y-111253266D01*
X100176589Y-111253266D02*
X100243255Y-111286600D01*
X100843255Y-111686600D02*
X100776589Y-111719933D01*
X100776589Y-111719933D02*
X100643255Y-111719933D01*
X100643255Y-111719933D02*
X100576589Y-111686600D01*
X100576589Y-111686600D02*
X100543255Y-111653266D01*
X100543255Y-111653266D02*
X100509922Y-111586600D01*
X100509922Y-111586600D02*
X100509922Y-111386600D01*
X100509922Y-111386600D02*
X100543255Y-111319933D01*
X100543255Y-111319933D02*
X100576589Y-111286600D01*
X100576589Y-111286600D02*
X100643255Y-111253266D01*
X100643255Y-111253266D02*
X100776589Y-111253266D01*
X100776589Y-111253266D02*
X100843255Y-111286600D01*
X102750455Y-111675333D02*
X102517122Y-111342000D01*
X102350455Y-111675333D02*
X102350455Y-110975333D01*
X102350455Y-110975333D02*
X102617122Y-110975333D01*
X102617122Y-110975333D02*
X102683789Y-111008666D01*
X102683789Y-111008666D02*
X102717122Y-111042000D01*
X102717122Y-111042000D02*
X102750455Y-111108666D01*
X102750455Y-111108666D02*
X102750455Y-111208666D01*
X102750455Y-111208666D02*
X102717122Y-111275333D01*
X102717122Y-111275333D02*
X102683789Y-111308666D01*
X102683789Y-111308666D02*
X102617122Y-111342000D01*
X102617122Y-111342000D02*
X102350455Y-111342000D01*
X102983789Y-110975333D02*
X103450455Y-111675333D01*
X103450455Y-110975333D02*
X102983789Y-111675333D01*
X104739655Y-110918333D02*
X105139655Y-110918333D01*
X104939655Y-111618333D02*
X104939655Y-110918333D01*
X105306322Y-110918333D02*
X105772988Y-111618333D01*
X105772988Y-110918333D02*
X105306322Y-111618333D01*
X91267655Y-111023033D02*
X91500989Y-111723033D01*
X91500989Y-111723033D02*
X91734322Y-111023033D01*
X92267655Y-111689700D02*
X92200989Y-111723033D01*
X92200989Y-111723033D02*
X92067655Y-111723033D01*
X92067655Y-111723033D02*
X92000989Y-111689700D01*
X92000989Y-111689700D02*
X91967655Y-111656366D01*
X91967655Y-111656366D02*
X91934322Y-111589700D01*
X91934322Y-111589700D02*
X91934322Y-111389700D01*
X91934322Y-111389700D02*
X91967655Y-111323033D01*
X91967655Y-111323033D02*
X92000989Y-111289700D01*
X92000989Y-111289700D02*
X92067655Y-111256366D01*
X92067655Y-111256366D02*
X92200989Y-111256366D01*
X92200989Y-111256366D02*
X92267655Y-111289700D01*
X92867655Y-111689700D02*
X92800989Y-111723033D01*
X92800989Y-111723033D02*
X92667655Y-111723033D01*
X92667655Y-111723033D02*
X92600989Y-111689700D01*
X92600989Y-111689700D02*
X92567655Y-111656366D01*
X92567655Y-111656366D02*
X92534322Y-111589700D01*
X92534322Y-111589700D02*
X92534322Y-111389700D01*
X92534322Y-111389700D02*
X92567655Y-111323033D01*
X92567655Y-111323033D02*
X92600989Y-111289700D01*
X92600989Y-111289700D02*
X92667655Y-111256366D01*
X92667655Y-111256366D02*
X92800989Y-111256366D01*
X92800989Y-111256366D02*
X92867655Y-111289700D01*
X88838722Y-111056366D02*
X88772055Y-111023033D01*
X88772055Y-111023033D02*
X88672055Y-111023033D01*
X88672055Y-111023033D02*
X88572055Y-111056366D01*
X88572055Y-111056366D02*
X88505389Y-111123033D01*
X88505389Y-111123033D02*
X88472055Y-111189700D01*
X88472055Y-111189700D02*
X88438722Y-111323033D01*
X88438722Y-111323033D02*
X88438722Y-111423033D01*
X88438722Y-111423033D02*
X88472055Y-111556366D01*
X88472055Y-111556366D02*
X88505389Y-111623033D01*
X88505389Y-111623033D02*
X88572055Y-111689700D01*
X88572055Y-111689700D02*
X88672055Y-111723033D01*
X88672055Y-111723033D02*
X88738722Y-111723033D01*
X88738722Y-111723033D02*
X88838722Y-111689700D01*
X88838722Y-111689700D02*
X88872055Y-111656366D01*
X88872055Y-111656366D02*
X88872055Y-111423033D01*
X88872055Y-111423033D02*
X88738722Y-111423033D01*
X89172055Y-111723033D02*
X89172055Y-111023033D01*
X89172055Y-111023033D02*
X89572055Y-111723033D01*
X89572055Y-111723033D02*
X89572055Y-111023033D01*
X89905388Y-111723033D02*
X89905388Y-111023033D01*
X89905388Y-111023033D02*
X90072055Y-111023033D01*
X90072055Y-111023033D02*
X90172055Y-111056366D01*
X90172055Y-111056366D02*
X90238722Y-111123033D01*
X90238722Y-111123033D02*
X90272055Y-111189700D01*
X90272055Y-111189700D02*
X90305388Y-111323033D01*
X90305388Y-111323033D02*
X90305388Y-111423033D01*
X90305388Y-111423033D02*
X90272055Y-111556366D01*
X90272055Y-111556366D02*
X90238722Y-111623033D01*
X90238722Y-111623033D02*
X90172055Y-111689700D01*
X90172055Y-111689700D02*
X90072055Y-111723033D01*
X90072055Y-111723033D02*
X89905388Y-111723033D01*
X86794055Y-111373833D02*
X86727389Y-111340500D01*
X86727389Y-111340500D02*
X86694055Y-111307166D01*
X86694055Y-111307166D02*
X86660722Y-111240500D01*
X86660722Y-111240500D02*
X86660722Y-111207166D01*
X86660722Y-111207166D02*
X86694055Y-111140500D01*
X86694055Y-111140500D02*
X86727389Y-111107166D01*
X86727389Y-111107166D02*
X86794055Y-111073833D01*
X86794055Y-111073833D02*
X86927389Y-111073833D01*
X86927389Y-111073833D02*
X86994055Y-111107166D01*
X86994055Y-111107166D02*
X87027389Y-111140500D01*
X87027389Y-111140500D02*
X87060722Y-111207166D01*
X87060722Y-111207166D02*
X87060722Y-111240500D01*
X87060722Y-111240500D02*
X87027389Y-111307166D01*
X87027389Y-111307166D02*
X86994055Y-111340500D01*
X86994055Y-111340500D02*
X86927389Y-111373833D01*
X86927389Y-111373833D02*
X86794055Y-111373833D01*
X86794055Y-111373833D02*
X86727389Y-111407166D01*
X86727389Y-111407166D02*
X86694055Y-111440500D01*
X86694055Y-111440500D02*
X86660722Y-111507166D01*
X86660722Y-111507166D02*
X86660722Y-111640500D01*
X86660722Y-111640500D02*
X86694055Y-111707166D01*
X86694055Y-111707166D02*
X86727389Y-111740500D01*
X86727389Y-111740500D02*
X86794055Y-111773833D01*
X86794055Y-111773833D02*
X86927389Y-111773833D01*
X86927389Y-111773833D02*
X86994055Y-111740500D01*
X86994055Y-111740500D02*
X87027389Y-111707166D01*
X87027389Y-111707166D02*
X87060722Y-111640500D01*
X87060722Y-111640500D02*
X87060722Y-111507166D01*
X87060722Y-111507166D02*
X87027389Y-111440500D01*
X87027389Y-111440500D02*
X86994055Y-111407166D01*
X86994055Y-111407166D02*
X86927389Y-111373833D01*
X84239789Y-111073833D02*
X84706455Y-111073833D01*
X84706455Y-111073833D02*
X84406455Y-111773833D01*
X81964855Y-111048433D02*
X81831522Y-111048433D01*
X81831522Y-111048433D02*
X81764855Y-111081766D01*
X81764855Y-111081766D02*
X81731522Y-111115100D01*
X81731522Y-111115100D02*
X81664855Y-111215100D01*
X81664855Y-111215100D02*
X81631522Y-111348433D01*
X81631522Y-111348433D02*
X81631522Y-111615100D01*
X81631522Y-111615100D02*
X81664855Y-111681766D01*
X81664855Y-111681766D02*
X81698189Y-111715100D01*
X81698189Y-111715100D02*
X81764855Y-111748433D01*
X81764855Y-111748433D02*
X81898189Y-111748433D01*
X81898189Y-111748433D02*
X81964855Y-111715100D01*
X81964855Y-111715100D02*
X81998189Y-111681766D01*
X81998189Y-111681766D02*
X82031522Y-111615100D01*
X82031522Y-111615100D02*
X82031522Y-111448433D01*
X82031522Y-111448433D02*
X81998189Y-111381766D01*
X81998189Y-111381766D02*
X81964855Y-111348433D01*
X81964855Y-111348433D02*
X81898189Y-111315100D01*
X81898189Y-111315100D02*
X81764855Y-111315100D01*
X81764855Y-111315100D02*
X81698189Y-111348433D01*
X81698189Y-111348433D02*
X81664855Y-111381766D01*
X81664855Y-111381766D02*
X81631522Y-111448433D01*
X79559789Y-111048433D02*
X79226455Y-111048433D01*
X79226455Y-111048433D02*
X79193122Y-111381766D01*
X79193122Y-111381766D02*
X79226455Y-111348433D01*
X79226455Y-111348433D02*
X79293122Y-111315100D01*
X79293122Y-111315100D02*
X79459789Y-111315100D01*
X79459789Y-111315100D02*
X79526455Y-111348433D01*
X79526455Y-111348433D02*
X79559789Y-111381766D01*
X79559789Y-111381766D02*
X79593122Y-111448433D01*
X79593122Y-111448433D02*
X79593122Y-111615100D01*
X79593122Y-111615100D02*
X79559789Y-111681766D01*
X79559789Y-111681766D02*
X79526455Y-111715100D01*
X79526455Y-111715100D02*
X79459789Y-111748433D01*
X79459789Y-111748433D02*
X79293122Y-111748433D01*
X79293122Y-111748433D02*
X79226455Y-111715100D01*
X79226455Y-111715100D02*
X79193122Y-111681766D01*
X76808655Y-111281766D02*
X76808655Y-111748433D01*
X76641989Y-111015100D02*
X76475322Y-111515100D01*
X76475322Y-111515100D02*
X76908655Y-111515100D01*
X73876589Y-111073833D02*
X74309922Y-111073833D01*
X74309922Y-111073833D02*
X74076589Y-111340500D01*
X74076589Y-111340500D02*
X74176589Y-111340500D01*
X74176589Y-111340500D02*
X74243255Y-111373833D01*
X74243255Y-111373833D02*
X74276589Y-111407166D01*
X74276589Y-111407166D02*
X74309922Y-111473833D01*
X74309922Y-111473833D02*
X74309922Y-111640500D01*
X74309922Y-111640500D02*
X74276589Y-111707166D01*
X74276589Y-111707166D02*
X74243255Y-111740500D01*
X74243255Y-111740500D02*
X74176589Y-111773833D01*
X74176589Y-111773833D02*
X73976589Y-111773833D01*
X73976589Y-111773833D02*
X73909922Y-111740500D01*
X73909922Y-111740500D02*
X73876589Y-111707166D01*
X71369922Y-111140500D02*
X71403255Y-111107166D01*
X71403255Y-111107166D02*
X71469922Y-111073833D01*
X71469922Y-111073833D02*
X71636589Y-111073833D01*
X71636589Y-111073833D02*
X71703255Y-111107166D01*
X71703255Y-111107166D02*
X71736589Y-111140500D01*
X71736589Y-111140500D02*
X71769922Y-111207166D01*
X71769922Y-111207166D02*
X71769922Y-111273833D01*
X71769922Y-111273833D02*
X71736589Y-111373833D01*
X71736589Y-111373833D02*
X71336589Y-111773833D01*
X71336589Y-111773833D02*
X71769922Y-111773833D01*
X89367533Y-90117166D02*
X89334200Y-90150500D01*
X89334200Y-90150500D02*
X89234200Y-90183833D01*
X89234200Y-90183833D02*
X89167533Y-90183833D01*
X89167533Y-90183833D02*
X89067533Y-90150500D01*
X89067533Y-90150500D02*
X89000867Y-90083833D01*
X89000867Y-90083833D02*
X88967533Y-90017166D01*
X88967533Y-90017166D02*
X88934200Y-89883833D01*
X88934200Y-89883833D02*
X88934200Y-89783833D01*
X88934200Y-89783833D02*
X88967533Y-89650500D01*
X88967533Y-89650500D02*
X89000867Y-89583833D01*
X89000867Y-89583833D02*
X89067533Y-89517166D01*
X89067533Y-89517166D02*
X89167533Y-89483833D01*
X89167533Y-89483833D02*
X89234200Y-89483833D01*
X89234200Y-89483833D02*
X89334200Y-89517166D01*
X89334200Y-89517166D02*
X89367533Y-89550500D01*
X90000867Y-89483833D02*
X89667533Y-89483833D01*
X89667533Y-89483833D02*
X89634200Y-89817166D01*
X89634200Y-89817166D02*
X89667533Y-89783833D01*
X89667533Y-89783833D02*
X89734200Y-89750500D01*
X89734200Y-89750500D02*
X89900867Y-89750500D01*
X89900867Y-89750500D02*
X89967533Y-89783833D01*
X89967533Y-89783833D02*
X90000867Y-89817166D01*
X90000867Y-89817166D02*
X90034200Y-89883833D01*
X90034200Y-89883833D02*
X90034200Y-90050500D01*
X90034200Y-90050500D02*
X90000867Y-90117166D01*
X90000867Y-90117166D02*
X89967533Y-90150500D01*
X89967533Y-90150500D02*
X89900867Y-90183833D01*
X89900867Y-90183833D02*
X89734200Y-90183833D01*
X89734200Y-90183833D02*
X89667533Y-90150500D01*
X89667533Y-90150500D02*
X89634200Y-90117166D01*
X95647733Y-90387033D02*
X95647733Y-89687033D01*
X95647733Y-89687033D02*
X95814400Y-89687033D01*
X95814400Y-89687033D02*
X95914400Y-89720366D01*
X95914400Y-89720366D02*
X95981067Y-89787033D01*
X95981067Y-89787033D02*
X96014400Y-89853700D01*
X96014400Y-89853700D02*
X96047733Y-89987033D01*
X96047733Y-89987033D02*
X96047733Y-90087033D01*
X96047733Y-90087033D02*
X96014400Y-90220366D01*
X96014400Y-90220366D02*
X95981067Y-90287033D01*
X95981067Y-90287033D02*
X95914400Y-90353700D01*
X95914400Y-90353700D02*
X95814400Y-90387033D01*
X95814400Y-90387033D02*
X95647733Y-90387033D01*
X96314400Y-89753700D02*
X96347733Y-89720366D01*
X96347733Y-89720366D02*
X96414400Y-89687033D01*
X96414400Y-89687033D02*
X96581067Y-89687033D01*
X96581067Y-89687033D02*
X96647733Y-89720366D01*
X96647733Y-89720366D02*
X96681067Y-89753700D01*
X96681067Y-89753700D02*
X96714400Y-89820366D01*
X96714400Y-89820366D02*
X96714400Y-89887033D01*
X96714400Y-89887033D02*
X96681067Y-89987033D01*
X96681067Y-89987033D02*
X96281067Y-90387033D01*
X96281067Y-90387033D02*
X96714400Y-90387033D01*
X81889666Y-92100033D02*
X81889666Y-92666700D01*
X81889666Y-92666700D02*
X81923000Y-92733366D01*
X81923000Y-92733366D02*
X81956333Y-92766700D01*
X81956333Y-92766700D02*
X82023000Y-92800033D01*
X82023000Y-92800033D02*
X82156333Y-92800033D01*
X82156333Y-92800033D02*
X82223000Y-92766700D01*
X82223000Y-92766700D02*
X82256333Y-92733366D01*
X82256333Y-92733366D02*
X82289666Y-92666700D01*
X82289666Y-92666700D02*
X82289666Y-92100033D01*
X82922999Y-92333366D02*
X82922999Y-92800033D01*
X82756333Y-92066700D02*
X82589666Y-92566700D01*
X82589666Y-92566700D02*
X83022999Y-92566700D01*
X82414800Y-103420433D02*
X82748133Y-103420433D01*
X82348133Y-103620433D02*
X82581467Y-102920433D01*
X82581467Y-102920433D02*
X82814800Y-103620433D01*
X82948133Y-102920433D02*
X83348133Y-102920433D01*
X83148133Y-103620433D02*
X83148133Y-102920433D01*
X83581466Y-103620433D02*
X83581466Y-102920433D01*
X83581466Y-102920433D02*
X83814800Y-103420433D01*
X83814800Y-103420433D02*
X84048133Y-102920433D01*
X84048133Y-102920433D02*
X84048133Y-103620433D01*
X84381466Y-103253766D02*
X84614800Y-103253766D01*
X84714800Y-103620433D02*
X84381466Y-103620433D01*
X84381466Y-103620433D02*
X84381466Y-102920433D01*
X84381466Y-102920433D02*
X84714800Y-102920433D01*
X85381466Y-102953766D02*
X85314799Y-102920433D01*
X85314799Y-102920433D02*
X85214799Y-102920433D01*
X85214799Y-102920433D02*
X85114799Y-102953766D01*
X85114799Y-102953766D02*
X85048133Y-103020433D01*
X85048133Y-103020433D02*
X85014799Y-103087100D01*
X85014799Y-103087100D02*
X84981466Y-103220433D01*
X84981466Y-103220433D02*
X84981466Y-103320433D01*
X84981466Y-103320433D02*
X85014799Y-103453766D01*
X85014799Y-103453766D02*
X85048133Y-103520433D01*
X85048133Y-103520433D02*
X85114799Y-103587100D01*
X85114799Y-103587100D02*
X85214799Y-103620433D01*
X85214799Y-103620433D02*
X85281466Y-103620433D01*
X85281466Y-103620433D02*
X85381466Y-103587100D01*
X85381466Y-103587100D02*
X85414799Y-103553766D01*
X85414799Y-103553766D02*
X85414799Y-103320433D01*
X85414799Y-103320433D02*
X85281466Y-103320433D01*
X85681466Y-103420433D02*
X86014799Y-103420433D01*
X85614799Y-103620433D02*
X85848133Y-102920433D01*
X85848133Y-102920433D02*
X86081466Y-103620433D01*
X86248133Y-102920433D02*
X86681466Y-102920433D01*
X86681466Y-102920433D02*
X86448133Y-103187100D01*
X86448133Y-103187100D02*
X86548133Y-103187100D01*
X86548133Y-103187100D02*
X86614799Y-103220433D01*
X86614799Y-103220433D02*
X86648133Y-103253766D01*
X86648133Y-103253766D02*
X86681466Y-103320433D01*
X86681466Y-103320433D02*
X86681466Y-103487100D01*
X86681466Y-103487100D02*
X86648133Y-103553766D01*
X86648133Y-103553766D02*
X86614799Y-103587100D01*
X86614799Y-103587100D02*
X86548133Y-103620433D01*
X86548133Y-103620433D02*
X86348133Y-103620433D01*
X86348133Y-103620433D02*
X86281466Y-103587100D01*
X86281466Y-103587100D02*
X86248133Y-103553766D01*
X86948133Y-102987100D02*
X86981466Y-102953766D01*
X86981466Y-102953766D02*
X87048133Y-102920433D01*
X87048133Y-102920433D02*
X87214800Y-102920433D01*
X87214800Y-102920433D02*
X87281466Y-102953766D01*
X87281466Y-102953766D02*
X87314800Y-102987100D01*
X87314800Y-102987100D02*
X87348133Y-103053766D01*
X87348133Y-103053766D02*
X87348133Y-103120433D01*
X87348133Y-103120433D02*
X87314800Y-103220433D01*
X87314800Y-103220433D02*
X86914800Y-103620433D01*
X86914800Y-103620433D02*
X87348133Y-103620433D01*
X87748133Y-103220433D02*
X87681467Y-103187100D01*
X87681467Y-103187100D02*
X87648133Y-103153766D01*
X87648133Y-103153766D02*
X87614800Y-103087100D01*
X87614800Y-103087100D02*
X87614800Y-103053766D01*
X87614800Y-103053766D02*
X87648133Y-102987100D01*
X87648133Y-102987100D02*
X87681467Y-102953766D01*
X87681467Y-102953766D02*
X87748133Y-102920433D01*
X87748133Y-102920433D02*
X87881467Y-102920433D01*
X87881467Y-102920433D02*
X87948133Y-102953766D01*
X87948133Y-102953766D02*
X87981467Y-102987100D01*
X87981467Y-102987100D02*
X88014800Y-103053766D01*
X88014800Y-103053766D02*
X88014800Y-103087100D01*
X88014800Y-103087100D02*
X87981467Y-103153766D01*
X87981467Y-103153766D02*
X87948133Y-103187100D01*
X87948133Y-103187100D02*
X87881467Y-103220433D01*
X87881467Y-103220433D02*
X87748133Y-103220433D01*
X87748133Y-103220433D02*
X87681467Y-103253766D01*
X87681467Y-103253766D02*
X87648133Y-103287100D01*
X87648133Y-103287100D02*
X87614800Y-103353766D01*
X87614800Y-103353766D02*
X87614800Y-103487100D01*
X87614800Y-103487100D02*
X87648133Y-103553766D01*
X87648133Y-103553766D02*
X87681467Y-103587100D01*
X87681467Y-103587100D02*
X87748133Y-103620433D01*
X87748133Y-103620433D02*
X87881467Y-103620433D01*
X87881467Y-103620433D02*
X87948133Y-103587100D01*
X87948133Y-103587100D02*
X87981467Y-103553766D01*
X87981467Y-103553766D02*
X88014800Y-103487100D01*
X88014800Y-103487100D02*
X88014800Y-103353766D01*
X88014800Y-103353766D02*
X87981467Y-103287100D01*
X87981467Y-103287100D02*
X87948133Y-103253766D01*
X87948133Y-103253766D02*
X87881467Y-103220433D01*
X88314800Y-103620433D02*
X88314800Y-102920433D01*
X88314800Y-102920433D02*
X88581467Y-102920433D01*
X88581467Y-102920433D02*
X88648134Y-102953766D01*
X88648134Y-102953766D02*
X88681467Y-102987100D01*
X88681467Y-102987100D02*
X88714800Y-103053766D01*
X88714800Y-103053766D02*
X88714800Y-103153766D01*
X88714800Y-103153766D02*
X88681467Y-103220433D01*
X88681467Y-103220433D02*
X88648134Y-103253766D01*
X88648134Y-103253766D02*
X88581467Y-103287100D01*
X88581467Y-103287100D02*
X88314800Y-103287100D01*
X89014800Y-103353766D02*
X89548134Y-103353766D01*
X89848134Y-103420433D02*
X90181467Y-103420433D01*
X89781467Y-103620433D02*
X90014801Y-102920433D01*
X90014801Y-102920433D02*
X90248134Y-103620433D01*
X90481467Y-102920433D02*
X90481467Y-103487100D01*
X90481467Y-103487100D02*
X90514801Y-103553766D01*
X90514801Y-103553766D02*
X90548134Y-103587100D01*
X90548134Y-103587100D02*
X90614801Y-103620433D01*
X90614801Y-103620433D02*
X90748134Y-103620433D01*
X90748134Y-103620433D02*
X90814801Y-103587100D01*
X90814801Y-103587100D02*
X90848134Y-103553766D01*
X90848134Y-103553766D02*
X90881467Y-103487100D01*
X90881467Y-103487100D02*
X90881467Y-102920433D01*
X64411267Y-99604100D02*
X64411267Y-99937433D01*
X64177933Y-99237433D02*
X64411267Y-99604100D01*
X64411267Y-99604100D02*
X64644600Y-99237433D01*
X64844600Y-99304100D02*
X64877933Y-99270766D01*
X64877933Y-99270766D02*
X64944600Y-99237433D01*
X64944600Y-99237433D02*
X65111267Y-99237433D01*
X65111267Y-99237433D02*
X65177933Y-99270766D01*
X65177933Y-99270766D02*
X65211267Y-99304100D01*
X65211267Y-99304100D02*
X65244600Y-99370766D01*
X65244600Y-99370766D02*
X65244600Y-99437433D01*
X65244600Y-99437433D02*
X65211267Y-99537433D01*
X65211267Y-99537433D02*
X64811267Y-99937433D01*
X64811267Y-99937433D02*
X65244600Y-99937433D01*
D11*
X64401914Y-109586647D02*
X64649533Y-109586647D01*
X64649533Y-109586647D02*
X64516200Y-109739028D01*
X64516200Y-109739028D02*
X64573343Y-109739028D01*
X64573343Y-109739028D02*
X64611438Y-109758076D01*
X64611438Y-109758076D02*
X64630486Y-109777123D01*
X64630486Y-109777123D02*
X64649533Y-109815219D01*
X64649533Y-109815219D02*
X64649533Y-109910457D01*
X64649533Y-109910457D02*
X64630486Y-109948552D01*
X64630486Y-109948552D02*
X64611438Y-109967600D01*
X64611438Y-109967600D02*
X64573343Y-109986647D01*
X64573343Y-109986647D02*
X64459057Y-109986647D01*
X64459057Y-109986647D02*
X64420962Y-109967600D01*
X64420962Y-109967600D02*
X64401914Y-109948552D01*
X64801914Y-109624742D02*
X64820962Y-109605695D01*
X64820962Y-109605695D02*
X64859057Y-109586647D01*
X64859057Y-109586647D02*
X64954295Y-109586647D01*
X64954295Y-109586647D02*
X64992390Y-109605695D01*
X64992390Y-109605695D02*
X65011438Y-109624742D01*
X65011438Y-109624742D02*
X65030485Y-109662838D01*
X65030485Y-109662838D02*
X65030485Y-109700933D01*
X65030485Y-109700933D02*
X65011438Y-109758076D01*
X65011438Y-109758076D02*
X64782866Y-109986647D01*
X64782866Y-109986647D02*
X65030485Y-109986647D01*
X65201914Y-109948552D02*
X65220961Y-109967600D01*
X65220961Y-109967600D02*
X65201914Y-109986647D01*
X65201914Y-109986647D02*
X65182866Y-109967600D01*
X65182866Y-109967600D02*
X65201914Y-109948552D01*
X65201914Y-109948552D02*
X65201914Y-109986647D01*
X65354294Y-109586647D02*
X65620961Y-109586647D01*
X65620961Y-109586647D02*
X65449532Y-109986647D01*
X65944770Y-109586647D02*
X65868580Y-109586647D01*
X65868580Y-109586647D02*
X65830484Y-109605695D01*
X65830484Y-109605695D02*
X65811437Y-109624742D01*
X65811437Y-109624742D02*
X65773342Y-109681885D01*
X65773342Y-109681885D02*
X65754294Y-109758076D01*
X65754294Y-109758076D02*
X65754294Y-109910457D01*
X65754294Y-109910457D02*
X65773342Y-109948552D01*
X65773342Y-109948552D02*
X65792389Y-109967600D01*
X65792389Y-109967600D02*
X65830484Y-109986647D01*
X65830484Y-109986647D02*
X65906675Y-109986647D01*
X65906675Y-109986647D02*
X65944770Y-109967600D01*
X65944770Y-109967600D02*
X65963818Y-109948552D01*
X65963818Y-109948552D02*
X65982865Y-109910457D01*
X65982865Y-109910457D02*
X65982865Y-109815219D01*
X65982865Y-109815219D02*
X65963818Y-109777123D01*
X65963818Y-109777123D02*
X65944770Y-109758076D01*
X65944770Y-109758076D02*
X65906675Y-109739028D01*
X65906675Y-109739028D02*
X65830484Y-109739028D01*
X65830484Y-109739028D02*
X65792389Y-109758076D01*
X65792389Y-109758076D02*
X65773342Y-109777123D01*
X65773342Y-109777123D02*
X65754294Y-109815219D01*
X66211436Y-109758076D02*
X66173341Y-109739028D01*
X66173341Y-109739028D02*
X66154294Y-109719980D01*
X66154294Y-109719980D02*
X66135246Y-109681885D01*
X66135246Y-109681885D02*
X66135246Y-109662838D01*
X66135246Y-109662838D02*
X66154294Y-109624742D01*
X66154294Y-109624742D02*
X66173341Y-109605695D01*
X66173341Y-109605695D02*
X66211436Y-109586647D01*
X66211436Y-109586647D02*
X66287627Y-109586647D01*
X66287627Y-109586647D02*
X66325722Y-109605695D01*
X66325722Y-109605695D02*
X66344770Y-109624742D01*
X66344770Y-109624742D02*
X66363817Y-109662838D01*
X66363817Y-109662838D02*
X66363817Y-109681885D01*
X66363817Y-109681885D02*
X66344770Y-109719980D01*
X66344770Y-109719980D02*
X66325722Y-109739028D01*
X66325722Y-109739028D02*
X66287627Y-109758076D01*
X66287627Y-109758076D02*
X66211436Y-109758076D01*
X66211436Y-109758076D02*
X66173341Y-109777123D01*
X66173341Y-109777123D02*
X66154294Y-109796171D01*
X66154294Y-109796171D02*
X66135246Y-109834266D01*
X66135246Y-109834266D02*
X66135246Y-109910457D01*
X66135246Y-109910457D02*
X66154294Y-109948552D01*
X66154294Y-109948552D02*
X66173341Y-109967600D01*
X66173341Y-109967600D02*
X66211436Y-109986647D01*
X66211436Y-109986647D02*
X66287627Y-109986647D01*
X66287627Y-109986647D02*
X66325722Y-109967600D01*
X66325722Y-109967600D02*
X66344770Y-109948552D01*
X66344770Y-109948552D02*
X66363817Y-109910457D01*
X66363817Y-109910457D02*
X66363817Y-109834266D01*
X66363817Y-109834266D02*
X66344770Y-109796171D01*
X66344770Y-109796171D02*
X66325722Y-109777123D01*
X66325722Y-109777123D02*
X66287627Y-109758076D01*
X66840008Y-109986647D02*
X66840008Y-109586647D01*
X67068579Y-109986647D02*
X66897150Y-109758076D01*
X67068579Y-109586647D02*
X66840008Y-109815219D01*
X67240008Y-109986647D02*
X67240008Y-109586647D01*
X67240008Y-109777123D02*
X67468579Y-109777123D01*
X67468579Y-109986647D02*
X67468579Y-109586647D01*
X67620960Y-109719980D02*
X67830484Y-109719980D01*
X67830484Y-109719980D02*
X67620960Y-109986647D01*
X67620960Y-109986647D02*
X67830484Y-109986647D01*
D10*
X85569467Y-109510100D02*
X85569467Y-109843433D01*
X85336133Y-109143433D02*
X85569467Y-109510100D01*
X85569467Y-109510100D02*
X85802800Y-109143433D01*
X86402800Y-109843433D02*
X86002800Y-109843433D01*
X86202800Y-109843433D02*
X86202800Y-109143433D01*
X86202800Y-109143433D02*
X86136133Y-109243433D01*
X86136133Y-109243433D02*
X86069467Y-109310100D01*
X86069467Y-109310100D02*
X86002800Y-109343433D01*
D11*
X88858828Y-109580247D02*
X88630257Y-109580247D01*
X88744543Y-109580247D02*
X88744543Y-109180247D01*
X88744543Y-109180247D02*
X88706447Y-109237390D01*
X88706447Y-109237390D02*
X88668352Y-109275485D01*
X88668352Y-109275485D02*
X88630257Y-109294533D01*
X89201685Y-109180247D02*
X89125495Y-109180247D01*
X89125495Y-109180247D02*
X89087399Y-109199295D01*
X89087399Y-109199295D02*
X89068352Y-109218342D01*
X89068352Y-109218342D02*
X89030257Y-109275485D01*
X89030257Y-109275485D02*
X89011209Y-109351676D01*
X89011209Y-109351676D02*
X89011209Y-109504057D01*
X89011209Y-109504057D02*
X89030257Y-109542152D01*
X89030257Y-109542152D02*
X89049304Y-109561200D01*
X89049304Y-109561200D02*
X89087399Y-109580247D01*
X89087399Y-109580247D02*
X89163590Y-109580247D01*
X89163590Y-109580247D02*
X89201685Y-109561200D01*
X89201685Y-109561200D02*
X89220733Y-109542152D01*
X89220733Y-109542152D02*
X89239780Y-109504057D01*
X89239780Y-109504057D02*
X89239780Y-109408819D01*
X89239780Y-109408819D02*
X89220733Y-109370723D01*
X89220733Y-109370723D02*
X89201685Y-109351676D01*
X89201685Y-109351676D02*
X89163590Y-109332628D01*
X89163590Y-109332628D02*
X89087399Y-109332628D01*
X89087399Y-109332628D02*
X89049304Y-109351676D01*
X89049304Y-109351676D02*
X89030257Y-109370723D01*
X89030257Y-109370723D02*
X89011209Y-109408819D01*
X89715971Y-109580247D02*
X89715971Y-109180247D01*
X89715971Y-109180247D02*
X89849304Y-109465961D01*
X89849304Y-109465961D02*
X89982637Y-109180247D01*
X89982637Y-109180247D02*
X89982637Y-109580247D01*
X90173114Y-109580247D02*
X90173114Y-109180247D01*
X90173114Y-109370723D02*
X90401685Y-109370723D01*
X90401685Y-109580247D02*
X90401685Y-109180247D01*
X90554066Y-109313580D02*
X90763590Y-109313580D01*
X90763590Y-109313580D02*
X90554066Y-109580247D01*
X90554066Y-109580247D02*
X90763590Y-109580247D01*
D10*
X70241333Y-108243233D02*
X70008000Y-107909900D01*
X69841333Y-108243233D02*
X69841333Y-107543233D01*
X69841333Y-107543233D02*
X70108000Y-107543233D01*
X70108000Y-107543233D02*
X70174667Y-107576566D01*
X70174667Y-107576566D02*
X70208000Y-107609900D01*
X70208000Y-107609900D02*
X70241333Y-107676566D01*
X70241333Y-107676566D02*
X70241333Y-107776566D01*
X70241333Y-107776566D02*
X70208000Y-107843233D01*
X70208000Y-107843233D02*
X70174667Y-107876566D01*
X70174667Y-107876566D02*
X70108000Y-107909900D01*
X70108000Y-107909900D02*
X69841333Y-107909900D01*
X70908000Y-108243233D02*
X70508000Y-108243233D01*
X70708000Y-108243233D02*
X70708000Y-107543233D01*
X70708000Y-107543233D02*
X70641333Y-107643233D01*
X70641333Y-107643233D02*
X70574667Y-107709900D01*
X70574667Y-107709900D02*
X70508000Y-107743233D01*
X96215333Y-109497366D02*
X96182000Y-109530700D01*
X96182000Y-109530700D02*
X96082000Y-109564033D01*
X96082000Y-109564033D02*
X96015333Y-109564033D01*
X96015333Y-109564033D02*
X95915333Y-109530700D01*
X95915333Y-109530700D02*
X95848667Y-109464033D01*
X95848667Y-109464033D02*
X95815333Y-109397366D01*
X95815333Y-109397366D02*
X95782000Y-109264033D01*
X95782000Y-109264033D02*
X95782000Y-109164033D01*
X95782000Y-109164033D02*
X95815333Y-109030700D01*
X95815333Y-109030700D02*
X95848667Y-108964033D01*
X95848667Y-108964033D02*
X95915333Y-108897366D01*
X95915333Y-108897366D02*
X96015333Y-108864033D01*
X96015333Y-108864033D02*
X96082000Y-108864033D01*
X96082000Y-108864033D02*
X96182000Y-108897366D01*
X96182000Y-108897366D02*
X96215333Y-108930700D01*
X96815333Y-109097366D02*
X96815333Y-109564033D01*
X96648667Y-108830700D02*
X96482000Y-109330700D01*
X96482000Y-109330700D02*
X96915333Y-109330700D01*
X96022333Y-97854633D02*
X95789000Y-97521300D01*
X95622333Y-97854633D02*
X95622333Y-97154633D01*
X95622333Y-97154633D02*
X95889000Y-97154633D01*
X95889000Y-97154633D02*
X95955667Y-97187966D01*
X95955667Y-97187966D02*
X95989000Y-97221300D01*
X95989000Y-97221300D02*
X96022333Y-97287966D01*
X96022333Y-97287966D02*
X96022333Y-97387966D01*
X96022333Y-97387966D02*
X95989000Y-97454633D01*
X95989000Y-97454633D02*
X95955667Y-97487966D01*
X95955667Y-97487966D02*
X95889000Y-97521300D01*
X95889000Y-97521300D02*
X95622333Y-97521300D01*
X96622333Y-97387966D02*
X96622333Y-97854633D01*
X96455667Y-97121300D02*
X96289000Y-97621300D01*
X96289000Y-97621300D02*
X96722333Y-97621300D01*
X96149333Y-101663633D02*
X95916000Y-101330300D01*
X95749333Y-101663633D02*
X95749333Y-100963633D01*
X95749333Y-100963633D02*
X96016000Y-100963633D01*
X96016000Y-100963633D02*
X96082667Y-100996966D01*
X96082667Y-100996966D02*
X96116000Y-101030300D01*
X96116000Y-101030300D02*
X96149333Y-101096966D01*
X96149333Y-101096966D02*
X96149333Y-101196966D01*
X96149333Y-101196966D02*
X96116000Y-101263633D01*
X96116000Y-101263633D02*
X96082667Y-101296966D01*
X96082667Y-101296966D02*
X96016000Y-101330300D01*
X96016000Y-101330300D02*
X95749333Y-101330300D01*
X96382667Y-100963633D02*
X96816000Y-100963633D01*
X96816000Y-100963633D02*
X96582667Y-101230300D01*
X96582667Y-101230300D02*
X96682667Y-101230300D01*
X96682667Y-101230300D02*
X96749333Y-101263633D01*
X96749333Y-101263633D02*
X96782667Y-101296966D01*
X96782667Y-101296966D02*
X96816000Y-101363633D01*
X96816000Y-101363633D02*
X96816000Y-101530300D01*
X96816000Y-101530300D02*
X96782667Y-101596966D01*
X96782667Y-101596966D02*
X96749333Y-101630300D01*
X96749333Y-101630300D02*
X96682667Y-101663633D01*
X96682667Y-101663633D02*
X96482667Y-101663633D01*
X96482667Y-101663633D02*
X96416000Y-101630300D01*
X96416000Y-101630300D02*
X96382667Y-101596966D01*
X106654233Y-111434533D02*
X107154233Y-111434533D01*
X107154233Y-111434533D02*
X107254233Y-111467866D01*
X107254233Y-111467866D02*
X107320900Y-111534533D01*
X107320900Y-111534533D02*
X107354233Y-111634533D01*
X107354233Y-111634533D02*
X107354233Y-111701200D01*
X107354233Y-110734533D02*
X107354233Y-111134533D01*
X107354233Y-110934533D02*
X106654233Y-110934533D01*
X106654233Y-110934533D02*
X106754233Y-111001200D01*
X106754233Y-111001200D02*
X106820900Y-111067867D01*
X106820900Y-111067867D02*
X106854233Y-111134533D01*
X104393633Y-95203933D02*
X104893633Y-95203933D01*
X104893633Y-95203933D02*
X104993633Y-95237266D01*
X104993633Y-95237266D02*
X105060300Y-95303933D01*
X105060300Y-95303933D02*
X105093633Y-95403933D01*
X105093633Y-95403933D02*
X105093633Y-95470600D01*
X104626966Y-94570600D02*
X105093633Y-94570600D01*
X104360300Y-94737267D02*
X104860300Y-94903933D01*
X104860300Y-94903933D02*
X104860300Y-94470600D01*
X80274333Y-90244166D02*
X80241000Y-90277500D01*
X80241000Y-90277500D02*
X80141000Y-90310833D01*
X80141000Y-90310833D02*
X80074333Y-90310833D01*
X80074333Y-90310833D02*
X79974333Y-90277500D01*
X79974333Y-90277500D02*
X79907667Y-90210833D01*
X79907667Y-90210833D02*
X79874333Y-90144166D01*
X79874333Y-90144166D02*
X79841000Y-90010833D01*
X79841000Y-90010833D02*
X79841000Y-89910833D01*
X79841000Y-89910833D02*
X79874333Y-89777500D01*
X79874333Y-89777500D02*
X79907667Y-89710833D01*
X79907667Y-89710833D02*
X79974333Y-89644166D01*
X79974333Y-89644166D02*
X80074333Y-89610833D01*
X80074333Y-89610833D02*
X80141000Y-89610833D01*
X80141000Y-89610833D02*
X80241000Y-89644166D01*
X80241000Y-89644166D02*
X80274333Y-89677500D01*
X80941000Y-90310833D02*
X80541000Y-90310833D01*
X80741000Y-90310833D02*
X80741000Y-89610833D01*
X80741000Y-89610833D02*
X80674333Y-89710833D01*
X80674333Y-89710833D02*
X80607667Y-89777500D01*
X80607667Y-89777500D02*
X80541000Y-89810833D01*
X100365733Y-93892233D02*
X100132400Y-93558900D01*
X99965733Y-93892233D02*
X99965733Y-93192233D01*
X99965733Y-93192233D02*
X100232400Y-93192233D01*
X100232400Y-93192233D02*
X100299067Y-93225566D01*
X100299067Y-93225566D02*
X100332400Y-93258900D01*
X100332400Y-93258900D02*
X100365733Y-93325566D01*
X100365733Y-93325566D02*
X100365733Y-93425566D01*
X100365733Y-93425566D02*
X100332400Y-93492233D01*
X100332400Y-93492233D02*
X100299067Y-93525566D01*
X100299067Y-93525566D02*
X100232400Y-93558900D01*
X100232400Y-93558900D02*
X99965733Y-93558900D01*
X100999067Y-93192233D02*
X100665733Y-93192233D01*
X100665733Y-93192233D02*
X100632400Y-93525566D01*
X100632400Y-93525566D02*
X100665733Y-93492233D01*
X100665733Y-93492233D02*
X100732400Y-93458900D01*
X100732400Y-93458900D02*
X100899067Y-93458900D01*
X100899067Y-93458900D02*
X100965733Y-93492233D01*
X100965733Y-93492233D02*
X100999067Y-93525566D01*
X100999067Y-93525566D02*
X101032400Y-93592233D01*
X101032400Y-93592233D02*
X101032400Y-93758900D01*
X101032400Y-93758900D02*
X100999067Y-93825566D01*
X100999067Y-93825566D02*
X100965733Y-93858900D01*
X100965733Y-93858900D02*
X100899067Y-93892233D01*
X100899067Y-93892233D02*
X100732400Y-93892233D01*
X100732400Y-93892233D02*
X100665733Y-93858900D01*
X100665733Y-93858900D02*
X100632400Y-93825566D01*
X100016533Y-90437833D02*
X100016533Y-89737833D01*
X100016533Y-89737833D02*
X100183200Y-89737833D01*
X100183200Y-89737833D02*
X100283200Y-89771166D01*
X100283200Y-89771166D02*
X100349867Y-89837833D01*
X100349867Y-89837833D02*
X100383200Y-89904500D01*
X100383200Y-89904500D02*
X100416533Y-90037833D01*
X100416533Y-90037833D02*
X100416533Y-90137833D01*
X100416533Y-90137833D02*
X100383200Y-90271166D01*
X100383200Y-90271166D02*
X100349867Y-90337833D01*
X100349867Y-90337833D02*
X100283200Y-90404500D01*
X100283200Y-90404500D02*
X100183200Y-90437833D01*
X100183200Y-90437833D02*
X100016533Y-90437833D01*
X101083200Y-90437833D02*
X100683200Y-90437833D01*
X100883200Y-90437833D02*
X100883200Y-89737833D01*
X100883200Y-89737833D02*
X100816533Y-89837833D01*
X100816533Y-89837833D02*
X100749867Y-89904500D01*
X100749867Y-89904500D02*
X100683200Y-89937833D01*
X95321466Y-111023033D02*
X95321466Y-111523033D01*
X95321466Y-111523033D02*
X95288133Y-111623033D01*
X95288133Y-111623033D02*
X95221466Y-111689700D01*
X95221466Y-111689700D02*
X95121466Y-111723033D01*
X95121466Y-111723033D02*
X95054800Y-111723033D01*
X95621466Y-111089700D02*
X95654799Y-111056366D01*
X95654799Y-111056366D02*
X95721466Y-111023033D01*
X95721466Y-111023033D02*
X95888133Y-111023033D01*
X95888133Y-111023033D02*
X95954799Y-111056366D01*
X95954799Y-111056366D02*
X95988133Y-111089700D01*
X95988133Y-111089700D02*
X96021466Y-111156366D01*
X96021466Y-111156366D02*
X96021466Y-111223033D01*
X96021466Y-111223033D02*
X95988133Y-111323033D01*
X95988133Y-111323033D02*
X95588133Y-111723033D01*
X95588133Y-111723033D02*
X96021466Y-111723033D01*
X84871733Y-90142566D02*
X84838400Y-90175900D01*
X84838400Y-90175900D02*
X84738400Y-90209233D01*
X84738400Y-90209233D02*
X84671733Y-90209233D01*
X84671733Y-90209233D02*
X84571733Y-90175900D01*
X84571733Y-90175900D02*
X84505067Y-90109233D01*
X84505067Y-90109233D02*
X84471733Y-90042566D01*
X84471733Y-90042566D02*
X84438400Y-89909233D01*
X84438400Y-89909233D02*
X84438400Y-89809233D01*
X84438400Y-89809233D02*
X84471733Y-89675900D01*
X84471733Y-89675900D02*
X84505067Y-89609233D01*
X84505067Y-89609233D02*
X84571733Y-89542566D01*
X84571733Y-89542566D02*
X84671733Y-89509233D01*
X84671733Y-89509233D02*
X84738400Y-89509233D01*
X84738400Y-89509233D02*
X84838400Y-89542566D01*
X84838400Y-89542566D02*
X84871733Y-89575900D01*
X85105067Y-89509233D02*
X85538400Y-89509233D01*
X85538400Y-89509233D02*
X85305067Y-89775900D01*
X85305067Y-89775900D02*
X85405067Y-89775900D01*
X85405067Y-89775900D02*
X85471733Y-89809233D01*
X85471733Y-89809233D02*
X85505067Y-89842566D01*
X85505067Y-89842566D02*
X85538400Y-89909233D01*
X85538400Y-89909233D02*
X85538400Y-90075900D01*
X85538400Y-90075900D02*
X85505067Y-90142566D01*
X85505067Y-90142566D02*
X85471733Y-90175900D01*
X85471733Y-90175900D02*
X85405067Y-90209233D01*
X85405067Y-90209233D02*
X85205067Y-90209233D01*
X85205067Y-90209233D02*
X85138400Y-90175900D01*
X85138400Y-90175900D02*
X85105067Y-90142566D01*
X69418266Y-94030433D02*
X69418266Y-94597100D01*
X69418266Y-94597100D02*
X69451600Y-94663766D01*
X69451600Y-94663766D02*
X69484933Y-94697100D01*
X69484933Y-94697100D02*
X69551600Y-94730433D01*
X69551600Y-94730433D02*
X69684933Y-94730433D01*
X69684933Y-94730433D02*
X69751600Y-94697100D01*
X69751600Y-94697100D02*
X69784933Y-94663766D01*
X69784933Y-94663766D02*
X69818266Y-94597100D01*
X69818266Y-94597100D02*
X69818266Y-94030433D01*
X70518266Y-94730433D02*
X70118266Y-94730433D01*
X70318266Y-94730433D02*
X70318266Y-94030433D01*
X70318266Y-94030433D02*
X70251599Y-94130433D01*
X70251599Y-94130433D02*
X70184933Y-94197100D01*
X70184933Y-94197100D02*
X70118266Y-94230433D01*
X72328399Y-93487500D02*
X72361732Y-93454166D01*
X72361732Y-93454166D02*
X72428399Y-93420833D01*
X72428399Y-93420833D02*
X72595066Y-93420833D01*
X72595066Y-93420833D02*
X72661732Y-93454166D01*
X72661732Y-93454166D02*
X72695066Y-93487500D01*
X72695066Y-93487500D02*
X72728399Y-93554166D01*
X72728399Y-93554166D02*
X72728399Y-93620833D01*
X72728399Y-93620833D02*
X72695066Y-93720833D01*
X72695066Y-93720833D02*
X72295066Y-94120833D01*
X72295066Y-94120833D02*
X72728399Y-94120833D01*
X73328399Y-93654166D02*
X73328399Y-94120833D01*
X73161733Y-93387500D02*
X72995066Y-93887500D01*
X72995066Y-93887500D02*
X73428399Y-93887500D01*
X74028400Y-94120833D02*
X73695066Y-94120833D01*
X73695066Y-94120833D02*
X73695066Y-93420833D01*
X74661733Y-94054166D02*
X74628400Y-94087500D01*
X74628400Y-94087500D02*
X74528400Y-94120833D01*
X74528400Y-94120833D02*
X74461733Y-94120833D01*
X74461733Y-94120833D02*
X74361733Y-94087500D01*
X74361733Y-94087500D02*
X74295067Y-94020833D01*
X74295067Y-94020833D02*
X74261733Y-93954166D01*
X74261733Y-93954166D02*
X74228400Y-93820833D01*
X74228400Y-93820833D02*
X74228400Y-93720833D01*
X74228400Y-93720833D02*
X74261733Y-93587500D01*
X74261733Y-93587500D02*
X74295067Y-93520833D01*
X74295067Y-93520833D02*
X74361733Y-93454166D01*
X74361733Y-93454166D02*
X74461733Y-93420833D01*
X74461733Y-93420833D02*
X74528400Y-93420833D01*
X74528400Y-93420833D02*
X74628400Y-93454166D01*
X74628400Y-93454166D02*
X74661733Y-93487500D01*
X75328400Y-94120833D02*
X74928400Y-94120833D01*
X75128400Y-94120833D02*
X75128400Y-93420833D01*
X75128400Y-93420833D02*
X75061733Y-93520833D01*
X75061733Y-93520833D02*
X74995067Y-93587500D01*
X74995067Y-93587500D02*
X74928400Y-93620833D01*
X75761734Y-93420833D02*
X75828400Y-93420833D01*
X75828400Y-93420833D02*
X75895067Y-93454166D01*
X75895067Y-93454166D02*
X75928400Y-93487500D01*
X75928400Y-93487500D02*
X75961734Y-93554166D01*
X75961734Y-93554166D02*
X75995067Y-93687500D01*
X75995067Y-93687500D02*
X75995067Y-93854166D01*
X75995067Y-93854166D02*
X75961734Y-93987500D01*
X75961734Y-93987500D02*
X75928400Y-94054166D01*
X75928400Y-94054166D02*
X75895067Y-94087500D01*
X75895067Y-94087500D02*
X75828400Y-94120833D01*
X75828400Y-94120833D02*
X75761734Y-94120833D01*
X75761734Y-94120833D02*
X75695067Y-94087500D01*
X75695067Y-94087500D02*
X75661734Y-94054166D01*
X75661734Y-94054166D02*
X75628400Y-93987500D01*
X75628400Y-93987500D02*
X75595067Y-93854166D01*
X75595067Y-93854166D02*
X75595067Y-93687500D01*
X75595067Y-93687500D02*
X75628400Y-93554166D01*
X75628400Y-93554166D02*
X75661734Y-93487500D01*
X75661734Y-93487500D02*
X75695067Y-93454166D01*
X75695067Y-93454166D02*
X75761734Y-93420833D01*
X76261734Y-93487500D02*
X76295067Y-93454166D01*
X76295067Y-93454166D02*
X76361734Y-93420833D01*
X76361734Y-93420833D02*
X76528401Y-93420833D01*
X76528401Y-93420833D02*
X76595067Y-93454166D01*
X76595067Y-93454166D02*
X76628401Y-93487500D01*
X76628401Y-93487500D02*
X76661734Y-93554166D01*
X76661734Y-93554166D02*
X76661734Y-93620833D01*
X76661734Y-93620833D02*
X76628401Y-93720833D01*
X76628401Y-93720833D02*
X76228401Y-94120833D01*
X76228401Y-94120833D02*
X76661734Y-94120833D01*
X77295068Y-93420833D02*
X76961734Y-93420833D01*
X76961734Y-93420833D02*
X76928401Y-93754166D01*
X76928401Y-93754166D02*
X76961734Y-93720833D01*
X76961734Y-93720833D02*
X77028401Y-93687500D01*
X77028401Y-93687500D02*
X77195068Y-93687500D01*
X77195068Y-93687500D02*
X77261734Y-93720833D01*
X77261734Y-93720833D02*
X77295068Y-93754166D01*
X77295068Y-93754166D02*
X77328401Y-93820833D01*
X77328401Y-93820833D02*
X77328401Y-93987500D01*
X77328401Y-93987500D02*
X77295068Y-94054166D01*
X77295068Y-94054166D02*
X77261734Y-94087500D01*
X77261734Y-94087500D02*
X77195068Y-94120833D01*
X77195068Y-94120833D02*
X77028401Y-94120833D01*
X77028401Y-94120833D02*
X76961734Y-94087500D01*
X76961734Y-94087500D02*
X76928401Y-94054166D01*
X96200133Y-93892233D02*
X95966800Y-93558900D01*
X95800133Y-93892233D02*
X95800133Y-93192233D01*
X95800133Y-93192233D02*
X96066800Y-93192233D01*
X96066800Y-93192233D02*
X96133467Y-93225566D01*
X96133467Y-93225566D02*
X96166800Y-93258900D01*
X96166800Y-93258900D02*
X96200133Y-93325566D01*
X96200133Y-93325566D02*
X96200133Y-93425566D01*
X96200133Y-93425566D02*
X96166800Y-93492233D01*
X96166800Y-93492233D02*
X96133467Y-93525566D01*
X96133467Y-93525566D02*
X96066800Y-93558900D01*
X96066800Y-93558900D02*
X95800133Y-93558900D01*
X96433467Y-93192233D02*
X96900133Y-93192233D01*
X96900133Y-93192233D02*
X96600133Y-93892233D01*
X69367466Y-93090633D02*
X69367466Y-93657300D01*
X69367466Y-93657300D02*
X69400800Y-93723966D01*
X69400800Y-93723966D02*
X69434133Y-93757300D01*
X69434133Y-93757300D02*
X69500800Y-93790633D01*
X69500800Y-93790633D02*
X69634133Y-93790633D01*
X69634133Y-93790633D02*
X69700800Y-93757300D01*
X69700800Y-93757300D02*
X69734133Y-93723966D01*
X69734133Y-93723966D02*
X69767466Y-93657300D01*
X69767466Y-93657300D02*
X69767466Y-93090633D01*
X70067466Y-93157300D02*
X70100799Y-93123966D01*
X70100799Y-93123966D02*
X70167466Y-93090633D01*
X70167466Y-93090633D02*
X70334133Y-93090633D01*
X70334133Y-93090633D02*
X70400799Y-93123966D01*
X70400799Y-93123966D02*
X70434133Y-93157300D01*
X70434133Y-93157300D02*
X70467466Y-93223966D01*
X70467466Y-93223966D02*
X70467466Y-93290633D01*
X70467466Y-93290633D02*
X70434133Y-93390633D01*
X70434133Y-93390633D02*
X70034133Y-93790633D01*
X70034133Y-93790633D02*
X70467466Y-93790633D01*
X74279933Y-108243233D02*
X74046600Y-107909900D01*
X73879933Y-108243233D02*
X73879933Y-107543233D01*
X73879933Y-107543233D02*
X74146600Y-107543233D01*
X74146600Y-107543233D02*
X74213267Y-107576566D01*
X74213267Y-107576566D02*
X74246600Y-107609900D01*
X74246600Y-107609900D02*
X74279933Y-107676566D01*
X74279933Y-107676566D02*
X74279933Y-107776566D01*
X74279933Y-107776566D02*
X74246600Y-107843233D01*
X74246600Y-107843233D02*
X74213267Y-107876566D01*
X74213267Y-107876566D02*
X74146600Y-107909900D01*
X74146600Y-107909900D02*
X73879933Y-107909900D01*
X74546600Y-107609900D02*
X74579933Y-107576566D01*
X74579933Y-107576566D02*
X74646600Y-107543233D01*
X74646600Y-107543233D02*
X74813267Y-107543233D01*
X74813267Y-107543233D02*
X74879933Y-107576566D01*
X74879933Y-107576566D02*
X74913267Y-107609900D01*
X74913267Y-107609900D02*
X74946600Y-107676566D01*
X74946600Y-107676566D02*
X74946600Y-107743233D01*
X74946600Y-107743233D02*
X74913267Y-107843233D01*
X74913267Y-107843233D02*
X74513267Y-108243233D01*
X74513267Y-108243233D02*
X74946600Y-108243233D01*
X69540466Y-111048433D02*
X69540466Y-111548433D01*
X69540466Y-111548433D02*
X69507133Y-111648433D01*
X69507133Y-111648433D02*
X69440466Y-111715100D01*
X69440466Y-111715100D02*
X69340466Y-111748433D01*
X69340466Y-111748433D02*
X69273800Y-111748433D01*
X69807133Y-111048433D02*
X70240466Y-111048433D01*
X70240466Y-111048433D02*
X70007133Y-111315100D01*
X70007133Y-111315100D02*
X70107133Y-111315100D01*
X70107133Y-111315100D02*
X70173799Y-111348433D01*
X70173799Y-111348433D02*
X70207133Y-111381766D01*
X70207133Y-111381766D02*
X70240466Y-111448433D01*
X70240466Y-111448433D02*
X70240466Y-111615100D01*
X70240466Y-111615100D02*
X70207133Y-111681766D01*
X70207133Y-111681766D02*
X70173799Y-111715100D01*
X70173799Y-111715100D02*
X70107133Y-111748433D01*
X70107133Y-111748433D02*
X69907133Y-111748433D01*
X69907133Y-111748433D02*
X69840466Y-111715100D01*
X69840466Y-111715100D02*
X69807133Y-111681766D01*
X77215633Y-107086333D02*
X77782300Y-107086333D01*
X77782300Y-107086333D02*
X77848966Y-107053000D01*
X77848966Y-107053000D02*
X77882300Y-107019666D01*
X77882300Y-107019666D02*
X77915633Y-106953000D01*
X77915633Y-106953000D02*
X77915633Y-106819666D01*
X77915633Y-106819666D02*
X77882300Y-106753000D01*
X77882300Y-106753000D02*
X77848966Y-106719666D01*
X77848966Y-106719666D02*
X77782300Y-106686333D01*
X77782300Y-106686333D02*
X77215633Y-106686333D01*
X77215633Y-106419667D02*
X77215633Y-105986333D01*
X77215633Y-105986333D02*
X77482300Y-106219667D01*
X77482300Y-106219667D02*
X77482300Y-106119667D01*
X77482300Y-106119667D02*
X77515633Y-106053000D01*
X77515633Y-106053000D02*
X77548966Y-106019667D01*
X77548966Y-106019667D02*
X77615633Y-105986333D01*
X77615633Y-105986333D02*
X77782300Y-105986333D01*
X77782300Y-105986333D02*
X77848966Y-106019667D01*
X77848966Y-106019667D02*
X77882300Y-106053000D01*
X77882300Y-106053000D02*
X77915633Y-106119667D01*
X77915633Y-106119667D02*
X77915633Y-106319667D01*
X77915633Y-106319667D02*
X77882300Y-106386333D01*
X77882300Y-106386333D02*
X77848966Y-106419667D01*
X77941033Y-105447000D02*
X77241033Y-105447000D01*
X77241033Y-105447000D02*
X77241033Y-105280333D01*
X77241033Y-105280333D02*
X77274366Y-105180333D01*
X77274366Y-105180333D02*
X77341033Y-105113667D01*
X77341033Y-105113667D02*
X77407700Y-105080333D01*
X77407700Y-105080333D02*
X77541033Y-105047000D01*
X77541033Y-105047000D02*
X77641033Y-105047000D01*
X77641033Y-105047000D02*
X77774366Y-105080333D01*
X77774366Y-105080333D02*
X77841033Y-105113667D01*
X77841033Y-105113667D02*
X77907700Y-105180333D01*
X77907700Y-105180333D02*
X77941033Y-105280333D01*
X77941033Y-105280333D02*
X77941033Y-105447000D01*
X77907700Y-104780333D02*
X77941033Y-104680333D01*
X77941033Y-104680333D02*
X77941033Y-104513667D01*
X77941033Y-104513667D02*
X77907700Y-104447000D01*
X77907700Y-104447000D02*
X77874366Y-104413667D01*
X77874366Y-104413667D02*
X77807700Y-104380333D01*
X77807700Y-104380333D02*
X77741033Y-104380333D01*
X77741033Y-104380333D02*
X77674366Y-104413667D01*
X77674366Y-104413667D02*
X77641033Y-104447000D01*
X77641033Y-104447000D02*
X77607700Y-104513667D01*
X77607700Y-104513667D02*
X77574366Y-104647000D01*
X77574366Y-104647000D02*
X77541033Y-104713667D01*
X77541033Y-104713667D02*
X77507700Y-104747000D01*
X77507700Y-104747000D02*
X77441033Y-104780333D01*
X77441033Y-104780333D02*
X77374366Y-104780333D01*
X77374366Y-104780333D02*
X77307700Y-104747000D01*
X77307700Y-104747000D02*
X77274366Y-104713667D01*
X77274366Y-104713667D02*
X77241033Y-104647000D01*
X77241033Y-104647000D02*
X77241033Y-104480333D01*
X77241033Y-104480333D02*
X77274366Y-104380333D01*
X77941033Y-103713666D02*
X77941033Y-104113666D01*
X77941033Y-103913666D02*
X77241033Y-103913666D01*
X77241033Y-103913666D02*
X77341033Y-103980333D01*
X77341033Y-103980333D02*
X77407700Y-104047000D01*
X77407700Y-104047000D02*
X77441033Y-104113666D01*
X77241033Y-103480333D02*
X77241033Y-103046999D01*
X77241033Y-103046999D02*
X77507700Y-103280333D01*
X77507700Y-103280333D02*
X77507700Y-103180333D01*
X77507700Y-103180333D02*
X77541033Y-103113666D01*
X77541033Y-103113666D02*
X77574366Y-103080333D01*
X77574366Y-103080333D02*
X77641033Y-103046999D01*
X77641033Y-103046999D02*
X77807700Y-103046999D01*
X77807700Y-103046999D02*
X77874366Y-103080333D01*
X77874366Y-103080333D02*
X77907700Y-103113666D01*
X77907700Y-103113666D02*
X77941033Y-103180333D01*
X77941033Y-103180333D02*
X77941033Y-103380333D01*
X77941033Y-103380333D02*
X77907700Y-103446999D01*
X77907700Y-103446999D02*
X77874366Y-103480333D01*
X77241033Y-102813666D02*
X77241033Y-102380332D01*
X77241033Y-102380332D02*
X77507700Y-102613666D01*
X77507700Y-102613666D02*
X77507700Y-102513666D01*
X77507700Y-102513666D02*
X77541033Y-102446999D01*
X77541033Y-102446999D02*
X77574366Y-102413666D01*
X77574366Y-102413666D02*
X77641033Y-102380332D01*
X77641033Y-102380332D02*
X77807700Y-102380332D01*
X77807700Y-102380332D02*
X77874366Y-102413666D01*
X77874366Y-102413666D02*
X77907700Y-102446999D01*
X77907700Y-102446999D02*
X77941033Y-102513666D01*
X77941033Y-102513666D02*
X77941033Y-102713666D01*
X77941033Y-102713666D02*
X77907700Y-102780332D01*
X77907700Y-102780332D02*
X77874366Y-102813666D01*
X77241033Y-102146999D02*
X77241033Y-101680332D01*
X77241033Y-101680332D02*
X77941033Y-101980332D01*
X77907700Y-101446998D02*
X77941033Y-101346998D01*
X77941033Y-101346998D02*
X77941033Y-101180332D01*
X77941033Y-101180332D02*
X77907700Y-101113665D01*
X77907700Y-101113665D02*
X77874366Y-101080332D01*
X77874366Y-101080332D02*
X77807700Y-101046998D01*
X77807700Y-101046998D02*
X77741033Y-101046998D01*
X77741033Y-101046998D02*
X77674366Y-101080332D01*
X77674366Y-101080332D02*
X77641033Y-101113665D01*
X77641033Y-101113665D02*
X77607700Y-101180332D01*
X77607700Y-101180332D02*
X77574366Y-101313665D01*
X77574366Y-101313665D02*
X77541033Y-101380332D01*
X77541033Y-101380332D02*
X77507700Y-101413665D01*
X77507700Y-101413665D02*
X77441033Y-101446998D01*
X77441033Y-101446998D02*
X77374366Y-101446998D01*
X77374366Y-101446998D02*
X77307700Y-101413665D01*
X77307700Y-101413665D02*
X77274366Y-101380332D01*
X77274366Y-101380332D02*
X77241033Y-101313665D01*
X77241033Y-101313665D02*
X77241033Y-101146998D01*
X77241033Y-101146998D02*
X77274366Y-101046998D01*
X78007700Y-100913665D02*
X78007700Y-100380331D01*
X100975333Y-97854633D02*
X100742000Y-97521300D01*
X100575333Y-97854633D02*
X100575333Y-97154633D01*
X100575333Y-97154633D02*
X100842000Y-97154633D01*
X100842000Y-97154633D02*
X100908667Y-97187966D01*
X100908667Y-97187966D02*
X100942000Y-97221300D01*
X100942000Y-97221300D02*
X100975333Y-97287966D01*
X100975333Y-97287966D02*
X100975333Y-97387966D01*
X100975333Y-97387966D02*
X100942000Y-97454633D01*
X100942000Y-97454633D02*
X100908667Y-97487966D01*
X100908667Y-97487966D02*
X100842000Y-97521300D01*
X100842000Y-97521300D02*
X100575333Y-97521300D01*
X101575333Y-97154633D02*
X101442000Y-97154633D01*
X101442000Y-97154633D02*
X101375333Y-97187966D01*
X101375333Y-97187966D02*
X101342000Y-97221300D01*
X101342000Y-97221300D02*
X101275333Y-97321300D01*
X101275333Y-97321300D02*
X101242000Y-97454633D01*
X101242000Y-97454633D02*
X101242000Y-97721300D01*
X101242000Y-97721300D02*
X101275333Y-97787966D01*
X101275333Y-97787966D02*
X101308667Y-97821300D01*
X101308667Y-97821300D02*
X101375333Y-97854633D01*
X101375333Y-97854633D02*
X101508667Y-97854633D01*
X101508667Y-97854633D02*
X101575333Y-97821300D01*
X101575333Y-97821300D02*
X101608667Y-97787966D01*
X101608667Y-97787966D02*
X101642000Y-97721300D01*
X101642000Y-97721300D02*
X101642000Y-97554633D01*
X101642000Y-97554633D02*
X101608667Y-97487966D01*
X101608667Y-97487966D02*
X101575333Y-97454633D01*
X101575333Y-97454633D02*
X101508667Y-97421300D01*
X101508667Y-97421300D02*
X101375333Y-97421300D01*
X101375333Y-97421300D02*
X101308667Y-97454633D01*
X101308667Y-97454633D02*
X101275333Y-97487966D01*
X101275333Y-97487966D02*
X101242000Y-97554633D01*
X95996933Y-106042966D02*
X95963600Y-106076300D01*
X95963600Y-106076300D02*
X95863600Y-106109633D01*
X95863600Y-106109633D02*
X95796933Y-106109633D01*
X95796933Y-106109633D02*
X95696933Y-106076300D01*
X95696933Y-106076300D02*
X95630267Y-106009633D01*
X95630267Y-106009633D02*
X95596933Y-105942966D01*
X95596933Y-105942966D02*
X95563600Y-105809633D01*
X95563600Y-105809633D02*
X95563600Y-105709633D01*
X95563600Y-105709633D02*
X95596933Y-105576300D01*
X95596933Y-105576300D02*
X95630267Y-105509633D01*
X95630267Y-105509633D02*
X95696933Y-105442966D01*
X95696933Y-105442966D02*
X95796933Y-105409633D01*
X95796933Y-105409633D02*
X95863600Y-105409633D01*
X95863600Y-105409633D02*
X95963600Y-105442966D01*
X95963600Y-105442966D02*
X95996933Y-105476300D01*
X96263600Y-105476300D02*
X96296933Y-105442966D01*
X96296933Y-105442966D02*
X96363600Y-105409633D01*
X96363600Y-105409633D02*
X96530267Y-105409633D01*
X96530267Y-105409633D02*
X96596933Y-105442966D01*
X96596933Y-105442966D02*
X96630267Y-105476300D01*
X96630267Y-105476300D02*
X96663600Y-105542966D01*
X96663600Y-105542966D02*
X96663600Y-105609633D01*
X96663600Y-105609633D02*
X96630267Y-105709633D01*
X96630267Y-105709633D02*
X96230267Y-106109633D01*
X96230267Y-106109633D02*
X96663600Y-106109633D01*
X64361401Y-91976166D02*
X64461401Y-92009500D01*
X64461401Y-92009500D02*
X64494734Y-92042833D01*
X64494734Y-92042833D02*
X64528067Y-92109500D01*
X64528067Y-92109500D02*
X64528067Y-92209500D01*
X64528067Y-92209500D02*
X64494734Y-92276166D01*
X64494734Y-92276166D02*
X64461401Y-92309500D01*
X64461401Y-92309500D02*
X64394734Y-92342833D01*
X64394734Y-92342833D02*
X64128067Y-92342833D01*
X64128067Y-92342833D02*
X64128067Y-91642833D01*
X64128067Y-91642833D02*
X64361401Y-91642833D01*
X64361401Y-91642833D02*
X64428067Y-91676166D01*
X64428067Y-91676166D02*
X64461401Y-91709500D01*
X64461401Y-91709500D02*
X64494734Y-91776166D01*
X64494734Y-91776166D02*
X64494734Y-91842833D01*
X64494734Y-91842833D02*
X64461401Y-91909500D01*
X64461401Y-91909500D02*
X64428067Y-91942833D01*
X64428067Y-91942833D02*
X64361401Y-91976166D01*
X64361401Y-91976166D02*
X64128067Y-91976166D01*
X65128067Y-92342833D02*
X65128067Y-91976166D01*
X65128067Y-91976166D02*
X65094734Y-91909500D01*
X65094734Y-91909500D02*
X65028067Y-91876166D01*
X65028067Y-91876166D02*
X64894734Y-91876166D01*
X64894734Y-91876166D02*
X64828067Y-91909500D01*
X65128067Y-92309500D02*
X65061401Y-92342833D01*
X65061401Y-92342833D02*
X64894734Y-92342833D01*
X64894734Y-92342833D02*
X64828067Y-92309500D01*
X64828067Y-92309500D02*
X64794734Y-92242833D01*
X64794734Y-92242833D02*
X64794734Y-92176166D01*
X64794734Y-92176166D02*
X64828067Y-92109500D01*
X64828067Y-92109500D02*
X64894734Y-92076166D01*
X64894734Y-92076166D02*
X65061401Y-92076166D01*
X65061401Y-92076166D02*
X65128067Y-92042833D01*
X65361400Y-91876166D02*
X65628067Y-91876166D01*
X65461400Y-91642833D02*
X65461400Y-92242833D01*
X65461400Y-92242833D02*
X65494734Y-92309500D01*
X65494734Y-92309500D02*
X65561400Y-92342833D01*
X65561400Y-92342833D02*
X65628067Y-92342833D01*
X65761400Y-91876166D02*
X66028067Y-91876166D01*
X65861400Y-91642833D02*
X65861400Y-92242833D01*
X65861400Y-92242833D02*
X65894734Y-92309500D01*
X65894734Y-92309500D02*
X65961400Y-92342833D01*
X65961400Y-92342833D02*
X66028067Y-92342833D01*
X66528067Y-92309500D02*
X66461400Y-92342833D01*
X66461400Y-92342833D02*
X66328067Y-92342833D01*
X66328067Y-92342833D02*
X66261400Y-92309500D01*
X66261400Y-92309500D02*
X66228067Y-92242833D01*
X66228067Y-92242833D02*
X66228067Y-91976166D01*
X66228067Y-91976166D02*
X66261400Y-91909500D01*
X66261400Y-91909500D02*
X66328067Y-91876166D01*
X66328067Y-91876166D02*
X66461400Y-91876166D01*
X66461400Y-91876166D02*
X66528067Y-91909500D01*
X66528067Y-91909500D02*
X66561400Y-91976166D01*
X66561400Y-91976166D02*
X66561400Y-92042833D01*
X66561400Y-92042833D02*
X66228067Y-92109500D01*
X66861400Y-92342833D02*
X66861400Y-91876166D01*
X66861400Y-92009500D02*
X66894734Y-91942833D01*
X66894734Y-91942833D02*
X66928067Y-91909500D01*
X66928067Y-91909500D02*
X66994734Y-91876166D01*
X66994734Y-91876166D02*
X67061400Y-91876166D01*
X67228067Y-91876166D02*
X67394733Y-92342833D01*
X67561400Y-91876166D02*
X67394733Y-92342833D01*
X67394733Y-92342833D02*
X67328067Y-92509500D01*
X67328067Y-92509500D02*
X67294733Y-92542833D01*
X67294733Y-92542833D02*
X67228067Y-92576166D01*
D12*
%TO.C,C5*%
X90228748Y-87530000D02*
X90751252Y-87530000D01*
X90228748Y-89000000D02*
X90751252Y-89000000D01*
%TO.C,D2*%
X95421500Y-87432000D02*
X95421500Y-89352000D01*
X95421500Y-89352000D02*
X98106500Y-89352000D01*
X98106500Y-87432000D02*
X95421500Y-87432000D01*
D13*
%TO.C,U4*%
X83414000Y-93816371D02*
X90214000Y-93816371D01*
X83414000Y-100616371D02*
X83414000Y-93816371D01*
X90214000Y-93816371D02*
X90214000Y-100616371D01*
X90214000Y-100616371D02*
X83414000Y-100616371D01*
D14*
X82441000Y-93466371D02*
G75*
G02*
X82187000Y-93466371I-127000J0D01*
G01*
X82187000Y-93466371D02*
G75*
G02*
X82441000Y-93466371I127000J0D01*
G01*
D13*
X84430000Y-94473171D02*
G75*
G02*
X83711600Y-94473171I-359200J0D01*
G01*
X83711600Y-94473171D02*
G75*
G02*
X84430000Y-94473171I359200J0D01*
G01*
D12*
%TO.C,Y2*%
X64240000Y-102008000D02*
X64240000Y-109258000D01*
X64240000Y-109258000D02*
X67840000Y-109258000D01*
X67840000Y-109258000D02*
X67840000Y-102008000D01*
%TO.C,Y1*%
X84168000Y-108480000D02*
X91418000Y-108480000D01*
X91418000Y-104880000D02*
X84168000Y-104880000D01*
X91418000Y-108480000D02*
X91418000Y-104880000D01*
%TO.C,R1*%
X71561064Y-110145500D02*
X71106936Y-110145500D01*
X71561064Y-108675500D02*
X71106936Y-108675500D01*
%TO.C,C4*%
X97543252Y-108329400D02*
X97020748Y-108329400D01*
X97543252Y-106859400D02*
X97020748Y-106859400D01*
%TO.C,R4*%
X97565564Y-95150000D02*
X97111436Y-95150000D01*
X97565564Y-96620000D02*
X97111436Y-96620000D01*
%TO.C,R3*%
X97485564Y-98960000D02*
X97031436Y-98960000D01*
X97485564Y-100430000D02*
X97031436Y-100430000D01*
%TO.C,J1*%
X108271000Y-100905000D02*
X109601000Y-100905000D01*
X108271000Y-102235000D02*
X108271000Y-100905000D01*
X108271000Y-103505000D02*
X108271000Y-111185000D01*
X108271000Y-103505000D02*
X110931000Y-103505000D01*
X108271000Y-111185000D02*
X110931000Y-111185000D01*
X110931000Y-103505000D02*
X110931000Y-111185000D01*
%TO.C,J4*%
X105731000Y-92015000D02*
X107061000Y-92015000D01*
X105731000Y-93345000D02*
X105731000Y-92015000D01*
X105731000Y-94615000D02*
X105731000Y-99755000D01*
X105731000Y-94615000D02*
X108331000Y-94615000D01*
X105731000Y-99755000D02*
X110931000Y-99755000D01*
X108331000Y-92015000D02*
X110931000Y-92015000D01*
X108331000Y-94615000D02*
X108331000Y-92015000D01*
X110931000Y-92015000D02*
X110931000Y-99755000D01*
%TO.C,C1*%
X81338748Y-87530000D02*
X81861252Y-87530000D01*
X81338748Y-89000000D02*
X81861252Y-89000000D01*
%TO.C,R5*%
X101396436Y-91340000D02*
X101850564Y-91340000D01*
X101396436Y-92810000D02*
X101850564Y-92810000D01*
%TO.C,D1*%
X100600000Y-89352000D02*
X103285000Y-89352000D01*
X103285000Y-87432000D02*
X100600000Y-87432000D01*
X103285000Y-89352000D02*
X103285000Y-87432000D01*
%TO.C,J2*%
X96317600Y-114969600D02*
X96317600Y-113639600D01*
X97647600Y-114969600D02*
X96317600Y-114969600D01*
X98917600Y-112309600D02*
X106597600Y-112309600D01*
X98917600Y-114969600D02*
X98917600Y-112309600D01*
X98917600Y-114969600D02*
X106597600Y-114969600D01*
X106597600Y-114969600D02*
X106597600Y-112309600D01*
%TO.C,C3*%
X85778748Y-87530000D02*
X86301252Y-87530000D01*
X85778748Y-89000000D02*
X86301252Y-89000000D01*
%TO.C,U1*%
X70608097Y-95030000D02*
X70608097Y-95300000D01*
X70608097Y-100550000D02*
X70608097Y-100280000D01*
X73368097Y-95030000D02*
X70608097Y-95030000D01*
X73368097Y-95030000D02*
X76128097Y-95030000D01*
X73368097Y-100550000D02*
X70608097Y-100550000D01*
X73368097Y-100550000D02*
X76128097Y-100550000D01*
X76128097Y-95030000D02*
X76128097Y-95300000D01*
X76128097Y-100550000D02*
X76128097Y-100280000D01*
X69843097Y-95300000D02*
X69603097Y-94970000D01*
X70083097Y-94970000D01*
X69843097Y-95300000D01*
G36*
X69843097Y-95300000D02*
G01*
X69603097Y-94970000D01*
X70083097Y-94970000D01*
X69843097Y-95300000D01*
G37*
%TO.C,R7*%
X96951436Y-91340000D02*
X97405564Y-91340000D01*
X96951436Y-92810000D02*
X97405564Y-92810000D01*
%TO.C,U2*%
X71116097Y-87156000D02*
X71116097Y-87426000D01*
X71116097Y-92676000D02*
X71116097Y-92406000D01*
X73876097Y-87156000D02*
X71116097Y-87156000D01*
X73876097Y-87156000D02*
X76636097Y-87156000D01*
X73876097Y-92676000D02*
X71116097Y-92676000D01*
X73876097Y-92676000D02*
X76636097Y-92676000D01*
X76636097Y-87156000D02*
X76636097Y-87426000D01*
X76636097Y-92676000D02*
X76636097Y-92406000D01*
X70351097Y-87426000D02*
X70111097Y-87096000D01*
X70591097Y-87096000D01*
X70351097Y-87426000D01*
G36*
X70351097Y-87426000D02*
G01*
X70111097Y-87096000D01*
X70591097Y-87096000D01*
X70351097Y-87426000D01*
G37*
%TO.C,R2*%
X75648564Y-108675500D02*
X75194436Y-108675500D01*
X75648564Y-110145500D02*
X75194436Y-110145500D01*
%TO.C,J3*%
X70298000Y-115020400D02*
X70298000Y-113690400D01*
X71628000Y-115020400D02*
X70298000Y-115020400D01*
X72898000Y-112360400D02*
X93278000Y-112360400D01*
X72898000Y-115020400D02*
X72898000Y-112360400D01*
X72898000Y-115020400D02*
X93278000Y-115020400D01*
X93278000Y-115020400D02*
X93278000Y-112360400D01*
D15*
%TO.C,U3*%
X71087000Y-101747000D02*
X75087000Y-101747000D01*
X71087000Y-106787000D02*
X75087000Y-106787000D01*
D16*
X68742000Y-101772000D02*
G75*
G02*
X68542000Y-101772000I-100000J0D01*
G01*
X68542000Y-101772000D02*
G75*
G02*
X68742000Y-101772000I100000J0D01*
G01*
D12*
%TO.C,R6*%
X101476436Y-95150000D02*
X101930564Y-95150000D01*
X101476436Y-96620000D02*
X101930564Y-96620000D01*
%TO.C,C2*%
X97477252Y-103405000D02*
X96954748Y-103405000D01*
X97477252Y-104875000D02*
X96954748Y-104875000D01*
%TO.C,BT1*%
X64456000Y-93234200D02*
X65786000Y-93234200D01*
X64456000Y-94564200D02*
X64456000Y-93234200D01*
X64456000Y-95834200D02*
X64456000Y-98434200D01*
X64456000Y-95834200D02*
X67116000Y-95834200D01*
X64456000Y-98434200D02*
X67116000Y-98434200D01*
X67116000Y-95834200D02*
X67116000Y-98434200D01*
%TD*%
M02*
