%TF.GenerationSoftware,KiCad,Pcbnew,9.0.0*%
%TF.CreationDate,2025-05-30T17:35:02+05:30*%
%TF.ProjectId,MCU datalogger,4d435520-6461-4746-916c-6f676765722e,1*%
%TF.SameCoordinates,Original*%
%TF.FileFunction,Other,User*%
%FSLAX46Y46*%
G04 Gerber Fmt 4.6, Leading zero omitted, Abs format (unit mm)*
G04 Created by KiCad (PCBNEW 9.0.0) date 2025-05-30 17:35:02*
%MOMM*%
%LPD*%
G01*
G04 APERTURE LIST*
%ADD10C,0.050000*%
G04 APERTURE END LIST*
D10*
%TO.C,H2*%
X68186800Y-88925400D02*
G75*
G02*
X63486800Y-88925400I-2350000J0D01*
G01*
X63486800Y-88925400D02*
G75*
G02*
X68186800Y-88925400I2350000J0D01*
G01*
%TO.C,C5*%
X88790000Y-87285000D02*
X92190000Y-87285000D01*
X88790000Y-89245000D02*
X88790000Y-87285000D01*
X92190000Y-87285000D02*
X92190000Y-89245000D01*
X92190000Y-89245000D02*
X88790000Y-89245000D01*
%TO.C,D2*%
X95426500Y-87442000D02*
X98786500Y-87442000D01*
X95426500Y-89342000D02*
X95426500Y-87442000D01*
X98786500Y-87442000D02*
X98786500Y-89342000D01*
X98786500Y-89342000D02*
X95426500Y-89342000D01*
%TO.C,H1*%
X68339200Y-114274600D02*
G75*
G02*
X63639200Y-114274600I-2350000J0D01*
G01*
X63639200Y-114274600D02*
G75*
G02*
X68339200Y-114274600I2350000J0D01*
G01*
%TO.C,H3*%
X112450000Y-88790000D02*
G75*
G02*
X107750000Y-88790000I-2350000J0D01*
G01*
X107750000Y-88790000D02*
G75*
G02*
X112450000Y-88790000I2350000J0D01*
G01*
%TO.C,H4*%
X112916200Y-114452400D02*
G75*
G02*
X108216200Y-114452400I-2350000J0D01*
G01*
X108216200Y-114452400D02*
G75*
G02*
X112916200Y-114452400I2350000J0D01*
G01*
%TO.C,U4*%
X81314000Y-91716371D02*
X81314000Y-102716371D01*
X81314000Y-102716371D02*
X92314000Y-102716371D01*
X92314000Y-91716371D02*
X81314000Y-91716371D01*
X92314000Y-102716371D02*
X92314000Y-91716371D01*
%TO.C,Y2*%
X64140000Y-100108000D02*
X64140000Y-109308000D01*
X64140000Y-109308000D02*
X67940000Y-109308000D01*
X67940000Y-100108000D02*
X64140000Y-100108000D01*
X67940000Y-109308000D02*
X67940000Y-100108000D01*
%TO.C,Y1*%
X82268000Y-104780000D02*
X82268000Y-108580000D01*
X82268000Y-108580000D02*
X91468000Y-108580000D01*
X91468000Y-104780000D02*
X82268000Y-104780000D01*
X91468000Y-108580000D02*
X91468000Y-104780000D01*
%TO.C,R1*%
X73014000Y-110360500D02*
X69654000Y-110360500D01*
X73014000Y-108460500D02*
X73014000Y-110360500D01*
X69654000Y-110360500D02*
X69654000Y-108460500D01*
X69654000Y-108460500D02*
X73014000Y-108460500D01*
%TO.C,C4*%
X98982000Y-108574400D02*
X95582000Y-108574400D01*
X98982000Y-106614400D02*
X98982000Y-108574400D01*
X95582000Y-108574400D02*
X95582000Y-106614400D01*
X95582000Y-106614400D02*
X98982000Y-106614400D01*
%TO.C,R4*%
X95658500Y-94935000D02*
X99018500Y-94935000D01*
X95658500Y-96835000D02*
X95658500Y-94935000D01*
X99018500Y-94935000D02*
X99018500Y-96835000D01*
X99018500Y-96835000D02*
X95658500Y-96835000D01*
%TO.C,R3*%
X95578500Y-98745000D02*
X98938500Y-98745000D01*
X95578500Y-100645000D02*
X95578500Y-98745000D01*
X98938500Y-98745000D02*
X98938500Y-100645000D01*
X98938500Y-100645000D02*
X95578500Y-100645000D01*
%TO.C,J1*%
X107801000Y-100435000D02*
X107801000Y-111635000D01*
X107801000Y-111635000D02*
X111401000Y-111635000D01*
X111401000Y-100435000D02*
X107801000Y-100435000D01*
X111401000Y-111635000D02*
X111401000Y-100435000D01*
%TO.C,J4*%
X105261000Y-91545000D02*
X105261000Y-100195000D01*
X105261000Y-100195000D02*
X111411000Y-100195000D01*
X111411000Y-91545000D02*
X105261000Y-91545000D01*
X111411000Y-100195000D02*
X111411000Y-91545000D01*
%TO.C,C1*%
X79900000Y-87285000D02*
X83300000Y-87285000D01*
X79900000Y-89245000D02*
X79900000Y-87285000D01*
X83300000Y-87285000D02*
X83300000Y-89245000D01*
X83300000Y-89245000D02*
X79900000Y-89245000D01*
%TO.C,R5*%
X99943500Y-91125000D02*
X103303500Y-91125000D01*
X99943500Y-93025000D02*
X99943500Y-91125000D01*
X103303500Y-91125000D02*
X103303500Y-93025000D01*
X103303500Y-93025000D02*
X99943500Y-93025000D01*
%TO.C,D1*%
X99920000Y-87442000D02*
X103280000Y-87442000D01*
X99920000Y-89342000D02*
X99920000Y-87442000D01*
X103280000Y-87442000D02*
X103280000Y-89342000D01*
X103280000Y-89342000D02*
X99920000Y-89342000D01*
%TO.C,J2*%
X95847600Y-111839600D02*
X95847600Y-115439600D01*
X95847600Y-115439600D02*
X107047600Y-115439600D01*
X107047600Y-111839600D02*
X95847600Y-111839600D01*
X107047600Y-115439600D02*
X107047600Y-111839600D01*
%TO.C,C3*%
X84340000Y-87285000D02*
X87740000Y-87285000D01*
X84340000Y-89245000D02*
X84340000Y-87285000D01*
X87740000Y-87285000D02*
X87740000Y-89245000D01*
X87740000Y-89245000D02*
X84340000Y-89245000D01*
%TO.C,U1*%
X68718097Y-94890000D02*
X68718097Y-100690000D01*
X68718097Y-100690000D02*
X78018097Y-100690000D01*
X78018097Y-94890000D02*
X68718097Y-94890000D01*
X78018097Y-100690000D02*
X78018097Y-94890000D01*
%TO.C,R7*%
X95498500Y-91125000D02*
X98858500Y-91125000D01*
X95498500Y-93025000D02*
X95498500Y-91125000D01*
X98858500Y-91125000D02*
X98858500Y-93025000D01*
X98858500Y-93025000D02*
X95498500Y-93025000D01*
%TO.C,U2*%
X69226097Y-87016000D02*
X69226097Y-92816000D01*
X69226097Y-92816000D02*
X78526097Y-92816000D01*
X78526097Y-87016000D02*
X69226097Y-87016000D01*
X78526097Y-92816000D02*
X78526097Y-87016000D01*
%TO.C,R2*%
X73741500Y-108460500D02*
X77101500Y-108460500D01*
X73741500Y-110360500D02*
X73741500Y-108460500D01*
X77101500Y-108460500D02*
X77101500Y-110360500D01*
X77101500Y-110360500D02*
X73741500Y-110360500D01*
%TO.C,J3*%
X69828000Y-111890400D02*
X69828000Y-115490400D01*
X69828000Y-115490400D02*
X93728000Y-115490400D01*
X93728000Y-111890400D02*
X69828000Y-111890400D01*
X93728000Y-115490400D02*
X93728000Y-111890400D01*
%TO.C,U3*%
X69377000Y-101517000D02*
X69377000Y-107017000D01*
X69377000Y-101517000D02*
X76797000Y-101517000D01*
X69377000Y-107017000D02*
X76797000Y-107017000D01*
X76797000Y-101517000D02*
X76797000Y-107017000D01*
%TO.C,R6*%
X100023500Y-94935000D02*
X103383500Y-94935000D01*
X100023500Y-96835000D02*
X100023500Y-94935000D01*
X103383500Y-94935000D02*
X103383500Y-96835000D01*
X103383500Y-96835000D02*
X100023500Y-96835000D01*
%TO.C,C2*%
X95516000Y-103160000D02*
X98916000Y-103160000D01*
X95516000Y-105120000D02*
X95516000Y-103160000D01*
X98916000Y-103160000D02*
X98916000Y-105120000D01*
X98916000Y-105120000D02*
X95516000Y-105120000D01*
%TO.C,BT1*%
X63986000Y-92764200D02*
X63986000Y-98914200D01*
X63986000Y-98914200D02*
X67586000Y-98914200D01*
X67586000Y-92764200D02*
X63986000Y-92764200D01*
X67586000Y-98914200D02*
X67586000Y-92764200D01*
%TD*%
M02*
