%TF.GenerationSoftware,KiCad,Pcbnew,8.0.7*%
%TF.CreationDate,2025-01-27T17:03:56+05:30*%
%TF.ProjectId,Project 1 LED Torch,50726f6a-6563-4742-9031-204c45442054,rev?*%
%TF.SameCoordinates,Original*%
%TF.FileFunction,Legend,Top*%
%TF.FilePolarity,Positive*%
%FSLAX46Y46*%
G04 Gerber Fmt 4.6, Leading zero omitted, Abs format (unit mm)*
G04 Created by KiCad (PCBNEW 8.0.7) date 2025-01-27 17:03:56*
%MOMM*%
%LPD*%
G01*
G04 APERTURE LIST*
%ADD10C,0.150000*%
%ADD11C,0.120000*%
G04 APERTURE END LIST*
D10*
X99936779Y-61088866D02*
X100698684Y-61088866D01*
X99736779Y-68188866D02*
X100498684Y-68188866D01*
X100117731Y-68569819D02*
X100117731Y-67807914D01*
X113866667Y-61107200D02*
X114009524Y-61154819D01*
X114009524Y-61154819D02*
X114247619Y-61154819D01*
X114247619Y-61154819D02*
X114342857Y-61107200D01*
X114342857Y-61107200D02*
X114390476Y-61059580D01*
X114390476Y-61059580D02*
X114438095Y-60964342D01*
X114438095Y-60964342D02*
X114438095Y-60869104D01*
X114438095Y-60869104D02*
X114390476Y-60773866D01*
X114390476Y-60773866D02*
X114342857Y-60726247D01*
X114342857Y-60726247D02*
X114247619Y-60678628D01*
X114247619Y-60678628D02*
X114057143Y-60631009D01*
X114057143Y-60631009D02*
X113961905Y-60583390D01*
X113961905Y-60583390D02*
X113914286Y-60535771D01*
X113914286Y-60535771D02*
X113866667Y-60440533D01*
X113866667Y-60440533D02*
X113866667Y-60345295D01*
X113866667Y-60345295D02*
X113914286Y-60250057D01*
X113914286Y-60250057D02*
X113961905Y-60202438D01*
X113961905Y-60202438D02*
X114057143Y-60154819D01*
X114057143Y-60154819D02*
X114295238Y-60154819D01*
X114295238Y-60154819D02*
X114438095Y-60202438D01*
X114771429Y-60154819D02*
X115009524Y-61154819D01*
X115009524Y-61154819D02*
X115200000Y-60440533D01*
X115200000Y-60440533D02*
X115390476Y-61154819D01*
X115390476Y-61154819D02*
X115628572Y-60154819D01*
X116533333Y-61154819D02*
X115961905Y-61154819D01*
X116247619Y-61154819D02*
X116247619Y-60154819D01*
X116247619Y-60154819D02*
X116152381Y-60297676D01*
X116152381Y-60297676D02*
X116057143Y-60392914D01*
X116057143Y-60392914D02*
X115961905Y-60440533D01*
X106333333Y-68781819D02*
X106000000Y-68305628D01*
X105761905Y-68781819D02*
X105761905Y-67781819D01*
X105761905Y-67781819D02*
X106142857Y-67781819D01*
X106142857Y-67781819D02*
X106238095Y-67829438D01*
X106238095Y-67829438D02*
X106285714Y-67877057D01*
X106285714Y-67877057D02*
X106333333Y-67972295D01*
X106333333Y-67972295D02*
X106333333Y-68115152D01*
X106333333Y-68115152D02*
X106285714Y-68210390D01*
X106285714Y-68210390D02*
X106238095Y-68258009D01*
X106238095Y-68258009D02*
X106142857Y-68305628D01*
X106142857Y-68305628D02*
X105761905Y-68305628D01*
X107285714Y-68781819D02*
X106714286Y-68781819D01*
X107000000Y-68781819D02*
X107000000Y-67781819D01*
X107000000Y-67781819D02*
X106904762Y-67924676D01*
X106904762Y-67924676D02*
X106809524Y-68019914D01*
X106809524Y-68019914D02*
X106714286Y-68067533D01*
X104196905Y-61254819D02*
X104196905Y-60254819D01*
X104196905Y-60254819D02*
X104435000Y-60254819D01*
X104435000Y-60254819D02*
X104577857Y-60302438D01*
X104577857Y-60302438D02*
X104673095Y-60397676D01*
X104673095Y-60397676D02*
X104720714Y-60492914D01*
X104720714Y-60492914D02*
X104768333Y-60683390D01*
X104768333Y-60683390D02*
X104768333Y-60826247D01*
X104768333Y-60826247D02*
X104720714Y-61016723D01*
X104720714Y-61016723D02*
X104673095Y-61111961D01*
X104673095Y-61111961D02*
X104577857Y-61207200D01*
X104577857Y-61207200D02*
X104435000Y-61254819D01*
X104435000Y-61254819D02*
X104196905Y-61254819D01*
X105720714Y-61254819D02*
X105149286Y-61254819D01*
X105435000Y-61254819D02*
X105435000Y-60254819D01*
X105435000Y-60254819D02*
X105339762Y-60397676D01*
X105339762Y-60397676D02*
X105244524Y-60492914D01*
X105244524Y-60492914D02*
X105149286Y-60540533D01*
X96554819Y-65242857D02*
X96554819Y-65719047D01*
X96554819Y-65719047D02*
X95554819Y-65719047D01*
X96031009Y-64909523D02*
X96031009Y-64576190D01*
X96554819Y-64433333D02*
X96554819Y-64909523D01*
X96554819Y-64909523D02*
X95554819Y-64909523D01*
X95554819Y-64909523D02*
X95554819Y-64433333D01*
X96554819Y-64004761D02*
X95554819Y-64004761D01*
X95554819Y-64004761D02*
X95554819Y-63766666D01*
X95554819Y-63766666D02*
X95602438Y-63623809D01*
X95602438Y-63623809D02*
X95697676Y-63528571D01*
X95697676Y-63528571D02*
X95792914Y-63480952D01*
X95792914Y-63480952D02*
X95983390Y-63433333D01*
X95983390Y-63433333D02*
X96126247Y-63433333D01*
X96126247Y-63433333D02*
X96316723Y-63480952D01*
X96316723Y-63480952D02*
X96411961Y-63528571D01*
X96411961Y-63528571D02*
X96507200Y-63623809D01*
X96507200Y-63623809D02*
X96554819Y-63766666D01*
X96554819Y-63766666D02*
X96554819Y-64004761D01*
X136374285Y-56954009D02*
X136517142Y-57001628D01*
X136517142Y-57001628D02*
X136564761Y-57049247D01*
X136564761Y-57049247D02*
X136612380Y-57144485D01*
X136612380Y-57144485D02*
X136612380Y-57287342D01*
X136612380Y-57287342D02*
X136564761Y-57382580D01*
X136564761Y-57382580D02*
X136517142Y-57430200D01*
X136517142Y-57430200D02*
X136421904Y-57477819D01*
X136421904Y-57477819D02*
X136040952Y-57477819D01*
X136040952Y-57477819D02*
X136040952Y-56477819D01*
X136040952Y-56477819D02*
X136374285Y-56477819D01*
X136374285Y-56477819D02*
X136469523Y-56525438D01*
X136469523Y-56525438D02*
X136517142Y-56573057D01*
X136517142Y-56573057D02*
X136564761Y-56668295D01*
X136564761Y-56668295D02*
X136564761Y-56763533D01*
X136564761Y-56763533D02*
X136517142Y-56858771D01*
X136517142Y-56858771D02*
X136469523Y-56906390D01*
X136469523Y-56906390D02*
X136374285Y-56954009D01*
X136374285Y-56954009D02*
X136040952Y-56954009D01*
X136898095Y-56477819D02*
X137469523Y-56477819D01*
X137183809Y-57477819D02*
X137183809Y-56477819D01*
X138326666Y-57477819D02*
X137755238Y-57477819D01*
X138040952Y-57477819D02*
X138040952Y-56477819D01*
X138040952Y-56477819D02*
X137945714Y-56620676D01*
X137945714Y-56620676D02*
X137850476Y-56715914D01*
X137850476Y-56715914D02*
X137755238Y-56763533D01*
X133695236Y-75631009D02*
X133838093Y-75678628D01*
X133838093Y-75678628D02*
X133885712Y-75726247D01*
X133885712Y-75726247D02*
X133933331Y-75821485D01*
X133933331Y-75821485D02*
X133933331Y-75964342D01*
X133933331Y-75964342D02*
X133885712Y-76059580D01*
X133885712Y-76059580D02*
X133838093Y-76107200D01*
X133838093Y-76107200D02*
X133742855Y-76154819D01*
X133742855Y-76154819D02*
X133361903Y-76154819D01*
X133361903Y-76154819D02*
X133361903Y-75154819D01*
X133361903Y-75154819D02*
X133695236Y-75154819D01*
X133695236Y-75154819D02*
X133790474Y-75202438D01*
X133790474Y-75202438D02*
X133838093Y-75250057D01*
X133838093Y-75250057D02*
X133885712Y-75345295D01*
X133885712Y-75345295D02*
X133885712Y-75440533D01*
X133885712Y-75440533D02*
X133838093Y-75535771D01*
X133838093Y-75535771D02*
X133790474Y-75583390D01*
X133790474Y-75583390D02*
X133695236Y-75631009D01*
X133695236Y-75631009D02*
X133361903Y-75631009D01*
X134790474Y-76154819D02*
X134790474Y-75631009D01*
X134790474Y-75631009D02*
X134742855Y-75535771D01*
X134742855Y-75535771D02*
X134647617Y-75488152D01*
X134647617Y-75488152D02*
X134457141Y-75488152D01*
X134457141Y-75488152D02*
X134361903Y-75535771D01*
X134790474Y-76107200D02*
X134695236Y-76154819D01*
X134695236Y-76154819D02*
X134457141Y-76154819D01*
X134457141Y-76154819D02*
X134361903Y-76107200D01*
X134361903Y-76107200D02*
X134314284Y-76011961D01*
X134314284Y-76011961D02*
X134314284Y-75916723D01*
X134314284Y-75916723D02*
X134361903Y-75821485D01*
X134361903Y-75821485D02*
X134457141Y-75773866D01*
X134457141Y-75773866D02*
X134695236Y-75773866D01*
X134695236Y-75773866D02*
X134790474Y-75726247D01*
X135123808Y-75488152D02*
X135504760Y-75488152D01*
X135266665Y-75154819D02*
X135266665Y-76011961D01*
X135266665Y-76011961D02*
X135314284Y-76107200D01*
X135314284Y-76107200D02*
X135409522Y-76154819D01*
X135409522Y-76154819D02*
X135504760Y-76154819D01*
X135695237Y-75488152D02*
X136076189Y-75488152D01*
X135838094Y-75154819D02*
X135838094Y-76011961D01*
X135838094Y-76011961D02*
X135885713Y-76107200D01*
X135885713Y-76107200D02*
X135980951Y-76154819D01*
X135980951Y-76154819D02*
X136076189Y-76154819D01*
X136790475Y-76107200D02*
X136695237Y-76154819D01*
X136695237Y-76154819D02*
X136504761Y-76154819D01*
X136504761Y-76154819D02*
X136409523Y-76107200D01*
X136409523Y-76107200D02*
X136361904Y-76011961D01*
X136361904Y-76011961D02*
X136361904Y-75631009D01*
X136361904Y-75631009D02*
X136409523Y-75535771D01*
X136409523Y-75535771D02*
X136504761Y-75488152D01*
X136504761Y-75488152D02*
X136695237Y-75488152D01*
X136695237Y-75488152D02*
X136790475Y-75535771D01*
X136790475Y-75535771D02*
X136838094Y-75631009D01*
X136838094Y-75631009D02*
X136838094Y-75726247D01*
X136838094Y-75726247D02*
X136361904Y-75821485D01*
X137266666Y-76154819D02*
X137266666Y-75488152D01*
X137266666Y-75678628D02*
X137314285Y-75583390D01*
X137314285Y-75583390D02*
X137361904Y-75535771D01*
X137361904Y-75535771D02*
X137457142Y-75488152D01*
X137457142Y-75488152D02*
X137552380Y-75488152D01*
X137790476Y-75488152D02*
X138028571Y-76154819D01*
X138266666Y-75488152D02*
X138028571Y-76154819D01*
X138028571Y-76154819D02*
X137933333Y-76392914D01*
X137933333Y-76392914D02*
X137885714Y-76440533D01*
X137885714Y-76440533D02*
X137790476Y-76488152D01*
X138409524Y-76250057D02*
X139171428Y-76250057D01*
X139980952Y-76059580D02*
X139933333Y-76107200D01*
X139933333Y-76107200D02*
X139790476Y-76154819D01*
X139790476Y-76154819D02*
X139695238Y-76154819D01*
X139695238Y-76154819D02*
X139552381Y-76107200D01*
X139552381Y-76107200D02*
X139457143Y-76011961D01*
X139457143Y-76011961D02*
X139409524Y-75916723D01*
X139409524Y-75916723D02*
X139361905Y-75726247D01*
X139361905Y-75726247D02*
X139361905Y-75583390D01*
X139361905Y-75583390D02*
X139409524Y-75392914D01*
X139409524Y-75392914D02*
X139457143Y-75297676D01*
X139457143Y-75297676D02*
X139552381Y-75202438D01*
X139552381Y-75202438D02*
X139695238Y-75154819D01*
X139695238Y-75154819D02*
X139790476Y-75154819D01*
X139790476Y-75154819D02*
X139933333Y-75202438D01*
X139933333Y-75202438D02*
X139980952Y-75250057D01*
X140790476Y-76107200D02*
X140695238Y-76154819D01*
X140695238Y-76154819D02*
X140504762Y-76154819D01*
X140504762Y-76154819D02*
X140409524Y-76107200D01*
X140409524Y-76107200D02*
X140361905Y-76011961D01*
X140361905Y-76011961D02*
X140361905Y-75631009D01*
X140361905Y-75631009D02*
X140409524Y-75535771D01*
X140409524Y-75535771D02*
X140504762Y-75488152D01*
X140504762Y-75488152D02*
X140695238Y-75488152D01*
X140695238Y-75488152D02*
X140790476Y-75535771D01*
X140790476Y-75535771D02*
X140838095Y-75631009D01*
X140838095Y-75631009D02*
X140838095Y-75726247D01*
X140838095Y-75726247D02*
X140361905Y-75821485D01*
X141409524Y-76154819D02*
X141314286Y-76107200D01*
X141314286Y-76107200D02*
X141266667Y-76011961D01*
X141266667Y-76011961D02*
X141266667Y-75154819D01*
X141933334Y-76154819D02*
X141838096Y-76107200D01*
X141838096Y-76107200D02*
X141790477Y-76011961D01*
X141790477Y-76011961D02*
X141790477Y-75154819D01*
D11*
%TO.C,SW1*%
X116565508Y-64643000D02*
G75*
G02*
X113737080Y-64643000I-1414214J0D01*
G01*
X113737080Y-64643000D02*
G75*
G02*
X116565508Y-64643000I1414214J0D01*
G01*
X118271294Y-63593000D02*
X118271294Y-65793000D01*
X113101294Y-61523000D02*
X117501294Y-61523000D01*
X112501294Y-67763000D02*
X117701294Y-67763000D01*
X112031294Y-65793000D02*
X112031294Y-63593000D01*
%TO.C,R1*%
X108542588Y-67640000D02*
X108542588Y-66690000D01*
X107622588Y-66690000D02*
X109462588Y-66690000D01*
X109462588Y-66690000D02*
X109462588Y-62850000D01*
X107622588Y-62850000D02*
X107622588Y-66690000D01*
X109462588Y-62850000D02*
X107622588Y-62850000D01*
X108542588Y-61900000D02*
X108542588Y-62850000D01*
%TO.C,D1*%
X101875000Y-62078000D02*
X98785000Y-62078000D01*
X101874830Y-62078000D02*
G75*
G02*
X100330048Y-67628000I-1544830J-2560000D01*
G01*
X100329952Y-67628000D02*
G75*
G02*
X98785170Y-62078000I48J2990000D01*
G01*
X102830000Y-64638000D02*
G75*
G02*
X97830000Y-64638000I-2500000J0D01*
G01*
X97830000Y-64638000D02*
G75*
G02*
X102830000Y-64638000I2500000J0D01*
G01*
%TO.C,BT1*%
X151470000Y-68253000D02*
X147852000Y-68253000D01*
X151470000Y-66543000D02*
X151470000Y-68253000D01*
X151470000Y-62743000D02*
X151470000Y-61033000D01*
X147852000Y-61033000D02*
X151470000Y-61033000D01*
X145007300Y-72753000D02*
X129312700Y-72753000D01*
X141020000Y-56533000D02*
X145007300Y-56533000D01*
X138820000Y-58733000D02*
X141020000Y-56533000D01*
X135500000Y-58733000D02*
X138820000Y-58733000D01*
X135500000Y-58733000D02*
X133300000Y-56533000D01*
X129312700Y-56533000D02*
X133300000Y-56533000D01*
X126468000Y-68253000D02*
X122850000Y-68253000D01*
X122850000Y-66543000D02*
X122850000Y-68253000D01*
X122850000Y-62743000D02*
X122850000Y-61033000D01*
X122850000Y-61033000D02*
X126468000Y-61033000D01*
X147852000Y-68253000D02*
G75*
G02*
X145005372Y-72754790I-10692020J3610010D01*
G01*
X145005371Y-56531211D02*
G75*
G02*
X147852000Y-61033000I-7845366J-8111785D01*
G01*
X129314629Y-72754789D02*
G75*
G02*
X126468000Y-68253000I7845371J8111789D01*
G01*
X126468000Y-61033000D02*
G75*
G02*
X129314629Y-56531211I10692020J-3610012D01*
G01*
%TD*%
M02*
