%TF.GenerationSoftware,KiCad,Pcbnew,8.0.7*%
%TF.CreationDate,2025-01-27T17:03:56+05:30*%
%TF.ProjectId,Project 1 LED Torch,50726f6a-6563-4742-9031-204c45442054,rev?*%
%TF.SameCoordinates,Original*%
%TF.FileFunction,Legend,Bot*%
%TF.FilePolarity,Positive*%
%FSLAX46Y46*%
G04 Gerber Fmt 4.6, Leading zero omitted, Abs format (unit mm)*
G04 Created by KiCad (PCBNEW 8.0.7) date 2025-01-27 17:03:56*
%MOMM*%
%LPD*%
G01*
G04 APERTURE LIST*
%ADD10C,0.010000*%
G04 APERTURE END LIST*
D10*
%TO.C,REF\u002A\u002A*%
X132736006Y-64301749D02*
X132761727Y-64317447D01*
X132788378Y-64339027D01*
X132788378Y-64986484D01*
X132761727Y-65008064D01*
X132730367Y-65025539D01*
X132694566Y-65026375D01*
X132663128Y-65005882D01*
X132659252Y-65001216D01*
X132653786Y-64991749D01*
X132649579Y-64978067D01*
X132646467Y-64957548D01*
X132644287Y-64927568D01*
X132642876Y-64885504D01*
X132642071Y-64828732D01*
X132641707Y-64754630D01*
X132641622Y-64660573D01*
X132641622Y-64339027D01*
X132668273Y-64317447D01*
X132691986Y-64302677D01*
X132715000Y-64295867D01*
X132736006Y-64301749D01*
G36*
X132736006Y-64301749D02*
G01*
X132761727Y-64317447D01*
X132788378Y-64339027D01*
X132788378Y-64986484D01*
X132761727Y-65008064D01*
X132730367Y-65025539D01*
X132694566Y-65026375D01*
X132663128Y-65005882D01*
X132659252Y-65001216D01*
X132653786Y-64991749D01*
X132649579Y-64978067D01*
X132646467Y-64957548D01*
X132644287Y-64927568D01*
X132642876Y-64885504D01*
X132642071Y-64828732D01*
X132641707Y-64754630D01*
X132641622Y-64660573D01*
X132641622Y-64339027D01*
X132668273Y-64317447D01*
X132691986Y-64302677D01*
X132715000Y-64295867D01*
X132736006Y-64301749D01*
G37*
X139866737Y-64300263D02*
X139900891Y-64323576D01*
X139928600Y-64351285D01*
X139928600Y-64664337D01*
X139928559Y-64748367D01*
X139928301Y-64822589D01*
X139927630Y-64879341D01*
X139926352Y-64921312D01*
X139924273Y-64951189D01*
X139921199Y-64971661D01*
X139916934Y-64985414D01*
X139911284Y-64995137D01*
X139904055Y-65003517D01*
X139872591Y-65024981D01*
X139837426Y-65026747D01*
X139804422Y-65007067D01*
X139799116Y-65001198D01*
X139793666Y-64992114D01*
X139789500Y-64978773D01*
X139786446Y-64958557D01*
X139784332Y-64928849D01*
X139782986Y-64887032D01*
X139782238Y-64830489D01*
X139781914Y-64756602D01*
X139781845Y-64662756D01*
X139781884Y-64587094D01*
X139782139Y-64509185D01*
X139782783Y-64449175D01*
X139783987Y-64404448D01*
X139785924Y-64372385D01*
X139788764Y-64350371D01*
X139792679Y-64335787D01*
X139797842Y-64326018D01*
X139804422Y-64318445D01*
X139833606Y-64299423D01*
X139866737Y-64300263D01*
G36*
X139866737Y-64300263D02*
G01*
X139900891Y-64323576D01*
X139928600Y-64351285D01*
X139928600Y-64664337D01*
X139928559Y-64748367D01*
X139928301Y-64822589D01*
X139927630Y-64879341D01*
X139926352Y-64921312D01*
X139924273Y-64951189D01*
X139921199Y-64971661D01*
X139916934Y-64985414D01*
X139911284Y-64995137D01*
X139904055Y-65003517D01*
X139872591Y-65024981D01*
X139837426Y-65026747D01*
X139804422Y-65007067D01*
X139799116Y-65001198D01*
X139793666Y-64992114D01*
X139789500Y-64978773D01*
X139786446Y-64958557D01*
X139784332Y-64928849D01*
X139782986Y-64887032D01*
X139782238Y-64830489D01*
X139781914Y-64756602D01*
X139781845Y-64662756D01*
X139781884Y-64587094D01*
X139782139Y-64509185D01*
X139782783Y-64449175D01*
X139783987Y-64404448D01*
X139785924Y-64372385D01*
X139788764Y-64350371D01*
X139792679Y-64335787D01*
X139797842Y-64326018D01*
X139804422Y-64318445D01*
X139833606Y-64299423D01*
X139866737Y-64300263D01*
G37*
X139335162Y-59059650D02*
X139417913Y-59086853D01*
X139493006Y-59132284D01*
X139564898Y-59198102D01*
X139603446Y-59242367D01*
X139642856Y-59300761D01*
X139668046Y-59361386D01*
X139681461Y-59430665D01*
X139685548Y-59515022D01*
X139685269Y-59561107D01*
X139683060Y-59602250D01*
X139677494Y-59634382D01*
X139667186Y-59664922D01*
X139650748Y-59701289D01*
X139636800Y-59728528D01*
X139578265Y-59814229D01*
X139506219Y-59883417D01*
X139422547Y-59934541D01*
X139329131Y-59966050D01*
X139296034Y-59973025D01*
X139255560Y-59979894D01*
X139222599Y-59981719D01*
X139188298Y-59978747D01*
X139143800Y-59971226D01*
X139092534Y-59958802D01*
X139002034Y-59920912D01*
X138922945Y-59866636D01*
X138857128Y-59798570D01*
X138806440Y-59719311D01*
X138772740Y-59631454D01*
X138757886Y-59537595D01*
X138763736Y-59440330D01*
X138789999Y-59344020D01*
X138835018Y-59255294D01*
X138895973Y-59180219D01*
X138970784Y-59120441D01*
X139057368Y-59077609D01*
X139153643Y-59053371D01*
X139257528Y-59049376D01*
X139335162Y-59059650D01*
G36*
X139335162Y-59059650D02*
G01*
X139417913Y-59086853D01*
X139493006Y-59132284D01*
X139564898Y-59198102D01*
X139603446Y-59242367D01*
X139642856Y-59300761D01*
X139668046Y-59361386D01*
X139681461Y-59430665D01*
X139685548Y-59515022D01*
X139685269Y-59561107D01*
X139683060Y-59602250D01*
X139677494Y-59634382D01*
X139667186Y-59664922D01*
X139650748Y-59701289D01*
X139636800Y-59728528D01*
X139578265Y-59814229D01*
X139506219Y-59883417D01*
X139422547Y-59934541D01*
X139329131Y-59966050D01*
X139296034Y-59973025D01*
X139255560Y-59979894D01*
X139222599Y-59981719D01*
X139188298Y-59978747D01*
X139143800Y-59971226D01*
X139092534Y-59958802D01*
X139002034Y-59920912D01*
X138922945Y-59866636D01*
X138857128Y-59798570D01*
X138806440Y-59719311D01*
X138772740Y-59631454D01*
X138757886Y-59537595D01*
X138763736Y-59440330D01*
X138789999Y-59344020D01*
X138835018Y-59255294D01*
X138895973Y-59180219D01*
X138970784Y-59120441D01*
X139057368Y-59077609D01*
X139153643Y-59053371D01*
X139257528Y-59049376D01*
X139335162Y-59059650D01*
G37*
X132036367Y-64295868D02*
X132130490Y-64295958D01*
X132205005Y-64296298D01*
X132262411Y-64297039D01*
X132305211Y-64298335D01*
X132335904Y-64300337D01*
X132356991Y-64303196D01*
X132370973Y-64307066D01*
X132380350Y-64312098D01*
X132387622Y-64318445D01*
X132406428Y-64351162D01*
X132407875Y-64388739D01*
X132391517Y-64421978D01*
X132390157Y-64423431D01*
X132378954Y-64431792D01*
X132361852Y-64437347D01*
X132334682Y-64440640D01*
X132293278Y-64442218D01*
X132233473Y-64442622D01*
X132094111Y-64442622D01*
X132094111Y-64706389D01*
X132094036Y-64782217D01*
X132093628Y-64848883D01*
X132092646Y-64898667D01*
X132090850Y-64934584D01*
X132087999Y-64959650D01*
X132083853Y-64976881D01*
X132078171Y-64989292D01*
X132070714Y-64999900D01*
X132068424Y-65002706D01*
X132037246Y-65025348D01*
X132002866Y-65026912D01*
X131969934Y-65007067D01*
X131962955Y-64998991D01*
X131957483Y-64988393D01*
X131953463Y-64972549D01*
X131950672Y-64948573D01*
X131948888Y-64913574D01*
X131947889Y-64864664D01*
X131947452Y-64798954D01*
X131947356Y-64713556D01*
X131947356Y-64442622D01*
X131801420Y-64442622D01*
X131790320Y-64442621D01*
X131733802Y-64442396D01*
X131694958Y-64441257D01*
X131669565Y-64438457D01*
X131653404Y-64433250D01*
X131642252Y-64424889D01*
X131631889Y-64412626D01*
X131616041Y-64381938D01*
X131619143Y-64348158D01*
X131644787Y-64315622D01*
X131649729Y-64311905D01*
X131659938Y-64307069D01*
X131675364Y-64303306D01*
X131698486Y-64300483D01*
X131731783Y-64298470D01*
X131777737Y-64297133D01*
X131838828Y-64296342D01*
X131917535Y-64295963D01*
X132016340Y-64295867D01*
X132036367Y-64295868D01*
G36*
X132036367Y-64295868D02*
G01*
X132130490Y-64295958D01*
X132205005Y-64296298D01*
X132262411Y-64297039D01*
X132305211Y-64298335D01*
X132335904Y-64300337D01*
X132356991Y-64303196D01*
X132370973Y-64307066D01*
X132380350Y-64312098D01*
X132387622Y-64318445D01*
X132406428Y-64351162D01*
X132407875Y-64388739D01*
X132391517Y-64421978D01*
X132390157Y-64423431D01*
X132378954Y-64431792D01*
X132361852Y-64437347D01*
X132334682Y-64440640D01*
X132293278Y-64442218D01*
X132233473Y-64442622D01*
X132094111Y-64442622D01*
X132094111Y-64706389D01*
X132094036Y-64782217D01*
X132093628Y-64848883D01*
X132092646Y-64898667D01*
X132090850Y-64934584D01*
X132087999Y-64959650D01*
X132083853Y-64976881D01*
X132078171Y-64989292D01*
X132070714Y-64999900D01*
X132068424Y-65002706D01*
X132037246Y-65025348D01*
X132002866Y-65026912D01*
X131969934Y-65007067D01*
X131962955Y-64998991D01*
X131957483Y-64988393D01*
X131953463Y-64972549D01*
X131950672Y-64948573D01*
X131948888Y-64913574D01*
X131947889Y-64864664D01*
X131947452Y-64798954D01*
X131947356Y-64713556D01*
X131947356Y-64442622D01*
X131801420Y-64442622D01*
X131790320Y-64442621D01*
X131733802Y-64442396D01*
X131694958Y-64441257D01*
X131669565Y-64438457D01*
X131653404Y-64433250D01*
X131642252Y-64424889D01*
X131631889Y-64412626D01*
X131616041Y-64381938D01*
X131619143Y-64348158D01*
X131644787Y-64315622D01*
X131649729Y-64311905D01*
X131659938Y-64307069D01*
X131675364Y-64303306D01*
X131698486Y-64300483D01*
X131731783Y-64298470D01*
X131777737Y-64297133D01*
X131838828Y-64296342D01*
X131917535Y-64295963D01*
X132016340Y-64295867D01*
X132036367Y-64295868D01*
G37*
X131360334Y-64318445D02*
X131365966Y-64324635D01*
X131371056Y-64332841D01*
X131375143Y-64344617D01*
X131378321Y-64362076D01*
X131380687Y-64387330D01*
X131382338Y-64422490D01*
X131383369Y-64469669D01*
X131383877Y-64530977D01*
X131383959Y-64608527D01*
X131383709Y-64704431D01*
X131383225Y-64820800D01*
X131383157Y-64834975D01*
X131382571Y-64896737D01*
X131381248Y-64940420D01*
X131378703Y-64969801D01*
X131374448Y-64988655D01*
X131367996Y-65000759D01*
X131358862Y-65009889D01*
X131325404Y-65027306D01*
X131290456Y-65024404D01*
X131259553Y-64999900D01*
X131250544Y-64986697D01*
X131243092Y-64968161D01*
X131238724Y-64942133D01*
X131236669Y-64903587D01*
X131236156Y-64847500D01*
X131236156Y-64724845D01*
X130739445Y-64724845D01*
X130739445Y-64859671D01*
X130739372Y-64895462D01*
X130738609Y-64941792D01*
X130736433Y-64972326D01*
X130732136Y-64991357D01*
X130725012Y-65003174D01*
X130714355Y-65012071D01*
X130682104Y-65027141D01*
X130646817Y-65024473D01*
X130616086Y-64999900D01*
X130611431Y-64993645D01*
X130605495Y-64983121D01*
X130600964Y-64969191D01*
X130597648Y-64949117D01*
X130595359Y-64920160D01*
X130593908Y-64879580D01*
X130593105Y-64824640D01*
X130592762Y-64752599D01*
X130592689Y-64660720D01*
X130592689Y-64351285D01*
X130620398Y-64323576D01*
X130651777Y-64301333D01*
X130685006Y-64298644D01*
X130716867Y-64318445D01*
X130725153Y-64328215D01*
X130732565Y-64344107D01*
X130736902Y-64368075D01*
X130738938Y-64404948D01*
X130739445Y-64459556D01*
X130739445Y-64578089D01*
X131236156Y-64578089D01*
X131236156Y-64462576D01*
X131236594Y-64410878D01*
X131238558Y-64376354D01*
X131243074Y-64353778D01*
X131251167Y-64337926D01*
X131263865Y-64323576D01*
X131295243Y-64301333D01*
X131328472Y-64298644D01*
X131360334Y-64318445D01*
G36*
X131360334Y-64318445D02*
G01*
X131365966Y-64324635D01*
X131371056Y-64332841D01*
X131375143Y-64344617D01*
X131378321Y-64362076D01*
X131380687Y-64387330D01*
X131382338Y-64422490D01*
X131383369Y-64469669D01*
X131383877Y-64530977D01*
X131383959Y-64608527D01*
X131383709Y-64704431D01*
X131383225Y-64820800D01*
X131383157Y-64834975D01*
X131382571Y-64896737D01*
X131381248Y-64940420D01*
X131378703Y-64969801D01*
X131374448Y-64988655D01*
X131367996Y-65000759D01*
X131358862Y-65009889D01*
X131325404Y-65027306D01*
X131290456Y-65024404D01*
X131259553Y-64999900D01*
X131250544Y-64986697D01*
X131243092Y-64968161D01*
X131238724Y-64942133D01*
X131236669Y-64903587D01*
X131236156Y-64847500D01*
X131236156Y-64724845D01*
X130739445Y-64724845D01*
X130739445Y-64859671D01*
X130739372Y-64895462D01*
X130738609Y-64941792D01*
X130736433Y-64972326D01*
X130732136Y-64991357D01*
X130725012Y-65003174D01*
X130714355Y-65012071D01*
X130682104Y-65027141D01*
X130646817Y-65024473D01*
X130616086Y-64999900D01*
X130611431Y-64993645D01*
X130605495Y-64983121D01*
X130600964Y-64969191D01*
X130597648Y-64949117D01*
X130595359Y-64920160D01*
X130593908Y-64879580D01*
X130593105Y-64824640D01*
X130592762Y-64752599D01*
X130592689Y-64660720D01*
X130592689Y-64351285D01*
X130620398Y-64323576D01*
X130651777Y-64301333D01*
X130685006Y-64298644D01*
X130716867Y-64318445D01*
X130725153Y-64328215D01*
X130732565Y-64344107D01*
X130736902Y-64368075D01*
X130738938Y-64404948D01*
X130739445Y-64459556D01*
X130739445Y-64578089D01*
X131236156Y-64578089D01*
X131236156Y-64462576D01*
X131236594Y-64410878D01*
X131238558Y-64376354D01*
X131243074Y-64353778D01*
X131251167Y-64337926D01*
X131263865Y-64323576D01*
X131295243Y-64301333D01*
X131328472Y-64298644D01*
X131360334Y-64318445D01*
G37*
X136065733Y-64907196D02*
X136063763Y-64939975D01*
X136060835Y-64962895D01*
X136056758Y-64978697D01*
X136051343Y-64990119D01*
X136044403Y-64999900D01*
X136021006Y-65029645D01*
X135855314Y-65029051D01*
X135820518Y-65028753D01*
X135722035Y-65025322D01*
X135641073Y-65017639D01*
X135573979Y-65005082D01*
X135517096Y-64987027D01*
X135466769Y-64962852D01*
X135463410Y-64960935D01*
X135405598Y-64924217D01*
X135363244Y-64887251D01*
X135330428Y-64843766D01*
X135301228Y-64787489D01*
X135296946Y-64777873D01*
X135274369Y-64714687D01*
X135268634Y-64669133D01*
X135417879Y-64669133D01*
X135423492Y-64693861D01*
X135429218Y-64709739D01*
X135462148Y-64769647D01*
X135509486Y-64815400D01*
X135573252Y-64848536D01*
X135655461Y-64870590D01*
X135658255Y-64871092D01*
X135704540Y-64877055D01*
X135760936Y-64881283D01*
X135815874Y-64882889D01*
X135909756Y-64882889D01*
X135909756Y-64442622D01*
X135822267Y-64443070D01*
X135755347Y-64445546D01*
X135662949Y-64456798D01*
X135583634Y-64476337D01*
X135521660Y-64503311D01*
X135490720Y-64524040D01*
X135462600Y-64553806D01*
X135439260Y-64596234D01*
X135432133Y-64612200D01*
X135420309Y-64644702D01*
X135417879Y-64669133D01*
X135268634Y-64669133D01*
X135267397Y-64659309D01*
X135275999Y-64604283D01*
X135300141Y-64542151D01*
X135300937Y-64540458D01*
X135341388Y-64471036D01*
X135392073Y-64414438D01*
X135454798Y-64369870D01*
X135531374Y-64336541D01*
X135623609Y-64313661D01*
X135733312Y-64300436D01*
X135862291Y-64296075D01*
X135865863Y-64296070D01*
X135925883Y-64296210D01*
X135967814Y-64297246D01*
X135995928Y-64299840D01*
X136014497Y-64304653D01*
X136027794Y-64312344D01*
X136040091Y-64323576D01*
X136067800Y-64351285D01*
X136067800Y-64660720D01*
X136067775Y-64722326D01*
X136067550Y-64801111D01*
X136066932Y-64861821D01*
X136066375Y-64882889D01*
X136065733Y-64907196D01*
G36*
X136065733Y-64907196D02*
G01*
X136063763Y-64939975D01*
X136060835Y-64962895D01*
X136056758Y-64978697D01*
X136051343Y-64990119D01*
X136044403Y-64999900D01*
X136021006Y-65029645D01*
X135855314Y-65029051D01*
X135820518Y-65028753D01*
X135722035Y-65025322D01*
X135641073Y-65017639D01*
X135573979Y-65005082D01*
X135517096Y-64987027D01*
X135466769Y-64962852D01*
X135463410Y-64960935D01*
X135405598Y-64924217D01*
X135363244Y-64887251D01*
X135330428Y-64843766D01*
X135301228Y-64787489D01*
X135296946Y-64777873D01*
X135274369Y-64714687D01*
X135268634Y-64669133D01*
X135417879Y-64669133D01*
X135423492Y-64693861D01*
X135429218Y-64709739D01*
X135462148Y-64769647D01*
X135509486Y-64815400D01*
X135573252Y-64848536D01*
X135655461Y-64870590D01*
X135658255Y-64871092D01*
X135704540Y-64877055D01*
X135760936Y-64881283D01*
X135815874Y-64882889D01*
X135909756Y-64882889D01*
X135909756Y-64442622D01*
X135822267Y-64443070D01*
X135755347Y-64445546D01*
X135662949Y-64456798D01*
X135583634Y-64476337D01*
X135521660Y-64503311D01*
X135490720Y-64524040D01*
X135462600Y-64553806D01*
X135439260Y-64596234D01*
X135432133Y-64612200D01*
X135420309Y-64644702D01*
X135417879Y-64669133D01*
X135268634Y-64669133D01*
X135267397Y-64659309D01*
X135275999Y-64604283D01*
X135300141Y-64542151D01*
X135300937Y-64540458D01*
X135341388Y-64471036D01*
X135392073Y-64414438D01*
X135454798Y-64369870D01*
X135531374Y-64336541D01*
X135623609Y-64313661D01*
X135733312Y-64300436D01*
X135862291Y-64296075D01*
X135865863Y-64296070D01*
X135925883Y-64296210D01*
X135967814Y-64297246D01*
X135995928Y-64299840D01*
X136014497Y-64304653D01*
X136027794Y-64312344D01*
X136040091Y-64323576D01*
X136067800Y-64351285D01*
X136067800Y-64660720D01*
X136067775Y-64722326D01*
X136067550Y-64801111D01*
X136066932Y-64861821D01*
X136066375Y-64882889D01*
X136065733Y-64907196D01*
G37*
X143157417Y-64481227D02*
X143157470Y-64561841D01*
X143157222Y-64662756D01*
X143157183Y-64738417D01*
X143156928Y-64816326D01*
X143156284Y-64876336D01*
X143155080Y-64921064D01*
X143153143Y-64953126D01*
X143150303Y-64975140D01*
X143146388Y-64989724D01*
X143141226Y-64999494D01*
X143134645Y-65007067D01*
X143127677Y-65013301D01*
X143114679Y-65020601D01*
X143095531Y-65025354D01*
X143066128Y-65028092D01*
X143022362Y-65029345D01*
X142960128Y-65029645D01*
X142911182Y-65029269D01*
X142804322Y-65024841D01*
X142715094Y-65014753D01*
X142640296Y-64998165D01*
X142576725Y-64974235D01*
X142521179Y-64942121D01*
X142470454Y-64900982D01*
X142464466Y-64895130D01*
X142427599Y-64846621D01*
X142396499Y-64785813D01*
X142375017Y-64721569D01*
X142369736Y-64682826D01*
X142516953Y-64682826D01*
X142535235Y-64733761D01*
X142564905Y-64779678D01*
X142611602Y-64822087D01*
X142672992Y-64851890D01*
X142752138Y-64871026D01*
X142753628Y-64871264D01*
X142802599Y-64877056D01*
X142861293Y-64881196D01*
X142917334Y-64882804D01*
X143010467Y-64882889D01*
X143010467Y-64442622D01*
X142934267Y-64442608D01*
X142931239Y-64442617D01*
X142880119Y-64444582D01*
X142820016Y-64449307D01*
X142763308Y-64455835D01*
X142713350Y-64465131D01*
X142638598Y-64491400D01*
X142581089Y-64530699D01*
X142539588Y-64583733D01*
X142518371Y-64635000D01*
X142516953Y-64682826D01*
X142369736Y-64682826D01*
X142367000Y-64662756D01*
X142368279Y-64641539D01*
X142380591Y-64584123D01*
X142403120Y-64524213D01*
X142432350Y-64470163D01*
X142464767Y-64430332D01*
X142484308Y-64413310D01*
X142539020Y-64374122D01*
X142599323Y-64343993D01*
X142668519Y-64322032D01*
X142749911Y-64307350D01*
X142846800Y-64299059D01*
X142962489Y-64296267D01*
X143001971Y-64295866D01*
X143047682Y-64295453D01*
X143083483Y-64297257D01*
X143110574Y-64303539D01*
X143130156Y-64316559D01*
X143143430Y-64338578D01*
X143151598Y-64371855D01*
X143155860Y-64418651D01*
X143156457Y-64442622D01*
X143157417Y-64481227D01*
G36*
X143157417Y-64481227D02*
G01*
X143157470Y-64561841D01*
X143157222Y-64662756D01*
X143157183Y-64738417D01*
X143156928Y-64816326D01*
X143156284Y-64876336D01*
X143155080Y-64921064D01*
X143153143Y-64953126D01*
X143150303Y-64975140D01*
X143146388Y-64989724D01*
X143141226Y-64999494D01*
X143134645Y-65007067D01*
X143127677Y-65013301D01*
X143114679Y-65020601D01*
X143095531Y-65025354D01*
X143066128Y-65028092D01*
X143022362Y-65029345D01*
X142960128Y-65029645D01*
X142911182Y-65029269D01*
X142804322Y-65024841D01*
X142715094Y-65014753D01*
X142640296Y-64998165D01*
X142576725Y-64974235D01*
X142521179Y-64942121D01*
X142470454Y-64900982D01*
X142464466Y-64895130D01*
X142427599Y-64846621D01*
X142396499Y-64785813D01*
X142375017Y-64721569D01*
X142369736Y-64682826D01*
X142516953Y-64682826D01*
X142535235Y-64733761D01*
X142564905Y-64779678D01*
X142611602Y-64822087D01*
X142672992Y-64851890D01*
X142752138Y-64871026D01*
X142753628Y-64871264D01*
X142802599Y-64877056D01*
X142861293Y-64881196D01*
X142917334Y-64882804D01*
X143010467Y-64882889D01*
X143010467Y-64442622D01*
X142934267Y-64442608D01*
X142931239Y-64442617D01*
X142880119Y-64444582D01*
X142820016Y-64449307D01*
X142763308Y-64455835D01*
X142713350Y-64465131D01*
X142638598Y-64491400D01*
X142581089Y-64530699D01*
X142539588Y-64583733D01*
X142518371Y-64635000D01*
X142516953Y-64682826D01*
X142369736Y-64682826D01*
X142367000Y-64662756D01*
X142368279Y-64641539D01*
X142380591Y-64584123D01*
X142403120Y-64524213D01*
X142432350Y-64470163D01*
X142464767Y-64430332D01*
X142484308Y-64413310D01*
X142539020Y-64374122D01*
X142599323Y-64343993D01*
X142668519Y-64322032D01*
X142749911Y-64307350D01*
X142846800Y-64299059D01*
X142962489Y-64296267D01*
X143001971Y-64295866D01*
X143047682Y-64295453D01*
X143083483Y-64297257D01*
X143110574Y-64303539D01*
X143130156Y-64316559D01*
X143143430Y-64338578D01*
X143151598Y-64371855D01*
X143155860Y-64418651D01*
X143156457Y-64442622D01*
X143157417Y-64481227D01*
G37*
X138212493Y-64294692D02*
X138223901Y-64300829D01*
X138234450Y-64311491D01*
X138245736Y-64325611D01*
X138250189Y-64331572D01*
X138256188Y-64342068D01*
X138260767Y-64355893D01*
X138264119Y-64375798D01*
X138266433Y-64404532D01*
X138267901Y-64444845D01*
X138268713Y-64499487D01*
X138269060Y-64571207D01*
X138269134Y-64662756D01*
X138269111Y-64721286D01*
X138268892Y-64800373D01*
X138268283Y-64861316D01*
X138267092Y-64906862D01*
X138265129Y-64939763D01*
X138262203Y-64962768D01*
X138258123Y-64978626D01*
X138252697Y-64990086D01*
X138245736Y-64999900D01*
X138215308Y-65024293D01*
X138180365Y-65027172D01*
X138143384Y-65008082D01*
X138139200Y-65004607D01*
X138131024Y-64996079D01*
X138124964Y-64984528D01*
X138120581Y-64966696D01*
X138117439Y-64939324D01*
X138115102Y-64899154D01*
X138113131Y-64842928D01*
X138111089Y-64767389D01*
X138105445Y-64548258D01*
X137840156Y-64788899D01*
X137766322Y-64855675D01*
X137701142Y-64913791D01*
X137648948Y-64958749D01*
X137607873Y-64991671D01*
X137576055Y-65013679D01*
X137551626Y-65025894D01*
X137532724Y-65029439D01*
X137517483Y-65025436D01*
X137504039Y-65015007D01*
X137490527Y-64999274D01*
X137484282Y-64990791D01*
X137478650Y-64980213D01*
X137474439Y-64966055D01*
X137471487Y-64945603D01*
X137469632Y-64916142D01*
X137468713Y-64874961D01*
X137468568Y-64819344D01*
X137469035Y-64746579D01*
X137469952Y-64653951D01*
X137473267Y-64338999D01*
X137499918Y-64317433D01*
X137525983Y-64301241D01*
X137558841Y-64298470D01*
X137593372Y-64317423D01*
X137597684Y-64321008D01*
X137605816Y-64329537D01*
X137611845Y-64341129D01*
X137616206Y-64359035D01*
X137619334Y-64386506D01*
X137621663Y-64426794D01*
X137623629Y-64483151D01*
X137625667Y-64558829D01*
X137631311Y-64778678D01*
X137811934Y-64614884D01*
X137898672Y-64536251D01*
X137974443Y-64467858D01*
X138036580Y-64412508D01*
X138086678Y-64369138D01*
X138126335Y-64336681D01*
X138157148Y-64314073D01*
X138180714Y-64300248D01*
X138198630Y-64294143D01*
X138212493Y-64294692D01*
G36*
X138212493Y-64294692D02*
G01*
X138223901Y-64300829D01*
X138234450Y-64311491D01*
X138245736Y-64325611D01*
X138250189Y-64331572D01*
X138256188Y-64342068D01*
X138260767Y-64355893D01*
X138264119Y-64375798D01*
X138266433Y-64404532D01*
X138267901Y-64444845D01*
X138268713Y-64499487D01*
X138269060Y-64571207D01*
X138269134Y-64662756D01*
X138269111Y-64721286D01*
X138268892Y-64800373D01*
X138268283Y-64861316D01*
X138267092Y-64906862D01*
X138265129Y-64939763D01*
X138262203Y-64962768D01*
X138258123Y-64978626D01*
X138252697Y-64990086D01*
X138245736Y-64999900D01*
X138215308Y-65024293D01*
X138180365Y-65027172D01*
X138143384Y-65008082D01*
X138139200Y-65004607D01*
X138131024Y-64996079D01*
X138124964Y-64984528D01*
X138120581Y-64966696D01*
X138117439Y-64939324D01*
X138115102Y-64899154D01*
X138113131Y-64842928D01*
X138111089Y-64767389D01*
X138105445Y-64548258D01*
X137840156Y-64788899D01*
X137766322Y-64855675D01*
X137701142Y-64913791D01*
X137648948Y-64958749D01*
X137607873Y-64991671D01*
X137576055Y-65013679D01*
X137551626Y-65025894D01*
X137532724Y-65029439D01*
X137517483Y-65025436D01*
X137504039Y-65015007D01*
X137490527Y-64999274D01*
X137484282Y-64990791D01*
X137478650Y-64980213D01*
X137474439Y-64966055D01*
X137471487Y-64945603D01*
X137469632Y-64916142D01*
X137468713Y-64874961D01*
X137468568Y-64819344D01*
X137469035Y-64746579D01*
X137469952Y-64653951D01*
X137473267Y-64338999D01*
X137499918Y-64317433D01*
X137525983Y-64301241D01*
X137558841Y-64298470D01*
X137593372Y-64317423D01*
X137597684Y-64321008D01*
X137605816Y-64329537D01*
X137611845Y-64341129D01*
X137616206Y-64359035D01*
X137619334Y-64386506D01*
X137621663Y-64426794D01*
X137623629Y-64483151D01*
X137625667Y-64558829D01*
X137631311Y-64778678D01*
X137811934Y-64614884D01*
X137898672Y-64536251D01*
X137974443Y-64467858D01*
X138036580Y-64412508D01*
X138086678Y-64369138D01*
X138126335Y-64336681D01*
X138157148Y-64314073D01*
X138180714Y-64300248D01*
X138198630Y-64294143D01*
X138212493Y-64294692D01*
G37*
X139009750Y-64300979D02*
X139115757Y-64317294D01*
X139209569Y-64345345D01*
X139288365Y-64384252D01*
X139349319Y-64433134D01*
X139375389Y-64465995D01*
X139404897Y-64515194D01*
X139430168Y-64569052D01*
X139447818Y-64620219D01*
X139454458Y-64661344D01*
X139452898Y-64681059D01*
X139439957Y-64732392D01*
X139416794Y-64788918D01*
X139386902Y-64842835D01*
X139353773Y-64886339D01*
X139343577Y-64896687D01*
X139276492Y-64948462D01*
X139196366Y-64988354D01*
X139110156Y-65012756D01*
X139055192Y-65020868D01*
X138961739Y-65027473D01*
X138871958Y-65025386D01*
X138789469Y-65015140D01*
X138717886Y-64997270D01*
X138660828Y-64972308D01*
X138621911Y-64940788D01*
X138620536Y-64938812D01*
X138613448Y-64913586D01*
X138609209Y-64866335D01*
X138607800Y-64796871D01*
X138608660Y-64734638D01*
X138613380Y-64687256D01*
X138625070Y-64655153D01*
X138646839Y-64635600D01*
X138681798Y-64625870D01*
X138733056Y-64623233D01*
X138803723Y-64624961D01*
X138852343Y-64627973D01*
X138902539Y-64636166D01*
X138935033Y-64650219D01*
X138952492Y-64671454D01*
X138957583Y-64701194D01*
X138957477Y-64705736D01*
X138948775Y-64740530D01*
X138924765Y-64763947D01*
X138883500Y-64777147D01*
X138823031Y-64781289D01*
X138754556Y-64781289D01*
X138754556Y-64819641D01*
X138754606Y-64828776D01*
X138756827Y-64846027D01*
X138766094Y-64856321D01*
X138787475Y-64863259D01*
X138826036Y-64870441D01*
X138831510Y-64871375D01*
X138928460Y-64881278D01*
X139018452Y-64878359D01*
X139099360Y-64863629D01*
X139169059Y-64838099D01*
X139225424Y-64802778D01*
X139266329Y-64758679D01*
X139289651Y-64706812D01*
X139293263Y-64648188D01*
X139287745Y-64619294D01*
X139261061Y-64563404D01*
X139214873Y-64517745D01*
X139149891Y-64482908D01*
X139066829Y-64459490D01*
X139042155Y-64455041D01*
X138952826Y-64444542D01*
X138873019Y-64445771D01*
X138794926Y-64458706D01*
X138759783Y-64465496D01*
X138714345Y-64466513D01*
X138683030Y-64453982D01*
X138662877Y-64427195D01*
X138656493Y-64398948D01*
X138665979Y-64367724D01*
X138675308Y-64354299D01*
X138709543Y-64330767D01*
X138762165Y-64312895D01*
X138830681Y-64301399D01*
X138912600Y-64296992D01*
X139009750Y-64300979D01*
G36*
X139009750Y-64300979D02*
G01*
X139115757Y-64317294D01*
X139209569Y-64345345D01*
X139288365Y-64384252D01*
X139349319Y-64433134D01*
X139375389Y-64465995D01*
X139404897Y-64515194D01*
X139430168Y-64569052D01*
X139447818Y-64620219D01*
X139454458Y-64661344D01*
X139452898Y-64681059D01*
X139439957Y-64732392D01*
X139416794Y-64788918D01*
X139386902Y-64842835D01*
X139353773Y-64886339D01*
X139343577Y-64896687D01*
X139276492Y-64948462D01*
X139196366Y-64988354D01*
X139110156Y-65012756D01*
X139055192Y-65020868D01*
X138961739Y-65027473D01*
X138871958Y-65025386D01*
X138789469Y-65015140D01*
X138717886Y-64997270D01*
X138660828Y-64972308D01*
X138621911Y-64940788D01*
X138620536Y-64938812D01*
X138613448Y-64913586D01*
X138609209Y-64866335D01*
X138607800Y-64796871D01*
X138608660Y-64734638D01*
X138613380Y-64687256D01*
X138625070Y-64655153D01*
X138646839Y-64635600D01*
X138681798Y-64625870D01*
X138733056Y-64623233D01*
X138803723Y-64624961D01*
X138852343Y-64627973D01*
X138902539Y-64636166D01*
X138935033Y-64650219D01*
X138952492Y-64671454D01*
X138957583Y-64701194D01*
X138957477Y-64705736D01*
X138948775Y-64740530D01*
X138924765Y-64763947D01*
X138883500Y-64777147D01*
X138823031Y-64781289D01*
X138754556Y-64781289D01*
X138754556Y-64819641D01*
X138754606Y-64828776D01*
X138756827Y-64846027D01*
X138766094Y-64856321D01*
X138787475Y-64863259D01*
X138826036Y-64870441D01*
X138831510Y-64871375D01*
X138928460Y-64881278D01*
X139018452Y-64878359D01*
X139099360Y-64863629D01*
X139169059Y-64838099D01*
X139225424Y-64802778D01*
X139266329Y-64758679D01*
X139289651Y-64706812D01*
X139293263Y-64648188D01*
X139287745Y-64619294D01*
X139261061Y-64563404D01*
X139214873Y-64517745D01*
X139149891Y-64482908D01*
X139066829Y-64459490D01*
X139042155Y-64455041D01*
X138952826Y-64444542D01*
X138873019Y-64445771D01*
X138794926Y-64458706D01*
X138759783Y-64465496D01*
X138714345Y-64466513D01*
X138683030Y-64453982D01*
X138662877Y-64427195D01*
X138656493Y-64398948D01*
X138665979Y-64367724D01*
X138675308Y-64354299D01*
X138709543Y-64330767D01*
X138762165Y-64312895D01*
X138830681Y-64301399D01*
X138912600Y-64296992D01*
X139009750Y-64300979D01*
G37*
X137060403Y-64325611D02*
X137065352Y-64332295D01*
X137071196Y-64342866D01*
X137075657Y-64356953D01*
X137078921Y-64377278D01*
X137081174Y-64406565D01*
X137082602Y-64447537D01*
X137083392Y-64502917D01*
X137083729Y-64575428D01*
X137083800Y-64667794D01*
X137083771Y-64733711D01*
X137083539Y-64812028D01*
X137082919Y-64872296D01*
X137081726Y-64917193D01*
X137079779Y-64949402D01*
X137076894Y-64971600D01*
X137072888Y-64986469D01*
X137067579Y-64996689D01*
X137060783Y-65004938D01*
X137056268Y-65009595D01*
X137048038Y-65016082D01*
X137036678Y-65020994D01*
X137019410Y-65024549D01*
X136993455Y-65026967D01*
X136956036Y-65028467D01*
X136904373Y-65029267D01*
X136835689Y-65029587D01*
X136747206Y-65029645D01*
X136727531Y-65029638D01*
X136640506Y-65029372D01*
X136572854Y-65028606D01*
X136521899Y-65027192D01*
X136484967Y-65024980D01*
X136459383Y-65021822D01*
X136442471Y-65017569D01*
X136431557Y-65012071D01*
X136421064Y-65002085D01*
X136407803Y-64970968D01*
X136408986Y-64935080D01*
X136425150Y-64903533D01*
X136427339Y-64901257D01*
X136436027Y-64894989D01*
X136449369Y-64890323D01*
X136470352Y-64887027D01*
X136501963Y-64884868D01*
X136547190Y-64883614D01*
X136609020Y-64883031D01*
X136690439Y-64882889D01*
X136937045Y-64882889D01*
X136937045Y-64724845D01*
X136774606Y-64724845D01*
X136738938Y-64724764D01*
X136683168Y-64723967D01*
X136644030Y-64721962D01*
X136617576Y-64718321D01*
X136599859Y-64712612D01*
X136586929Y-64704407D01*
X136583286Y-64701223D01*
X136564878Y-64670248D01*
X136564244Y-64633912D01*
X136581783Y-64600293D01*
X136581845Y-64600224D01*
X136591516Y-64591598D01*
X136604809Y-64585542D01*
X136625517Y-64581611D01*
X136657428Y-64579356D01*
X136704334Y-64578331D01*
X136770024Y-64578089D01*
X136938171Y-64578089D01*
X136934786Y-64513178D01*
X136931400Y-64448267D01*
X136689323Y-64445214D01*
X136664307Y-64444886D01*
X136582687Y-64443406D01*
X136520368Y-64441022D01*
X136474754Y-64437027D01*
X136443252Y-64430713D01*
X136423267Y-64421374D01*
X136412204Y-64408303D01*
X136407469Y-64390792D01*
X136406467Y-64368135D01*
X136406473Y-64365770D01*
X136407627Y-64345739D01*
X136412424Y-64329946D01*
X136423232Y-64317890D01*
X136442417Y-64309067D01*
X136472345Y-64302975D01*
X136515383Y-64299111D01*
X136573899Y-64296974D01*
X136650257Y-64296060D01*
X136746826Y-64295867D01*
X137037006Y-64295867D01*
X137060403Y-64325611D01*
G36*
X137060403Y-64325611D02*
G01*
X137065352Y-64332295D01*
X137071196Y-64342866D01*
X137075657Y-64356953D01*
X137078921Y-64377278D01*
X137081174Y-64406565D01*
X137082602Y-64447537D01*
X137083392Y-64502917D01*
X137083729Y-64575428D01*
X137083800Y-64667794D01*
X137083771Y-64733711D01*
X137083539Y-64812028D01*
X137082919Y-64872296D01*
X137081726Y-64917193D01*
X137079779Y-64949402D01*
X137076894Y-64971600D01*
X137072888Y-64986469D01*
X137067579Y-64996689D01*
X137060783Y-65004938D01*
X137056268Y-65009595D01*
X137048038Y-65016082D01*
X137036678Y-65020994D01*
X137019410Y-65024549D01*
X136993455Y-65026967D01*
X136956036Y-65028467D01*
X136904373Y-65029267D01*
X136835689Y-65029587D01*
X136747206Y-65029645D01*
X136727531Y-65029638D01*
X136640506Y-65029372D01*
X136572854Y-65028606D01*
X136521899Y-65027192D01*
X136484967Y-65024980D01*
X136459383Y-65021822D01*
X136442471Y-65017569D01*
X136431557Y-65012071D01*
X136421064Y-65002085D01*
X136407803Y-64970968D01*
X136408986Y-64935080D01*
X136425150Y-64903533D01*
X136427339Y-64901257D01*
X136436027Y-64894989D01*
X136449369Y-64890323D01*
X136470352Y-64887027D01*
X136501963Y-64884868D01*
X136547190Y-64883614D01*
X136609020Y-64883031D01*
X136690439Y-64882889D01*
X136937045Y-64882889D01*
X136937045Y-64724845D01*
X136774606Y-64724845D01*
X136738938Y-64724764D01*
X136683168Y-64723967D01*
X136644030Y-64721962D01*
X136617576Y-64718321D01*
X136599859Y-64712612D01*
X136586929Y-64704407D01*
X136583286Y-64701223D01*
X136564878Y-64670248D01*
X136564244Y-64633912D01*
X136581783Y-64600293D01*
X136581845Y-64600224D01*
X136591516Y-64591598D01*
X136604809Y-64585542D01*
X136625517Y-64581611D01*
X136657428Y-64579356D01*
X136704334Y-64578331D01*
X136770024Y-64578089D01*
X136938171Y-64578089D01*
X136934786Y-64513178D01*
X136931400Y-64448267D01*
X136689323Y-64445214D01*
X136664307Y-64444886D01*
X136582687Y-64443406D01*
X136520368Y-64441022D01*
X136474754Y-64437027D01*
X136443252Y-64430713D01*
X136423267Y-64421374D01*
X136412204Y-64408303D01*
X136407469Y-64390792D01*
X136406467Y-64368135D01*
X136406473Y-64365770D01*
X136407627Y-64345739D01*
X136412424Y-64329946D01*
X136423232Y-64317890D01*
X136442417Y-64309067D01*
X136472345Y-64302975D01*
X136515383Y-64299111D01*
X136573899Y-64296974D01*
X136650257Y-64296060D01*
X136746826Y-64295867D01*
X137037006Y-64295867D01*
X137060403Y-64325611D01*
G37*
X141737334Y-64295883D02*
X141814431Y-64296075D01*
X141873377Y-64296660D01*
X141916964Y-64297851D01*
X141947983Y-64299864D01*
X141969225Y-64302912D01*
X141983482Y-64307209D01*
X141993545Y-64312972D01*
X142002206Y-64320412D01*
X142003991Y-64322093D01*
X142011235Y-64329632D01*
X142016877Y-64338650D01*
X142021117Y-64351784D01*
X142024156Y-64371672D01*
X142026194Y-64400951D01*
X142027430Y-64442258D01*
X142028065Y-64498231D01*
X142028300Y-64571507D01*
X142028334Y-64664723D01*
X142028297Y-64737513D01*
X142028048Y-64815689D01*
X142027412Y-64875903D01*
X142026215Y-64920782D01*
X142024284Y-64952952D01*
X142021446Y-64975039D01*
X142017527Y-64989670D01*
X142012355Y-64999470D01*
X142005756Y-65007067D01*
X142002422Y-65010244D01*
X141993900Y-65016354D01*
X141981898Y-65021029D01*
X141963687Y-65024459D01*
X141936540Y-65026836D01*
X141897729Y-65028352D01*
X141844524Y-65029198D01*
X141774198Y-65029565D01*
X141684022Y-65029645D01*
X141641914Y-65029633D01*
X141560767Y-65029451D01*
X141498275Y-65028898D01*
X141451709Y-65027782D01*
X141418341Y-65025913D01*
X141395444Y-65023098D01*
X141380288Y-65019146D01*
X141370146Y-65013866D01*
X141362289Y-65007067D01*
X141347563Y-64985467D01*
X141339711Y-64956267D01*
X141345210Y-64932360D01*
X141362289Y-64905467D01*
X141367268Y-64900859D01*
X141377043Y-64894572D01*
X141391159Y-64889946D01*
X141412654Y-64886730D01*
X141444568Y-64884670D01*
X141489942Y-64883512D01*
X141551813Y-64883002D01*
X141633222Y-64882889D01*
X141881578Y-64882889D01*
X141881578Y-64724845D01*
X141720401Y-64724845D01*
X141684583Y-64724699D01*
X141618959Y-64722976D01*
X141571718Y-64718541D01*
X141539983Y-64710437D01*
X141520877Y-64697706D01*
X141511523Y-64679392D01*
X141509045Y-64654538D01*
X141509842Y-64634282D01*
X141515094Y-64612456D01*
X141527888Y-64597104D01*
X141551228Y-64587109D01*
X141588117Y-64581353D01*
X141641559Y-64578719D01*
X141714558Y-64578089D01*
X141882705Y-64578089D01*
X141879319Y-64513178D01*
X141875934Y-64448267D01*
X141628217Y-64445218D01*
X141565626Y-64444339D01*
X141497165Y-64442895D01*
X141446261Y-64440964D01*
X141410008Y-64438314D01*
X141385501Y-64434710D01*
X141369835Y-64429921D01*
X141360106Y-64423713D01*
X141354091Y-64417310D01*
X141341082Y-64385628D01*
X141344643Y-64349942D01*
X141364418Y-64318884D01*
X141367669Y-64315961D01*
X141376649Y-64309610D01*
X141388753Y-64304757D01*
X141406759Y-64301203D01*
X141433447Y-64298746D01*
X141471597Y-64297185D01*
X141523986Y-64296318D01*
X141593394Y-64295946D01*
X141682601Y-64295867D01*
X141737334Y-64295883D01*
G36*
X141737334Y-64295883D02*
G01*
X141814431Y-64296075D01*
X141873377Y-64296660D01*
X141916964Y-64297851D01*
X141947983Y-64299864D01*
X141969225Y-64302912D01*
X141983482Y-64307209D01*
X141993545Y-64312972D01*
X142002206Y-64320412D01*
X142003991Y-64322093D01*
X142011235Y-64329632D01*
X142016877Y-64338650D01*
X142021117Y-64351784D01*
X142024156Y-64371672D01*
X142026194Y-64400951D01*
X142027430Y-64442258D01*
X142028065Y-64498231D01*
X142028300Y-64571507D01*
X142028334Y-64664723D01*
X142028297Y-64737513D01*
X142028048Y-64815689D01*
X142027412Y-64875903D01*
X142026215Y-64920782D01*
X142024284Y-64952952D01*
X142021446Y-64975039D01*
X142017527Y-64989670D01*
X142012355Y-64999470D01*
X142005756Y-65007067D01*
X142002422Y-65010244D01*
X141993900Y-65016354D01*
X141981898Y-65021029D01*
X141963687Y-65024459D01*
X141936540Y-65026836D01*
X141897729Y-65028352D01*
X141844524Y-65029198D01*
X141774198Y-65029565D01*
X141684022Y-65029645D01*
X141641914Y-65029633D01*
X141560767Y-65029451D01*
X141498275Y-65028898D01*
X141451709Y-65027782D01*
X141418341Y-65025913D01*
X141395444Y-65023098D01*
X141380288Y-65019146D01*
X141370146Y-65013866D01*
X141362289Y-65007067D01*
X141347563Y-64985467D01*
X141339711Y-64956267D01*
X141345210Y-64932360D01*
X141362289Y-64905467D01*
X141367268Y-64900859D01*
X141377043Y-64894572D01*
X141391159Y-64889946D01*
X141412654Y-64886730D01*
X141444568Y-64884670D01*
X141489942Y-64883512D01*
X141551813Y-64883002D01*
X141633222Y-64882889D01*
X141881578Y-64882889D01*
X141881578Y-64724845D01*
X141720401Y-64724845D01*
X141684583Y-64724699D01*
X141618959Y-64722976D01*
X141571718Y-64718541D01*
X141539983Y-64710437D01*
X141520877Y-64697706D01*
X141511523Y-64679392D01*
X141509045Y-64654538D01*
X141509842Y-64634282D01*
X141515094Y-64612456D01*
X141527888Y-64597104D01*
X141551228Y-64587109D01*
X141588117Y-64581353D01*
X141641559Y-64578719D01*
X141714558Y-64578089D01*
X141882705Y-64578089D01*
X141879319Y-64513178D01*
X141875934Y-64448267D01*
X141628217Y-64445218D01*
X141565626Y-64444339D01*
X141497165Y-64442895D01*
X141446261Y-64440964D01*
X141410008Y-64438314D01*
X141385501Y-64434710D01*
X141369835Y-64429921D01*
X141360106Y-64423713D01*
X141354091Y-64417310D01*
X141341082Y-64385628D01*
X141344643Y-64349942D01*
X141364418Y-64318884D01*
X141367669Y-64315961D01*
X141376649Y-64309610D01*
X141388753Y-64304757D01*
X141406759Y-64301203D01*
X141433447Y-64298746D01*
X141471597Y-64297185D01*
X141523986Y-64296318D01*
X141593394Y-64295946D01*
X141682601Y-64295867D01*
X141737334Y-64295883D01*
G37*
X133170302Y-64305278D02*
X133188263Y-64323789D01*
X133208863Y-64354871D01*
X133233695Y-64400556D01*
X133264350Y-64462878D01*
X133302420Y-64543871D01*
X133317054Y-64575254D01*
X133346803Y-64638438D01*
X133372897Y-64693044D01*
X133393892Y-64736090D01*
X133408339Y-64764593D01*
X133414791Y-64775570D01*
X133416150Y-64774989D01*
X133426142Y-64761042D01*
X133443433Y-64731504D01*
X133466030Y-64689887D01*
X133491938Y-64639703D01*
X133507911Y-64608214D01*
X133536861Y-64552861D01*
X133559349Y-64513844D01*
X133577565Y-64488366D01*
X133593696Y-64473631D01*
X133609930Y-64466842D01*
X133628457Y-64465200D01*
X133638960Y-64465675D01*
X133655076Y-64469882D01*
X133670390Y-64480746D01*
X133686988Y-64501019D01*
X133706957Y-64533454D01*
X133732383Y-64580804D01*
X133765352Y-64645822D01*
X133775085Y-64665077D01*
X133799543Y-64711746D01*
X133819778Y-64747909D01*
X133833911Y-64770297D01*
X133840060Y-64775645D01*
X133841427Y-64772373D01*
X133850802Y-64751464D01*
X133867662Y-64714525D01*
X133890579Y-64664674D01*
X133918120Y-64605026D01*
X133948855Y-64538698D01*
X133975570Y-64481477D01*
X134005193Y-64419488D01*
X134028264Y-64373749D01*
X134046243Y-64341708D01*
X134060590Y-64320814D01*
X134072766Y-64308518D01*
X134084232Y-64302266D01*
X134093642Y-64299374D01*
X134118747Y-64299225D01*
X134145890Y-64314568D01*
X134147190Y-64315553D01*
X134169274Y-64338188D01*
X134180323Y-64360413D01*
X134180369Y-64361053D01*
X134175828Y-64378715D01*
X134162964Y-64413281D01*
X134143205Y-64461626D01*
X134117981Y-64520625D01*
X134088719Y-64587155D01*
X134056850Y-64658091D01*
X134023801Y-64730307D01*
X133991001Y-64800680D01*
X133959880Y-64866085D01*
X133931865Y-64923397D01*
X133908386Y-64969492D01*
X133890872Y-65001246D01*
X133880751Y-65015533D01*
X133846343Y-65028902D01*
X133804646Y-65022541D01*
X133799281Y-65017844D01*
X133783452Y-64995693D01*
X133761250Y-64958932D01*
X133734833Y-64911215D01*
X133706360Y-64856193D01*
X133626586Y-64696950D01*
X133553399Y-64843542D01*
X133543703Y-64862832D01*
X133516725Y-64915180D01*
X133492696Y-64959970D01*
X133473932Y-64992954D01*
X133462746Y-65009889D01*
X133461600Y-65011132D01*
X133433479Y-65026419D01*
X133398417Y-65028102D01*
X133367376Y-65015533D01*
X133364950Y-65012684D01*
X133352690Y-64992059D01*
X133332952Y-64954508D01*
X133307048Y-64902680D01*
X133276285Y-64839223D01*
X133241975Y-64766785D01*
X133205425Y-64688016D01*
X133185185Y-64643893D01*
X133148412Y-64563165D01*
X133119955Y-64499487D01*
X133098931Y-64450552D01*
X133084454Y-64414057D01*
X133075639Y-64387695D01*
X133071604Y-64369161D01*
X133071462Y-64356152D01*
X133074330Y-64346361D01*
X133088987Y-64325478D01*
X133115590Y-64305177D01*
X133116345Y-64304835D01*
X133135935Y-64297834D01*
X133153390Y-64297304D01*
X133170302Y-64305278D01*
G36*
X133170302Y-64305278D02*
G01*
X133188263Y-64323789D01*
X133208863Y-64354871D01*
X133233695Y-64400556D01*
X133264350Y-64462878D01*
X133302420Y-64543871D01*
X133317054Y-64575254D01*
X133346803Y-64638438D01*
X133372897Y-64693044D01*
X133393892Y-64736090D01*
X133408339Y-64764593D01*
X133414791Y-64775570D01*
X133416150Y-64774989D01*
X133426142Y-64761042D01*
X133443433Y-64731504D01*
X133466030Y-64689887D01*
X133491938Y-64639703D01*
X133507911Y-64608214D01*
X133536861Y-64552861D01*
X133559349Y-64513844D01*
X133577565Y-64488366D01*
X133593696Y-64473631D01*
X133609930Y-64466842D01*
X133628457Y-64465200D01*
X133638960Y-64465675D01*
X133655076Y-64469882D01*
X133670390Y-64480746D01*
X133686988Y-64501019D01*
X133706957Y-64533454D01*
X133732383Y-64580804D01*
X133765352Y-64645822D01*
X133775085Y-64665077D01*
X133799543Y-64711746D01*
X133819778Y-64747909D01*
X133833911Y-64770297D01*
X133840060Y-64775645D01*
X133841427Y-64772373D01*
X133850802Y-64751464D01*
X133867662Y-64714525D01*
X133890579Y-64664674D01*
X133918120Y-64605026D01*
X133948855Y-64538698D01*
X133975570Y-64481477D01*
X134005193Y-64419488D01*
X134028264Y-64373749D01*
X134046243Y-64341708D01*
X134060590Y-64320814D01*
X134072766Y-64308518D01*
X134084232Y-64302266D01*
X134093642Y-64299374D01*
X134118747Y-64299225D01*
X134145890Y-64314568D01*
X134147190Y-64315553D01*
X134169274Y-64338188D01*
X134180323Y-64360413D01*
X134180369Y-64361053D01*
X134175828Y-64378715D01*
X134162964Y-64413281D01*
X134143205Y-64461626D01*
X134117981Y-64520625D01*
X134088719Y-64587155D01*
X134056850Y-64658091D01*
X134023801Y-64730307D01*
X133991001Y-64800680D01*
X133959880Y-64866085D01*
X133931865Y-64923397D01*
X133908386Y-64969492D01*
X133890872Y-65001246D01*
X133880751Y-65015533D01*
X133846343Y-65028902D01*
X133804646Y-65022541D01*
X133799281Y-65017844D01*
X133783452Y-64995693D01*
X133761250Y-64958932D01*
X133734833Y-64911215D01*
X133706360Y-64856193D01*
X133626586Y-64696950D01*
X133553399Y-64843542D01*
X133543703Y-64862832D01*
X133516725Y-64915180D01*
X133492696Y-64959970D01*
X133473932Y-64992954D01*
X133462746Y-65009889D01*
X133461600Y-65011132D01*
X133433479Y-65026419D01*
X133398417Y-65028102D01*
X133367376Y-65015533D01*
X133364950Y-65012684D01*
X133352690Y-64992059D01*
X133332952Y-64954508D01*
X133307048Y-64902680D01*
X133276285Y-64839223D01*
X133241975Y-64766785D01*
X133205425Y-64688016D01*
X133185185Y-64643893D01*
X133148412Y-64563165D01*
X133119955Y-64499487D01*
X133098931Y-64450552D01*
X133084454Y-64414057D01*
X133075639Y-64387695D01*
X133071604Y-64369161D01*
X133071462Y-64356152D01*
X133074330Y-64346361D01*
X133088987Y-64325478D01*
X133115590Y-64305177D01*
X133116345Y-64304835D01*
X133135935Y-64297834D01*
X133153390Y-64297304D01*
X133170302Y-64305278D01*
G37*
X140721453Y-64296736D02*
X140787700Y-64302166D01*
X140843000Y-64311764D01*
X140893883Y-64326625D01*
X140965195Y-64359758D01*
X141016352Y-64402440D01*
X141047175Y-64454505D01*
X141057489Y-64515783D01*
X141056552Y-64547032D01*
X141050760Y-64571829D01*
X141035953Y-64593499D01*
X141007980Y-64620849D01*
X141000002Y-64628178D01*
X140976292Y-64649081D01*
X140953898Y-64666051D01*
X140929865Y-64680005D01*
X140901237Y-64691856D01*
X140865060Y-64702520D01*
X140818380Y-64712911D01*
X140758241Y-64723946D01*
X140681690Y-64736538D01*
X140585771Y-64751604D01*
X140567408Y-64754638D01*
X140505078Y-64768258D01*
X140459860Y-64783992D01*
X140433576Y-64801063D01*
X140428047Y-64818697D01*
X140430668Y-64822968D01*
X140448600Y-64838033D01*
X140476726Y-64854667D01*
X140489526Y-64860657D01*
X140510824Y-64867850D01*
X140537210Y-64872627D01*
X140573054Y-64875446D01*
X140622728Y-64876764D01*
X140690600Y-64877037D01*
X140708385Y-64876964D01*
X140776006Y-64875853D01*
X140840945Y-64873628D01*
X140896570Y-64870562D01*
X140936251Y-64866927D01*
X140971762Y-64862859D01*
X141001015Y-64862076D01*
X141019915Y-64866676D01*
X141035029Y-64877351D01*
X141038685Y-64880944D01*
X141055027Y-64912718D01*
X141053707Y-64948372D01*
X141034750Y-64978990D01*
X141014380Y-64990596D01*
X140978396Y-65003291D01*
X140935972Y-65013341D01*
X140932522Y-65013940D01*
X140889852Y-65019156D01*
X140832466Y-65023530D01*
X140767449Y-65026618D01*
X140701889Y-65027977D01*
X140685657Y-65028018D01*
X140587344Y-65025541D01*
X140507292Y-65017535D01*
X140442113Y-65003003D01*
X140388417Y-64980949D01*
X140342816Y-64950376D01*
X140301923Y-64910286D01*
X140281802Y-64884059D01*
X140270176Y-64854512D01*
X140267267Y-64814795D01*
X140267408Y-64802826D01*
X140271281Y-64770145D01*
X140283665Y-64743619D01*
X140308830Y-64712771D01*
X140330042Y-64690631D01*
X140356438Y-64668085D01*
X140386155Y-64649717D01*
X140422385Y-64634461D01*
X140468317Y-64621249D01*
X140527144Y-64609014D01*
X140602056Y-64596689D01*
X140696245Y-64583206D01*
X140741557Y-64576196D01*
X140809511Y-64561637D01*
X140858647Y-64545137D01*
X140888214Y-64527239D01*
X140897464Y-64508485D01*
X140885648Y-64489415D01*
X140852016Y-64470571D01*
X140848970Y-64469357D01*
X140802611Y-64457279D01*
X140739961Y-64449079D01*
X140666527Y-64444919D01*
X140587817Y-64444961D01*
X140509339Y-64449369D01*
X140436600Y-64458305D01*
X140432673Y-64458954D01*
X140383857Y-64466661D01*
X140351605Y-64470273D01*
X140330608Y-64469676D01*
X140315554Y-64464754D01*
X140301134Y-64455396D01*
X140299964Y-64454525D01*
X140275447Y-64424151D01*
X140270654Y-64388650D01*
X140286460Y-64354069D01*
X140291006Y-64349613D01*
X140320620Y-64334473D01*
X140367602Y-64321350D01*
X140427906Y-64310550D01*
X140497488Y-64302381D01*
X140572303Y-64297151D01*
X140648306Y-64295167D01*
X140721453Y-64296736D01*
G36*
X140721453Y-64296736D02*
G01*
X140787700Y-64302166D01*
X140843000Y-64311764D01*
X140893883Y-64326625D01*
X140965195Y-64359758D01*
X141016352Y-64402440D01*
X141047175Y-64454505D01*
X141057489Y-64515783D01*
X141056552Y-64547032D01*
X141050760Y-64571829D01*
X141035953Y-64593499D01*
X141007980Y-64620849D01*
X141000002Y-64628178D01*
X140976292Y-64649081D01*
X140953898Y-64666051D01*
X140929865Y-64680005D01*
X140901237Y-64691856D01*
X140865060Y-64702520D01*
X140818380Y-64712911D01*
X140758241Y-64723946D01*
X140681690Y-64736538D01*
X140585771Y-64751604D01*
X140567408Y-64754638D01*
X140505078Y-64768258D01*
X140459860Y-64783992D01*
X140433576Y-64801063D01*
X140428047Y-64818697D01*
X140430668Y-64822968D01*
X140448600Y-64838033D01*
X140476726Y-64854667D01*
X140489526Y-64860657D01*
X140510824Y-64867850D01*
X140537210Y-64872627D01*
X140573054Y-64875446D01*
X140622728Y-64876764D01*
X140690600Y-64877037D01*
X140708385Y-64876964D01*
X140776006Y-64875853D01*
X140840945Y-64873628D01*
X140896570Y-64870562D01*
X140936251Y-64866927D01*
X140971762Y-64862859D01*
X141001015Y-64862076D01*
X141019915Y-64866676D01*
X141035029Y-64877351D01*
X141038685Y-64880944D01*
X141055027Y-64912718D01*
X141053707Y-64948372D01*
X141034750Y-64978990D01*
X141014380Y-64990596D01*
X140978396Y-65003291D01*
X140935972Y-65013341D01*
X140932522Y-65013940D01*
X140889852Y-65019156D01*
X140832466Y-65023530D01*
X140767449Y-65026618D01*
X140701889Y-65027977D01*
X140685657Y-65028018D01*
X140587344Y-65025541D01*
X140507292Y-65017535D01*
X140442113Y-65003003D01*
X140388417Y-64980949D01*
X140342816Y-64950376D01*
X140301923Y-64910286D01*
X140281802Y-64884059D01*
X140270176Y-64854512D01*
X140267267Y-64814795D01*
X140267408Y-64802826D01*
X140271281Y-64770145D01*
X140283665Y-64743619D01*
X140308830Y-64712771D01*
X140330042Y-64690631D01*
X140356438Y-64668085D01*
X140386155Y-64649717D01*
X140422385Y-64634461D01*
X140468317Y-64621249D01*
X140527144Y-64609014D01*
X140602056Y-64596689D01*
X140696245Y-64583206D01*
X140741557Y-64576196D01*
X140809511Y-64561637D01*
X140858647Y-64545137D01*
X140888214Y-64527239D01*
X140897464Y-64508485D01*
X140885648Y-64489415D01*
X140852016Y-64470571D01*
X140848970Y-64469357D01*
X140802611Y-64457279D01*
X140739961Y-64449079D01*
X140666527Y-64444919D01*
X140587817Y-64444961D01*
X140509339Y-64449369D01*
X140436600Y-64458305D01*
X140432673Y-64458954D01*
X140383857Y-64466661D01*
X140351605Y-64470273D01*
X140330608Y-64469676D01*
X140315554Y-64464754D01*
X140301134Y-64455396D01*
X140299964Y-64454525D01*
X140275447Y-64424151D01*
X140270654Y-64388650D01*
X140286460Y-64354069D01*
X140291006Y-64349613D01*
X140320620Y-64334473D01*
X140367602Y-64321350D01*
X140427906Y-64310550D01*
X140497488Y-64302381D01*
X140572303Y-64297151D01*
X140648306Y-64295167D01*
X140721453Y-64296736D01*
G37*
X136869311Y-59988833D02*
X136964868Y-60006323D01*
X137129158Y-60051364D01*
X137283189Y-60114456D01*
X137429109Y-60196715D01*
X137569066Y-60299257D01*
X137705208Y-60423199D01*
X137749073Y-60468461D01*
X137861358Y-60600665D01*
X137954572Y-60738632D01*
X138031319Y-60886550D01*
X138094203Y-61048603D01*
X138098020Y-61060191D01*
X138148107Y-61246192D01*
X138181499Y-61442321D01*
X138198184Y-61644368D01*
X138198151Y-61848125D01*
X138181391Y-62049381D01*
X138147892Y-62243928D01*
X138097644Y-62427556D01*
X138053790Y-62544853D01*
X137975948Y-62707751D01*
X137882428Y-62861666D01*
X137775422Y-63003471D01*
X137657119Y-63130039D01*
X137529711Y-63238241D01*
X137452206Y-63290920D01*
X137325325Y-63360550D01*
X137187843Y-63419268D01*
X137046316Y-63464387D01*
X136907302Y-63493222D01*
X136893197Y-63494906D01*
X136849753Y-63498234D01*
X136792323Y-63501075D01*
X136726722Y-63503173D01*
X136658767Y-63504268D01*
X136531978Y-63501940D01*
X136384273Y-63488936D01*
X136246379Y-63463933D01*
X136112614Y-63426118D01*
X136089162Y-63417689D01*
X136041212Y-63398208D01*
X135984740Y-63373273D01*
X135922979Y-63344522D01*
X135859163Y-63313590D01*
X135796526Y-63282115D01*
X135738303Y-63251734D01*
X135687727Y-63224083D01*
X135648033Y-63200799D01*
X135622454Y-63183518D01*
X135614225Y-63173879D01*
X135615676Y-63170784D01*
X135626850Y-63150879D01*
X135647734Y-63115220D01*
X135676865Y-63066259D01*
X135712781Y-63006446D01*
X135754020Y-62938233D01*
X135799117Y-62864071D01*
X135980385Y-62566808D01*
X136026915Y-62611339D01*
X136118323Y-62689665D01*
X136231934Y-62764239D01*
X136349722Y-62818274D01*
X136470159Y-62851090D01*
X136591717Y-62862011D01*
X136633185Y-62860668D01*
X136750680Y-62842412D01*
X136860689Y-62803417D01*
X136962030Y-62744470D01*
X137053521Y-62666357D01*
X137133980Y-62569864D01*
X137202227Y-62455778D01*
X137218508Y-62421524D01*
X137264582Y-62298040D01*
X137299706Y-62159718D01*
X137323797Y-62010361D01*
X137336773Y-61853773D01*
X137338549Y-61693756D01*
X137329043Y-61534114D01*
X137308172Y-61378650D01*
X137275852Y-61231166D01*
X137231999Y-61095467D01*
X137194582Y-61008876D01*
X137129785Y-60895488D01*
X137054372Y-60801870D01*
X136968018Y-60727759D01*
X136870395Y-60672894D01*
X136761177Y-60637012D01*
X136640039Y-60619851D01*
X136570638Y-60618680D01*
X136447768Y-60632941D01*
X136332264Y-60668041D01*
X136225553Y-60723482D01*
X136129064Y-60798764D01*
X136113320Y-60813240D01*
X136082750Y-60839762D01*
X136060409Y-60856938D01*
X136050291Y-60861587D01*
X136048306Y-60859397D01*
X136033841Y-60840521D01*
X136010000Y-60807197D01*
X135978629Y-60762180D01*
X135941574Y-60708225D01*
X135900683Y-60648085D01*
X135857802Y-60584518D01*
X135814778Y-60520276D01*
X135773457Y-60458115D01*
X135735686Y-60400791D01*
X135703312Y-60351057D01*
X135678182Y-60311668D01*
X135662142Y-60285380D01*
X135657039Y-60274947D01*
X135661650Y-60270741D01*
X135680867Y-60265733D01*
X135690438Y-60263186D01*
X135718409Y-60252049D01*
X135760048Y-60233602D01*
X135811595Y-60209525D01*
X135869290Y-60181499D01*
X135880557Y-60175954D01*
X136058287Y-60096689D01*
X136228090Y-60037185D01*
X136392030Y-59997045D01*
X136552171Y-59975871D01*
X136710577Y-59973266D01*
X136869311Y-59988833D01*
G36*
X136869311Y-59988833D02*
G01*
X136964868Y-60006323D01*
X137129158Y-60051364D01*
X137283189Y-60114456D01*
X137429109Y-60196715D01*
X137569066Y-60299257D01*
X137705208Y-60423199D01*
X137749073Y-60468461D01*
X137861358Y-60600665D01*
X137954572Y-60738632D01*
X138031319Y-60886550D01*
X138094203Y-61048603D01*
X138098020Y-61060191D01*
X138148107Y-61246192D01*
X138181499Y-61442321D01*
X138198184Y-61644368D01*
X138198151Y-61848125D01*
X138181391Y-62049381D01*
X138147892Y-62243928D01*
X138097644Y-62427556D01*
X138053790Y-62544853D01*
X137975948Y-62707751D01*
X137882428Y-62861666D01*
X137775422Y-63003471D01*
X137657119Y-63130039D01*
X137529711Y-63238241D01*
X137452206Y-63290920D01*
X137325325Y-63360550D01*
X137187843Y-63419268D01*
X137046316Y-63464387D01*
X136907302Y-63493222D01*
X136893197Y-63494906D01*
X136849753Y-63498234D01*
X136792323Y-63501075D01*
X136726722Y-63503173D01*
X136658767Y-63504268D01*
X136531978Y-63501940D01*
X136384273Y-63488936D01*
X136246379Y-63463933D01*
X136112614Y-63426118D01*
X136089162Y-63417689D01*
X136041212Y-63398208D01*
X135984740Y-63373273D01*
X135922979Y-63344522D01*
X135859163Y-63313590D01*
X135796526Y-63282115D01*
X135738303Y-63251734D01*
X135687727Y-63224083D01*
X135648033Y-63200799D01*
X135622454Y-63183518D01*
X135614225Y-63173879D01*
X135615676Y-63170784D01*
X135626850Y-63150879D01*
X135647734Y-63115220D01*
X135676865Y-63066259D01*
X135712781Y-63006446D01*
X135754020Y-62938233D01*
X135799117Y-62864071D01*
X135980385Y-62566808D01*
X136026915Y-62611339D01*
X136118323Y-62689665D01*
X136231934Y-62764239D01*
X136349722Y-62818274D01*
X136470159Y-62851090D01*
X136591717Y-62862011D01*
X136633185Y-62860668D01*
X136750680Y-62842412D01*
X136860689Y-62803417D01*
X136962030Y-62744470D01*
X137053521Y-62666357D01*
X137133980Y-62569864D01*
X137202227Y-62455778D01*
X137218508Y-62421524D01*
X137264582Y-62298040D01*
X137299706Y-62159718D01*
X137323797Y-62010361D01*
X137336773Y-61853773D01*
X137338549Y-61693756D01*
X137329043Y-61534114D01*
X137308172Y-61378650D01*
X137275852Y-61231166D01*
X137231999Y-61095467D01*
X137194582Y-61008876D01*
X137129785Y-60895488D01*
X137054372Y-60801870D01*
X136968018Y-60727759D01*
X136870395Y-60672894D01*
X136761177Y-60637012D01*
X136640039Y-60619851D01*
X136570638Y-60618680D01*
X136447768Y-60632941D01*
X136332264Y-60668041D01*
X136225553Y-60723482D01*
X136129064Y-60798764D01*
X136113320Y-60813240D01*
X136082750Y-60839762D01*
X136060409Y-60856938D01*
X136050291Y-60861587D01*
X136048306Y-60859397D01*
X136033841Y-60840521D01*
X136010000Y-60807197D01*
X135978629Y-60762180D01*
X135941574Y-60708225D01*
X135900683Y-60648085D01*
X135857802Y-60584518D01*
X135814778Y-60520276D01*
X135773457Y-60458115D01*
X135735686Y-60400791D01*
X135703312Y-60351057D01*
X135678182Y-60311668D01*
X135662142Y-60285380D01*
X135657039Y-60274947D01*
X135661650Y-60270741D01*
X135680867Y-60265733D01*
X135690438Y-60263186D01*
X135718409Y-60252049D01*
X135760048Y-60233602D01*
X135811595Y-60209525D01*
X135869290Y-60181499D01*
X135880557Y-60175954D01*
X136058287Y-60096689D01*
X136228090Y-60037185D01*
X136392030Y-59997045D01*
X136552171Y-59975871D01*
X136710577Y-59973266D01*
X136869311Y-59988833D01*
G37*
X133066594Y-62269511D02*
X133065868Y-62346958D01*
X133057289Y-62498394D01*
X133038433Y-62635083D01*
X133008437Y-62761076D01*
X132966436Y-62880425D01*
X132911569Y-62997181D01*
X132844767Y-63107979D01*
X132753963Y-63221539D01*
X132650308Y-63317011D01*
X132534487Y-63393873D01*
X132407186Y-63451597D01*
X132269089Y-63489658D01*
X132231393Y-63495466D01*
X132152352Y-63501196D01*
X132064229Y-63501383D01*
X131974836Y-63496339D01*
X131891984Y-63486378D01*
X131823487Y-63471812D01*
X131792635Y-63462164D01*
X131715330Y-63431923D01*
X131638279Y-63394417D01*
X131568800Y-63353414D01*
X131514215Y-63312679D01*
X131491516Y-63293305D01*
X131468801Y-63275462D01*
X131457379Y-63268578D01*
X131456137Y-63270224D01*
X131453328Y-63288005D01*
X131451376Y-63321170D01*
X131450645Y-63364533D01*
X131450645Y-63460489D01*
X130592496Y-63460489D01*
X130626761Y-63399774D01*
X130631955Y-63390668D01*
X130640315Y-63376049D01*
X130647888Y-63361973D01*
X130654712Y-63347340D01*
X130660827Y-63331049D01*
X130666273Y-63311998D01*
X130671087Y-63289086D01*
X130675308Y-63261213D01*
X130678977Y-63227278D01*
X130682131Y-63186179D01*
X130684811Y-63136815D01*
X130687054Y-63078086D01*
X130688899Y-63008890D01*
X130690387Y-62928126D01*
X130691555Y-62834694D01*
X130692444Y-62727492D01*
X130693091Y-62605420D01*
X130693536Y-62467376D01*
X130693818Y-62312259D01*
X130693975Y-62138968D01*
X130694048Y-61946403D01*
X130694074Y-61733462D01*
X130694085Y-61597330D01*
X131495800Y-61597330D01*
X131495800Y-62747521D01*
X131566356Y-62793889D01*
X131607017Y-62817591D01*
X131661146Y-62843439D01*
X131710289Y-62861629D01*
X131773765Y-62877351D01*
X131869931Y-62888341D01*
X131954500Y-62880165D01*
X132027819Y-62852605D01*
X132090237Y-62805442D01*
X132142102Y-62738458D01*
X132183760Y-62651433D01*
X132215562Y-62544150D01*
X132218145Y-62531809D01*
X132226600Y-62470572D01*
X132232263Y-62393492D01*
X132235176Y-62305802D01*
X132235383Y-62212734D01*
X132232930Y-62119520D01*
X132227861Y-62031394D01*
X132220219Y-61953588D01*
X132210048Y-61891333D01*
X132208767Y-61885466D01*
X132179726Y-61774921D01*
X132145210Y-61684375D01*
X132104056Y-61611753D01*
X132055099Y-61554981D01*
X131997174Y-61511984D01*
X131965220Y-61496415D01*
X131892384Y-61477522D01*
X131811043Y-61474265D01*
X131725919Y-61486189D01*
X131641733Y-61512840D01*
X131563208Y-61553762D01*
X131495800Y-61597330D01*
X130694085Y-61597330D01*
X130694093Y-61499045D01*
X130694289Y-59814178D01*
X131599617Y-59814178D01*
X131575185Y-59850867D01*
X131568918Y-59860447D01*
X131542808Y-59906781D01*
X131525069Y-59953902D01*
X131513508Y-60009051D01*
X131505931Y-60079467D01*
X131505439Y-60086450D01*
X131503662Y-60124441D01*
X131502044Y-60178376D01*
X131500599Y-60245503D01*
X131499340Y-60323071D01*
X131498280Y-60408328D01*
X131497429Y-60498524D01*
X131496803Y-60590907D01*
X131496412Y-60682725D01*
X131496270Y-60771227D01*
X131496390Y-60853662D01*
X131496783Y-60927279D01*
X131497462Y-60989326D01*
X131498441Y-61037051D01*
X131499732Y-61067704D01*
X131501347Y-61078533D01*
X131509557Y-61074133D01*
X131531247Y-61059162D01*
X131560614Y-61037248D01*
X131609479Y-61003036D01*
X131697725Y-60956514D01*
X131796516Y-60922846D01*
X131909110Y-60901031D01*
X132038764Y-60890065D01*
X132131270Y-60889019D01*
X132252611Y-60898814D01*
X132362699Y-60922974D01*
X132465989Y-60962585D01*
X132566938Y-61018732D01*
X132612103Y-61049683D01*
X132717511Y-61140915D01*
X132809138Y-61249906D01*
X132886932Y-61376526D01*
X132950841Y-61520645D01*
X133000814Y-61682132D01*
X133036798Y-61860859D01*
X133058743Y-62056695D01*
X133064500Y-62212734D01*
X133066594Y-62269511D01*
G36*
X133066594Y-62269511D02*
G01*
X133065868Y-62346958D01*
X133057289Y-62498394D01*
X133038433Y-62635083D01*
X133008437Y-62761076D01*
X132966436Y-62880425D01*
X132911569Y-62997181D01*
X132844767Y-63107979D01*
X132753963Y-63221539D01*
X132650308Y-63317011D01*
X132534487Y-63393873D01*
X132407186Y-63451597D01*
X132269089Y-63489658D01*
X132231393Y-63495466D01*
X132152352Y-63501196D01*
X132064229Y-63501383D01*
X131974836Y-63496339D01*
X131891984Y-63486378D01*
X131823487Y-63471812D01*
X131792635Y-63462164D01*
X131715330Y-63431923D01*
X131638279Y-63394417D01*
X131568800Y-63353414D01*
X131514215Y-63312679D01*
X131491516Y-63293305D01*
X131468801Y-63275462D01*
X131457379Y-63268578D01*
X131456137Y-63270224D01*
X131453328Y-63288005D01*
X131451376Y-63321170D01*
X131450645Y-63364533D01*
X131450645Y-63460489D01*
X130592496Y-63460489D01*
X130626761Y-63399774D01*
X130631955Y-63390668D01*
X130640315Y-63376049D01*
X130647888Y-63361973D01*
X130654712Y-63347340D01*
X130660827Y-63331049D01*
X130666273Y-63311998D01*
X130671087Y-63289086D01*
X130675308Y-63261213D01*
X130678977Y-63227278D01*
X130682131Y-63186179D01*
X130684811Y-63136815D01*
X130687054Y-63078086D01*
X130688899Y-63008890D01*
X130690387Y-62928126D01*
X130691555Y-62834694D01*
X130692444Y-62727492D01*
X130693091Y-62605420D01*
X130693536Y-62467376D01*
X130693818Y-62312259D01*
X130693975Y-62138968D01*
X130694048Y-61946403D01*
X130694074Y-61733462D01*
X130694085Y-61597330D01*
X131495800Y-61597330D01*
X131495800Y-62747521D01*
X131566356Y-62793889D01*
X131607017Y-62817591D01*
X131661146Y-62843439D01*
X131710289Y-62861629D01*
X131773765Y-62877351D01*
X131869931Y-62888341D01*
X131954500Y-62880165D01*
X132027819Y-62852605D01*
X132090237Y-62805442D01*
X132142102Y-62738458D01*
X132183760Y-62651433D01*
X132215562Y-62544150D01*
X132218145Y-62531809D01*
X132226600Y-62470572D01*
X132232263Y-62393492D01*
X132235176Y-62305802D01*
X132235383Y-62212734D01*
X132232930Y-62119520D01*
X132227861Y-62031394D01*
X132220219Y-61953588D01*
X132210048Y-61891333D01*
X132208767Y-61885466D01*
X132179726Y-61774921D01*
X132145210Y-61684375D01*
X132104056Y-61611753D01*
X132055099Y-61554981D01*
X131997174Y-61511984D01*
X131965220Y-61496415D01*
X131892384Y-61477522D01*
X131811043Y-61474265D01*
X131725919Y-61486189D01*
X131641733Y-61512840D01*
X131563208Y-61553762D01*
X131495800Y-61597330D01*
X130694085Y-61597330D01*
X130694093Y-61499045D01*
X130694289Y-59814178D01*
X131599617Y-59814178D01*
X131575185Y-59850867D01*
X131568918Y-59860447D01*
X131542808Y-59906781D01*
X131525069Y-59953902D01*
X131513508Y-60009051D01*
X131505931Y-60079467D01*
X131505439Y-60086450D01*
X131503662Y-60124441D01*
X131502044Y-60178376D01*
X131500599Y-60245503D01*
X131499340Y-60323071D01*
X131498280Y-60408328D01*
X131497429Y-60498524D01*
X131496803Y-60590907D01*
X131496412Y-60682725D01*
X131496270Y-60771227D01*
X131496390Y-60853662D01*
X131496783Y-60927279D01*
X131497462Y-60989326D01*
X131498441Y-61037051D01*
X131499732Y-61067704D01*
X131501347Y-61078533D01*
X131509557Y-61074133D01*
X131531247Y-61059162D01*
X131560614Y-61037248D01*
X131609479Y-61003036D01*
X131697725Y-60956514D01*
X131796516Y-60922846D01*
X131909110Y-60901031D01*
X132038764Y-60890065D01*
X132131270Y-60889019D01*
X132252611Y-60898814D01*
X132362699Y-60922974D01*
X132465989Y-60962585D01*
X132566938Y-61018732D01*
X132612103Y-61049683D01*
X132717511Y-61140915D01*
X132809138Y-61249906D01*
X132886932Y-61376526D01*
X132950841Y-61520645D01*
X133000814Y-61682132D01*
X133036798Y-61860859D01*
X133058743Y-62056695D01*
X133064500Y-62212734D01*
X133066594Y-62269511D01*
G37*
X135608355Y-62670267D02*
X135607861Y-62704163D01*
X135604232Y-62779002D01*
X135596622Y-62841201D01*
X135584288Y-62897784D01*
X135539913Y-63023876D01*
X135477000Y-63138479D01*
X135396838Y-63239368D01*
X135300340Y-63325724D01*
X135188422Y-63396732D01*
X135061997Y-63451576D01*
X134921978Y-63489438D01*
X134885749Y-63495151D01*
X134806755Y-63501113D01*
X134718441Y-63501446D01*
X134628675Y-63496459D01*
X134545322Y-63486466D01*
X134476251Y-63471778D01*
X134389787Y-63441549D01*
X134279886Y-63386857D01*
X134182556Y-63319343D01*
X134120467Y-63268356D01*
X134117205Y-63364422D01*
X134113943Y-63460489D01*
X133691050Y-63460489D01*
X133680143Y-63460486D01*
X133585656Y-63460180D01*
X133498931Y-63459416D01*
X133422437Y-63458251D01*
X133358643Y-63456742D01*
X133310018Y-63454947D01*
X133279033Y-63452921D01*
X133268156Y-63450722D01*
X133268178Y-63450263D01*
X133275214Y-63434710D01*
X133291034Y-63411871D01*
X133295334Y-63406438D01*
X133306377Y-63392406D01*
X133315911Y-63378986D01*
X133324061Y-63364522D01*
X133330952Y-63347356D01*
X133336711Y-63325834D01*
X133341462Y-63298298D01*
X133345331Y-63263092D01*
X133348444Y-63218560D01*
X133350925Y-63163046D01*
X133352900Y-63094893D01*
X133354494Y-63012445D01*
X133355834Y-62914046D01*
X133357044Y-62798039D01*
X133358249Y-62662768D01*
X133359195Y-62551386D01*
X134159978Y-62551386D01*
X134159978Y-62747262D01*
X134204648Y-62803773D01*
X134217385Y-62819012D01*
X134264204Y-62861644D01*
X134324855Y-62897472D01*
X134335497Y-62902650D01*
X134374276Y-62919545D01*
X134409292Y-62929709D01*
X134449322Y-62935125D01*
X134503141Y-62937778D01*
X134521248Y-62938183D01*
X134596611Y-62935340D01*
X134657343Y-62923420D01*
X134709052Y-62900837D01*
X134757346Y-62866011D01*
X134762403Y-62861598D01*
X134810872Y-62805960D01*
X134839059Y-62742133D01*
X134848352Y-62667082D01*
X134841120Y-62595493D01*
X134816396Y-62532445D01*
X134771849Y-62474558D01*
X134716919Y-62427608D01*
X134644494Y-62387761D01*
X134557940Y-62360063D01*
X134455270Y-62343896D01*
X134334494Y-62338642D01*
X134325607Y-62338657D01*
X134270260Y-62339455D01*
X134223336Y-62341288D01*
X134189553Y-62343911D01*
X134173628Y-62347074D01*
X134169543Y-62353541D01*
X134165172Y-62375675D01*
X134162204Y-62414788D01*
X134160514Y-62472739D01*
X134159978Y-62551386D01*
X133359195Y-62551386D01*
X133359575Y-62506578D01*
X133360828Y-62363812D01*
X133362251Y-62218742D01*
X133363776Y-62092827D01*
X133365533Y-61984236D01*
X133367651Y-61891134D01*
X133370260Y-61811691D01*
X133373490Y-61744073D01*
X133377469Y-61686449D01*
X133382328Y-61636985D01*
X133388197Y-61593850D01*
X133395204Y-61555210D01*
X133403480Y-61519234D01*
X133413154Y-61484089D01*
X133424356Y-61447942D01*
X133437216Y-61408961D01*
X133452690Y-61365891D01*
X133495594Y-61273671D01*
X133549335Y-61193899D01*
X133618176Y-61119765D01*
X133695785Y-61056205D01*
X133800361Y-60994525D01*
X133919844Y-60947002D01*
X134055108Y-60913367D01*
X134207026Y-60893352D01*
X134376472Y-60886689D01*
X134434490Y-60887087D01*
X134499998Y-60889135D01*
X134561293Y-60893504D01*
X134622697Y-60900835D01*
X134688532Y-60911769D01*
X134763120Y-60926947D01*
X134850784Y-60947009D01*
X134955845Y-60972597D01*
X134984406Y-60979620D01*
X135059654Y-60997576D01*
X135129988Y-61013620D01*
X135191167Y-61026828D01*
X135238954Y-61036274D01*
X135269111Y-61041031D01*
X135297383Y-61044710D01*
X135323660Y-61049987D01*
X135333659Y-61054742D01*
X135330552Y-61063581D01*
X135319794Y-61090872D01*
X135302464Y-61133706D01*
X135279726Y-61189225D01*
X135252747Y-61254572D01*
X135222690Y-61326889D01*
X135216093Y-61342679D01*
X135177507Y-61433284D01*
X135146368Y-61503017D01*
X135122517Y-61552205D01*
X135105798Y-61581174D01*
X135096054Y-61590252D01*
X135088366Y-61588205D01*
X135062015Y-61578560D01*
X135023582Y-61562990D01*
X134978422Y-61543615D01*
X134883893Y-61505614D01*
X134747080Y-61464580D01*
X134605889Y-61439412D01*
X134567914Y-61435411D01*
X134464659Y-61433247D01*
X134377552Y-61446422D01*
X134305729Y-61475556D01*
X134248331Y-61521266D01*
X134204496Y-61584172D01*
X134173362Y-61664892D01*
X134154070Y-61764045D01*
X134146650Y-61823024D01*
X134308536Y-61816245D01*
X134435095Y-61814613D01*
X134586551Y-61820994D01*
X134734996Y-61835577D01*
X134871178Y-61857682D01*
X134935845Y-61872621D01*
X135068090Y-61915541D01*
X135190362Y-61972140D01*
X135300285Y-62040817D01*
X135395483Y-62119970D01*
X135473580Y-62207996D01*
X135532199Y-62303293D01*
X135556195Y-62355664D01*
X135581832Y-62426390D01*
X135598078Y-62497612D01*
X135606422Y-62576512D01*
X135608290Y-62667082D01*
X135608355Y-62670267D01*
G36*
X135608355Y-62670267D02*
G01*
X135607861Y-62704163D01*
X135604232Y-62779002D01*
X135596622Y-62841201D01*
X135584288Y-62897784D01*
X135539913Y-63023876D01*
X135477000Y-63138479D01*
X135396838Y-63239368D01*
X135300340Y-63325724D01*
X135188422Y-63396732D01*
X135061997Y-63451576D01*
X134921978Y-63489438D01*
X134885749Y-63495151D01*
X134806755Y-63501113D01*
X134718441Y-63501446D01*
X134628675Y-63496459D01*
X134545322Y-63486466D01*
X134476251Y-63471778D01*
X134389787Y-63441549D01*
X134279886Y-63386857D01*
X134182556Y-63319343D01*
X134120467Y-63268356D01*
X134117205Y-63364422D01*
X134113943Y-63460489D01*
X133691050Y-63460489D01*
X133680143Y-63460486D01*
X133585656Y-63460180D01*
X133498931Y-63459416D01*
X133422437Y-63458251D01*
X133358643Y-63456742D01*
X133310018Y-63454947D01*
X133279033Y-63452921D01*
X133268156Y-63450722D01*
X133268178Y-63450263D01*
X133275214Y-63434710D01*
X133291034Y-63411871D01*
X133295334Y-63406438D01*
X133306377Y-63392406D01*
X133315911Y-63378986D01*
X133324061Y-63364522D01*
X133330952Y-63347356D01*
X133336711Y-63325834D01*
X133341462Y-63298298D01*
X133345331Y-63263092D01*
X133348444Y-63218560D01*
X133350925Y-63163046D01*
X133352900Y-63094893D01*
X133354494Y-63012445D01*
X133355834Y-62914046D01*
X133357044Y-62798039D01*
X133358249Y-62662768D01*
X133359195Y-62551386D01*
X134159978Y-62551386D01*
X134159978Y-62747262D01*
X134204648Y-62803773D01*
X134217385Y-62819012D01*
X134264204Y-62861644D01*
X134324855Y-62897472D01*
X134335497Y-62902650D01*
X134374276Y-62919545D01*
X134409292Y-62929709D01*
X134449322Y-62935125D01*
X134503141Y-62937778D01*
X134521248Y-62938183D01*
X134596611Y-62935340D01*
X134657343Y-62923420D01*
X134709052Y-62900837D01*
X134757346Y-62866011D01*
X134762403Y-62861598D01*
X134810872Y-62805960D01*
X134839059Y-62742133D01*
X134848352Y-62667082D01*
X134841120Y-62595493D01*
X134816396Y-62532445D01*
X134771849Y-62474558D01*
X134716919Y-62427608D01*
X134644494Y-62387761D01*
X134557940Y-62360063D01*
X134455270Y-62343896D01*
X134334494Y-62338642D01*
X134325607Y-62338657D01*
X134270260Y-62339455D01*
X134223336Y-62341288D01*
X134189553Y-62343911D01*
X134173628Y-62347074D01*
X134169543Y-62353541D01*
X134165172Y-62375675D01*
X134162204Y-62414788D01*
X134160514Y-62472739D01*
X134159978Y-62551386D01*
X133359195Y-62551386D01*
X133359575Y-62506578D01*
X133360828Y-62363812D01*
X133362251Y-62218742D01*
X133363776Y-62092827D01*
X133365533Y-61984236D01*
X133367651Y-61891134D01*
X133370260Y-61811691D01*
X133373490Y-61744073D01*
X133377469Y-61686449D01*
X133382328Y-61636985D01*
X133388197Y-61593850D01*
X133395204Y-61555210D01*
X133403480Y-61519234D01*
X133413154Y-61484089D01*
X133424356Y-61447942D01*
X133437216Y-61408961D01*
X133452690Y-61365891D01*
X133495594Y-61273671D01*
X133549335Y-61193899D01*
X133618176Y-61119765D01*
X133695785Y-61056205D01*
X133800361Y-60994525D01*
X133919844Y-60947002D01*
X134055108Y-60913367D01*
X134207026Y-60893352D01*
X134376472Y-60886689D01*
X134434490Y-60887087D01*
X134499998Y-60889135D01*
X134561293Y-60893504D01*
X134622697Y-60900835D01*
X134688532Y-60911769D01*
X134763120Y-60926947D01*
X134850784Y-60947009D01*
X134955845Y-60972597D01*
X134984406Y-60979620D01*
X135059654Y-60997576D01*
X135129988Y-61013620D01*
X135191167Y-61026828D01*
X135238954Y-61036274D01*
X135269111Y-61041031D01*
X135297383Y-61044710D01*
X135323660Y-61049987D01*
X135333659Y-61054742D01*
X135330552Y-61063581D01*
X135319794Y-61090872D01*
X135302464Y-61133706D01*
X135279726Y-61189225D01*
X135252747Y-61254572D01*
X135222690Y-61326889D01*
X135216093Y-61342679D01*
X135177507Y-61433284D01*
X135146368Y-61503017D01*
X135122517Y-61552205D01*
X135105798Y-61581174D01*
X135096054Y-61590252D01*
X135088366Y-61588205D01*
X135062015Y-61578560D01*
X135023582Y-61562990D01*
X134978422Y-61543615D01*
X134883893Y-61505614D01*
X134747080Y-61464580D01*
X134605889Y-61439412D01*
X134567914Y-61435411D01*
X134464659Y-61433247D01*
X134377552Y-61446422D01*
X134305729Y-61475556D01*
X134248331Y-61521266D01*
X134204496Y-61584172D01*
X134173362Y-61664892D01*
X134154070Y-61764045D01*
X134146650Y-61823024D01*
X134308536Y-61816245D01*
X134435095Y-61814613D01*
X134586551Y-61820994D01*
X134734996Y-61835577D01*
X134871178Y-61857682D01*
X134935845Y-61872621D01*
X135068090Y-61915541D01*
X135190362Y-61972140D01*
X135300285Y-62040817D01*
X135395483Y-62119970D01*
X135473580Y-62207996D01*
X135532199Y-62303293D01*
X135556195Y-62355664D01*
X135581832Y-62426390D01*
X135598078Y-62497612D01*
X135606422Y-62576512D01*
X135608290Y-62667082D01*
X135608355Y-62670267D01*
G37*
X143156214Y-60138592D02*
X143156659Y-60269811D01*
X143156962Y-60417016D01*
X143157148Y-60581149D01*
X143157242Y-60763152D01*
X143157271Y-60963965D01*
X143157261Y-61184532D01*
X143157236Y-61425792D01*
X143157222Y-61688689D01*
X143157222Y-61730840D01*
X143157246Y-61991468D01*
X143157285Y-62230596D01*
X143157308Y-62449160D01*
X143157287Y-62648095D01*
X143157193Y-62828335D01*
X143156995Y-62990815D01*
X143156663Y-63136470D01*
X143156169Y-63266234D01*
X143155483Y-63381043D01*
X143154576Y-63481830D01*
X143153417Y-63569530D01*
X143151978Y-63645079D01*
X143150229Y-63709411D01*
X143148140Y-63763461D01*
X143145683Y-63808163D01*
X143142827Y-63844452D01*
X143139543Y-63873263D01*
X143135802Y-63895531D01*
X143131574Y-63912190D01*
X143126829Y-63924175D01*
X143121539Y-63932421D01*
X143115673Y-63937862D01*
X143109202Y-63941434D01*
X143102097Y-63944070D01*
X143094328Y-63946706D01*
X143085866Y-63950277D01*
X143081508Y-63951945D01*
X143072995Y-63953911D01*
X143060294Y-63955711D01*
X143042485Y-63957355D01*
X143018649Y-63958847D01*
X142987866Y-63960197D01*
X142949217Y-63961411D01*
X142901782Y-63962497D01*
X142844643Y-63963461D01*
X142776879Y-63964311D01*
X142697571Y-63965053D01*
X142605799Y-63965697D01*
X142500644Y-63966247D01*
X142381187Y-63966713D01*
X142246508Y-63967100D01*
X142095688Y-63967416D01*
X141927806Y-63967669D01*
X141741945Y-63967866D01*
X141537183Y-63968013D01*
X141312602Y-63968118D01*
X141067282Y-63968189D01*
X140800304Y-63968232D01*
X140761921Y-63968237D01*
X140496522Y-63968280D01*
X140252650Y-63968325D01*
X140029383Y-63968348D01*
X139825796Y-63968324D01*
X139640967Y-63968230D01*
X139473973Y-63968043D01*
X139323890Y-63967739D01*
X139189796Y-63967294D01*
X139070766Y-63966685D01*
X138965879Y-63965889D01*
X138874210Y-63964880D01*
X138794837Y-63963637D01*
X138726837Y-63962135D01*
X138669286Y-63960351D01*
X138621262Y-63958261D01*
X138581840Y-63955842D01*
X138550099Y-63953070D01*
X138525114Y-63949921D01*
X138505964Y-63946372D01*
X138491723Y-63942398D01*
X138481471Y-63937978D01*
X138474282Y-63933086D01*
X138469235Y-63927700D01*
X138465405Y-63921796D01*
X138461871Y-63915349D01*
X138457708Y-63908337D01*
X138456625Y-63906487D01*
X138454413Y-63900980D01*
X138452386Y-63892668D01*
X138450538Y-63880609D01*
X138448861Y-63863863D01*
X138447345Y-63841487D01*
X138445983Y-63812540D01*
X138444767Y-63776080D01*
X138443689Y-63731167D01*
X138442740Y-63676857D01*
X138441912Y-63612210D01*
X138441197Y-63536284D01*
X138440587Y-63448138D01*
X138440542Y-63439293D01*
X138731978Y-63439293D01*
X138735860Y-63440565D01*
X138759120Y-63442591D01*
X138801474Y-63444426D01*
X138860732Y-63446027D01*
X138934707Y-63447349D01*
X139021210Y-63448348D01*
X139118052Y-63448980D01*
X139223045Y-63449200D01*
X139921251Y-63449200D01*
X141075690Y-63449200D01*
X141075056Y-63373000D01*
X141076174Y-63330960D01*
X141081904Y-63295134D01*
X141094490Y-63257572D01*
X141116168Y-63209377D01*
X141119389Y-63202697D01*
X141144788Y-63153159D01*
X141171596Y-63105169D01*
X141194517Y-63068266D01*
X141199085Y-63061634D01*
X141221116Y-63030393D01*
X141253293Y-62985454D01*
X141294057Y-62928947D01*
X141341845Y-62863004D01*
X141395098Y-62789757D01*
X141452255Y-62711336D01*
X141511755Y-62629872D01*
X141572037Y-62547498D01*
X141631540Y-62466344D01*
X141688705Y-62388542D01*
X141741970Y-62316223D01*
X141789774Y-62251518D01*
X141830557Y-62196559D01*
X141862758Y-62153476D01*
X141884816Y-62124402D01*
X141895171Y-62111467D01*
X141899644Y-62107151D01*
X141903836Y-62105112D01*
X141907243Y-62107726D01*
X141909925Y-62116786D01*
X141911941Y-62134085D01*
X141913348Y-62161414D01*
X141914205Y-62200565D01*
X141914570Y-62253333D01*
X141914503Y-62321507D01*
X141914060Y-62406882D01*
X141913302Y-62511249D01*
X141912285Y-62636400D01*
X141911908Y-62681100D01*
X141910769Y-62802195D01*
X141909572Y-62903488D01*
X141908236Y-62987062D01*
X141906677Y-63055004D01*
X141904815Y-63109399D01*
X141902566Y-63152332D01*
X141899848Y-63185889D01*
X141896579Y-63212155D01*
X141892678Y-63233216D01*
X141888061Y-63251157D01*
X141879792Y-63277570D01*
X141856183Y-63339572D01*
X141830285Y-63392373D01*
X141805135Y-63429445D01*
X141803939Y-63430875D01*
X141801768Y-63435224D01*
X141803928Y-63438826D01*
X141812244Y-63441751D01*
X141828540Y-63444069D01*
X141854641Y-63445851D01*
X141892371Y-63447167D01*
X141943556Y-63448086D01*
X142010020Y-63448678D01*
X142093587Y-63449015D01*
X142196083Y-63449165D01*
X142319332Y-63449200D01*
X142850896Y-63449200D01*
X142812123Y-63391583D01*
X142806032Y-63382693D01*
X142795576Y-63367869D01*
X142786179Y-63354222D01*
X142777783Y-63340565D01*
X142770333Y-63325711D01*
X142763773Y-63308470D01*
X142758046Y-63287655D01*
X142753095Y-63262080D01*
X142748866Y-63230555D01*
X142745301Y-63191893D01*
X142742344Y-63144907D01*
X142739940Y-63088408D01*
X142738031Y-63021209D01*
X142736562Y-62942122D01*
X142735476Y-62849960D01*
X142734718Y-62743534D01*
X142734230Y-62621657D01*
X142733958Y-62483141D01*
X142733843Y-62326799D01*
X142733831Y-62151442D01*
X142733865Y-61955882D01*
X142733889Y-61738933D01*
X142733880Y-61616313D01*
X142733843Y-61411247D01*
X142733827Y-61226916D01*
X142733888Y-61062134D01*
X142734084Y-60915716D01*
X142734470Y-60786474D01*
X142735105Y-60673222D01*
X142736044Y-60574775D01*
X142737345Y-60489944D01*
X142739064Y-60417544D01*
X142741259Y-60356389D01*
X142743985Y-60305292D01*
X142747301Y-60263067D01*
X142751262Y-60228527D01*
X142755925Y-60200486D01*
X142761347Y-60177758D01*
X142767586Y-60159156D01*
X142774697Y-60143493D01*
X142782738Y-60129584D01*
X142791766Y-60116241D01*
X142801836Y-60102279D01*
X142813007Y-60086511D01*
X142852797Y-60028667D01*
X141792914Y-60028667D01*
X141830911Y-60091766D01*
X141845593Y-60116805D01*
X141860131Y-60144386D01*
X141872227Y-60172500D01*
X141882132Y-60203351D01*
X141890094Y-60239144D01*
X141896361Y-60282083D01*
X141901182Y-60334374D01*
X141904806Y-60398219D01*
X141907481Y-60475825D01*
X141909457Y-60569394D01*
X141910982Y-60681133D01*
X141912304Y-60813245D01*
X141913213Y-60933234D01*
X141913620Y-61049863D01*
X141913367Y-61145331D01*
X141912457Y-61219356D01*
X141910893Y-61271655D01*
X141908679Y-61301949D01*
X141905820Y-61309956D01*
X141902761Y-61306658D01*
X141884606Y-61285208D01*
X141854875Y-61248689D01*
X141815239Y-61199242D01*
X141767371Y-61139007D01*
X141712943Y-61070127D01*
X141653627Y-60994743D01*
X141591095Y-60914996D01*
X141527021Y-60833028D01*
X141463075Y-60750980D01*
X141400931Y-60670994D01*
X141342261Y-60595211D01*
X141288737Y-60525773D01*
X141242030Y-60464821D01*
X141203814Y-60414496D01*
X141175761Y-60376940D01*
X141159543Y-60354295D01*
X141114235Y-60282012D01*
X141074261Y-60202263D01*
X141052730Y-60133988D01*
X141049427Y-60076644D01*
X141054716Y-60028667D01*
X139922956Y-60028917D01*
X139962467Y-60059522D01*
X139971848Y-60066889D01*
X140034783Y-60121238D01*
X140103597Y-60189059D01*
X140180196Y-60272316D01*
X140266488Y-60372978D01*
X140283652Y-60393647D01*
X140324433Y-60443209D01*
X140374188Y-60504126D01*
X140431555Y-60574698D01*
X140495169Y-60653224D01*
X140563669Y-60738004D01*
X140635690Y-60827337D01*
X140709870Y-60919522D01*
X140725117Y-60938502D01*
X140784846Y-61012860D01*
X140859253Y-61105648D01*
X140931731Y-61196188D01*
X141000914Y-61282778D01*
X141065441Y-61363718D01*
X141123947Y-61437306D01*
X141175070Y-61501844D01*
X141217447Y-61555629D01*
X141249715Y-61596962D01*
X141270510Y-61624142D01*
X141278469Y-61635468D01*
X141276711Y-61639571D01*
X141263830Y-61660134D01*
X141239485Y-61696361D01*
X141204847Y-61746624D01*
X141161086Y-61809292D01*
X141109375Y-61882736D01*
X141050884Y-61965327D01*
X140986784Y-62055436D01*
X140918246Y-62151431D01*
X140846443Y-62251685D01*
X140772544Y-62354568D01*
X140697721Y-62458450D01*
X140623145Y-62561701D01*
X140549987Y-62662692D01*
X140479419Y-62759794D01*
X140412611Y-62851377D01*
X140350735Y-62935811D01*
X140294961Y-63011467D01*
X140246462Y-63076716D01*
X140206407Y-63129928D01*
X140175969Y-63169473D01*
X140155544Y-63194826D01*
X140109499Y-63249095D01*
X140059212Y-63305575D01*
X140012415Y-63355469D01*
X139921251Y-63449200D01*
X139223045Y-63449200D01*
X139291956Y-63449149D01*
X139390207Y-63448891D01*
X139479630Y-63448437D01*
X139557933Y-63447810D01*
X139622823Y-63447035D01*
X139672011Y-63446135D01*
X139703204Y-63445134D01*
X139714111Y-63444057D01*
X139712922Y-63440837D01*
X139702776Y-63423252D01*
X139685640Y-63396958D01*
X139677140Y-63384491D01*
X139667929Y-63370422D01*
X139659833Y-63356151D01*
X139652785Y-63340279D01*
X139646717Y-63321409D01*
X139641561Y-63298141D01*
X139637251Y-63269078D01*
X139633719Y-63232821D01*
X139630897Y-63187970D01*
X139628718Y-63133128D01*
X139627114Y-63066897D01*
X139626019Y-62987877D01*
X139625365Y-62894671D01*
X139625084Y-62785879D01*
X139625109Y-62660103D01*
X139625372Y-62515945D01*
X139625806Y-62352007D01*
X139626345Y-62166889D01*
X139626879Y-61988032D01*
X139627405Y-61829174D01*
X139627950Y-61690116D01*
X139628545Y-61569465D01*
X139629219Y-61465828D01*
X139630003Y-61377811D01*
X139630926Y-61304023D01*
X139632019Y-61243069D01*
X139633312Y-61193557D01*
X139634835Y-61154093D01*
X139636619Y-61123284D01*
X139638692Y-61099738D01*
X139641086Y-61082060D01*
X139643830Y-61068859D01*
X139646956Y-61058740D01*
X139650492Y-61050311D01*
X139654391Y-61042175D01*
X139674038Y-61005344D01*
X139692825Y-60975191D01*
X139693872Y-60973708D01*
X139708202Y-60951459D01*
X139714111Y-60938502D01*
X139713104Y-60938049D01*
X139695905Y-60936603D01*
X139659256Y-60935280D01*
X139605562Y-60934116D01*
X139537230Y-60933147D01*
X139456664Y-60932411D01*
X139366270Y-60931942D01*
X139268453Y-60931778D01*
X138822795Y-60931778D01*
X138819720Y-62108645D01*
X138816645Y-63285511D01*
X138790007Y-63344422D01*
X138778085Y-63368983D01*
X138760846Y-63399234D01*
X138747674Y-63416360D01*
X138739676Y-63424391D01*
X138731978Y-63439293D01*
X138440542Y-63439293D01*
X138440074Y-63346829D01*
X138439650Y-63231417D01*
X138439306Y-63100960D01*
X138439034Y-62954516D01*
X138438827Y-62791144D01*
X138438676Y-62609901D01*
X138438572Y-62409848D01*
X138438508Y-62190041D01*
X138438476Y-61949539D01*
X138438467Y-61687402D01*
X138438467Y-59495831D01*
X138476849Y-59457449D01*
X138503955Y-59433711D01*
X138530853Y-59421911D01*
X138567160Y-59419067D01*
X138619089Y-59419067D01*
X138619089Y-59507006D01*
X138621027Y-59556902D01*
X138639799Y-59667323D01*
X138676817Y-59768787D01*
X138729969Y-59859952D01*
X138797146Y-59939473D01*
X138876238Y-60006005D01*
X138965134Y-60058206D01*
X139061725Y-60094730D01*
X139163900Y-60114234D01*
X139269550Y-60115373D01*
X139376564Y-60096805D01*
X139482832Y-60057184D01*
X139579819Y-59999316D01*
X139664893Y-59924484D01*
X139733615Y-59836415D01*
X139784518Y-59737416D01*
X139816135Y-59629793D01*
X139827000Y-59515854D01*
X139827000Y-59419067D01*
X141447353Y-59419067D01*
X141658497Y-59419080D01*
X141862620Y-59419130D01*
X142046286Y-59419230D01*
X142210591Y-59419392D01*
X142356629Y-59419629D01*
X142485494Y-59419953D01*
X142598283Y-59420375D01*
X142696088Y-59420909D01*
X142780004Y-59421567D01*
X142851127Y-59422361D01*
X142910550Y-59423304D01*
X142959368Y-59424408D01*
X142998677Y-59425684D01*
X143029569Y-59427147D01*
X143053141Y-59428807D01*
X143070486Y-59430678D01*
X143082699Y-59432772D01*
X143090875Y-59435100D01*
X143096108Y-59437676D01*
X143102104Y-59441245D01*
X143108879Y-59444778D01*
X143115078Y-59448288D01*
X143120726Y-59452718D01*
X143125847Y-59459008D01*
X143130469Y-59468101D01*
X143134615Y-59480939D01*
X143138313Y-59498462D01*
X143141587Y-59521613D01*
X143144463Y-59551334D01*
X143146967Y-59588565D01*
X143149124Y-59634249D01*
X143150960Y-59689327D01*
X143152500Y-59754741D01*
X143153770Y-59831433D01*
X143154795Y-59920344D01*
X143155601Y-60022417D01*
X143155634Y-60028667D01*
X143156214Y-60138592D01*
G36*
X143156214Y-60138592D02*
G01*
X143156659Y-60269811D01*
X143156962Y-60417016D01*
X143157148Y-60581149D01*
X143157242Y-60763152D01*
X143157271Y-60963965D01*
X143157261Y-61184532D01*
X143157236Y-61425792D01*
X143157222Y-61688689D01*
X143157222Y-61730840D01*
X143157246Y-61991468D01*
X143157285Y-62230596D01*
X143157308Y-62449160D01*
X143157287Y-62648095D01*
X143157193Y-62828335D01*
X143156995Y-62990815D01*
X143156663Y-63136470D01*
X143156169Y-63266234D01*
X143155483Y-63381043D01*
X143154576Y-63481830D01*
X143153417Y-63569530D01*
X143151978Y-63645079D01*
X143150229Y-63709411D01*
X143148140Y-63763461D01*
X143145683Y-63808163D01*
X143142827Y-63844452D01*
X143139543Y-63873263D01*
X143135802Y-63895531D01*
X143131574Y-63912190D01*
X143126829Y-63924175D01*
X143121539Y-63932421D01*
X143115673Y-63937862D01*
X143109202Y-63941434D01*
X143102097Y-63944070D01*
X143094328Y-63946706D01*
X143085866Y-63950277D01*
X143081508Y-63951945D01*
X143072995Y-63953911D01*
X143060294Y-63955711D01*
X143042485Y-63957355D01*
X143018649Y-63958847D01*
X142987866Y-63960197D01*
X142949217Y-63961411D01*
X142901782Y-63962497D01*
X142844643Y-63963461D01*
X142776879Y-63964311D01*
X142697571Y-63965053D01*
X142605799Y-63965697D01*
X142500644Y-63966247D01*
X142381187Y-63966713D01*
X142246508Y-63967100D01*
X142095688Y-63967416D01*
X141927806Y-63967669D01*
X141741945Y-63967866D01*
X141537183Y-63968013D01*
X141312602Y-63968118D01*
X141067282Y-63968189D01*
X140800304Y-63968232D01*
X140761921Y-63968237D01*
X140496522Y-63968280D01*
X140252650Y-63968325D01*
X140029383Y-63968348D01*
X139825796Y-63968324D01*
X139640967Y-63968230D01*
X139473973Y-63968043D01*
X139323890Y-63967739D01*
X139189796Y-63967294D01*
X139070766Y-63966685D01*
X138965879Y-63965889D01*
X138874210Y-63964880D01*
X138794837Y-63963637D01*
X138726837Y-63962135D01*
X138669286Y-63960351D01*
X138621262Y-63958261D01*
X138581840Y-63955842D01*
X138550099Y-63953070D01*
X138525114Y-63949921D01*
X138505964Y-63946372D01*
X138491723Y-63942398D01*
X138481471Y-63937978D01*
X138474282Y-63933086D01*
X138469235Y-63927700D01*
X138465405Y-63921796D01*
X138461871Y-63915349D01*
X138457708Y-63908337D01*
X138456625Y-63906487D01*
X138454413Y-63900980D01*
X138452386Y-63892668D01*
X138450538Y-63880609D01*
X138448861Y-63863863D01*
X138447345Y-63841487D01*
X138445983Y-63812540D01*
X138444767Y-63776080D01*
X138443689Y-63731167D01*
X138442740Y-63676857D01*
X138441912Y-63612210D01*
X138441197Y-63536284D01*
X138440587Y-63448138D01*
X138440542Y-63439293D01*
X138731978Y-63439293D01*
X138735860Y-63440565D01*
X138759120Y-63442591D01*
X138801474Y-63444426D01*
X138860732Y-63446027D01*
X138934707Y-63447349D01*
X139021210Y-63448348D01*
X139118052Y-63448980D01*
X139223045Y-63449200D01*
X139921251Y-63449200D01*
X141075690Y-63449200D01*
X141075056Y-63373000D01*
X141076174Y-63330960D01*
X141081904Y-63295134D01*
X141094490Y-63257572D01*
X141116168Y-63209377D01*
X141119389Y-63202697D01*
X141144788Y-63153159D01*
X141171596Y-63105169D01*
X141194517Y-63068266D01*
X141199085Y-63061634D01*
X141221116Y-63030393D01*
X141253293Y-62985454D01*
X141294057Y-62928947D01*
X141341845Y-62863004D01*
X141395098Y-62789757D01*
X141452255Y-62711336D01*
X141511755Y-62629872D01*
X141572037Y-62547498D01*
X141631540Y-62466344D01*
X141688705Y-62388542D01*
X141741970Y-62316223D01*
X141789774Y-62251518D01*
X141830557Y-62196559D01*
X141862758Y-62153476D01*
X141884816Y-62124402D01*
X141895171Y-62111467D01*
X141899644Y-62107151D01*
X141903836Y-62105112D01*
X141907243Y-62107726D01*
X141909925Y-62116786D01*
X141911941Y-62134085D01*
X141913348Y-62161414D01*
X141914205Y-62200565D01*
X141914570Y-62253333D01*
X141914503Y-62321507D01*
X141914060Y-62406882D01*
X141913302Y-62511249D01*
X141912285Y-62636400D01*
X141911908Y-62681100D01*
X141910769Y-62802195D01*
X141909572Y-62903488D01*
X141908236Y-62987062D01*
X141906677Y-63055004D01*
X141904815Y-63109399D01*
X141902566Y-63152332D01*
X141899848Y-63185889D01*
X141896579Y-63212155D01*
X141892678Y-63233216D01*
X141888061Y-63251157D01*
X141879792Y-63277570D01*
X141856183Y-63339572D01*
X141830285Y-63392373D01*
X141805135Y-63429445D01*
X141803939Y-63430875D01*
X141801768Y-63435224D01*
X141803928Y-63438826D01*
X141812244Y-63441751D01*
X141828540Y-63444069D01*
X141854641Y-63445851D01*
X141892371Y-63447167D01*
X141943556Y-63448086D01*
X142010020Y-63448678D01*
X142093587Y-63449015D01*
X142196083Y-63449165D01*
X142319332Y-63449200D01*
X142850896Y-63449200D01*
X142812123Y-63391583D01*
X142806032Y-63382693D01*
X142795576Y-63367869D01*
X142786179Y-63354222D01*
X142777783Y-63340565D01*
X142770333Y-63325711D01*
X142763773Y-63308470D01*
X142758046Y-63287655D01*
X142753095Y-63262080D01*
X142748866Y-63230555D01*
X142745301Y-63191893D01*
X142742344Y-63144907D01*
X142739940Y-63088408D01*
X142738031Y-63021209D01*
X142736562Y-62942122D01*
X142735476Y-62849960D01*
X142734718Y-62743534D01*
X142734230Y-62621657D01*
X142733958Y-62483141D01*
X142733843Y-62326799D01*
X142733831Y-62151442D01*
X142733865Y-61955882D01*
X142733889Y-61738933D01*
X142733880Y-61616313D01*
X142733843Y-61411247D01*
X142733827Y-61226916D01*
X142733888Y-61062134D01*
X142734084Y-60915716D01*
X142734470Y-60786474D01*
X142735105Y-60673222D01*
X142736044Y-60574775D01*
X142737345Y-60489944D01*
X142739064Y-60417544D01*
X142741259Y-60356389D01*
X142743985Y-60305292D01*
X142747301Y-60263067D01*
X142751262Y-60228527D01*
X142755925Y-60200486D01*
X142761347Y-60177758D01*
X142767586Y-60159156D01*
X142774697Y-60143493D01*
X142782738Y-60129584D01*
X142791766Y-60116241D01*
X142801836Y-60102279D01*
X142813007Y-60086511D01*
X142852797Y-60028667D01*
X141792914Y-60028667D01*
X141830911Y-60091766D01*
X141845593Y-60116805D01*
X141860131Y-60144386D01*
X141872227Y-60172500D01*
X141882132Y-60203351D01*
X141890094Y-60239144D01*
X141896361Y-60282083D01*
X141901182Y-60334374D01*
X141904806Y-60398219D01*
X141907481Y-60475825D01*
X141909457Y-60569394D01*
X141910982Y-60681133D01*
X141912304Y-60813245D01*
X141913213Y-60933234D01*
X141913620Y-61049863D01*
X141913367Y-61145331D01*
X141912457Y-61219356D01*
X141910893Y-61271655D01*
X141908679Y-61301949D01*
X141905820Y-61309956D01*
X141902761Y-61306658D01*
X141884606Y-61285208D01*
X141854875Y-61248689D01*
X141815239Y-61199242D01*
X141767371Y-61139007D01*
X141712943Y-61070127D01*
X141653627Y-60994743D01*
X141591095Y-60914996D01*
X141527021Y-60833028D01*
X141463075Y-60750980D01*
X141400931Y-60670994D01*
X141342261Y-60595211D01*
X141288737Y-60525773D01*
X141242030Y-60464821D01*
X141203814Y-60414496D01*
X141175761Y-60376940D01*
X141159543Y-60354295D01*
X141114235Y-60282012D01*
X141074261Y-60202263D01*
X141052730Y-60133988D01*
X141049427Y-60076644D01*
X141054716Y-60028667D01*
X139922956Y-60028917D01*
X139962467Y-60059522D01*
X139971848Y-60066889D01*
X140034783Y-60121238D01*
X140103597Y-60189059D01*
X140180196Y-60272316D01*
X140266488Y-60372978D01*
X140283652Y-60393647D01*
X140324433Y-60443209D01*
X140374188Y-60504126D01*
X140431555Y-60574698D01*
X140495169Y-60653224D01*
X140563669Y-60738004D01*
X140635690Y-60827337D01*
X140709870Y-60919522D01*
X140725117Y-60938502D01*
X140784846Y-61012860D01*
X140859253Y-61105648D01*
X140931731Y-61196188D01*
X141000914Y-61282778D01*
X141065441Y-61363718D01*
X141123947Y-61437306D01*
X141175070Y-61501844D01*
X141217447Y-61555629D01*
X141249715Y-61596962D01*
X141270510Y-61624142D01*
X141278469Y-61635468D01*
X141276711Y-61639571D01*
X141263830Y-61660134D01*
X141239485Y-61696361D01*
X141204847Y-61746624D01*
X141161086Y-61809292D01*
X141109375Y-61882736D01*
X141050884Y-61965327D01*
X140986784Y-62055436D01*
X140918246Y-62151431D01*
X140846443Y-62251685D01*
X140772544Y-62354568D01*
X140697721Y-62458450D01*
X140623145Y-62561701D01*
X140549987Y-62662692D01*
X140479419Y-62759794D01*
X140412611Y-62851377D01*
X140350735Y-62935811D01*
X140294961Y-63011467D01*
X140246462Y-63076716D01*
X140206407Y-63129928D01*
X140175969Y-63169473D01*
X140155544Y-63194826D01*
X140109499Y-63249095D01*
X140059212Y-63305575D01*
X140012415Y-63355469D01*
X139921251Y-63449200D01*
X139223045Y-63449200D01*
X139291956Y-63449149D01*
X139390207Y-63448891D01*
X139479630Y-63448437D01*
X139557933Y-63447810D01*
X139622823Y-63447035D01*
X139672011Y-63446135D01*
X139703204Y-63445134D01*
X139714111Y-63444057D01*
X139712922Y-63440837D01*
X139702776Y-63423252D01*
X139685640Y-63396958D01*
X139677140Y-63384491D01*
X139667929Y-63370422D01*
X139659833Y-63356151D01*
X139652785Y-63340279D01*
X139646717Y-63321409D01*
X139641561Y-63298141D01*
X139637251Y-63269078D01*
X139633719Y-63232821D01*
X139630897Y-63187970D01*
X139628718Y-63133128D01*
X139627114Y-63066897D01*
X139626019Y-62987877D01*
X139625365Y-62894671D01*
X139625084Y-62785879D01*
X139625109Y-62660103D01*
X139625372Y-62515945D01*
X139625806Y-62352007D01*
X139626345Y-62166889D01*
X139626879Y-61988032D01*
X139627405Y-61829174D01*
X139627950Y-61690116D01*
X139628545Y-61569465D01*
X139629219Y-61465828D01*
X139630003Y-61377811D01*
X139630926Y-61304023D01*
X139632019Y-61243069D01*
X139633312Y-61193557D01*
X139634835Y-61154093D01*
X139636619Y-61123284D01*
X139638692Y-61099738D01*
X139641086Y-61082060D01*
X139643830Y-61068859D01*
X139646956Y-61058740D01*
X139650492Y-61050311D01*
X139654391Y-61042175D01*
X139674038Y-61005344D01*
X139692825Y-60975191D01*
X139693872Y-60973708D01*
X139708202Y-60951459D01*
X139714111Y-60938502D01*
X139713104Y-60938049D01*
X139695905Y-60936603D01*
X139659256Y-60935280D01*
X139605562Y-60934116D01*
X139537230Y-60933147D01*
X139456664Y-60932411D01*
X139366270Y-60931942D01*
X139268453Y-60931778D01*
X138822795Y-60931778D01*
X138819720Y-62108645D01*
X138816645Y-63285511D01*
X138790007Y-63344422D01*
X138778085Y-63368983D01*
X138760846Y-63399234D01*
X138747674Y-63416360D01*
X138739676Y-63424391D01*
X138731978Y-63439293D01*
X138440542Y-63439293D01*
X138440074Y-63346829D01*
X138439650Y-63231417D01*
X138439306Y-63100960D01*
X138439034Y-62954516D01*
X138438827Y-62791144D01*
X138438676Y-62609901D01*
X138438572Y-62409848D01*
X138438508Y-62190041D01*
X138438476Y-61949539D01*
X138438467Y-61687402D01*
X138438467Y-59495831D01*
X138476849Y-59457449D01*
X138503955Y-59433711D01*
X138530853Y-59421911D01*
X138567160Y-59419067D01*
X138619089Y-59419067D01*
X138619089Y-59507006D01*
X138621027Y-59556902D01*
X138639799Y-59667323D01*
X138676817Y-59768787D01*
X138729969Y-59859952D01*
X138797146Y-59939473D01*
X138876238Y-60006005D01*
X138965134Y-60058206D01*
X139061725Y-60094730D01*
X139163900Y-60114234D01*
X139269550Y-60115373D01*
X139376564Y-60096805D01*
X139482832Y-60057184D01*
X139579819Y-59999316D01*
X139664893Y-59924484D01*
X139733615Y-59836415D01*
X139784518Y-59737416D01*
X139816135Y-59629793D01*
X139827000Y-59515854D01*
X139827000Y-59419067D01*
X141447353Y-59419067D01*
X141658497Y-59419080D01*
X141862620Y-59419130D01*
X142046286Y-59419230D01*
X142210591Y-59419392D01*
X142356629Y-59419629D01*
X142485494Y-59419953D01*
X142598283Y-59420375D01*
X142696088Y-59420909D01*
X142780004Y-59421567D01*
X142851127Y-59422361D01*
X142910550Y-59423304D01*
X142959368Y-59424408D01*
X142998677Y-59425684D01*
X143029569Y-59427147D01*
X143053141Y-59428807D01*
X143070486Y-59430678D01*
X143082699Y-59432772D01*
X143090875Y-59435100D01*
X143096108Y-59437676D01*
X143102104Y-59441245D01*
X143108879Y-59444778D01*
X143115078Y-59448288D01*
X143120726Y-59452718D01*
X143125847Y-59459008D01*
X143130469Y-59468101D01*
X143134615Y-59480939D01*
X143138313Y-59498462D01*
X143141587Y-59521613D01*
X143144463Y-59551334D01*
X143146967Y-59588565D01*
X143149124Y-59634249D01*
X143150960Y-59689327D01*
X143152500Y-59754741D01*
X143153770Y-59831433D01*
X143154795Y-59920344D01*
X143155601Y-60022417D01*
X143155634Y-60028667D01*
X143156214Y-60138592D01*
G37*
%TD*%
M02*
