%TF.GenerationSoftware,KiCad,Pcbnew,9.0.0*%
%TF.CreationDate,2025-06-05T18:29:18+05:30*%
%TF.ProjectId,MCU datalogger,4d435520-6461-4746-916c-6f676765722e,1*%
%TF.SameCoordinates,Original*%
%TF.FileFunction,Soldermask,Top*%
%TF.FilePolarity,Negative*%
%FSLAX46Y46*%
G04 Gerber Fmt 4.6, Leading zero omitted, Abs format (unit mm)*
G04 Created by KiCad (PCBNEW 9.0.0) date 2025-06-05 18:29:18*
%MOMM*%
%LPD*%
G01*
G04 APERTURE LIST*
G04 Aperture macros list*
%AMRoundRect*
0 Rectangle with rounded corners*
0 $1 Rounding radius*
0 $2 $3 $4 $5 $6 $7 $8 $9 X,Y pos of 4 corners*
0 Add a 4 corners polygon primitive as box body*
4,1,4,$2,$3,$4,$5,$6,$7,$8,$9,$2,$3,0*
0 Add four circle primitives for the rounded corners*
1,1,$1+$1,$2,$3*
1,1,$1+$1,$4,$5*
1,1,$1+$1,$6,$7*
1,1,$1+$1,$8,$9*
0 Add four rect primitives between the rounded corners*
20,1,$1+$1,$2,$3,$4,$5,0*
20,1,$1+$1,$4,$5,$6,$7,0*
20,1,$1+$1,$6,$7,$8,$9,0*
20,1,$1+$1,$8,$9,$2,$3,0*%
G04 Aperture macros list end*
%ADD10R,1.700000X1.700000*%
%ADD11O,1.700000X1.700000*%
%ADD12RoundRect,0.250000X0.262500X0.450000X-0.262500X0.450000X-0.262500X-0.450000X0.262500X-0.450000X0*%
%ADD13C,2.100000*%
%ADD14RoundRect,0.243750X-0.243750X-0.456250X0.243750X-0.456250X0.243750X0.456250X-0.243750X0.456250X0*%
%ADD15RoundRect,0.250000X-0.250000X-0.475000X0.250000X-0.475000X0.250000X0.475000X-0.250000X0.475000X0*%
%ADD16R,3.500000X2.400000*%
%ADD17RoundRect,0.162500X-0.650000X-0.162500X0.650000X-0.162500X0.650000X0.162500X-0.650000X0.162500X0*%
%ADD18RoundRect,0.250000X-0.262500X-0.450000X0.262500X-0.450000X0.262500X0.450000X-0.262500X0.450000X0*%
%ADD19R,2.400000X3.500000*%
%ADD20RoundRect,0.250000X0.250000X0.475000X-0.250000X0.475000X-0.250000X-0.475000X0.250000X-0.475000X0*%
%ADD21RoundRect,0.102000X-0.750000X-0.275000X0.750000X-0.275000X0.750000X0.275000X-0.750000X0.275000X0*%
%ADD22RoundRect,0.102000X-0.275000X-0.750000X0.275000X-0.750000X0.275000X0.750000X-0.275000X0.750000X0*%
%ADD23RoundRect,0.099250X-0.987750X-0.297750X0.987750X-0.297750X0.987750X0.297750X-0.987750X0.297750X0*%
G04 APERTURE END LIST*
D10*
%TO.C,BT1*%
X65786000Y-94564200D03*
D11*
X65786000Y-97104200D03*
%TD*%
D12*
%TO.C,R4*%
X98251000Y-95885000D03*
X96426000Y-95885000D03*
%TD*%
%TO.C,R3*%
X98171000Y-99695000D03*
X96346000Y-99695000D03*
%TD*%
D13*
%TO.C,H2*%
X65836800Y-88925400D03*
%TD*%
D10*
%TO.C,J1*%
X109601000Y-102235000D03*
D11*
X109601000Y-104775000D03*
X109601000Y-107315000D03*
X109601000Y-109855000D03*
%TD*%
D10*
%TO.C,J4*%
X107061000Y-93345000D03*
D11*
X109601000Y-93345000D03*
X107061000Y-95885000D03*
X109601000Y-95885000D03*
X107061000Y-98425000D03*
X109601000Y-98425000D03*
%TD*%
D14*
%TO.C,D2*%
X96169000Y-88392000D03*
X98044000Y-88392000D03*
%TD*%
D15*
%TO.C,C1*%
X80650000Y-88265000D03*
X82550000Y-88265000D03*
%TD*%
D16*
%TO.C,Y1*%
X89468000Y-106680000D03*
X84268000Y-106680000D03*
%TD*%
D12*
%TO.C,R5*%
X102542500Y-92120000D03*
X100717500Y-92120000D03*
%TD*%
D13*
%TO.C,H3*%
X110100000Y-88790000D03*
%TD*%
D14*
%TO.C,D1*%
X100662500Y-88392000D03*
X102537500Y-88392000D03*
%TD*%
D10*
%TO.C,J2*%
X97647600Y-113639600D03*
D11*
X100187600Y-113639600D03*
X102727600Y-113639600D03*
X105267600Y-113639600D03*
%TD*%
D15*
%TO.C,C3*%
X85090000Y-88265000D03*
X86990000Y-88265000D03*
%TD*%
%TO.C,C5*%
X89540000Y-88265000D03*
X91440000Y-88265000D03*
%TD*%
D17*
%TO.C,U1*%
X69780597Y-95885000D03*
X69780597Y-97155000D03*
X69780597Y-98425000D03*
X69780597Y-99695000D03*
X76955597Y-99695000D03*
X76955597Y-98425000D03*
X76955597Y-97155000D03*
X76955597Y-95885000D03*
%TD*%
D13*
%TO.C,H1*%
X65989200Y-114274600D03*
%TD*%
D18*
%TO.C,R7*%
X96266000Y-92075000D03*
X98091000Y-92075000D03*
%TD*%
D19*
%TO.C,Y2*%
X66040000Y-107308000D03*
X66040000Y-102108000D03*
%TD*%
D17*
%TO.C,U2*%
X70288597Y-88011000D03*
X70288597Y-89281000D03*
X70288597Y-90551000D03*
X70288597Y-91821000D03*
X77463597Y-91821000D03*
X77463597Y-90551000D03*
X77463597Y-89281000D03*
X77463597Y-88011000D03*
%TD*%
D12*
%TO.C,R2*%
X76334000Y-109410500D03*
X74509000Y-109410500D03*
%TD*%
D10*
%TO.C,J3*%
X71628000Y-113690400D03*
D11*
X74168000Y-113690400D03*
X76708000Y-113690400D03*
X79248000Y-113690400D03*
X81788000Y-113690400D03*
X84328000Y-113690400D03*
X86868000Y-113690400D03*
X89408000Y-113690400D03*
X91948000Y-113690400D03*
%TD*%
D20*
%TO.C,C4*%
X98232000Y-107594400D03*
X96332000Y-107594400D03*
%TD*%
D21*
%TO.C,U4*%
X82514000Y-94416371D03*
X82514000Y-95216371D03*
X82514000Y-96016371D03*
X82514000Y-96816371D03*
X82514000Y-97616371D03*
X82514000Y-98416371D03*
X82514000Y-99216371D03*
X82514000Y-100016371D03*
D22*
X84014000Y-101516371D03*
X84814000Y-101516371D03*
X85614000Y-101516371D03*
X86414000Y-101516371D03*
X87214000Y-101516371D03*
X88014000Y-101516371D03*
X88814000Y-101516371D03*
X89614000Y-101516371D03*
D21*
X91114000Y-100016371D03*
X91114000Y-99216371D03*
X91114000Y-98416371D03*
X91114000Y-97616371D03*
X91114000Y-96816371D03*
X91114000Y-96016371D03*
X91114000Y-95216371D03*
X91114000Y-94416371D03*
D22*
X89614000Y-92916371D03*
X88814000Y-92916371D03*
X88014000Y-92916371D03*
X87214000Y-92916371D03*
X86414000Y-92916371D03*
X85614000Y-92916371D03*
X84814000Y-92916371D03*
X84014000Y-92916371D03*
%TD*%
D23*
%TO.C,U3*%
X70612000Y-102362000D03*
X70612000Y-103632000D03*
X70612000Y-104902000D03*
X70612000Y-106172000D03*
X75562000Y-106172000D03*
X75562000Y-104902000D03*
X75562000Y-103632000D03*
X75562000Y-102362000D03*
%TD*%
D12*
%TO.C,R1*%
X72246500Y-109410500D03*
X70421500Y-109410500D03*
%TD*%
D18*
%TO.C,R6*%
X100791000Y-95885000D03*
X102616000Y-95885000D03*
%TD*%
D20*
%TO.C,C2*%
X98166000Y-104140000D03*
X96266000Y-104140000D03*
%TD*%
D13*
%TO.C,H4*%
X110566200Y-114452400D03*
%TD*%
M02*
