%TF.GenerationSoftware,KiCad,Pcbnew,9.0.0*%
%TF.CreationDate,2025-06-05T18:29:18+05:30*%
%TF.ProjectId,MCU datalogger,4d435520-6461-4746-916c-6f676765722e,1*%
%TF.SameCoordinates,Original*%
%TF.FileFunction,AssemblyDrawing,Top*%
%FSLAX46Y46*%
G04 Gerber Fmt 4.6, Leading zero omitted, Abs format (unit mm)*
G04 Created by KiCad (PCBNEW 9.0.0) date 2025-06-05 18:29:18*
%MOMM*%
%LPD*%
G01*
G04 APERTURE LIST*
%ADD10C,0.150000*%
%ADD11C,0.100000*%
%ADD12C,0.080000*%
%ADD13C,0.010000*%
%ADD14C,0.127000*%
%ADD15C,0.200000*%
G04 APERTURE END LIST*
D10*
X65717009Y-96619914D02*
X65764628Y-96477057D01*
X65764628Y-96477057D02*
X65812247Y-96429438D01*
X65812247Y-96429438D02*
X65907485Y-96381819D01*
X65907485Y-96381819D02*
X66050342Y-96381819D01*
X66050342Y-96381819D02*
X66145580Y-96429438D01*
X66145580Y-96429438D02*
X66193200Y-96477057D01*
X66193200Y-96477057D02*
X66240819Y-96572295D01*
X66240819Y-96572295D02*
X66240819Y-96953247D01*
X66240819Y-96953247D02*
X65240819Y-96953247D01*
X65240819Y-96953247D02*
X65240819Y-96619914D01*
X65240819Y-96619914D02*
X65288438Y-96524676D01*
X65288438Y-96524676D02*
X65336057Y-96477057D01*
X65336057Y-96477057D02*
X65431295Y-96429438D01*
X65431295Y-96429438D02*
X65526533Y-96429438D01*
X65526533Y-96429438D02*
X65621771Y-96477057D01*
X65621771Y-96477057D02*
X65669390Y-96524676D01*
X65669390Y-96524676D02*
X65717009Y-96619914D01*
X65717009Y-96619914D02*
X65717009Y-96953247D01*
X65240819Y-96096104D02*
X65240819Y-95524676D01*
X66240819Y-95810390D02*
X65240819Y-95810390D01*
X66240819Y-94667533D02*
X66240819Y-95238961D01*
X66240819Y-94953247D02*
X65240819Y-94953247D01*
X65240819Y-94953247D02*
X65383676Y-95048485D01*
X65383676Y-95048485D02*
X65478914Y-95143723D01*
X65478914Y-95143723D02*
X65526533Y-95238961D01*
D11*
X97378133Y-97387966D02*
X97378133Y-97854633D01*
X97211467Y-97121300D02*
X97044800Y-97621300D01*
X97044800Y-97621300D02*
X97478133Y-97621300D01*
X97744800Y-97787966D02*
X97778134Y-97821300D01*
X97778134Y-97821300D02*
X97744800Y-97854633D01*
X97744800Y-97854633D02*
X97711467Y-97821300D01*
X97711467Y-97821300D02*
X97744800Y-97787966D01*
X97744800Y-97787966D02*
X97744800Y-97854633D01*
X98011467Y-97154633D02*
X98478133Y-97154633D01*
X98478133Y-97154633D02*
X98178133Y-97854633D01*
X98744800Y-97854633D02*
X98744800Y-97154633D01*
X99144800Y-97854633D02*
X98844800Y-97454633D01*
X99144800Y-97154633D02*
X98744800Y-97554633D01*
D12*
X97255166Y-96112149D02*
X97088500Y-95874054D01*
X96969452Y-96112149D02*
X96969452Y-95612149D01*
X96969452Y-95612149D02*
X97159928Y-95612149D01*
X97159928Y-95612149D02*
X97207547Y-95635959D01*
X97207547Y-95635959D02*
X97231357Y-95659768D01*
X97231357Y-95659768D02*
X97255166Y-95707387D01*
X97255166Y-95707387D02*
X97255166Y-95778816D01*
X97255166Y-95778816D02*
X97231357Y-95826435D01*
X97231357Y-95826435D02*
X97207547Y-95850244D01*
X97207547Y-95850244D02*
X97159928Y-95874054D01*
X97159928Y-95874054D02*
X96969452Y-95874054D01*
X97683738Y-95778816D02*
X97683738Y-96112149D01*
X97564690Y-95588340D02*
X97445643Y-95945482D01*
X97445643Y-95945482D02*
X97755166Y-95945482D01*
D11*
X97541833Y-101147166D02*
X97541833Y-101613833D01*
X97375167Y-100880500D02*
X97208500Y-101380500D01*
X97208500Y-101380500D02*
X97641833Y-101380500D01*
X97908500Y-101547166D02*
X97941834Y-101580500D01*
X97941834Y-101580500D02*
X97908500Y-101613833D01*
X97908500Y-101613833D02*
X97875167Y-101580500D01*
X97875167Y-101580500D02*
X97908500Y-101547166D01*
X97908500Y-101547166D02*
X97908500Y-101613833D01*
X98175167Y-100913833D02*
X98641833Y-100913833D01*
X98641833Y-100913833D02*
X98341833Y-101613833D01*
X98908500Y-101613833D02*
X98908500Y-100913833D01*
X99308500Y-101613833D02*
X99008500Y-101213833D01*
X99308500Y-100913833D02*
X98908500Y-101313833D01*
D12*
X97175166Y-99922149D02*
X97008500Y-99684054D01*
X96889452Y-99922149D02*
X96889452Y-99422149D01*
X96889452Y-99422149D02*
X97079928Y-99422149D01*
X97079928Y-99422149D02*
X97127547Y-99445959D01*
X97127547Y-99445959D02*
X97151357Y-99469768D01*
X97151357Y-99469768D02*
X97175166Y-99517387D01*
X97175166Y-99517387D02*
X97175166Y-99588816D01*
X97175166Y-99588816D02*
X97151357Y-99636435D01*
X97151357Y-99636435D02*
X97127547Y-99660244D01*
X97127547Y-99660244D02*
X97079928Y-99684054D01*
X97079928Y-99684054D02*
X96889452Y-99684054D01*
X97341833Y-99422149D02*
X97651357Y-99422149D01*
X97651357Y-99422149D02*
X97484690Y-99612625D01*
X97484690Y-99612625D02*
X97556119Y-99612625D01*
X97556119Y-99612625D02*
X97603738Y-99636435D01*
X97603738Y-99636435D02*
X97627547Y-99660244D01*
X97627547Y-99660244D02*
X97651357Y-99707863D01*
X97651357Y-99707863D02*
X97651357Y-99826911D01*
X97651357Y-99826911D02*
X97627547Y-99874530D01*
X97627547Y-99874530D02*
X97603738Y-99898340D01*
X97603738Y-99898340D02*
X97556119Y-99922149D01*
X97556119Y-99922149D02*
X97413262Y-99922149D01*
X97413262Y-99922149D02*
X97365643Y-99898340D01*
X97365643Y-99898340D02*
X97341833Y-99874530D01*
D11*
X53698401Y-91530033D02*
X53698401Y-90830033D01*
X53698401Y-90830033D02*
X53931735Y-91330033D01*
X53931735Y-91330033D02*
X54165068Y-90830033D01*
X54165068Y-90830033D02*
X54165068Y-91530033D01*
X54598401Y-91530033D02*
X54531735Y-91496700D01*
X54531735Y-91496700D02*
X54498401Y-91463366D01*
X54498401Y-91463366D02*
X54465068Y-91396700D01*
X54465068Y-91396700D02*
X54465068Y-91196700D01*
X54465068Y-91196700D02*
X54498401Y-91130033D01*
X54498401Y-91130033D02*
X54531735Y-91096700D01*
X54531735Y-91096700D02*
X54598401Y-91063366D01*
X54598401Y-91063366D02*
X54698401Y-91063366D01*
X54698401Y-91063366D02*
X54765068Y-91096700D01*
X54765068Y-91096700D02*
X54798401Y-91130033D01*
X54798401Y-91130033D02*
X54831735Y-91196700D01*
X54831735Y-91196700D02*
X54831735Y-91396700D01*
X54831735Y-91396700D02*
X54798401Y-91463366D01*
X54798401Y-91463366D02*
X54765068Y-91496700D01*
X54765068Y-91496700D02*
X54698401Y-91530033D01*
X54698401Y-91530033D02*
X54598401Y-91530033D01*
X55431734Y-91063366D02*
X55431734Y-91530033D01*
X55131734Y-91063366D02*
X55131734Y-91430033D01*
X55131734Y-91430033D02*
X55165068Y-91496700D01*
X55165068Y-91496700D02*
X55231734Y-91530033D01*
X55231734Y-91530033D02*
X55331734Y-91530033D01*
X55331734Y-91530033D02*
X55398401Y-91496700D01*
X55398401Y-91496700D02*
X55431734Y-91463366D01*
X55765067Y-91063366D02*
X55765067Y-91530033D01*
X55765067Y-91130033D02*
X55798401Y-91096700D01*
X55798401Y-91096700D02*
X55865067Y-91063366D01*
X55865067Y-91063366D02*
X55965067Y-91063366D01*
X55965067Y-91063366D02*
X56031734Y-91096700D01*
X56031734Y-91096700D02*
X56065067Y-91163366D01*
X56065067Y-91163366D02*
X56065067Y-91530033D01*
X56298400Y-91063366D02*
X56565067Y-91063366D01*
X56398400Y-90830033D02*
X56398400Y-91430033D01*
X56398400Y-91430033D02*
X56431734Y-91496700D01*
X56431734Y-91496700D02*
X56498400Y-91530033D01*
X56498400Y-91530033D02*
X56565067Y-91530033D01*
X56798400Y-91530033D02*
X56798400Y-91063366D01*
X56798400Y-90830033D02*
X56765067Y-90863366D01*
X56765067Y-90863366D02*
X56798400Y-90896700D01*
X56798400Y-90896700D02*
X56831734Y-90863366D01*
X56831734Y-90863366D02*
X56798400Y-90830033D01*
X56798400Y-90830033D02*
X56798400Y-90896700D01*
X57131733Y-91063366D02*
X57131733Y-91530033D01*
X57131733Y-91130033D02*
X57165067Y-91096700D01*
X57165067Y-91096700D02*
X57231733Y-91063366D01*
X57231733Y-91063366D02*
X57331733Y-91063366D01*
X57331733Y-91063366D02*
X57398400Y-91096700D01*
X57398400Y-91096700D02*
X57431733Y-91163366D01*
X57431733Y-91163366D02*
X57431733Y-91530033D01*
X58065066Y-91063366D02*
X58065066Y-91630033D01*
X58065066Y-91630033D02*
X58031733Y-91696700D01*
X58031733Y-91696700D02*
X57998400Y-91730033D01*
X57998400Y-91730033D02*
X57931733Y-91763366D01*
X57931733Y-91763366D02*
X57831733Y-91763366D01*
X57831733Y-91763366D02*
X57765066Y-91730033D01*
X58065066Y-91496700D02*
X57998400Y-91530033D01*
X57998400Y-91530033D02*
X57865066Y-91530033D01*
X57865066Y-91530033D02*
X57798400Y-91496700D01*
X57798400Y-91496700D02*
X57765066Y-91463366D01*
X57765066Y-91463366D02*
X57731733Y-91396700D01*
X57731733Y-91396700D02*
X57731733Y-91196700D01*
X57731733Y-91196700D02*
X57765066Y-91130033D01*
X57765066Y-91130033D02*
X57798400Y-91096700D01*
X57798400Y-91096700D02*
X57865066Y-91063366D01*
X57865066Y-91063366D02*
X57998400Y-91063366D01*
X57998400Y-91063366D02*
X58065066Y-91096700D01*
X58398399Y-91530033D02*
X58398399Y-90830033D01*
X58398399Y-91163366D02*
X58798399Y-91163366D01*
X58798399Y-91530033D02*
X58798399Y-90830033D01*
X59231732Y-91530033D02*
X59165066Y-91496700D01*
X59165066Y-91496700D02*
X59131732Y-91463366D01*
X59131732Y-91463366D02*
X59098399Y-91396700D01*
X59098399Y-91396700D02*
X59098399Y-91196700D01*
X59098399Y-91196700D02*
X59131732Y-91130033D01*
X59131732Y-91130033D02*
X59165066Y-91096700D01*
X59165066Y-91096700D02*
X59231732Y-91063366D01*
X59231732Y-91063366D02*
X59331732Y-91063366D01*
X59331732Y-91063366D02*
X59398399Y-91096700D01*
X59398399Y-91096700D02*
X59431732Y-91130033D01*
X59431732Y-91130033D02*
X59465066Y-91196700D01*
X59465066Y-91196700D02*
X59465066Y-91396700D01*
X59465066Y-91396700D02*
X59431732Y-91463366D01*
X59431732Y-91463366D02*
X59398399Y-91496700D01*
X59398399Y-91496700D02*
X59331732Y-91530033D01*
X59331732Y-91530033D02*
X59231732Y-91530033D01*
X59865065Y-91530033D02*
X59798399Y-91496700D01*
X59798399Y-91496700D02*
X59765065Y-91430033D01*
X59765065Y-91430033D02*
X59765065Y-90830033D01*
X60398399Y-91496700D02*
X60331732Y-91530033D01*
X60331732Y-91530033D02*
X60198399Y-91530033D01*
X60198399Y-91530033D02*
X60131732Y-91496700D01*
X60131732Y-91496700D02*
X60098399Y-91430033D01*
X60098399Y-91430033D02*
X60098399Y-91163366D01*
X60098399Y-91163366D02*
X60131732Y-91096700D01*
X60131732Y-91096700D02*
X60198399Y-91063366D01*
X60198399Y-91063366D02*
X60331732Y-91063366D01*
X60331732Y-91063366D02*
X60398399Y-91096700D01*
X60398399Y-91096700D02*
X60431732Y-91163366D01*
X60431732Y-91163366D02*
X60431732Y-91230033D01*
X60431732Y-91230033D02*
X60098399Y-91296700D01*
D10*
X65074895Y-89380219D02*
X65074895Y-88380219D01*
X65074895Y-88856409D02*
X65646323Y-88856409D01*
X65646323Y-89380219D02*
X65646323Y-88380219D01*
X66074895Y-88475457D02*
X66122514Y-88427838D01*
X66122514Y-88427838D02*
X66217752Y-88380219D01*
X66217752Y-88380219D02*
X66455847Y-88380219D01*
X66455847Y-88380219D02*
X66551085Y-88427838D01*
X66551085Y-88427838D02*
X66598704Y-88475457D01*
X66598704Y-88475457D02*
X66646323Y-88570695D01*
X66646323Y-88570695D02*
X66646323Y-88665933D01*
X66646323Y-88665933D02*
X66598704Y-88808790D01*
X66598704Y-88808790D02*
X66027276Y-89380219D01*
X66027276Y-89380219D02*
X66646323Y-89380219D01*
D11*
X106093766Y-109751666D02*
X106127100Y-109784999D01*
X106127100Y-109784999D02*
X106160433Y-109884999D01*
X106160433Y-109884999D02*
X106160433Y-109951666D01*
X106160433Y-109951666D02*
X106127100Y-110051666D01*
X106127100Y-110051666D02*
X106060433Y-110118333D01*
X106060433Y-110118333D02*
X105993766Y-110151666D01*
X105993766Y-110151666D02*
X105860433Y-110184999D01*
X105860433Y-110184999D02*
X105760433Y-110184999D01*
X105760433Y-110184999D02*
X105627100Y-110151666D01*
X105627100Y-110151666D02*
X105560433Y-110118333D01*
X105560433Y-110118333D02*
X105493766Y-110051666D01*
X105493766Y-110051666D02*
X105460433Y-109951666D01*
X105460433Y-109951666D02*
X105460433Y-109884999D01*
X105460433Y-109884999D02*
X105493766Y-109784999D01*
X105493766Y-109784999D02*
X105527100Y-109751666D01*
X106160433Y-109351666D02*
X106127100Y-109418333D01*
X106127100Y-109418333D02*
X106093766Y-109451666D01*
X106093766Y-109451666D02*
X106027100Y-109484999D01*
X106027100Y-109484999D02*
X105827100Y-109484999D01*
X105827100Y-109484999D02*
X105760433Y-109451666D01*
X105760433Y-109451666D02*
X105727100Y-109418333D01*
X105727100Y-109418333D02*
X105693766Y-109351666D01*
X105693766Y-109351666D02*
X105693766Y-109251666D01*
X105693766Y-109251666D02*
X105727100Y-109184999D01*
X105727100Y-109184999D02*
X105760433Y-109151666D01*
X105760433Y-109151666D02*
X105827100Y-109118333D01*
X105827100Y-109118333D02*
X106027100Y-109118333D01*
X106027100Y-109118333D02*
X106093766Y-109151666D01*
X106093766Y-109151666D02*
X106127100Y-109184999D01*
X106127100Y-109184999D02*
X106160433Y-109251666D01*
X106160433Y-109251666D02*
X106160433Y-109351666D01*
X105693766Y-108818333D02*
X106160433Y-108818333D01*
X105760433Y-108818333D02*
X105727100Y-108785000D01*
X105727100Y-108785000D02*
X105693766Y-108718333D01*
X105693766Y-108718333D02*
X105693766Y-108618333D01*
X105693766Y-108618333D02*
X105727100Y-108551666D01*
X105727100Y-108551666D02*
X105793766Y-108518333D01*
X105793766Y-108518333D02*
X106160433Y-108518333D01*
X105693766Y-108185000D02*
X106160433Y-108185000D01*
X105760433Y-108185000D02*
X105727100Y-108151667D01*
X105727100Y-108151667D02*
X105693766Y-108085000D01*
X105693766Y-108085000D02*
X105693766Y-107985000D01*
X105693766Y-107985000D02*
X105727100Y-107918333D01*
X105727100Y-107918333D02*
X105793766Y-107885000D01*
X105793766Y-107885000D02*
X106160433Y-107885000D01*
X106227100Y-107718334D02*
X106227100Y-107185000D01*
X105460433Y-106885001D02*
X105460433Y-106818334D01*
X105460433Y-106818334D02*
X105493766Y-106751667D01*
X105493766Y-106751667D02*
X105527100Y-106718334D01*
X105527100Y-106718334D02*
X105593766Y-106685001D01*
X105593766Y-106685001D02*
X105727100Y-106651667D01*
X105727100Y-106651667D02*
X105893766Y-106651667D01*
X105893766Y-106651667D02*
X106027100Y-106685001D01*
X106027100Y-106685001D02*
X106093766Y-106718334D01*
X106093766Y-106718334D02*
X106127100Y-106751667D01*
X106127100Y-106751667D02*
X106160433Y-106818334D01*
X106160433Y-106818334D02*
X106160433Y-106885001D01*
X106160433Y-106885001D02*
X106127100Y-106951667D01*
X106127100Y-106951667D02*
X106093766Y-106985001D01*
X106093766Y-106985001D02*
X106027100Y-107018334D01*
X106027100Y-107018334D02*
X105893766Y-107051667D01*
X105893766Y-107051667D02*
X105727100Y-107051667D01*
X105727100Y-107051667D02*
X105593766Y-107018334D01*
X105593766Y-107018334D02*
X105527100Y-106985001D01*
X105527100Y-106985001D02*
X105493766Y-106951667D01*
X105493766Y-106951667D02*
X105460433Y-106885001D01*
X106160433Y-105985000D02*
X106160433Y-106385000D01*
X106160433Y-106185000D02*
X105460433Y-106185000D01*
X105460433Y-106185000D02*
X105560433Y-106251667D01*
X105560433Y-106251667D02*
X105627100Y-106318334D01*
X105627100Y-106318334D02*
X105660433Y-106385000D01*
X106160433Y-105751667D02*
X105693766Y-105385000D01*
X105693766Y-105751667D02*
X106160433Y-105385000D01*
X105460433Y-104985000D02*
X105460433Y-104918333D01*
X105460433Y-104918333D02*
X105493766Y-104851666D01*
X105493766Y-104851666D02*
X105527100Y-104818333D01*
X105527100Y-104818333D02*
X105593766Y-104785000D01*
X105593766Y-104785000D02*
X105727100Y-104751666D01*
X105727100Y-104751666D02*
X105893766Y-104751666D01*
X105893766Y-104751666D02*
X106027100Y-104785000D01*
X106027100Y-104785000D02*
X106093766Y-104818333D01*
X106093766Y-104818333D02*
X106127100Y-104851666D01*
X106127100Y-104851666D02*
X106160433Y-104918333D01*
X106160433Y-104918333D02*
X106160433Y-104985000D01*
X106160433Y-104985000D02*
X106127100Y-105051666D01*
X106127100Y-105051666D02*
X106093766Y-105085000D01*
X106093766Y-105085000D02*
X106027100Y-105118333D01*
X106027100Y-105118333D02*
X105893766Y-105151666D01*
X105893766Y-105151666D02*
X105727100Y-105151666D01*
X105727100Y-105151666D02*
X105593766Y-105118333D01*
X105593766Y-105118333D02*
X105527100Y-105085000D01*
X105527100Y-105085000D02*
X105493766Y-105051666D01*
X105493766Y-105051666D02*
X105460433Y-104985000D01*
X105693766Y-104151666D02*
X106160433Y-104151666D01*
X105427100Y-104318333D02*
X105927100Y-104484999D01*
X105927100Y-104484999D02*
X105927100Y-104051666D01*
X106227100Y-103951666D02*
X106227100Y-103418332D01*
X106160433Y-103251666D02*
X105460433Y-103251666D01*
X105460433Y-103251666D02*
X105460433Y-102984999D01*
X105460433Y-102984999D02*
X105493766Y-102918333D01*
X105493766Y-102918333D02*
X105527100Y-102884999D01*
X105527100Y-102884999D02*
X105593766Y-102851666D01*
X105593766Y-102851666D02*
X105693766Y-102851666D01*
X105693766Y-102851666D02*
X105760433Y-102884999D01*
X105760433Y-102884999D02*
X105793766Y-102918333D01*
X105793766Y-102918333D02*
X105827100Y-102984999D01*
X105827100Y-102984999D02*
X105827100Y-103251666D01*
X106160433Y-102551666D02*
X105693766Y-102551666D01*
X105460433Y-102551666D02*
X105493766Y-102584999D01*
X105493766Y-102584999D02*
X105527100Y-102551666D01*
X105527100Y-102551666D02*
X105493766Y-102518333D01*
X105493766Y-102518333D02*
X105460433Y-102551666D01*
X105460433Y-102551666D02*
X105527100Y-102551666D01*
X105693766Y-102218333D02*
X106160433Y-102218333D01*
X105760433Y-102218333D02*
X105727100Y-102185000D01*
X105727100Y-102185000D02*
X105693766Y-102118333D01*
X105693766Y-102118333D02*
X105693766Y-102018333D01*
X105693766Y-102018333D02*
X105727100Y-101951666D01*
X105727100Y-101951666D02*
X105793766Y-101918333D01*
X105793766Y-101918333D02*
X106160433Y-101918333D01*
D10*
X110330819Y-106378333D02*
X111045104Y-106378333D01*
X111045104Y-106378333D02*
X111187961Y-106425952D01*
X111187961Y-106425952D02*
X111283200Y-106521190D01*
X111283200Y-106521190D02*
X111330819Y-106664047D01*
X111330819Y-106664047D02*
X111330819Y-106759285D01*
X111330819Y-105378333D02*
X111330819Y-105949761D01*
X111330819Y-105664047D02*
X110330819Y-105664047D01*
X110330819Y-105664047D02*
X110473676Y-105759285D01*
X110473676Y-105759285D02*
X110568914Y-105854523D01*
X110568914Y-105854523D02*
X110616533Y-105949761D01*
D11*
X104544366Y-101869998D02*
X104577700Y-101903331D01*
X104577700Y-101903331D02*
X104611033Y-102003331D01*
X104611033Y-102003331D02*
X104611033Y-102069998D01*
X104611033Y-102069998D02*
X104577700Y-102169998D01*
X104577700Y-102169998D02*
X104511033Y-102236665D01*
X104511033Y-102236665D02*
X104444366Y-102269998D01*
X104444366Y-102269998D02*
X104311033Y-102303331D01*
X104311033Y-102303331D02*
X104211033Y-102303331D01*
X104211033Y-102303331D02*
X104077700Y-102269998D01*
X104077700Y-102269998D02*
X104011033Y-102236665D01*
X104011033Y-102236665D02*
X103944366Y-102169998D01*
X103944366Y-102169998D02*
X103911033Y-102069998D01*
X103911033Y-102069998D02*
X103911033Y-102003331D01*
X103911033Y-102003331D02*
X103944366Y-101903331D01*
X103944366Y-101903331D02*
X103977700Y-101869998D01*
X104611033Y-101469998D02*
X104577700Y-101536665D01*
X104577700Y-101536665D02*
X104544366Y-101569998D01*
X104544366Y-101569998D02*
X104477700Y-101603331D01*
X104477700Y-101603331D02*
X104277700Y-101603331D01*
X104277700Y-101603331D02*
X104211033Y-101569998D01*
X104211033Y-101569998D02*
X104177700Y-101536665D01*
X104177700Y-101536665D02*
X104144366Y-101469998D01*
X104144366Y-101469998D02*
X104144366Y-101369998D01*
X104144366Y-101369998D02*
X104177700Y-101303331D01*
X104177700Y-101303331D02*
X104211033Y-101269998D01*
X104211033Y-101269998D02*
X104277700Y-101236665D01*
X104277700Y-101236665D02*
X104477700Y-101236665D01*
X104477700Y-101236665D02*
X104544366Y-101269998D01*
X104544366Y-101269998D02*
X104577700Y-101303331D01*
X104577700Y-101303331D02*
X104611033Y-101369998D01*
X104611033Y-101369998D02*
X104611033Y-101469998D01*
X104144366Y-100936665D02*
X104611033Y-100936665D01*
X104211033Y-100936665D02*
X104177700Y-100903332D01*
X104177700Y-100903332D02*
X104144366Y-100836665D01*
X104144366Y-100836665D02*
X104144366Y-100736665D01*
X104144366Y-100736665D02*
X104177700Y-100669998D01*
X104177700Y-100669998D02*
X104244366Y-100636665D01*
X104244366Y-100636665D02*
X104611033Y-100636665D01*
X104144366Y-100303332D02*
X104611033Y-100303332D01*
X104211033Y-100303332D02*
X104177700Y-100269999D01*
X104177700Y-100269999D02*
X104144366Y-100203332D01*
X104144366Y-100203332D02*
X104144366Y-100103332D01*
X104144366Y-100103332D02*
X104177700Y-100036665D01*
X104177700Y-100036665D02*
X104244366Y-100003332D01*
X104244366Y-100003332D02*
X104611033Y-100003332D01*
X104677700Y-99836666D02*
X104677700Y-99303332D01*
X103911033Y-99003333D02*
X103911033Y-98936666D01*
X103911033Y-98936666D02*
X103944366Y-98869999D01*
X103944366Y-98869999D02*
X103977700Y-98836666D01*
X103977700Y-98836666D02*
X104044366Y-98803333D01*
X104044366Y-98803333D02*
X104177700Y-98769999D01*
X104177700Y-98769999D02*
X104344366Y-98769999D01*
X104344366Y-98769999D02*
X104477700Y-98803333D01*
X104477700Y-98803333D02*
X104544366Y-98836666D01*
X104544366Y-98836666D02*
X104577700Y-98869999D01*
X104577700Y-98869999D02*
X104611033Y-98936666D01*
X104611033Y-98936666D02*
X104611033Y-99003333D01*
X104611033Y-99003333D02*
X104577700Y-99069999D01*
X104577700Y-99069999D02*
X104544366Y-99103333D01*
X104544366Y-99103333D02*
X104477700Y-99136666D01*
X104477700Y-99136666D02*
X104344366Y-99169999D01*
X104344366Y-99169999D02*
X104177700Y-99169999D01*
X104177700Y-99169999D02*
X104044366Y-99136666D01*
X104044366Y-99136666D02*
X103977700Y-99103333D01*
X103977700Y-99103333D02*
X103944366Y-99069999D01*
X103944366Y-99069999D02*
X103911033Y-99003333D01*
X103977700Y-98503332D02*
X103944366Y-98469999D01*
X103944366Y-98469999D02*
X103911033Y-98403332D01*
X103911033Y-98403332D02*
X103911033Y-98236666D01*
X103911033Y-98236666D02*
X103944366Y-98169999D01*
X103944366Y-98169999D02*
X103977700Y-98136666D01*
X103977700Y-98136666D02*
X104044366Y-98103332D01*
X104044366Y-98103332D02*
X104111033Y-98103332D01*
X104111033Y-98103332D02*
X104211033Y-98136666D01*
X104211033Y-98136666D02*
X104611033Y-98536666D01*
X104611033Y-98536666D02*
X104611033Y-98103332D01*
X104611033Y-97869999D02*
X104144366Y-97503332D01*
X104144366Y-97869999D02*
X104611033Y-97503332D01*
X103911033Y-97103332D02*
X103911033Y-97036665D01*
X103911033Y-97036665D02*
X103944366Y-96969998D01*
X103944366Y-96969998D02*
X103977700Y-96936665D01*
X103977700Y-96936665D02*
X104044366Y-96903332D01*
X104044366Y-96903332D02*
X104177700Y-96869998D01*
X104177700Y-96869998D02*
X104344366Y-96869998D01*
X104344366Y-96869998D02*
X104477700Y-96903332D01*
X104477700Y-96903332D02*
X104544366Y-96936665D01*
X104544366Y-96936665D02*
X104577700Y-96969998D01*
X104577700Y-96969998D02*
X104611033Y-97036665D01*
X104611033Y-97036665D02*
X104611033Y-97103332D01*
X104611033Y-97103332D02*
X104577700Y-97169998D01*
X104577700Y-97169998D02*
X104544366Y-97203332D01*
X104544366Y-97203332D02*
X104477700Y-97236665D01*
X104477700Y-97236665D02*
X104344366Y-97269998D01*
X104344366Y-97269998D02*
X104177700Y-97269998D01*
X104177700Y-97269998D02*
X104044366Y-97236665D01*
X104044366Y-97236665D02*
X103977700Y-97203332D01*
X103977700Y-97203332D02*
X103944366Y-97169998D01*
X103944366Y-97169998D02*
X103911033Y-97103332D01*
X103911033Y-96636665D02*
X103911033Y-96203331D01*
X103911033Y-96203331D02*
X104177700Y-96436665D01*
X104177700Y-96436665D02*
X104177700Y-96336665D01*
X104177700Y-96336665D02*
X104211033Y-96269998D01*
X104211033Y-96269998D02*
X104244366Y-96236665D01*
X104244366Y-96236665D02*
X104311033Y-96203331D01*
X104311033Y-96203331D02*
X104477700Y-96203331D01*
X104477700Y-96203331D02*
X104544366Y-96236665D01*
X104544366Y-96236665D02*
X104577700Y-96269998D01*
X104577700Y-96269998D02*
X104611033Y-96336665D01*
X104611033Y-96336665D02*
X104611033Y-96536665D01*
X104611033Y-96536665D02*
X104577700Y-96603331D01*
X104577700Y-96603331D02*
X104544366Y-96636665D01*
X104677700Y-96069998D02*
X104677700Y-95536664D01*
X103911033Y-95236665D02*
X103911033Y-95103331D01*
X103911033Y-95103331D02*
X103944366Y-95036665D01*
X103944366Y-95036665D02*
X104011033Y-94969998D01*
X104011033Y-94969998D02*
X104144366Y-94936665D01*
X104144366Y-94936665D02*
X104377700Y-94936665D01*
X104377700Y-94936665D02*
X104511033Y-94969998D01*
X104511033Y-94969998D02*
X104577700Y-95036665D01*
X104577700Y-95036665D02*
X104611033Y-95103331D01*
X104611033Y-95103331D02*
X104611033Y-95236665D01*
X104611033Y-95236665D02*
X104577700Y-95303331D01*
X104577700Y-95303331D02*
X104511033Y-95369998D01*
X104511033Y-95369998D02*
X104377700Y-95403331D01*
X104377700Y-95403331D02*
X104144366Y-95403331D01*
X104144366Y-95403331D02*
X104011033Y-95369998D01*
X104011033Y-95369998D02*
X103944366Y-95303331D01*
X103944366Y-95303331D02*
X103911033Y-95236665D01*
X104611033Y-94336665D02*
X103911033Y-94336665D01*
X104577700Y-94336665D02*
X104611033Y-94403332D01*
X104611033Y-94403332D02*
X104611033Y-94536665D01*
X104611033Y-94536665D02*
X104577700Y-94603332D01*
X104577700Y-94603332D02*
X104544366Y-94636665D01*
X104544366Y-94636665D02*
X104477700Y-94669998D01*
X104477700Y-94669998D02*
X104277700Y-94669998D01*
X104277700Y-94669998D02*
X104211033Y-94636665D01*
X104211033Y-94636665D02*
X104177700Y-94603332D01*
X104177700Y-94603332D02*
X104144366Y-94536665D01*
X104144366Y-94536665D02*
X104144366Y-94403332D01*
X104144366Y-94403332D02*
X104177700Y-94336665D01*
X104611033Y-93703332D02*
X103911033Y-93703332D01*
X104577700Y-93703332D02*
X104611033Y-93769999D01*
X104611033Y-93769999D02*
X104611033Y-93903332D01*
X104611033Y-93903332D02*
X104577700Y-93969999D01*
X104577700Y-93969999D02*
X104544366Y-94003332D01*
X104544366Y-94003332D02*
X104477700Y-94036665D01*
X104477700Y-94036665D02*
X104277700Y-94036665D01*
X104277700Y-94036665D02*
X104211033Y-94003332D01*
X104211033Y-94003332D02*
X104177700Y-93969999D01*
X104177700Y-93969999D02*
X104144366Y-93903332D01*
X104144366Y-93903332D02*
X104144366Y-93769999D01*
X104144366Y-93769999D02*
X104177700Y-93703332D01*
X104677700Y-93536666D02*
X104677700Y-93003332D01*
X104244366Y-92836666D02*
X104244366Y-92603333D01*
X104611033Y-92503333D02*
X104611033Y-92836666D01*
X104611033Y-92836666D02*
X103911033Y-92836666D01*
X103911033Y-92836666D02*
X103911033Y-92503333D01*
X104144366Y-92270000D02*
X104611033Y-92103333D01*
X104611033Y-92103333D02*
X104144366Y-91936666D01*
X104577700Y-91403333D02*
X104611033Y-91470000D01*
X104611033Y-91470000D02*
X104611033Y-91603333D01*
X104611033Y-91603333D02*
X104577700Y-91670000D01*
X104577700Y-91670000D02*
X104511033Y-91703333D01*
X104511033Y-91703333D02*
X104244366Y-91703333D01*
X104244366Y-91703333D02*
X104177700Y-91670000D01*
X104177700Y-91670000D02*
X104144366Y-91603333D01*
X104144366Y-91603333D02*
X104144366Y-91470000D01*
X104144366Y-91470000D02*
X104177700Y-91403333D01*
X104177700Y-91403333D02*
X104244366Y-91370000D01*
X104244366Y-91370000D02*
X104311033Y-91370000D01*
X104311033Y-91370000D02*
X104377700Y-91703333D01*
X104144366Y-91070000D02*
X104611033Y-91070000D01*
X104211033Y-91070000D02*
X104177700Y-91036667D01*
X104177700Y-91036667D02*
X104144366Y-90970000D01*
X104144366Y-90970000D02*
X104144366Y-90870000D01*
X104144366Y-90870000D02*
X104177700Y-90803333D01*
X104177700Y-90803333D02*
X104244366Y-90770000D01*
X104244366Y-90770000D02*
X104611033Y-90770000D01*
D10*
X107785819Y-96218333D02*
X108500104Y-96218333D01*
X108500104Y-96218333D02*
X108642961Y-96265952D01*
X108642961Y-96265952D02*
X108738200Y-96361190D01*
X108738200Y-96361190D02*
X108785819Y-96504047D01*
X108785819Y-96504047D02*
X108785819Y-96599285D01*
X108119152Y-95313571D02*
X108785819Y-95313571D01*
X107738200Y-95551666D02*
X108452485Y-95789761D01*
X108452485Y-95789761D02*
X108452485Y-95170714D01*
D11*
X97695600Y-90387033D02*
X97362266Y-90387033D01*
X97362266Y-90387033D02*
X97362266Y-89687033D01*
X97928933Y-90020366D02*
X98162267Y-90020366D01*
X98262267Y-90387033D02*
X97928933Y-90387033D01*
X97928933Y-90387033D02*
X97928933Y-89687033D01*
X97928933Y-89687033D02*
X98262267Y-89687033D01*
X98562266Y-90387033D02*
X98562266Y-89687033D01*
X98562266Y-89687033D02*
X98728933Y-89687033D01*
X98728933Y-89687033D02*
X98828933Y-89720366D01*
X98828933Y-89720366D02*
X98895600Y-89787033D01*
X98895600Y-89787033D02*
X98928933Y-89853700D01*
X98928933Y-89853700D02*
X98962266Y-89987033D01*
X98962266Y-89987033D02*
X98962266Y-90087033D01*
X98962266Y-90087033D02*
X98928933Y-90220366D01*
X98928933Y-90220366D02*
X98895600Y-90287033D01*
X98895600Y-90287033D02*
X98828933Y-90353700D01*
X98828933Y-90353700D02*
X98728933Y-90387033D01*
X98728933Y-90387033D02*
X98562266Y-90387033D01*
D12*
X96737452Y-88619149D02*
X96737452Y-88119149D01*
X96737452Y-88119149D02*
X96856500Y-88119149D01*
X96856500Y-88119149D02*
X96927928Y-88142959D01*
X96927928Y-88142959D02*
X96975547Y-88190578D01*
X96975547Y-88190578D02*
X96999357Y-88238197D01*
X96999357Y-88238197D02*
X97023166Y-88333435D01*
X97023166Y-88333435D02*
X97023166Y-88404863D01*
X97023166Y-88404863D02*
X96999357Y-88500101D01*
X96999357Y-88500101D02*
X96975547Y-88547720D01*
X96975547Y-88547720D02*
X96927928Y-88595340D01*
X96927928Y-88595340D02*
X96856500Y-88619149D01*
X96856500Y-88619149D02*
X96737452Y-88619149D01*
X97213643Y-88166768D02*
X97237452Y-88142959D01*
X97237452Y-88142959D02*
X97285071Y-88119149D01*
X97285071Y-88119149D02*
X97404119Y-88119149D01*
X97404119Y-88119149D02*
X97451738Y-88142959D01*
X97451738Y-88142959D02*
X97475547Y-88166768D01*
X97475547Y-88166768D02*
X97499357Y-88214387D01*
X97499357Y-88214387D02*
X97499357Y-88262006D01*
X97499357Y-88262006D02*
X97475547Y-88333435D01*
X97475547Y-88333435D02*
X97189833Y-88619149D01*
X97189833Y-88619149D02*
X97499357Y-88619149D01*
D11*
X81349200Y-89585433D02*
X81415866Y-89585433D01*
X81415866Y-89585433D02*
X81482533Y-89618766D01*
X81482533Y-89618766D02*
X81515866Y-89652100D01*
X81515866Y-89652100D02*
X81549200Y-89718766D01*
X81549200Y-89718766D02*
X81582533Y-89852100D01*
X81582533Y-89852100D02*
X81582533Y-90018766D01*
X81582533Y-90018766D02*
X81549200Y-90152100D01*
X81549200Y-90152100D02*
X81515866Y-90218766D01*
X81515866Y-90218766D02*
X81482533Y-90252100D01*
X81482533Y-90252100D02*
X81415866Y-90285433D01*
X81415866Y-90285433D02*
X81349200Y-90285433D01*
X81349200Y-90285433D02*
X81282533Y-90252100D01*
X81282533Y-90252100D02*
X81249200Y-90218766D01*
X81249200Y-90218766D02*
X81215866Y-90152100D01*
X81215866Y-90152100D02*
X81182533Y-90018766D01*
X81182533Y-90018766D02*
X81182533Y-89852100D01*
X81182533Y-89852100D02*
X81215866Y-89718766D01*
X81215866Y-89718766D02*
X81249200Y-89652100D01*
X81249200Y-89652100D02*
X81282533Y-89618766D01*
X81282533Y-89618766D02*
X81349200Y-89585433D01*
X81882533Y-90218766D02*
X81915867Y-90252100D01*
X81915867Y-90252100D02*
X81882533Y-90285433D01*
X81882533Y-90285433D02*
X81849200Y-90252100D01*
X81849200Y-90252100D02*
X81882533Y-90218766D01*
X81882533Y-90218766D02*
X81882533Y-90285433D01*
X82582533Y-90285433D02*
X82182533Y-90285433D01*
X82382533Y-90285433D02*
X82382533Y-89585433D01*
X82382533Y-89585433D02*
X82315866Y-89685433D01*
X82315866Y-89685433D02*
X82249200Y-89752100D01*
X82249200Y-89752100D02*
X82182533Y-89785433D01*
X83182533Y-89818766D02*
X83182533Y-90285433D01*
X82882533Y-89818766D02*
X82882533Y-90185433D01*
X82882533Y-90185433D02*
X82915867Y-90252100D01*
X82915867Y-90252100D02*
X82982533Y-90285433D01*
X82982533Y-90285433D02*
X83082533Y-90285433D01*
X83082533Y-90285433D02*
X83149200Y-90252100D01*
X83149200Y-90252100D02*
X83182533Y-90218766D01*
X83749200Y-89918766D02*
X83515866Y-89918766D01*
X83515866Y-90285433D02*
X83515866Y-89585433D01*
X83515866Y-89585433D02*
X83849200Y-89585433D01*
D12*
X81516666Y-88444530D02*
X81492857Y-88468340D01*
X81492857Y-88468340D02*
X81421428Y-88492149D01*
X81421428Y-88492149D02*
X81373809Y-88492149D01*
X81373809Y-88492149D02*
X81302381Y-88468340D01*
X81302381Y-88468340D02*
X81254762Y-88420720D01*
X81254762Y-88420720D02*
X81230952Y-88373101D01*
X81230952Y-88373101D02*
X81207143Y-88277863D01*
X81207143Y-88277863D02*
X81207143Y-88206435D01*
X81207143Y-88206435D02*
X81230952Y-88111197D01*
X81230952Y-88111197D02*
X81254762Y-88063578D01*
X81254762Y-88063578D02*
X81302381Y-88015959D01*
X81302381Y-88015959D02*
X81373809Y-87992149D01*
X81373809Y-87992149D02*
X81421428Y-87992149D01*
X81421428Y-87992149D02*
X81492857Y-88015959D01*
X81492857Y-88015959D02*
X81516666Y-88039768D01*
X81992857Y-88492149D02*
X81707143Y-88492149D01*
X81850000Y-88492149D02*
X81850000Y-87992149D01*
X81850000Y-87992149D02*
X81802381Y-88063578D01*
X81802381Y-88063578D02*
X81754762Y-88111197D01*
X81754762Y-88111197D02*
X81707143Y-88135006D01*
D10*
X86391809Y-106658628D02*
X86391809Y-107134819D01*
X86058476Y-106134819D02*
X86391809Y-106658628D01*
X86391809Y-106658628D02*
X86725142Y-106134819D01*
X87582285Y-107134819D02*
X87010857Y-107134819D01*
X87296571Y-107134819D02*
X87296571Y-106134819D01*
X87296571Y-106134819D02*
X87201333Y-106277676D01*
X87201333Y-106277676D02*
X87106095Y-106372914D01*
X87106095Y-106372914D02*
X87010857Y-106420533D01*
D11*
X100190000Y-93338633D02*
X100623333Y-93338633D01*
X100623333Y-93338633D02*
X100390000Y-93605300D01*
X100390000Y-93605300D02*
X100490000Y-93605300D01*
X100490000Y-93605300D02*
X100556666Y-93638633D01*
X100556666Y-93638633D02*
X100590000Y-93671966D01*
X100590000Y-93671966D02*
X100623333Y-93738633D01*
X100623333Y-93738633D02*
X100623333Y-93905300D01*
X100623333Y-93905300D02*
X100590000Y-93971966D01*
X100590000Y-93971966D02*
X100556666Y-94005300D01*
X100556666Y-94005300D02*
X100490000Y-94038633D01*
X100490000Y-94038633D02*
X100290000Y-94038633D01*
X100290000Y-94038633D02*
X100223333Y-94005300D01*
X100223333Y-94005300D02*
X100190000Y-93971966D01*
X100856667Y-93338633D02*
X101290000Y-93338633D01*
X101290000Y-93338633D02*
X101056667Y-93605300D01*
X101056667Y-93605300D02*
X101156667Y-93605300D01*
X101156667Y-93605300D02*
X101223333Y-93638633D01*
X101223333Y-93638633D02*
X101256667Y-93671966D01*
X101256667Y-93671966D02*
X101290000Y-93738633D01*
X101290000Y-93738633D02*
X101290000Y-93905300D01*
X101290000Y-93905300D02*
X101256667Y-93971966D01*
X101256667Y-93971966D02*
X101223333Y-94005300D01*
X101223333Y-94005300D02*
X101156667Y-94038633D01*
X101156667Y-94038633D02*
X100956667Y-94038633D01*
X100956667Y-94038633D02*
X100890000Y-94005300D01*
X100890000Y-94005300D02*
X100856667Y-93971966D01*
X101723334Y-93338633D02*
X101790000Y-93338633D01*
X101790000Y-93338633D02*
X101856667Y-93371966D01*
X101856667Y-93371966D02*
X101890000Y-93405300D01*
X101890000Y-93405300D02*
X101923334Y-93471966D01*
X101923334Y-93471966D02*
X101956667Y-93605300D01*
X101956667Y-93605300D02*
X101956667Y-93771966D01*
X101956667Y-93771966D02*
X101923334Y-93905300D01*
X101923334Y-93905300D02*
X101890000Y-93971966D01*
X101890000Y-93971966D02*
X101856667Y-94005300D01*
X101856667Y-94005300D02*
X101790000Y-94038633D01*
X101790000Y-94038633D02*
X101723334Y-94038633D01*
X101723334Y-94038633D02*
X101656667Y-94005300D01*
X101656667Y-94005300D02*
X101623334Y-93971966D01*
X101623334Y-93971966D02*
X101590000Y-93905300D01*
X101590000Y-93905300D02*
X101556667Y-93771966D01*
X101556667Y-93771966D02*
X101556667Y-93605300D01*
X101556667Y-93605300D02*
X101590000Y-93471966D01*
X101590000Y-93471966D02*
X101623334Y-93405300D01*
X101623334Y-93405300D02*
X101656667Y-93371966D01*
X101656667Y-93371966D02*
X101723334Y-93338633D01*
D12*
X101546666Y-92347149D02*
X101380000Y-92109054D01*
X101260952Y-92347149D02*
X101260952Y-91847149D01*
X101260952Y-91847149D02*
X101451428Y-91847149D01*
X101451428Y-91847149D02*
X101499047Y-91870959D01*
X101499047Y-91870959D02*
X101522857Y-91894768D01*
X101522857Y-91894768D02*
X101546666Y-91942387D01*
X101546666Y-91942387D02*
X101546666Y-92013816D01*
X101546666Y-92013816D02*
X101522857Y-92061435D01*
X101522857Y-92061435D02*
X101499047Y-92085244D01*
X101499047Y-92085244D02*
X101451428Y-92109054D01*
X101451428Y-92109054D02*
X101260952Y-92109054D01*
X101999047Y-91847149D02*
X101760952Y-91847149D01*
X101760952Y-91847149D02*
X101737143Y-92085244D01*
X101737143Y-92085244D02*
X101760952Y-92061435D01*
X101760952Y-92061435D02*
X101808571Y-92037625D01*
X101808571Y-92037625D02*
X101927619Y-92037625D01*
X101927619Y-92037625D02*
X101975238Y-92061435D01*
X101975238Y-92061435D02*
X101999047Y-92085244D01*
X101999047Y-92085244D02*
X102022857Y-92132863D01*
X102022857Y-92132863D02*
X102022857Y-92251911D01*
X102022857Y-92251911D02*
X101999047Y-92299530D01*
X101999047Y-92299530D02*
X101975238Y-92323340D01*
X101975238Y-92323340D02*
X101927619Y-92347149D01*
X101927619Y-92347149D02*
X101808571Y-92347149D01*
X101808571Y-92347149D02*
X101760952Y-92323340D01*
X101760952Y-92323340D02*
X101737143Y-92299530D01*
D11*
X106750001Y-92308633D02*
X106750001Y-91608633D01*
X106750001Y-91608633D02*
X106983335Y-92108633D01*
X106983335Y-92108633D02*
X107216668Y-91608633D01*
X107216668Y-91608633D02*
X107216668Y-92308633D01*
X107650001Y-92308633D02*
X107583335Y-92275300D01*
X107583335Y-92275300D02*
X107550001Y-92241966D01*
X107550001Y-92241966D02*
X107516668Y-92175300D01*
X107516668Y-92175300D02*
X107516668Y-91975300D01*
X107516668Y-91975300D02*
X107550001Y-91908633D01*
X107550001Y-91908633D02*
X107583335Y-91875300D01*
X107583335Y-91875300D02*
X107650001Y-91841966D01*
X107650001Y-91841966D02*
X107750001Y-91841966D01*
X107750001Y-91841966D02*
X107816668Y-91875300D01*
X107816668Y-91875300D02*
X107850001Y-91908633D01*
X107850001Y-91908633D02*
X107883335Y-91975300D01*
X107883335Y-91975300D02*
X107883335Y-92175300D01*
X107883335Y-92175300D02*
X107850001Y-92241966D01*
X107850001Y-92241966D02*
X107816668Y-92275300D01*
X107816668Y-92275300D02*
X107750001Y-92308633D01*
X107750001Y-92308633D02*
X107650001Y-92308633D01*
X108483334Y-91841966D02*
X108483334Y-92308633D01*
X108183334Y-91841966D02*
X108183334Y-92208633D01*
X108183334Y-92208633D02*
X108216668Y-92275300D01*
X108216668Y-92275300D02*
X108283334Y-92308633D01*
X108283334Y-92308633D02*
X108383334Y-92308633D01*
X108383334Y-92308633D02*
X108450001Y-92275300D01*
X108450001Y-92275300D02*
X108483334Y-92241966D01*
X108816667Y-91841966D02*
X108816667Y-92308633D01*
X108816667Y-91908633D02*
X108850001Y-91875300D01*
X108850001Y-91875300D02*
X108916667Y-91841966D01*
X108916667Y-91841966D02*
X109016667Y-91841966D01*
X109016667Y-91841966D02*
X109083334Y-91875300D01*
X109083334Y-91875300D02*
X109116667Y-91941966D01*
X109116667Y-91941966D02*
X109116667Y-92308633D01*
X109350000Y-91841966D02*
X109616667Y-91841966D01*
X109450000Y-91608633D02*
X109450000Y-92208633D01*
X109450000Y-92208633D02*
X109483334Y-92275300D01*
X109483334Y-92275300D02*
X109550000Y-92308633D01*
X109550000Y-92308633D02*
X109616667Y-92308633D01*
X109850000Y-92308633D02*
X109850000Y-91841966D01*
X109850000Y-91608633D02*
X109816667Y-91641966D01*
X109816667Y-91641966D02*
X109850000Y-91675300D01*
X109850000Y-91675300D02*
X109883334Y-91641966D01*
X109883334Y-91641966D02*
X109850000Y-91608633D01*
X109850000Y-91608633D02*
X109850000Y-91675300D01*
X110183333Y-91841966D02*
X110183333Y-92308633D01*
X110183333Y-91908633D02*
X110216667Y-91875300D01*
X110216667Y-91875300D02*
X110283333Y-91841966D01*
X110283333Y-91841966D02*
X110383333Y-91841966D01*
X110383333Y-91841966D02*
X110450000Y-91875300D01*
X110450000Y-91875300D02*
X110483333Y-91941966D01*
X110483333Y-91941966D02*
X110483333Y-92308633D01*
X111116666Y-91841966D02*
X111116666Y-92408633D01*
X111116666Y-92408633D02*
X111083333Y-92475300D01*
X111083333Y-92475300D02*
X111050000Y-92508633D01*
X111050000Y-92508633D02*
X110983333Y-92541966D01*
X110983333Y-92541966D02*
X110883333Y-92541966D01*
X110883333Y-92541966D02*
X110816666Y-92508633D01*
X111116666Y-92275300D02*
X111050000Y-92308633D01*
X111050000Y-92308633D02*
X110916666Y-92308633D01*
X110916666Y-92308633D02*
X110850000Y-92275300D01*
X110850000Y-92275300D02*
X110816666Y-92241966D01*
X110816666Y-92241966D02*
X110783333Y-92175300D01*
X110783333Y-92175300D02*
X110783333Y-91975300D01*
X110783333Y-91975300D02*
X110816666Y-91908633D01*
X110816666Y-91908633D02*
X110850000Y-91875300D01*
X110850000Y-91875300D02*
X110916666Y-91841966D01*
X110916666Y-91841966D02*
X111050000Y-91841966D01*
X111050000Y-91841966D02*
X111116666Y-91875300D01*
X111449999Y-92308633D02*
X111449999Y-91608633D01*
X111449999Y-91941966D02*
X111849999Y-91941966D01*
X111849999Y-92308633D02*
X111849999Y-91608633D01*
X112283332Y-92308633D02*
X112216666Y-92275300D01*
X112216666Y-92275300D02*
X112183332Y-92241966D01*
X112183332Y-92241966D02*
X112149999Y-92175300D01*
X112149999Y-92175300D02*
X112149999Y-91975300D01*
X112149999Y-91975300D02*
X112183332Y-91908633D01*
X112183332Y-91908633D02*
X112216666Y-91875300D01*
X112216666Y-91875300D02*
X112283332Y-91841966D01*
X112283332Y-91841966D02*
X112383332Y-91841966D01*
X112383332Y-91841966D02*
X112449999Y-91875300D01*
X112449999Y-91875300D02*
X112483332Y-91908633D01*
X112483332Y-91908633D02*
X112516666Y-91975300D01*
X112516666Y-91975300D02*
X112516666Y-92175300D01*
X112516666Y-92175300D02*
X112483332Y-92241966D01*
X112483332Y-92241966D02*
X112449999Y-92275300D01*
X112449999Y-92275300D02*
X112383332Y-92308633D01*
X112383332Y-92308633D02*
X112283332Y-92308633D01*
X112916665Y-92308633D02*
X112849999Y-92275300D01*
X112849999Y-92275300D02*
X112816665Y-92208633D01*
X112816665Y-92208633D02*
X112816665Y-91608633D01*
X113449999Y-92275300D02*
X113383332Y-92308633D01*
X113383332Y-92308633D02*
X113249999Y-92308633D01*
X113249999Y-92308633D02*
X113183332Y-92275300D01*
X113183332Y-92275300D02*
X113149999Y-92208633D01*
X113149999Y-92208633D02*
X113149999Y-91941966D01*
X113149999Y-91941966D02*
X113183332Y-91875300D01*
X113183332Y-91875300D02*
X113249999Y-91841966D01*
X113249999Y-91841966D02*
X113383332Y-91841966D01*
X113383332Y-91841966D02*
X113449999Y-91875300D01*
X113449999Y-91875300D02*
X113483332Y-91941966D01*
X113483332Y-91941966D02*
X113483332Y-92008633D01*
X113483332Y-92008633D02*
X113149999Y-92075300D01*
D10*
X109338095Y-89244819D02*
X109338095Y-88244819D01*
X109338095Y-88721009D02*
X109909523Y-88721009D01*
X109909523Y-89244819D02*
X109909523Y-88244819D01*
X110290476Y-88244819D02*
X110909523Y-88244819D01*
X110909523Y-88244819D02*
X110576190Y-88625771D01*
X110576190Y-88625771D02*
X110719047Y-88625771D01*
X110719047Y-88625771D02*
X110814285Y-88673390D01*
X110814285Y-88673390D02*
X110861904Y-88721009D01*
X110861904Y-88721009D02*
X110909523Y-88816247D01*
X110909523Y-88816247D02*
X110909523Y-89054342D01*
X110909523Y-89054342D02*
X110861904Y-89149580D01*
X110861904Y-89149580D02*
X110814285Y-89197200D01*
X110814285Y-89197200D02*
X110719047Y-89244819D01*
X110719047Y-89244819D02*
X110433333Y-89244819D01*
X110433333Y-89244819D02*
X110338095Y-89197200D01*
X110338095Y-89197200D02*
X110290476Y-89149580D01*
D11*
X100343200Y-90319433D02*
X100009866Y-90319433D01*
X100009866Y-90319433D02*
X100009866Y-89619433D01*
X100576533Y-89952766D02*
X100809867Y-89952766D01*
X100909867Y-90319433D02*
X100576533Y-90319433D01*
X100576533Y-90319433D02*
X100576533Y-89619433D01*
X100576533Y-89619433D02*
X100909867Y-89619433D01*
X101209866Y-90319433D02*
X101209866Y-89619433D01*
X101209866Y-89619433D02*
X101376533Y-89619433D01*
X101376533Y-89619433D02*
X101476533Y-89652766D01*
X101476533Y-89652766D02*
X101543200Y-89719433D01*
X101543200Y-89719433D02*
X101576533Y-89786100D01*
X101576533Y-89786100D02*
X101609866Y-89919433D01*
X101609866Y-89919433D02*
X101609866Y-90019433D01*
X101609866Y-90019433D02*
X101576533Y-90152766D01*
X101576533Y-90152766D02*
X101543200Y-90219433D01*
X101543200Y-90219433D02*
X101476533Y-90286100D01*
X101476533Y-90286100D02*
X101376533Y-90319433D01*
X101376533Y-90319433D02*
X101209866Y-90319433D01*
D12*
X101230952Y-88619149D02*
X101230952Y-88119149D01*
X101230952Y-88119149D02*
X101350000Y-88119149D01*
X101350000Y-88119149D02*
X101421428Y-88142959D01*
X101421428Y-88142959D02*
X101469047Y-88190578D01*
X101469047Y-88190578D02*
X101492857Y-88238197D01*
X101492857Y-88238197D02*
X101516666Y-88333435D01*
X101516666Y-88333435D02*
X101516666Y-88404863D01*
X101516666Y-88404863D02*
X101492857Y-88500101D01*
X101492857Y-88500101D02*
X101469047Y-88547720D01*
X101469047Y-88547720D02*
X101421428Y-88595340D01*
X101421428Y-88595340D02*
X101350000Y-88619149D01*
X101350000Y-88619149D02*
X101230952Y-88619149D01*
X101992857Y-88619149D02*
X101707143Y-88619149D01*
X101850000Y-88619149D02*
X101850000Y-88119149D01*
X101850000Y-88119149D02*
X101802381Y-88190578D01*
X101802381Y-88190578D02*
X101754762Y-88238197D01*
X101754762Y-88238197D02*
X101707143Y-88262006D01*
D11*
X99686733Y-116279166D02*
X99653400Y-116312500D01*
X99653400Y-116312500D02*
X99553400Y-116345833D01*
X99553400Y-116345833D02*
X99486733Y-116345833D01*
X99486733Y-116345833D02*
X99386733Y-116312500D01*
X99386733Y-116312500D02*
X99320067Y-116245833D01*
X99320067Y-116245833D02*
X99286733Y-116179166D01*
X99286733Y-116179166D02*
X99253400Y-116045833D01*
X99253400Y-116045833D02*
X99253400Y-115945833D01*
X99253400Y-115945833D02*
X99286733Y-115812500D01*
X99286733Y-115812500D02*
X99320067Y-115745833D01*
X99320067Y-115745833D02*
X99386733Y-115679166D01*
X99386733Y-115679166D02*
X99486733Y-115645833D01*
X99486733Y-115645833D02*
X99553400Y-115645833D01*
X99553400Y-115645833D02*
X99653400Y-115679166D01*
X99653400Y-115679166D02*
X99686733Y-115712500D01*
X100086733Y-116345833D02*
X100020067Y-116312500D01*
X100020067Y-116312500D02*
X99986733Y-116279166D01*
X99986733Y-116279166D02*
X99953400Y-116212500D01*
X99953400Y-116212500D02*
X99953400Y-116012500D01*
X99953400Y-116012500D02*
X99986733Y-115945833D01*
X99986733Y-115945833D02*
X100020067Y-115912500D01*
X100020067Y-115912500D02*
X100086733Y-115879166D01*
X100086733Y-115879166D02*
X100186733Y-115879166D01*
X100186733Y-115879166D02*
X100253400Y-115912500D01*
X100253400Y-115912500D02*
X100286733Y-115945833D01*
X100286733Y-115945833D02*
X100320067Y-116012500D01*
X100320067Y-116012500D02*
X100320067Y-116212500D01*
X100320067Y-116212500D02*
X100286733Y-116279166D01*
X100286733Y-116279166D02*
X100253400Y-116312500D01*
X100253400Y-116312500D02*
X100186733Y-116345833D01*
X100186733Y-116345833D02*
X100086733Y-116345833D01*
X100620066Y-115879166D02*
X100620066Y-116345833D01*
X100620066Y-115945833D02*
X100653400Y-115912500D01*
X100653400Y-115912500D02*
X100720066Y-115879166D01*
X100720066Y-115879166D02*
X100820066Y-115879166D01*
X100820066Y-115879166D02*
X100886733Y-115912500D01*
X100886733Y-115912500D02*
X100920066Y-115979166D01*
X100920066Y-115979166D02*
X100920066Y-116345833D01*
X101253399Y-115879166D02*
X101253399Y-116345833D01*
X101253399Y-115945833D02*
X101286733Y-115912500D01*
X101286733Y-115912500D02*
X101353399Y-115879166D01*
X101353399Y-115879166D02*
X101453399Y-115879166D01*
X101453399Y-115879166D02*
X101520066Y-115912500D01*
X101520066Y-115912500D02*
X101553399Y-115979166D01*
X101553399Y-115979166D02*
X101553399Y-116345833D01*
X101720066Y-116412500D02*
X102253399Y-116412500D01*
X102553399Y-115645833D02*
X102620065Y-115645833D01*
X102620065Y-115645833D02*
X102686732Y-115679166D01*
X102686732Y-115679166D02*
X102720065Y-115712500D01*
X102720065Y-115712500D02*
X102753399Y-115779166D01*
X102753399Y-115779166D02*
X102786732Y-115912500D01*
X102786732Y-115912500D02*
X102786732Y-116079166D01*
X102786732Y-116079166D02*
X102753399Y-116212500D01*
X102753399Y-116212500D02*
X102720065Y-116279166D01*
X102720065Y-116279166D02*
X102686732Y-116312500D01*
X102686732Y-116312500D02*
X102620065Y-116345833D01*
X102620065Y-116345833D02*
X102553399Y-116345833D01*
X102553399Y-116345833D02*
X102486732Y-116312500D01*
X102486732Y-116312500D02*
X102453399Y-116279166D01*
X102453399Y-116279166D02*
X102420065Y-116212500D01*
X102420065Y-116212500D02*
X102386732Y-116079166D01*
X102386732Y-116079166D02*
X102386732Y-115912500D01*
X102386732Y-115912500D02*
X102420065Y-115779166D01*
X102420065Y-115779166D02*
X102453399Y-115712500D01*
X102453399Y-115712500D02*
X102486732Y-115679166D01*
X102486732Y-115679166D02*
X102553399Y-115645833D01*
X103453399Y-116345833D02*
X103053399Y-116345833D01*
X103253399Y-116345833D02*
X103253399Y-115645833D01*
X103253399Y-115645833D02*
X103186732Y-115745833D01*
X103186732Y-115745833D02*
X103120066Y-115812500D01*
X103120066Y-115812500D02*
X103053399Y-115845833D01*
X103686733Y-116345833D02*
X104053399Y-115879166D01*
X103686733Y-115879166D02*
X104053399Y-116345833D01*
X104453400Y-115645833D02*
X104520066Y-115645833D01*
X104520066Y-115645833D02*
X104586733Y-115679166D01*
X104586733Y-115679166D02*
X104620066Y-115712500D01*
X104620066Y-115712500D02*
X104653400Y-115779166D01*
X104653400Y-115779166D02*
X104686733Y-115912500D01*
X104686733Y-115912500D02*
X104686733Y-116079166D01*
X104686733Y-116079166D02*
X104653400Y-116212500D01*
X104653400Y-116212500D02*
X104620066Y-116279166D01*
X104620066Y-116279166D02*
X104586733Y-116312500D01*
X104586733Y-116312500D02*
X104520066Y-116345833D01*
X104520066Y-116345833D02*
X104453400Y-116345833D01*
X104453400Y-116345833D02*
X104386733Y-116312500D01*
X104386733Y-116312500D02*
X104353400Y-116279166D01*
X104353400Y-116279166D02*
X104320066Y-116212500D01*
X104320066Y-116212500D02*
X104286733Y-116079166D01*
X104286733Y-116079166D02*
X104286733Y-115912500D01*
X104286733Y-115912500D02*
X104320066Y-115779166D01*
X104320066Y-115779166D02*
X104353400Y-115712500D01*
X104353400Y-115712500D02*
X104386733Y-115679166D01*
X104386733Y-115679166D02*
X104453400Y-115645833D01*
X105286733Y-115879166D02*
X105286733Y-116345833D01*
X105120067Y-115612500D02*
X104953400Y-116112500D01*
X104953400Y-116112500D02*
X105386733Y-116112500D01*
X105486734Y-116412500D02*
X106020067Y-116412500D01*
X106186733Y-116345833D02*
X106186733Y-115645833D01*
X106186733Y-115645833D02*
X106453400Y-115645833D01*
X106453400Y-115645833D02*
X106520067Y-115679166D01*
X106520067Y-115679166D02*
X106553400Y-115712500D01*
X106553400Y-115712500D02*
X106586733Y-115779166D01*
X106586733Y-115779166D02*
X106586733Y-115879166D01*
X106586733Y-115879166D02*
X106553400Y-115945833D01*
X106553400Y-115945833D02*
X106520067Y-115979166D01*
X106520067Y-115979166D02*
X106453400Y-116012500D01*
X106453400Y-116012500D02*
X106186733Y-116012500D01*
X106886733Y-116345833D02*
X106886733Y-115879166D01*
X106886733Y-115645833D02*
X106853400Y-115679166D01*
X106853400Y-115679166D02*
X106886733Y-115712500D01*
X106886733Y-115712500D02*
X106920067Y-115679166D01*
X106920067Y-115679166D02*
X106886733Y-115645833D01*
X106886733Y-115645833D02*
X106886733Y-115712500D01*
X107220066Y-115879166D02*
X107220066Y-116345833D01*
X107220066Y-115945833D02*
X107253400Y-115912500D01*
X107253400Y-115912500D02*
X107320066Y-115879166D01*
X107320066Y-115879166D02*
X107420066Y-115879166D01*
X107420066Y-115879166D02*
X107486733Y-115912500D01*
X107486733Y-115912500D02*
X107520066Y-115979166D01*
X107520066Y-115979166D02*
X107520066Y-116345833D01*
D10*
X101124266Y-113094419D02*
X101124266Y-113808704D01*
X101124266Y-113808704D02*
X101076647Y-113951561D01*
X101076647Y-113951561D02*
X100981409Y-114046800D01*
X100981409Y-114046800D02*
X100838552Y-114094419D01*
X100838552Y-114094419D02*
X100743314Y-114094419D01*
X101552838Y-113189657D02*
X101600457Y-113142038D01*
X101600457Y-113142038D02*
X101695695Y-113094419D01*
X101695695Y-113094419D02*
X101933790Y-113094419D01*
X101933790Y-113094419D02*
X102029028Y-113142038D01*
X102029028Y-113142038D02*
X102076647Y-113189657D01*
X102076647Y-113189657D02*
X102124266Y-113284895D01*
X102124266Y-113284895D02*
X102124266Y-113380133D01*
X102124266Y-113380133D02*
X102076647Y-113522990D01*
X102076647Y-113522990D02*
X101505219Y-114094419D01*
X101505219Y-114094419D02*
X102124266Y-114094419D01*
D11*
X86099000Y-89550500D02*
X86132333Y-89517166D01*
X86132333Y-89517166D02*
X86199000Y-89483833D01*
X86199000Y-89483833D02*
X86365667Y-89483833D01*
X86365667Y-89483833D02*
X86432333Y-89517166D01*
X86432333Y-89517166D02*
X86465667Y-89550500D01*
X86465667Y-89550500D02*
X86499000Y-89617166D01*
X86499000Y-89617166D02*
X86499000Y-89683833D01*
X86499000Y-89683833D02*
X86465667Y-89783833D01*
X86465667Y-89783833D02*
X86065667Y-90183833D01*
X86065667Y-90183833D02*
X86499000Y-90183833D01*
X86765667Y-89550500D02*
X86799000Y-89517166D01*
X86799000Y-89517166D02*
X86865667Y-89483833D01*
X86865667Y-89483833D02*
X87032334Y-89483833D01*
X87032334Y-89483833D02*
X87099000Y-89517166D01*
X87099000Y-89517166D02*
X87132334Y-89550500D01*
X87132334Y-89550500D02*
X87165667Y-89617166D01*
X87165667Y-89617166D02*
X87165667Y-89683833D01*
X87165667Y-89683833D02*
X87132334Y-89783833D01*
X87132334Y-89783833D02*
X86732334Y-90183833D01*
X86732334Y-90183833D02*
X87165667Y-90183833D01*
X87465667Y-89717166D02*
X87465667Y-90417166D01*
X87465667Y-89750500D02*
X87532334Y-89717166D01*
X87532334Y-89717166D02*
X87665667Y-89717166D01*
X87665667Y-89717166D02*
X87732334Y-89750500D01*
X87732334Y-89750500D02*
X87765667Y-89783833D01*
X87765667Y-89783833D02*
X87799001Y-89850500D01*
X87799001Y-89850500D02*
X87799001Y-90050500D01*
X87799001Y-90050500D02*
X87765667Y-90117166D01*
X87765667Y-90117166D02*
X87732334Y-90150500D01*
X87732334Y-90150500D02*
X87665667Y-90183833D01*
X87665667Y-90183833D02*
X87532334Y-90183833D01*
X87532334Y-90183833D02*
X87465667Y-90150500D01*
X88332334Y-89817166D02*
X88099000Y-89817166D01*
X88099000Y-90183833D02*
X88099000Y-89483833D01*
X88099000Y-89483833D02*
X88432334Y-89483833D01*
D12*
X85956666Y-88444530D02*
X85932857Y-88468340D01*
X85932857Y-88468340D02*
X85861428Y-88492149D01*
X85861428Y-88492149D02*
X85813809Y-88492149D01*
X85813809Y-88492149D02*
X85742381Y-88468340D01*
X85742381Y-88468340D02*
X85694762Y-88420720D01*
X85694762Y-88420720D02*
X85670952Y-88373101D01*
X85670952Y-88373101D02*
X85647143Y-88277863D01*
X85647143Y-88277863D02*
X85647143Y-88206435D01*
X85647143Y-88206435D02*
X85670952Y-88111197D01*
X85670952Y-88111197D02*
X85694762Y-88063578D01*
X85694762Y-88063578D02*
X85742381Y-88015959D01*
X85742381Y-88015959D02*
X85813809Y-87992149D01*
X85813809Y-87992149D02*
X85861428Y-87992149D01*
X85861428Y-87992149D02*
X85932857Y-88015959D01*
X85932857Y-88015959D02*
X85956666Y-88039768D01*
X86123333Y-87992149D02*
X86432857Y-87992149D01*
X86432857Y-87992149D02*
X86266190Y-88182625D01*
X86266190Y-88182625D02*
X86337619Y-88182625D01*
X86337619Y-88182625D02*
X86385238Y-88206435D01*
X86385238Y-88206435D02*
X86409047Y-88230244D01*
X86409047Y-88230244D02*
X86432857Y-88277863D01*
X86432857Y-88277863D02*
X86432857Y-88396911D01*
X86432857Y-88396911D02*
X86409047Y-88444530D01*
X86409047Y-88444530D02*
X86385238Y-88468340D01*
X86385238Y-88468340D02*
X86337619Y-88492149D01*
X86337619Y-88492149D02*
X86194762Y-88492149D01*
X86194762Y-88492149D02*
X86147143Y-88468340D01*
X86147143Y-88468340D02*
X86123333Y-88444530D01*
D11*
X91118666Y-90133033D02*
X90718666Y-90133033D01*
X90918666Y-90133033D02*
X90918666Y-89433033D01*
X90918666Y-89433033D02*
X90851999Y-89533033D01*
X90851999Y-89533033D02*
X90785333Y-89599700D01*
X90785333Y-89599700D02*
X90718666Y-89633033D01*
X91552000Y-89433033D02*
X91618666Y-89433033D01*
X91618666Y-89433033D02*
X91685333Y-89466366D01*
X91685333Y-89466366D02*
X91718666Y-89499700D01*
X91718666Y-89499700D02*
X91752000Y-89566366D01*
X91752000Y-89566366D02*
X91785333Y-89699700D01*
X91785333Y-89699700D02*
X91785333Y-89866366D01*
X91785333Y-89866366D02*
X91752000Y-89999700D01*
X91752000Y-89999700D02*
X91718666Y-90066366D01*
X91718666Y-90066366D02*
X91685333Y-90099700D01*
X91685333Y-90099700D02*
X91618666Y-90133033D01*
X91618666Y-90133033D02*
X91552000Y-90133033D01*
X91552000Y-90133033D02*
X91485333Y-90099700D01*
X91485333Y-90099700D02*
X91452000Y-90066366D01*
X91452000Y-90066366D02*
X91418666Y-89999700D01*
X91418666Y-89999700D02*
X91385333Y-89866366D01*
X91385333Y-89866366D02*
X91385333Y-89699700D01*
X91385333Y-89699700D02*
X91418666Y-89566366D01*
X91418666Y-89566366D02*
X91452000Y-89499700D01*
X91452000Y-89499700D02*
X91485333Y-89466366D01*
X91485333Y-89466366D02*
X91552000Y-89433033D01*
X92218667Y-89433033D02*
X92285333Y-89433033D01*
X92285333Y-89433033D02*
X92352000Y-89466366D01*
X92352000Y-89466366D02*
X92385333Y-89499700D01*
X92385333Y-89499700D02*
X92418667Y-89566366D01*
X92418667Y-89566366D02*
X92452000Y-89699700D01*
X92452000Y-89699700D02*
X92452000Y-89866366D01*
X92452000Y-89866366D02*
X92418667Y-89999700D01*
X92418667Y-89999700D02*
X92385333Y-90066366D01*
X92385333Y-90066366D02*
X92352000Y-90099700D01*
X92352000Y-90099700D02*
X92285333Y-90133033D01*
X92285333Y-90133033D02*
X92218667Y-90133033D01*
X92218667Y-90133033D02*
X92152000Y-90099700D01*
X92152000Y-90099700D02*
X92118667Y-90066366D01*
X92118667Y-90066366D02*
X92085333Y-89999700D01*
X92085333Y-89999700D02*
X92052000Y-89866366D01*
X92052000Y-89866366D02*
X92052000Y-89699700D01*
X92052000Y-89699700D02*
X92085333Y-89566366D01*
X92085333Y-89566366D02*
X92118667Y-89499700D01*
X92118667Y-89499700D02*
X92152000Y-89466366D01*
X92152000Y-89466366D02*
X92218667Y-89433033D01*
X92752000Y-89666366D02*
X92752000Y-90133033D01*
X92752000Y-89733033D02*
X92785334Y-89699700D01*
X92785334Y-89699700D02*
X92852000Y-89666366D01*
X92852000Y-89666366D02*
X92952000Y-89666366D01*
X92952000Y-89666366D02*
X93018667Y-89699700D01*
X93018667Y-89699700D02*
X93052000Y-89766366D01*
X93052000Y-89766366D02*
X93052000Y-90133033D01*
X93618667Y-89766366D02*
X93385333Y-89766366D01*
X93385333Y-90133033D02*
X93385333Y-89433033D01*
X93385333Y-89433033D02*
X93718667Y-89433033D01*
D12*
X90406666Y-88444530D02*
X90382857Y-88468340D01*
X90382857Y-88468340D02*
X90311428Y-88492149D01*
X90311428Y-88492149D02*
X90263809Y-88492149D01*
X90263809Y-88492149D02*
X90192381Y-88468340D01*
X90192381Y-88468340D02*
X90144762Y-88420720D01*
X90144762Y-88420720D02*
X90120952Y-88373101D01*
X90120952Y-88373101D02*
X90097143Y-88277863D01*
X90097143Y-88277863D02*
X90097143Y-88206435D01*
X90097143Y-88206435D02*
X90120952Y-88111197D01*
X90120952Y-88111197D02*
X90144762Y-88063578D01*
X90144762Y-88063578D02*
X90192381Y-88015959D01*
X90192381Y-88015959D02*
X90263809Y-87992149D01*
X90263809Y-87992149D02*
X90311428Y-87992149D01*
X90311428Y-87992149D02*
X90382857Y-88015959D01*
X90382857Y-88015959D02*
X90406666Y-88039768D01*
X90859047Y-87992149D02*
X90620952Y-87992149D01*
X90620952Y-87992149D02*
X90597143Y-88230244D01*
X90597143Y-88230244D02*
X90620952Y-88206435D01*
X90620952Y-88206435D02*
X90668571Y-88182625D01*
X90668571Y-88182625D02*
X90787619Y-88182625D01*
X90787619Y-88182625D02*
X90835238Y-88206435D01*
X90835238Y-88206435D02*
X90859047Y-88230244D01*
X90859047Y-88230244D02*
X90882857Y-88277863D01*
X90882857Y-88277863D02*
X90882857Y-88396911D01*
X90882857Y-88396911D02*
X90859047Y-88444530D01*
X90859047Y-88444530D02*
X90835238Y-88468340D01*
X90835238Y-88468340D02*
X90787619Y-88492149D01*
X90787619Y-88492149D02*
X90668571Y-88492149D01*
X90668571Y-88492149D02*
X90620952Y-88468340D01*
X90620952Y-88468340D02*
X90597143Y-88444530D01*
D10*
X72606192Y-97244819D02*
X72606192Y-98054342D01*
X72606192Y-98054342D02*
X72653811Y-98149580D01*
X72653811Y-98149580D02*
X72701430Y-98197200D01*
X72701430Y-98197200D02*
X72796668Y-98244819D01*
X72796668Y-98244819D02*
X72987144Y-98244819D01*
X72987144Y-98244819D02*
X73082382Y-98197200D01*
X73082382Y-98197200D02*
X73130001Y-98149580D01*
X73130001Y-98149580D02*
X73177620Y-98054342D01*
X73177620Y-98054342D02*
X73177620Y-97244819D01*
X74177620Y-98244819D02*
X73606192Y-98244819D01*
X73891906Y-98244819D02*
X73891906Y-97244819D01*
X73891906Y-97244819D02*
X73796668Y-97387676D01*
X73796668Y-97387676D02*
X73701430Y-97482914D01*
X73701430Y-97482914D02*
X73606192Y-97530533D01*
D11*
X62639201Y-117793233D02*
X62639201Y-117093233D01*
X62639201Y-117093233D02*
X62872535Y-117593233D01*
X62872535Y-117593233D02*
X63105868Y-117093233D01*
X63105868Y-117093233D02*
X63105868Y-117793233D01*
X63539201Y-117793233D02*
X63472535Y-117759900D01*
X63472535Y-117759900D02*
X63439201Y-117726566D01*
X63439201Y-117726566D02*
X63405868Y-117659900D01*
X63405868Y-117659900D02*
X63405868Y-117459900D01*
X63405868Y-117459900D02*
X63439201Y-117393233D01*
X63439201Y-117393233D02*
X63472535Y-117359900D01*
X63472535Y-117359900D02*
X63539201Y-117326566D01*
X63539201Y-117326566D02*
X63639201Y-117326566D01*
X63639201Y-117326566D02*
X63705868Y-117359900D01*
X63705868Y-117359900D02*
X63739201Y-117393233D01*
X63739201Y-117393233D02*
X63772535Y-117459900D01*
X63772535Y-117459900D02*
X63772535Y-117659900D01*
X63772535Y-117659900D02*
X63739201Y-117726566D01*
X63739201Y-117726566D02*
X63705868Y-117759900D01*
X63705868Y-117759900D02*
X63639201Y-117793233D01*
X63639201Y-117793233D02*
X63539201Y-117793233D01*
X64372534Y-117326566D02*
X64372534Y-117793233D01*
X64072534Y-117326566D02*
X64072534Y-117693233D01*
X64072534Y-117693233D02*
X64105868Y-117759900D01*
X64105868Y-117759900D02*
X64172534Y-117793233D01*
X64172534Y-117793233D02*
X64272534Y-117793233D01*
X64272534Y-117793233D02*
X64339201Y-117759900D01*
X64339201Y-117759900D02*
X64372534Y-117726566D01*
X64705867Y-117326566D02*
X64705867Y-117793233D01*
X64705867Y-117393233D02*
X64739201Y-117359900D01*
X64739201Y-117359900D02*
X64805867Y-117326566D01*
X64805867Y-117326566D02*
X64905867Y-117326566D01*
X64905867Y-117326566D02*
X64972534Y-117359900D01*
X64972534Y-117359900D02*
X65005867Y-117426566D01*
X65005867Y-117426566D02*
X65005867Y-117793233D01*
X65239200Y-117326566D02*
X65505867Y-117326566D01*
X65339200Y-117093233D02*
X65339200Y-117693233D01*
X65339200Y-117693233D02*
X65372534Y-117759900D01*
X65372534Y-117759900D02*
X65439200Y-117793233D01*
X65439200Y-117793233D02*
X65505867Y-117793233D01*
X65739200Y-117793233D02*
X65739200Y-117326566D01*
X65739200Y-117093233D02*
X65705867Y-117126566D01*
X65705867Y-117126566D02*
X65739200Y-117159900D01*
X65739200Y-117159900D02*
X65772534Y-117126566D01*
X65772534Y-117126566D02*
X65739200Y-117093233D01*
X65739200Y-117093233D02*
X65739200Y-117159900D01*
X66072533Y-117326566D02*
X66072533Y-117793233D01*
X66072533Y-117393233D02*
X66105867Y-117359900D01*
X66105867Y-117359900D02*
X66172533Y-117326566D01*
X66172533Y-117326566D02*
X66272533Y-117326566D01*
X66272533Y-117326566D02*
X66339200Y-117359900D01*
X66339200Y-117359900D02*
X66372533Y-117426566D01*
X66372533Y-117426566D02*
X66372533Y-117793233D01*
X67005866Y-117326566D02*
X67005866Y-117893233D01*
X67005866Y-117893233D02*
X66972533Y-117959900D01*
X66972533Y-117959900D02*
X66939200Y-117993233D01*
X66939200Y-117993233D02*
X66872533Y-118026566D01*
X66872533Y-118026566D02*
X66772533Y-118026566D01*
X66772533Y-118026566D02*
X66705866Y-117993233D01*
X67005866Y-117759900D02*
X66939200Y-117793233D01*
X66939200Y-117793233D02*
X66805866Y-117793233D01*
X66805866Y-117793233D02*
X66739200Y-117759900D01*
X66739200Y-117759900D02*
X66705866Y-117726566D01*
X66705866Y-117726566D02*
X66672533Y-117659900D01*
X66672533Y-117659900D02*
X66672533Y-117459900D01*
X66672533Y-117459900D02*
X66705866Y-117393233D01*
X66705866Y-117393233D02*
X66739200Y-117359900D01*
X66739200Y-117359900D02*
X66805866Y-117326566D01*
X66805866Y-117326566D02*
X66939200Y-117326566D01*
X66939200Y-117326566D02*
X67005866Y-117359900D01*
X67339199Y-117793233D02*
X67339199Y-117093233D01*
X67339199Y-117426566D02*
X67739199Y-117426566D01*
X67739199Y-117793233D02*
X67739199Y-117093233D01*
X68172532Y-117793233D02*
X68105866Y-117759900D01*
X68105866Y-117759900D02*
X68072532Y-117726566D01*
X68072532Y-117726566D02*
X68039199Y-117659900D01*
X68039199Y-117659900D02*
X68039199Y-117459900D01*
X68039199Y-117459900D02*
X68072532Y-117393233D01*
X68072532Y-117393233D02*
X68105866Y-117359900D01*
X68105866Y-117359900D02*
X68172532Y-117326566D01*
X68172532Y-117326566D02*
X68272532Y-117326566D01*
X68272532Y-117326566D02*
X68339199Y-117359900D01*
X68339199Y-117359900D02*
X68372532Y-117393233D01*
X68372532Y-117393233D02*
X68405866Y-117459900D01*
X68405866Y-117459900D02*
X68405866Y-117659900D01*
X68405866Y-117659900D02*
X68372532Y-117726566D01*
X68372532Y-117726566D02*
X68339199Y-117759900D01*
X68339199Y-117759900D02*
X68272532Y-117793233D01*
X68272532Y-117793233D02*
X68172532Y-117793233D01*
X68805865Y-117793233D02*
X68739199Y-117759900D01*
X68739199Y-117759900D02*
X68705865Y-117693233D01*
X68705865Y-117693233D02*
X68705865Y-117093233D01*
X69339199Y-117759900D02*
X69272532Y-117793233D01*
X69272532Y-117793233D02*
X69139199Y-117793233D01*
X69139199Y-117793233D02*
X69072532Y-117759900D01*
X69072532Y-117759900D02*
X69039199Y-117693233D01*
X69039199Y-117693233D02*
X69039199Y-117426566D01*
X69039199Y-117426566D02*
X69072532Y-117359900D01*
X69072532Y-117359900D02*
X69139199Y-117326566D01*
X69139199Y-117326566D02*
X69272532Y-117326566D01*
X69272532Y-117326566D02*
X69339199Y-117359900D01*
X69339199Y-117359900D02*
X69372532Y-117426566D01*
X69372532Y-117426566D02*
X69372532Y-117493233D01*
X69372532Y-117493233D02*
X69039199Y-117559900D01*
D10*
X65227295Y-114729419D02*
X65227295Y-113729419D01*
X65227295Y-114205609D02*
X65798723Y-114205609D01*
X65798723Y-114729419D02*
X65798723Y-113729419D01*
X66798723Y-114729419D02*
X66227295Y-114729419D01*
X66513009Y-114729419D02*
X66513009Y-113729419D01*
X66513009Y-113729419D02*
X66417771Y-113872276D01*
X66417771Y-113872276D02*
X66322533Y-113967514D01*
X66322533Y-113967514D02*
X66227295Y-114015133D01*
D11*
X97601200Y-93243033D02*
X98034533Y-93243033D01*
X98034533Y-93243033D02*
X97801200Y-93509700D01*
X97801200Y-93509700D02*
X97901200Y-93509700D01*
X97901200Y-93509700D02*
X97967866Y-93543033D01*
X97967866Y-93543033D02*
X98001200Y-93576366D01*
X98001200Y-93576366D02*
X98034533Y-93643033D01*
X98034533Y-93643033D02*
X98034533Y-93809700D01*
X98034533Y-93809700D02*
X98001200Y-93876366D01*
X98001200Y-93876366D02*
X97967866Y-93909700D01*
X97967866Y-93909700D02*
X97901200Y-93943033D01*
X97901200Y-93943033D02*
X97701200Y-93943033D01*
X97701200Y-93943033D02*
X97634533Y-93909700D01*
X97634533Y-93909700D02*
X97601200Y-93876366D01*
X98267867Y-93243033D02*
X98701200Y-93243033D01*
X98701200Y-93243033D02*
X98467867Y-93509700D01*
X98467867Y-93509700D02*
X98567867Y-93509700D01*
X98567867Y-93509700D02*
X98634533Y-93543033D01*
X98634533Y-93543033D02*
X98667867Y-93576366D01*
X98667867Y-93576366D02*
X98701200Y-93643033D01*
X98701200Y-93643033D02*
X98701200Y-93809700D01*
X98701200Y-93809700D02*
X98667867Y-93876366D01*
X98667867Y-93876366D02*
X98634533Y-93909700D01*
X98634533Y-93909700D02*
X98567867Y-93943033D01*
X98567867Y-93943033D02*
X98367867Y-93943033D01*
X98367867Y-93943033D02*
X98301200Y-93909700D01*
X98301200Y-93909700D02*
X98267867Y-93876366D01*
X99134534Y-93243033D02*
X99201200Y-93243033D01*
X99201200Y-93243033D02*
X99267867Y-93276366D01*
X99267867Y-93276366D02*
X99301200Y-93309700D01*
X99301200Y-93309700D02*
X99334534Y-93376366D01*
X99334534Y-93376366D02*
X99367867Y-93509700D01*
X99367867Y-93509700D02*
X99367867Y-93676366D01*
X99367867Y-93676366D02*
X99334534Y-93809700D01*
X99334534Y-93809700D02*
X99301200Y-93876366D01*
X99301200Y-93876366D02*
X99267867Y-93909700D01*
X99267867Y-93909700D02*
X99201200Y-93943033D01*
X99201200Y-93943033D02*
X99134534Y-93943033D01*
X99134534Y-93943033D02*
X99067867Y-93909700D01*
X99067867Y-93909700D02*
X99034534Y-93876366D01*
X99034534Y-93876366D02*
X99001200Y-93809700D01*
X99001200Y-93809700D02*
X98967867Y-93676366D01*
X98967867Y-93676366D02*
X98967867Y-93509700D01*
X98967867Y-93509700D02*
X99001200Y-93376366D01*
X99001200Y-93376366D02*
X99034534Y-93309700D01*
X99034534Y-93309700D02*
X99067867Y-93276366D01*
X99067867Y-93276366D02*
X99134534Y-93243033D01*
D12*
X97147866Y-92302149D02*
X96981200Y-92064054D01*
X96862152Y-92302149D02*
X96862152Y-91802149D01*
X96862152Y-91802149D02*
X97052628Y-91802149D01*
X97052628Y-91802149D02*
X97100247Y-91825959D01*
X97100247Y-91825959D02*
X97124057Y-91849768D01*
X97124057Y-91849768D02*
X97147866Y-91897387D01*
X97147866Y-91897387D02*
X97147866Y-91968816D01*
X97147866Y-91968816D02*
X97124057Y-92016435D01*
X97124057Y-92016435D02*
X97100247Y-92040244D01*
X97100247Y-92040244D02*
X97052628Y-92064054D01*
X97052628Y-92064054D02*
X96862152Y-92064054D01*
X97314533Y-91802149D02*
X97647866Y-91802149D01*
X97647866Y-91802149D02*
X97433581Y-92302149D01*
D10*
X66018628Y-105184190D02*
X66494819Y-105184190D01*
X65494819Y-105517523D02*
X66018628Y-105184190D01*
X66018628Y-105184190D02*
X65494819Y-104850857D01*
X65590057Y-104565142D02*
X65542438Y-104517523D01*
X65542438Y-104517523D02*
X65494819Y-104422285D01*
X65494819Y-104422285D02*
X65494819Y-104184190D01*
X65494819Y-104184190D02*
X65542438Y-104088952D01*
X65542438Y-104088952D02*
X65590057Y-104041333D01*
X65590057Y-104041333D02*
X65685295Y-103993714D01*
X65685295Y-103993714D02*
X65780533Y-103993714D01*
X65780533Y-103993714D02*
X65923390Y-104041333D01*
X65923390Y-104041333D02*
X66494819Y-104612761D01*
X66494819Y-104612761D02*
X66494819Y-103993714D01*
D11*
X71820399Y-93309700D02*
X71853732Y-93276366D01*
X71853732Y-93276366D02*
X71920399Y-93243033D01*
X71920399Y-93243033D02*
X72087066Y-93243033D01*
X72087066Y-93243033D02*
X72153732Y-93276366D01*
X72153732Y-93276366D02*
X72187066Y-93309700D01*
X72187066Y-93309700D02*
X72220399Y-93376366D01*
X72220399Y-93376366D02*
X72220399Y-93443033D01*
X72220399Y-93443033D02*
X72187066Y-93543033D01*
X72187066Y-93543033D02*
X71787066Y-93943033D01*
X71787066Y-93943033D02*
X72220399Y-93943033D01*
X72820399Y-93476366D02*
X72820399Y-93943033D01*
X72653733Y-93209700D02*
X72487066Y-93709700D01*
X72487066Y-93709700D02*
X72920399Y-93709700D01*
X73520400Y-93943033D02*
X73187066Y-93943033D01*
X73187066Y-93943033D02*
X73187066Y-93243033D01*
X74153733Y-93876366D02*
X74120400Y-93909700D01*
X74120400Y-93909700D02*
X74020400Y-93943033D01*
X74020400Y-93943033D02*
X73953733Y-93943033D01*
X73953733Y-93943033D02*
X73853733Y-93909700D01*
X73853733Y-93909700D02*
X73787067Y-93843033D01*
X73787067Y-93843033D02*
X73753733Y-93776366D01*
X73753733Y-93776366D02*
X73720400Y-93643033D01*
X73720400Y-93643033D02*
X73720400Y-93543033D01*
X73720400Y-93543033D02*
X73753733Y-93409700D01*
X73753733Y-93409700D02*
X73787067Y-93343033D01*
X73787067Y-93343033D02*
X73853733Y-93276366D01*
X73853733Y-93276366D02*
X73953733Y-93243033D01*
X73953733Y-93243033D02*
X74020400Y-93243033D01*
X74020400Y-93243033D02*
X74120400Y-93276366D01*
X74120400Y-93276366D02*
X74153733Y-93309700D01*
X74820400Y-93943033D02*
X74420400Y-93943033D01*
X74620400Y-93943033D02*
X74620400Y-93243033D01*
X74620400Y-93243033D02*
X74553733Y-93343033D01*
X74553733Y-93343033D02*
X74487067Y-93409700D01*
X74487067Y-93409700D02*
X74420400Y-93443033D01*
X75253734Y-93243033D02*
X75320400Y-93243033D01*
X75320400Y-93243033D02*
X75387067Y-93276366D01*
X75387067Y-93276366D02*
X75420400Y-93309700D01*
X75420400Y-93309700D02*
X75453734Y-93376366D01*
X75453734Y-93376366D02*
X75487067Y-93509700D01*
X75487067Y-93509700D02*
X75487067Y-93676366D01*
X75487067Y-93676366D02*
X75453734Y-93809700D01*
X75453734Y-93809700D02*
X75420400Y-93876366D01*
X75420400Y-93876366D02*
X75387067Y-93909700D01*
X75387067Y-93909700D02*
X75320400Y-93943033D01*
X75320400Y-93943033D02*
X75253734Y-93943033D01*
X75253734Y-93943033D02*
X75187067Y-93909700D01*
X75187067Y-93909700D02*
X75153734Y-93876366D01*
X75153734Y-93876366D02*
X75120400Y-93809700D01*
X75120400Y-93809700D02*
X75087067Y-93676366D01*
X75087067Y-93676366D02*
X75087067Y-93509700D01*
X75087067Y-93509700D02*
X75120400Y-93376366D01*
X75120400Y-93376366D02*
X75153734Y-93309700D01*
X75153734Y-93309700D02*
X75187067Y-93276366D01*
X75187067Y-93276366D02*
X75253734Y-93243033D01*
X75753734Y-93309700D02*
X75787067Y-93276366D01*
X75787067Y-93276366D02*
X75853734Y-93243033D01*
X75853734Y-93243033D02*
X76020401Y-93243033D01*
X76020401Y-93243033D02*
X76087067Y-93276366D01*
X76087067Y-93276366D02*
X76120401Y-93309700D01*
X76120401Y-93309700D02*
X76153734Y-93376366D01*
X76153734Y-93376366D02*
X76153734Y-93443033D01*
X76153734Y-93443033D02*
X76120401Y-93543033D01*
X76120401Y-93543033D02*
X75720401Y-93943033D01*
X75720401Y-93943033D02*
X76153734Y-93943033D01*
X76787068Y-93243033D02*
X76453734Y-93243033D01*
X76453734Y-93243033D02*
X76420401Y-93576366D01*
X76420401Y-93576366D02*
X76453734Y-93543033D01*
X76453734Y-93543033D02*
X76520401Y-93509700D01*
X76520401Y-93509700D02*
X76687068Y-93509700D01*
X76687068Y-93509700D02*
X76753734Y-93543033D01*
X76753734Y-93543033D02*
X76787068Y-93576366D01*
X76787068Y-93576366D02*
X76820401Y-93643033D01*
X76820401Y-93643033D02*
X76820401Y-93809700D01*
X76820401Y-93809700D02*
X76787068Y-93876366D01*
X76787068Y-93876366D02*
X76753734Y-93909700D01*
X76753734Y-93909700D02*
X76687068Y-93943033D01*
X76687068Y-93943033D02*
X76520401Y-93943033D01*
X76520401Y-93943033D02*
X76453734Y-93909700D01*
X76453734Y-93909700D02*
X76420401Y-93876366D01*
D10*
X73114192Y-89370819D02*
X73114192Y-90180342D01*
X73114192Y-90180342D02*
X73161811Y-90275580D01*
X73161811Y-90275580D02*
X73209430Y-90323200D01*
X73209430Y-90323200D02*
X73304668Y-90370819D01*
X73304668Y-90370819D02*
X73495144Y-90370819D01*
X73495144Y-90370819D02*
X73590382Y-90323200D01*
X73590382Y-90323200D02*
X73638001Y-90275580D01*
X73638001Y-90275580D02*
X73685620Y-90180342D01*
X73685620Y-90180342D02*
X73685620Y-89370819D01*
X74114192Y-89466057D02*
X74161811Y-89418438D01*
X74161811Y-89418438D02*
X74257049Y-89370819D01*
X74257049Y-89370819D02*
X74495144Y-89370819D01*
X74495144Y-89370819D02*
X74590382Y-89418438D01*
X74590382Y-89418438D02*
X74638001Y-89466057D01*
X74638001Y-89466057D02*
X74685620Y-89561295D01*
X74685620Y-89561295D02*
X74685620Y-89656533D01*
X74685620Y-89656533D02*
X74638001Y-89799390D01*
X74638001Y-89799390D02*
X74066573Y-90370819D01*
X74066573Y-90370819D02*
X74685620Y-90370819D01*
D11*
X78042633Y-109982733D02*
X78042633Y-110382733D01*
X78042633Y-110182733D02*
X77342633Y-110182733D01*
X77342633Y-110182733D02*
X77442633Y-110249400D01*
X77442633Y-110249400D02*
X77509300Y-110316067D01*
X77509300Y-110316067D02*
X77542633Y-110382733D01*
X77342633Y-109549400D02*
X77342633Y-109482733D01*
X77342633Y-109482733D02*
X77375966Y-109416066D01*
X77375966Y-109416066D02*
X77409300Y-109382733D01*
X77409300Y-109382733D02*
X77475966Y-109349400D01*
X77475966Y-109349400D02*
X77609300Y-109316066D01*
X77609300Y-109316066D02*
X77775966Y-109316066D01*
X77775966Y-109316066D02*
X77909300Y-109349400D01*
X77909300Y-109349400D02*
X77975966Y-109382733D01*
X77975966Y-109382733D02*
X78009300Y-109416066D01*
X78009300Y-109416066D02*
X78042633Y-109482733D01*
X78042633Y-109482733D02*
X78042633Y-109549400D01*
X78042633Y-109549400D02*
X78009300Y-109616066D01*
X78009300Y-109616066D02*
X77975966Y-109649400D01*
X77975966Y-109649400D02*
X77909300Y-109682733D01*
X77909300Y-109682733D02*
X77775966Y-109716066D01*
X77775966Y-109716066D02*
X77609300Y-109716066D01*
X77609300Y-109716066D02*
X77475966Y-109682733D01*
X77475966Y-109682733D02*
X77409300Y-109649400D01*
X77409300Y-109649400D02*
X77375966Y-109616066D01*
X77375966Y-109616066D02*
X77342633Y-109549400D01*
X78042633Y-109016066D02*
X77342633Y-109016066D01*
X78042633Y-108616066D02*
X77642633Y-108916066D01*
X77342633Y-108616066D02*
X77742633Y-109016066D01*
D12*
X75338166Y-109637649D02*
X75171500Y-109399554D01*
X75052452Y-109637649D02*
X75052452Y-109137649D01*
X75052452Y-109137649D02*
X75242928Y-109137649D01*
X75242928Y-109137649D02*
X75290547Y-109161459D01*
X75290547Y-109161459D02*
X75314357Y-109185268D01*
X75314357Y-109185268D02*
X75338166Y-109232887D01*
X75338166Y-109232887D02*
X75338166Y-109304316D01*
X75338166Y-109304316D02*
X75314357Y-109351935D01*
X75314357Y-109351935D02*
X75290547Y-109375744D01*
X75290547Y-109375744D02*
X75242928Y-109399554D01*
X75242928Y-109399554D02*
X75052452Y-109399554D01*
X75528643Y-109185268D02*
X75552452Y-109161459D01*
X75552452Y-109161459D02*
X75600071Y-109137649D01*
X75600071Y-109137649D02*
X75719119Y-109137649D01*
X75719119Y-109137649D02*
X75766738Y-109161459D01*
X75766738Y-109161459D02*
X75790547Y-109185268D01*
X75790547Y-109185268D02*
X75814357Y-109232887D01*
X75814357Y-109232887D02*
X75814357Y-109280506D01*
X75814357Y-109280506D02*
X75790547Y-109351935D01*
X75790547Y-109351935D02*
X75504833Y-109637649D01*
X75504833Y-109637649D02*
X75814357Y-109637649D01*
D11*
X75023333Y-116380766D02*
X74990000Y-116414100D01*
X74990000Y-116414100D02*
X74890000Y-116447433D01*
X74890000Y-116447433D02*
X74823333Y-116447433D01*
X74823333Y-116447433D02*
X74723333Y-116414100D01*
X74723333Y-116414100D02*
X74656667Y-116347433D01*
X74656667Y-116347433D02*
X74623333Y-116280766D01*
X74623333Y-116280766D02*
X74590000Y-116147433D01*
X74590000Y-116147433D02*
X74590000Y-116047433D01*
X74590000Y-116047433D02*
X74623333Y-115914100D01*
X74623333Y-115914100D02*
X74656667Y-115847433D01*
X74656667Y-115847433D02*
X74723333Y-115780766D01*
X74723333Y-115780766D02*
X74823333Y-115747433D01*
X74823333Y-115747433D02*
X74890000Y-115747433D01*
X74890000Y-115747433D02*
X74990000Y-115780766D01*
X74990000Y-115780766D02*
X75023333Y-115814100D01*
X75423333Y-116447433D02*
X75356667Y-116414100D01*
X75356667Y-116414100D02*
X75323333Y-116380766D01*
X75323333Y-116380766D02*
X75290000Y-116314100D01*
X75290000Y-116314100D02*
X75290000Y-116114100D01*
X75290000Y-116114100D02*
X75323333Y-116047433D01*
X75323333Y-116047433D02*
X75356667Y-116014100D01*
X75356667Y-116014100D02*
X75423333Y-115980766D01*
X75423333Y-115980766D02*
X75523333Y-115980766D01*
X75523333Y-115980766D02*
X75590000Y-116014100D01*
X75590000Y-116014100D02*
X75623333Y-116047433D01*
X75623333Y-116047433D02*
X75656667Y-116114100D01*
X75656667Y-116114100D02*
X75656667Y-116314100D01*
X75656667Y-116314100D02*
X75623333Y-116380766D01*
X75623333Y-116380766D02*
X75590000Y-116414100D01*
X75590000Y-116414100D02*
X75523333Y-116447433D01*
X75523333Y-116447433D02*
X75423333Y-116447433D01*
X75956666Y-115980766D02*
X75956666Y-116447433D01*
X75956666Y-116047433D02*
X75990000Y-116014100D01*
X75990000Y-116014100D02*
X76056666Y-115980766D01*
X76056666Y-115980766D02*
X76156666Y-115980766D01*
X76156666Y-115980766D02*
X76223333Y-116014100D01*
X76223333Y-116014100D02*
X76256666Y-116080766D01*
X76256666Y-116080766D02*
X76256666Y-116447433D01*
X76589999Y-115980766D02*
X76589999Y-116447433D01*
X76589999Y-116047433D02*
X76623333Y-116014100D01*
X76623333Y-116014100D02*
X76689999Y-115980766D01*
X76689999Y-115980766D02*
X76789999Y-115980766D01*
X76789999Y-115980766D02*
X76856666Y-116014100D01*
X76856666Y-116014100D02*
X76889999Y-116080766D01*
X76889999Y-116080766D02*
X76889999Y-116447433D01*
X77056666Y-116514100D02*
X77589999Y-116514100D01*
X77889999Y-115747433D02*
X77956665Y-115747433D01*
X77956665Y-115747433D02*
X78023332Y-115780766D01*
X78023332Y-115780766D02*
X78056665Y-115814100D01*
X78056665Y-115814100D02*
X78089999Y-115880766D01*
X78089999Y-115880766D02*
X78123332Y-116014100D01*
X78123332Y-116014100D02*
X78123332Y-116180766D01*
X78123332Y-116180766D02*
X78089999Y-116314100D01*
X78089999Y-116314100D02*
X78056665Y-116380766D01*
X78056665Y-116380766D02*
X78023332Y-116414100D01*
X78023332Y-116414100D02*
X77956665Y-116447433D01*
X77956665Y-116447433D02*
X77889999Y-116447433D01*
X77889999Y-116447433D02*
X77823332Y-116414100D01*
X77823332Y-116414100D02*
X77789999Y-116380766D01*
X77789999Y-116380766D02*
X77756665Y-116314100D01*
X77756665Y-116314100D02*
X77723332Y-116180766D01*
X77723332Y-116180766D02*
X77723332Y-116014100D01*
X77723332Y-116014100D02*
X77756665Y-115880766D01*
X77756665Y-115880766D02*
X77789999Y-115814100D01*
X77789999Y-115814100D02*
X77823332Y-115780766D01*
X77823332Y-115780766D02*
X77889999Y-115747433D01*
X78789999Y-116447433D02*
X78389999Y-116447433D01*
X78589999Y-116447433D02*
X78589999Y-115747433D01*
X78589999Y-115747433D02*
X78523332Y-115847433D01*
X78523332Y-115847433D02*
X78456666Y-115914100D01*
X78456666Y-115914100D02*
X78389999Y-115947433D01*
X79023333Y-116447433D02*
X79389999Y-115980766D01*
X79023333Y-115980766D02*
X79389999Y-116447433D01*
X79790000Y-115747433D02*
X79856666Y-115747433D01*
X79856666Y-115747433D02*
X79923333Y-115780766D01*
X79923333Y-115780766D02*
X79956666Y-115814100D01*
X79956666Y-115814100D02*
X79990000Y-115880766D01*
X79990000Y-115880766D02*
X80023333Y-116014100D01*
X80023333Y-116014100D02*
X80023333Y-116180766D01*
X80023333Y-116180766D02*
X79990000Y-116314100D01*
X79990000Y-116314100D02*
X79956666Y-116380766D01*
X79956666Y-116380766D02*
X79923333Y-116414100D01*
X79923333Y-116414100D02*
X79856666Y-116447433D01*
X79856666Y-116447433D02*
X79790000Y-116447433D01*
X79790000Y-116447433D02*
X79723333Y-116414100D01*
X79723333Y-116414100D02*
X79690000Y-116380766D01*
X79690000Y-116380766D02*
X79656666Y-116314100D01*
X79656666Y-116314100D02*
X79623333Y-116180766D01*
X79623333Y-116180766D02*
X79623333Y-116014100D01*
X79623333Y-116014100D02*
X79656666Y-115880766D01*
X79656666Y-115880766D02*
X79690000Y-115814100D01*
X79690000Y-115814100D02*
X79723333Y-115780766D01*
X79723333Y-115780766D02*
X79790000Y-115747433D01*
X80356667Y-116447433D02*
X80490000Y-116447433D01*
X80490000Y-116447433D02*
X80556667Y-116414100D01*
X80556667Y-116414100D02*
X80590000Y-116380766D01*
X80590000Y-116380766D02*
X80656667Y-116280766D01*
X80656667Y-116280766D02*
X80690000Y-116147433D01*
X80690000Y-116147433D02*
X80690000Y-115880766D01*
X80690000Y-115880766D02*
X80656667Y-115814100D01*
X80656667Y-115814100D02*
X80623333Y-115780766D01*
X80623333Y-115780766D02*
X80556667Y-115747433D01*
X80556667Y-115747433D02*
X80423333Y-115747433D01*
X80423333Y-115747433D02*
X80356667Y-115780766D01*
X80356667Y-115780766D02*
X80323333Y-115814100D01*
X80323333Y-115814100D02*
X80290000Y-115880766D01*
X80290000Y-115880766D02*
X80290000Y-116047433D01*
X80290000Y-116047433D02*
X80323333Y-116114100D01*
X80323333Y-116114100D02*
X80356667Y-116147433D01*
X80356667Y-116147433D02*
X80423333Y-116180766D01*
X80423333Y-116180766D02*
X80556667Y-116180766D01*
X80556667Y-116180766D02*
X80623333Y-116147433D01*
X80623333Y-116147433D02*
X80656667Y-116114100D01*
X80656667Y-116114100D02*
X80690000Y-116047433D01*
X80823334Y-116514100D02*
X81356667Y-116514100D01*
X81523333Y-116447433D02*
X81523333Y-115747433D01*
X81523333Y-115747433D02*
X81790000Y-115747433D01*
X81790000Y-115747433D02*
X81856667Y-115780766D01*
X81856667Y-115780766D02*
X81890000Y-115814100D01*
X81890000Y-115814100D02*
X81923333Y-115880766D01*
X81923333Y-115880766D02*
X81923333Y-115980766D01*
X81923333Y-115980766D02*
X81890000Y-116047433D01*
X81890000Y-116047433D02*
X81856667Y-116080766D01*
X81856667Y-116080766D02*
X81790000Y-116114100D01*
X81790000Y-116114100D02*
X81523333Y-116114100D01*
X82223333Y-116447433D02*
X82223333Y-115980766D01*
X82223333Y-115747433D02*
X82190000Y-115780766D01*
X82190000Y-115780766D02*
X82223333Y-115814100D01*
X82223333Y-115814100D02*
X82256667Y-115780766D01*
X82256667Y-115780766D02*
X82223333Y-115747433D01*
X82223333Y-115747433D02*
X82223333Y-115814100D01*
X82556666Y-115980766D02*
X82556666Y-116447433D01*
X82556666Y-116047433D02*
X82590000Y-116014100D01*
X82590000Y-116014100D02*
X82656666Y-115980766D01*
X82656666Y-115980766D02*
X82756666Y-115980766D01*
X82756666Y-115980766D02*
X82823333Y-116014100D01*
X82823333Y-116014100D02*
X82856666Y-116080766D01*
X82856666Y-116080766D02*
X82856666Y-116447433D01*
D10*
X81454666Y-113145219D02*
X81454666Y-113859504D01*
X81454666Y-113859504D02*
X81407047Y-114002361D01*
X81407047Y-114002361D02*
X81311809Y-114097600D01*
X81311809Y-114097600D02*
X81168952Y-114145219D01*
X81168952Y-114145219D02*
X81073714Y-114145219D01*
X81835619Y-113145219D02*
X82454666Y-113145219D01*
X82454666Y-113145219D02*
X82121333Y-113526171D01*
X82121333Y-113526171D02*
X82264190Y-113526171D01*
X82264190Y-113526171D02*
X82359428Y-113573790D01*
X82359428Y-113573790D02*
X82407047Y-113621409D01*
X82407047Y-113621409D02*
X82454666Y-113716647D01*
X82454666Y-113716647D02*
X82454666Y-113954742D01*
X82454666Y-113954742D02*
X82407047Y-114049980D01*
X82407047Y-114049980D02*
X82359428Y-114097600D01*
X82359428Y-114097600D02*
X82264190Y-114145219D01*
X82264190Y-114145219D02*
X81978476Y-114145219D01*
X81978476Y-114145219D02*
X81883238Y-114097600D01*
X81883238Y-114097600D02*
X81835619Y-114049980D01*
D11*
X97823600Y-108864033D02*
X97890266Y-108864033D01*
X97890266Y-108864033D02*
X97956933Y-108897366D01*
X97956933Y-108897366D02*
X97990266Y-108930700D01*
X97990266Y-108930700D02*
X98023600Y-108997366D01*
X98023600Y-108997366D02*
X98056933Y-109130700D01*
X98056933Y-109130700D02*
X98056933Y-109297366D01*
X98056933Y-109297366D02*
X98023600Y-109430700D01*
X98023600Y-109430700D02*
X97990266Y-109497366D01*
X97990266Y-109497366D02*
X97956933Y-109530700D01*
X97956933Y-109530700D02*
X97890266Y-109564033D01*
X97890266Y-109564033D02*
X97823600Y-109564033D01*
X97823600Y-109564033D02*
X97756933Y-109530700D01*
X97756933Y-109530700D02*
X97723600Y-109497366D01*
X97723600Y-109497366D02*
X97690266Y-109430700D01*
X97690266Y-109430700D02*
X97656933Y-109297366D01*
X97656933Y-109297366D02*
X97656933Y-109130700D01*
X97656933Y-109130700D02*
X97690266Y-108997366D01*
X97690266Y-108997366D02*
X97723600Y-108930700D01*
X97723600Y-108930700D02*
X97756933Y-108897366D01*
X97756933Y-108897366D02*
X97823600Y-108864033D01*
X98356933Y-109497366D02*
X98390267Y-109530700D01*
X98390267Y-109530700D02*
X98356933Y-109564033D01*
X98356933Y-109564033D02*
X98323600Y-109530700D01*
X98323600Y-109530700D02*
X98356933Y-109497366D01*
X98356933Y-109497366D02*
X98356933Y-109564033D01*
X99056933Y-109564033D02*
X98656933Y-109564033D01*
X98856933Y-109564033D02*
X98856933Y-108864033D01*
X98856933Y-108864033D02*
X98790266Y-108964033D01*
X98790266Y-108964033D02*
X98723600Y-109030700D01*
X98723600Y-109030700D02*
X98656933Y-109064033D01*
X99656933Y-109097366D02*
X99656933Y-109564033D01*
X99356933Y-109097366D02*
X99356933Y-109464033D01*
X99356933Y-109464033D02*
X99390267Y-109530700D01*
X99390267Y-109530700D02*
X99456933Y-109564033D01*
X99456933Y-109564033D02*
X99556933Y-109564033D01*
X99556933Y-109564033D02*
X99623600Y-109530700D01*
X99623600Y-109530700D02*
X99656933Y-109497366D01*
X100223600Y-109197366D02*
X99990266Y-109197366D01*
X99990266Y-109564033D02*
X99990266Y-108864033D01*
X99990266Y-108864033D02*
X100323600Y-108864033D01*
D12*
X97198666Y-107773930D02*
X97174857Y-107797740D01*
X97174857Y-107797740D02*
X97103428Y-107821549D01*
X97103428Y-107821549D02*
X97055809Y-107821549D01*
X97055809Y-107821549D02*
X96984381Y-107797740D01*
X96984381Y-107797740D02*
X96936762Y-107750120D01*
X96936762Y-107750120D02*
X96912952Y-107702501D01*
X96912952Y-107702501D02*
X96889143Y-107607263D01*
X96889143Y-107607263D02*
X96889143Y-107535835D01*
X96889143Y-107535835D02*
X96912952Y-107440597D01*
X96912952Y-107440597D02*
X96936762Y-107392978D01*
X96936762Y-107392978D02*
X96984381Y-107345359D01*
X96984381Y-107345359D02*
X97055809Y-107321549D01*
X97055809Y-107321549D02*
X97103428Y-107321549D01*
X97103428Y-107321549D02*
X97174857Y-107345359D01*
X97174857Y-107345359D02*
X97198666Y-107369168D01*
X97627238Y-107488216D02*
X97627238Y-107821549D01*
X97508190Y-107297740D02*
X97389143Y-107654882D01*
X97389143Y-107654882D02*
X97698666Y-107654882D01*
D11*
X69432033Y-109881133D02*
X69432033Y-110281133D01*
X69432033Y-110081133D02*
X68732033Y-110081133D01*
X68732033Y-110081133D02*
X68832033Y-110147800D01*
X68832033Y-110147800D02*
X68898700Y-110214467D01*
X68898700Y-110214467D02*
X68932033Y-110281133D01*
X68732033Y-109447800D02*
X68732033Y-109381133D01*
X68732033Y-109381133D02*
X68765366Y-109314466D01*
X68765366Y-109314466D02*
X68798700Y-109281133D01*
X68798700Y-109281133D02*
X68865366Y-109247800D01*
X68865366Y-109247800D02*
X68998700Y-109214466D01*
X68998700Y-109214466D02*
X69165366Y-109214466D01*
X69165366Y-109214466D02*
X69298700Y-109247800D01*
X69298700Y-109247800D02*
X69365366Y-109281133D01*
X69365366Y-109281133D02*
X69398700Y-109314466D01*
X69398700Y-109314466D02*
X69432033Y-109381133D01*
X69432033Y-109381133D02*
X69432033Y-109447800D01*
X69432033Y-109447800D02*
X69398700Y-109514466D01*
X69398700Y-109514466D02*
X69365366Y-109547800D01*
X69365366Y-109547800D02*
X69298700Y-109581133D01*
X69298700Y-109581133D02*
X69165366Y-109614466D01*
X69165366Y-109614466D02*
X68998700Y-109614466D01*
X68998700Y-109614466D02*
X68865366Y-109581133D01*
X68865366Y-109581133D02*
X68798700Y-109547800D01*
X68798700Y-109547800D02*
X68765366Y-109514466D01*
X68765366Y-109514466D02*
X68732033Y-109447800D01*
X69432033Y-108914466D02*
X68732033Y-108914466D01*
X69432033Y-108514466D02*
X69032033Y-108814466D01*
X68732033Y-108514466D02*
X69132033Y-108914466D01*
D12*
X71250666Y-109637649D02*
X71084000Y-109399554D01*
X70964952Y-109637649D02*
X70964952Y-109137649D01*
X70964952Y-109137649D02*
X71155428Y-109137649D01*
X71155428Y-109137649D02*
X71203047Y-109161459D01*
X71203047Y-109161459D02*
X71226857Y-109185268D01*
X71226857Y-109185268D02*
X71250666Y-109232887D01*
X71250666Y-109232887D02*
X71250666Y-109304316D01*
X71250666Y-109304316D02*
X71226857Y-109351935D01*
X71226857Y-109351935D02*
X71203047Y-109375744D01*
X71203047Y-109375744D02*
X71155428Y-109399554D01*
X71155428Y-109399554D02*
X70964952Y-109399554D01*
X71726857Y-109637649D02*
X71441143Y-109637649D01*
X71584000Y-109637649D02*
X71584000Y-109137649D01*
X71584000Y-109137649D02*
X71536381Y-109209078D01*
X71536381Y-109209078D02*
X71488762Y-109256697D01*
X71488762Y-109256697D02*
X71441143Y-109280506D01*
D11*
X102539066Y-97956233D02*
X102139066Y-97956233D01*
X102339066Y-97956233D02*
X102339066Y-97256233D01*
X102339066Y-97256233D02*
X102272399Y-97356233D01*
X102272399Y-97356233D02*
X102205733Y-97422900D01*
X102205733Y-97422900D02*
X102139066Y-97456233D01*
X102972400Y-97256233D02*
X103039066Y-97256233D01*
X103039066Y-97256233D02*
X103105733Y-97289566D01*
X103105733Y-97289566D02*
X103139066Y-97322900D01*
X103139066Y-97322900D02*
X103172400Y-97389566D01*
X103172400Y-97389566D02*
X103205733Y-97522900D01*
X103205733Y-97522900D02*
X103205733Y-97689566D01*
X103205733Y-97689566D02*
X103172400Y-97822900D01*
X103172400Y-97822900D02*
X103139066Y-97889566D01*
X103139066Y-97889566D02*
X103105733Y-97922900D01*
X103105733Y-97922900D02*
X103039066Y-97956233D01*
X103039066Y-97956233D02*
X102972400Y-97956233D01*
X102972400Y-97956233D02*
X102905733Y-97922900D01*
X102905733Y-97922900D02*
X102872400Y-97889566D01*
X102872400Y-97889566D02*
X102839066Y-97822900D01*
X102839066Y-97822900D02*
X102805733Y-97689566D01*
X102805733Y-97689566D02*
X102805733Y-97522900D01*
X102805733Y-97522900D02*
X102839066Y-97389566D01*
X102839066Y-97389566D02*
X102872400Y-97322900D01*
X102872400Y-97322900D02*
X102905733Y-97289566D01*
X102905733Y-97289566D02*
X102972400Y-97256233D01*
X103505733Y-97956233D02*
X103505733Y-97256233D01*
X103905733Y-97956233D02*
X103605733Y-97556233D01*
X103905733Y-97256233D02*
X103505733Y-97656233D01*
D12*
X101620166Y-96112149D02*
X101453500Y-95874054D01*
X101334452Y-96112149D02*
X101334452Y-95612149D01*
X101334452Y-95612149D02*
X101524928Y-95612149D01*
X101524928Y-95612149D02*
X101572547Y-95635959D01*
X101572547Y-95635959D02*
X101596357Y-95659768D01*
X101596357Y-95659768D02*
X101620166Y-95707387D01*
X101620166Y-95707387D02*
X101620166Y-95778816D01*
X101620166Y-95778816D02*
X101596357Y-95826435D01*
X101596357Y-95826435D02*
X101572547Y-95850244D01*
X101572547Y-95850244D02*
X101524928Y-95874054D01*
X101524928Y-95874054D02*
X101334452Y-95874054D01*
X102048738Y-95612149D02*
X101953500Y-95612149D01*
X101953500Y-95612149D02*
X101905881Y-95635959D01*
X101905881Y-95635959D02*
X101882071Y-95659768D01*
X101882071Y-95659768D02*
X101834452Y-95731197D01*
X101834452Y-95731197D02*
X101810643Y-95826435D01*
X101810643Y-95826435D02*
X101810643Y-96016911D01*
X101810643Y-96016911D02*
X101834452Y-96064530D01*
X101834452Y-96064530D02*
X101858262Y-96088340D01*
X101858262Y-96088340D02*
X101905881Y-96112149D01*
X101905881Y-96112149D02*
X102001119Y-96112149D01*
X102001119Y-96112149D02*
X102048738Y-96088340D01*
X102048738Y-96088340D02*
X102072547Y-96064530D01*
X102072547Y-96064530D02*
X102096357Y-96016911D01*
X102096357Y-96016911D02*
X102096357Y-95897863D01*
X102096357Y-95897863D02*
X102072547Y-95850244D01*
X102072547Y-95850244D02*
X102048738Y-95826435D01*
X102048738Y-95826435D02*
X102001119Y-95802625D01*
X102001119Y-95802625D02*
X101905881Y-95802625D01*
X101905881Y-95802625D02*
X101858262Y-95826435D01*
X101858262Y-95826435D02*
X101834452Y-95850244D01*
X101834452Y-95850244D02*
X101810643Y-95897863D01*
D11*
X97066000Y-105501700D02*
X97099333Y-105468366D01*
X97099333Y-105468366D02*
X97166000Y-105435033D01*
X97166000Y-105435033D02*
X97332667Y-105435033D01*
X97332667Y-105435033D02*
X97399333Y-105468366D01*
X97399333Y-105468366D02*
X97432667Y-105501700D01*
X97432667Y-105501700D02*
X97466000Y-105568366D01*
X97466000Y-105568366D02*
X97466000Y-105635033D01*
X97466000Y-105635033D02*
X97432667Y-105735033D01*
X97432667Y-105735033D02*
X97032667Y-106135033D01*
X97032667Y-106135033D02*
X97466000Y-106135033D01*
X97732667Y-105501700D02*
X97766000Y-105468366D01*
X97766000Y-105468366D02*
X97832667Y-105435033D01*
X97832667Y-105435033D02*
X97999334Y-105435033D01*
X97999334Y-105435033D02*
X98066000Y-105468366D01*
X98066000Y-105468366D02*
X98099334Y-105501700D01*
X98099334Y-105501700D02*
X98132667Y-105568366D01*
X98132667Y-105568366D02*
X98132667Y-105635033D01*
X98132667Y-105635033D02*
X98099334Y-105735033D01*
X98099334Y-105735033D02*
X97699334Y-106135033D01*
X97699334Y-106135033D02*
X98132667Y-106135033D01*
X98432667Y-105668366D02*
X98432667Y-106368366D01*
X98432667Y-105701700D02*
X98499334Y-105668366D01*
X98499334Y-105668366D02*
X98632667Y-105668366D01*
X98632667Y-105668366D02*
X98699334Y-105701700D01*
X98699334Y-105701700D02*
X98732667Y-105735033D01*
X98732667Y-105735033D02*
X98766001Y-105801700D01*
X98766001Y-105801700D02*
X98766001Y-106001700D01*
X98766001Y-106001700D02*
X98732667Y-106068366D01*
X98732667Y-106068366D02*
X98699334Y-106101700D01*
X98699334Y-106101700D02*
X98632667Y-106135033D01*
X98632667Y-106135033D02*
X98499334Y-106135033D01*
X98499334Y-106135033D02*
X98432667Y-106101700D01*
X99299334Y-105768366D02*
X99066000Y-105768366D01*
X99066000Y-106135033D02*
X99066000Y-105435033D01*
X99066000Y-105435033D02*
X99399334Y-105435033D01*
D12*
X97132666Y-104319530D02*
X97108857Y-104343340D01*
X97108857Y-104343340D02*
X97037428Y-104367149D01*
X97037428Y-104367149D02*
X96989809Y-104367149D01*
X96989809Y-104367149D02*
X96918381Y-104343340D01*
X96918381Y-104343340D02*
X96870762Y-104295720D01*
X96870762Y-104295720D02*
X96846952Y-104248101D01*
X96846952Y-104248101D02*
X96823143Y-104152863D01*
X96823143Y-104152863D02*
X96823143Y-104081435D01*
X96823143Y-104081435D02*
X96846952Y-103986197D01*
X96846952Y-103986197D02*
X96870762Y-103938578D01*
X96870762Y-103938578D02*
X96918381Y-103890959D01*
X96918381Y-103890959D02*
X96989809Y-103867149D01*
X96989809Y-103867149D02*
X97037428Y-103867149D01*
X97037428Y-103867149D02*
X97108857Y-103890959D01*
X97108857Y-103890959D02*
X97132666Y-103914768D01*
X97323143Y-103914768D02*
X97346952Y-103890959D01*
X97346952Y-103890959D02*
X97394571Y-103867149D01*
X97394571Y-103867149D02*
X97513619Y-103867149D01*
X97513619Y-103867149D02*
X97561238Y-103890959D01*
X97561238Y-103890959D02*
X97585047Y-103914768D01*
X97585047Y-103914768D02*
X97608857Y-103962387D01*
X97608857Y-103962387D02*
X97608857Y-104010006D01*
X97608857Y-104010006D02*
X97585047Y-104081435D01*
X97585047Y-104081435D02*
X97299333Y-104367149D01*
X97299333Y-104367149D02*
X97608857Y-104367149D01*
D11*
X107216201Y-117971033D02*
X107216201Y-117271033D01*
X107216201Y-117271033D02*
X107449535Y-117771033D01*
X107449535Y-117771033D02*
X107682868Y-117271033D01*
X107682868Y-117271033D02*
X107682868Y-117971033D01*
X108116201Y-117971033D02*
X108049535Y-117937700D01*
X108049535Y-117937700D02*
X108016201Y-117904366D01*
X108016201Y-117904366D02*
X107982868Y-117837700D01*
X107982868Y-117837700D02*
X107982868Y-117637700D01*
X107982868Y-117637700D02*
X108016201Y-117571033D01*
X108016201Y-117571033D02*
X108049535Y-117537700D01*
X108049535Y-117537700D02*
X108116201Y-117504366D01*
X108116201Y-117504366D02*
X108216201Y-117504366D01*
X108216201Y-117504366D02*
X108282868Y-117537700D01*
X108282868Y-117537700D02*
X108316201Y-117571033D01*
X108316201Y-117571033D02*
X108349535Y-117637700D01*
X108349535Y-117637700D02*
X108349535Y-117837700D01*
X108349535Y-117837700D02*
X108316201Y-117904366D01*
X108316201Y-117904366D02*
X108282868Y-117937700D01*
X108282868Y-117937700D02*
X108216201Y-117971033D01*
X108216201Y-117971033D02*
X108116201Y-117971033D01*
X108949534Y-117504366D02*
X108949534Y-117971033D01*
X108649534Y-117504366D02*
X108649534Y-117871033D01*
X108649534Y-117871033D02*
X108682868Y-117937700D01*
X108682868Y-117937700D02*
X108749534Y-117971033D01*
X108749534Y-117971033D02*
X108849534Y-117971033D01*
X108849534Y-117971033D02*
X108916201Y-117937700D01*
X108916201Y-117937700D02*
X108949534Y-117904366D01*
X109282867Y-117504366D02*
X109282867Y-117971033D01*
X109282867Y-117571033D02*
X109316201Y-117537700D01*
X109316201Y-117537700D02*
X109382867Y-117504366D01*
X109382867Y-117504366D02*
X109482867Y-117504366D01*
X109482867Y-117504366D02*
X109549534Y-117537700D01*
X109549534Y-117537700D02*
X109582867Y-117604366D01*
X109582867Y-117604366D02*
X109582867Y-117971033D01*
X109816200Y-117504366D02*
X110082867Y-117504366D01*
X109916200Y-117271033D02*
X109916200Y-117871033D01*
X109916200Y-117871033D02*
X109949534Y-117937700D01*
X109949534Y-117937700D02*
X110016200Y-117971033D01*
X110016200Y-117971033D02*
X110082867Y-117971033D01*
X110316200Y-117971033D02*
X110316200Y-117504366D01*
X110316200Y-117271033D02*
X110282867Y-117304366D01*
X110282867Y-117304366D02*
X110316200Y-117337700D01*
X110316200Y-117337700D02*
X110349534Y-117304366D01*
X110349534Y-117304366D02*
X110316200Y-117271033D01*
X110316200Y-117271033D02*
X110316200Y-117337700D01*
X110649533Y-117504366D02*
X110649533Y-117971033D01*
X110649533Y-117571033D02*
X110682867Y-117537700D01*
X110682867Y-117537700D02*
X110749533Y-117504366D01*
X110749533Y-117504366D02*
X110849533Y-117504366D01*
X110849533Y-117504366D02*
X110916200Y-117537700D01*
X110916200Y-117537700D02*
X110949533Y-117604366D01*
X110949533Y-117604366D02*
X110949533Y-117971033D01*
X111582866Y-117504366D02*
X111582866Y-118071033D01*
X111582866Y-118071033D02*
X111549533Y-118137700D01*
X111549533Y-118137700D02*
X111516200Y-118171033D01*
X111516200Y-118171033D02*
X111449533Y-118204366D01*
X111449533Y-118204366D02*
X111349533Y-118204366D01*
X111349533Y-118204366D02*
X111282866Y-118171033D01*
X111582866Y-117937700D02*
X111516200Y-117971033D01*
X111516200Y-117971033D02*
X111382866Y-117971033D01*
X111382866Y-117971033D02*
X111316200Y-117937700D01*
X111316200Y-117937700D02*
X111282866Y-117904366D01*
X111282866Y-117904366D02*
X111249533Y-117837700D01*
X111249533Y-117837700D02*
X111249533Y-117637700D01*
X111249533Y-117637700D02*
X111282866Y-117571033D01*
X111282866Y-117571033D02*
X111316200Y-117537700D01*
X111316200Y-117537700D02*
X111382866Y-117504366D01*
X111382866Y-117504366D02*
X111516200Y-117504366D01*
X111516200Y-117504366D02*
X111582866Y-117537700D01*
X111916199Y-117971033D02*
X111916199Y-117271033D01*
X111916199Y-117604366D02*
X112316199Y-117604366D01*
X112316199Y-117971033D02*
X112316199Y-117271033D01*
X112749532Y-117971033D02*
X112682866Y-117937700D01*
X112682866Y-117937700D02*
X112649532Y-117904366D01*
X112649532Y-117904366D02*
X112616199Y-117837700D01*
X112616199Y-117837700D02*
X112616199Y-117637700D01*
X112616199Y-117637700D02*
X112649532Y-117571033D01*
X112649532Y-117571033D02*
X112682866Y-117537700D01*
X112682866Y-117537700D02*
X112749532Y-117504366D01*
X112749532Y-117504366D02*
X112849532Y-117504366D01*
X112849532Y-117504366D02*
X112916199Y-117537700D01*
X112916199Y-117537700D02*
X112949532Y-117571033D01*
X112949532Y-117571033D02*
X112982866Y-117637700D01*
X112982866Y-117637700D02*
X112982866Y-117837700D01*
X112982866Y-117837700D02*
X112949532Y-117904366D01*
X112949532Y-117904366D02*
X112916199Y-117937700D01*
X112916199Y-117937700D02*
X112849532Y-117971033D01*
X112849532Y-117971033D02*
X112749532Y-117971033D01*
X113382865Y-117971033D02*
X113316199Y-117937700D01*
X113316199Y-117937700D02*
X113282865Y-117871033D01*
X113282865Y-117871033D02*
X113282865Y-117271033D01*
X113916199Y-117937700D02*
X113849532Y-117971033D01*
X113849532Y-117971033D02*
X113716199Y-117971033D01*
X113716199Y-117971033D02*
X113649532Y-117937700D01*
X113649532Y-117937700D02*
X113616199Y-117871033D01*
X113616199Y-117871033D02*
X113616199Y-117604366D01*
X113616199Y-117604366D02*
X113649532Y-117537700D01*
X113649532Y-117537700D02*
X113716199Y-117504366D01*
X113716199Y-117504366D02*
X113849532Y-117504366D01*
X113849532Y-117504366D02*
X113916199Y-117537700D01*
X113916199Y-117537700D02*
X113949532Y-117604366D01*
X113949532Y-117604366D02*
X113949532Y-117671033D01*
X113949532Y-117671033D02*
X113616199Y-117737700D01*
D10*
X109677295Y-115059619D02*
X109677295Y-114059619D01*
X109677295Y-114535809D02*
X110248723Y-114535809D01*
X110248723Y-115059619D02*
X110248723Y-114059619D01*
X111153485Y-114392952D02*
X111153485Y-115059619D01*
X110915390Y-114012000D02*
X110677295Y-114726285D01*
X110677295Y-114726285D02*
X111296342Y-114726285D01*
D11*
%TO.C,BT1*%
X64516000Y-93929200D02*
X65151000Y-93294200D01*
X64516000Y-98374200D02*
X64516000Y-93929200D01*
X65151000Y-93294200D02*
X67056000Y-93294200D01*
X67056000Y-93294200D02*
X67056000Y-98374200D01*
X67056000Y-98374200D02*
X64516000Y-98374200D01*
%TO.C,R4*%
X96338500Y-95260000D02*
X98338500Y-95260000D01*
X96338500Y-96510000D02*
X96338500Y-95260000D01*
X98338500Y-95260000D02*
X98338500Y-96510000D01*
X98338500Y-96510000D02*
X96338500Y-96510000D01*
%TO.C,R3*%
X96258500Y-99070000D02*
X98258500Y-99070000D01*
X96258500Y-100320000D02*
X96258500Y-99070000D01*
X98258500Y-99070000D02*
X98258500Y-100320000D01*
X98258500Y-100320000D02*
X96258500Y-100320000D01*
%TO.C,J1*%
X108331000Y-101600000D02*
X108966000Y-100965000D01*
X108331000Y-111125000D02*
X108331000Y-101600000D01*
X108966000Y-100965000D02*
X110871000Y-100965000D01*
X110871000Y-100965000D02*
X110871000Y-111125000D01*
X110871000Y-111125000D02*
X108331000Y-111125000D01*
%TO.C,J4*%
X105791000Y-93345000D02*
X107061000Y-92075000D01*
X105791000Y-99695000D02*
X105791000Y-93345000D01*
X107061000Y-92075000D02*
X110871000Y-92075000D01*
X110871000Y-92075000D02*
X110871000Y-99695000D01*
X110871000Y-99695000D02*
X105791000Y-99695000D01*
%TO.C,D2*%
X96106500Y-88092000D02*
X96106500Y-88992000D01*
X96106500Y-88992000D02*
X98106500Y-88992000D01*
X96406500Y-87792000D02*
X96106500Y-88092000D01*
X98106500Y-87792000D02*
X96406500Y-87792000D01*
X98106500Y-88992000D02*
X98106500Y-87792000D01*
%TO.C,C1*%
X80600000Y-87640000D02*
X82600000Y-87640000D01*
X80600000Y-88890000D02*
X80600000Y-87640000D01*
X82600000Y-87640000D02*
X82600000Y-88890000D01*
X82600000Y-88890000D02*
X80600000Y-88890000D01*
%TO.C,Y1*%
X84368000Y-105280000D02*
X84568000Y-105080000D01*
X84368000Y-108080000D02*
X84368000Y-105280000D01*
X84568000Y-105080000D02*
X89168000Y-105080000D01*
X84568000Y-108280000D02*
X84368000Y-108080000D01*
X89168000Y-105080000D02*
X89368000Y-105280000D01*
X89168000Y-108280000D02*
X84568000Y-108280000D01*
X89368000Y-105280000D02*
X89368000Y-108080000D01*
X89368000Y-106080000D02*
X88368000Y-105080000D01*
X89368000Y-108080000D02*
X89168000Y-108280000D01*
%TO.C,R5*%
X100630000Y-91495000D02*
X102630000Y-91495000D01*
X100630000Y-92745000D02*
X100630000Y-91495000D01*
X102630000Y-91495000D02*
X102630000Y-92745000D01*
X102630000Y-92745000D02*
X100630000Y-92745000D01*
%TO.C,D1*%
X100600000Y-88092000D02*
X100600000Y-88992000D01*
X100600000Y-88992000D02*
X102600000Y-88992000D01*
X100900000Y-87792000D02*
X100600000Y-88092000D01*
X102600000Y-87792000D02*
X100900000Y-87792000D01*
X102600000Y-88992000D02*
X102600000Y-87792000D01*
%TO.C,J2*%
X96377600Y-112369600D02*
X106537600Y-112369600D01*
X96377600Y-114274600D02*
X96377600Y-112369600D01*
X97012600Y-114909600D02*
X96377600Y-114274600D01*
X106537600Y-112369600D02*
X106537600Y-114909600D01*
X106537600Y-114909600D02*
X97012600Y-114909600D01*
%TO.C,C3*%
X85040000Y-87640000D02*
X87040000Y-87640000D01*
X85040000Y-88890000D02*
X85040000Y-87640000D01*
X87040000Y-87640000D02*
X87040000Y-88890000D01*
X87040000Y-88890000D02*
X85040000Y-88890000D01*
%TO.C,C5*%
X89490000Y-87640000D02*
X91490000Y-87640000D01*
X89490000Y-88890000D02*
X89490000Y-87640000D01*
X91490000Y-87640000D02*
X91490000Y-88890000D01*
X91490000Y-88890000D02*
X89490000Y-88890000D01*
%TO.C,U1*%
X70718097Y-96140000D02*
X71718097Y-95140000D01*
X70718097Y-100440000D02*
X70718097Y-96140000D01*
X71718097Y-95140000D02*
X76018097Y-95140000D01*
X76018097Y-95140000D02*
X76018097Y-100440000D01*
X76018097Y-100440000D02*
X70718097Y-100440000D01*
%TO.C,R7*%
X96178500Y-91450000D02*
X98178500Y-91450000D01*
X96178500Y-92700000D02*
X96178500Y-91450000D01*
X98178500Y-91450000D02*
X98178500Y-92700000D01*
X98178500Y-92700000D02*
X96178500Y-92700000D01*
%TO.C,Y2*%
X64440000Y-102408000D02*
X64640000Y-102208000D01*
X64440000Y-107008000D02*
X64440000Y-102408000D01*
X64640000Y-102208000D02*
X67440000Y-102208000D01*
X64640000Y-107208000D02*
X64440000Y-107008000D01*
X66640000Y-107208000D02*
X67640000Y-106208000D01*
X67440000Y-102208000D02*
X67640000Y-102408000D01*
X67440000Y-107208000D02*
X64640000Y-107208000D01*
X67640000Y-102408000D02*
X67640000Y-107008000D01*
X67640000Y-107008000D02*
X67440000Y-107208000D01*
%TO.C,U2*%
X71226097Y-88266000D02*
X72226097Y-87266000D01*
X71226097Y-92566000D02*
X71226097Y-88266000D01*
X72226097Y-87266000D02*
X76526097Y-87266000D01*
X76526097Y-87266000D02*
X76526097Y-92566000D01*
X76526097Y-92566000D02*
X71226097Y-92566000D01*
%TO.C,R2*%
X74421500Y-108785500D02*
X76421500Y-108785500D01*
X74421500Y-110035500D02*
X74421500Y-108785500D01*
X76421500Y-108785500D02*
X76421500Y-110035500D01*
X76421500Y-110035500D02*
X74421500Y-110035500D01*
%TO.C,J3*%
X70358000Y-112420400D02*
X93218000Y-112420400D01*
X70358000Y-114325400D02*
X70358000Y-112420400D01*
X70993000Y-114960400D02*
X70358000Y-114325400D01*
X93218000Y-112420400D02*
X93218000Y-114960400D01*
X93218000Y-114960400D02*
X70993000Y-114960400D01*
%TO.C,C4*%
X96282000Y-106969400D02*
X98282000Y-106969400D01*
X96282000Y-108219400D02*
X96282000Y-106969400D01*
X98282000Y-106969400D02*
X98282000Y-108219400D01*
X98282000Y-108219400D02*
X96282000Y-108219400D01*
D13*
%TO.C,U4*%
X83308000Y-96241846D02*
X82302940Y-96241846D01*
X82302940Y-95787771D01*
X83308000Y-95787771D01*
X83308000Y-96241846D01*
G36*
X83308000Y-96241846D02*
G01*
X82302940Y-96241846D01*
X82302940Y-95787771D01*
X83308000Y-95787771D01*
X83308000Y-96241846D01*
G37*
X83308000Y-100252291D02*
X82306530Y-100252291D01*
X82306530Y-99787771D01*
X83308000Y-99787771D01*
X83308000Y-100252291D01*
G36*
X83308000Y-100252291D02*
G01*
X82306530Y-100252291D01*
X82306530Y-99787771D01*
X83308000Y-99787771D01*
X83308000Y-100252291D01*
G37*
X83308000Y-94638941D02*
X82306840Y-94638941D01*
X82306840Y-94187771D01*
X83308000Y-94187771D01*
X83308000Y-94638941D01*
G36*
X83308000Y-94638941D02*
G01*
X82306840Y-94638941D01*
X82306840Y-94187771D01*
X83308000Y-94187771D01*
X83308000Y-94638941D01*
G37*
X83308000Y-98648241D02*
X82307120Y-98648241D01*
X82307120Y-98187771D01*
X83308000Y-98187771D01*
X83308000Y-98648241D01*
G36*
X83308000Y-98648241D02*
G01*
X82307120Y-98648241D01*
X82307120Y-98187771D01*
X83308000Y-98187771D01*
X83308000Y-98648241D01*
G37*
X83308000Y-95441831D02*
X82309420Y-95441831D01*
X82309420Y-94987771D01*
X83308000Y-94987771D01*
X83308000Y-95441831D01*
G36*
X83308000Y-95441831D02*
G01*
X82309420Y-95441831D01*
X82309420Y-94987771D01*
X83308000Y-94987771D01*
X83308000Y-95441831D01*
G37*
X83308000Y-97845814D02*
X82311370Y-97845814D01*
X82311370Y-97387771D01*
X83308000Y-97387771D01*
X83308000Y-97845814D01*
G36*
X83308000Y-97845814D02*
G01*
X82311370Y-97845814D01*
X82311370Y-97387771D01*
X83308000Y-97387771D01*
X83308000Y-97845814D01*
G37*
X83308000Y-99447911D02*
X82311460Y-99447911D01*
X82311460Y-98987771D01*
X83308000Y-98987771D01*
X83308000Y-99447911D01*
G36*
X83308000Y-99447911D02*
G01*
X82311460Y-99447911D01*
X82311460Y-98987771D01*
X83308000Y-98987771D01*
X83308000Y-99447911D01*
G37*
X83308000Y-97044851D02*
X82314230Y-97044851D01*
X82314230Y-96587771D01*
X83308000Y-96587771D01*
X83308000Y-97044851D01*
G36*
X83308000Y-97044851D02*
G01*
X82314230Y-97044851D01*
X82314230Y-96587771D01*
X83308000Y-96587771D01*
X83308000Y-97044851D01*
G37*
X84242600Y-101722091D02*
X83779250Y-101722091D01*
X83779250Y-100722371D01*
X84242600Y-100722371D01*
X84242600Y-101722091D01*
G36*
X84242600Y-101722091D02*
G01*
X83779250Y-101722091D01*
X83779250Y-100722371D01*
X84242600Y-100722371D01*
X84242600Y-101722091D01*
G37*
X84242600Y-93704881D02*
X83780650Y-93704881D01*
X83780650Y-92719771D01*
X84242600Y-92719771D01*
X84242600Y-93704881D01*
G36*
X84242600Y-93704881D02*
G01*
X83780650Y-93704881D01*
X83780650Y-92719771D01*
X84242600Y-92719771D01*
X84242600Y-93704881D01*
G37*
X85042600Y-93704561D02*
X84581700Y-93704561D01*
X84581700Y-92719771D01*
X85042600Y-92719771D01*
X85042600Y-93704561D01*
G36*
X85042600Y-93704561D02*
G01*
X84581700Y-93704561D01*
X84581700Y-92719771D01*
X85042600Y-92719771D01*
X85042600Y-93704561D01*
G37*
X85042600Y-101716231D02*
X84583790Y-101716231D01*
X84583790Y-100722371D01*
X85042600Y-100722371D01*
X85042600Y-101716231D01*
G36*
X85042600Y-101716231D02*
G01*
X84583790Y-101716231D01*
X84583790Y-100722371D01*
X85042600Y-100722371D01*
X85042600Y-101716231D01*
G37*
X85842600Y-101723241D02*
X85382130Y-101723241D01*
X85382130Y-100722371D01*
X85842600Y-100722371D01*
X85842600Y-101723241D01*
G36*
X85842600Y-101723241D02*
G01*
X85382130Y-101723241D01*
X85382130Y-100722371D01*
X85842600Y-100722371D01*
X85842600Y-101723241D01*
G37*
X85842600Y-93702881D02*
X85382350Y-93702881D01*
X85382350Y-92719771D01*
X85842600Y-92719771D01*
X85842600Y-93702881D01*
G36*
X85842600Y-93702881D02*
G01*
X85382350Y-93702881D01*
X85382350Y-92719771D01*
X85842600Y-92719771D01*
X85842600Y-93702881D01*
G37*
X86642600Y-93699111D02*
X86183381Y-93699111D01*
X86183381Y-92719771D01*
X86642600Y-92719771D01*
X86642600Y-93699111D01*
G36*
X86642600Y-93699111D02*
G01*
X86183381Y-93699111D01*
X86183381Y-92719771D01*
X86642600Y-92719771D01*
X86642600Y-93699111D01*
G37*
X86642600Y-101725581D02*
X86183638Y-101725581D01*
X86183638Y-100722371D01*
X86642600Y-100722371D01*
X86642600Y-101725581D01*
G36*
X86642600Y-101725581D02*
G01*
X86183638Y-101725581D01*
X86183638Y-100722371D01*
X86642600Y-100722371D01*
X86642600Y-101725581D01*
G37*
X87442600Y-101721171D02*
X86985713Y-101721171D01*
X86985713Y-100722371D01*
X87442600Y-100722371D01*
X87442600Y-101721171D01*
G36*
X87442600Y-101721171D02*
G01*
X86985713Y-101721171D01*
X86985713Y-100722371D01*
X87442600Y-100722371D01*
X87442600Y-101721171D01*
G37*
X87442600Y-93703191D02*
X86985750Y-93703191D01*
X86985750Y-92719771D01*
X87442600Y-92719771D01*
X87442600Y-93703191D01*
G36*
X87442600Y-93703191D02*
G01*
X86985750Y-93703191D01*
X86985750Y-92719771D01*
X87442600Y-92719771D01*
X87442600Y-93703191D01*
G37*
X88242600Y-101721531D02*
X87787248Y-101721531D01*
X87787248Y-100722371D01*
X88242600Y-100722371D01*
X88242600Y-101721531D01*
G36*
X88242600Y-101721531D02*
G01*
X87787248Y-101721531D01*
X87787248Y-100722371D01*
X88242600Y-100722371D01*
X88242600Y-101721531D01*
G37*
X88242600Y-93703581D02*
X87787283Y-93703581D01*
X87787283Y-92719771D01*
X88242600Y-92719771D01*
X88242600Y-93703581D01*
G36*
X88242600Y-93703581D02*
G01*
X87787283Y-93703581D01*
X87787283Y-92719771D01*
X88242600Y-92719771D01*
X88242600Y-93703581D01*
G37*
X89042600Y-101722091D02*
X88588990Y-101722091D01*
X88588990Y-100722371D01*
X89042600Y-100722371D01*
X89042600Y-101722091D01*
G36*
X89042600Y-101722091D02*
G01*
X88588990Y-101722091D01*
X88588990Y-100722371D01*
X89042600Y-100722371D01*
X89042600Y-101722091D01*
G37*
X89042600Y-93702931D02*
X88589150Y-93702931D01*
X88589150Y-92719771D01*
X89042600Y-92719771D01*
X89042600Y-93702931D01*
G36*
X89042600Y-93702931D02*
G01*
X88589150Y-93702931D01*
X88589150Y-92719771D01*
X89042600Y-92719771D01*
X89042600Y-93702931D01*
G37*
X89842600Y-101721001D02*
X89389990Y-101721001D01*
X89389990Y-100722371D01*
X89842600Y-100722371D01*
X89842600Y-101721001D01*
G36*
X89842600Y-101721001D02*
G01*
X89389990Y-101721001D01*
X89389990Y-100722371D01*
X89842600Y-100722371D01*
X89842600Y-101721001D01*
G37*
X89842600Y-93702421D02*
X89391240Y-93702421D01*
X89391240Y-92719771D01*
X89842600Y-92719771D01*
X89842600Y-93702421D01*
G36*
X89842600Y-93702421D02*
G01*
X89391240Y-93702421D01*
X89391240Y-92719771D01*
X89842600Y-92719771D01*
X89842600Y-93702421D01*
G37*
X91310600Y-100247651D02*
X90323100Y-100247651D01*
X90323100Y-99787771D01*
X91310600Y-99787771D01*
X91310600Y-100247651D01*
G36*
X91310600Y-100247651D02*
G01*
X90323100Y-100247651D01*
X90323100Y-99787771D01*
X91310600Y-99787771D01*
X91310600Y-100247651D01*
G37*
X91310600Y-97044776D02*
X90324000Y-97044776D01*
X90324000Y-96587771D01*
X91310600Y-96587771D01*
X91310600Y-97044776D01*
G36*
X91310600Y-97044776D02*
G01*
X90324000Y-97044776D01*
X90324000Y-96587771D01*
X91310600Y-96587771D01*
X91310600Y-97044776D01*
G37*
X91310600Y-97845815D02*
X90324710Y-97845815D01*
X90324710Y-97387771D01*
X91310600Y-97387771D01*
X91310600Y-97845815D01*
G36*
X91310600Y-97845815D02*
G01*
X90324710Y-97845815D01*
X90324710Y-97387771D01*
X91310600Y-97387771D01*
X91310600Y-97845815D01*
G37*
X91310600Y-99448721D02*
X90325890Y-99448721D01*
X90325890Y-98987771D01*
X91310600Y-98987771D01*
X91310600Y-99448721D01*
G36*
X91310600Y-99448721D02*
G01*
X90325890Y-99448721D01*
X90325890Y-98987771D01*
X91310600Y-98987771D01*
X91310600Y-99448721D01*
G37*
X91310600Y-96242990D02*
X90327150Y-96242990D01*
X90327150Y-95787771D01*
X91310600Y-95787771D01*
X91310600Y-96242990D01*
G36*
X91310600Y-96242990D02*
G01*
X90327150Y-96242990D01*
X90327150Y-95787771D01*
X91310600Y-95787771D01*
X91310600Y-96242990D01*
G37*
X91310600Y-98647901D02*
X90327200Y-98647901D01*
X90327200Y-98187771D01*
X91310600Y-98187771D01*
X91310600Y-98647901D01*
G36*
X91310600Y-98647901D02*
G01*
X90327200Y-98647901D01*
X90327200Y-98187771D01*
X91310600Y-98187771D01*
X91310600Y-98647901D01*
G37*
X91310600Y-94638851D02*
X90328350Y-94638851D01*
X90328350Y-94187771D01*
X91310600Y-94187771D01*
X91310600Y-94638851D01*
G36*
X91310600Y-94638851D02*
G01*
X90328350Y-94638851D01*
X90328350Y-94187771D01*
X91310600Y-94187771D01*
X91310600Y-94638851D01*
G37*
X91310600Y-95438431D02*
X90332960Y-95438431D01*
X90332960Y-94987771D01*
X91310600Y-94987771D01*
X91310600Y-95438431D01*
G36*
X91310600Y-95438431D02*
G01*
X90332960Y-95438431D01*
X90332960Y-94987771D01*
X91310600Y-94987771D01*
X91310600Y-95438431D01*
G37*
D14*
%TO.C,U3*%
X71087000Y-101767000D02*
X71087000Y-106767000D01*
X71087000Y-101767000D02*
X75087000Y-101767000D01*
X71087000Y-106767000D02*
X75087000Y-106767000D01*
X75087000Y-101767000D02*
X75087000Y-106767000D01*
D15*
X68742000Y-101772000D02*
G75*
G02*
X68542000Y-101772000I-100000J0D01*
G01*
X68542000Y-101772000D02*
G75*
G02*
X68742000Y-101772000I100000J0D01*
G01*
D11*
%TO.C,R1*%
X70334000Y-108785500D02*
X72334000Y-108785500D01*
X70334000Y-110035500D02*
X70334000Y-108785500D01*
X72334000Y-108785500D02*
X72334000Y-110035500D01*
X72334000Y-110035500D02*
X70334000Y-110035500D01*
%TO.C,R6*%
X100703500Y-95260000D02*
X102703500Y-95260000D01*
X100703500Y-96510000D02*
X100703500Y-95260000D01*
X102703500Y-95260000D02*
X102703500Y-96510000D01*
X102703500Y-96510000D02*
X100703500Y-96510000D01*
%TO.C,C2*%
X96216000Y-103515000D02*
X98216000Y-103515000D01*
X96216000Y-104765000D02*
X96216000Y-103515000D01*
X98216000Y-103515000D02*
X98216000Y-104765000D01*
X98216000Y-104765000D02*
X96216000Y-104765000D01*
%TD*%
M02*
