%TF.GenerationSoftware,KiCad,Pcbnew,9.0.0*%
%TF.CreationDate,2025-06-05T18:30:24+05:30*%
%TF.ProjectId,MCU datalogger,4d435520-6461-4746-916c-6f676765722e,1*%
%TF.SameCoordinates,Original*%
%TF.FileFunction,Plated,1,4,PTH,Drill*%
%TF.FilePolarity,Positive*%
%FSLAX46Y46*%
G04 Gerber Fmt 4.6, Leading zero omitted, Abs format (unit mm)*
G04 Created by KiCad (PCBNEW 9.0.0) date 2025-06-05 18:30:24*
%MOMM*%
%LPD*%
G01*
G04 APERTURE LIST*
%TA.AperFunction,ViaDrill*%
%ADD10C,0.300000*%
%TD*%
%TA.AperFunction,ViaDrill*%
%ADD11C,0.400000*%
%TD*%
%TA.AperFunction,ComponentDrill*%
%ADD12C,1.000000*%
%TD*%
G04 APERTURE END LIST*
D10*
X73660000Y-98190000D03*
X80080000Y-91810000D03*
X80970000Y-99200000D03*
X84290185Y-99290185D03*
X85150000Y-89940000D03*
X86130000Y-104490000D03*
X86400000Y-94880000D03*
X86960000Y-107690000D03*
X87150000Y-98010000D03*
X88888151Y-97029787D03*
X88973730Y-100120644D03*
X89180000Y-94810000D03*
X90290000Y-102940000D03*
X91720000Y-101250000D03*
X94850000Y-105850000D03*
X94990000Y-102320000D03*
X95750000Y-101200000D03*
X96354716Y-94770000D03*
X96840000Y-105990000D03*
X97790000Y-97530000D03*
X102730000Y-94520000D03*
X105900000Y-103200000D03*
X107100000Y-104680000D03*
D11*
X68640000Y-91390000D03*
X68770000Y-100730000D03*
X68920000Y-110430000D03*
X69000000Y-107300000D03*
X71120000Y-98400000D03*
X72240000Y-89450000D03*
X73820000Y-102400000D03*
X75430000Y-88020000D03*
X75670000Y-97050000D03*
X76320000Y-89290000D03*
X76390000Y-107820000D03*
X76700000Y-94650000D03*
X85240000Y-96710000D03*
X85373828Y-95567811D03*
X85960000Y-99100000D03*
X88500000Y-89140000D03*
X89568402Y-98245228D03*
X89663998Y-96250000D03*
X93180000Y-87710000D03*
X98010000Y-90860000D03*
X99030000Y-89200000D03*
X99050000Y-100920000D03*
X99300000Y-105880000D03*
X100060000Y-97340000D03*
X102350000Y-90860000D03*
D12*
%TO.C,BT1*%
X65786000Y-94564200D03*
X65786000Y-97104200D03*
%TO.C,J3*%
X71628000Y-113690400D03*
X74168000Y-113690400D03*
X76708000Y-113690400D03*
X79248000Y-113690400D03*
X81788000Y-113690400D03*
X84328000Y-113690400D03*
X86868000Y-113690400D03*
X89408000Y-113690400D03*
X91948000Y-113690400D03*
%TO.C,J2*%
X97647600Y-113639600D03*
X100187600Y-113639600D03*
X102727600Y-113639600D03*
X105267600Y-113639600D03*
%TO.C,J4*%
X107061000Y-93345000D03*
X107061000Y-95885000D03*
X107061000Y-98425000D03*
X109601000Y-93345000D03*
X109601000Y-95885000D03*
X109601000Y-98425000D03*
%TO.C,J1*%
X109601000Y-102235000D03*
X109601000Y-104775000D03*
X109601000Y-107315000D03*
X109601000Y-109855000D03*
M02*
