%TF.GenerationSoftware,KiCad,Pcbnew,9.0.0*%
%TF.CreationDate,2025-06-05T18:29:18+05:30*%
%TF.ProjectId,MCU datalogger,4d435520-6461-4746-916c-6f676765722e,1*%
%TF.SameCoordinates,Original*%
%TF.FileFunction,Copper,L4,Bot*%
%TF.FilePolarity,Positive*%
%FSLAX46Y46*%
G04 Gerber Fmt 4.6, Leading zero omitted, Abs format (unit mm)*
G04 Created by KiCad (PCBNEW 9.0.0) date 2025-06-05 18:29:18*
%MOMM*%
%LPD*%
G01*
G04 APERTURE LIST*
%TA.AperFunction,ComponentPad*%
%ADD10R,1.700000X1.700000*%
%TD*%
%TA.AperFunction,ComponentPad*%
%ADD11O,1.700000X1.700000*%
%TD*%
%TA.AperFunction,ViaPad*%
%ADD12C,0.800000*%
%TD*%
%TA.AperFunction,ViaPad*%
%ADD13C,0.900000*%
%TD*%
%TA.AperFunction,Conductor*%
%ADD14C,0.350000*%
%TD*%
%TA.AperFunction,Conductor*%
%ADD15C,0.300000*%
%TD*%
G04 APERTURE END LIST*
D10*
%TO.P,BT1,1,+*%
%TO.N,/Vcc*%
X65786000Y-94564200D03*
D11*
%TO.P,BT1,2,-*%
%TO.N,GND*%
X65786000Y-97104200D03*
%TD*%
D10*
%TO.P,J1,1,Pin_1*%
%TO.N,GND*%
X109601000Y-102235000D03*
D11*
%TO.P,J1,2,Pin_2*%
%TO.N,/Vcc*%
X109601000Y-104775000D03*
%TO.P,J1,3,Pin_3*%
%TO.N,/SDA*%
X109601000Y-107315000D03*
%TO.P,J1,4,Pin_4*%
%TO.N,/SCK*%
X109601000Y-109855000D03*
%TD*%
D10*
%TO.P,J4,1,Pin_1*%
%TO.N,/MISO*%
X107061000Y-93345000D03*
D11*
%TO.P,J4,2,Pin_2*%
%TO.N,/Vcc*%
X109601000Y-93345000D03*
%TO.P,J4,3,Pin_3*%
%TO.N,/SCK*%
X107061000Y-95885000D03*
%TO.P,J4,4,Pin_4*%
%TO.N,/MOSI*%
X109601000Y-95885000D03*
%TO.P,J4,5,Pin_5*%
%TO.N,/RESET*%
X107061000Y-98425000D03*
%TO.P,J4,6,Pin_6*%
%TO.N,GND*%
X109601000Y-98425000D03*
%TD*%
D10*
%TO.P,J2,1,Pin_1*%
%TO.N,GND*%
X97647600Y-113639600D03*
D11*
%TO.P,J2,2,Pin_2*%
%TO.N,/Vcc*%
X100187600Y-113639600D03*
%TO.P,J2,3,Pin_3*%
%TO.N,/RX*%
X102727600Y-113639600D03*
%TO.P,J2,4,Pin_4*%
%TO.N,/TX*%
X105267600Y-113639600D03*
%TD*%
D10*
%TO.P,J3,1,Pin_1*%
%TO.N,/D2*%
X71628000Y-113690400D03*
D11*
%TO.P,J3,2,Pin_2*%
%TO.N,/D3*%
X74168000Y-113690400D03*
%TO.P,J3,3,Pin_3*%
%TO.N,/D4*%
X76708000Y-113690400D03*
%TO.P,J3,4,Pin_4*%
%TO.N,/D5*%
X79248000Y-113690400D03*
%TO.P,J3,5,Pin_5*%
%TO.N,/D6*%
X81788000Y-113690400D03*
%TO.P,J3,6,Pin_6*%
%TO.N,/D7*%
X84328000Y-113690400D03*
%TO.P,J3,7,Pin_7*%
%TO.N,/D8*%
X86868000Y-113690400D03*
%TO.P,J3,8,Pin_8*%
%TO.N,GND*%
X89408000Y-113690400D03*
%TO.P,J3,9,Pin_9*%
%TO.N,/Vcc*%
X91948000Y-113690400D03*
%TD*%
D12*
%TO.N,/SDA*%
X80080000Y-91810000D03*
%TO.N,/MISO*%
X90290000Y-102940000D03*
D13*
%TO.N,GND*%
X93180000Y-87710000D03*
X85960000Y-99100000D03*
X85373828Y-95567811D03*
X99300000Y-105880000D03*
X75670000Y-97050000D03*
X102350000Y-90860000D03*
X72240000Y-89450000D03*
X69000000Y-107300000D03*
X76320000Y-89290000D03*
X89663998Y-96250000D03*
X68770000Y-100730000D03*
X98010000Y-90860000D03*
%TO.N,/Vcc*%
X71120000Y-98400000D03*
X99050000Y-100920000D03*
X75430000Y-88020000D03*
X88500000Y-89140000D03*
X100060000Y-97340000D03*
X85240000Y-96710000D03*
X89568402Y-98245228D03*
X68640000Y-91390000D03*
X99030000Y-89200000D03*
X76700000Y-94650000D03*
X68920000Y-110430000D03*
X73820000Y-102400000D03*
X76390000Y-107820000D03*
D12*
%TO.N,Net-(U4-PB6)*%
X80970000Y-99200000D03*
X94850000Y-105850000D03*
X86960000Y-107690000D03*
%TO.N,Net-(U4-PB7)*%
X84290185Y-99290185D03*
X85150000Y-89940000D03*
X86130000Y-104490000D03*
%TO.N,Net-(U4-AREF)*%
X96840000Y-105990000D03*
X88888151Y-97029787D03*
%TO.N,/SCK*%
X87150000Y-98010000D03*
X91720000Y-101250000D03*
X73660000Y-98190000D03*
X95750000Y-101200000D03*
X105900000Y-103200000D03*
%TO.N,/SDA*%
X107100000Y-104680000D03*
X97790000Y-97530000D03*
X96354716Y-94770000D03*
X89180000Y-94810000D03*
%TO.N,/RESET*%
X86400000Y-94880000D03*
X102730000Y-94520000D03*
%TO.N,/MOSI*%
X88973730Y-100120644D03*
X94990000Y-102320000D03*
%TD*%
D14*
%TO.N,/Vcc*%
X89568402Y-98245228D02*
X89694772Y-98245228D01*
D15*
%TO.N,/SCK*%
X95770000Y-101180000D02*
X95750000Y-101200000D01*
%TD*%
%TA.AperFunction,Conductor*%
%TO.N,GND*%
G36*
X74890676Y-87028553D02*
G01*
X74936431Y-87081357D01*
X74946375Y-87150515D01*
X74917350Y-87214071D01*
X74892528Y-87235970D01*
X74824092Y-87281697D01*
X74824088Y-87281700D01*
X74691700Y-87414088D01*
X74691697Y-87414092D01*
X74587681Y-87569762D01*
X74587676Y-87569771D01*
X74516027Y-87742748D01*
X74516025Y-87742756D01*
X74479500Y-87926379D01*
X74479500Y-88113620D01*
X74516025Y-88297243D01*
X74516027Y-88297251D01*
X74587676Y-88470228D01*
X74587681Y-88470237D01*
X74691697Y-88625907D01*
X74691700Y-88625911D01*
X74824088Y-88758299D01*
X74824092Y-88758302D01*
X74979762Y-88862318D01*
X74979771Y-88862323D01*
X75018956Y-88878554D01*
X75152749Y-88933973D01*
X75274970Y-88958284D01*
X75336379Y-88970499D01*
X75336383Y-88970500D01*
X75336384Y-88970500D01*
X75523617Y-88970500D01*
X75523618Y-88970499D01*
X75707251Y-88933973D01*
X75880231Y-88862322D01*
X76035908Y-88758302D01*
X76168302Y-88625908D01*
X76272322Y-88470231D01*
X76287383Y-88433870D01*
X77334348Y-88433870D01*
X77335627Y-88435367D01*
X77446650Y-88588178D01*
X77456817Y-88604768D01*
X77535335Y-88758868D01*
X78248693Y-88758868D01*
X79246693Y-88758868D01*
X80748693Y-88758868D01*
X81746693Y-88758868D01*
X83248693Y-88758868D01*
X83248693Y-88006868D01*
X81746693Y-88006868D01*
X81746693Y-88758868D01*
X80748693Y-88758868D01*
X80748693Y-88006868D01*
X79246693Y-88006868D01*
X79246693Y-88758868D01*
X78248693Y-88758868D01*
X78248693Y-88006868D01*
X77378500Y-88006868D01*
X77378500Y-88138118D01*
X77378351Y-88144200D01*
X77376545Y-88180975D01*
X77376097Y-88187046D01*
X77371294Y-88235815D01*
X77370549Y-88241858D01*
X77365145Y-88278286D01*
X77364104Y-88284281D01*
X77334348Y-88433870D01*
X76287383Y-88433870D01*
X76343973Y-88297251D01*
X76380500Y-88113616D01*
X76380500Y-87926384D01*
X76343973Y-87742749D01*
X76272322Y-87569769D01*
X76272321Y-87569768D01*
X76272318Y-87569762D01*
X76168302Y-87414092D01*
X76168299Y-87414088D01*
X76035911Y-87281700D01*
X76035907Y-87281697D01*
X75967472Y-87235970D01*
X75922667Y-87182358D01*
X75913960Y-87113033D01*
X75944115Y-87050005D01*
X76003558Y-87013286D01*
X76036363Y-87008868D01*
X107559485Y-87008868D01*
X107626524Y-87028553D01*
X107672279Y-87081357D01*
X107683482Y-87132071D01*
X107709999Y-91259999D01*
X107709999Y-91259998D01*
X107710000Y-91260000D01*
X111524367Y-91225005D01*
X111591579Y-91244073D01*
X111637816Y-91296455D01*
X111649499Y-91348999D01*
X111649499Y-111437182D01*
X111647015Y-111461875D01*
X111646403Y-111464882D01*
X111649266Y-111511526D01*
X111649499Y-111519121D01*
X111649499Y-111565894D01*
X111650295Y-111568863D01*
X111654287Y-111593356D01*
X111654475Y-111596419D01*
X111654476Y-111596424D01*
X111669309Y-111640729D01*
X111671498Y-111647999D01*
X111683606Y-111693184D01*
X111683610Y-111693192D01*
X111685146Y-111695853D01*
X111695340Y-111718477D01*
X111696312Y-111721380D01*
X111696314Y-111721384D01*
X111722115Y-111760349D01*
X111726113Y-111766809D01*
X111750783Y-111809539D01*
X111767256Y-111877440D01*
X111744403Y-111943466D01*
X111689482Y-111986657D01*
X111644972Y-111995529D01*
X109720000Y-112020000D01*
X108099999Y-113299999D01*
X108099999Y-113300001D01*
X108091617Y-116066271D01*
X108071730Y-116133250D01*
X108018787Y-116178845D01*
X107967618Y-116189895D01*
X68567097Y-116189895D01*
X68500058Y-116170210D01*
X68454303Y-116117406D01*
X68443153Y-116062173D01*
X68469299Y-115191895D01*
X94246693Y-115191895D01*
X95468448Y-115191895D01*
X95461238Y-115178691D01*
X95457277Y-115170777D01*
X95435019Y-115122041D01*
X95431630Y-115113861D01*
X95358021Y-114916504D01*
X95355542Y-114909164D01*
X95341932Y-114864295D01*
X95339915Y-114856812D01*
X95325572Y-114796101D01*
X95324028Y-114788516D01*
X95318610Y-114756868D01*
X94246693Y-114756868D01*
X94246693Y-115191895D01*
X68469299Y-115191895D01*
X68541383Y-112792535D01*
X70277500Y-112792535D01*
X70277500Y-114588270D01*
X70277501Y-114588276D01*
X70283908Y-114647883D01*
X70334202Y-114782728D01*
X70334206Y-114782735D01*
X70420452Y-114897944D01*
X70420455Y-114897947D01*
X70535664Y-114984193D01*
X70535671Y-114984197D01*
X70670517Y-115034491D01*
X70670516Y-115034491D01*
X70677444Y-115035235D01*
X70730127Y-115040900D01*
X72525872Y-115040899D01*
X72585483Y-115034491D01*
X72720331Y-114984196D01*
X72835546Y-114897946D01*
X72921796Y-114782731D01*
X72970810Y-114651316D01*
X73012681Y-114595384D01*
X73078145Y-114570966D01*
X73146418Y-114585817D01*
X73174673Y-114606969D01*
X73288213Y-114720509D01*
X73460179Y-114845448D01*
X73460181Y-114845449D01*
X73460184Y-114845451D01*
X73649588Y-114941957D01*
X73851757Y-115007646D01*
X74061713Y-115040900D01*
X74061714Y-115040900D01*
X74274286Y-115040900D01*
X74274287Y-115040900D01*
X74484243Y-115007646D01*
X74686412Y-114941957D01*
X74875816Y-114845451D01*
X74962138Y-114782735D01*
X75047786Y-114720509D01*
X75047788Y-114720506D01*
X75047792Y-114720504D01*
X75198104Y-114570192D01*
X75198106Y-114570188D01*
X75198109Y-114570186D01*
X75323048Y-114398220D01*
X75323047Y-114398220D01*
X75323051Y-114398216D01*
X75327514Y-114389454D01*
X75375488Y-114338659D01*
X75443308Y-114321863D01*
X75509444Y-114344399D01*
X75548486Y-114389456D01*
X75552951Y-114398220D01*
X75677890Y-114570186D01*
X75828213Y-114720509D01*
X76000179Y-114845448D01*
X76000181Y-114845449D01*
X76000184Y-114845451D01*
X76189588Y-114941957D01*
X76391757Y-115007646D01*
X76601713Y-115040900D01*
X76601714Y-115040900D01*
X76814286Y-115040900D01*
X76814287Y-115040900D01*
X77024243Y-115007646D01*
X77226412Y-114941957D01*
X77415816Y-114845451D01*
X77502138Y-114782735D01*
X77587786Y-114720509D01*
X77587788Y-114720506D01*
X77587792Y-114720504D01*
X77738104Y-114570192D01*
X77738106Y-114570188D01*
X77738109Y-114570186D01*
X77863048Y-114398220D01*
X77863047Y-114398220D01*
X77863051Y-114398216D01*
X77867514Y-114389454D01*
X77915488Y-114338659D01*
X77983308Y-114321863D01*
X78049444Y-114344399D01*
X78088486Y-114389456D01*
X78092951Y-114398220D01*
X78217890Y-114570186D01*
X78368213Y-114720509D01*
X78540179Y-114845448D01*
X78540181Y-114845449D01*
X78540184Y-114845451D01*
X78729588Y-114941957D01*
X78931757Y-115007646D01*
X79141713Y-115040900D01*
X79141714Y-115040900D01*
X79354286Y-115040900D01*
X79354287Y-115040900D01*
X79564243Y-115007646D01*
X79766412Y-114941957D01*
X79955816Y-114845451D01*
X80042138Y-114782735D01*
X80127786Y-114720509D01*
X80127788Y-114720506D01*
X80127792Y-114720504D01*
X80278104Y-114570192D01*
X80278106Y-114570188D01*
X80278109Y-114570186D01*
X80403048Y-114398220D01*
X80403047Y-114398220D01*
X80403051Y-114398216D01*
X80407514Y-114389454D01*
X80455488Y-114338659D01*
X80523308Y-114321863D01*
X80589444Y-114344399D01*
X80628486Y-114389456D01*
X80632951Y-114398220D01*
X80757890Y-114570186D01*
X80908213Y-114720509D01*
X81080179Y-114845448D01*
X81080181Y-114845449D01*
X81080184Y-114845451D01*
X81269588Y-114941957D01*
X81471757Y-115007646D01*
X81681713Y-115040900D01*
X81681714Y-115040900D01*
X81894286Y-115040900D01*
X81894287Y-115040900D01*
X82104243Y-115007646D01*
X82306412Y-114941957D01*
X82495816Y-114845451D01*
X82582138Y-114782735D01*
X82667786Y-114720509D01*
X82667788Y-114720506D01*
X82667792Y-114720504D01*
X82818104Y-114570192D01*
X82818106Y-114570188D01*
X82818109Y-114570186D01*
X82943048Y-114398220D01*
X82943047Y-114398220D01*
X82943051Y-114398216D01*
X82947514Y-114389454D01*
X82995488Y-114338659D01*
X83063308Y-114321863D01*
X83129444Y-114344399D01*
X83168486Y-114389456D01*
X83172951Y-114398220D01*
X83297890Y-114570186D01*
X83448213Y-114720509D01*
X83620179Y-114845448D01*
X83620181Y-114845449D01*
X83620184Y-114845451D01*
X83809588Y-114941957D01*
X84011757Y-115007646D01*
X84221713Y-115040900D01*
X84221714Y-115040900D01*
X84434286Y-115040900D01*
X84434287Y-115040900D01*
X84644243Y-115007646D01*
X84846412Y-114941957D01*
X85035816Y-114845451D01*
X85122138Y-114782735D01*
X85207786Y-114720509D01*
X85207788Y-114720506D01*
X85207792Y-114720504D01*
X85358104Y-114570192D01*
X85358106Y-114570188D01*
X85358109Y-114570186D01*
X85483048Y-114398220D01*
X85483047Y-114398220D01*
X85483051Y-114398216D01*
X85487514Y-114389454D01*
X85535488Y-114338659D01*
X85603308Y-114321863D01*
X85669444Y-114344399D01*
X85708486Y-114389456D01*
X85712951Y-114398220D01*
X85837890Y-114570186D01*
X85988213Y-114720509D01*
X86160179Y-114845448D01*
X86160181Y-114845449D01*
X86160184Y-114845451D01*
X86349588Y-114941957D01*
X86551757Y-115007646D01*
X86761713Y-115040900D01*
X86761714Y-115040900D01*
X86974286Y-115040900D01*
X86974287Y-115040900D01*
X87184243Y-115007646D01*
X87386412Y-114941957D01*
X87575816Y-114845451D01*
X87662138Y-114782735D01*
X87747786Y-114720509D01*
X87747788Y-114720506D01*
X87747792Y-114720504D01*
X87898104Y-114570192D01*
X87898106Y-114570188D01*
X87898109Y-114570186D01*
X87965515Y-114477407D01*
X88023051Y-114398216D01*
X88027793Y-114388908D01*
X88075763Y-114338111D01*
X88143583Y-114321311D01*
X88209719Y-114343845D01*
X88248763Y-114388900D01*
X88253377Y-114397955D01*
X88378272Y-114569859D01*
X88378276Y-114569864D01*
X88528535Y-114720123D01*
X88528540Y-114720127D01*
X88700442Y-114845020D01*
X88889782Y-114941495D01*
X89091871Y-115007157D01*
X89158000Y-115017631D01*
X89158000Y-114123412D01*
X89215007Y-114156325D01*
X89342174Y-114190400D01*
X89473826Y-114190400D01*
X89600993Y-114156325D01*
X89658000Y-114123412D01*
X89658000Y-115017630D01*
X89724126Y-115007157D01*
X89724129Y-115007157D01*
X89926217Y-114941495D01*
X90115557Y-114845020D01*
X90287459Y-114720127D01*
X90287464Y-114720123D01*
X90437723Y-114569864D01*
X90437727Y-114569859D01*
X90562620Y-114397958D01*
X90567232Y-114388907D01*
X90615205Y-114338109D01*
X90683025Y-114321312D01*
X90749161Y-114343847D01*
X90788204Y-114388904D01*
X90792949Y-114398217D01*
X90917890Y-114570186D01*
X91068213Y-114720509D01*
X91240179Y-114845448D01*
X91240181Y-114845449D01*
X91240184Y-114845451D01*
X91429588Y-114941957D01*
X91631757Y-115007646D01*
X91841713Y-115040900D01*
X91841714Y-115040900D01*
X92054286Y-115040900D01*
X92054287Y-115040900D01*
X92264243Y-115007646D01*
X92466412Y-114941957D01*
X92655816Y-114845451D01*
X92742138Y-114782735D01*
X92827786Y-114720509D01*
X92827788Y-114720506D01*
X92827792Y-114720504D01*
X92978104Y-114570192D01*
X92978106Y-114570188D01*
X92978109Y-114570186D01*
X93103048Y-114398220D01*
X93103047Y-114398220D01*
X93103051Y-114398216D01*
X93199557Y-114208812D01*
X93265246Y-114006643D01*
X93298500Y-113796687D01*
X93298500Y-113584113D01*
X93265246Y-113374157D01*
X93206109Y-113192153D01*
X94246693Y-113192153D01*
X94247036Y-113193878D01*
X94247892Y-113198672D01*
X94287277Y-113447341D01*
X94287944Y-113452164D01*
X94291404Y-113481397D01*
X94291881Y-113486235D01*
X94294959Y-113525314D01*
X94295246Y-113530179D01*
X94296404Y-113559631D01*
X94296500Y-113564503D01*
X94296500Y-113758868D01*
X95299600Y-113758868D01*
X95299600Y-113689054D01*
X95309039Y-113641602D01*
X95309868Y-113639600D01*
X95309039Y-113637598D01*
X95299600Y-113590146D01*
X95299600Y-112741755D01*
X96297600Y-112741755D01*
X96297600Y-113389600D01*
X97214588Y-113389600D01*
X97181675Y-113446607D01*
X97147600Y-113573774D01*
X97147600Y-113705426D01*
X97181675Y-113832593D01*
X97214588Y-113889600D01*
X96297600Y-113889600D01*
X96297600Y-114537444D01*
X96304001Y-114596972D01*
X96304003Y-114596979D01*
X96354245Y-114731686D01*
X96354249Y-114731693D01*
X96440409Y-114846787D01*
X96440412Y-114846790D01*
X96555506Y-114932950D01*
X96555513Y-114932954D01*
X96690220Y-114983196D01*
X96690227Y-114983198D01*
X96749755Y-114989599D01*
X96749772Y-114989600D01*
X97397600Y-114989600D01*
X97397600Y-114072612D01*
X97454607Y-114105525D01*
X97581774Y-114139600D01*
X97713426Y-114139600D01*
X97840593Y-114105525D01*
X97897600Y-114072612D01*
X97897600Y-114989600D01*
X98545428Y-114989600D01*
X98545444Y-114989599D01*
X98604972Y-114983198D01*
X98604979Y-114983196D01*
X98739686Y-114932954D01*
X98739693Y-114932950D01*
X98854787Y-114846790D01*
X98854790Y-114846787D01*
X98940950Y-114731693D01*
X98940954Y-114731686D01*
X98990022Y-114600129D01*
X99031893Y-114544195D01*
X99097357Y-114519778D01*
X99165630Y-114534630D01*
X99193885Y-114555781D01*
X99307813Y-114669709D01*
X99479779Y-114794648D01*
X99479781Y-114794649D01*
X99479784Y-114794651D01*
X99669188Y-114891157D01*
X99871357Y-114956846D01*
X100081313Y-114990100D01*
X100081314Y-114990100D01*
X100293886Y-114990100D01*
X100293887Y-114990100D01*
X100503843Y-114956846D01*
X100706012Y-114891157D01*
X100895416Y-114794651D01*
X100924089Y-114773819D01*
X101067386Y-114669709D01*
X101067388Y-114669706D01*
X101067392Y-114669704D01*
X101217704Y-114519392D01*
X101217706Y-114519388D01*
X101217709Y-114519386D01*
X101342648Y-114347420D01*
X101342647Y-114347420D01*
X101342651Y-114347416D01*
X101347114Y-114338654D01*
X101395088Y-114287859D01*
X101462908Y-114271063D01*
X101529044Y-114293599D01*
X101568084Y-114338654D01*
X101570731Y-114343847D01*
X101572551Y-114347420D01*
X101697490Y-114519386D01*
X101847813Y-114669709D01*
X102019779Y-114794648D01*
X102019781Y-114794649D01*
X102019784Y-114794651D01*
X102209188Y-114891157D01*
X102411357Y-114956846D01*
X102621313Y-114990100D01*
X102621314Y-114990100D01*
X102833886Y-114990100D01*
X102833887Y-114990100D01*
X103043843Y-114956846D01*
X103246012Y-114891157D01*
X103435416Y-114794651D01*
X103464089Y-114773819D01*
X103607386Y-114669709D01*
X103607388Y-114669706D01*
X103607392Y-114669704D01*
X103757704Y-114519392D01*
X103757706Y-114519388D01*
X103757709Y-114519386D01*
X103882648Y-114347420D01*
X103882647Y-114347420D01*
X103882651Y-114347416D01*
X103887114Y-114338654D01*
X103935088Y-114287859D01*
X104002908Y-114271063D01*
X104069044Y-114293599D01*
X104108084Y-114338654D01*
X104110731Y-114343847D01*
X104112551Y-114347420D01*
X104237490Y-114519386D01*
X104387813Y-114669709D01*
X104559779Y-114794648D01*
X104559781Y-114794649D01*
X104559784Y-114794651D01*
X104749188Y-114891157D01*
X104951357Y-114956846D01*
X105161313Y-114990100D01*
X105161314Y-114990100D01*
X105373886Y-114990100D01*
X105373887Y-114990100D01*
X105583843Y-114956846D01*
X105786012Y-114891157D01*
X105975416Y-114794651D01*
X106004089Y-114773819D01*
X106147386Y-114669709D01*
X106147388Y-114669706D01*
X106147392Y-114669704D01*
X106297704Y-114519392D01*
X106297706Y-114519388D01*
X106297709Y-114519386D01*
X106422648Y-114347420D01*
X106422647Y-114347420D01*
X106422651Y-114347416D01*
X106519157Y-114158012D01*
X106584846Y-113955843D01*
X106618100Y-113745887D01*
X106618100Y-113533313D01*
X106584846Y-113323357D01*
X106519157Y-113121188D01*
X106422651Y-112931784D01*
X106422649Y-112931781D01*
X106422648Y-112931779D01*
X106297709Y-112759813D01*
X106147386Y-112609490D01*
X105975420Y-112484551D01*
X105786014Y-112388044D01*
X105786013Y-112388043D01*
X105786012Y-112388043D01*
X105583843Y-112322354D01*
X105583841Y-112322353D01*
X105583840Y-112322353D01*
X105422557Y-112296808D01*
X105373887Y-112289100D01*
X105161313Y-112289100D01*
X105112642Y-112296808D01*
X104951360Y-112322353D01*
X104877631Y-112346309D01*
X104795015Y-112373153D01*
X104749185Y-112388044D01*
X104559779Y-112484551D01*
X104387813Y-112609490D01*
X104237490Y-112759813D01*
X104112549Y-112931782D01*
X104108084Y-112940546D01*
X104060109Y-112991342D01*
X103992288Y-113008136D01*
X103926153Y-112985598D01*
X103887116Y-112940546D01*
X103882650Y-112931782D01*
X103757709Y-112759813D01*
X103607386Y-112609490D01*
X103435420Y-112484551D01*
X103246014Y-112388044D01*
X103246013Y-112388043D01*
X103246012Y-112388043D01*
X103043843Y-112322354D01*
X103043841Y-112322353D01*
X103043840Y-112322353D01*
X102882557Y-112296808D01*
X102833887Y-112289100D01*
X102621313Y-112289100D01*
X102572642Y-112296808D01*
X102411360Y-112322353D01*
X102337631Y-112346309D01*
X102255015Y-112373153D01*
X102209185Y-112388044D01*
X102019779Y-112484551D01*
X101847813Y-112609490D01*
X101697490Y-112759813D01*
X101572549Y-112931782D01*
X101568084Y-112940546D01*
X101520109Y-112991342D01*
X101452288Y-113008136D01*
X101386153Y-112985598D01*
X101347116Y-112940546D01*
X101342650Y-112931782D01*
X101217709Y-112759813D01*
X101067386Y-112609490D01*
X100895420Y-112484551D01*
X100706014Y-112388044D01*
X100706013Y-112388043D01*
X100706012Y-112388043D01*
X100503843Y-112322354D01*
X100503841Y-112322353D01*
X100503840Y-112322353D01*
X100342557Y-112296808D01*
X100293887Y-112289100D01*
X100081313Y-112289100D01*
X100032642Y-112296808D01*
X99871360Y-112322353D01*
X99797631Y-112346309D01*
X99715015Y-112373153D01*
X99669185Y-112388044D01*
X99479779Y-112484551D01*
X99307815Y-112609489D01*
X99193885Y-112723419D01*
X99132562Y-112756903D01*
X99062870Y-112751919D01*
X99006937Y-112710047D01*
X98990022Y-112679070D01*
X98940954Y-112547513D01*
X98940950Y-112547506D01*
X98854790Y-112432412D01*
X98854787Y-112432409D01*
X98739693Y-112346249D01*
X98739686Y-112346245D01*
X98604979Y-112296003D01*
X98604972Y-112296001D01*
X98545444Y-112289600D01*
X97897600Y-112289600D01*
X97897600Y-113206588D01*
X97840593Y-113173675D01*
X97713426Y-113139600D01*
X97581774Y-113139600D01*
X97454607Y-113173675D01*
X97397600Y-113206588D01*
X97397600Y-112289600D01*
X96749755Y-112289600D01*
X96690227Y-112296001D01*
X96690220Y-112296003D01*
X96555513Y-112346245D01*
X96555506Y-112346249D01*
X96440412Y-112432409D01*
X96440409Y-112432412D01*
X96354249Y-112547506D01*
X96354245Y-112547513D01*
X96304003Y-112682220D01*
X96304001Y-112682227D01*
X96297600Y-112741755D01*
X95299600Y-112741755D01*
X95299600Y-112728423D01*
X95299644Y-112725109D01*
X95300180Y-112705061D01*
X95300313Y-112701745D01*
X95301742Y-112675058D01*
X95301964Y-112671744D01*
X95303577Y-112651695D01*
X95303889Y-112648383D01*
X95315055Y-112544531D01*
X95316122Y-112536862D01*
X95324028Y-112490684D01*
X95325572Y-112483099D01*
X95339915Y-112422388D01*
X95341932Y-112414905D01*
X95355542Y-112370036D01*
X95358021Y-112362696D01*
X95397492Y-112256868D01*
X94246693Y-112256868D01*
X94246693Y-113192153D01*
X93206109Y-113192153D01*
X93199557Y-113171988D01*
X93103051Y-112982584D01*
X93103049Y-112982581D01*
X93103048Y-112982579D01*
X92978109Y-112810613D01*
X92827786Y-112660290D01*
X92655820Y-112535351D01*
X92466414Y-112438844D01*
X92466413Y-112438843D01*
X92466412Y-112438843D01*
X92264243Y-112373154D01*
X92264241Y-112373153D01*
X92264240Y-112373153D01*
X92102957Y-112347608D01*
X92054287Y-112339900D01*
X91841713Y-112339900D01*
X91793042Y-112347608D01*
X91631760Y-112373153D01*
X91530672Y-112405998D01*
X91449381Y-112432412D01*
X91429585Y-112438844D01*
X91240179Y-112535351D01*
X91068213Y-112660290D01*
X90917890Y-112810613D01*
X90792949Y-112982582D01*
X90788202Y-112991899D01*
X90740227Y-113042693D01*
X90672405Y-113059487D01*
X90606271Y-113036948D01*
X90567234Y-112991895D01*
X90562622Y-112982844D01*
X90437727Y-112810940D01*
X90437723Y-112810935D01*
X90287464Y-112660676D01*
X90287459Y-112660672D01*
X90115557Y-112535779D01*
X89926215Y-112439303D01*
X89724124Y-112373641D01*
X89658000Y-112363168D01*
X89658000Y-113257388D01*
X89600993Y-113224475D01*
X89473826Y-113190400D01*
X89342174Y-113190400D01*
X89215007Y-113224475D01*
X89158000Y-113257388D01*
X89158000Y-112363168D01*
X89157999Y-112363168D01*
X89091875Y-112373641D01*
X88889784Y-112439303D01*
X88700442Y-112535779D01*
X88528540Y-112660672D01*
X88528535Y-112660676D01*
X88378276Y-112810935D01*
X88378272Y-112810940D01*
X88253378Y-112982843D01*
X88248762Y-112991902D01*
X88200784Y-113042695D01*
X88132963Y-113059487D01*
X88066829Y-113036946D01*
X88027794Y-112991893D01*
X88023051Y-112982584D01*
X88023049Y-112982581D01*
X88023048Y-112982579D01*
X87898109Y-112810613D01*
X87747786Y-112660290D01*
X87575820Y-112535351D01*
X87386414Y-112438844D01*
X87386413Y-112438843D01*
X87386412Y-112438843D01*
X87184243Y-112373154D01*
X87184241Y-112373153D01*
X87184240Y-112373153D01*
X87022957Y-112347608D01*
X86974287Y-112339900D01*
X86761713Y-112339900D01*
X86713042Y-112347608D01*
X86551760Y-112373153D01*
X86450672Y-112405998D01*
X86369381Y-112432412D01*
X86349585Y-112438844D01*
X86160179Y-112535351D01*
X85988213Y-112660290D01*
X85837890Y-112810613D01*
X85712949Y-112982582D01*
X85708484Y-112991346D01*
X85660509Y-113042142D01*
X85592688Y-113058936D01*
X85526553Y-113036398D01*
X85487516Y-112991346D01*
X85483050Y-112982582D01*
X85358109Y-112810613D01*
X85207786Y-112660290D01*
X85035820Y-112535351D01*
X84846414Y-112438844D01*
X84846413Y-112438843D01*
X84846412Y-112438843D01*
X84644243Y-112373154D01*
X84644241Y-112373153D01*
X84644240Y-112373153D01*
X84482957Y-112347608D01*
X84434287Y-112339900D01*
X84221713Y-112339900D01*
X84173042Y-112347608D01*
X84011760Y-112373153D01*
X83910672Y-112405998D01*
X83829381Y-112432412D01*
X83809585Y-112438844D01*
X83620179Y-112535351D01*
X83448213Y-112660290D01*
X83297890Y-112810613D01*
X83172949Y-112982582D01*
X83168484Y-112991346D01*
X83120509Y-113042142D01*
X83052688Y-113058936D01*
X82986553Y-113036398D01*
X82947516Y-112991346D01*
X82943050Y-112982582D01*
X82818109Y-112810613D01*
X82667786Y-112660290D01*
X82495820Y-112535351D01*
X82306414Y-112438844D01*
X82306413Y-112438843D01*
X82306412Y-112438843D01*
X82104243Y-112373154D01*
X82104241Y-112373153D01*
X82104240Y-112373153D01*
X81942957Y-112347608D01*
X81894287Y-112339900D01*
X81681713Y-112339900D01*
X81633042Y-112347608D01*
X81471760Y-112373153D01*
X81370672Y-112405998D01*
X81289381Y-112432412D01*
X81269585Y-112438844D01*
X81080179Y-112535351D01*
X80908213Y-112660290D01*
X80757890Y-112810613D01*
X80632949Y-112982582D01*
X80628484Y-112991346D01*
X80580509Y-113042142D01*
X80512688Y-113058936D01*
X80446553Y-113036398D01*
X80407516Y-112991346D01*
X80403050Y-112982582D01*
X80278109Y-112810613D01*
X80127786Y-112660290D01*
X79955820Y-112535351D01*
X79766414Y-112438844D01*
X79766413Y-112438843D01*
X79766412Y-112438843D01*
X79564243Y-112373154D01*
X79564241Y-112373153D01*
X79564240Y-112373153D01*
X79402957Y-112347608D01*
X79354287Y-112339900D01*
X79141713Y-112339900D01*
X79093042Y-112347608D01*
X78931760Y-112373153D01*
X78830672Y-112405998D01*
X78749381Y-112432412D01*
X78729585Y-112438844D01*
X78540179Y-112535351D01*
X78368213Y-112660290D01*
X78217890Y-112810613D01*
X78092949Y-112982582D01*
X78088484Y-112991346D01*
X78040509Y-113042142D01*
X77972688Y-113058936D01*
X77906553Y-113036398D01*
X77867516Y-112991346D01*
X77863050Y-112982582D01*
X77738109Y-112810613D01*
X77587786Y-112660290D01*
X77415820Y-112535351D01*
X77226414Y-112438844D01*
X77226413Y-112438843D01*
X77226412Y-112438843D01*
X77024243Y-112373154D01*
X77024241Y-112373153D01*
X77024240Y-112373153D01*
X76862957Y-112347608D01*
X76814287Y-112339900D01*
X76601713Y-112339900D01*
X76553042Y-112347608D01*
X76391760Y-112373153D01*
X76290672Y-112405998D01*
X76209381Y-112432412D01*
X76189585Y-112438844D01*
X76000179Y-112535351D01*
X75828213Y-112660290D01*
X75677890Y-112810613D01*
X75552949Y-112982582D01*
X75548484Y-112991346D01*
X75500509Y-113042142D01*
X75432688Y-113058936D01*
X75366553Y-113036398D01*
X75327516Y-112991346D01*
X75323050Y-112982582D01*
X75198109Y-112810613D01*
X75047786Y-112660290D01*
X74875820Y-112535351D01*
X74686414Y-112438844D01*
X74686413Y-112438843D01*
X74686412Y-112438843D01*
X74484243Y-112373154D01*
X74484241Y-112373153D01*
X74484240Y-112373153D01*
X74322957Y-112347608D01*
X74274287Y-112339900D01*
X74061713Y-112339900D01*
X74013042Y-112347608D01*
X73851760Y-112373153D01*
X73750672Y-112405998D01*
X73669381Y-112432412D01*
X73649585Y-112438844D01*
X73460179Y-112535351D01*
X73288215Y-112660289D01*
X73174673Y-112773831D01*
X73113350Y-112807315D01*
X73043658Y-112802331D01*
X72987725Y-112760459D01*
X72970810Y-112729482D01*
X72921797Y-112598071D01*
X72921793Y-112598064D01*
X72835547Y-112482855D01*
X72835544Y-112482852D01*
X72720335Y-112396606D01*
X72720328Y-112396602D01*
X72585482Y-112346308D01*
X72585483Y-112346308D01*
X72525883Y-112339901D01*
X72525881Y-112339900D01*
X72525873Y-112339900D01*
X72525864Y-112339900D01*
X70730129Y-112339900D01*
X70730123Y-112339901D01*
X70670516Y-112346308D01*
X70535671Y-112396602D01*
X70535664Y-112396606D01*
X70420455Y-112482852D01*
X70420452Y-112482855D01*
X70334206Y-112598064D01*
X70334202Y-112598071D01*
X70283908Y-112732917D01*
X70277501Y-112792516D01*
X70277500Y-112792535D01*
X68541383Y-112792535D01*
X68570000Y-111840000D01*
X68569999Y-111839999D01*
X68570000Y-111839999D01*
X64243601Y-111822122D01*
X64176643Y-111802161D01*
X64131107Y-111749168D01*
X64120116Y-111698864D01*
X64108582Y-109756868D01*
X65106599Y-109756868D01*
X65112209Y-110701702D01*
X65748693Y-110704331D01*
X65748693Y-110336379D01*
X67969500Y-110336379D01*
X67969500Y-110523620D01*
X68006025Y-110707243D01*
X68006027Y-110707251D01*
X68077676Y-110880228D01*
X68077681Y-110880237D01*
X68181697Y-111035907D01*
X68181700Y-111035911D01*
X68314088Y-111168299D01*
X68314092Y-111168302D01*
X68469762Y-111272318D01*
X68469768Y-111272321D01*
X68469769Y-111272322D01*
X68642749Y-111343973D01*
X68826379Y-111380499D01*
X68826383Y-111380500D01*
X68826384Y-111380500D01*
X69013617Y-111380500D01*
X69013618Y-111380499D01*
X69197251Y-111343973D01*
X69370231Y-111272322D01*
X69390366Y-111258868D01*
X71746693Y-111258868D01*
X73248693Y-111258868D01*
X74246693Y-111258868D01*
X75748693Y-111258868D01*
X76746693Y-111258868D01*
X78248693Y-111258868D01*
X79246693Y-111258868D01*
X80748693Y-111258868D01*
X81746693Y-111258868D01*
X83248693Y-111258868D01*
X84246693Y-111258868D01*
X85748693Y-111258868D01*
X86746693Y-111258868D01*
X88248693Y-111258868D01*
X89246693Y-111258868D01*
X90748693Y-111258868D01*
X91746693Y-111258868D01*
X93248693Y-111258868D01*
X94246693Y-111258868D01*
X95748693Y-111258868D01*
X96746693Y-111258868D01*
X98248693Y-111258868D01*
X99246693Y-111258868D01*
X100748693Y-111258868D01*
X101746693Y-111258868D01*
X103248693Y-111258868D01*
X104246693Y-111258868D01*
X105748693Y-111258868D01*
X106746693Y-111258868D01*
X107718064Y-111258868D01*
X107627026Y-111133565D01*
X107624240Y-111129568D01*
X107607874Y-111105073D01*
X107605250Y-111100973D01*
X107584769Y-111067550D01*
X107582307Y-111063350D01*
X107567917Y-111037654D01*
X107565622Y-111033361D01*
X107451314Y-110809019D01*
X107449189Y-110804636D01*
X107436846Y-110777861D01*
X107434891Y-110773392D01*
X107419893Y-110737175D01*
X107418121Y-110732647D01*
X107407936Y-110705037D01*
X107406342Y-110700440D01*
X107328545Y-110461007D01*
X107327131Y-110456347D01*
X107319138Y-110428005D01*
X107317911Y-110423300D01*
X107308758Y-110385183D01*
X107307713Y-110380423D01*
X107301964Y-110351523D01*
X107301108Y-110346728D01*
X107261723Y-110098059D01*
X107261056Y-110093236D01*
X107257596Y-110064003D01*
X107257119Y-110059165D01*
X107254041Y-110020086D01*
X107253754Y-110015221D01*
X107252596Y-109985769D01*
X107252500Y-109980897D01*
X107252500Y-109756868D01*
X106746693Y-109756868D01*
X106746693Y-111258868D01*
X105748693Y-111258868D01*
X105748693Y-109756868D01*
X104246693Y-109756868D01*
X104246693Y-111258868D01*
X103248693Y-111258868D01*
X103248693Y-109756868D01*
X101746693Y-109756868D01*
X101746693Y-111258868D01*
X100748693Y-111258868D01*
X100748693Y-109756868D01*
X99246693Y-109756868D01*
X99246693Y-111258868D01*
X98248693Y-111258868D01*
X98248693Y-109756868D01*
X96746693Y-109756868D01*
X96746693Y-111258868D01*
X95748693Y-111258868D01*
X95748693Y-109756868D01*
X94246693Y-109756868D01*
X94246693Y-111258868D01*
X93248693Y-111258868D01*
X93248693Y-109756868D01*
X91746693Y-109756868D01*
X91746693Y-111258868D01*
X90748693Y-111258868D01*
X90748693Y-109756868D01*
X89246693Y-109756868D01*
X89246693Y-111258868D01*
X88248693Y-111258868D01*
X88248693Y-109756868D01*
X86746693Y-109756868D01*
X86746693Y-111258868D01*
X85748693Y-111258868D01*
X85748693Y-109756868D01*
X84246693Y-109756868D01*
X84246693Y-111258868D01*
X83248693Y-111258868D01*
X83248693Y-109756868D01*
X81746693Y-109756868D01*
X81746693Y-111258868D01*
X80748693Y-111258868D01*
X80748693Y-109756868D01*
X79246693Y-109756868D01*
X79246693Y-111258868D01*
X78248693Y-111258868D01*
X78248693Y-109756868D01*
X76746693Y-109756868D01*
X76746693Y-111258868D01*
X75748693Y-111258868D01*
X75748693Y-109756868D01*
X74246693Y-109756868D01*
X74246693Y-111258868D01*
X73248693Y-111258868D01*
X73248693Y-109756868D01*
X71746693Y-109756868D01*
X71746693Y-111258868D01*
X69390366Y-111258868D01*
X69525908Y-111168302D01*
X69658302Y-111035908D01*
X69762322Y-110880231D01*
X69833973Y-110707251D01*
X69870500Y-110523616D01*
X69870500Y-110336384D01*
X69833973Y-110152749D01*
X69762322Y-109979769D01*
X69762321Y-109979768D01*
X69762318Y-109979762D01*
X69658302Y-109824092D01*
X69658299Y-109824088D01*
X69525911Y-109691700D01*
X69525907Y-109691697D01*
X69370237Y-109587681D01*
X69370228Y-109587676D01*
X69197251Y-109516027D01*
X69197243Y-109516025D01*
X69013620Y-109479500D01*
X69013616Y-109479500D01*
X68826384Y-109479500D01*
X68826379Y-109479500D01*
X68642756Y-109516025D01*
X68642748Y-109516027D01*
X68469771Y-109587676D01*
X68469762Y-109587681D01*
X68314092Y-109691697D01*
X68314088Y-109691700D01*
X68181700Y-109824088D01*
X68181697Y-109824092D01*
X68077681Y-109979762D01*
X68077676Y-109979771D01*
X68006027Y-110152748D01*
X68006025Y-110152756D01*
X67969500Y-110336379D01*
X65748693Y-110336379D01*
X65748693Y-109756868D01*
X65106599Y-109756868D01*
X64108582Y-109756868D01*
X64093734Y-107256868D01*
X65091751Y-107256868D01*
X65100672Y-108758868D01*
X65748693Y-108758868D01*
X66746693Y-108758868D01*
X67913818Y-108758868D01*
X67935686Y-108744256D01*
X67940830Y-108740999D01*
X67972422Y-108722064D01*
X67977718Y-108719064D01*
X68020939Y-108695963D01*
X68026374Y-108693227D01*
X68059654Y-108677487D01*
X68065217Y-108675021D01*
X68248693Y-108599022D01*
X68248693Y-108548422D01*
X69442304Y-108548422D01*
X69457652Y-108552267D01*
X69463522Y-108553891D01*
X69510418Y-108568118D01*
X69516197Y-108570027D01*
X69550859Y-108582430D01*
X69556535Y-108584620D01*
X69774783Y-108675021D01*
X69780346Y-108677487D01*
X69813626Y-108693227D01*
X69819061Y-108695963D01*
X69862282Y-108719064D01*
X69867578Y-108722064D01*
X69899170Y-108740999D01*
X69904314Y-108744256D01*
X69926182Y-108758868D01*
X70748693Y-108758868D01*
X71746693Y-108758868D01*
X73248693Y-108758868D01*
X73248693Y-107726379D01*
X75439500Y-107726379D01*
X75439500Y-107913620D01*
X75476025Y-108097243D01*
X75476027Y-108097251D01*
X75547676Y-108270228D01*
X75547681Y-108270237D01*
X75651697Y-108425907D01*
X75651700Y-108425911D01*
X75784088Y-108558299D01*
X75784092Y-108558302D01*
X75939762Y-108662318D01*
X75939768Y-108662321D01*
X75939769Y-108662322D01*
X76112749Y-108733973D01*
X76237906Y-108758868D01*
X76296379Y-108770499D01*
X76296383Y-108770500D01*
X76296384Y-108770500D01*
X76483617Y-108770500D01*
X76483618Y-108770499D01*
X76542092Y-108758868D01*
X79246693Y-108758868D01*
X80748693Y-108758868D01*
X81746693Y-108758868D01*
X83248693Y-108758868D01*
X84246693Y-108758868D01*
X85390888Y-108758868D01*
X89246693Y-108758868D01*
X90748693Y-108758868D01*
X91746693Y-108758868D01*
X93248693Y-108758868D01*
X93248693Y-107654130D01*
X94246693Y-107654130D01*
X94246693Y-108758868D01*
X95748693Y-108758868D01*
X95748693Y-107888500D01*
X96746693Y-107888500D01*
X96746693Y-108758868D01*
X98248693Y-108758868D01*
X99246693Y-108758868D01*
X100748693Y-108758868D01*
X101746693Y-108758868D01*
X103248693Y-108758868D01*
X104246693Y-108758868D01*
X105748693Y-108758868D01*
X106746693Y-108758868D01*
X107523724Y-108758868D01*
X107565622Y-108676639D01*
X107567917Y-108672346D01*
X107582307Y-108646650D01*
X107584769Y-108642450D01*
X107605250Y-108609027D01*
X107607874Y-108604927D01*
X107621187Y-108585000D01*
X107607874Y-108565073D01*
X107605250Y-108560973D01*
X107584769Y-108527550D01*
X107582307Y-108523350D01*
X107567917Y-108497654D01*
X107565622Y-108493361D01*
X107451314Y-108269019D01*
X107449189Y-108264636D01*
X107436846Y-108237861D01*
X107434891Y-108233392D01*
X107419893Y-108197175D01*
X107418121Y-108192647D01*
X107407936Y-108165037D01*
X107406342Y-108160440D01*
X107328545Y-107921007D01*
X107327131Y-107916347D01*
X107319138Y-107888005D01*
X107317911Y-107883300D01*
X107308758Y-107845183D01*
X107307713Y-107840423D01*
X107301964Y-107811523D01*
X107301108Y-107806728D01*
X107261723Y-107558059D01*
X107261056Y-107553236D01*
X107257596Y-107524003D01*
X107257119Y-107519165D01*
X107254041Y-107480086D01*
X107253754Y-107475221D01*
X107252596Y-107445769D01*
X107252500Y-107440897D01*
X107252500Y-107256868D01*
X106746693Y-107256868D01*
X106746693Y-108758868D01*
X105748693Y-108758868D01*
X105748693Y-107256868D01*
X104246693Y-107256868D01*
X104246693Y-108758868D01*
X103248693Y-108758868D01*
X103248693Y-107256868D01*
X101746693Y-107256868D01*
X101746693Y-108758868D01*
X100748693Y-108758868D01*
X100748693Y-107256868D01*
X99246693Y-107256868D01*
X99246693Y-108758868D01*
X98248693Y-108758868D01*
X98248693Y-107266191D01*
X98102400Y-107412484D01*
X98097991Y-107416682D01*
X98070704Y-107441413D01*
X98066097Y-107445387D01*
X98028215Y-107476476D01*
X98023417Y-107480221D01*
X97993845Y-107502153D01*
X97988869Y-107505657D01*
X97800632Y-107631434D01*
X97795488Y-107634691D01*
X97763894Y-107653627D01*
X97758599Y-107656627D01*
X97715377Y-107679729D01*
X97709938Y-107682466D01*
X97676656Y-107698206D01*
X97671095Y-107700671D01*
X97461949Y-107787301D01*
X97456272Y-107789491D01*
X97421620Y-107801890D01*
X97415845Y-107803798D01*
X97368952Y-107818025D01*
X97363084Y-107819649D01*
X97327349Y-107828601D01*
X97321408Y-107829935D01*
X97099357Y-107874104D01*
X97093360Y-107875145D01*
X97056929Y-107880549D01*
X97050888Y-107881294D01*
X97002116Y-107886097D01*
X96996046Y-107886545D01*
X96959274Y-107888351D01*
X96953191Y-107888500D01*
X96746693Y-107888500D01*
X95748693Y-107888500D01*
X95748693Y-107544117D01*
X95734681Y-107534755D01*
X95725377Y-107539729D01*
X95719938Y-107542466D01*
X95686656Y-107558206D01*
X95681095Y-107560671D01*
X95471949Y-107647301D01*
X95466272Y-107649491D01*
X95431620Y-107661890D01*
X95425845Y-107663798D01*
X95378952Y-107678025D01*
X95373084Y-107679649D01*
X95337349Y-107688601D01*
X95331408Y-107689935D01*
X95109357Y-107734104D01*
X95103360Y-107735145D01*
X95066929Y-107740549D01*
X95060888Y-107741294D01*
X95012116Y-107746097D01*
X95006046Y-107746545D01*
X94969274Y-107748351D01*
X94963191Y-107748500D01*
X94736809Y-107748500D01*
X94730726Y-107748351D01*
X94693954Y-107746545D01*
X94687884Y-107746097D01*
X94639112Y-107741294D01*
X94633071Y-107740549D01*
X94596640Y-107735145D01*
X94590643Y-107734104D01*
X94368592Y-107689935D01*
X94362651Y-107688601D01*
X94326916Y-107679649D01*
X94321048Y-107678025D01*
X94274155Y-107663798D01*
X94268380Y-107661890D01*
X94246693Y-107654130D01*
X93248693Y-107654130D01*
X93248693Y-107256868D01*
X91746693Y-107256868D01*
X91746693Y-108758868D01*
X90748693Y-108758868D01*
X90748693Y-107256868D01*
X89246693Y-107256868D01*
X89246693Y-108758868D01*
X85390888Y-108758868D01*
X85318566Y-108650632D01*
X85315309Y-108645488D01*
X85296373Y-108613894D01*
X85293373Y-108608599D01*
X85270271Y-108565377D01*
X85267534Y-108559938D01*
X85251794Y-108526656D01*
X85249329Y-108521095D01*
X85162699Y-108311949D01*
X85160509Y-108306272D01*
X85148110Y-108271620D01*
X85146202Y-108265845D01*
X85131975Y-108218952D01*
X85130351Y-108213084D01*
X85121399Y-108177349D01*
X85120065Y-108171408D01*
X85075896Y-107949357D01*
X85074855Y-107943360D01*
X85069451Y-107906929D01*
X85068706Y-107900888D01*
X85063903Y-107852116D01*
X85063455Y-107846046D01*
X85061649Y-107809274D01*
X85061500Y-107803191D01*
X85061500Y-107601304D01*
X86059500Y-107601304D01*
X86059500Y-107778695D01*
X86094103Y-107952658D01*
X86094106Y-107952667D01*
X86161983Y-108116540D01*
X86161990Y-108116553D01*
X86260535Y-108264034D01*
X86260538Y-108264038D01*
X86385961Y-108389461D01*
X86385965Y-108389464D01*
X86533446Y-108488009D01*
X86533459Y-108488016D01*
X86616691Y-108522491D01*
X86697334Y-108555894D01*
X86697336Y-108555894D01*
X86697341Y-108555896D01*
X86871304Y-108590499D01*
X86871307Y-108590500D01*
X86871309Y-108590500D01*
X87048693Y-108590500D01*
X87048694Y-108590499D01*
X87106682Y-108578964D01*
X87222658Y-108555896D01*
X87222661Y-108555894D01*
X87222666Y-108555894D01*
X87386547Y-108488013D01*
X87534035Y-108389464D01*
X87659464Y-108264035D01*
X87758013Y-108116547D01*
X87825894Y-107952666D01*
X87826553Y-107949357D01*
X87855506Y-107803798D01*
X87860500Y-107778691D01*
X87860500Y-107601309D01*
X87860500Y-107601306D01*
X87860499Y-107601304D01*
X87825896Y-107427341D01*
X87825893Y-107427332D01*
X87758016Y-107263459D01*
X87758009Y-107263446D01*
X87659464Y-107115965D01*
X87659461Y-107115961D01*
X87534038Y-106990538D01*
X87534034Y-106990535D01*
X87386553Y-106891990D01*
X87386540Y-106891983D01*
X87222667Y-106824106D01*
X87222658Y-106824103D01*
X87048694Y-106789500D01*
X87048691Y-106789500D01*
X86871309Y-106789500D01*
X86871306Y-106789500D01*
X86697341Y-106824103D01*
X86697332Y-106824106D01*
X86533459Y-106891983D01*
X86533446Y-106891990D01*
X86385965Y-106990535D01*
X86385961Y-106990538D01*
X86260538Y-107115961D01*
X86260535Y-107115965D01*
X86161990Y-107263446D01*
X86161983Y-107263459D01*
X86094106Y-107427332D01*
X86094103Y-107427341D01*
X86059500Y-107601304D01*
X85061500Y-107601304D01*
X85061500Y-107576809D01*
X85061649Y-107570726D01*
X85063455Y-107533954D01*
X85063903Y-107527884D01*
X85068706Y-107479112D01*
X85069451Y-107473071D01*
X85074855Y-107436640D01*
X85075896Y-107430643D01*
X85110462Y-107256868D01*
X84246693Y-107256868D01*
X84246693Y-108758868D01*
X83248693Y-108758868D01*
X83248693Y-107256868D01*
X81746693Y-107256868D01*
X81746693Y-108758868D01*
X80748693Y-108758868D01*
X80748693Y-107256868D01*
X79246693Y-107256868D01*
X79246693Y-108758868D01*
X76542092Y-108758868D01*
X76667251Y-108733973D01*
X76840231Y-108662322D01*
X76995908Y-108558302D01*
X77128302Y-108425908D01*
X77232322Y-108270231D01*
X77303973Y-108097251D01*
X77340500Y-107913616D01*
X77340500Y-107726384D01*
X77303973Y-107542749D01*
X77232322Y-107369769D01*
X77232321Y-107369768D01*
X77232318Y-107369762D01*
X77128302Y-107214092D01*
X77128299Y-107214088D01*
X76995911Y-107081700D01*
X76995907Y-107081697D01*
X76840237Y-106977681D01*
X76840228Y-106977676D01*
X76667251Y-106906027D01*
X76667243Y-106906025D01*
X76483620Y-106869500D01*
X76483616Y-106869500D01*
X76296384Y-106869500D01*
X76296379Y-106869500D01*
X76112756Y-106906025D01*
X76112748Y-106906027D01*
X75939771Y-106977676D01*
X75939762Y-106977681D01*
X75784092Y-107081697D01*
X75784088Y-107081700D01*
X75651700Y-107214088D01*
X75651697Y-107214092D01*
X75547681Y-107369762D01*
X75547676Y-107369771D01*
X75476027Y-107542748D01*
X75476025Y-107542756D01*
X75439500Y-107726379D01*
X73248693Y-107726379D01*
X73248693Y-107256868D01*
X71746693Y-107256868D01*
X71746693Y-108758868D01*
X70748693Y-108758868D01*
X70748693Y-107256868D01*
X70324000Y-107256868D01*
X70324000Y-107394442D01*
X70322473Y-107413840D01*
X70292925Y-107600399D01*
X70288383Y-107619319D01*
X70230015Y-107798958D01*
X70222569Y-107816935D01*
X70136817Y-107985232D01*
X70126650Y-108001822D01*
X70015627Y-108154633D01*
X70002990Y-108169429D01*
X69869429Y-108302990D01*
X69854633Y-108315627D01*
X69701822Y-108426650D01*
X69685232Y-108436817D01*
X69516935Y-108522569D01*
X69498958Y-108530015D01*
X69442304Y-108548422D01*
X68248693Y-108548422D01*
X68248693Y-108390697D01*
X68145367Y-108315627D01*
X68130571Y-108302990D01*
X67997010Y-108169429D01*
X67984373Y-108154633D01*
X67873350Y-108001822D01*
X67863183Y-107985232D01*
X67777431Y-107816935D01*
X67769985Y-107798958D01*
X67711617Y-107619319D01*
X67707075Y-107600399D01*
X67677527Y-107413840D01*
X67676000Y-107394442D01*
X67676000Y-107256868D01*
X66746693Y-107256868D01*
X66746693Y-108758868D01*
X65748693Y-108758868D01*
X65748693Y-107256868D01*
X65091751Y-107256868D01*
X64093734Y-107256868D01*
X64078886Y-104756868D01*
X65076903Y-104756868D01*
X65085824Y-106258868D01*
X65748693Y-106258868D01*
X66746693Y-106258868D01*
X68180472Y-106258868D01*
X68248693Y-106209302D01*
X68248693Y-105998568D01*
X69246693Y-105998568D01*
X69300399Y-106007075D01*
X69319319Y-106011617D01*
X69498958Y-106069985D01*
X69516935Y-106077431D01*
X69685232Y-106163183D01*
X69701822Y-106173350D01*
X69819528Y-106258868D01*
X70748693Y-106258868D01*
X71746693Y-106258868D01*
X73248693Y-106258868D01*
X74246693Y-106258868D01*
X75219191Y-106258868D01*
X75405686Y-106134256D01*
X75410830Y-106130999D01*
X75442422Y-106112064D01*
X75447718Y-106109064D01*
X75490939Y-106085963D01*
X75496374Y-106083227D01*
X75529654Y-106067487D01*
X75535217Y-106065021D01*
X75748693Y-105976596D01*
X75748693Y-105904277D01*
X76746693Y-105904277D01*
X76885987Y-105931985D01*
X76891924Y-105933318D01*
X76927652Y-105942267D01*
X76933522Y-105943891D01*
X76980418Y-105958118D01*
X76986197Y-105960027D01*
X77020859Y-105972430D01*
X77026535Y-105974620D01*
X77244783Y-106065021D01*
X77250346Y-106067487D01*
X77283626Y-106083227D01*
X77289061Y-106085963D01*
X77332282Y-106109064D01*
X77337578Y-106112064D01*
X77369170Y-106130999D01*
X77374314Y-106134256D01*
X77560809Y-106258868D01*
X78248693Y-106258868D01*
X79246693Y-106258868D01*
X80748693Y-106258868D01*
X81746693Y-106258868D01*
X83248693Y-106258868D01*
X84246693Y-106258868D01*
X85439407Y-106258868D01*
X85298905Y-106200671D01*
X85293344Y-106198206D01*
X85260062Y-106182466D01*
X85254623Y-106179729D01*
X85211401Y-106156627D01*
X85206106Y-106153627D01*
X85174512Y-106134691D01*
X85169368Y-106131434D01*
X84981131Y-106005657D01*
X84976155Y-106002153D01*
X84946583Y-105980221D01*
X84941785Y-105976476D01*
X84903903Y-105945387D01*
X84899296Y-105941413D01*
X84872009Y-105916682D01*
X84867600Y-105912484D01*
X84807744Y-105852628D01*
X87452255Y-105852628D01*
X87483084Y-105860351D01*
X87488952Y-105861975D01*
X87535845Y-105876202D01*
X87541620Y-105878110D01*
X87576272Y-105890509D01*
X87581949Y-105892699D01*
X87791095Y-105979329D01*
X87796656Y-105981794D01*
X87829938Y-105997534D01*
X87835377Y-106000271D01*
X87878599Y-106023373D01*
X87883894Y-106026373D01*
X87915488Y-106045309D01*
X87920632Y-106048566D01*
X88108869Y-106174343D01*
X88113845Y-106177847D01*
X88143417Y-106199779D01*
X88148215Y-106203524D01*
X88186097Y-106234613D01*
X88190704Y-106238587D01*
X88213081Y-106258868D01*
X88248693Y-106258868D01*
X89246693Y-106258868D01*
X90748693Y-106258868D01*
X91746693Y-106258868D01*
X92995636Y-106258868D01*
X92965896Y-106109357D01*
X92964855Y-106103360D01*
X92959451Y-106066929D01*
X92958706Y-106060888D01*
X92953903Y-106012116D01*
X92953455Y-106006046D01*
X92951649Y-105969274D01*
X92951500Y-105963191D01*
X92951500Y-105761304D01*
X93949500Y-105761304D01*
X93949500Y-105938695D01*
X93984103Y-106112658D01*
X93984106Y-106112667D01*
X94051983Y-106276540D01*
X94051990Y-106276553D01*
X94150535Y-106424034D01*
X94150538Y-106424038D01*
X94275961Y-106549461D01*
X94275965Y-106549464D01*
X94423446Y-106648009D01*
X94423459Y-106648016D01*
X94546363Y-106698923D01*
X94587334Y-106715894D01*
X94587336Y-106715894D01*
X94587341Y-106715896D01*
X94761304Y-106750499D01*
X94761307Y-106750500D01*
X94761309Y-106750500D01*
X94938693Y-106750500D01*
X94938694Y-106750499D01*
X94996682Y-106738964D01*
X95112658Y-106715896D01*
X95112661Y-106715894D01*
X95112666Y-106715894D01*
X95276547Y-106648013D01*
X95424035Y-106549464D01*
X95549464Y-106424035D01*
X95648013Y-106276547D01*
X95715093Y-106114598D01*
X95758931Y-106060199D01*
X95825225Y-106038133D01*
X95892924Y-106055411D01*
X95940535Y-106106548D01*
X95951269Y-106137862D01*
X95974104Y-106252659D01*
X95974106Y-106252667D01*
X96041983Y-106416540D01*
X96041990Y-106416553D01*
X96140535Y-106564034D01*
X96140538Y-106564038D01*
X96265961Y-106689461D01*
X96265965Y-106689464D01*
X96413446Y-106788009D01*
X96413459Y-106788016D01*
X96500583Y-106824103D01*
X96577334Y-106855894D01*
X96577336Y-106855894D01*
X96577341Y-106855896D01*
X96751304Y-106890499D01*
X96751307Y-106890500D01*
X96751309Y-106890500D01*
X96928693Y-106890500D01*
X96928694Y-106890499D01*
X96986682Y-106878964D01*
X97102658Y-106855896D01*
X97102661Y-106855894D01*
X97102666Y-106855894D01*
X97266547Y-106788013D01*
X97414035Y-106689464D01*
X97539464Y-106564035D01*
X97638013Y-106416547D01*
X97705894Y-106252666D01*
X97705894Y-106252661D01*
X97705896Y-106252658D01*
X97733742Y-106112666D01*
X97740500Y-106078691D01*
X97740500Y-105901309D01*
X97740500Y-105901306D01*
X97740499Y-105901304D01*
X97705896Y-105727341D01*
X97705893Y-105727332D01*
X97701239Y-105716097D01*
X97683561Y-105673417D01*
X97638016Y-105563459D01*
X97638009Y-105563446D01*
X97539464Y-105415965D01*
X97539461Y-105415961D01*
X97414038Y-105290538D01*
X97414034Y-105290535D01*
X97266553Y-105191990D01*
X97266540Y-105191983D01*
X97102667Y-105124106D01*
X97102658Y-105124103D01*
X96928694Y-105089500D01*
X96928691Y-105089500D01*
X96751309Y-105089500D01*
X96751306Y-105089500D01*
X96577341Y-105124103D01*
X96577332Y-105124106D01*
X96413459Y-105191983D01*
X96413446Y-105191990D01*
X96265965Y-105290535D01*
X96265961Y-105290538D01*
X96140538Y-105415961D01*
X96140535Y-105415965D01*
X96041990Y-105563446D01*
X96041983Y-105563459D01*
X95974908Y-105725397D01*
X95931068Y-105779801D01*
X95864773Y-105801866D01*
X95797074Y-105784587D01*
X95749463Y-105733450D01*
X95738730Y-105702136D01*
X95715896Y-105587341D01*
X95715893Y-105587332D01*
X95648016Y-105423459D01*
X95648009Y-105423446D01*
X95549464Y-105275965D01*
X95549461Y-105275961D01*
X95424038Y-105150538D01*
X95424034Y-105150535D01*
X95276553Y-105051990D01*
X95276540Y-105051983D01*
X95112667Y-104984106D01*
X95112658Y-104984103D01*
X94938694Y-104949500D01*
X94938691Y-104949500D01*
X94761309Y-104949500D01*
X94761306Y-104949500D01*
X94587341Y-104984103D01*
X94587332Y-104984106D01*
X94423459Y-105051983D01*
X94423446Y-105051990D01*
X94275965Y-105150535D01*
X94275961Y-105150538D01*
X94150538Y-105275961D01*
X94150535Y-105275965D01*
X94051990Y-105423446D01*
X94051983Y-105423459D01*
X93984106Y-105587332D01*
X93984103Y-105587341D01*
X93949500Y-105761304D01*
X92951500Y-105761304D01*
X92951500Y-105736809D01*
X92951649Y-105730726D01*
X92953455Y-105693954D01*
X92953903Y-105687884D01*
X92958706Y-105639112D01*
X92959451Y-105633071D01*
X92964855Y-105596640D01*
X92965896Y-105590643D01*
X93010065Y-105368592D01*
X93011399Y-105362651D01*
X93020351Y-105326916D01*
X93021975Y-105321048D01*
X93036202Y-105274155D01*
X93038110Y-105268380D01*
X93050509Y-105233728D01*
X93052699Y-105228051D01*
X93139329Y-105018905D01*
X93141794Y-105013344D01*
X93157534Y-104980062D01*
X93160271Y-104974623D01*
X93183373Y-104931401D01*
X93186373Y-104926106D01*
X93205309Y-104894512D01*
X93208566Y-104889368D01*
X93248693Y-104829313D01*
X93248693Y-104756868D01*
X100006664Y-104756868D01*
X100154633Y-104864373D01*
X100169429Y-104877010D01*
X100302990Y-105010571D01*
X100315627Y-105025367D01*
X100426650Y-105178178D01*
X100436817Y-105194768D01*
X100522569Y-105363065D01*
X100530015Y-105381042D01*
X100588383Y-105560681D01*
X100592925Y-105579601D01*
X100622473Y-105766160D01*
X100624000Y-105785558D01*
X100624000Y-105974442D01*
X100622473Y-105993840D01*
X100592925Y-106180399D01*
X100588383Y-106199319D01*
X100569034Y-106258868D01*
X100748693Y-106258868D01*
X101746693Y-106258868D01*
X103248693Y-106258868D01*
X104246693Y-106258868D01*
X105748693Y-106258868D01*
X105748693Y-106013577D01*
X105677516Y-105942400D01*
X105673318Y-105937991D01*
X105648587Y-105910704D01*
X105644613Y-105906097D01*
X105613524Y-105868215D01*
X105609779Y-105863417D01*
X105587847Y-105833845D01*
X105584343Y-105828869D01*
X105458566Y-105640632D01*
X105455309Y-105635488D01*
X105436373Y-105603894D01*
X105433373Y-105598599D01*
X105410271Y-105555377D01*
X105407534Y-105549938D01*
X105391794Y-105516656D01*
X105389329Y-105511095D01*
X105302699Y-105301949D01*
X105300509Y-105296272D01*
X105288110Y-105261620D01*
X105286202Y-105255845D01*
X105271975Y-105208952D01*
X105270351Y-105203084D01*
X105261399Y-105167349D01*
X105260065Y-105161408D01*
X105222875Y-104974447D01*
X105068905Y-104910671D01*
X105063344Y-104908206D01*
X105030062Y-104892466D01*
X105024623Y-104889729D01*
X104981401Y-104866627D01*
X104976106Y-104863627D01*
X104944512Y-104844691D01*
X104939368Y-104841434D01*
X104812807Y-104756868D01*
X104246693Y-104756868D01*
X104246693Y-106258868D01*
X103248693Y-106258868D01*
X103248693Y-104756868D01*
X101746693Y-104756868D01*
X101746693Y-106258868D01*
X100748693Y-106258868D01*
X100748693Y-104756868D01*
X100006664Y-104756868D01*
X93248693Y-104756868D01*
X91746693Y-104756868D01*
X91746693Y-106258868D01*
X90748693Y-106258868D01*
X90748693Y-104784453D01*
X90549357Y-104824104D01*
X90543360Y-104825145D01*
X90506929Y-104830549D01*
X90500888Y-104831294D01*
X90452116Y-104836097D01*
X90446046Y-104836545D01*
X90409274Y-104838351D01*
X90403191Y-104838500D01*
X90176809Y-104838500D01*
X90170726Y-104838351D01*
X90133954Y-104836545D01*
X90127884Y-104836097D01*
X90079112Y-104831294D01*
X90073071Y-104830549D01*
X90036640Y-104825145D01*
X90030643Y-104824104D01*
X89808592Y-104779935D01*
X89802651Y-104778601D01*
X89766916Y-104769649D01*
X89761048Y-104768025D01*
X89724274Y-104756868D01*
X89246693Y-104756868D01*
X89246693Y-106258868D01*
X88248693Y-106258868D01*
X88248693Y-104756868D01*
X88012610Y-104756868D01*
X87969935Y-104971408D01*
X87968601Y-104977349D01*
X87959649Y-105013084D01*
X87958025Y-105018952D01*
X87943798Y-105065845D01*
X87941890Y-105071620D01*
X87929491Y-105106272D01*
X87927301Y-105111949D01*
X87840671Y-105321095D01*
X87838206Y-105326656D01*
X87822466Y-105359938D01*
X87819729Y-105365377D01*
X87796627Y-105408599D01*
X87793627Y-105413894D01*
X87774691Y-105445488D01*
X87771434Y-105450632D01*
X87645657Y-105638869D01*
X87642153Y-105643845D01*
X87620221Y-105673417D01*
X87616476Y-105678215D01*
X87585387Y-105716097D01*
X87581413Y-105720704D01*
X87556682Y-105747991D01*
X87552484Y-105752400D01*
X87452255Y-105852628D01*
X84807744Y-105852628D01*
X84707516Y-105752400D01*
X84703318Y-105747991D01*
X84678587Y-105720704D01*
X84674613Y-105716097D01*
X84643524Y-105678215D01*
X84639779Y-105673417D01*
X84617847Y-105643845D01*
X84614343Y-105638869D01*
X84488566Y-105450632D01*
X84485309Y-105445488D01*
X84466373Y-105413894D01*
X84463373Y-105408599D01*
X84440271Y-105365377D01*
X84437534Y-105359938D01*
X84421794Y-105326656D01*
X84419329Y-105321095D01*
X84332699Y-105111949D01*
X84330509Y-105106272D01*
X84318110Y-105071620D01*
X84316202Y-105065845D01*
X84301975Y-105018952D01*
X84300351Y-105013084D01*
X84291399Y-104977349D01*
X84290065Y-104971408D01*
X84247390Y-104756868D01*
X84246693Y-104756868D01*
X84246693Y-106258868D01*
X83248693Y-106258868D01*
X83248693Y-104756868D01*
X81746693Y-104756868D01*
X81746693Y-106258868D01*
X80748693Y-106258868D01*
X80748693Y-104756868D01*
X79246693Y-104756868D01*
X79246693Y-106258868D01*
X78248693Y-106258868D01*
X78248693Y-104756868D01*
X76746693Y-104756868D01*
X76746693Y-105904277D01*
X75748693Y-105904277D01*
X75748693Y-104756868D01*
X74246693Y-104756868D01*
X74246693Y-106258868D01*
X73248693Y-106258868D01*
X73248693Y-104756868D01*
X71746693Y-104756868D01*
X71746693Y-106258868D01*
X70748693Y-106258868D01*
X70748693Y-104756868D01*
X69246693Y-104756868D01*
X69246693Y-105998568D01*
X68248693Y-105998568D01*
X68248693Y-104756868D01*
X66746693Y-104756868D01*
X66746693Y-106258868D01*
X65748693Y-106258868D01*
X65748693Y-104756868D01*
X65076903Y-104756868D01*
X64078886Y-104756868D01*
X64076774Y-104401304D01*
X85229500Y-104401304D01*
X85229500Y-104578695D01*
X85264103Y-104752658D01*
X85264106Y-104752667D01*
X85331983Y-104916540D01*
X85331990Y-104916553D01*
X85430535Y-105064034D01*
X85430538Y-105064038D01*
X85555961Y-105189461D01*
X85555965Y-105189464D01*
X85703446Y-105288009D01*
X85703459Y-105288016D01*
X85796746Y-105326656D01*
X85867334Y-105355894D01*
X85867336Y-105355894D01*
X85867341Y-105355896D01*
X86041304Y-105390499D01*
X86041307Y-105390500D01*
X86041309Y-105390500D01*
X86218693Y-105390500D01*
X86218694Y-105390499D01*
X86276682Y-105378964D01*
X86392658Y-105355896D01*
X86392661Y-105355894D01*
X86392666Y-105355894D01*
X86556547Y-105288013D01*
X86704035Y-105189464D01*
X86829464Y-105064035D01*
X86928013Y-104916547D01*
X86995894Y-104752666D01*
X87012594Y-104668713D01*
X87030499Y-104578695D01*
X87030500Y-104578693D01*
X87030500Y-104401306D01*
X87030499Y-104401304D01*
X86995896Y-104227341D01*
X86995893Y-104227332D01*
X86928016Y-104063459D01*
X86928009Y-104063446D01*
X86829464Y-103915965D01*
X86829461Y-103915961D01*
X86704038Y-103790538D01*
X86704034Y-103790535D01*
X86556553Y-103691990D01*
X86556540Y-103691983D01*
X86392667Y-103624106D01*
X86392658Y-103624103D01*
X86218694Y-103589500D01*
X86218691Y-103589500D01*
X86041309Y-103589500D01*
X86041306Y-103589500D01*
X85867341Y-103624103D01*
X85867332Y-103624106D01*
X85703459Y-103691983D01*
X85703446Y-103691990D01*
X85555965Y-103790535D01*
X85555961Y-103790538D01*
X85430538Y-103915961D01*
X85430535Y-103915965D01*
X85331990Y-104063446D01*
X85331983Y-104063459D01*
X85264106Y-104227332D01*
X85264103Y-104227341D01*
X85229500Y-104401304D01*
X64076774Y-104401304D01*
X64064038Y-102256868D01*
X65062056Y-102256868D01*
X65070976Y-103758868D01*
X65748693Y-103758868D01*
X66746693Y-103758868D01*
X68248693Y-103758868D01*
X69246693Y-103758868D01*
X70748693Y-103758868D01*
X71746693Y-103758868D01*
X72423273Y-103758868D01*
X76746693Y-103758868D01*
X78248693Y-103758868D01*
X79246693Y-103758868D01*
X80748693Y-103758868D01*
X81746693Y-103758868D01*
X83248693Y-103758868D01*
X84246693Y-103758868D01*
X84377924Y-103758868D01*
X84419329Y-103658905D01*
X84421794Y-103653344D01*
X84437534Y-103620062D01*
X84440271Y-103614623D01*
X84463373Y-103571401D01*
X84466373Y-103566106D01*
X84485309Y-103534512D01*
X84488566Y-103529368D01*
X84614343Y-103341131D01*
X84617847Y-103336155D01*
X84639779Y-103306583D01*
X84643524Y-103301785D01*
X84674613Y-103263903D01*
X84678587Y-103259296D01*
X84703318Y-103232009D01*
X84707516Y-103227600D01*
X84867600Y-103067516D01*
X84872009Y-103063318D01*
X84899296Y-103038587D01*
X84903903Y-103034613D01*
X84941785Y-103003524D01*
X84946583Y-102999779D01*
X84976155Y-102977847D01*
X84981131Y-102974343D01*
X85169368Y-102848566D01*
X85174512Y-102845309D01*
X85206106Y-102826373D01*
X85211401Y-102823373D01*
X85254623Y-102800271D01*
X85260062Y-102797534D01*
X85293344Y-102781794D01*
X85298905Y-102779329D01*
X85508051Y-102692699D01*
X85513308Y-102690671D01*
X86746693Y-102690671D01*
X86751949Y-102692699D01*
X86961095Y-102779329D01*
X86966656Y-102781794D01*
X86999938Y-102797534D01*
X87005377Y-102800271D01*
X87048599Y-102823373D01*
X87053894Y-102826373D01*
X87085488Y-102845309D01*
X87090632Y-102848566D01*
X87278869Y-102974343D01*
X87283845Y-102977847D01*
X87313417Y-102999779D01*
X87318215Y-103003524D01*
X87356097Y-103034613D01*
X87360704Y-103038587D01*
X87387991Y-103063318D01*
X87392400Y-103067516D01*
X87552484Y-103227600D01*
X87556682Y-103232009D01*
X87581413Y-103259296D01*
X87585387Y-103263903D01*
X87616476Y-103301785D01*
X87620221Y-103306583D01*
X87642153Y-103336155D01*
X87645657Y-103341131D01*
X87771434Y-103529368D01*
X87774691Y-103534512D01*
X87793627Y-103566106D01*
X87796627Y-103571401D01*
X87819729Y-103614623D01*
X87822466Y-103620062D01*
X87838206Y-103653344D01*
X87840671Y-103658905D01*
X87882076Y-103758868D01*
X88248693Y-103758868D01*
X88248693Y-102851304D01*
X89389500Y-102851304D01*
X89389500Y-103028695D01*
X89424103Y-103202658D01*
X89424106Y-103202667D01*
X89491983Y-103366540D01*
X89491990Y-103366553D01*
X89590535Y-103514034D01*
X89590538Y-103514038D01*
X89715961Y-103639461D01*
X89715965Y-103639464D01*
X89863446Y-103738009D01*
X89863459Y-103738016D01*
X89967922Y-103781285D01*
X90027334Y-103805894D01*
X90027336Y-103805894D01*
X90027341Y-103805896D01*
X90201304Y-103840499D01*
X90201307Y-103840500D01*
X90201309Y-103840500D01*
X90378693Y-103840500D01*
X90378694Y-103840499D01*
X90436682Y-103828964D01*
X90552658Y-103805896D01*
X90552661Y-103805894D01*
X90552666Y-103805894D01*
X90666198Y-103758868D01*
X92005736Y-103758868D01*
X93248693Y-103758868D01*
X93248693Y-103077131D01*
X93192699Y-102941949D01*
X93190509Y-102936272D01*
X93178110Y-102901620D01*
X93176202Y-102895845D01*
X93161975Y-102848952D01*
X93160351Y-102843084D01*
X93151399Y-102807349D01*
X93150065Y-102801408D01*
X93105896Y-102579357D01*
X93104855Y-102573360D01*
X93101841Y-102553042D01*
X92982400Y-102672484D01*
X92977991Y-102676682D01*
X92950704Y-102701413D01*
X92946097Y-102705387D01*
X92908215Y-102736476D01*
X92903417Y-102740221D01*
X92873845Y-102762153D01*
X92868869Y-102765657D01*
X92680632Y-102891434D01*
X92675488Y-102894691D01*
X92643894Y-102913627D01*
X92638599Y-102916627D01*
X92595377Y-102939729D01*
X92589938Y-102942466D01*
X92556656Y-102958206D01*
X92551095Y-102960671D01*
X92341949Y-103047301D01*
X92336272Y-103049491D01*
X92301620Y-103061890D01*
X92295845Y-103063798D01*
X92248952Y-103078025D01*
X92243084Y-103079649D01*
X92207349Y-103088601D01*
X92201407Y-103089936D01*
X92186701Y-103092861D01*
X92186545Y-103096046D01*
X92186097Y-103102116D01*
X92181294Y-103150888D01*
X92180549Y-103156929D01*
X92175145Y-103193360D01*
X92174104Y-103199357D01*
X92129935Y-103421408D01*
X92128601Y-103427349D01*
X92119649Y-103463084D01*
X92118025Y-103468952D01*
X92103798Y-103515845D01*
X92101890Y-103521620D01*
X92089491Y-103556272D01*
X92087301Y-103561949D01*
X92005736Y-103758868D01*
X90666198Y-103758868D01*
X90716547Y-103738013D01*
X90864035Y-103639464D01*
X90989464Y-103514035D01*
X91088013Y-103366547D01*
X91155894Y-103202666D01*
X91156553Y-103199357D01*
X91183896Y-103061890D01*
X91190500Y-103028691D01*
X91190500Y-102851309D01*
X91190500Y-102851306D01*
X91190499Y-102851304D01*
X91155896Y-102677341D01*
X91155893Y-102677332D01*
X91155859Y-102677251D01*
X91135433Y-102627936D01*
X91088016Y-102513459D01*
X91088009Y-102513446D01*
X90989464Y-102365965D01*
X90989461Y-102365961D01*
X90864038Y-102240538D01*
X90864034Y-102240535D01*
X90850219Y-102231304D01*
X94089500Y-102231304D01*
X94089500Y-102408695D01*
X94124103Y-102582658D01*
X94124106Y-102582667D01*
X94191983Y-102746540D01*
X94191990Y-102746553D01*
X94290535Y-102894034D01*
X94290538Y-102894038D01*
X94415961Y-103019461D01*
X94415965Y-103019464D01*
X94563446Y-103118009D01*
X94563459Y-103118016D01*
X94686363Y-103168923D01*
X94727334Y-103185894D01*
X94727336Y-103185894D01*
X94727341Y-103185896D01*
X94901304Y-103220499D01*
X94901307Y-103220500D01*
X94901309Y-103220500D01*
X95078693Y-103220500D01*
X95078694Y-103220499D01*
X95136682Y-103208964D01*
X95252658Y-103185896D01*
X95252661Y-103185894D01*
X95252666Y-103185894D01*
X95416547Y-103118013D01*
X95533322Y-103039986D01*
X96746693Y-103039986D01*
X96746693Y-103758868D01*
X98248693Y-103758868D01*
X98248693Y-102863177D01*
X99246693Y-102863177D01*
X99246693Y-103758868D01*
X100748693Y-103758868D01*
X101746693Y-103758868D01*
X103248693Y-103758868D01*
X103248693Y-103111304D01*
X104999500Y-103111304D01*
X104999500Y-103288695D01*
X105034103Y-103462658D01*
X105034106Y-103462667D01*
X105101983Y-103626540D01*
X105101990Y-103626553D01*
X105200535Y-103774034D01*
X105200538Y-103774038D01*
X105325961Y-103899461D01*
X105325965Y-103899464D01*
X105473446Y-103998009D01*
X105473459Y-103998016D01*
X105596363Y-104048923D01*
X105637334Y-104065894D01*
X105637336Y-104065894D01*
X105637341Y-104065896D01*
X105811304Y-104100499D01*
X105811307Y-104100500D01*
X105811309Y-104100500D01*
X105988693Y-104100500D01*
X105988694Y-104100499D01*
X106162666Y-104065894D01*
X106162679Y-104065888D01*
X106162933Y-104065812D01*
X106163087Y-104065810D01*
X106168641Y-104064706D01*
X106168850Y-104065758D01*
X106232800Y-104065178D01*
X106291919Y-104102417D01*
X106321520Y-104165706D01*
X106312204Y-104234952D01*
X106302057Y-104253347D01*
X106301991Y-104253445D01*
X106301983Y-104253459D01*
X106234106Y-104417332D01*
X106234103Y-104417341D01*
X106199500Y-104591304D01*
X106199500Y-104768695D01*
X106234103Y-104942658D01*
X106234106Y-104942667D01*
X106301983Y-105106540D01*
X106301990Y-105106553D01*
X106400535Y-105254034D01*
X106400538Y-105254038D01*
X106525961Y-105379461D01*
X106525965Y-105379464D01*
X106673446Y-105478009D01*
X106673459Y-105478016D01*
X106766746Y-105516656D01*
X106837334Y-105545894D01*
X106837336Y-105545894D01*
X106837341Y-105545896D01*
X107011304Y-105580499D01*
X107011307Y-105580500D01*
X107011309Y-105580500D01*
X107188693Y-105580500D01*
X107188694Y-105580499D01*
X107246682Y-105568964D01*
X107362658Y-105545896D01*
X107362661Y-105545894D01*
X107362666Y-105545894D01*
X107514942Y-105482820D01*
X107526540Y-105478016D01*
X107526540Y-105478015D01*
X107526547Y-105478013D01*
X107674035Y-105379464D01*
X107799464Y-105254035D01*
X107898013Y-105106547D01*
X107965894Y-104942666D01*
X107971089Y-104916553D01*
X108000499Y-104768695D01*
X108000500Y-104768693D01*
X108000500Y-104668713D01*
X108250500Y-104668713D01*
X108250500Y-104881286D01*
X108279444Y-105064035D01*
X108283754Y-105091243D01*
X108348509Y-105290538D01*
X108349444Y-105293414D01*
X108445951Y-105482820D01*
X108570890Y-105654786D01*
X108721213Y-105805109D01*
X108893182Y-105930050D01*
X108901946Y-105934516D01*
X108952742Y-105982491D01*
X108969536Y-106050312D01*
X108946998Y-106116447D01*
X108901946Y-106155484D01*
X108893182Y-106159949D01*
X108721213Y-106284890D01*
X108570890Y-106435213D01*
X108445951Y-106607179D01*
X108349444Y-106796585D01*
X108283753Y-106998760D01*
X108265190Y-107115965D01*
X108250500Y-107208713D01*
X108250500Y-107421287D01*
X108251458Y-107427334D01*
X108278868Y-107600399D01*
X108283754Y-107631243D01*
X108348313Y-107829935D01*
X108349444Y-107833414D01*
X108445951Y-108022820D01*
X108570890Y-108194786D01*
X108721213Y-108345109D01*
X108893182Y-108470050D01*
X108901946Y-108474516D01*
X108952742Y-108522491D01*
X108969536Y-108590312D01*
X108946998Y-108656447D01*
X108901946Y-108695484D01*
X108893182Y-108699949D01*
X108721213Y-108824890D01*
X108570890Y-108975213D01*
X108445951Y-109147179D01*
X108349444Y-109336585D01*
X108283753Y-109538760D01*
X108250500Y-109748713D01*
X108250500Y-109961286D01*
X108280824Y-110152749D01*
X108283754Y-110171243D01*
X108337411Y-110336383D01*
X108349444Y-110373414D01*
X108445951Y-110562820D01*
X108570890Y-110734786D01*
X108721213Y-110885109D01*
X108893179Y-111010048D01*
X108893181Y-111010049D01*
X108893184Y-111010051D01*
X109082588Y-111106557D01*
X109284757Y-111172246D01*
X109494713Y-111205500D01*
X109494714Y-111205500D01*
X109707286Y-111205500D01*
X109707287Y-111205500D01*
X109917243Y-111172246D01*
X110119412Y-111106557D01*
X110308816Y-111010051D01*
X110330789Y-110994086D01*
X110480786Y-110885109D01*
X110480788Y-110885106D01*
X110480792Y-110885104D01*
X110631104Y-110734792D01*
X110631106Y-110734788D01*
X110631109Y-110734786D01*
X110756048Y-110562820D01*
X110756047Y-110562820D01*
X110756051Y-110562816D01*
X110852557Y-110373412D01*
X110918246Y-110171243D01*
X110951500Y-109961287D01*
X110951500Y-109748713D01*
X110918246Y-109538757D01*
X110852557Y-109336588D01*
X110756051Y-109147184D01*
X110756049Y-109147181D01*
X110756048Y-109147179D01*
X110631109Y-108975213D01*
X110480786Y-108824890D01*
X110308820Y-108699951D01*
X110308115Y-108699591D01*
X110300054Y-108695485D01*
X110249259Y-108647512D01*
X110232463Y-108579692D01*
X110254999Y-108513556D01*
X110300054Y-108474515D01*
X110308816Y-108470051D01*
X110369574Y-108425908D01*
X110480786Y-108345109D01*
X110480788Y-108345106D01*
X110480792Y-108345104D01*
X110631104Y-108194792D01*
X110631106Y-108194788D01*
X110631109Y-108194786D01*
X110756048Y-108022820D01*
X110756047Y-108022820D01*
X110756051Y-108022816D01*
X110852557Y-107833412D01*
X110918246Y-107631243D01*
X110951500Y-107421287D01*
X110951500Y-107208713D01*
X110918246Y-106998757D01*
X110852557Y-106796588D01*
X110756051Y-106607184D01*
X110756049Y-106607181D01*
X110756048Y-106607179D01*
X110631109Y-106435213D01*
X110480786Y-106284890D01*
X110308820Y-106159951D01*
X110302296Y-106156627D01*
X110300054Y-106155485D01*
X110249259Y-106107512D01*
X110232463Y-106039692D01*
X110254999Y-105973556D01*
X110300054Y-105934515D01*
X110308816Y-105930051D01*
X110380307Y-105878110D01*
X110480786Y-105805109D01*
X110480788Y-105805106D01*
X110480792Y-105805104D01*
X110631104Y-105654792D01*
X110631106Y-105654788D01*
X110631109Y-105654786D01*
X110756048Y-105482820D01*
X110756047Y-105482820D01*
X110756051Y-105482816D01*
X110852557Y-105293412D01*
X110918246Y-105091243D01*
X110951500Y-104881287D01*
X110951500Y-104668713D01*
X110918246Y-104458757D01*
X110852557Y-104256588D01*
X110756051Y-104067184D01*
X110756049Y-104067181D01*
X110756048Y-104067179D01*
X110631109Y-103895213D01*
X110517181Y-103781285D01*
X110483696Y-103719962D01*
X110488680Y-103650270D01*
X110530552Y-103594337D01*
X110561529Y-103577422D01*
X110693086Y-103528354D01*
X110693093Y-103528350D01*
X110808187Y-103442190D01*
X110808190Y-103442187D01*
X110894350Y-103327093D01*
X110894354Y-103327086D01*
X110944596Y-103192379D01*
X110944598Y-103192372D01*
X110950999Y-103132844D01*
X110951000Y-103132827D01*
X110951000Y-102485000D01*
X110034012Y-102485000D01*
X110066925Y-102427993D01*
X110101000Y-102300826D01*
X110101000Y-102169174D01*
X110066925Y-102042007D01*
X110034012Y-101985000D01*
X110951000Y-101985000D01*
X110951000Y-101337172D01*
X110950999Y-101337155D01*
X110944598Y-101277627D01*
X110944596Y-101277620D01*
X110894354Y-101142913D01*
X110894350Y-101142906D01*
X110808190Y-101027812D01*
X110808187Y-101027809D01*
X110693093Y-100941649D01*
X110693086Y-100941645D01*
X110558379Y-100891403D01*
X110558372Y-100891401D01*
X110498844Y-100885000D01*
X109851000Y-100885000D01*
X109851000Y-101801988D01*
X109793993Y-101769075D01*
X109666826Y-101735000D01*
X109535174Y-101735000D01*
X109408007Y-101769075D01*
X109351000Y-101801988D01*
X109351000Y-100885000D01*
X108703155Y-100885000D01*
X108643627Y-100891401D01*
X108643620Y-100891403D01*
X108508913Y-100941645D01*
X108508906Y-100941649D01*
X108393812Y-101027809D01*
X108393809Y-101027812D01*
X108307649Y-101142906D01*
X108307645Y-101142913D01*
X108257403Y-101277620D01*
X108257401Y-101277627D01*
X108251000Y-101337155D01*
X108251000Y-101985000D01*
X109167988Y-101985000D01*
X109135075Y-102042007D01*
X109101000Y-102169174D01*
X109101000Y-102300826D01*
X109135075Y-102427993D01*
X109167988Y-102485000D01*
X108251000Y-102485000D01*
X108251000Y-103132844D01*
X108257401Y-103192372D01*
X108257403Y-103192379D01*
X108307645Y-103327086D01*
X108307649Y-103327093D01*
X108393809Y-103442187D01*
X108393812Y-103442190D01*
X108508906Y-103528350D01*
X108508913Y-103528354D01*
X108640470Y-103577422D01*
X108696404Y-103619293D01*
X108720821Y-103684758D01*
X108705969Y-103753031D01*
X108684819Y-103781285D01*
X108570889Y-103895215D01*
X108445951Y-104067179D01*
X108349444Y-104256585D01*
X108283753Y-104458760D01*
X108250500Y-104668713D01*
X108000500Y-104668713D01*
X108000500Y-104591306D01*
X108000499Y-104591304D01*
X107965896Y-104417341D01*
X107965893Y-104417332D01*
X107898016Y-104253459D01*
X107898009Y-104253446D01*
X107799464Y-104105965D01*
X107799461Y-104105961D01*
X107674038Y-103980538D01*
X107674034Y-103980535D01*
X107526553Y-103881990D01*
X107526540Y-103881983D01*
X107362667Y-103814106D01*
X107362658Y-103814103D01*
X107188694Y-103779500D01*
X107188691Y-103779500D01*
X107011309Y-103779500D01*
X107011306Y-103779500D01*
X106837336Y-103814105D01*
X106837043Y-103814194D01*
X106836881Y-103814195D01*
X106831359Y-103815294D01*
X106831150Y-103814246D01*
X106767176Y-103814815D01*
X106708064Y-103777564D01*
X106678476Y-103714269D01*
X106687804Y-103645025D01*
X106697958Y-103626629D01*
X106698013Y-103626547D01*
X106765894Y-103462666D01*
X106782503Y-103379170D01*
X106800499Y-103288695D01*
X106800500Y-103288693D01*
X106800500Y-103111306D01*
X106800499Y-103111304D01*
X106765896Y-102937341D01*
X106765893Y-102937332D01*
X106698016Y-102773459D01*
X106698009Y-102773446D01*
X106599464Y-102625965D01*
X106599461Y-102625961D01*
X106474038Y-102500538D01*
X106474034Y-102500535D01*
X106326553Y-102401990D01*
X106326540Y-102401983D01*
X106162667Y-102334106D01*
X106162658Y-102334103D01*
X105988694Y-102299500D01*
X105988691Y-102299500D01*
X105811309Y-102299500D01*
X105811306Y-102299500D01*
X105637341Y-102334103D01*
X105637332Y-102334106D01*
X105473459Y-102401983D01*
X105473446Y-102401990D01*
X105325965Y-102500535D01*
X105325961Y-102500538D01*
X105200538Y-102625961D01*
X105200535Y-102625965D01*
X105101990Y-102773446D01*
X105101983Y-102773459D01*
X105034106Y-102937332D01*
X105034103Y-102937341D01*
X104999500Y-103111304D01*
X103248693Y-103111304D01*
X103248693Y-102256868D01*
X101746693Y-102256868D01*
X101746693Y-103758868D01*
X100748693Y-103758868D01*
X100748693Y-102256868D01*
X100468727Y-102256868D01*
X100344273Y-102381322D01*
X100339864Y-102385520D01*
X100312577Y-102410251D01*
X100307970Y-102414225D01*
X100270088Y-102445314D01*
X100265288Y-102449060D01*
X100235714Y-102470993D01*
X100230740Y-102474496D01*
X100034314Y-102605744D01*
X100029170Y-102609001D01*
X99997578Y-102627936D01*
X99992282Y-102630936D01*
X99949061Y-102654037D01*
X99943626Y-102656773D01*
X99910346Y-102672513D01*
X99904783Y-102674979D01*
X99686535Y-102765380D01*
X99680859Y-102767570D01*
X99646197Y-102779973D01*
X99640418Y-102781882D01*
X99593522Y-102796109D01*
X99587652Y-102797733D01*
X99551924Y-102806682D01*
X99545987Y-102808015D01*
X99314281Y-102854104D01*
X99308286Y-102855145D01*
X99271858Y-102860549D01*
X99265815Y-102861294D01*
X99246693Y-102863177D01*
X98248693Y-102863177D01*
X98248693Y-102697129D01*
X98195217Y-102674979D01*
X98189654Y-102672513D01*
X98156374Y-102656773D01*
X98150939Y-102654037D01*
X98107718Y-102630936D01*
X98102422Y-102627936D01*
X98070830Y-102609001D01*
X98065686Y-102605744D01*
X97869260Y-102474496D01*
X97864286Y-102470993D01*
X97834712Y-102449060D01*
X97829912Y-102445314D01*
X97792030Y-102414225D01*
X97787423Y-102410251D01*
X97760136Y-102385520D01*
X97755727Y-102381322D01*
X97631273Y-102256868D01*
X97327131Y-102256868D01*
X97265657Y-102348869D01*
X97262153Y-102353845D01*
X97240221Y-102383417D01*
X97236476Y-102388215D01*
X97205387Y-102426097D01*
X97201413Y-102430704D01*
X97176682Y-102457991D01*
X97172484Y-102462400D01*
X97012400Y-102622484D01*
X97007991Y-102626682D01*
X96980704Y-102651413D01*
X96976097Y-102655387D01*
X96938215Y-102686476D01*
X96933417Y-102690221D01*
X96903845Y-102712153D01*
X96898868Y-102715658D01*
X96839040Y-102755632D01*
X96829936Y-102801407D01*
X96828601Y-102807349D01*
X96819649Y-102843084D01*
X96818025Y-102848952D01*
X96803798Y-102895845D01*
X96801890Y-102901620D01*
X96789491Y-102936272D01*
X96787301Y-102941949D01*
X96746693Y-103039986D01*
X95533322Y-103039986D01*
X95564035Y-103019464D01*
X95689464Y-102894035D01*
X95788013Y-102746547D01*
X95792185Y-102736476D01*
X95797958Y-102722535D01*
X95855894Y-102582666D01*
X95856553Y-102579357D01*
X95886121Y-102430704D01*
X95890500Y-102408691D01*
X95890500Y-102231309D01*
X95887690Y-102217183D01*
X95893916Y-102147594D01*
X95936777Y-102092416D01*
X95985115Y-102071374D01*
X96012666Y-102065894D01*
X96176547Y-101998013D01*
X96324035Y-101899464D01*
X96449464Y-101774035D01*
X96548013Y-101626547D01*
X96615894Y-101462666D01*
X96650500Y-101288691D01*
X96650500Y-101111309D01*
X96650500Y-101111306D01*
X96650499Y-101111304D01*
X96615896Y-100937341D01*
X96615893Y-100937332D01*
X96569936Y-100826379D01*
X98099500Y-100826379D01*
X98099500Y-101013620D01*
X98136025Y-101197243D01*
X98136027Y-101197251D01*
X98207676Y-101370228D01*
X98207681Y-101370237D01*
X98311697Y-101525907D01*
X98311700Y-101525911D01*
X98444088Y-101658299D01*
X98444092Y-101658302D01*
X98599762Y-101762318D01*
X98599771Y-101762323D01*
X98628054Y-101774038D01*
X98772749Y-101833973D01*
X98956379Y-101870499D01*
X98956383Y-101870500D01*
X98956384Y-101870500D01*
X99143617Y-101870500D01*
X99143618Y-101870499D01*
X99327251Y-101833973D01*
X99500231Y-101762322D01*
X99655908Y-101658302D01*
X99788302Y-101525908D01*
X99892322Y-101370231D01*
X99938450Y-101258868D01*
X101746693Y-101258868D01*
X103248693Y-101258868D01*
X104246693Y-101258868D01*
X105748693Y-101258868D01*
X105748693Y-100374459D01*
X105578731Y-100250975D01*
X105574843Y-100248032D01*
X105551684Y-100229773D01*
X105547919Y-100226683D01*
X105518112Y-100201222D01*
X105514473Y-100197988D01*
X105492868Y-100178014D01*
X105489364Y-100174644D01*
X105311356Y-99996636D01*
X105307986Y-99993132D01*
X105288012Y-99971527D01*
X105284778Y-99967888D01*
X105259317Y-99938081D01*
X105256227Y-99934316D01*
X105237968Y-99911157D01*
X105235025Y-99907269D01*
X105125753Y-99756868D01*
X104246693Y-99756868D01*
X104246693Y-101258868D01*
X103248693Y-101258868D01*
X103248693Y-99756868D01*
X101746693Y-99756868D01*
X101746693Y-101258868D01*
X99938450Y-101258868D01*
X99963973Y-101197251D01*
X100000500Y-101013616D01*
X100000500Y-100826384D01*
X99963973Y-100642749D01*
X99892322Y-100469769D01*
X99892321Y-100469768D01*
X99892318Y-100469762D01*
X99788302Y-100314092D01*
X99788299Y-100314088D01*
X99655911Y-100181700D01*
X99655907Y-100181697D01*
X99500237Y-100077681D01*
X99500228Y-100077676D01*
X99327251Y-100006027D01*
X99327243Y-100006025D01*
X99143620Y-99969500D01*
X99143616Y-99969500D01*
X98956384Y-99969500D01*
X98956379Y-99969500D01*
X98772756Y-100006025D01*
X98772748Y-100006027D01*
X98599771Y-100077676D01*
X98599762Y-100077681D01*
X98444092Y-100181697D01*
X98444088Y-100181700D01*
X98311700Y-100314088D01*
X98311697Y-100314092D01*
X98207681Y-100469762D01*
X98207676Y-100469771D01*
X98136027Y-100642748D01*
X98136025Y-100642756D01*
X98099500Y-100826379D01*
X96569936Y-100826379D01*
X96548016Y-100773459D01*
X96548009Y-100773446D01*
X96449464Y-100625965D01*
X96449461Y-100625961D01*
X96324038Y-100500538D01*
X96324034Y-100500535D01*
X96176553Y-100401990D01*
X96176540Y-100401983D01*
X96012667Y-100334106D01*
X96012658Y-100334103D01*
X95838694Y-100299500D01*
X95838691Y-100299500D01*
X95661309Y-100299500D01*
X95661306Y-100299500D01*
X95487341Y-100334103D01*
X95487332Y-100334106D01*
X95323459Y-100401983D01*
X95323446Y-100401990D01*
X95175965Y-100500535D01*
X95175961Y-100500538D01*
X95050538Y-100625961D01*
X95050535Y-100625965D01*
X94951990Y-100773446D01*
X94951983Y-100773459D01*
X94884106Y-100937332D01*
X94884103Y-100937341D01*
X94849500Y-101111304D01*
X94849500Y-101111309D01*
X94849500Y-101288691D01*
X94849501Y-101288695D01*
X94852310Y-101302818D01*
X94846081Y-101372409D01*
X94803218Y-101427586D01*
X94754886Y-101448625D01*
X94727336Y-101454105D01*
X94727329Y-101454107D01*
X94563459Y-101521983D01*
X94563446Y-101521990D01*
X94415965Y-101620535D01*
X94415961Y-101620538D01*
X94290538Y-101745961D01*
X94290535Y-101745965D01*
X94191990Y-101893446D01*
X94191983Y-101893459D01*
X94124106Y-102057332D01*
X94124103Y-102057341D01*
X94089500Y-102231304D01*
X90850219Y-102231304D01*
X90716553Y-102141990D01*
X90716540Y-102141983D01*
X90552667Y-102074106D01*
X90552658Y-102074103D01*
X90378694Y-102039500D01*
X90378691Y-102039500D01*
X90201309Y-102039500D01*
X90201306Y-102039500D01*
X90027341Y-102074103D01*
X90027332Y-102074106D01*
X89863459Y-102141983D01*
X89863446Y-102141990D01*
X89715965Y-102240535D01*
X89715961Y-102240538D01*
X89590538Y-102365961D01*
X89590535Y-102365965D01*
X89491990Y-102513446D01*
X89491983Y-102513459D01*
X89424106Y-102677332D01*
X89424103Y-102677341D01*
X89389500Y-102851304D01*
X88248693Y-102851304D01*
X88248693Y-102256868D01*
X86746693Y-102256868D01*
X86746693Y-102690671D01*
X85513308Y-102690671D01*
X85513728Y-102690509D01*
X85548380Y-102678110D01*
X85554155Y-102676202D01*
X85601048Y-102661975D01*
X85606916Y-102660351D01*
X85642651Y-102651399D01*
X85648592Y-102650065D01*
X85748693Y-102630153D01*
X85748693Y-102256868D01*
X84246693Y-102256868D01*
X84246693Y-103758868D01*
X83248693Y-103758868D01*
X83248693Y-102256868D01*
X81746693Y-102256868D01*
X81746693Y-103758868D01*
X80748693Y-103758868D01*
X80748693Y-102256868D01*
X79246693Y-102256868D01*
X79246693Y-103758868D01*
X78248693Y-103758868D01*
X78248693Y-102256868D01*
X76746693Y-102256868D01*
X76746693Y-103758868D01*
X72423273Y-103758868D01*
X72358678Y-103694273D01*
X72354480Y-103689864D01*
X72329749Y-103662577D01*
X72325775Y-103657970D01*
X72294686Y-103620088D01*
X72290940Y-103615288D01*
X72269007Y-103585714D01*
X72265504Y-103580740D01*
X72134256Y-103384314D01*
X72130999Y-103379170D01*
X72112064Y-103347578D01*
X72109064Y-103342282D01*
X72085963Y-103299061D01*
X72083227Y-103293626D01*
X72067487Y-103260346D01*
X72065021Y-103254783D01*
X71974620Y-103036535D01*
X71972430Y-103030859D01*
X71960027Y-102996197D01*
X71958118Y-102990418D01*
X71943891Y-102943522D01*
X71942267Y-102937652D01*
X71933318Y-102901924D01*
X71931985Y-102895987D01*
X71885896Y-102664281D01*
X71884855Y-102658286D01*
X71879451Y-102621858D01*
X71878706Y-102615815D01*
X71873903Y-102567046D01*
X71873455Y-102560975D01*
X71871649Y-102524200D01*
X71871500Y-102518118D01*
X71871500Y-102306379D01*
X72869500Y-102306379D01*
X72869500Y-102493620D01*
X72906025Y-102677243D01*
X72906027Y-102677251D01*
X72977676Y-102850228D01*
X72977681Y-102850237D01*
X73081697Y-103005907D01*
X73081700Y-103005911D01*
X73214088Y-103138299D01*
X73214092Y-103138302D01*
X73369762Y-103242318D01*
X73369768Y-103242321D01*
X73369769Y-103242322D01*
X73542749Y-103313973D01*
X73679283Y-103341131D01*
X73726379Y-103350499D01*
X73726383Y-103350500D01*
X73726384Y-103350500D01*
X73913617Y-103350500D01*
X73913618Y-103350499D01*
X74097251Y-103313973D01*
X74270231Y-103242322D01*
X74425908Y-103138302D01*
X74558302Y-103005908D01*
X74662322Y-102850231D01*
X74733973Y-102677251D01*
X74770500Y-102493616D01*
X74770500Y-102306384D01*
X74733973Y-102122749D01*
X74662322Y-101949769D01*
X74662321Y-101949768D01*
X74662318Y-101949762D01*
X74558302Y-101794092D01*
X74558299Y-101794088D01*
X74425911Y-101661700D01*
X74425907Y-101661697D01*
X74270237Y-101557681D01*
X74270228Y-101557676D01*
X74097251Y-101486027D01*
X74097243Y-101486025D01*
X73913620Y-101449500D01*
X73913616Y-101449500D01*
X73726384Y-101449500D01*
X73726379Y-101449500D01*
X73542756Y-101486025D01*
X73542748Y-101486027D01*
X73369771Y-101557676D01*
X73369762Y-101557681D01*
X73214092Y-101661697D01*
X73214088Y-101661700D01*
X73081700Y-101794088D01*
X73081697Y-101794092D01*
X72977681Y-101949762D01*
X72977676Y-101949771D01*
X72906027Y-102122748D01*
X72906025Y-102122756D01*
X72869500Y-102306379D01*
X71871500Y-102306379D01*
X71871500Y-102281882D01*
X71871649Y-102275800D01*
X71872579Y-102256868D01*
X71746693Y-102256868D01*
X71746693Y-103758868D01*
X70748693Y-103758868D01*
X70748693Y-102256868D01*
X69246693Y-102256868D01*
X69246693Y-103758868D01*
X68248693Y-103758868D01*
X68248693Y-102256868D01*
X66746693Y-102256868D01*
X66746693Y-103758868D01*
X65748693Y-103758868D01*
X65748693Y-102256868D01*
X65062056Y-102256868D01*
X64064038Y-102256868D01*
X64049190Y-99756868D01*
X65047208Y-99756868D01*
X65056128Y-101258868D01*
X65748693Y-101258868D01*
X66746693Y-101258868D01*
X67553511Y-101258868D01*
X67547431Y-101246935D01*
X67539985Y-101228958D01*
X67481617Y-101049319D01*
X67477075Y-101030399D01*
X67447527Y-100843840D01*
X67446000Y-100824442D01*
X67446000Y-100635558D01*
X67447527Y-100616160D01*
X67477075Y-100429601D01*
X67481617Y-100410681D01*
X67539985Y-100231042D01*
X67547431Y-100213065D01*
X67633183Y-100044768D01*
X67643350Y-100028178D01*
X67754373Y-99875367D01*
X67767010Y-99860571D01*
X67870713Y-99756868D01*
X69669287Y-99756868D01*
X69772990Y-99860571D01*
X69785627Y-99875367D01*
X69896650Y-100028178D01*
X69906817Y-100044768D01*
X69992569Y-100213065D01*
X70000015Y-100231042D01*
X70058383Y-100410681D01*
X70062925Y-100429601D01*
X70092473Y-100616160D01*
X70094000Y-100635558D01*
X70094000Y-100824442D01*
X70092473Y-100843840D01*
X70062925Y-101030399D01*
X70058383Y-101049319D01*
X70000015Y-101228958D01*
X69992569Y-101246935D01*
X69986489Y-101258868D01*
X70748693Y-101258868D01*
X70748693Y-100312815D01*
X70624013Y-100288015D01*
X70618076Y-100286682D01*
X70582348Y-100277733D01*
X70576478Y-100276109D01*
X70529582Y-100261882D01*
X70523803Y-100259973D01*
X70493305Y-100249060D01*
X71746693Y-100249060D01*
X71746693Y-101258868D01*
X72239039Y-101258868D01*
X72265504Y-101219260D01*
X72269007Y-101214286D01*
X72290940Y-101184712D01*
X72294686Y-101179912D01*
X72325775Y-101142030D01*
X72329749Y-101137423D01*
X72354480Y-101110136D01*
X72358678Y-101105727D01*
X72525727Y-100938678D01*
X72530136Y-100934480D01*
X72557423Y-100909749D01*
X72562030Y-100905775D01*
X72599912Y-100874686D01*
X72604712Y-100870940D01*
X72634286Y-100849007D01*
X72639260Y-100845504D01*
X72835686Y-100714256D01*
X72840830Y-100710999D01*
X72872422Y-100692064D01*
X72877718Y-100689064D01*
X72920939Y-100665963D01*
X72926374Y-100663227D01*
X72959654Y-100647487D01*
X72965217Y-100645021D01*
X73183465Y-100554620D01*
X73189141Y-100552430D01*
X73223803Y-100540027D01*
X73229582Y-100538118D01*
X73248693Y-100532320D01*
X73248693Y-100043878D01*
X73178592Y-100029935D01*
X73172651Y-100028601D01*
X73136916Y-100019649D01*
X73131048Y-100018025D01*
X73084155Y-100003798D01*
X73078380Y-100001890D01*
X73073305Y-100000074D01*
X74246693Y-100000074D01*
X74246693Y-100498201D01*
X74315987Y-100511985D01*
X74321924Y-100513318D01*
X74357652Y-100522267D01*
X74363522Y-100523891D01*
X74410418Y-100538118D01*
X74416197Y-100540027D01*
X74450859Y-100552430D01*
X74456535Y-100554620D01*
X74674783Y-100645021D01*
X74680346Y-100647487D01*
X74713626Y-100663227D01*
X74719061Y-100665963D01*
X74762282Y-100689064D01*
X74767578Y-100692064D01*
X74799170Y-100710999D01*
X74804314Y-100714256D01*
X75000740Y-100845504D01*
X75005714Y-100849007D01*
X75035288Y-100870940D01*
X75040088Y-100874686D01*
X75077970Y-100905775D01*
X75082577Y-100909749D01*
X75109864Y-100934480D01*
X75114273Y-100938678D01*
X75281322Y-101105727D01*
X75285520Y-101110136D01*
X75310251Y-101137423D01*
X75314225Y-101142030D01*
X75345314Y-101179912D01*
X75349060Y-101184712D01*
X75370993Y-101214286D01*
X75374496Y-101219260D01*
X75400961Y-101258868D01*
X75748693Y-101258868D01*
X76746693Y-101258868D01*
X78248693Y-101258868D01*
X79246693Y-101258868D01*
X80748693Y-101258868D01*
X80748693Y-101089899D01*
X80716640Y-101085145D01*
X80710643Y-101084104D01*
X80488592Y-101039935D01*
X80482651Y-101038601D01*
X80446916Y-101029649D01*
X80441048Y-101028025D01*
X80394155Y-101013798D01*
X80388380Y-101011890D01*
X80353728Y-100999491D01*
X80348051Y-100997301D01*
X80193305Y-100933204D01*
X81746693Y-100933204D01*
X81746693Y-101258868D01*
X83248693Y-101258868D01*
X83248693Y-101188685D01*
X84246693Y-101188685D01*
X84246693Y-101258868D01*
X85748693Y-101258868D01*
X85748693Y-100512479D01*
X85745572Y-100516282D01*
X85741598Y-100520889D01*
X85716867Y-100548176D01*
X85712669Y-100552585D01*
X85552585Y-100712669D01*
X85548176Y-100716867D01*
X85520889Y-100741598D01*
X85516282Y-100745572D01*
X85478400Y-100776661D01*
X85473602Y-100780406D01*
X85444030Y-100802338D01*
X85439054Y-100805842D01*
X85250817Y-100931619D01*
X85245673Y-100934876D01*
X85214079Y-100953812D01*
X85208784Y-100956812D01*
X85165562Y-100979914D01*
X85160123Y-100982651D01*
X85126841Y-100998391D01*
X85121280Y-101000856D01*
X84912134Y-101087486D01*
X84906457Y-101089676D01*
X84871805Y-101102075D01*
X84866030Y-101103983D01*
X84819137Y-101118210D01*
X84813269Y-101119834D01*
X84777534Y-101128786D01*
X84771593Y-101130120D01*
X84549542Y-101174289D01*
X84543545Y-101175330D01*
X84507114Y-101180734D01*
X84501073Y-101181479D01*
X84452301Y-101186282D01*
X84446231Y-101186730D01*
X84409459Y-101188536D01*
X84403376Y-101188685D01*
X84246693Y-101188685D01*
X83248693Y-101188685D01*
X83248693Y-100877589D01*
X83141316Y-100805842D01*
X83136340Y-100802338D01*
X83106768Y-100780406D01*
X83101970Y-100776661D01*
X83064088Y-100745572D01*
X83059481Y-100741598D01*
X83032194Y-100716867D01*
X83027785Y-100712669D01*
X82867701Y-100552585D01*
X82863503Y-100548176D01*
X82838772Y-100520889D01*
X82834798Y-100516282D01*
X82803709Y-100478400D01*
X82799964Y-100473602D01*
X82778032Y-100444030D01*
X82774528Y-100439054D01*
X82648751Y-100250817D01*
X82645494Y-100245673D01*
X82626558Y-100214079D01*
X82623558Y-100208784D01*
X82603870Y-100171950D01*
X82485657Y-100348869D01*
X82482153Y-100353845D01*
X82460221Y-100383417D01*
X82456476Y-100388215D01*
X82425387Y-100426097D01*
X82421413Y-100430704D01*
X82396682Y-100457991D01*
X82392484Y-100462400D01*
X82232400Y-100622484D01*
X82227991Y-100626682D01*
X82200704Y-100651413D01*
X82196097Y-100655387D01*
X82158215Y-100686476D01*
X82153417Y-100690221D01*
X82123845Y-100712153D01*
X82118869Y-100715657D01*
X81930632Y-100841434D01*
X81925488Y-100844691D01*
X81893894Y-100863627D01*
X81888599Y-100866627D01*
X81845377Y-100889729D01*
X81839938Y-100892466D01*
X81806656Y-100908206D01*
X81801095Y-100910671D01*
X81746693Y-100933204D01*
X80193305Y-100933204D01*
X80138905Y-100910671D01*
X80133344Y-100908206D01*
X80100062Y-100892466D01*
X80094623Y-100889729D01*
X80051401Y-100866627D01*
X80046106Y-100863627D01*
X80014512Y-100844691D01*
X80009368Y-100841434D01*
X79821131Y-100715657D01*
X79816155Y-100712153D01*
X79786583Y-100690221D01*
X79781785Y-100686476D01*
X79743903Y-100655387D01*
X79739296Y-100651413D01*
X79712009Y-100626682D01*
X79707600Y-100622484D01*
X79547516Y-100462400D01*
X79543318Y-100457991D01*
X79518587Y-100430704D01*
X79514613Y-100426097D01*
X79483524Y-100388215D01*
X79479779Y-100383417D01*
X79457847Y-100353845D01*
X79454343Y-100348869D01*
X79328566Y-100160632D01*
X79325309Y-100155488D01*
X79306373Y-100123894D01*
X79303373Y-100118599D01*
X79280271Y-100075377D01*
X79277534Y-100069938D01*
X79261794Y-100036656D01*
X79259329Y-100031095D01*
X79246693Y-100000588D01*
X79246693Y-101258868D01*
X78248693Y-101258868D01*
X78248693Y-99756868D01*
X76746693Y-99756868D01*
X76746693Y-101258868D01*
X75748693Y-101258868D01*
X75748693Y-99756868D01*
X74732227Y-99756868D01*
X74620632Y-99831434D01*
X74615488Y-99834691D01*
X74583894Y-99853627D01*
X74578599Y-99856627D01*
X74535377Y-99879729D01*
X74529938Y-99882466D01*
X74496656Y-99898206D01*
X74491095Y-99900671D01*
X74281949Y-99987301D01*
X74276272Y-99989491D01*
X74246693Y-100000074D01*
X73073305Y-100000074D01*
X73043728Y-99989491D01*
X73038051Y-99987301D01*
X72828905Y-99900671D01*
X72823344Y-99898206D01*
X72790062Y-99882466D01*
X72784623Y-99879729D01*
X72741401Y-99856627D01*
X72736106Y-99853627D01*
X72704512Y-99834691D01*
X72699368Y-99831434D01*
X72587773Y-99756868D01*
X72518727Y-99756868D01*
X72414273Y-99861322D01*
X72409864Y-99865520D01*
X72382577Y-99890251D01*
X72377970Y-99894225D01*
X72340088Y-99925314D01*
X72335288Y-99929060D01*
X72305714Y-99950993D01*
X72300740Y-99954496D01*
X72104314Y-100085744D01*
X72099170Y-100089001D01*
X72067578Y-100107936D01*
X72062282Y-100110936D01*
X72019061Y-100134037D01*
X72013626Y-100136773D01*
X71980346Y-100152513D01*
X71974783Y-100154979D01*
X71756535Y-100245380D01*
X71750859Y-100247570D01*
X71746693Y-100249060D01*
X70493305Y-100249060D01*
X70489141Y-100247570D01*
X70483465Y-100245380D01*
X70265217Y-100154979D01*
X70259654Y-100152513D01*
X70226374Y-100136773D01*
X70220939Y-100134037D01*
X70177718Y-100110936D01*
X70172422Y-100107936D01*
X70140830Y-100089001D01*
X70135686Y-100085744D01*
X69939260Y-99954496D01*
X69934286Y-99950993D01*
X69904712Y-99929060D01*
X69899912Y-99925314D01*
X69862030Y-99894225D01*
X69857423Y-99890251D01*
X69830136Y-99865520D01*
X69825727Y-99861322D01*
X69721273Y-99756868D01*
X69669287Y-99756868D01*
X67870713Y-99756868D01*
X66746693Y-99756868D01*
X66746693Y-101258868D01*
X65748693Y-101258868D01*
X65748693Y-99756868D01*
X65047208Y-99756868D01*
X64049190Y-99756868D01*
X64043263Y-98758868D01*
X67451904Y-98758868D01*
X68248693Y-98758868D01*
X68248693Y-98306379D01*
X70169500Y-98306379D01*
X70169500Y-98493620D01*
X70206025Y-98677243D01*
X70206027Y-98677251D01*
X70277676Y-98850228D01*
X70277681Y-98850237D01*
X70381697Y-99005907D01*
X70381700Y-99005911D01*
X70514088Y-99138299D01*
X70514092Y-99138302D01*
X70669762Y-99242318D01*
X70669768Y-99242321D01*
X70669769Y-99242322D01*
X70842749Y-99313973D01*
X71026379Y-99350499D01*
X71026383Y-99350500D01*
X71026384Y-99350500D01*
X71213617Y-99350500D01*
X71213618Y-99350499D01*
X71397251Y-99313973D01*
X71570231Y-99242322D01*
X71725908Y-99138302D01*
X71752906Y-99111304D01*
X80069500Y-99111304D01*
X80069500Y-99288695D01*
X80104103Y-99462658D01*
X80104106Y-99462667D01*
X80171983Y-99626540D01*
X80171990Y-99626553D01*
X80270535Y-99774034D01*
X80270538Y-99774038D01*
X80395961Y-99899461D01*
X80395965Y-99899464D01*
X80543446Y-99998009D01*
X80543459Y-99998016D01*
X80625380Y-100031948D01*
X80707334Y-100065894D01*
X80707336Y-100065894D01*
X80707341Y-100065896D01*
X80881304Y-100100499D01*
X80881307Y-100100500D01*
X80881309Y-100100500D01*
X81058693Y-100100500D01*
X81058694Y-100100499D01*
X81132874Y-100085744D01*
X81232658Y-100065896D01*
X81232661Y-100065894D01*
X81232666Y-100065894D01*
X81387187Y-100001890D01*
X81396540Y-99998016D01*
X81396540Y-99998015D01*
X81396547Y-99998013D01*
X81544035Y-99899464D01*
X81669464Y-99774035D01*
X81768013Y-99626547D01*
X81835894Y-99462666D01*
X81837398Y-99455109D01*
X81867298Y-99304786D01*
X81870500Y-99288691D01*
X81870500Y-99201489D01*
X83389685Y-99201489D01*
X83389685Y-99378880D01*
X83424288Y-99552843D01*
X83424291Y-99552852D01*
X83492168Y-99716725D01*
X83492175Y-99716738D01*
X83590720Y-99864219D01*
X83590723Y-99864223D01*
X83716146Y-99989646D01*
X83716150Y-99989649D01*
X83863631Y-100088194D01*
X83863644Y-100088201D01*
X83974304Y-100134037D01*
X84027519Y-100156079D01*
X84027521Y-100156079D01*
X84027526Y-100156081D01*
X84201489Y-100190684D01*
X84201492Y-100190685D01*
X84201494Y-100190685D01*
X84378878Y-100190685D01*
X84378879Y-100190684D01*
X84473063Y-100171950D01*
X84508064Y-100164988D01*
X86746693Y-100164988D01*
X86746693Y-101258868D01*
X87450960Y-101258868D01*
X87385769Y-101161304D01*
X90819500Y-101161304D01*
X90819500Y-101338695D01*
X90854103Y-101512658D01*
X90854106Y-101512667D01*
X90921983Y-101676540D01*
X90921990Y-101676553D01*
X91020535Y-101824034D01*
X91020538Y-101824038D01*
X91145961Y-101949461D01*
X91145965Y-101949464D01*
X91293446Y-102048009D01*
X91293459Y-102048016D01*
X91400652Y-102092416D01*
X91457334Y-102115894D01*
X91457336Y-102115894D01*
X91457341Y-102115896D01*
X91631304Y-102150499D01*
X91631307Y-102150500D01*
X91631309Y-102150500D01*
X91808693Y-102150500D01*
X91808694Y-102150499D01*
X91866682Y-102138964D01*
X91982658Y-102115896D01*
X91982661Y-102115894D01*
X91982666Y-102115894D01*
X92146547Y-102048013D01*
X92294035Y-101949464D01*
X92419464Y-101824035D01*
X92518013Y-101676547D01*
X92525572Y-101658299D01*
X92567248Y-101557681D01*
X92585894Y-101512666D01*
X92591194Y-101486025D01*
X92620499Y-101338695D01*
X92620500Y-101338693D01*
X92620500Y-101161306D01*
X92620499Y-101161304D01*
X92585896Y-100987341D01*
X92585893Y-100987332D01*
X92582820Y-100979914D01*
X92557446Y-100918653D01*
X92518016Y-100823459D01*
X92518009Y-100823446D01*
X92419464Y-100675965D01*
X92419461Y-100675961D01*
X92294038Y-100550538D01*
X92294034Y-100550535D01*
X92146553Y-100451990D01*
X92146540Y-100451983D01*
X91982667Y-100384106D01*
X91982658Y-100384103D01*
X91808694Y-100349500D01*
X91808691Y-100349500D01*
X91631309Y-100349500D01*
X91631306Y-100349500D01*
X91457341Y-100384103D01*
X91457332Y-100384106D01*
X91293459Y-100451983D01*
X91293446Y-100451990D01*
X91145965Y-100550535D01*
X91145961Y-100550538D01*
X91020538Y-100675961D01*
X91020535Y-100675965D01*
X90921990Y-100823446D01*
X90921983Y-100823459D01*
X90854106Y-100987332D01*
X90854103Y-100987341D01*
X90819500Y-101161304D01*
X87385769Y-101161304D01*
X87332296Y-101081276D01*
X87329039Y-101076132D01*
X87310103Y-101044538D01*
X87307103Y-101039243D01*
X87284001Y-100996021D01*
X87281264Y-100990582D01*
X87265524Y-100957300D01*
X87263059Y-100951739D01*
X87176429Y-100742593D01*
X87174239Y-100736916D01*
X87161840Y-100702264D01*
X87159932Y-100696489D01*
X87145705Y-100649596D01*
X87144081Y-100643728D01*
X87135129Y-100607993D01*
X87133795Y-100602052D01*
X87089626Y-100380001D01*
X87088585Y-100374004D01*
X87083181Y-100337573D01*
X87082436Y-100331532D01*
X87077633Y-100282760D01*
X87077185Y-100276690D01*
X87075379Y-100239918D01*
X87075230Y-100233835D01*
X87075230Y-100007453D01*
X87075379Y-100001370D01*
X87077185Y-99964598D01*
X87077633Y-99958528D01*
X87082436Y-99909756D01*
X87082591Y-99908500D01*
X87036809Y-99908500D01*
X87030726Y-99908351D01*
X87009993Y-99907332D01*
X86975628Y-99954633D01*
X86962990Y-99969429D01*
X86829429Y-100102990D01*
X86814633Y-100115628D01*
X86746693Y-100164988D01*
X84508064Y-100164988D01*
X84552843Y-100156081D01*
X84552846Y-100156079D01*
X84552851Y-100156079D01*
X84692720Y-100098143D01*
X84716725Y-100088201D01*
X84716725Y-100088200D01*
X84716732Y-100088198D01*
X84864220Y-99989649D01*
X84989649Y-99864220D01*
X85088198Y-99716732D01*
X85156079Y-99552851D01*
X85157322Y-99546605D01*
X85190684Y-99378880D01*
X85190685Y-99378878D01*
X85190685Y-99201491D01*
X85190684Y-99201489D01*
X85156081Y-99027526D01*
X85156078Y-99027517D01*
X85147127Y-99005908D01*
X85121241Y-98943412D01*
X85088201Y-98863644D01*
X85088194Y-98863631D01*
X84989649Y-98716150D01*
X84989646Y-98716146D01*
X84864223Y-98590723D01*
X84864219Y-98590720D01*
X84716738Y-98492175D01*
X84716725Y-98492168D01*
X84552852Y-98424291D01*
X84552843Y-98424288D01*
X84378879Y-98389685D01*
X84378876Y-98389685D01*
X84201494Y-98389685D01*
X84201491Y-98389685D01*
X84027526Y-98424288D01*
X84027517Y-98424291D01*
X83863644Y-98492168D01*
X83863631Y-98492175D01*
X83716150Y-98590720D01*
X83716146Y-98590723D01*
X83590723Y-98716146D01*
X83590720Y-98716150D01*
X83492175Y-98863631D01*
X83492168Y-98863644D01*
X83424291Y-99027517D01*
X83424288Y-99027526D01*
X83389685Y-99201489D01*
X81870500Y-99201489D01*
X81870500Y-99111309D01*
X81870500Y-99111306D01*
X81870499Y-99111304D01*
X81835896Y-98937341D01*
X81835893Y-98937332D01*
X81768016Y-98773459D01*
X81768009Y-98773446D01*
X81669464Y-98625965D01*
X81669461Y-98625961D01*
X81544038Y-98500538D01*
X81544034Y-98500535D01*
X81396553Y-98401990D01*
X81396540Y-98401983D01*
X81232667Y-98334106D01*
X81232658Y-98334103D01*
X81058694Y-98299500D01*
X81058691Y-98299500D01*
X80881309Y-98299500D01*
X80881306Y-98299500D01*
X80707341Y-98334103D01*
X80707332Y-98334106D01*
X80543459Y-98401983D01*
X80543446Y-98401990D01*
X80395965Y-98500535D01*
X80395961Y-98500538D01*
X80270538Y-98625961D01*
X80270535Y-98625965D01*
X80171990Y-98773446D01*
X80171983Y-98773459D01*
X80104106Y-98937332D01*
X80104103Y-98937341D01*
X80069500Y-99111304D01*
X71752906Y-99111304D01*
X71858302Y-99005908D01*
X71962322Y-98850231D01*
X72033973Y-98677251D01*
X72070500Y-98493616D01*
X72070500Y-98306384D01*
X72033973Y-98122749D01*
X72025090Y-98101304D01*
X72759500Y-98101304D01*
X72759500Y-98278695D01*
X72794103Y-98452658D01*
X72794106Y-98452667D01*
X72861983Y-98616540D01*
X72861990Y-98616553D01*
X72960535Y-98764034D01*
X72960538Y-98764038D01*
X73085961Y-98889461D01*
X73085965Y-98889464D01*
X73233446Y-98988009D01*
X73233459Y-98988016D01*
X73328825Y-99027517D01*
X73397334Y-99055894D01*
X73397336Y-99055894D01*
X73397341Y-99055896D01*
X73571304Y-99090499D01*
X73571307Y-99090500D01*
X73571309Y-99090500D01*
X73748693Y-99090500D01*
X73748694Y-99090499D01*
X73838122Y-99072711D01*
X73922658Y-99055896D01*
X73922661Y-99055894D01*
X73922666Y-99055894D01*
X74086547Y-98988013D01*
X74234035Y-98889464D01*
X74359464Y-98764035D01*
X74458013Y-98616547D01*
X74525894Y-98452666D01*
X74529101Y-98436547D01*
X74560499Y-98278695D01*
X74560500Y-98278693D01*
X74560500Y-98101306D01*
X74560499Y-98101304D01*
X74525896Y-97927341D01*
X74525893Y-97927332D01*
X74521678Y-97917157D01*
X74503520Y-97873317D01*
X74481677Y-97820582D01*
X76746693Y-97820582D01*
X76746693Y-98758868D01*
X78248693Y-98758868D01*
X78248693Y-98399411D01*
X79246693Y-98399411D01*
X79259329Y-98368905D01*
X79261794Y-98363344D01*
X79277534Y-98330062D01*
X79280271Y-98324623D01*
X79303373Y-98281401D01*
X79306373Y-98276106D01*
X79325309Y-98244512D01*
X79328566Y-98239368D01*
X79454343Y-98051131D01*
X79457847Y-98046155D01*
X79479779Y-98016583D01*
X79483524Y-98011785D01*
X79514613Y-97973903D01*
X79518587Y-97969296D01*
X79543318Y-97942009D01*
X79547516Y-97937600D01*
X79707600Y-97777516D01*
X79712009Y-97773318D01*
X79739296Y-97748587D01*
X79743903Y-97744613D01*
X79781785Y-97713524D01*
X79786583Y-97709779D01*
X79816155Y-97687847D01*
X79821131Y-97684343D01*
X80009368Y-97558566D01*
X80014512Y-97555309D01*
X80046106Y-97536373D01*
X80051401Y-97533373D01*
X80094623Y-97510271D01*
X80100062Y-97507534D01*
X80133344Y-97491794D01*
X80138905Y-97489329D01*
X80193310Y-97466794D01*
X81746693Y-97466794D01*
X81801096Y-97489329D01*
X81806656Y-97491794D01*
X81839938Y-97507534D01*
X81845377Y-97510271D01*
X81888599Y-97533373D01*
X81893894Y-97536373D01*
X81925488Y-97555309D01*
X81930632Y-97558566D01*
X82118869Y-97684343D01*
X82123845Y-97687847D01*
X82153417Y-97709779D01*
X82158215Y-97713524D01*
X82196097Y-97744613D01*
X82200704Y-97748587D01*
X82227991Y-97773318D01*
X82232400Y-97777516D01*
X82392484Y-97937600D01*
X82396682Y-97942009D01*
X82421413Y-97969296D01*
X82425387Y-97973903D01*
X82456476Y-98011785D01*
X82460221Y-98016583D01*
X82482153Y-98046155D01*
X82485657Y-98051131D01*
X82611434Y-98239368D01*
X82614691Y-98244512D01*
X82633627Y-98276106D01*
X82636627Y-98281401D01*
X82656314Y-98318234D01*
X82774528Y-98141316D01*
X82778032Y-98136340D01*
X82799964Y-98106768D01*
X82803709Y-98101970D01*
X82834798Y-98064088D01*
X82838772Y-98059481D01*
X82863503Y-98032194D01*
X82867701Y-98027785D01*
X82974182Y-97921304D01*
X86249500Y-97921304D01*
X86249500Y-98098695D01*
X86284103Y-98272658D01*
X86284106Y-98272667D01*
X86351983Y-98436540D01*
X86351990Y-98436553D01*
X86450535Y-98584034D01*
X86450538Y-98584038D01*
X86575961Y-98709461D01*
X86575965Y-98709464D01*
X86723446Y-98808009D01*
X86723459Y-98808016D01*
X86825370Y-98850228D01*
X86887334Y-98875894D01*
X86887336Y-98875894D01*
X86887341Y-98875896D01*
X87061304Y-98910499D01*
X87061307Y-98910500D01*
X87061309Y-98910500D01*
X87238693Y-98910500D01*
X87238694Y-98910499D01*
X87337101Y-98890925D01*
X87412658Y-98875896D01*
X87412661Y-98875894D01*
X87412666Y-98875894D01*
X87576547Y-98808013D01*
X87724035Y-98709464D01*
X87849464Y-98584035D01*
X87948013Y-98436547D01*
X88015894Y-98272666D01*
X88018649Y-98258820D01*
X88045713Y-98122756D01*
X88050500Y-98098691D01*
X88050500Y-97921309D01*
X88050500Y-97921306D01*
X88024911Y-97792666D01*
X88017102Y-97753407D01*
X88023329Y-97683817D01*
X88066192Y-97628640D01*
X88132081Y-97605395D01*
X88200078Y-97621462D01*
X88226400Y-97641536D01*
X88314112Y-97729248D01*
X88314116Y-97729251D01*
X88461597Y-97827796D01*
X88461609Y-97827803D01*
X88571493Y-97873317D01*
X88625897Y-97917157D01*
X88647962Y-97983451D01*
X88645658Y-98012069D01*
X88617902Y-98151607D01*
X88617902Y-98338848D01*
X88654427Y-98522471D01*
X88654429Y-98522479D01*
X88726078Y-98695456D01*
X88726083Y-98695465D01*
X88830099Y-98851135D01*
X88830102Y-98851139D01*
X88962490Y-98983527D01*
X88962494Y-98983530D01*
X88976729Y-98993042D01*
X89021534Y-99046655D01*
X89030241Y-99115980D01*
X89000086Y-99179007D01*
X88940643Y-99215726D01*
X88907838Y-99220144D01*
X88885036Y-99220144D01*
X88711071Y-99254747D01*
X88711062Y-99254750D01*
X88547189Y-99322627D01*
X88547176Y-99322634D01*
X88399695Y-99421179D01*
X88399691Y-99421182D01*
X88274268Y-99546605D01*
X88274265Y-99546609D01*
X88175720Y-99694090D01*
X88175713Y-99694103D01*
X88107836Y-99857976D01*
X88107833Y-99857985D01*
X88073230Y-100031948D01*
X88073230Y-100209339D01*
X88107833Y-100383302D01*
X88107836Y-100383311D01*
X88175713Y-100547184D01*
X88175720Y-100547197D01*
X88274265Y-100694678D01*
X88274268Y-100694682D01*
X88399691Y-100820105D01*
X88399695Y-100820108D01*
X88547176Y-100918653D01*
X88547189Y-100918660D01*
X88639298Y-100956812D01*
X88711064Y-100986538D01*
X88711066Y-100986538D01*
X88711071Y-100986540D01*
X88885034Y-101021143D01*
X88885037Y-101021144D01*
X88885039Y-101021144D01*
X89062423Y-101021144D01*
X89062424Y-101021143D01*
X89120412Y-101009608D01*
X89236388Y-100986540D01*
X89236391Y-100986538D01*
X89236396Y-100986538D01*
X89400277Y-100918657D01*
X89547765Y-100820108D01*
X89673194Y-100694679D01*
X89771743Y-100547191D01*
X89839624Y-100383310D01*
X89840283Y-100380001D01*
X89866533Y-100248032D01*
X89874230Y-100209335D01*
X89874230Y-100031953D01*
X89874230Y-100031950D01*
X89874229Y-100031948D01*
X89839626Y-99857985D01*
X89839623Y-99857976D01*
X89771746Y-99694103D01*
X89771739Y-99694090D01*
X89673194Y-99546609D01*
X89673191Y-99546605D01*
X89547768Y-99421182D01*
X89543057Y-99417316D01*
X89544329Y-99415765D01*
X89505429Y-99369216D01*
X89496723Y-99299891D01*
X89526879Y-99236864D01*
X89586323Y-99200146D01*
X89619126Y-99195728D01*
X89662019Y-99195728D01*
X89662020Y-99195727D01*
X89845653Y-99159201D01*
X90018633Y-99087550D01*
X90174310Y-98983530D01*
X90306704Y-98851136D01*
X90368355Y-98758868D01*
X91746693Y-98758868D01*
X93248693Y-98758868D01*
X94246693Y-98758868D01*
X95748693Y-98758868D01*
X95748693Y-97441304D01*
X96889500Y-97441304D01*
X96889500Y-97618695D01*
X96924103Y-97792658D01*
X96924106Y-97792667D01*
X96991983Y-97956540D01*
X96991990Y-97956553D01*
X97090535Y-98104034D01*
X97090538Y-98104038D01*
X97215961Y-98229461D01*
X97215965Y-98229464D01*
X97363446Y-98328009D01*
X97363459Y-98328016D01*
X97462176Y-98368905D01*
X97527334Y-98395894D01*
X97527336Y-98395894D01*
X97527341Y-98395896D01*
X97701304Y-98430499D01*
X97701307Y-98430500D01*
X97701309Y-98430500D01*
X97878693Y-98430500D01*
X97878694Y-98430499D01*
X97936682Y-98418964D01*
X98052658Y-98395896D01*
X98052661Y-98395894D01*
X98052666Y-98395894D01*
X98216547Y-98328013D01*
X98224328Y-98322814D01*
X101746693Y-98322814D01*
X101746693Y-98758868D01*
X103248693Y-98758868D01*
X104246693Y-98758868D01*
X104736106Y-98758868D01*
X104721723Y-98668058D01*
X104721056Y-98663236D01*
X104717596Y-98634003D01*
X104717119Y-98629165D01*
X104714041Y-98590086D01*
X104713754Y-98585221D01*
X104712596Y-98555769D01*
X104712500Y-98550897D01*
X104712500Y-98299103D01*
X104712596Y-98294231D01*
X104713754Y-98264779D01*
X104714041Y-98259914D01*
X104717119Y-98220835D01*
X104717596Y-98215997D01*
X104721056Y-98186764D01*
X104721723Y-98181941D01*
X104761108Y-97933272D01*
X104761964Y-97928477D01*
X104767713Y-97899577D01*
X104768758Y-97894817D01*
X104777911Y-97856700D01*
X104779138Y-97851995D01*
X104787131Y-97823653D01*
X104788545Y-97818993D01*
X104866342Y-97579560D01*
X104867936Y-97574963D01*
X104878121Y-97547353D01*
X104879893Y-97542825D01*
X104894891Y-97506608D01*
X104896846Y-97502139D01*
X104909189Y-97475364D01*
X104911314Y-97470981D01*
X105020410Y-97256868D01*
X104246693Y-97256868D01*
X104246693Y-98758868D01*
X103248693Y-98758868D01*
X103248693Y-97256868D01*
X102008500Y-97256868D01*
X102008500Y-97458118D01*
X102008351Y-97464200D01*
X102006545Y-97500975D01*
X102006097Y-97507046D01*
X102001294Y-97555815D01*
X102000549Y-97561858D01*
X101995145Y-97598286D01*
X101994104Y-97604281D01*
X101948015Y-97835987D01*
X101946682Y-97841924D01*
X101937733Y-97877652D01*
X101936109Y-97883522D01*
X101921882Y-97930418D01*
X101919973Y-97936197D01*
X101907570Y-97970859D01*
X101905380Y-97976535D01*
X101814979Y-98194783D01*
X101812513Y-98200346D01*
X101796773Y-98233626D01*
X101794037Y-98239061D01*
X101770936Y-98282282D01*
X101767936Y-98287578D01*
X101749001Y-98319170D01*
X101746693Y-98322814D01*
X98224328Y-98322814D01*
X98364035Y-98229464D01*
X98489464Y-98104035D01*
X98588013Y-97956547D01*
X98589042Y-97954064D01*
X98613582Y-97894817D01*
X98655894Y-97792666D01*
X98656378Y-97790237D01*
X98681945Y-97661698D01*
X98690500Y-97618691D01*
X98690500Y-97441309D01*
X98690500Y-97441306D01*
X98690499Y-97441304D01*
X98655896Y-97267341D01*
X98655893Y-97267332D01*
X98655128Y-97265486D01*
X98647214Y-97246379D01*
X99109500Y-97246379D01*
X99109500Y-97433620D01*
X99146025Y-97617243D01*
X99146027Y-97617251D01*
X99217676Y-97790228D01*
X99217681Y-97790237D01*
X99321697Y-97945907D01*
X99321700Y-97945911D01*
X99454088Y-98078299D01*
X99454092Y-98078302D01*
X99609762Y-98182318D01*
X99609771Y-98182323D01*
X99620493Y-98186764D01*
X99782749Y-98253973D01*
X99907016Y-98278691D01*
X99966379Y-98290499D01*
X99966383Y-98290500D01*
X99966384Y-98290500D01*
X100153617Y-98290500D01*
X100153618Y-98290499D01*
X100337251Y-98253973D01*
X100510231Y-98182322D01*
X100665908Y-98078302D01*
X100798302Y-97945908D01*
X100902322Y-97790231D01*
X100973973Y-97617251D01*
X101010500Y-97433616D01*
X101010500Y-97246384D01*
X100973973Y-97062749D01*
X100902322Y-96889769D01*
X100902321Y-96889768D01*
X100902318Y-96889762D01*
X100798302Y-96734092D01*
X100798299Y-96734088D01*
X100665911Y-96601700D01*
X100665907Y-96601697D01*
X100510237Y-96497681D01*
X100510228Y-96497676D01*
X100337251Y-96426027D01*
X100337243Y-96426025D01*
X100153620Y-96389500D01*
X100153616Y-96389500D01*
X99966384Y-96389500D01*
X99966379Y-96389500D01*
X99782756Y-96426025D01*
X99782748Y-96426027D01*
X99609771Y-96497676D01*
X99609762Y-96497681D01*
X99454092Y-96601697D01*
X99454088Y-96601700D01*
X99321700Y-96734088D01*
X99321697Y-96734092D01*
X99217681Y-96889762D01*
X99217676Y-96889771D01*
X99146027Y-97062748D01*
X99146025Y-97062756D01*
X99109500Y-97246379D01*
X98647214Y-97246379D01*
X98628934Y-97202246D01*
X98588016Y-97103459D01*
X98588009Y-97103446D01*
X98489464Y-96955965D01*
X98489461Y-96955961D01*
X98364038Y-96830538D01*
X98364034Y-96830535D01*
X98216553Y-96731990D01*
X98216540Y-96731983D01*
X98052667Y-96664106D01*
X98052658Y-96664103D01*
X97878694Y-96629500D01*
X97878691Y-96629500D01*
X97701309Y-96629500D01*
X97701306Y-96629500D01*
X97527341Y-96664103D01*
X97527332Y-96664106D01*
X97363459Y-96731983D01*
X97363446Y-96731990D01*
X97215965Y-96830535D01*
X97215961Y-96830538D01*
X97090538Y-96955961D01*
X97090535Y-96955965D01*
X96991990Y-97103446D01*
X96991983Y-97103459D01*
X96924106Y-97267332D01*
X96924103Y-97267341D01*
X96889500Y-97441304D01*
X95748693Y-97441304D01*
X95748693Y-97256868D01*
X94246693Y-97256868D01*
X94246693Y-98758868D01*
X93248693Y-98758868D01*
X93248693Y-97256868D01*
X91746693Y-97256868D01*
X91746693Y-98758868D01*
X90368355Y-98758868D01*
X90410724Y-98695459D01*
X90482375Y-98522479D01*
X90518902Y-98338844D01*
X90518902Y-98151612D01*
X90482375Y-97967977D01*
X90414333Y-97803709D01*
X90410725Y-97794999D01*
X90410720Y-97794990D01*
X90306704Y-97639320D01*
X90306701Y-97639316D01*
X90174313Y-97506928D01*
X90174309Y-97506925D01*
X90018639Y-97402909D01*
X90018630Y-97402904D01*
X89847905Y-97332188D01*
X89793502Y-97288347D01*
X89771437Y-97222053D01*
X89773741Y-97193435D01*
X89788651Y-97118480D01*
X89788651Y-96941093D01*
X89788650Y-96941091D01*
X89754047Y-96767128D01*
X89754044Y-96767119D01*
X89739490Y-96731983D01*
X89727942Y-96704101D01*
X89686167Y-96603246D01*
X89686160Y-96603233D01*
X89587615Y-96455752D01*
X89587612Y-96455748D01*
X89462189Y-96330325D01*
X89462185Y-96330322D01*
X89355248Y-96258868D01*
X91746693Y-96258868D01*
X93248693Y-96258868D01*
X94246693Y-96258868D01*
X95169566Y-96258868D01*
X95166501Y-96256476D01*
X95128619Y-96225387D01*
X95124012Y-96221413D01*
X95096725Y-96196682D01*
X95092316Y-96192484D01*
X94932232Y-96032400D01*
X94928034Y-96027991D01*
X94903303Y-96000704D01*
X94899329Y-95996097D01*
X94868240Y-95958215D01*
X94864495Y-95953417D01*
X94842563Y-95923845D01*
X94839059Y-95918869D01*
X94713282Y-95730632D01*
X94710025Y-95725488D01*
X94691089Y-95693894D01*
X94688089Y-95688599D01*
X94664987Y-95645377D01*
X94662250Y-95639938D01*
X94646510Y-95606656D01*
X94644045Y-95601095D01*
X94557415Y-95391949D01*
X94555225Y-95386272D01*
X94542826Y-95351620D01*
X94540918Y-95345845D01*
X94526691Y-95298952D01*
X94525067Y-95293084D01*
X94516115Y-95257349D01*
X94514781Y-95251408D01*
X94470612Y-95029357D01*
X94469571Y-95023360D01*
X94464167Y-94986929D01*
X94463422Y-94980888D01*
X94458619Y-94932116D01*
X94458171Y-94926046D01*
X94456365Y-94889274D01*
X94456216Y-94883191D01*
X94456216Y-94756868D01*
X94246693Y-94756868D01*
X94246693Y-96258868D01*
X93248693Y-96258868D01*
X93248693Y-94756868D01*
X91746693Y-94756868D01*
X91746693Y-96258868D01*
X89355248Y-96258868D01*
X89314704Y-96231777D01*
X89314691Y-96231770D01*
X89150818Y-96163893D01*
X89150809Y-96163890D01*
X88976845Y-96129287D01*
X88976842Y-96129287D01*
X88799460Y-96129287D01*
X88799457Y-96129287D01*
X88625492Y-96163890D01*
X88625483Y-96163893D01*
X88461610Y-96231770D01*
X88461597Y-96231777D01*
X88314116Y-96330322D01*
X88314112Y-96330325D01*
X88188689Y-96455748D01*
X88188686Y-96455752D01*
X88090141Y-96603233D01*
X88090134Y-96603246D01*
X88022257Y-96767119D01*
X88022254Y-96767128D01*
X87987651Y-96941091D01*
X87987651Y-97118482D01*
X88021048Y-97286378D01*
X88014821Y-97355969D01*
X87971958Y-97411147D01*
X87906068Y-97434391D01*
X87838071Y-97418323D01*
X87811750Y-97398250D01*
X87724038Y-97310538D01*
X87724034Y-97310535D01*
X87576553Y-97211990D01*
X87576540Y-97211983D01*
X87412667Y-97144106D01*
X87412658Y-97144103D01*
X87238694Y-97109500D01*
X87238691Y-97109500D01*
X87061309Y-97109500D01*
X87061306Y-97109500D01*
X86887341Y-97144103D01*
X86887332Y-97144106D01*
X86723459Y-97211983D01*
X86723446Y-97211990D01*
X86575965Y-97310535D01*
X86575961Y-97310538D01*
X86450538Y-97435961D01*
X86450535Y-97435965D01*
X86351990Y-97583446D01*
X86351983Y-97583459D01*
X86284106Y-97747332D01*
X86284103Y-97747341D01*
X86249500Y-97921304D01*
X82974182Y-97921304D01*
X83027785Y-97867701D01*
X83032194Y-97863503D01*
X83059481Y-97838772D01*
X83064088Y-97834798D01*
X83101970Y-97803709D01*
X83106768Y-97799964D01*
X83136340Y-97778032D01*
X83141316Y-97774528D01*
X83248693Y-97702780D01*
X83248693Y-97256868D01*
X81746693Y-97256868D01*
X81746693Y-97466794D01*
X80193310Y-97466794D01*
X80348051Y-97402699D01*
X80353728Y-97400509D01*
X80388380Y-97388110D01*
X80394155Y-97386202D01*
X80441048Y-97371975D01*
X80446916Y-97370351D01*
X80482651Y-97361399D01*
X80488592Y-97360065D01*
X80710643Y-97315896D01*
X80716640Y-97314855D01*
X80748693Y-97310100D01*
X80748693Y-97256868D01*
X79246693Y-97256868D01*
X79246693Y-98399411D01*
X78248693Y-98399411D01*
X78248693Y-97256868D01*
X76977739Y-97256868D01*
X76962925Y-97350399D01*
X76958383Y-97369319D01*
X76900015Y-97548958D01*
X76892569Y-97566935D01*
X76806817Y-97735232D01*
X76796650Y-97751822D01*
X76746693Y-97820582D01*
X74481677Y-97820582D01*
X74458016Y-97763459D01*
X74458009Y-97763446D01*
X74359464Y-97615965D01*
X74359461Y-97615961D01*
X74234038Y-97490538D01*
X74234034Y-97490535D01*
X74086553Y-97391990D01*
X74086540Y-97391983D01*
X73922667Y-97324106D01*
X73922658Y-97324103D01*
X73748694Y-97289500D01*
X73748691Y-97289500D01*
X73571309Y-97289500D01*
X73571306Y-97289500D01*
X73397341Y-97324103D01*
X73397332Y-97324106D01*
X73233459Y-97391983D01*
X73233446Y-97391990D01*
X73085965Y-97490535D01*
X73085961Y-97490538D01*
X72960538Y-97615961D01*
X72960535Y-97615965D01*
X72861990Y-97763446D01*
X72861983Y-97763459D01*
X72794106Y-97927332D01*
X72794103Y-97927341D01*
X72759500Y-98101304D01*
X72025090Y-98101304D01*
X71962322Y-97949769D01*
X71962321Y-97949768D01*
X71962318Y-97949762D01*
X71858302Y-97794092D01*
X71858298Y-97794087D01*
X71725911Y-97661700D01*
X71725907Y-97661697D01*
X71570237Y-97557681D01*
X71570228Y-97557676D01*
X71397251Y-97486027D01*
X71397243Y-97486025D01*
X71213620Y-97449500D01*
X71213616Y-97449500D01*
X71026384Y-97449500D01*
X71026379Y-97449500D01*
X70842756Y-97486025D01*
X70842748Y-97486027D01*
X70669771Y-97557676D01*
X70669762Y-97557681D01*
X70514092Y-97661697D01*
X70514088Y-97661700D01*
X70381702Y-97794087D01*
X70381697Y-97794092D01*
X70277681Y-97949762D01*
X70277676Y-97949771D01*
X70206027Y-98122748D01*
X70206025Y-98122756D01*
X70169500Y-98306379D01*
X68248693Y-98306379D01*
X68248693Y-97256868D01*
X68131596Y-97256868D01*
X68133628Y-97291330D01*
X68085406Y-97595792D01*
X68084551Y-97600580D01*
X68078811Y-97629443D01*
X68077769Y-97634195D01*
X68068621Y-97672312D01*
X68067391Y-97677028D01*
X68059389Y-97705405D01*
X68057974Y-97710069D01*
X67980191Y-97949463D01*
X67978595Y-97954064D01*
X67968396Y-97981709D01*
X67966621Y-97986245D01*
X67951619Y-98022461D01*
X67949669Y-98026919D01*
X67937340Y-98053663D01*
X67935215Y-98058045D01*
X67820950Y-98282300D01*
X67818654Y-98286594D01*
X67804264Y-98312289D01*
X67801803Y-98316488D01*
X67781322Y-98349911D01*
X67778696Y-98354014D01*
X67762329Y-98378509D01*
X67759545Y-98382503D01*
X67611592Y-98586144D01*
X67608650Y-98590031D01*
X67590392Y-98613189D01*
X67587301Y-98616955D01*
X67561840Y-98646762D01*
X67558606Y-98650401D01*
X67538632Y-98672006D01*
X67535262Y-98675510D01*
X67451904Y-98758868D01*
X64043263Y-98758868D01*
X64013017Y-93666335D01*
X64435500Y-93666335D01*
X64435500Y-95462070D01*
X64435501Y-95462076D01*
X64441908Y-95521683D01*
X64492202Y-95656528D01*
X64492206Y-95656535D01*
X64578452Y-95771744D01*
X64578455Y-95771747D01*
X64693664Y-95857993D01*
X64693671Y-95857997D01*
X64755902Y-95881207D01*
X64825598Y-95907202D01*
X64881531Y-95949073D01*
X64905949Y-96014537D01*
X64891098Y-96082810D01*
X64869947Y-96111065D01*
X64756271Y-96224741D01*
X64631379Y-96396642D01*
X64534904Y-96585982D01*
X64469242Y-96788070D01*
X64469242Y-96788073D01*
X64458769Y-96854200D01*
X65352988Y-96854200D01*
X65320075Y-96911207D01*
X65286000Y-97038374D01*
X65286000Y-97170026D01*
X65320075Y-97297193D01*
X65352988Y-97354200D01*
X64458769Y-97354200D01*
X64469242Y-97420326D01*
X64469242Y-97420329D01*
X64534904Y-97622417D01*
X64631379Y-97811757D01*
X64756272Y-97983659D01*
X64756276Y-97983664D01*
X64906535Y-98133923D01*
X64906540Y-98133927D01*
X65078442Y-98258820D01*
X65267782Y-98355295D01*
X65469871Y-98420957D01*
X65536000Y-98431431D01*
X65536000Y-97537212D01*
X65593007Y-97570125D01*
X65720174Y-97604200D01*
X65851826Y-97604200D01*
X65978993Y-97570125D01*
X66036000Y-97537212D01*
X66036000Y-98431430D01*
X66102126Y-98420957D01*
X66102129Y-98420957D01*
X66304217Y-98355295D01*
X66493557Y-98258820D01*
X66665459Y-98133927D01*
X66665464Y-98133923D01*
X66815723Y-97983664D01*
X66815727Y-97983659D01*
X66940620Y-97811757D01*
X67037095Y-97622417D01*
X67102757Y-97420329D01*
X67102757Y-97420326D01*
X67113231Y-97354200D01*
X66219012Y-97354200D01*
X66251925Y-97297193D01*
X66286000Y-97170026D01*
X66286000Y-97038374D01*
X66251925Y-96911207D01*
X66219012Y-96854200D01*
X67113231Y-96854200D01*
X67102757Y-96788073D01*
X67102757Y-96788070D01*
X67046972Y-96616379D01*
X84289500Y-96616379D01*
X84289500Y-96803620D01*
X84326025Y-96987243D01*
X84326027Y-96987251D01*
X84397676Y-97160228D01*
X84397681Y-97160237D01*
X84501697Y-97315907D01*
X84501700Y-97315911D01*
X84634088Y-97448299D01*
X84634092Y-97448302D01*
X84789762Y-97552318D01*
X84789771Y-97552323D01*
X84804843Y-97558566D01*
X84962749Y-97623973D01*
X85146379Y-97660499D01*
X85146383Y-97660500D01*
X85146384Y-97660500D01*
X85333617Y-97660500D01*
X85333618Y-97660499D01*
X85517251Y-97623973D01*
X85690231Y-97552322D01*
X85845908Y-97448302D01*
X85978302Y-97315908D01*
X86082322Y-97160231D01*
X86153973Y-96987251D01*
X86190500Y-96803616D01*
X86190500Y-96616384D01*
X86153973Y-96432749D01*
X86082322Y-96259769D01*
X86082321Y-96259768D01*
X86082318Y-96259762D01*
X85978302Y-96104092D01*
X85978299Y-96104088D01*
X85845911Y-95971700D01*
X85845907Y-95971697D01*
X85690237Y-95867681D01*
X85690228Y-95867676D01*
X85517251Y-95796027D01*
X85517243Y-95796025D01*
X85333620Y-95759500D01*
X85333616Y-95759500D01*
X85146384Y-95759500D01*
X85146379Y-95759500D01*
X84962756Y-95796025D01*
X84962748Y-95796027D01*
X84789771Y-95867676D01*
X84789762Y-95867681D01*
X84634092Y-95971697D01*
X84634088Y-95971700D01*
X84501700Y-96104088D01*
X84501697Y-96104092D01*
X84397681Y-96259762D01*
X84397676Y-96259771D01*
X84326027Y-96432748D01*
X84326025Y-96432756D01*
X84289500Y-96616379D01*
X67046972Y-96616379D01*
X67037095Y-96585982D01*
X66940620Y-96396642D01*
X66840522Y-96258868D01*
X69246693Y-96258868D01*
X70748693Y-96258868D01*
X71746693Y-96258868D01*
X73248693Y-96258868D01*
X74246693Y-96258868D01*
X74608237Y-96258868D01*
X79246693Y-96258868D01*
X80748693Y-96258868D01*
X81746693Y-96258868D01*
X83248693Y-96258868D01*
X83248693Y-94791304D01*
X85499500Y-94791304D01*
X85499500Y-94968695D01*
X85534103Y-95142658D01*
X85534106Y-95142667D01*
X85601983Y-95306540D01*
X85601990Y-95306553D01*
X85700535Y-95454034D01*
X85700538Y-95454038D01*
X85825961Y-95579461D01*
X85825965Y-95579464D01*
X85973446Y-95678009D01*
X85973459Y-95678016D01*
X86051882Y-95710499D01*
X86137334Y-95745894D01*
X86137336Y-95745894D01*
X86137341Y-95745896D01*
X86311304Y-95780499D01*
X86311307Y-95780500D01*
X86311309Y-95780500D01*
X86488693Y-95780500D01*
X86488694Y-95780499D01*
X86546682Y-95768964D01*
X86662658Y-95745896D01*
X86662661Y-95745894D01*
X86662666Y-95745894D01*
X86826547Y-95678013D01*
X86974035Y-95579464D01*
X87099464Y-95454035D01*
X87198013Y-95306547D01*
X87203590Y-95293084D01*
X87218988Y-95255908D01*
X87265894Y-95142666D01*
X87274336Y-95100228D01*
X87300499Y-94968695D01*
X87300500Y-94968693D01*
X87300500Y-94791306D01*
X87300499Y-94791304D01*
X87286575Y-94721304D01*
X88279500Y-94721304D01*
X88279500Y-94898695D01*
X88314103Y-95072658D01*
X88314106Y-95072667D01*
X88381983Y-95236540D01*
X88381990Y-95236553D01*
X88480535Y-95384034D01*
X88480538Y-95384038D01*
X88605961Y-95509461D01*
X88605965Y-95509464D01*
X88753446Y-95608009D01*
X88753459Y-95608016D01*
X88847007Y-95646764D01*
X88917334Y-95675894D01*
X88917336Y-95675894D01*
X88917341Y-95675896D01*
X89091304Y-95710499D01*
X89091307Y-95710500D01*
X89091309Y-95710500D01*
X89268693Y-95710500D01*
X89268694Y-95710499D01*
X89326682Y-95698964D01*
X89442658Y-95675896D01*
X89442661Y-95675894D01*
X89442666Y-95675894D01*
X89606547Y-95608013D01*
X89754035Y-95509464D01*
X89879464Y-95384035D01*
X89978013Y-95236547D01*
X89980312Y-95230998D01*
X90002602Y-95177184D01*
X90045894Y-95072666D01*
X90051779Y-95043084D01*
X90080499Y-94898695D01*
X90080500Y-94898693D01*
X90080500Y-94721306D01*
X90080499Y-94721304D01*
X90072543Y-94681304D01*
X95454216Y-94681304D01*
X95454216Y-94858695D01*
X95488819Y-95032658D01*
X95488822Y-95032667D01*
X95556699Y-95196540D01*
X95556706Y-95196553D01*
X95655251Y-95344034D01*
X95655254Y-95344038D01*
X95780677Y-95469461D01*
X95780681Y-95469464D01*
X95928162Y-95568009D01*
X95928175Y-95568016D01*
X96024746Y-95608016D01*
X96092050Y-95635894D01*
X96092052Y-95635894D01*
X96092057Y-95635896D01*
X96266020Y-95670499D01*
X96266023Y-95670500D01*
X96266025Y-95670500D01*
X96443409Y-95670500D01*
X96443410Y-95670499D01*
X96459401Y-95667318D01*
X104246693Y-95667318D01*
X104246693Y-96258868D01*
X104742441Y-96258868D01*
X104721723Y-96128059D01*
X104721056Y-96123236D01*
X104717596Y-96094003D01*
X104717119Y-96089165D01*
X104714041Y-96050086D01*
X104713754Y-96045221D01*
X104712596Y-96015769D01*
X104712500Y-96010897D01*
X104712500Y-95759103D01*
X104712596Y-95754231D01*
X104713754Y-95724779D01*
X104714041Y-95719914D01*
X104717119Y-95680835D01*
X104717596Y-95675997D01*
X104721056Y-95646764D01*
X104721723Y-95641941D01*
X104761108Y-95393272D01*
X104761964Y-95388477D01*
X104767713Y-95359577D01*
X104768758Y-95354817D01*
X104777911Y-95316700D01*
X104779138Y-95311995D01*
X104787131Y-95283653D01*
X104788545Y-95278993D01*
X104866342Y-95039560D01*
X104867936Y-95034963D01*
X104878121Y-95007353D01*
X104879893Y-95002825D01*
X104894891Y-94966608D01*
X104896846Y-94962139D01*
X104905925Y-94942442D01*
X104874195Y-94884333D01*
X104870233Y-94876419D01*
X104847975Y-94827682D01*
X104844587Y-94819501D01*
X104821227Y-94756868D01*
X104617591Y-94756868D01*
X104615145Y-94773360D01*
X104614104Y-94779357D01*
X104569935Y-95001408D01*
X104568601Y-95007349D01*
X104559649Y-95043084D01*
X104558025Y-95048952D01*
X104543798Y-95095845D01*
X104541890Y-95101620D01*
X104529491Y-95136272D01*
X104527301Y-95141949D01*
X104440671Y-95351095D01*
X104438206Y-95356656D01*
X104422466Y-95389938D01*
X104419729Y-95395377D01*
X104396627Y-95438599D01*
X104393627Y-95443894D01*
X104374691Y-95475488D01*
X104371434Y-95480632D01*
X104246693Y-95667318D01*
X96459401Y-95667318D01*
X96501398Y-95658964D01*
X96617374Y-95635896D01*
X96617377Y-95635894D01*
X96617382Y-95635894D01*
X96781263Y-95568013D01*
X96781520Y-95567841D01*
X99246693Y-95567841D01*
X99423465Y-95494620D01*
X99429141Y-95492430D01*
X99463803Y-95480027D01*
X99469582Y-95478118D01*
X99516478Y-95463891D01*
X99522348Y-95462267D01*
X99558076Y-95453318D01*
X99564013Y-95451985D01*
X99795719Y-95405896D01*
X99801714Y-95404855D01*
X99838142Y-95399451D01*
X99844185Y-95398706D01*
X99892954Y-95393903D01*
X99899025Y-95393455D01*
X99935800Y-95391649D01*
X99941882Y-95391500D01*
X100178118Y-95391500D01*
X100184200Y-95391649D01*
X100220975Y-95393455D01*
X100227046Y-95393903D01*
X100275815Y-95398706D01*
X100281858Y-95399451D01*
X100318286Y-95404855D01*
X100324281Y-95405896D01*
X100555987Y-95451985D01*
X100561924Y-95453318D01*
X100597652Y-95462267D01*
X100603522Y-95463891D01*
X100650418Y-95478118D01*
X100656197Y-95480027D01*
X100690859Y-95492430D01*
X100696535Y-95494620D01*
X100748693Y-95516224D01*
X100748693Y-94756868D01*
X99246693Y-94756868D01*
X99246693Y-95567841D01*
X96781520Y-95567841D01*
X96928751Y-95469464D01*
X97054180Y-95344035D01*
X97152729Y-95196547D01*
X97220610Y-95032666D01*
X97221269Y-95029357D01*
X97250115Y-94884333D01*
X97255216Y-94858691D01*
X97255216Y-94681309D01*
X97255216Y-94681306D01*
X97255215Y-94681304D01*
X97220612Y-94507341D01*
X97220609Y-94507332D01*
X97189118Y-94431304D01*
X101829500Y-94431304D01*
X101829500Y-94608695D01*
X101864103Y-94782658D01*
X101864106Y-94782667D01*
X101931983Y-94946540D01*
X101931990Y-94946553D01*
X102030535Y-95094034D01*
X102030538Y-95094038D01*
X102155961Y-95219461D01*
X102155965Y-95219464D01*
X102303446Y-95318009D01*
X102303459Y-95318016D01*
X102396746Y-95356656D01*
X102467334Y-95385894D01*
X102467336Y-95385894D01*
X102467341Y-95385896D01*
X102641304Y-95420499D01*
X102641307Y-95420500D01*
X102641309Y-95420500D01*
X102818693Y-95420500D01*
X102818694Y-95420499D01*
X102892110Y-95405896D01*
X102992658Y-95385896D01*
X102992661Y-95385894D01*
X102992666Y-95385894D01*
X103156547Y-95318013D01*
X103304035Y-95219464D01*
X103429464Y-95094035D01*
X103528013Y-94946547D01*
X103595894Y-94782666D01*
X103596553Y-94779357D01*
X103618964Y-94666682D01*
X103630500Y-94608691D01*
X103630500Y-94431309D01*
X103630500Y-94431306D01*
X103630499Y-94431304D01*
X103595896Y-94257341D01*
X103595893Y-94257332D01*
X103592849Y-94249984D01*
X103570473Y-94195961D01*
X103528016Y-94093459D01*
X103528009Y-94093446D01*
X103429464Y-93945965D01*
X103429461Y-93945961D01*
X103304038Y-93820538D01*
X103304034Y-93820535D01*
X103156553Y-93721990D01*
X103156540Y-93721983D01*
X102992667Y-93654106D01*
X102992658Y-93654103D01*
X102818694Y-93619500D01*
X102818691Y-93619500D01*
X102641309Y-93619500D01*
X102641306Y-93619500D01*
X102467341Y-93654103D01*
X102467332Y-93654106D01*
X102303459Y-93721983D01*
X102303446Y-93721990D01*
X102155965Y-93820535D01*
X102155961Y-93820538D01*
X102030538Y-93945961D01*
X102030535Y-93945965D01*
X101931990Y-94093446D01*
X101931983Y-94093459D01*
X101864106Y-94257332D01*
X101864103Y-94257341D01*
X101829500Y-94431304D01*
X97189118Y-94431304D01*
X97152732Y-94343459D01*
X97152725Y-94343446D01*
X97054180Y-94195965D01*
X97054177Y-94195961D01*
X96928754Y-94070538D01*
X96928750Y-94070535D01*
X96781269Y-93971990D01*
X96781256Y-93971983D01*
X96617383Y-93904106D01*
X96617374Y-93904103D01*
X96443410Y-93869500D01*
X96443407Y-93869500D01*
X96266025Y-93869500D01*
X96266022Y-93869500D01*
X96092057Y-93904103D01*
X96092048Y-93904106D01*
X95928175Y-93971983D01*
X95928162Y-93971990D01*
X95780681Y-94070535D01*
X95780677Y-94070538D01*
X95655254Y-94195961D01*
X95655251Y-94195965D01*
X95556706Y-94343446D01*
X95556699Y-94343459D01*
X95488822Y-94507332D01*
X95488819Y-94507341D01*
X95454216Y-94681304D01*
X90072543Y-94681304D01*
X90045896Y-94547341D01*
X90045893Y-94547332D01*
X89978016Y-94383459D01*
X89978009Y-94383446D01*
X89879464Y-94235965D01*
X89879461Y-94235961D01*
X89754038Y-94110538D01*
X89754034Y-94110535D01*
X89606553Y-94011990D01*
X89606540Y-94011983D01*
X89442667Y-93944106D01*
X89442658Y-93944103D01*
X89268694Y-93909500D01*
X89268691Y-93909500D01*
X89091309Y-93909500D01*
X89091306Y-93909500D01*
X88917341Y-93944103D01*
X88917332Y-93944106D01*
X88753459Y-94011983D01*
X88753446Y-94011990D01*
X88605965Y-94110535D01*
X88605961Y-94110538D01*
X88480538Y-94235961D01*
X88480535Y-94235965D01*
X88381990Y-94383446D01*
X88381983Y-94383459D01*
X88314106Y-94547332D01*
X88314103Y-94547341D01*
X88279500Y-94721304D01*
X87286575Y-94721304D01*
X87265896Y-94617341D01*
X87265893Y-94617332D01*
X87262728Y-94609692D01*
X87239057Y-94552544D01*
X87198016Y-94453459D01*
X87198009Y-94453446D01*
X87099464Y-94305965D01*
X87099461Y-94305961D01*
X86974038Y-94180538D01*
X86974034Y-94180535D01*
X86826553Y-94081990D01*
X86826540Y-94081983D01*
X86662667Y-94014106D01*
X86662658Y-94014103D01*
X86488694Y-93979500D01*
X86488691Y-93979500D01*
X86311309Y-93979500D01*
X86311306Y-93979500D01*
X86137341Y-94014103D01*
X86137332Y-94014106D01*
X85973459Y-94081983D01*
X85973446Y-94081990D01*
X85825965Y-94180535D01*
X85825961Y-94180538D01*
X85700538Y-94305961D01*
X85700535Y-94305965D01*
X85601990Y-94453446D01*
X85601983Y-94453459D01*
X85534106Y-94617332D01*
X85534103Y-94617341D01*
X85499500Y-94791304D01*
X83248693Y-94791304D01*
X83248693Y-94756868D01*
X81746693Y-94756868D01*
X81746693Y-96258868D01*
X80748693Y-96258868D01*
X80748693Y-94756868D01*
X79246693Y-94756868D01*
X79246693Y-96258868D01*
X74608237Y-96258868D01*
X74654373Y-96195367D01*
X74667010Y-96180571D01*
X74800571Y-96047010D01*
X74815367Y-96034373D01*
X74968178Y-95923350D01*
X74984768Y-95913183D01*
X75145785Y-95831140D01*
X75145504Y-95830740D01*
X75014256Y-95634314D01*
X75010999Y-95629170D01*
X74992064Y-95597578D01*
X74989064Y-95592282D01*
X74965963Y-95549061D01*
X74963227Y-95543626D01*
X74947487Y-95510346D01*
X74945021Y-95504783D01*
X74854620Y-95286535D01*
X74852430Y-95280859D01*
X74840027Y-95246197D01*
X74838118Y-95240418D01*
X74823891Y-95193522D01*
X74822267Y-95187652D01*
X74813318Y-95151924D01*
X74811985Y-95145987D01*
X74765896Y-94914281D01*
X74764855Y-94908286D01*
X74759451Y-94871858D01*
X74758706Y-94865815D01*
X74753903Y-94817046D01*
X74753455Y-94810975D01*
X74751649Y-94774200D01*
X74751500Y-94768118D01*
X74751500Y-94756868D01*
X74246693Y-94756868D01*
X74246693Y-96258868D01*
X73248693Y-96258868D01*
X73248693Y-94756868D01*
X71746693Y-94756868D01*
X71746693Y-96258868D01*
X70748693Y-96258868D01*
X70748693Y-94756868D01*
X69246693Y-94756868D01*
X69246693Y-96258868D01*
X66840522Y-96258868D01*
X66815727Y-96224740D01*
X66815723Y-96224735D01*
X66702053Y-96111065D01*
X66668568Y-96049742D01*
X66673552Y-95980050D01*
X66715424Y-95924117D01*
X66746400Y-95907202D01*
X66878331Y-95857996D01*
X66993546Y-95771746D01*
X67079796Y-95656531D01*
X67130091Y-95521683D01*
X67136500Y-95462073D01*
X67136499Y-94556379D01*
X75749500Y-94556379D01*
X75749500Y-94743620D01*
X75786025Y-94927243D01*
X75786027Y-94927251D01*
X75857676Y-95100228D01*
X75857681Y-95100237D01*
X75961697Y-95255907D01*
X75961700Y-95255911D01*
X76094088Y-95388299D01*
X76094092Y-95388302D01*
X76249762Y-95492318D01*
X76249771Y-95492323D01*
X76279852Y-95504783D01*
X76422749Y-95563973D01*
X76565069Y-95592282D01*
X76606379Y-95600499D01*
X76606383Y-95600500D01*
X76606384Y-95600500D01*
X76793617Y-95600500D01*
X76793618Y-95600499D01*
X76977251Y-95563973D01*
X77150231Y-95492322D01*
X77305908Y-95388302D01*
X77438302Y-95255908D01*
X77542322Y-95100231D01*
X77613973Y-94927251D01*
X77650500Y-94743616D01*
X77650500Y-94556384D01*
X77613973Y-94372749D01*
X77542322Y-94199769D01*
X77542321Y-94199768D01*
X77542318Y-94199762D01*
X77438302Y-94044092D01*
X77438299Y-94044088D01*
X77305911Y-93911700D01*
X77305907Y-93911697D01*
X77150237Y-93807681D01*
X77150228Y-93807676D01*
X76977251Y-93736027D01*
X76977243Y-93736025D01*
X76793620Y-93699500D01*
X76793616Y-93699500D01*
X76606384Y-93699500D01*
X76606379Y-93699500D01*
X76422756Y-93736025D01*
X76422748Y-93736027D01*
X76249771Y-93807676D01*
X76249762Y-93807681D01*
X76094092Y-93911697D01*
X76094088Y-93911700D01*
X75961700Y-94044088D01*
X75961697Y-94044092D01*
X75857681Y-94199762D01*
X75857676Y-94199771D01*
X75786027Y-94372748D01*
X75786025Y-94372756D01*
X75749500Y-94556379D01*
X67136499Y-94556379D01*
X67136499Y-93666328D01*
X67130091Y-93606717D01*
X67128108Y-93601401D01*
X67079797Y-93471871D01*
X67079793Y-93471864D01*
X66993547Y-93356655D01*
X66993544Y-93356652D01*
X66878335Y-93270406D01*
X66878328Y-93270402D01*
X66813484Y-93246217D01*
X69246693Y-93246217D01*
X69246693Y-93758868D01*
X70748693Y-93758868D01*
X71746693Y-93758868D01*
X73248693Y-93758868D01*
X74246693Y-93758868D01*
X74962047Y-93758868D01*
X74963227Y-93756374D01*
X74965963Y-93750939D01*
X74989064Y-93707718D01*
X74992064Y-93702422D01*
X75010999Y-93670830D01*
X75014256Y-93665686D01*
X75145504Y-93469260D01*
X75149007Y-93464286D01*
X75170940Y-93434712D01*
X75174686Y-93429912D01*
X75205775Y-93392030D01*
X75209749Y-93387423D01*
X75234480Y-93360136D01*
X75238678Y-93355727D01*
X75405727Y-93188678D01*
X75410136Y-93184480D01*
X75437423Y-93159749D01*
X75442030Y-93155775D01*
X75479912Y-93124686D01*
X75484712Y-93120940D01*
X75514286Y-93099007D01*
X75519260Y-93095504D01*
X75715686Y-92964256D01*
X75720830Y-92960999D01*
X75748693Y-92944299D01*
X75748693Y-92701500D01*
X76746693Y-92701500D01*
X76818118Y-92701500D01*
X76824200Y-92701649D01*
X76860975Y-92703455D01*
X76867046Y-92703903D01*
X76915815Y-92708706D01*
X76921858Y-92709451D01*
X76958286Y-92714855D01*
X76964281Y-92715896D01*
X77195987Y-92761985D01*
X77201924Y-92763318D01*
X77237652Y-92772267D01*
X77243522Y-92773891D01*
X77290418Y-92788118D01*
X77296197Y-92790027D01*
X77330859Y-92802430D01*
X77336535Y-92804620D01*
X77554783Y-92895021D01*
X77560346Y-92897487D01*
X77593626Y-92913227D01*
X77599061Y-92915963D01*
X77642282Y-92939064D01*
X77647578Y-92942064D01*
X77679170Y-92960999D01*
X77684314Y-92964256D01*
X77880740Y-93095504D01*
X77885714Y-93099007D01*
X77915288Y-93120940D01*
X77920088Y-93124686D01*
X77957970Y-93155775D01*
X77962577Y-93159749D01*
X77989864Y-93184480D01*
X77994273Y-93188678D01*
X78161322Y-93355727D01*
X78165520Y-93360136D01*
X78190251Y-93387423D01*
X78194225Y-93392030D01*
X78225314Y-93429912D01*
X78229060Y-93434712D01*
X78248693Y-93461184D01*
X78248693Y-92728475D01*
X81746693Y-92728475D01*
X81746693Y-93758868D01*
X83248693Y-93758868D01*
X84246693Y-93758868D01*
X84865810Y-93758868D01*
X91746693Y-93758868D01*
X93248693Y-93758868D01*
X94246693Y-93758868D01*
X94747025Y-93758868D01*
X94839059Y-93621131D01*
X94842563Y-93616155D01*
X94864495Y-93586583D01*
X94868240Y-93581785D01*
X94899329Y-93543903D01*
X94903303Y-93539296D01*
X94928034Y-93512009D01*
X94932232Y-93507600D01*
X95092316Y-93347516D01*
X95096725Y-93343318D01*
X95124012Y-93318587D01*
X95128619Y-93314613D01*
X95166501Y-93283524D01*
X95171299Y-93279779D01*
X95200871Y-93257847D01*
X95205847Y-93254343D01*
X95394084Y-93128566D01*
X95399228Y-93125309D01*
X95430822Y-93106373D01*
X95436117Y-93103373D01*
X95479339Y-93080271D01*
X95484778Y-93077534D01*
X95518060Y-93061794D01*
X95523621Y-93059329D01*
X95732767Y-92972699D01*
X95738444Y-92970509D01*
X95748693Y-92966841D01*
X95748693Y-92912275D01*
X96746693Y-92912275D01*
X96836125Y-92930065D01*
X96842065Y-92931399D01*
X96877800Y-92940351D01*
X96883668Y-92941975D01*
X96930561Y-92956202D01*
X96936336Y-92958110D01*
X96970988Y-92970509D01*
X96976665Y-92972699D01*
X97185811Y-93059329D01*
X97191372Y-93061794D01*
X97224654Y-93077534D01*
X97230093Y-93080271D01*
X97273315Y-93103373D01*
X97278610Y-93106373D01*
X97310204Y-93125309D01*
X97315348Y-93128566D01*
X97503585Y-93254343D01*
X97508561Y-93257847D01*
X97538133Y-93279779D01*
X97542931Y-93283524D01*
X97580813Y-93314613D01*
X97585420Y-93318587D01*
X97612707Y-93343318D01*
X97617116Y-93347516D01*
X97777200Y-93507600D01*
X97781398Y-93512009D01*
X97806129Y-93539296D01*
X97810103Y-93543903D01*
X97841192Y-93581785D01*
X97844937Y-93586583D01*
X97866869Y-93616155D01*
X97870373Y-93621131D01*
X97962407Y-93758868D01*
X98248693Y-93758868D01*
X99246693Y-93758868D01*
X100748693Y-93758868D01*
X100748693Y-93372681D01*
X104246693Y-93372681D01*
X104371434Y-93559368D01*
X104374691Y-93564512D01*
X104393627Y-93596106D01*
X104396627Y-93601401D01*
X104419729Y-93644623D01*
X104422466Y-93650062D01*
X104438206Y-93683344D01*
X104440671Y-93688905D01*
X104469650Y-93758868D01*
X104712501Y-93758868D01*
X104712500Y-92447135D01*
X105710500Y-92447135D01*
X105710500Y-94242870D01*
X105710501Y-94242876D01*
X105716908Y-94302483D01*
X105767202Y-94437328D01*
X105767206Y-94437335D01*
X105853452Y-94552544D01*
X105853455Y-94552547D01*
X105968664Y-94638793D01*
X105968671Y-94638797D01*
X106100082Y-94687810D01*
X106156016Y-94729681D01*
X106180433Y-94795145D01*
X106165582Y-94863418D01*
X106144431Y-94891673D01*
X106030889Y-95005215D01*
X105905951Y-95177179D01*
X105809444Y-95366585D01*
X105743753Y-95568760D01*
X105726450Y-95678009D01*
X105710500Y-95778713D01*
X105710500Y-95991287D01*
X105714378Y-96015769D01*
X105743031Y-96196682D01*
X105743754Y-96201243D01*
X105807243Y-96396642D01*
X105809444Y-96403414D01*
X105905951Y-96592820D01*
X106030890Y-96764786D01*
X106181213Y-96915109D01*
X106353182Y-97040050D01*
X106361946Y-97044516D01*
X106412742Y-97092491D01*
X106429536Y-97160312D01*
X106406998Y-97226447D01*
X106361946Y-97265484D01*
X106353182Y-97269949D01*
X106181213Y-97394890D01*
X106030890Y-97545213D01*
X105905951Y-97717179D01*
X105809444Y-97906585D01*
X105743753Y-98108760D01*
X105712453Y-98306383D01*
X105710500Y-98318713D01*
X105710500Y-98531287D01*
X105713606Y-98550897D01*
X105739779Y-98716150D01*
X105743754Y-98741243D01*
X105807470Y-98937341D01*
X105809444Y-98943414D01*
X105905951Y-99132820D01*
X106030890Y-99304786D01*
X106181213Y-99455109D01*
X106353179Y-99580048D01*
X106353181Y-99580049D01*
X106353184Y-99580051D01*
X106542588Y-99676557D01*
X106744757Y-99742246D01*
X106954713Y-99775500D01*
X106954714Y-99775500D01*
X107167286Y-99775500D01*
X107167287Y-99775500D01*
X107377243Y-99742246D01*
X107579412Y-99676557D01*
X107768816Y-99580051D01*
X107790789Y-99564086D01*
X107940786Y-99455109D01*
X107940788Y-99455106D01*
X107940792Y-99455104D01*
X108091104Y-99304792D01*
X108091106Y-99304788D01*
X108091109Y-99304786D01*
X108170344Y-99195727D01*
X108216051Y-99132816D01*
X108220793Y-99123508D01*
X108268763Y-99072711D01*
X108336583Y-99055911D01*
X108402719Y-99078445D01*
X108441763Y-99123500D01*
X108446377Y-99132555D01*
X108571272Y-99304459D01*
X108571276Y-99304464D01*
X108721535Y-99454723D01*
X108721540Y-99454727D01*
X108893442Y-99579620D01*
X109082782Y-99676095D01*
X109284871Y-99741757D01*
X109351000Y-99752231D01*
X109351000Y-98858012D01*
X109408007Y-98890925D01*
X109535174Y-98925000D01*
X109666826Y-98925000D01*
X109793993Y-98890925D01*
X109851000Y-98858012D01*
X109851000Y-99752230D01*
X109917126Y-99741757D01*
X109917129Y-99741757D01*
X110119217Y-99676095D01*
X110308557Y-99579620D01*
X110480459Y-99454727D01*
X110480464Y-99454723D01*
X110630723Y-99304464D01*
X110630727Y-99304459D01*
X110755620Y-99132557D01*
X110852095Y-98943217D01*
X110917757Y-98741129D01*
X110917757Y-98741126D01*
X110928231Y-98675000D01*
X110034012Y-98675000D01*
X110066925Y-98617993D01*
X110101000Y-98490826D01*
X110101000Y-98359174D01*
X110066925Y-98232007D01*
X110034012Y-98175000D01*
X110928231Y-98175000D01*
X110917757Y-98108873D01*
X110917757Y-98108870D01*
X110852095Y-97906782D01*
X110755620Y-97717442D01*
X110630727Y-97545540D01*
X110630723Y-97545535D01*
X110480464Y-97395276D01*
X110480459Y-97395272D01*
X110308555Y-97270377D01*
X110299500Y-97265763D01*
X110248706Y-97217788D01*
X110231912Y-97149966D01*
X110254451Y-97083832D01*
X110299508Y-97044793D01*
X110308816Y-97040051D01*
X110388007Y-96982515D01*
X110480786Y-96915109D01*
X110480788Y-96915106D01*
X110480792Y-96915104D01*
X110631104Y-96764792D01*
X110631106Y-96764788D01*
X110631109Y-96764786D01*
X110756048Y-96592820D01*
X110756047Y-96592820D01*
X110756051Y-96592816D01*
X110852557Y-96403412D01*
X110918246Y-96201243D01*
X110951500Y-95991287D01*
X110951500Y-95778713D01*
X110918246Y-95568757D01*
X110852557Y-95366588D01*
X110756051Y-95177184D01*
X110756049Y-95177181D01*
X110756048Y-95177179D01*
X110631109Y-95005213D01*
X110480786Y-94854890D01*
X110308820Y-94729951D01*
X110308115Y-94729591D01*
X110300054Y-94725485D01*
X110249259Y-94677512D01*
X110232463Y-94609692D01*
X110254999Y-94543556D01*
X110300054Y-94504515D01*
X110308816Y-94500051D01*
X110395138Y-94437335D01*
X110480786Y-94375109D01*
X110480788Y-94375106D01*
X110480792Y-94375104D01*
X110631104Y-94224792D01*
X110631106Y-94224788D01*
X110631109Y-94224786D01*
X110756048Y-94052820D01*
X110756047Y-94052820D01*
X110756051Y-94052816D01*
X110852557Y-93863412D01*
X110918246Y-93661243D01*
X110951500Y-93451287D01*
X110951500Y-93238713D01*
X110918246Y-93028757D01*
X110852557Y-92826588D01*
X110756051Y-92637184D01*
X110756049Y-92637181D01*
X110756048Y-92637179D01*
X110631109Y-92465213D01*
X110480786Y-92314890D01*
X110308820Y-92189951D01*
X110119414Y-92093444D01*
X110119413Y-92093443D01*
X110119412Y-92093443D01*
X109917243Y-92027754D01*
X109917241Y-92027753D01*
X109917240Y-92027753D01*
X109755957Y-92002208D01*
X109707287Y-91994500D01*
X109494713Y-91994500D01*
X109446042Y-92002208D01*
X109284760Y-92027753D01*
X109082585Y-92093444D01*
X108893179Y-92189951D01*
X108721215Y-92314889D01*
X108607673Y-92428431D01*
X108546350Y-92461915D01*
X108476658Y-92456931D01*
X108420725Y-92415059D01*
X108403810Y-92384082D01*
X108354797Y-92252671D01*
X108354793Y-92252664D01*
X108268547Y-92137455D01*
X108268544Y-92137452D01*
X108153335Y-92051206D01*
X108153328Y-92051202D01*
X108018482Y-92000908D01*
X108018483Y-92000908D01*
X107958883Y-91994501D01*
X107958881Y-91994500D01*
X107958873Y-91994500D01*
X107958864Y-91994500D01*
X106163129Y-91994500D01*
X106163123Y-91994501D01*
X106103516Y-92000908D01*
X105968671Y-92051202D01*
X105968664Y-92051206D01*
X105853455Y-92137452D01*
X105853452Y-92137455D01*
X105767206Y-92252664D01*
X105767202Y-92252671D01*
X105716908Y-92387517D01*
X105710501Y-92447116D01*
X105710500Y-92447135D01*
X104712500Y-92447135D01*
X104712500Y-92433752D01*
X104712545Y-92430428D01*
X104713084Y-92410327D01*
X104713217Y-92407007D01*
X104714649Y-92380320D01*
X104714871Y-92377011D01*
X104716481Y-92357018D01*
X104716792Y-92353715D01*
X104727205Y-92256868D01*
X104246693Y-92256868D01*
X104246693Y-93372681D01*
X100748693Y-93372681D01*
X100748693Y-92893717D01*
X101746693Y-92893717D01*
X101769368Y-92878566D01*
X101774512Y-92875309D01*
X101806106Y-92856373D01*
X101811401Y-92853373D01*
X101854623Y-92830271D01*
X101860062Y-92827534D01*
X101893344Y-92811794D01*
X101898905Y-92809329D01*
X102108051Y-92722699D01*
X102113728Y-92720509D01*
X102148380Y-92708110D01*
X102154155Y-92706202D01*
X102201048Y-92691975D01*
X102206916Y-92690351D01*
X102242651Y-92681399D01*
X102248592Y-92680065D01*
X102470643Y-92635896D01*
X102476640Y-92634855D01*
X102513071Y-92629451D01*
X102519112Y-92628706D01*
X102567884Y-92623903D01*
X102573954Y-92623455D01*
X102610726Y-92621649D01*
X102616809Y-92621500D01*
X102843191Y-92621500D01*
X102849274Y-92621649D01*
X102886046Y-92623455D01*
X102892116Y-92623903D01*
X102940888Y-92628706D01*
X102946929Y-92629451D01*
X102983360Y-92634855D01*
X102989357Y-92635896D01*
X103211408Y-92680065D01*
X103217349Y-92681399D01*
X103248693Y-92689251D01*
X103248693Y-92256868D01*
X101746693Y-92256868D01*
X101746693Y-92893717D01*
X100748693Y-92893717D01*
X100748693Y-92256868D01*
X99246693Y-92256868D01*
X99246693Y-93758868D01*
X98248693Y-93758868D01*
X98248693Y-92256868D01*
X96746693Y-92256868D01*
X96746693Y-92912275D01*
X95748693Y-92912275D01*
X95748693Y-92256868D01*
X94246693Y-92256868D01*
X94246693Y-93758868D01*
X93248693Y-93758868D01*
X93248693Y-92256868D01*
X91746693Y-92256868D01*
X91746693Y-93758868D01*
X84865810Y-93758868D01*
X84884343Y-93731131D01*
X84887847Y-93726155D01*
X84909779Y-93696583D01*
X84913524Y-93691785D01*
X84944613Y-93653903D01*
X84948587Y-93649296D01*
X84973318Y-93622009D01*
X84977516Y-93617600D01*
X85137600Y-93457516D01*
X85142009Y-93453318D01*
X85169296Y-93428587D01*
X85173903Y-93424613D01*
X85211785Y-93393524D01*
X85216583Y-93389779D01*
X85246155Y-93367847D01*
X85251131Y-93364343D01*
X85439368Y-93238566D01*
X85444512Y-93235309D01*
X85476106Y-93216373D01*
X85481401Y-93213373D01*
X85524623Y-93190271D01*
X85530062Y-93187534D01*
X85563344Y-93171794D01*
X85568905Y-93169329D01*
X85748693Y-93094859D01*
X85748693Y-93013268D01*
X86746693Y-93013268D01*
X86881408Y-93040065D01*
X86887349Y-93041399D01*
X86923084Y-93050351D01*
X86928952Y-93051975D01*
X86975845Y-93066202D01*
X86981620Y-93068110D01*
X87016272Y-93080509D01*
X87021949Y-93082699D01*
X87231095Y-93169329D01*
X87236656Y-93171794D01*
X87269938Y-93187534D01*
X87275377Y-93190271D01*
X87318599Y-93213373D01*
X87323894Y-93216373D01*
X87355488Y-93235309D01*
X87360632Y-93238566D01*
X87548869Y-93364343D01*
X87553845Y-93367847D01*
X87583417Y-93389779D01*
X87588215Y-93393524D01*
X87626097Y-93424613D01*
X87630704Y-93428587D01*
X87657991Y-93453318D01*
X87662400Y-93457516D01*
X87755061Y-93550177D01*
X87757516Y-93547600D01*
X87917600Y-93387516D01*
X87922009Y-93383318D01*
X87949296Y-93358587D01*
X87953903Y-93354613D01*
X87991785Y-93323524D01*
X87996583Y-93319779D01*
X88026155Y-93297847D01*
X88031131Y-93294343D01*
X88219368Y-93168566D01*
X88224512Y-93165309D01*
X88248693Y-93150816D01*
X88248693Y-92911500D01*
X89246693Y-92911500D01*
X89293191Y-92911500D01*
X89299274Y-92911649D01*
X89336046Y-92913455D01*
X89342116Y-92913903D01*
X89390888Y-92918706D01*
X89396929Y-92919451D01*
X89433360Y-92924855D01*
X89439357Y-92925896D01*
X89661408Y-92970065D01*
X89667349Y-92971399D01*
X89703084Y-92980351D01*
X89708952Y-92981975D01*
X89755845Y-92996202D01*
X89761620Y-92998110D01*
X89796272Y-93010509D01*
X89801949Y-93012699D01*
X90011095Y-93099329D01*
X90016656Y-93101794D01*
X90049938Y-93117534D01*
X90055377Y-93120271D01*
X90098599Y-93143373D01*
X90103894Y-93146373D01*
X90135488Y-93165309D01*
X90140632Y-93168566D01*
X90328869Y-93294343D01*
X90333845Y-93297847D01*
X90363417Y-93319779D01*
X90368215Y-93323524D01*
X90406097Y-93354613D01*
X90410704Y-93358587D01*
X90437991Y-93383318D01*
X90442400Y-93387516D01*
X90602484Y-93547600D01*
X90606682Y-93552009D01*
X90631413Y-93579296D01*
X90635387Y-93583903D01*
X90666476Y-93621785D01*
X90670221Y-93626583D01*
X90692153Y-93656155D01*
X90695657Y-93661131D01*
X90748693Y-93740504D01*
X90748693Y-92256868D01*
X89246693Y-92256868D01*
X89246693Y-92911500D01*
X88248693Y-92911500D01*
X88248693Y-92256868D01*
X86746693Y-92256868D01*
X86746693Y-93013268D01*
X85748693Y-93013268D01*
X85748693Y-92256868D01*
X84246693Y-92256868D01*
X84246693Y-93758868D01*
X83248693Y-93758868D01*
X83248693Y-92256868D01*
X81926806Y-92256868D01*
X81919935Y-92291408D01*
X81918601Y-92297349D01*
X81909649Y-92333084D01*
X81908025Y-92338952D01*
X81893798Y-92385845D01*
X81891890Y-92391620D01*
X81879491Y-92426272D01*
X81877301Y-92431949D01*
X81790671Y-92641095D01*
X81788206Y-92646656D01*
X81772466Y-92679938D01*
X81769729Y-92685377D01*
X81746693Y-92728475D01*
X78248693Y-92728475D01*
X78248693Y-92326465D01*
X78241399Y-92297349D01*
X78240065Y-92291408D01*
X78233194Y-92256868D01*
X76746693Y-92256868D01*
X76746693Y-92701500D01*
X75748693Y-92701500D01*
X75748693Y-92256868D01*
X74246693Y-92256868D01*
X74246693Y-93758868D01*
X73248693Y-93758868D01*
X73248693Y-92256868D01*
X71746693Y-92256868D01*
X71746693Y-93758868D01*
X70748693Y-93758868D01*
X70748693Y-92256868D01*
X70389428Y-92256868D01*
X70376773Y-92283626D01*
X70374037Y-92289061D01*
X70350936Y-92332282D01*
X70347936Y-92337578D01*
X70329001Y-92369170D01*
X70325744Y-92374314D01*
X70194496Y-92570740D01*
X70190993Y-92575714D01*
X70169060Y-92605288D01*
X70165314Y-92610088D01*
X70134225Y-92647970D01*
X70130251Y-92652577D01*
X70105520Y-92679864D01*
X70101322Y-92684273D01*
X69934273Y-92851322D01*
X69929864Y-92855520D01*
X69902577Y-92880251D01*
X69897970Y-92884225D01*
X69860088Y-92915314D01*
X69855288Y-92919060D01*
X69825714Y-92940993D01*
X69820740Y-92944496D01*
X69624314Y-93075744D01*
X69619170Y-93079001D01*
X69587578Y-93097936D01*
X69582282Y-93100936D01*
X69539061Y-93124037D01*
X69533626Y-93126773D01*
X69500346Y-93142513D01*
X69494783Y-93144979D01*
X69276535Y-93235380D01*
X69270859Y-93237570D01*
X69246693Y-93246217D01*
X66813484Y-93246217D01*
X66743482Y-93220108D01*
X66743483Y-93220108D01*
X66683883Y-93213701D01*
X66683881Y-93213700D01*
X66683873Y-93213700D01*
X66683864Y-93213700D01*
X64888129Y-93213700D01*
X64888123Y-93213701D01*
X64828516Y-93220108D01*
X64693671Y-93270402D01*
X64693664Y-93270406D01*
X64578455Y-93356652D01*
X64578452Y-93356655D01*
X64492206Y-93471864D01*
X64492202Y-93471871D01*
X64441908Y-93606717D01*
X64435569Y-93665686D01*
X64435501Y-93666323D01*
X64435500Y-93666335D01*
X64013017Y-93666335D01*
X64000921Y-91629628D01*
X64002444Y-91615858D01*
X64001792Y-91615797D01*
X64002559Y-91607704D01*
X64002561Y-91607697D01*
X64000512Y-91551265D01*
X64000435Y-91547626D01*
X64000100Y-91491137D01*
X64000098Y-91491131D01*
X63999855Y-91489364D01*
X64000080Y-91487856D01*
X64000052Y-91483006D01*
X64000807Y-91483001D01*
X64010199Y-91420264D01*
X64056260Y-91367727D01*
X64120265Y-91348453D01*
X66161959Y-91308516D01*
X66192853Y-91296379D01*
X67689500Y-91296379D01*
X67689500Y-91483620D01*
X67726025Y-91667243D01*
X67726027Y-91667251D01*
X67797676Y-91840228D01*
X67797681Y-91840237D01*
X67901697Y-91995907D01*
X67901700Y-91995911D01*
X68034088Y-92128299D01*
X68034092Y-92128302D01*
X68189762Y-92232318D01*
X68189768Y-92232321D01*
X68189769Y-92232322D01*
X68362749Y-92303973D01*
X68505069Y-92332282D01*
X68546379Y-92340499D01*
X68546383Y-92340500D01*
X68546384Y-92340500D01*
X68733617Y-92340500D01*
X68733618Y-92340499D01*
X68917251Y-92303973D01*
X69090231Y-92232322D01*
X69245908Y-92128302D01*
X69378302Y-91995908D01*
X69482322Y-91840231D01*
X69531583Y-91721304D01*
X79179500Y-91721304D01*
X79179500Y-91898695D01*
X79214103Y-92072658D01*
X79214106Y-92072667D01*
X79281983Y-92236540D01*
X79281990Y-92236553D01*
X79380535Y-92384034D01*
X79380538Y-92384038D01*
X79505961Y-92509461D01*
X79505965Y-92509464D01*
X79653446Y-92608009D01*
X79653459Y-92608016D01*
X79746746Y-92646656D01*
X79817334Y-92675894D01*
X79817336Y-92675894D01*
X79817341Y-92675896D01*
X79991304Y-92710499D01*
X79991307Y-92710500D01*
X79991309Y-92710500D01*
X80168693Y-92710500D01*
X80168694Y-92710499D01*
X80261822Y-92691975D01*
X80342658Y-92675896D01*
X80342661Y-92675894D01*
X80342666Y-92675894D01*
X80482535Y-92617958D01*
X80506540Y-92608016D01*
X80506540Y-92608015D01*
X80506547Y-92608013D01*
X80654035Y-92509464D01*
X80779464Y-92384035D01*
X80878013Y-92236547D01*
X80945894Y-92072666D01*
X80950164Y-92051202D01*
X80980499Y-91898695D01*
X80980500Y-91898693D01*
X80980500Y-91721306D01*
X80980499Y-91721304D01*
X80945896Y-91547341D01*
X80945893Y-91547332D01*
X80878016Y-91383459D01*
X80878009Y-91383446D01*
X80779464Y-91235965D01*
X80779461Y-91235961D01*
X80654038Y-91110538D01*
X80654034Y-91110535D01*
X80506553Y-91011990D01*
X80506540Y-91011983D01*
X80342667Y-90944106D01*
X80342658Y-90944103D01*
X80168694Y-90909500D01*
X80168691Y-90909500D01*
X79991309Y-90909500D01*
X79991306Y-90909500D01*
X79817341Y-90944103D01*
X79817332Y-90944106D01*
X79653459Y-91011983D01*
X79653446Y-91011990D01*
X79505965Y-91110535D01*
X79505961Y-91110538D01*
X79380538Y-91235961D01*
X79380535Y-91235965D01*
X79281990Y-91383446D01*
X79281983Y-91383459D01*
X79214106Y-91547332D01*
X79214103Y-91547341D01*
X79179500Y-91721304D01*
X69531583Y-91721304D01*
X69553973Y-91667251D01*
X69590500Y-91483616D01*
X69590500Y-91296384D01*
X69553973Y-91112749D01*
X69487601Y-90952513D01*
X69482323Y-90939771D01*
X69482318Y-90939762D01*
X69378302Y-90784092D01*
X69378299Y-90784088D01*
X69245911Y-90651700D01*
X69245907Y-90651697D01*
X69090237Y-90547681D01*
X69090228Y-90547676D01*
X68917251Y-90476027D01*
X68917243Y-90476025D01*
X68733620Y-90439500D01*
X68733616Y-90439500D01*
X68546384Y-90439500D01*
X68546379Y-90439500D01*
X68362756Y-90476025D01*
X68362748Y-90476027D01*
X68189771Y-90547676D01*
X68189762Y-90547681D01*
X68034092Y-90651697D01*
X68034088Y-90651700D01*
X67901700Y-90784088D01*
X67901697Y-90784092D01*
X67797681Y-90939762D01*
X67797676Y-90939771D01*
X67726027Y-91112748D01*
X67726025Y-91112756D01*
X67689500Y-91296379D01*
X66192853Y-91296379D01*
X67288664Y-90865882D01*
X68133996Y-89756868D01*
X69703053Y-89756868D01*
X69820740Y-89835504D01*
X69825714Y-89839007D01*
X69855288Y-89860940D01*
X69860088Y-89864686D01*
X69897970Y-89895775D01*
X69902577Y-89899749D01*
X69929864Y-89924480D01*
X69934273Y-89928678D01*
X70101322Y-90095727D01*
X70105520Y-90100136D01*
X70130251Y-90127423D01*
X70134225Y-90132030D01*
X70165314Y-90169912D01*
X70169060Y-90174712D01*
X70190993Y-90204286D01*
X70194496Y-90209260D01*
X70325744Y-90405686D01*
X70329001Y-90410830D01*
X70347936Y-90442422D01*
X70350936Y-90447718D01*
X70374037Y-90490939D01*
X70376773Y-90496374D01*
X70392513Y-90529654D01*
X70394979Y-90535217D01*
X70485380Y-90753465D01*
X70487570Y-90759141D01*
X70499973Y-90793803D01*
X70501882Y-90799582D01*
X70516109Y-90846478D01*
X70517733Y-90852348D01*
X70526682Y-90888076D01*
X70528015Y-90894013D01*
X70574104Y-91125719D01*
X70575145Y-91131714D01*
X70580549Y-91168142D01*
X70581294Y-91174185D01*
X70586097Y-91222954D01*
X70586545Y-91229025D01*
X70588011Y-91258868D01*
X70748693Y-91258868D01*
X70748693Y-90681851D01*
X71746693Y-90681851D01*
X71746693Y-91258868D01*
X73248693Y-91258868D01*
X74246693Y-91258868D01*
X75748693Y-91258868D01*
X75748693Y-90543494D01*
X76746693Y-90543494D01*
X76746693Y-91258868D01*
X78248693Y-91258868D01*
X78248693Y-90891524D01*
X81746693Y-90891524D01*
X81769729Y-90934623D01*
X81772466Y-90940062D01*
X81788206Y-90973344D01*
X81790671Y-90978905D01*
X81877301Y-91188051D01*
X81879491Y-91193728D01*
X81891890Y-91228380D01*
X81893798Y-91234155D01*
X81901296Y-91258868D01*
X83248693Y-91258868D01*
X83248693Y-90967591D01*
X86746693Y-90967591D01*
X86746693Y-91258868D01*
X88248693Y-91258868D01*
X88248693Y-91076180D01*
X88241714Y-91075145D01*
X88235719Y-91074104D01*
X88004013Y-91028015D01*
X87998076Y-91026682D01*
X87962348Y-91017733D01*
X87956478Y-91016109D01*
X87909582Y-91001882D01*
X87903803Y-90999973D01*
X87869141Y-90987570D01*
X87863465Y-90985380D01*
X87753304Y-90939750D01*
X89246693Y-90939750D01*
X89246693Y-91258868D01*
X90748693Y-91258868D01*
X91746693Y-91258868D01*
X93248693Y-91258868D01*
X94246693Y-91258868D01*
X95748693Y-91258868D01*
X99272536Y-91258868D01*
X100748693Y-91258868D01*
X104246693Y-91258868D01*
X105361767Y-91258868D01*
X105399126Y-91230901D01*
X105406396Y-91225854D01*
X105451463Y-91196890D01*
X105459077Y-91192372D01*
X105521667Y-91158195D01*
X105529581Y-91154233D01*
X105578318Y-91131975D01*
X105586498Y-91128587D01*
X105748693Y-91068092D01*
X105748693Y-89756868D01*
X104246693Y-89756868D01*
X104246693Y-91258868D01*
X100748693Y-91258868D01*
X100748693Y-90127768D01*
X100740936Y-90142282D01*
X100737936Y-90147578D01*
X100719001Y-90179170D01*
X100715744Y-90184314D01*
X100584496Y-90380740D01*
X100580993Y-90385714D01*
X100559060Y-90415288D01*
X100555314Y-90420088D01*
X100524225Y-90457970D01*
X100520251Y-90462577D01*
X100495520Y-90489864D01*
X100491322Y-90494273D01*
X100324273Y-90661322D01*
X100319864Y-90665520D01*
X100292577Y-90690251D01*
X100287970Y-90694225D01*
X100250088Y-90725314D01*
X100245288Y-90729060D01*
X100215714Y-90750993D01*
X100210740Y-90754496D01*
X100014314Y-90885744D01*
X100009170Y-90889001D01*
X99977578Y-90907936D01*
X99972282Y-90910936D01*
X99929061Y-90934037D01*
X99923626Y-90936773D01*
X99890346Y-90952513D01*
X99884783Y-90954979D01*
X99666535Y-91045380D01*
X99660859Y-91047570D01*
X99626197Y-91059973D01*
X99620418Y-91061882D01*
X99573522Y-91076109D01*
X99567652Y-91077733D01*
X99531924Y-91086682D01*
X99525987Y-91088015D01*
X99307506Y-91131473D01*
X99302925Y-91160398D01*
X99298383Y-91179319D01*
X99272536Y-91258868D01*
X95748693Y-91258868D01*
X95748693Y-89756868D01*
X94246693Y-89756868D01*
X94246693Y-91258868D01*
X93248693Y-91258868D01*
X93248693Y-89756868D01*
X91746693Y-89756868D01*
X91746693Y-91258868D01*
X90748693Y-91258868D01*
X90748693Y-89756868D01*
X90352576Y-89756868D01*
X90347570Y-89770859D01*
X90345380Y-89776535D01*
X90254979Y-89994783D01*
X90252513Y-90000346D01*
X90236773Y-90033626D01*
X90234037Y-90039061D01*
X90210936Y-90082282D01*
X90207936Y-90087578D01*
X90189001Y-90119170D01*
X90185744Y-90124314D01*
X90054496Y-90320740D01*
X90050993Y-90325714D01*
X90029060Y-90355288D01*
X90025314Y-90360088D01*
X89994225Y-90397970D01*
X89990251Y-90402577D01*
X89965520Y-90429864D01*
X89961322Y-90434273D01*
X89794273Y-90601322D01*
X89789864Y-90605520D01*
X89762577Y-90630251D01*
X89757970Y-90634225D01*
X89720088Y-90665314D01*
X89715288Y-90669060D01*
X89685714Y-90690993D01*
X89680740Y-90694496D01*
X89484314Y-90825744D01*
X89479170Y-90829001D01*
X89447578Y-90847936D01*
X89442282Y-90850936D01*
X89399061Y-90874037D01*
X89393626Y-90876773D01*
X89360346Y-90892513D01*
X89354782Y-90894979D01*
X89246693Y-90939750D01*
X87753304Y-90939750D01*
X87645217Y-90894979D01*
X87639654Y-90892513D01*
X87606374Y-90876773D01*
X87600939Y-90874037D01*
X87557718Y-90850936D01*
X87552422Y-90847936D01*
X87520830Y-90829001D01*
X87515686Y-90825744D01*
X87319260Y-90694496D01*
X87314286Y-90690993D01*
X87284712Y-90669060D01*
X87279912Y-90665314D01*
X87242030Y-90634225D01*
X87237423Y-90630251D01*
X87210136Y-90605520D01*
X87205727Y-90601322D01*
X87038678Y-90434273D01*
X87034480Y-90429864D01*
X87009749Y-90402577D01*
X87005775Y-90397970D01*
X86996777Y-90387006D01*
X86989935Y-90421408D01*
X86988601Y-90427349D01*
X86979649Y-90463084D01*
X86978025Y-90468952D01*
X86963798Y-90515845D01*
X86961890Y-90521620D01*
X86949491Y-90556272D01*
X86947301Y-90561949D01*
X86860671Y-90771095D01*
X86858206Y-90776656D01*
X86842466Y-90809938D01*
X86839729Y-90815377D01*
X86816627Y-90858599D01*
X86813627Y-90863894D01*
X86794691Y-90895488D01*
X86791434Y-90900633D01*
X86746693Y-90967591D01*
X83248693Y-90967591D01*
X83248693Y-89851304D01*
X84249500Y-89851304D01*
X84249500Y-90028695D01*
X84284103Y-90202658D01*
X84284106Y-90202667D01*
X84351983Y-90366540D01*
X84351990Y-90366553D01*
X84450535Y-90514034D01*
X84450538Y-90514038D01*
X84575961Y-90639461D01*
X84575965Y-90639464D01*
X84723446Y-90738009D01*
X84723459Y-90738016D01*
X84810334Y-90774000D01*
X84887334Y-90805894D01*
X84887336Y-90805894D01*
X84887341Y-90805896D01*
X85061304Y-90840499D01*
X85061307Y-90840500D01*
X85061309Y-90840500D01*
X85238693Y-90840500D01*
X85238694Y-90840499D01*
X85312874Y-90825744D01*
X85412658Y-90805896D01*
X85412661Y-90805894D01*
X85412666Y-90805894D01*
X85576547Y-90738013D01*
X85724035Y-90639464D01*
X85849464Y-90514035D01*
X85948013Y-90366547D01*
X86015894Y-90202666D01*
X86017643Y-90193877D01*
X86047788Y-90042323D01*
X86050500Y-90028691D01*
X86050500Y-89851309D01*
X86050500Y-89851306D01*
X86050499Y-89851304D01*
X86015896Y-89677341D01*
X86015893Y-89677332D01*
X85948016Y-89513459D01*
X85948009Y-89513446D01*
X85849464Y-89365965D01*
X85849461Y-89365961D01*
X85724038Y-89240538D01*
X85724034Y-89240535D01*
X85576553Y-89141990D01*
X85576540Y-89141983D01*
X85412667Y-89074106D01*
X85412658Y-89074103D01*
X85273278Y-89046379D01*
X87549500Y-89046379D01*
X87549500Y-89233620D01*
X87586025Y-89417243D01*
X87586027Y-89417251D01*
X87657676Y-89590228D01*
X87657681Y-89590237D01*
X87761697Y-89745907D01*
X87761700Y-89745911D01*
X87894088Y-89878299D01*
X87894092Y-89878302D01*
X88049762Y-89982318D01*
X88049768Y-89982321D01*
X88049769Y-89982322D01*
X88222749Y-90053973D01*
X88365069Y-90082282D01*
X88406379Y-90090499D01*
X88406383Y-90090500D01*
X88406384Y-90090500D01*
X88593617Y-90090500D01*
X88593618Y-90090499D01*
X88777251Y-90053973D01*
X88950231Y-89982322D01*
X89105908Y-89878302D01*
X89238302Y-89745908D01*
X89342322Y-89590231D01*
X89413973Y-89417251D01*
X89450500Y-89233616D01*
X89450500Y-89106379D01*
X98079500Y-89106379D01*
X98079500Y-89293620D01*
X98116025Y-89477243D01*
X98116027Y-89477251D01*
X98187676Y-89650228D01*
X98187681Y-89650237D01*
X98291697Y-89805907D01*
X98291700Y-89805911D01*
X98424088Y-89938299D01*
X98424092Y-89938302D01*
X98579762Y-90042318D01*
X98579768Y-90042321D01*
X98579769Y-90042322D01*
X98752749Y-90113973D01*
X98912881Y-90145825D01*
X98936379Y-90150499D01*
X98936383Y-90150500D01*
X98936384Y-90150500D01*
X99123617Y-90150500D01*
X99123618Y-90150499D01*
X99307251Y-90113973D01*
X99480231Y-90042322D01*
X99635908Y-89938302D01*
X99768302Y-89805908D01*
X99872322Y-89650231D01*
X99943973Y-89477251D01*
X99980500Y-89293616D01*
X99980500Y-89106384D01*
X99943973Y-88922749D01*
X99876091Y-88758868D01*
X101746693Y-88758868D01*
X103248693Y-88758868D01*
X104246693Y-88758868D01*
X105748693Y-88758868D01*
X105748693Y-88006868D01*
X104246693Y-88006868D01*
X104246693Y-88758868D01*
X103248693Y-88758868D01*
X103248693Y-88006868D01*
X101746693Y-88006868D01*
X101746693Y-88758868D01*
X99876091Y-88758868D01*
X99872322Y-88749769D01*
X99872321Y-88749768D01*
X99872318Y-88749762D01*
X99768302Y-88594092D01*
X99768299Y-88594088D01*
X99635911Y-88461700D01*
X99635907Y-88461697D01*
X99480237Y-88357681D01*
X99480228Y-88357676D01*
X99307251Y-88286027D01*
X99307243Y-88286025D01*
X99123620Y-88249500D01*
X99123616Y-88249500D01*
X98936384Y-88249500D01*
X98936379Y-88249500D01*
X98752756Y-88286025D01*
X98752748Y-88286027D01*
X98579771Y-88357676D01*
X98579762Y-88357681D01*
X98424092Y-88461697D01*
X98424088Y-88461700D01*
X98291700Y-88594088D01*
X98291697Y-88594092D01*
X98187681Y-88749762D01*
X98187676Y-88749771D01*
X98116027Y-88922748D01*
X98116025Y-88922756D01*
X98079500Y-89106379D01*
X89450500Y-89106379D01*
X89450500Y-89046384D01*
X89413973Y-88862749D01*
X89342322Y-88689769D01*
X89342321Y-88689768D01*
X89342318Y-88689762D01*
X89238302Y-88534092D01*
X89238299Y-88534088D01*
X89198556Y-88494345D01*
X94246693Y-88494345D01*
X94246693Y-88758868D01*
X95748693Y-88758868D01*
X95748693Y-88006868D01*
X94473484Y-88006868D01*
X94472925Y-88010399D01*
X94468383Y-88029319D01*
X94410015Y-88208958D01*
X94402569Y-88226935D01*
X94316817Y-88395232D01*
X94306650Y-88411822D01*
X94246693Y-88494345D01*
X89198556Y-88494345D01*
X89105911Y-88401700D01*
X89105907Y-88401697D01*
X88950237Y-88297681D01*
X88950228Y-88297676D01*
X88777251Y-88226027D01*
X88777243Y-88226025D01*
X88593620Y-88189500D01*
X88593616Y-88189500D01*
X88406384Y-88189500D01*
X88406379Y-88189500D01*
X88222756Y-88226025D01*
X88222748Y-88226027D01*
X88049771Y-88297676D01*
X88049762Y-88297681D01*
X87894092Y-88401697D01*
X87894088Y-88401700D01*
X87761700Y-88534088D01*
X87761697Y-88534092D01*
X87657681Y-88689762D01*
X87657676Y-88689771D01*
X87586027Y-88862748D01*
X87586025Y-88862756D01*
X87549500Y-89046379D01*
X85273278Y-89046379D01*
X85238694Y-89039500D01*
X85238691Y-89039500D01*
X85061309Y-89039500D01*
X85061306Y-89039500D01*
X84887341Y-89074103D01*
X84887332Y-89074106D01*
X84723459Y-89141983D01*
X84723446Y-89141990D01*
X84575965Y-89240535D01*
X84575961Y-89240538D01*
X84450538Y-89365961D01*
X84450535Y-89365965D01*
X84351990Y-89513446D01*
X84351983Y-89513459D01*
X84284106Y-89677332D01*
X84284103Y-89677341D01*
X84249500Y-89851304D01*
X83248693Y-89851304D01*
X83248693Y-89756868D01*
X81746693Y-89756868D01*
X81746693Y-90891524D01*
X78248693Y-90891524D01*
X78248693Y-89756868D01*
X77560442Y-89756868D01*
X77550015Y-89788958D01*
X77542569Y-89806935D01*
X77456817Y-89975232D01*
X77446650Y-89991822D01*
X77335627Y-90144633D01*
X77322990Y-90159429D01*
X77189429Y-90292990D01*
X77174633Y-90305627D01*
X77021822Y-90416650D01*
X77005232Y-90426817D01*
X76836935Y-90512569D01*
X76818957Y-90520015D01*
X76746693Y-90543494D01*
X75748693Y-90543494D01*
X75748693Y-90484864D01*
X75634768Y-90426817D01*
X75618178Y-90416650D01*
X75465367Y-90305627D01*
X75450571Y-90292990D01*
X75317010Y-90159429D01*
X75304373Y-90144633D01*
X75193350Y-89991822D01*
X75183183Y-89975232D01*
X75173049Y-89955343D01*
X75171714Y-89955145D01*
X75165719Y-89954104D01*
X74934013Y-89908015D01*
X74928076Y-89906682D01*
X74892348Y-89897733D01*
X74886478Y-89896109D01*
X74839582Y-89881882D01*
X74833803Y-89879973D01*
X74799141Y-89867570D01*
X74793465Y-89865380D01*
X74575217Y-89774979D01*
X74569654Y-89772513D01*
X74536575Y-89756868D01*
X74246693Y-89756868D01*
X74246693Y-91258868D01*
X73248693Y-91258868D01*
X73248693Y-90312751D01*
X73242990Y-90319429D01*
X73109429Y-90452990D01*
X73094633Y-90465627D01*
X72941822Y-90576650D01*
X72925232Y-90586817D01*
X72756935Y-90672569D01*
X72738958Y-90680015D01*
X72559319Y-90738383D01*
X72540399Y-90742925D01*
X72353840Y-90772473D01*
X72334442Y-90774000D01*
X72145558Y-90774000D01*
X72126160Y-90772473D01*
X71939601Y-90742925D01*
X71920681Y-90738383D01*
X71746693Y-90681851D01*
X70748693Y-90681851D01*
X70748693Y-89756868D01*
X69703053Y-89756868D01*
X68133996Y-89756868D01*
X68182279Y-89693524D01*
X68221601Y-88758868D01*
X69346595Y-88758868D01*
X70748693Y-88758868D01*
X70748693Y-88006868D01*
X69378232Y-88006868D01*
X69346595Y-88758868D01*
X68221601Y-88758868D01*
X68290227Y-87127653D01*
X68312712Y-87061503D01*
X68367392Y-87018008D01*
X68414117Y-87008868D01*
X74823637Y-87008868D01*
X74890676Y-87028553D01*
G37*
%TD.AperFunction*%
%TD*%
M02*
