%TF.GenerationSoftware,KiCad,Pcbnew,9.0.0*%
%TF.CreationDate,2025-06-05T18:29:18+05:30*%
%TF.ProjectId,MCU datalogger,4d435520-6461-4746-916c-6f676765722e,1*%
%TF.SameCoordinates,Original*%
%TF.FileFunction,Copper,L3,Inr*%
%TF.FilePolarity,Positive*%
%FSLAX46Y46*%
G04 Gerber Fmt 4.6, Leading zero omitted, Abs format (unit mm)*
G04 Created by KiCad (PCBNEW 9.0.0) date 2025-06-05 18:29:18*
%MOMM*%
%LPD*%
G01*
G04 APERTURE LIST*
%TA.AperFunction,ComponentPad*%
%ADD10R,1.700000X1.700000*%
%TD*%
%TA.AperFunction,ComponentPad*%
%ADD11O,1.700000X1.700000*%
%TD*%
%TA.AperFunction,ViaPad*%
%ADD12C,0.800000*%
%TD*%
%TA.AperFunction,ViaPad*%
%ADD13C,0.900000*%
%TD*%
%TA.AperFunction,Conductor*%
%ADD14C,0.300000*%
%TD*%
G04 APERTURE END LIST*
D10*
%TO.N,/Vcc*%
%TO.C,BT1*%
X65786000Y-94564200D03*
D11*
%TO.N,GND*%
X65786000Y-97104200D03*
%TD*%
D10*
%TO.N,GND*%
%TO.C,J1*%
X109601000Y-102235000D03*
D11*
%TO.N,/Vcc*%
X109601000Y-104775000D03*
%TO.N,/SDA*%
X109601000Y-107315000D03*
%TO.N,/SCK*%
X109601000Y-109855000D03*
%TD*%
D10*
%TO.N,/MISO*%
%TO.C,J4*%
X107061000Y-93345000D03*
D11*
%TO.N,/Vcc*%
X109601000Y-93345000D03*
%TO.N,/SCK*%
X107061000Y-95885000D03*
%TO.N,/MOSI*%
X109601000Y-95885000D03*
%TO.N,/RESET*%
X107061000Y-98425000D03*
%TO.N,GND*%
X109601000Y-98425000D03*
%TD*%
D10*
%TO.N,GND*%
%TO.C,J2*%
X97647600Y-113639600D03*
D11*
%TO.N,/Vcc*%
X100187600Y-113639600D03*
%TO.N,/RX*%
X102727600Y-113639600D03*
%TO.N,/TX*%
X105267600Y-113639600D03*
%TD*%
D10*
%TO.N,/D2*%
%TO.C,J3*%
X71628000Y-113690400D03*
D11*
%TO.N,/D3*%
X74168000Y-113690400D03*
%TO.N,/D4*%
X76708000Y-113690400D03*
%TO.N,/D5*%
X79248000Y-113690400D03*
%TO.N,/D6*%
X81788000Y-113690400D03*
%TO.N,/D7*%
X84328000Y-113690400D03*
%TO.N,/D8*%
X86868000Y-113690400D03*
%TO.N,GND*%
X89408000Y-113690400D03*
%TO.N,/Vcc*%
X91948000Y-113690400D03*
%TD*%
D12*
%TO.N,/SDA*%
X80080000Y-91810000D03*
%TO.N,/MISO*%
X90290000Y-102940000D03*
D13*
%TO.N,GND*%
X93180000Y-87710000D03*
X85960000Y-99100000D03*
X85373828Y-95567811D03*
X99300000Y-105880000D03*
X75670000Y-97050000D03*
X102350000Y-90860000D03*
X72240000Y-89450000D03*
X69000000Y-107300000D03*
X76320000Y-89290000D03*
X89663998Y-96250000D03*
X68770000Y-100730000D03*
X98010000Y-90860000D03*
%TO.N,/Vcc*%
X71120000Y-98400000D03*
X99050000Y-100920000D03*
X75430000Y-88020000D03*
X88500000Y-89140000D03*
X100060000Y-97340000D03*
X85240000Y-96710000D03*
X89568402Y-98245228D03*
X68640000Y-91390000D03*
X99030000Y-89200000D03*
X76700000Y-94650000D03*
X68920000Y-110430000D03*
X73820000Y-102400000D03*
X76390000Y-107820000D03*
D12*
%TO.N,Net-(U4-PB6)*%
X80970000Y-99200000D03*
X94850000Y-105850000D03*
X86960000Y-107690000D03*
%TO.N,Net-(U4-PB7)*%
X84290185Y-99290185D03*
X85150000Y-89940000D03*
X86130000Y-104490000D03*
%TO.N,Net-(U4-AREF)*%
X96840000Y-105990000D03*
X88888151Y-97029787D03*
%TO.N,/SCK*%
X87150000Y-98010000D03*
X91720000Y-101250000D03*
X73660000Y-98190000D03*
X95750000Y-101200000D03*
X105900000Y-103200000D03*
%TO.N,/SDA*%
X107100000Y-104680000D03*
X97790000Y-97530000D03*
X96354716Y-94770000D03*
X89180000Y-94810000D03*
%TO.N,/RESET*%
X86400000Y-94880000D03*
X102730000Y-94520000D03*
%TO.N,/MOSI*%
X88973730Y-100120644D03*
X94990000Y-102320000D03*
%TD*%
D14*
%TO.N,/SDA*%
X86180000Y-91810000D02*
X80080000Y-91810000D01*
X89180000Y-94810000D02*
X86180000Y-91810000D01*
%TO.N,/MISO*%
X95490000Y-99430000D02*
X91980000Y-102940000D01*
X101370000Y-99430000D02*
X95490000Y-99430000D01*
X107061000Y-93739000D02*
X101370000Y-99430000D01*
X107061000Y-93345000D02*
X107061000Y-93739000D01*
X91980000Y-102940000D02*
X90290000Y-102940000D01*
%TO.N,/SCK*%
X97750000Y-103200000D02*
X95750000Y-101200000D01*
X105900000Y-103200000D02*
X97750000Y-103200000D01*
X84837918Y-98010000D02*
X73840000Y-98010000D01*
X85562082Y-98030000D02*
X84857918Y-98030000D01*
X73840000Y-98010000D02*
X73660000Y-98190000D01*
X84857918Y-98030000D02*
X84837918Y-98010000D01*
X85582082Y-98010000D02*
X85562082Y-98030000D01*
X87150000Y-98010000D02*
X85582082Y-98010000D01*
%TD*%
%TA.AperFunction,Conductor*%
%TO.N,/Vcc*%
G36*
X92340375Y-87028553D02*
G01*
X92386130Y-87081357D01*
X92396074Y-87150515D01*
X92376439Y-87201758D01*
X92337680Y-87259764D01*
X92337676Y-87259771D01*
X92266027Y-87432748D01*
X92266025Y-87432756D01*
X92229500Y-87616379D01*
X92229500Y-87803620D01*
X92266025Y-87987243D01*
X92266027Y-87987251D01*
X92337676Y-88160228D01*
X92337681Y-88160237D01*
X92441697Y-88315907D01*
X92441700Y-88315911D01*
X92574088Y-88448299D01*
X92574092Y-88448302D01*
X92729762Y-88552318D01*
X92729768Y-88552321D01*
X92729769Y-88552322D01*
X92902749Y-88623973D01*
X93045069Y-88652282D01*
X93086379Y-88660499D01*
X93086383Y-88660500D01*
X93086384Y-88660500D01*
X93273617Y-88660500D01*
X93273618Y-88660499D01*
X93457251Y-88623973D01*
X93630231Y-88552322D01*
X93785908Y-88448302D01*
X93918302Y-88315908D01*
X94022322Y-88160231D01*
X94093973Y-87987251D01*
X94130500Y-87803616D01*
X94130500Y-87616384D01*
X94093973Y-87432749D01*
X94022322Y-87259769D01*
X94022319Y-87259764D01*
X93983561Y-87201758D01*
X93962684Y-87135081D01*
X93981169Y-87067701D01*
X94033148Y-87021011D01*
X94086664Y-87008868D01*
X107548335Y-87008868D01*
X107615374Y-87028553D01*
X107661129Y-87081357D01*
X107672332Y-87132071D01*
X107698914Y-91270076D01*
X107698914Y-91270075D01*
X107698915Y-91270077D01*
X111524364Y-91234981D01*
X111591579Y-91254049D01*
X111637816Y-91306431D01*
X111649499Y-91358975D01*
X111649499Y-111437182D01*
X111647015Y-111461875D01*
X111646403Y-111464882D01*
X111649266Y-111511526D01*
X111649499Y-111519121D01*
X111649499Y-111565894D01*
X111650295Y-111568863D01*
X111654287Y-111593356D01*
X111654475Y-111596419D01*
X111654476Y-111596424D01*
X111669309Y-111640729D01*
X111671498Y-111647999D01*
X111683606Y-111693184D01*
X111683610Y-111693192D01*
X111685146Y-111695853D01*
X111695340Y-111718477D01*
X111696312Y-111721380D01*
X111696314Y-111721384D01*
X111722115Y-111760349D01*
X111726113Y-111766809D01*
X111753562Y-111814352D01*
X111752025Y-111815239D01*
X111773611Y-111871067D01*
X111759577Y-111939513D01*
X111710766Y-111989505D01*
X111651618Y-112005381D01*
X109708915Y-112030077D01*
X108088914Y-113310076D01*
X108088914Y-113310078D01*
X108080562Y-116066271D01*
X108060675Y-116133250D01*
X108007732Y-116178845D01*
X107956563Y-116189895D01*
X68556315Y-116189895D01*
X68489276Y-116170210D01*
X68443521Y-116117406D01*
X68432371Y-116062171D01*
X68458517Y-115191895D01*
X94248233Y-115191895D01*
X95467873Y-115191895D01*
X95460795Y-115178933D01*
X95456833Y-115171019D01*
X95434575Y-115122282D01*
X95431187Y-115114102D01*
X95357531Y-114916618D01*
X95355052Y-114909279D01*
X95341447Y-114864428D01*
X95339432Y-114856952D01*
X95325084Y-114796237D01*
X95323539Y-114788645D01*
X95318098Y-114756868D01*
X94248233Y-114756868D01*
X94248233Y-115191895D01*
X68458517Y-115191895D01*
X68464580Y-114990100D01*
X68530601Y-112792535D01*
X70277500Y-112792535D01*
X70277500Y-114588270D01*
X70277501Y-114588276D01*
X70283908Y-114647883D01*
X70334202Y-114782728D01*
X70334206Y-114782735D01*
X70420452Y-114897944D01*
X70420455Y-114897947D01*
X70535664Y-114984193D01*
X70535671Y-114984197D01*
X70670517Y-115034491D01*
X70670516Y-115034491D01*
X70677444Y-115035235D01*
X70730127Y-115040900D01*
X72525872Y-115040899D01*
X72585483Y-115034491D01*
X72720331Y-114984196D01*
X72835546Y-114897946D01*
X72921796Y-114782731D01*
X72970810Y-114651316D01*
X73012681Y-114595384D01*
X73078145Y-114570966D01*
X73146418Y-114585817D01*
X73174673Y-114606969D01*
X73288213Y-114720509D01*
X73460179Y-114845448D01*
X73460181Y-114845449D01*
X73460184Y-114845451D01*
X73649588Y-114941957D01*
X73851757Y-115007646D01*
X74061713Y-115040900D01*
X74061714Y-115040900D01*
X74274286Y-115040900D01*
X74274287Y-115040900D01*
X74484243Y-115007646D01*
X74686412Y-114941957D01*
X74875816Y-114845451D01*
X74946330Y-114794220D01*
X75047786Y-114720509D01*
X75047788Y-114720506D01*
X75047792Y-114720504D01*
X75198104Y-114570192D01*
X75198106Y-114570188D01*
X75198109Y-114570186D01*
X75323048Y-114398220D01*
X75323047Y-114398220D01*
X75323051Y-114398216D01*
X75327514Y-114389454D01*
X75375488Y-114338659D01*
X75443308Y-114321863D01*
X75509444Y-114344399D01*
X75548486Y-114389456D01*
X75552951Y-114398220D01*
X75677890Y-114570186D01*
X75828213Y-114720509D01*
X76000179Y-114845448D01*
X76000181Y-114845449D01*
X76000184Y-114845451D01*
X76189588Y-114941957D01*
X76391757Y-115007646D01*
X76601713Y-115040900D01*
X76601714Y-115040900D01*
X76814286Y-115040900D01*
X76814287Y-115040900D01*
X77024243Y-115007646D01*
X77226412Y-114941957D01*
X77415816Y-114845451D01*
X77486330Y-114794220D01*
X77587786Y-114720509D01*
X77587788Y-114720506D01*
X77587792Y-114720504D01*
X77738104Y-114570192D01*
X77738106Y-114570188D01*
X77738109Y-114570186D01*
X77863048Y-114398220D01*
X77863047Y-114398220D01*
X77863051Y-114398216D01*
X77867514Y-114389454D01*
X77915488Y-114338659D01*
X77983308Y-114321863D01*
X78049444Y-114344399D01*
X78088486Y-114389456D01*
X78092951Y-114398220D01*
X78217890Y-114570186D01*
X78368213Y-114720509D01*
X78540179Y-114845448D01*
X78540181Y-114845449D01*
X78540184Y-114845451D01*
X78729588Y-114941957D01*
X78931757Y-115007646D01*
X79141713Y-115040900D01*
X79141714Y-115040900D01*
X79354286Y-115040900D01*
X79354287Y-115040900D01*
X79564243Y-115007646D01*
X79766412Y-114941957D01*
X79955816Y-114845451D01*
X80026330Y-114794220D01*
X80127786Y-114720509D01*
X80127788Y-114720506D01*
X80127792Y-114720504D01*
X80278104Y-114570192D01*
X80278106Y-114570188D01*
X80278109Y-114570186D01*
X80403048Y-114398220D01*
X80403047Y-114398220D01*
X80403051Y-114398216D01*
X80407514Y-114389454D01*
X80455488Y-114338659D01*
X80523308Y-114321863D01*
X80589444Y-114344399D01*
X80628486Y-114389456D01*
X80632951Y-114398220D01*
X80757890Y-114570186D01*
X80908213Y-114720509D01*
X81080179Y-114845448D01*
X81080181Y-114845449D01*
X81080184Y-114845451D01*
X81269588Y-114941957D01*
X81471757Y-115007646D01*
X81681713Y-115040900D01*
X81681714Y-115040900D01*
X81894286Y-115040900D01*
X81894287Y-115040900D01*
X82104243Y-115007646D01*
X82306412Y-114941957D01*
X82495816Y-114845451D01*
X82566330Y-114794220D01*
X82667786Y-114720509D01*
X82667788Y-114720506D01*
X82667792Y-114720504D01*
X82818104Y-114570192D01*
X82818106Y-114570188D01*
X82818109Y-114570186D01*
X82943048Y-114398220D01*
X82943047Y-114398220D01*
X82943051Y-114398216D01*
X82947514Y-114389454D01*
X82995488Y-114338659D01*
X83063308Y-114321863D01*
X83129444Y-114344399D01*
X83168486Y-114389456D01*
X83172951Y-114398220D01*
X83297890Y-114570186D01*
X83448213Y-114720509D01*
X83620179Y-114845448D01*
X83620181Y-114845449D01*
X83620184Y-114845451D01*
X83809588Y-114941957D01*
X84011757Y-115007646D01*
X84221713Y-115040900D01*
X84221714Y-115040900D01*
X84434286Y-115040900D01*
X84434287Y-115040900D01*
X84644243Y-115007646D01*
X84846412Y-114941957D01*
X85035816Y-114845451D01*
X85106330Y-114794220D01*
X85207786Y-114720509D01*
X85207788Y-114720506D01*
X85207792Y-114720504D01*
X85358104Y-114570192D01*
X85358106Y-114570188D01*
X85358109Y-114570186D01*
X85483048Y-114398220D01*
X85483047Y-114398220D01*
X85483051Y-114398216D01*
X85487514Y-114389454D01*
X85535488Y-114338659D01*
X85603308Y-114321863D01*
X85669444Y-114344399D01*
X85708486Y-114389456D01*
X85712951Y-114398220D01*
X85837890Y-114570186D01*
X85988213Y-114720509D01*
X86160179Y-114845448D01*
X86160181Y-114845449D01*
X86160184Y-114845451D01*
X86349588Y-114941957D01*
X86551757Y-115007646D01*
X86761713Y-115040900D01*
X86761714Y-115040900D01*
X86974286Y-115040900D01*
X86974287Y-115040900D01*
X87184243Y-115007646D01*
X87386412Y-114941957D01*
X87575816Y-114845451D01*
X87646330Y-114794220D01*
X87747786Y-114720509D01*
X87747788Y-114720506D01*
X87747792Y-114720504D01*
X87898104Y-114570192D01*
X87898106Y-114570188D01*
X87898109Y-114570186D01*
X88023048Y-114398220D01*
X88023047Y-114398220D01*
X88023051Y-114398216D01*
X88027514Y-114389454D01*
X88075488Y-114338659D01*
X88143308Y-114321863D01*
X88209444Y-114344399D01*
X88248486Y-114389456D01*
X88252951Y-114398220D01*
X88377890Y-114570186D01*
X88528213Y-114720509D01*
X88700179Y-114845448D01*
X88700181Y-114845449D01*
X88700184Y-114845451D01*
X88889588Y-114941957D01*
X89091757Y-115007646D01*
X89301713Y-115040900D01*
X89301714Y-115040900D01*
X89514286Y-115040900D01*
X89514287Y-115040900D01*
X89724243Y-115007646D01*
X89926412Y-114941957D01*
X90115816Y-114845451D01*
X90186330Y-114794220D01*
X90287786Y-114720509D01*
X90287788Y-114720506D01*
X90287792Y-114720504D01*
X90438104Y-114570192D01*
X90438106Y-114570188D01*
X90438109Y-114570186D01*
X90505515Y-114477407D01*
X90563051Y-114398216D01*
X90567793Y-114388908D01*
X90615763Y-114338111D01*
X90683583Y-114321311D01*
X90749719Y-114343845D01*
X90788763Y-114388900D01*
X90793377Y-114397955D01*
X90918272Y-114569859D01*
X90918276Y-114569864D01*
X91068535Y-114720123D01*
X91068540Y-114720127D01*
X91240442Y-114845020D01*
X91429782Y-114941495D01*
X91631871Y-115007157D01*
X91698000Y-115017631D01*
X91698000Y-114123412D01*
X91755007Y-114156325D01*
X91882174Y-114190400D01*
X92013826Y-114190400D01*
X92140993Y-114156325D01*
X92198000Y-114123412D01*
X92198000Y-115017630D01*
X92264126Y-115007157D01*
X92264129Y-115007157D01*
X92466217Y-114941495D01*
X92655557Y-114845020D01*
X92827459Y-114720127D01*
X92827464Y-114720123D01*
X92977723Y-114569864D01*
X92977727Y-114569859D01*
X93102620Y-114397957D01*
X93199095Y-114208617D01*
X93264757Y-114006529D01*
X93264757Y-114006526D01*
X93275231Y-113940400D01*
X92381012Y-113940400D01*
X92413925Y-113883393D01*
X92448000Y-113756226D01*
X92448000Y-113624574D01*
X92413925Y-113497407D01*
X92381012Y-113440400D01*
X93275231Y-113440400D01*
X93264757Y-113374273D01*
X93264757Y-113374270D01*
X93209443Y-113204029D01*
X94248233Y-113204029D01*
X94295628Y-113503270D01*
X94292499Y-113556327D01*
X94254685Y-113690400D01*
X94273996Y-113758868D01*
X95299101Y-113758868D01*
X95299100Y-112741735D01*
X96297100Y-112741735D01*
X96297100Y-114537470D01*
X96297101Y-114537476D01*
X96303508Y-114597083D01*
X96353802Y-114731928D01*
X96353806Y-114731935D01*
X96440052Y-114847144D01*
X96440055Y-114847147D01*
X96555264Y-114933393D01*
X96555271Y-114933397D01*
X96690117Y-114983691D01*
X96690116Y-114983691D01*
X96694786Y-114984193D01*
X96749727Y-114990100D01*
X98545472Y-114990099D01*
X98605083Y-114983691D01*
X98739931Y-114933396D01*
X98855146Y-114847146D01*
X98941396Y-114731931D01*
X98990602Y-114600001D01*
X99032472Y-114544068D01*
X99097937Y-114519650D01*
X99166210Y-114534501D01*
X99194465Y-114555653D01*
X99308135Y-114669323D01*
X99308140Y-114669327D01*
X99480042Y-114794220D01*
X99669382Y-114890695D01*
X99871471Y-114956357D01*
X99937600Y-114966831D01*
X99937600Y-114072612D01*
X99994607Y-114105525D01*
X100121774Y-114139600D01*
X100253426Y-114139600D01*
X100380593Y-114105525D01*
X100437600Y-114072612D01*
X100437600Y-114966830D01*
X100503726Y-114956357D01*
X100503729Y-114956357D01*
X100705817Y-114890695D01*
X100895157Y-114794220D01*
X101067059Y-114669327D01*
X101067064Y-114669323D01*
X101217323Y-114519064D01*
X101217327Y-114519059D01*
X101342220Y-114347158D01*
X101346832Y-114338107D01*
X101394805Y-114287309D01*
X101462625Y-114270512D01*
X101528761Y-114293047D01*
X101567804Y-114338104D01*
X101572549Y-114347417D01*
X101697490Y-114519386D01*
X101847813Y-114669709D01*
X102019779Y-114794648D01*
X102019781Y-114794649D01*
X102019784Y-114794651D01*
X102209188Y-114891157D01*
X102411357Y-114956846D01*
X102621313Y-114990100D01*
X102621314Y-114990100D01*
X102833886Y-114990100D01*
X102833887Y-114990100D01*
X103043843Y-114956846D01*
X103246012Y-114891157D01*
X103435416Y-114794651D01*
X103464089Y-114773819D01*
X103607386Y-114669709D01*
X103607388Y-114669706D01*
X103607392Y-114669704D01*
X103757704Y-114519392D01*
X103757706Y-114519388D01*
X103757709Y-114519386D01*
X103882648Y-114347420D01*
X103882650Y-114347417D01*
X103882651Y-114347416D01*
X103887114Y-114338654D01*
X103935088Y-114287859D01*
X104002908Y-114271063D01*
X104069044Y-114293599D01*
X104108084Y-114338654D01*
X104111012Y-114344399D01*
X104112551Y-114347420D01*
X104237490Y-114519386D01*
X104387813Y-114669709D01*
X104559779Y-114794648D01*
X104559781Y-114794649D01*
X104559784Y-114794651D01*
X104749188Y-114891157D01*
X104951357Y-114956846D01*
X105161313Y-114990100D01*
X105161314Y-114990100D01*
X105373886Y-114990100D01*
X105373887Y-114990100D01*
X105583843Y-114956846D01*
X105786012Y-114891157D01*
X105975416Y-114794651D01*
X106004089Y-114773819D01*
X106147386Y-114669709D01*
X106147388Y-114669706D01*
X106147392Y-114669704D01*
X106297704Y-114519392D01*
X106297706Y-114519388D01*
X106297709Y-114519386D01*
X106422648Y-114347420D01*
X106422650Y-114347417D01*
X106422651Y-114347416D01*
X106519157Y-114158012D01*
X106584846Y-113955843D01*
X106618100Y-113745887D01*
X106618100Y-113533313D01*
X106584846Y-113323357D01*
X106519157Y-113121188D01*
X106422651Y-112931784D01*
X106422649Y-112931781D01*
X106422648Y-112931779D01*
X106297709Y-112759813D01*
X106147386Y-112609490D01*
X105975420Y-112484551D01*
X105786014Y-112388044D01*
X105786013Y-112388043D01*
X105786012Y-112388043D01*
X105583843Y-112322354D01*
X105583841Y-112322353D01*
X105583840Y-112322353D01*
X105422557Y-112296808D01*
X105373887Y-112289100D01*
X105161313Y-112289100D01*
X105112642Y-112296808D01*
X104951360Y-112322353D01*
X104877631Y-112346309D01*
X104795015Y-112373153D01*
X104749185Y-112388044D01*
X104559779Y-112484551D01*
X104387813Y-112609490D01*
X104237490Y-112759813D01*
X104112549Y-112931782D01*
X104108084Y-112940546D01*
X104060109Y-112991342D01*
X103992288Y-113008136D01*
X103926153Y-112985598D01*
X103887116Y-112940546D01*
X103882650Y-112931782D01*
X103757709Y-112759813D01*
X103607386Y-112609490D01*
X103435420Y-112484551D01*
X103246014Y-112388044D01*
X103246013Y-112388043D01*
X103246012Y-112388043D01*
X103043843Y-112322354D01*
X103043841Y-112322353D01*
X103043840Y-112322353D01*
X102882557Y-112296808D01*
X102833887Y-112289100D01*
X102621313Y-112289100D01*
X102572642Y-112296808D01*
X102411360Y-112322353D01*
X102337631Y-112346309D01*
X102255015Y-112373153D01*
X102209185Y-112388044D01*
X102019779Y-112484551D01*
X101847813Y-112609490D01*
X101697490Y-112759813D01*
X101572549Y-112931782D01*
X101567802Y-112941099D01*
X101519827Y-112991893D01*
X101452005Y-113008687D01*
X101385871Y-112986148D01*
X101346834Y-112941095D01*
X101342222Y-112932044D01*
X101217327Y-112760140D01*
X101217323Y-112760135D01*
X101067064Y-112609876D01*
X101067059Y-112609872D01*
X100895157Y-112484979D01*
X100705815Y-112388503D01*
X100503724Y-112322841D01*
X100437600Y-112312368D01*
X100437600Y-113206588D01*
X100380593Y-113173675D01*
X100253426Y-113139600D01*
X100121774Y-113139600D01*
X99994607Y-113173675D01*
X99937600Y-113206588D01*
X99937600Y-112312368D01*
X99937599Y-112312368D01*
X99871475Y-112322841D01*
X99669384Y-112388503D01*
X99480042Y-112484979D01*
X99308141Y-112609871D01*
X99194465Y-112723547D01*
X99133142Y-112757031D01*
X99063450Y-112752047D01*
X99007517Y-112710175D01*
X98990602Y-112679198D01*
X98989006Y-112674920D01*
X98941396Y-112547269D01*
X98941395Y-112547268D01*
X98941393Y-112547264D01*
X98855147Y-112432055D01*
X98855144Y-112432052D01*
X98739935Y-112345806D01*
X98739928Y-112345802D01*
X98605082Y-112295508D01*
X98605083Y-112295508D01*
X98545483Y-112289101D01*
X98545481Y-112289100D01*
X98545473Y-112289100D01*
X98545464Y-112289100D01*
X96749729Y-112289100D01*
X96749723Y-112289101D01*
X96690116Y-112295508D01*
X96555271Y-112345802D01*
X96555264Y-112345806D01*
X96440055Y-112432052D01*
X96440052Y-112432055D01*
X96353806Y-112547264D01*
X96353802Y-112547271D01*
X96303508Y-112682117D01*
X96297101Y-112741716D01*
X96297100Y-112741735D01*
X95299100Y-112741735D01*
X95299100Y-112728352D01*
X95299145Y-112725028D01*
X95299684Y-112704927D01*
X95299817Y-112701607D01*
X95301249Y-112674920D01*
X95301471Y-112671611D01*
X95303081Y-112651618D01*
X95303392Y-112648315D01*
X95314562Y-112544425D01*
X95315629Y-112536757D01*
X95323536Y-112490571D01*
X95325081Y-112482981D01*
X95339426Y-112422270D01*
X95341442Y-112414791D01*
X95355050Y-112369928D01*
X95357529Y-112362588D01*
X95396959Y-112256868D01*
X94248233Y-112256868D01*
X94248233Y-113204029D01*
X93209443Y-113204029D01*
X93199095Y-113172182D01*
X93102620Y-112982842D01*
X92977727Y-112810940D01*
X92977723Y-112810935D01*
X92827464Y-112660676D01*
X92827459Y-112660672D01*
X92655557Y-112535779D01*
X92466215Y-112439303D01*
X92264124Y-112373641D01*
X92198000Y-112363168D01*
X92198000Y-113257388D01*
X92140993Y-113224475D01*
X92013826Y-113190400D01*
X91882174Y-113190400D01*
X91755007Y-113224475D01*
X91698000Y-113257388D01*
X91698000Y-112363168D01*
X91697999Y-112363168D01*
X91631875Y-112373641D01*
X91429784Y-112439303D01*
X91240442Y-112535779D01*
X91068540Y-112660672D01*
X91068535Y-112660676D01*
X90918276Y-112810935D01*
X90918272Y-112810940D01*
X90793378Y-112982843D01*
X90788762Y-112991902D01*
X90740784Y-113042695D01*
X90672963Y-113059487D01*
X90606829Y-113036946D01*
X90567794Y-112991893D01*
X90563051Y-112982584D01*
X90563049Y-112982581D01*
X90563048Y-112982579D01*
X90438109Y-112810613D01*
X90287786Y-112660290D01*
X90115820Y-112535351D01*
X89926414Y-112438844D01*
X89926413Y-112438843D01*
X89926412Y-112438843D01*
X89724243Y-112373154D01*
X89724241Y-112373153D01*
X89724240Y-112373153D01*
X89562957Y-112347608D01*
X89514287Y-112339900D01*
X89301713Y-112339900D01*
X89253042Y-112347608D01*
X89091760Y-112373153D01*
X88990672Y-112405998D01*
X88910489Y-112432052D01*
X88889585Y-112438844D01*
X88700179Y-112535351D01*
X88528213Y-112660290D01*
X88377890Y-112810613D01*
X88252949Y-112982582D01*
X88248484Y-112991346D01*
X88200509Y-113042142D01*
X88132688Y-113058936D01*
X88066553Y-113036398D01*
X88027516Y-112991346D01*
X88023050Y-112982582D01*
X87898109Y-112810613D01*
X87747786Y-112660290D01*
X87575820Y-112535351D01*
X87386414Y-112438844D01*
X87386413Y-112438843D01*
X87386412Y-112438843D01*
X87184243Y-112373154D01*
X87184241Y-112373153D01*
X87184240Y-112373153D01*
X87022957Y-112347608D01*
X86974287Y-112339900D01*
X86761713Y-112339900D01*
X86713042Y-112347608D01*
X86551760Y-112373153D01*
X86450672Y-112405998D01*
X86370489Y-112432052D01*
X86349585Y-112438844D01*
X86160179Y-112535351D01*
X85988213Y-112660290D01*
X85837890Y-112810613D01*
X85712949Y-112982582D01*
X85708484Y-112991346D01*
X85660509Y-113042142D01*
X85592688Y-113058936D01*
X85526553Y-113036398D01*
X85487516Y-112991346D01*
X85483050Y-112982582D01*
X85358109Y-112810613D01*
X85207786Y-112660290D01*
X85035820Y-112535351D01*
X84846414Y-112438844D01*
X84846413Y-112438843D01*
X84846412Y-112438843D01*
X84644243Y-112373154D01*
X84644241Y-112373153D01*
X84644240Y-112373153D01*
X84482957Y-112347608D01*
X84434287Y-112339900D01*
X84221713Y-112339900D01*
X84173042Y-112347608D01*
X84011760Y-112373153D01*
X83910672Y-112405998D01*
X83830489Y-112432052D01*
X83809585Y-112438844D01*
X83620179Y-112535351D01*
X83448213Y-112660290D01*
X83297890Y-112810613D01*
X83172949Y-112982582D01*
X83168484Y-112991346D01*
X83120509Y-113042142D01*
X83052688Y-113058936D01*
X82986553Y-113036398D01*
X82947516Y-112991346D01*
X82943050Y-112982582D01*
X82818109Y-112810613D01*
X82667786Y-112660290D01*
X82495820Y-112535351D01*
X82306414Y-112438844D01*
X82306413Y-112438843D01*
X82306412Y-112438843D01*
X82104243Y-112373154D01*
X82104241Y-112373153D01*
X82104240Y-112373153D01*
X81942957Y-112347608D01*
X81894287Y-112339900D01*
X81681713Y-112339900D01*
X81633042Y-112347608D01*
X81471760Y-112373153D01*
X81370672Y-112405998D01*
X81290489Y-112432052D01*
X81269585Y-112438844D01*
X81080179Y-112535351D01*
X80908213Y-112660290D01*
X80757890Y-112810613D01*
X80632949Y-112982582D01*
X80628484Y-112991346D01*
X80580509Y-113042142D01*
X80512688Y-113058936D01*
X80446553Y-113036398D01*
X80407516Y-112991346D01*
X80403050Y-112982582D01*
X80278109Y-112810613D01*
X80127786Y-112660290D01*
X79955820Y-112535351D01*
X79766414Y-112438844D01*
X79766413Y-112438843D01*
X79766412Y-112438843D01*
X79564243Y-112373154D01*
X79564241Y-112373153D01*
X79564240Y-112373153D01*
X79402957Y-112347608D01*
X79354287Y-112339900D01*
X79141713Y-112339900D01*
X79093042Y-112347608D01*
X78931760Y-112373153D01*
X78830672Y-112405998D01*
X78750489Y-112432052D01*
X78729585Y-112438844D01*
X78540179Y-112535351D01*
X78368213Y-112660290D01*
X78217890Y-112810613D01*
X78092949Y-112982582D01*
X78088484Y-112991346D01*
X78040509Y-113042142D01*
X77972688Y-113058936D01*
X77906553Y-113036398D01*
X77867516Y-112991346D01*
X77863050Y-112982582D01*
X77738109Y-112810613D01*
X77587786Y-112660290D01*
X77415820Y-112535351D01*
X77226414Y-112438844D01*
X77226413Y-112438843D01*
X77226412Y-112438843D01*
X77024243Y-112373154D01*
X77024241Y-112373153D01*
X77024240Y-112373153D01*
X76862957Y-112347608D01*
X76814287Y-112339900D01*
X76601713Y-112339900D01*
X76553042Y-112347608D01*
X76391760Y-112373153D01*
X76290672Y-112405998D01*
X76210489Y-112432052D01*
X76189585Y-112438844D01*
X76000179Y-112535351D01*
X75828213Y-112660290D01*
X75677890Y-112810613D01*
X75552949Y-112982582D01*
X75548484Y-112991346D01*
X75500509Y-113042142D01*
X75432688Y-113058936D01*
X75366553Y-113036398D01*
X75327516Y-112991346D01*
X75323050Y-112982582D01*
X75198109Y-112810613D01*
X75047786Y-112660290D01*
X74875820Y-112535351D01*
X74686414Y-112438844D01*
X74686413Y-112438843D01*
X74686412Y-112438843D01*
X74484243Y-112373154D01*
X74484241Y-112373153D01*
X74484240Y-112373153D01*
X74322957Y-112347608D01*
X74274287Y-112339900D01*
X74061713Y-112339900D01*
X74013042Y-112347608D01*
X73851760Y-112373153D01*
X73750672Y-112405998D01*
X73670489Y-112432052D01*
X73649585Y-112438844D01*
X73460179Y-112535351D01*
X73288215Y-112660289D01*
X73174673Y-112773831D01*
X73113350Y-112807315D01*
X73043658Y-112802331D01*
X72987725Y-112760459D01*
X72970810Y-112729482D01*
X72921797Y-112598071D01*
X72921793Y-112598064D01*
X72835547Y-112482855D01*
X72835544Y-112482852D01*
X72720335Y-112396606D01*
X72720328Y-112396602D01*
X72585482Y-112346308D01*
X72585483Y-112346308D01*
X72525883Y-112339901D01*
X72525881Y-112339900D01*
X72525873Y-112339900D01*
X72525864Y-112339900D01*
X70730129Y-112339900D01*
X70730123Y-112339901D01*
X70670516Y-112346308D01*
X70535671Y-112396602D01*
X70535664Y-112396606D01*
X70420455Y-112482852D01*
X70420452Y-112482855D01*
X70334206Y-112598064D01*
X70334202Y-112598071D01*
X70283908Y-112732917D01*
X70277501Y-112792516D01*
X70277500Y-112792535D01*
X68530601Y-112792535D01*
X68558915Y-111850077D01*
X68558914Y-111850076D01*
X68558915Y-111850076D01*
X64243661Y-111832245D01*
X64176703Y-111812284D01*
X64131167Y-111759291D01*
X64120176Y-111708987D01*
X64117503Y-111258868D01*
X69954346Y-111258868D01*
X70750233Y-111258868D01*
X71748233Y-111258868D01*
X73250233Y-111258868D01*
X74248233Y-111258868D01*
X75750233Y-111258868D01*
X76748233Y-111258868D01*
X78250233Y-111258868D01*
X79248233Y-111258868D01*
X80750233Y-111258868D01*
X81748233Y-111258868D01*
X83250233Y-111258868D01*
X84248233Y-111258868D01*
X85750233Y-111258868D01*
X86748233Y-111258868D01*
X88250233Y-111258868D01*
X89248233Y-111258868D01*
X90750233Y-111258868D01*
X91748233Y-111258868D01*
X93250233Y-111258868D01*
X94248233Y-111258868D01*
X95750233Y-111258868D01*
X96748233Y-111258868D01*
X98250233Y-111258868D01*
X99248233Y-111258868D01*
X100750233Y-111258868D01*
X101748233Y-111258868D01*
X103250233Y-111258868D01*
X104248233Y-111258868D01*
X105750233Y-111258868D01*
X106748233Y-111258868D01*
X107718064Y-111258868D01*
X107627026Y-111133565D01*
X107624240Y-111129568D01*
X107607874Y-111105073D01*
X107605250Y-111100973D01*
X107584769Y-111067550D01*
X107582307Y-111063350D01*
X107567917Y-111037654D01*
X107565622Y-111033361D01*
X107451314Y-110809019D01*
X107449189Y-110804636D01*
X107436846Y-110777861D01*
X107434891Y-110773392D01*
X107419893Y-110737175D01*
X107418121Y-110732647D01*
X107407936Y-110705037D01*
X107406342Y-110700440D01*
X107328545Y-110461007D01*
X107327131Y-110456347D01*
X107319138Y-110428005D01*
X107317911Y-110423300D01*
X107308758Y-110385183D01*
X107307713Y-110380423D01*
X107301964Y-110351523D01*
X107301108Y-110346728D01*
X107261723Y-110098059D01*
X107261056Y-110093236D01*
X107257596Y-110064003D01*
X107257119Y-110059165D01*
X107254041Y-110020086D01*
X107253754Y-110015221D01*
X107252596Y-109985769D01*
X107252500Y-109980897D01*
X107252500Y-109756868D01*
X106748233Y-109756868D01*
X106748233Y-111258868D01*
X105750233Y-111258868D01*
X105750233Y-109756868D01*
X104248233Y-109756868D01*
X104248233Y-111258868D01*
X103250233Y-111258868D01*
X103250233Y-109756868D01*
X101748233Y-109756868D01*
X101748233Y-111258868D01*
X100750233Y-111258868D01*
X100750233Y-109756868D01*
X99248233Y-109756868D01*
X99248233Y-111258868D01*
X98250233Y-111258868D01*
X98250233Y-109756868D01*
X96748233Y-109756868D01*
X96748233Y-111258868D01*
X95750233Y-111258868D01*
X95750233Y-109756868D01*
X94248233Y-109756868D01*
X94248233Y-111258868D01*
X93250233Y-111258868D01*
X93250233Y-109756868D01*
X91748233Y-109756868D01*
X91748233Y-111258868D01*
X90750233Y-111258868D01*
X90750233Y-109756868D01*
X89248233Y-109756868D01*
X89248233Y-111258868D01*
X88250233Y-111258868D01*
X88250233Y-109756868D01*
X86748233Y-109756868D01*
X86748233Y-111258868D01*
X85750233Y-111258868D01*
X85750233Y-109756868D01*
X84248233Y-109756868D01*
X84248233Y-111258868D01*
X83250233Y-111258868D01*
X83250233Y-109756868D01*
X81748233Y-109756868D01*
X81748233Y-111258868D01*
X80750233Y-111258868D01*
X80750233Y-109756868D01*
X79248233Y-109756868D01*
X79248233Y-111258868D01*
X78250233Y-111258868D01*
X78250233Y-109756868D01*
X76748233Y-109756868D01*
X76748233Y-111258868D01*
X75750233Y-111258868D01*
X75750233Y-109756868D01*
X74248233Y-109756868D01*
X74248233Y-111258868D01*
X73250233Y-111258868D01*
X73250233Y-109756868D01*
X71748233Y-109756868D01*
X71748233Y-111258868D01*
X70750233Y-111258868D01*
X70750233Y-109756868D01*
X70062982Y-109756868D01*
X70142569Y-109913065D01*
X70150015Y-109931042D01*
X70208383Y-110110681D01*
X70212925Y-110129601D01*
X70242473Y-110316160D01*
X70244000Y-110335558D01*
X70244000Y-110524442D01*
X70242473Y-110543840D01*
X70212925Y-110730399D01*
X70208383Y-110749319D01*
X70150015Y-110928958D01*
X70142569Y-110946935D01*
X70056817Y-111115232D01*
X70046650Y-111131822D01*
X69954346Y-111258868D01*
X64117503Y-111258868D01*
X64114294Y-110718585D01*
X66748233Y-110718585D01*
X67625778Y-110722211D01*
X67597527Y-110543840D01*
X67596000Y-110524442D01*
X67596000Y-110335558D01*
X67597527Y-110316160D01*
X67627075Y-110129601D01*
X67631617Y-110110681D01*
X67689985Y-109931042D01*
X67697431Y-109913065D01*
X67777018Y-109756868D01*
X66748233Y-109756868D01*
X66748233Y-110718585D01*
X64114294Y-110718585D01*
X64108582Y-109756868D01*
X65106599Y-109756868D01*
X65112269Y-110711824D01*
X65750233Y-110714460D01*
X65750233Y-109756868D01*
X65106599Y-109756868D01*
X64108582Y-109756868D01*
X64093734Y-107256868D01*
X65091751Y-107256868D01*
X65100672Y-108758868D01*
X65750233Y-108758868D01*
X66748233Y-108758868D01*
X67703273Y-108758868D01*
X71748233Y-108758868D01*
X73250233Y-108758868D01*
X74248233Y-108758868D01*
X75456449Y-108758868D01*
X77323551Y-108758868D01*
X78250233Y-108758868D01*
X79248233Y-108758868D01*
X80750233Y-108758868D01*
X81748233Y-108758868D01*
X83250233Y-108758868D01*
X84248233Y-108758868D01*
X85390888Y-108758868D01*
X89248233Y-108758868D01*
X90750233Y-108758868D01*
X91748233Y-108758868D01*
X93250233Y-108758868D01*
X93250233Y-107654681D01*
X94248233Y-107654681D01*
X94248233Y-108758868D01*
X95750233Y-108758868D01*
X95750233Y-107888500D01*
X96748233Y-107888500D01*
X96748233Y-108758868D01*
X98250233Y-108758868D01*
X98250233Y-107828500D01*
X99248233Y-107828500D01*
X99248233Y-108758868D01*
X100750233Y-108758868D01*
X101748233Y-108758868D01*
X103250233Y-108758868D01*
X104248233Y-108758868D01*
X105750233Y-108758868D01*
X106748233Y-108758868D01*
X107523724Y-108758868D01*
X107565622Y-108676639D01*
X107567917Y-108672346D01*
X107582307Y-108646650D01*
X107584769Y-108642450D01*
X107605250Y-108609027D01*
X107607874Y-108604927D01*
X107621187Y-108585000D01*
X107607874Y-108565073D01*
X107605250Y-108560973D01*
X107584769Y-108527550D01*
X107582307Y-108523350D01*
X107567917Y-108497654D01*
X107565622Y-108493361D01*
X107451314Y-108269019D01*
X107449189Y-108264636D01*
X107436846Y-108237861D01*
X107434891Y-108233392D01*
X107419893Y-108197175D01*
X107418121Y-108192647D01*
X107407936Y-108165037D01*
X107406342Y-108160440D01*
X107328545Y-107921007D01*
X107327131Y-107916347D01*
X107319138Y-107888005D01*
X107317911Y-107883300D01*
X107308758Y-107845183D01*
X107307713Y-107840423D01*
X107301964Y-107811523D01*
X107301108Y-107806728D01*
X107261723Y-107558059D01*
X107261056Y-107553236D01*
X107257596Y-107524003D01*
X107257119Y-107519165D01*
X107254041Y-107480086D01*
X107253754Y-107475221D01*
X107252596Y-107445769D01*
X107252500Y-107440897D01*
X107252500Y-107256868D01*
X106748233Y-107256868D01*
X106748233Y-108758868D01*
X105750233Y-108758868D01*
X105750233Y-107256868D01*
X104248233Y-107256868D01*
X104248233Y-108758868D01*
X103250233Y-108758868D01*
X103250233Y-107256868D01*
X101748233Y-107256868D01*
X101748233Y-108758868D01*
X100750233Y-108758868D01*
X100750233Y-107256868D01*
X100678727Y-107256868D01*
X100594273Y-107341322D01*
X100589864Y-107345520D01*
X100562577Y-107370251D01*
X100557970Y-107374225D01*
X100520088Y-107405314D01*
X100515288Y-107409060D01*
X100485714Y-107430993D01*
X100480740Y-107434496D01*
X100284314Y-107565744D01*
X100279170Y-107569001D01*
X100247578Y-107587936D01*
X100242282Y-107590936D01*
X100199061Y-107614037D01*
X100193626Y-107616773D01*
X100160346Y-107632513D01*
X100154783Y-107634979D01*
X99936535Y-107725380D01*
X99930859Y-107727570D01*
X99896197Y-107739973D01*
X99890418Y-107741882D01*
X99843522Y-107756109D01*
X99837652Y-107757733D01*
X99801924Y-107766682D01*
X99795987Y-107768015D01*
X99564281Y-107814104D01*
X99558286Y-107815145D01*
X99521858Y-107820549D01*
X99515815Y-107821294D01*
X99467046Y-107826097D01*
X99460975Y-107826545D01*
X99424200Y-107828351D01*
X99418118Y-107828500D01*
X99248233Y-107828500D01*
X98250233Y-107828500D01*
X98250233Y-107522009D01*
X98119260Y-107434496D01*
X98114286Y-107430993D01*
X98096640Y-107417906D01*
X98070704Y-107441413D01*
X98066097Y-107445387D01*
X98028215Y-107476476D01*
X98023417Y-107480221D01*
X97993845Y-107502153D01*
X97988869Y-107505657D01*
X97800632Y-107631434D01*
X97795488Y-107634691D01*
X97763894Y-107653627D01*
X97758599Y-107656627D01*
X97715377Y-107679729D01*
X97709938Y-107682466D01*
X97676656Y-107698206D01*
X97671095Y-107700671D01*
X97461949Y-107787301D01*
X97456272Y-107789491D01*
X97421620Y-107801890D01*
X97415845Y-107803798D01*
X97368952Y-107818025D01*
X97363084Y-107819649D01*
X97327349Y-107828601D01*
X97321408Y-107829935D01*
X97099357Y-107874104D01*
X97093360Y-107875145D01*
X97056929Y-107880549D01*
X97050888Y-107881294D01*
X97002116Y-107886097D01*
X96996046Y-107886545D01*
X96959274Y-107888351D01*
X96953191Y-107888500D01*
X96748233Y-107888500D01*
X95750233Y-107888500D01*
X95750233Y-107545146D01*
X95734681Y-107534755D01*
X95725377Y-107539729D01*
X95719938Y-107542466D01*
X95686656Y-107558206D01*
X95681095Y-107560671D01*
X95471949Y-107647301D01*
X95466272Y-107649491D01*
X95431620Y-107661890D01*
X95425845Y-107663798D01*
X95378952Y-107678025D01*
X95373084Y-107679649D01*
X95337349Y-107688601D01*
X95331408Y-107689935D01*
X95109357Y-107734104D01*
X95103360Y-107735145D01*
X95066929Y-107740549D01*
X95060888Y-107741294D01*
X95012116Y-107746097D01*
X95006046Y-107746545D01*
X94969274Y-107748351D01*
X94963191Y-107748500D01*
X94736809Y-107748500D01*
X94730726Y-107748351D01*
X94693954Y-107746545D01*
X94687884Y-107746097D01*
X94639112Y-107741294D01*
X94633071Y-107740549D01*
X94596640Y-107735145D01*
X94590643Y-107734104D01*
X94368592Y-107689935D01*
X94362651Y-107688601D01*
X94326916Y-107679649D01*
X94321048Y-107678025D01*
X94274155Y-107663798D01*
X94268380Y-107661890D01*
X94248233Y-107654681D01*
X93250233Y-107654681D01*
X93250233Y-107256868D01*
X91748233Y-107256868D01*
X91748233Y-108758868D01*
X90750233Y-108758868D01*
X90750233Y-107256868D01*
X89248233Y-107256868D01*
X89248233Y-108758868D01*
X85390888Y-108758868D01*
X85318566Y-108650632D01*
X85315309Y-108645488D01*
X85296373Y-108613894D01*
X85293373Y-108608599D01*
X85270271Y-108565377D01*
X85267534Y-108559938D01*
X85251794Y-108526656D01*
X85249329Y-108521095D01*
X85162699Y-108311949D01*
X85160509Y-108306272D01*
X85148110Y-108271620D01*
X85146202Y-108265845D01*
X85131975Y-108218952D01*
X85130351Y-108213084D01*
X85121399Y-108177349D01*
X85120065Y-108171408D01*
X85075896Y-107949357D01*
X85074855Y-107943360D01*
X85069451Y-107906929D01*
X85068706Y-107900888D01*
X85063903Y-107852116D01*
X85063455Y-107846046D01*
X85061649Y-107809274D01*
X85061500Y-107803191D01*
X85061500Y-107601304D01*
X86059500Y-107601304D01*
X86059500Y-107778695D01*
X86094103Y-107952658D01*
X86094106Y-107952667D01*
X86161983Y-108116540D01*
X86161990Y-108116553D01*
X86260535Y-108264034D01*
X86260538Y-108264038D01*
X86385961Y-108389461D01*
X86385965Y-108389464D01*
X86533446Y-108488009D01*
X86533459Y-108488016D01*
X86615076Y-108521822D01*
X86697334Y-108555894D01*
X86697336Y-108555894D01*
X86697341Y-108555896D01*
X86871304Y-108590499D01*
X86871307Y-108590500D01*
X86871309Y-108590500D01*
X87048693Y-108590500D01*
X87048694Y-108590499D01*
X87106682Y-108578964D01*
X87222658Y-108555896D01*
X87222661Y-108555894D01*
X87222666Y-108555894D01*
X87386547Y-108488013D01*
X87534035Y-108389464D01*
X87659464Y-108264035D01*
X87758013Y-108116547D01*
X87825894Y-107952666D01*
X87826553Y-107949357D01*
X87855506Y-107803798D01*
X87860500Y-107778691D01*
X87860500Y-107601309D01*
X87860500Y-107601306D01*
X87860499Y-107601304D01*
X87825896Y-107427341D01*
X87825893Y-107427332D01*
X87758016Y-107263459D01*
X87758009Y-107263446D01*
X87659464Y-107115965D01*
X87659461Y-107115961D01*
X87534038Y-106990538D01*
X87534034Y-106990535D01*
X87386553Y-106891990D01*
X87386540Y-106891983D01*
X87222667Y-106824106D01*
X87222658Y-106824103D01*
X87048694Y-106789500D01*
X87048691Y-106789500D01*
X86871309Y-106789500D01*
X86871306Y-106789500D01*
X86697341Y-106824103D01*
X86697332Y-106824106D01*
X86533459Y-106891983D01*
X86533446Y-106891990D01*
X86385965Y-106990535D01*
X86385961Y-106990538D01*
X86260538Y-107115961D01*
X86260535Y-107115965D01*
X86161990Y-107263446D01*
X86161983Y-107263459D01*
X86094106Y-107427332D01*
X86094103Y-107427341D01*
X86059500Y-107601304D01*
X85061500Y-107601304D01*
X85061500Y-107576809D01*
X85061649Y-107570726D01*
X85063455Y-107533954D01*
X85063903Y-107527884D01*
X85068706Y-107479112D01*
X85069451Y-107473071D01*
X85074855Y-107436640D01*
X85075896Y-107430643D01*
X85110462Y-107256868D01*
X84248233Y-107256868D01*
X84248233Y-108758868D01*
X83250233Y-108758868D01*
X83250233Y-107256868D01*
X81748233Y-107256868D01*
X81748233Y-108758868D01*
X80750233Y-108758868D01*
X80750233Y-107256868D01*
X79248233Y-107256868D01*
X79248233Y-108758868D01*
X78250233Y-108758868D01*
X78250233Y-107256868D01*
X77589030Y-107256868D01*
X77612569Y-107303065D01*
X77620015Y-107321042D01*
X77678383Y-107500681D01*
X77682925Y-107519601D01*
X77712473Y-107706160D01*
X77714000Y-107725558D01*
X77714000Y-107914442D01*
X77712473Y-107933840D01*
X77682925Y-108120399D01*
X77678383Y-108139319D01*
X77620015Y-108318958D01*
X77612569Y-108336935D01*
X77526817Y-108505232D01*
X77516650Y-108521822D01*
X77405627Y-108674633D01*
X77392990Y-108689429D01*
X77323551Y-108758868D01*
X75456449Y-108758868D01*
X75387010Y-108689429D01*
X75374373Y-108674633D01*
X75263350Y-108521822D01*
X75253183Y-108505232D01*
X75167431Y-108336935D01*
X75159985Y-108318958D01*
X75101617Y-108139319D01*
X75097075Y-108120399D01*
X75067527Y-107933840D01*
X75066000Y-107914442D01*
X75066000Y-107725558D01*
X75067527Y-107706160D01*
X75097075Y-107519601D01*
X75101617Y-107500681D01*
X75159985Y-107321042D01*
X75167431Y-107303065D01*
X75190970Y-107256868D01*
X74248233Y-107256868D01*
X74248233Y-108758868D01*
X73250233Y-108758868D01*
X73250233Y-107256868D01*
X71748233Y-107256868D01*
X71748233Y-108758868D01*
X67703273Y-108758868D01*
X67538678Y-108594273D01*
X67534480Y-108589864D01*
X67509749Y-108562577D01*
X67505775Y-108557970D01*
X67474686Y-108520088D01*
X67470940Y-108515288D01*
X67449007Y-108485714D01*
X67445504Y-108480740D01*
X67314256Y-108284314D01*
X67310999Y-108279170D01*
X67292064Y-108247578D01*
X67289064Y-108242282D01*
X67265963Y-108199061D01*
X67263227Y-108193626D01*
X67247487Y-108160346D01*
X67245021Y-108154783D01*
X67154620Y-107936535D01*
X67152430Y-107930859D01*
X67140027Y-107896197D01*
X67138118Y-107890418D01*
X67123891Y-107843522D01*
X67122267Y-107837652D01*
X67113318Y-107801924D01*
X67111985Y-107795987D01*
X67065896Y-107564281D01*
X67064855Y-107558286D01*
X67059451Y-107521858D01*
X67058706Y-107515815D01*
X67053903Y-107467046D01*
X67053455Y-107460975D01*
X67051649Y-107424200D01*
X67051500Y-107418118D01*
X67051500Y-107256868D01*
X66748233Y-107256868D01*
X66748233Y-108758868D01*
X65750233Y-108758868D01*
X65750233Y-107256868D01*
X65091751Y-107256868D01*
X64093734Y-107256868D01*
X64093434Y-107206379D01*
X68049500Y-107206379D01*
X68049500Y-107393620D01*
X68086025Y-107577243D01*
X68086027Y-107577251D01*
X68157676Y-107750228D01*
X68157681Y-107750237D01*
X68261697Y-107905907D01*
X68261700Y-107905911D01*
X68394088Y-108038299D01*
X68394092Y-108038302D01*
X68549762Y-108142318D01*
X68549768Y-108142321D01*
X68549769Y-108142322D01*
X68722749Y-108213973D01*
X68865069Y-108242282D01*
X68906379Y-108250499D01*
X68906383Y-108250500D01*
X68906384Y-108250500D01*
X69093617Y-108250500D01*
X69093618Y-108250499D01*
X69277251Y-108213973D01*
X69450231Y-108142322D01*
X69605908Y-108038302D01*
X69738302Y-107905908D01*
X69842322Y-107750231D01*
X69913973Y-107577251D01*
X69950500Y-107393616D01*
X69950500Y-107206384D01*
X69913973Y-107022749D01*
X69842322Y-106849769D01*
X69842321Y-106849768D01*
X69842318Y-106849762D01*
X69738302Y-106694092D01*
X69738299Y-106694088D01*
X69605911Y-106561700D01*
X69605907Y-106561697D01*
X69450237Y-106457681D01*
X69450228Y-106457676D01*
X69277251Y-106386027D01*
X69277243Y-106386025D01*
X69093620Y-106349500D01*
X69093616Y-106349500D01*
X68906384Y-106349500D01*
X68906379Y-106349500D01*
X68722756Y-106386025D01*
X68722748Y-106386027D01*
X68549771Y-106457676D01*
X68549762Y-106457681D01*
X68394092Y-106561697D01*
X68394088Y-106561700D01*
X68261700Y-106694088D01*
X68261697Y-106694092D01*
X68157681Y-106849762D01*
X68157676Y-106849771D01*
X68086027Y-107022748D01*
X68086025Y-107022756D01*
X68049500Y-107206379D01*
X64093434Y-107206379D01*
X64078886Y-104756868D01*
X65076903Y-104756868D01*
X65085824Y-106258868D01*
X65750233Y-106258868D01*
X66748233Y-106258868D01*
X67352221Y-106258868D01*
X67445504Y-106119260D01*
X67449007Y-106114286D01*
X67470940Y-106084712D01*
X67474686Y-106079912D01*
X67505775Y-106042030D01*
X67509749Y-106037423D01*
X67534480Y-106010136D01*
X67538678Y-106005727D01*
X67705727Y-105838678D01*
X67710136Y-105834480D01*
X67737423Y-105809749D01*
X67742030Y-105805775D01*
X67779912Y-105774686D01*
X67784712Y-105770940D01*
X67814286Y-105749007D01*
X67819260Y-105745504D01*
X68015686Y-105614256D01*
X68020830Y-105610999D01*
X68052422Y-105592064D01*
X68057718Y-105589064D01*
X68100939Y-105565963D01*
X68106374Y-105563227D01*
X68139654Y-105547487D01*
X68145217Y-105545021D01*
X68250233Y-105501521D01*
X68250233Y-105363363D01*
X69248233Y-105363363D01*
X69258286Y-105364855D01*
X69264281Y-105365896D01*
X69495987Y-105411985D01*
X69501924Y-105413318D01*
X69537652Y-105422267D01*
X69543522Y-105423891D01*
X69590418Y-105438118D01*
X69596197Y-105440027D01*
X69630859Y-105452430D01*
X69636535Y-105454620D01*
X69854783Y-105545021D01*
X69860346Y-105547487D01*
X69893626Y-105563227D01*
X69899061Y-105565963D01*
X69942282Y-105589064D01*
X69947578Y-105592064D01*
X69979170Y-105610999D01*
X69984314Y-105614256D01*
X70180740Y-105745504D01*
X70185714Y-105749007D01*
X70215288Y-105770940D01*
X70220088Y-105774686D01*
X70257970Y-105805775D01*
X70262577Y-105809749D01*
X70289864Y-105834480D01*
X70294273Y-105838678D01*
X70461322Y-106005727D01*
X70465520Y-106010136D01*
X70490251Y-106037423D01*
X70494225Y-106042030D01*
X70525314Y-106079912D01*
X70529060Y-106084712D01*
X70550993Y-106114286D01*
X70554496Y-106119260D01*
X70647779Y-106258868D01*
X70750233Y-106258868D01*
X71748233Y-106258868D01*
X73250233Y-106258868D01*
X74248233Y-106258868D01*
X75750233Y-106258868D01*
X76748233Y-106258868D01*
X78250233Y-106258868D01*
X79248233Y-106258868D01*
X80750233Y-106258868D01*
X81748233Y-106258868D01*
X83250233Y-106258868D01*
X84248233Y-106258868D01*
X85439407Y-106258868D01*
X85298905Y-106200671D01*
X85293344Y-106198206D01*
X85260062Y-106182466D01*
X85254623Y-106179729D01*
X85211401Y-106156627D01*
X85206106Y-106153627D01*
X85174512Y-106134691D01*
X85169368Y-106131434D01*
X84981131Y-106005657D01*
X84976155Y-106002153D01*
X84946583Y-105980221D01*
X84941785Y-105976476D01*
X84903903Y-105945387D01*
X84899296Y-105941413D01*
X84872009Y-105916682D01*
X84867600Y-105912484D01*
X84807744Y-105852628D01*
X87452255Y-105852628D01*
X87483084Y-105860351D01*
X87488952Y-105861975D01*
X87535845Y-105876202D01*
X87541620Y-105878110D01*
X87576272Y-105890509D01*
X87581949Y-105892699D01*
X87791095Y-105979329D01*
X87796656Y-105981794D01*
X87829938Y-105997534D01*
X87835377Y-106000271D01*
X87878599Y-106023373D01*
X87883894Y-106026373D01*
X87915488Y-106045309D01*
X87920632Y-106048566D01*
X88108869Y-106174343D01*
X88113845Y-106177847D01*
X88143417Y-106199779D01*
X88148215Y-106203524D01*
X88186097Y-106234613D01*
X88190704Y-106238587D01*
X88213081Y-106258868D01*
X88250233Y-106258868D01*
X89248233Y-106258868D01*
X90750233Y-106258868D01*
X91748233Y-106258868D01*
X92995636Y-106258868D01*
X92965896Y-106109357D01*
X92964855Y-106103360D01*
X92959451Y-106066929D01*
X92958706Y-106060888D01*
X92953903Y-106012116D01*
X92953455Y-106006046D01*
X92951649Y-105969274D01*
X92951500Y-105963191D01*
X92951500Y-105761304D01*
X93949500Y-105761304D01*
X93949500Y-105938695D01*
X93984103Y-106112658D01*
X93984106Y-106112667D01*
X94051983Y-106276540D01*
X94051990Y-106276553D01*
X94150535Y-106424034D01*
X94150538Y-106424038D01*
X94275961Y-106549461D01*
X94275965Y-106549464D01*
X94423446Y-106648009D01*
X94423459Y-106648016D01*
X94534689Y-106694088D01*
X94587334Y-106715894D01*
X94587336Y-106715894D01*
X94587341Y-106715896D01*
X94761304Y-106750499D01*
X94761307Y-106750500D01*
X94761309Y-106750500D01*
X94938693Y-106750500D01*
X94938694Y-106750499D01*
X94996682Y-106738964D01*
X95112658Y-106715896D01*
X95112661Y-106715894D01*
X95112666Y-106715894D01*
X95276547Y-106648013D01*
X95424035Y-106549464D01*
X95549464Y-106424035D01*
X95648013Y-106276547D01*
X95715093Y-106114598D01*
X95758931Y-106060199D01*
X95825225Y-106038133D01*
X95892924Y-106055411D01*
X95940535Y-106106548D01*
X95951269Y-106137862D01*
X95974104Y-106252659D01*
X95974106Y-106252667D01*
X96041983Y-106416540D01*
X96041990Y-106416553D01*
X96140535Y-106564034D01*
X96140538Y-106564038D01*
X96265961Y-106689461D01*
X96265965Y-106689464D01*
X96413446Y-106788009D01*
X96413459Y-106788016D01*
X96500583Y-106824103D01*
X96577334Y-106855894D01*
X96577336Y-106855894D01*
X96577341Y-106855896D01*
X96751304Y-106890499D01*
X96751307Y-106890500D01*
X96751309Y-106890500D01*
X96928693Y-106890500D01*
X96928694Y-106890499D01*
X96986682Y-106878964D01*
X97102658Y-106855896D01*
X97102661Y-106855894D01*
X97102666Y-106855894D01*
X97266547Y-106788013D01*
X97414035Y-106689464D01*
X97539464Y-106564035D01*
X97638013Y-106416547D01*
X97705894Y-106252666D01*
X97705894Y-106252661D01*
X97705896Y-106252658D01*
X97733742Y-106112666D01*
X97740500Y-106078691D01*
X97740500Y-105901309D01*
X97740500Y-105901306D01*
X97740499Y-105901304D01*
X97717639Y-105786379D01*
X98349500Y-105786379D01*
X98349500Y-105973620D01*
X98386025Y-106157243D01*
X98386027Y-106157251D01*
X98457676Y-106330228D01*
X98457681Y-106330237D01*
X98561697Y-106485907D01*
X98561700Y-106485911D01*
X98694088Y-106618299D01*
X98694092Y-106618302D01*
X98849762Y-106722318D01*
X98849768Y-106722321D01*
X98849769Y-106722322D01*
X99022749Y-106793973D01*
X99174224Y-106824103D01*
X99206379Y-106830499D01*
X99206383Y-106830500D01*
X99206384Y-106830500D01*
X99393617Y-106830500D01*
X99393618Y-106830499D01*
X99577251Y-106793973D01*
X99750231Y-106722322D01*
X99905908Y-106618302D01*
X100038302Y-106485908D01*
X100142322Y-106330231D01*
X100171882Y-106258868D01*
X101748233Y-106258868D01*
X103250233Y-106258868D01*
X104248233Y-106258868D01*
X105750233Y-106258868D01*
X105750233Y-106015117D01*
X105677516Y-105942400D01*
X105673318Y-105937991D01*
X105648587Y-105910704D01*
X105644613Y-105906097D01*
X105613524Y-105868215D01*
X105609779Y-105863417D01*
X105587847Y-105833845D01*
X105584343Y-105828869D01*
X105458566Y-105640632D01*
X105455309Y-105635488D01*
X105436373Y-105603894D01*
X105433373Y-105598599D01*
X105410271Y-105555377D01*
X105407534Y-105549938D01*
X105391794Y-105516656D01*
X105389329Y-105511095D01*
X105302699Y-105301949D01*
X105300509Y-105296272D01*
X105288110Y-105261620D01*
X105286202Y-105255845D01*
X105271975Y-105208952D01*
X105270351Y-105203084D01*
X105261399Y-105167349D01*
X105260065Y-105161408D01*
X105222875Y-104974447D01*
X105068905Y-104910671D01*
X105063344Y-104908206D01*
X105030062Y-104892466D01*
X105024623Y-104889729D01*
X104981401Y-104866627D01*
X104976106Y-104863627D01*
X104950867Y-104848500D01*
X104248233Y-104848500D01*
X104248233Y-106258868D01*
X103250233Y-106258868D01*
X103250233Y-104848500D01*
X101748233Y-104848500D01*
X101748233Y-106258868D01*
X100171882Y-106258868D01*
X100213973Y-106157251D01*
X100250500Y-105973616D01*
X100250500Y-105786384D01*
X100213973Y-105602749D01*
X100142322Y-105429769D01*
X100142321Y-105429768D01*
X100142318Y-105429762D01*
X100038302Y-105274092D01*
X100038299Y-105274088D01*
X99905911Y-105141700D01*
X99905907Y-105141697D01*
X99750237Y-105037681D01*
X99750228Y-105037676D01*
X99577251Y-104966027D01*
X99577243Y-104966025D01*
X99393620Y-104929500D01*
X99393616Y-104929500D01*
X99206384Y-104929500D01*
X99206379Y-104929500D01*
X99022756Y-104966025D01*
X99022748Y-104966027D01*
X98849771Y-105037676D01*
X98849762Y-105037681D01*
X98694092Y-105141697D01*
X98694088Y-105141700D01*
X98561700Y-105274088D01*
X98561697Y-105274092D01*
X98457681Y-105429762D01*
X98457676Y-105429771D01*
X98386027Y-105602748D01*
X98386025Y-105602756D01*
X98349500Y-105786379D01*
X97717639Y-105786379D01*
X97705896Y-105727341D01*
X97705893Y-105727332D01*
X97701239Y-105716097D01*
X97667851Y-105635488D01*
X97638016Y-105563459D01*
X97638009Y-105563446D01*
X97539464Y-105415965D01*
X97539461Y-105415961D01*
X97414038Y-105290538D01*
X97414034Y-105290535D01*
X97266553Y-105191990D01*
X97266540Y-105191983D01*
X97102667Y-105124106D01*
X97102658Y-105124103D01*
X96928694Y-105089500D01*
X96928691Y-105089500D01*
X96751309Y-105089500D01*
X96751306Y-105089500D01*
X96577341Y-105124103D01*
X96577332Y-105124106D01*
X96413459Y-105191983D01*
X96413446Y-105191990D01*
X96265965Y-105290535D01*
X96265961Y-105290538D01*
X96140538Y-105415961D01*
X96140535Y-105415965D01*
X96041990Y-105563446D01*
X96041983Y-105563459D01*
X95974908Y-105725397D01*
X95931068Y-105779801D01*
X95864773Y-105801866D01*
X95797074Y-105784587D01*
X95749463Y-105733450D01*
X95738730Y-105702136D01*
X95715896Y-105587341D01*
X95715893Y-105587332D01*
X95648016Y-105423459D01*
X95648009Y-105423446D01*
X95549464Y-105275965D01*
X95549461Y-105275961D01*
X95424038Y-105150538D01*
X95424034Y-105150535D01*
X95276553Y-105051990D01*
X95276540Y-105051983D01*
X95112667Y-104984106D01*
X95112658Y-104984103D01*
X94938694Y-104949500D01*
X94938691Y-104949500D01*
X94761309Y-104949500D01*
X94761306Y-104949500D01*
X94587341Y-104984103D01*
X94587332Y-104984106D01*
X94423459Y-105051983D01*
X94423446Y-105051990D01*
X94275965Y-105150535D01*
X94275961Y-105150538D01*
X94150538Y-105275961D01*
X94150535Y-105275965D01*
X94051990Y-105423446D01*
X94051983Y-105423459D01*
X93984106Y-105587332D01*
X93984103Y-105587341D01*
X93949500Y-105761304D01*
X92951500Y-105761304D01*
X92951500Y-105736809D01*
X92951649Y-105730726D01*
X92953455Y-105693954D01*
X92953903Y-105687884D01*
X92958706Y-105639112D01*
X92959451Y-105633071D01*
X92964855Y-105596640D01*
X92965896Y-105590643D01*
X93010065Y-105368592D01*
X93011399Y-105362651D01*
X93020351Y-105326916D01*
X93021975Y-105321048D01*
X93036202Y-105274155D01*
X93038110Y-105268380D01*
X93050509Y-105233728D01*
X93052699Y-105228051D01*
X93139329Y-105018905D01*
X93141794Y-105013344D01*
X93157534Y-104980062D01*
X93160271Y-104974623D01*
X93183373Y-104931401D01*
X93186373Y-104926106D01*
X93205309Y-104894512D01*
X93208566Y-104889368D01*
X93250233Y-104827009D01*
X93250233Y-104756868D01*
X91748233Y-104756868D01*
X91748233Y-106258868D01*
X90750233Y-106258868D01*
X90750233Y-104784146D01*
X90549357Y-104824104D01*
X90543360Y-104825145D01*
X90506929Y-104830549D01*
X90500888Y-104831294D01*
X90452116Y-104836097D01*
X90446046Y-104836545D01*
X90409274Y-104838351D01*
X90403191Y-104838500D01*
X90176809Y-104838500D01*
X90170726Y-104838351D01*
X90133954Y-104836545D01*
X90127884Y-104836097D01*
X90079112Y-104831294D01*
X90073071Y-104830549D01*
X90036640Y-104825145D01*
X90030643Y-104824104D01*
X89808592Y-104779935D01*
X89802651Y-104778601D01*
X89766916Y-104769649D01*
X89761048Y-104768025D01*
X89724274Y-104756868D01*
X89248233Y-104756868D01*
X89248233Y-106258868D01*
X88250233Y-106258868D01*
X88250233Y-104756868D01*
X88012610Y-104756868D01*
X87969935Y-104971408D01*
X87968601Y-104977349D01*
X87959649Y-105013084D01*
X87958025Y-105018952D01*
X87943798Y-105065845D01*
X87941890Y-105071620D01*
X87929491Y-105106272D01*
X87927301Y-105111949D01*
X87840671Y-105321095D01*
X87838206Y-105326656D01*
X87822466Y-105359938D01*
X87819729Y-105365377D01*
X87796627Y-105408599D01*
X87793627Y-105413894D01*
X87774691Y-105445488D01*
X87771434Y-105450632D01*
X87645657Y-105638869D01*
X87642153Y-105643845D01*
X87620221Y-105673417D01*
X87616476Y-105678215D01*
X87585387Y-105716097D01*
X87581413Y-105720704D01*
X87556682Y-105747991D01*
X87552484Y-105752400D01*
X87452255Y-105852628D01*
X84807744Y-105852628D01*
X84707516Y-105752400D01*
X84703318Y-105747991D01*
X84678587Y-105720704D01*
X84674613Y-105716097D01*
X84643524Y-105678215D01*
X84639779Y-105673417D01*
X84617847Y-105643845D01*
X84614343Y-105638869D01*
X84488566Y-105450632D01*
X84485309Y-105445488D01*
X84466373Y-105413894D01*
X84463373Y-105408599D01*
X84440271Y-105365377D01*
X84437534Y-105359938D01*
X84421794Y-105326656D01*
X84419329Y-105321095D01*
X84332699Y-105111949D01*
X84330509Y-105106272D01*
X84318110Y-105071620D01*
X84316202Y-105065845D01*
X84301975Y-105018952D01*
X84300351Y-105013084D01*
X84291399Y-104977349D01*
X84290065Y-104971408D01*
X84248233Y-104761105D01*
X84248233Y-106258868D01*
X83250233Y-106258868D01*
X83250233Y-104756868D01*
X81748233Y-104756868D01*
X81748233Y-106258868D01*
X80750233Y-106258868D01*
X80750233Y-104756868D01*
X79248233Y-104756868D01*
X79248233Y-106258868D01*
X78250233Y-106258868D01*
X78250233Y-104756868D01*
X76748233Y-104756868D01*
X76748233Y-106258868D01*
X75750233Y-106258868D01*
X75750233Y-104756868D01*
X74248233Y-104756868D01*
X74248233Y-106258868D01*
X73250233Y-106258868D01*
X73250233Y-104756868D01*
X71748233Y-104756868D01*
X71748233Y-106258868D01*
X70750233Y-106258868D01*
X70750233Y-104756868D01*
X69248233Y-104756868D01*
X69248233Y-105363363D01*
X68250233Y-105363363D01*
X68250233Y-104756868D01*
X66748233Y-104756868D01*
X66748233Y-106258868D01*
X65750233Y-106258868D01*
X65750233Y-104756868D01*
X65076903Y-104756868D01*
X64078886Y-104756868D01*
X64076774Y-104401304D01*
X85229500Y-104401304D01*
X85229500Y-104578695D01*
X85264103Y-104752658D01*
X85264106Y-104752667D01*
X85331983Y-104916540D01*
X85331990Y-104916553D01*
X85430535Y-105064034D01*
X85430538Y-105064038D01*
X85555961Y-105189461D01*
X85555965Y-105189464D01*
X85703446Y-105288009D01*
X85703459Y-105288016D01*
X85796746Y-105326656D01*
X85867334Y-105355894D01*
X85867336Y-105355894D01*
X85867341Y-105355896D01*
X86041304Y-105390499D01*
X86041307Y-105390500D01*
X86041309Y-105390500D01*
X86218693Y-105390500D01*
X86218694Y-105390499D01*
X86276682Y-105378964D01*
X86392658Y-105355896D01*
X86392661Y-105355894D01*
X86392666Y-105355894D01*
X86556547Y-105288013D01*
X86704035Y-105189464D01*
X86829464Y-105064035D01*
X86928013Y-104916547D01*
X86995894Y-104752666D01*
X87030500Y-104578691D01*
X87030500Y-104401309D01*
X87030500Y-104401306D01*
X87030499Y-104401304D01*
X86995896Y-104227341D01*
X86995893Y-104227332D01*
X86928016Y-104063459D01*
X86928009Y-104063446D01*
X86829464Y-103915965D01*
X86829461Y-103915961D01*
X86704038Y-103790538D01*
X86704034Y-103790535D01*
X86556553Y-103691990D01*
X86556540Y-103691983D01*
X86392667Y-103624106D01*
X86392658Y-103624103D01*
X86218694Y-103589500D01*
X86218691Y-103589500D01*
X86041309Y-103589500D01*
X86041306Y-103589500D01*
X85867341Y-103624103D01*
X85867332Y-103624106D01*
X85703459Y-103691983D01*
X85703446Y-103691990D01*
X85555965Y-103790535D01*
X85555961Y-103790538D01*
X85430538Y-103915961D01*
X85430535Y-103915965D01*
X85331990Y-104063446D01*
X85331983Y-104063459D01*
X85264106Y-104227332D01*
X85264103Y-104227341D01*
X85229500Y-104401304D01*
X64076774Y-104401304D01*
X64064038Y-102256868D01*
X65062055Y-102256868D01*
X65070976Y-103758868D01*
X65750233Y-103758868D01*
X66748233Y-103758868D01*
X68250233Y-103758868D01*
X68250233Y-102621547D01*
X69248233Y-102621547D01*
X69248233Y-103758868D01*
X70750233Y-103758868D01*
X71748233Y-103758868D01*
X73250233Y-103758868D01*
X73250233Y-103652994D01*
X74248233Y-103652994D01*
X74248233Y-103758868D01*
X75750233Y-103758868D01*
X76748233Y-103758868D01*
X78250233Y-103758868D01*
X79248233Y-103758868D01*
X80750233Y-103758868D01*
X81748233Y-103758868D01*
X83250233Y-103758868D01*
X84248233Y-103758868D01*
X84377924Y-103758868D01*
X84419329Y-103658905D01*
X84421794Y-103653344D01*
X84437534Y-103620062D01*
X84440271Y-103614623D01*
X84463373Y-103571401D01*
X84466373Y-103566106D01*
X84485309Y-103534512D01*
X84488566Y-103529368D01*
X84614343Y-103341131D01*
X84617847Y-103336155D01*
X84639779Y-103306583D01*
X84643524Y-103301785D01*
X84674613Y-103263903D01*
X84678587Y-103259296D01*
X84703318Y-103232009D01*
X84707516Y-103227600D01*
X84867600Y-103067516D01*
X84872009Y-103063318D01*
X84899296Y-103038587D01*
X84903903Y-103034613D01*
X84941785Y-103003524D01*
X84946583Y-102999779D01*
X84976155Y-102977847D01*
X84981131Y-102974343D01*
X85169368Y-102848566D01*
X85174512Y-102845309D01*
X85206106Y-102826373D01*
X85211401Y-102823373D01*
X85254623Y-102800271D01*
X85260062Y-102797534D01*
X85293344Y-102781794D01*
X85298905Y-102779329D01*
X85508051Y-102692699D01*
X85511768Y-102691265D01*
X86748233Y-102691265D01*
X86751949Y-102692699D01*
X86961095Y-102779329D01*
X86966656Y-102781794D01*
X86999938Y-102797534D01*
X87005377Y-102800271D01*
X87048599Y-102823373D01*
X87053894Y-102826373D01*
X87085488Y-102845309D01*
X87090632Y-102848566D01*
X87278869Y-102974343D01*
X87283845Y-102977847D01*
X87313417Y-102999779D01*
X87318215Y-103003524D01*
X87356097Y-103034613D01*
X87360704Y-103038587D01*
X87387991Y-103063318D01*
X87392400Y-103067516D01*
X87552484Y-103227600D01*
X87556682Y-103232009D01*
X87581413Y-103259296D01*
X87585387Y-103263903D01*
X87616476Y-103301785D01*
X87620221Y-103306583D01*
X87642153Y-103336155D01*
X87645657Y-103341131D01*
X87771434Y-103529368D01*
X87774691Y-103534512D01*
X87793627Y-103566106D01*
X87796627Y-103571401D01*
X87819729Y-103614623D01*
X87822466Y-103620062D01*
X87838206Y-103653344D01*
X87840671Y-103658905D01*
X87882076Y-103758868D01*
X88250233Y-103758868D01*
X88250233Y-102851304D01*
X89389500Y-102851304D01*
X89389500Y-103028695D01*
X89424103Y-103202658D01*
X89424106Y-103202667D01*
X89491983Y-103366540D01*
X89491990Y-103366553D01*
X89590535Y-103514034D01*
X89590538Y-103514038D01*
X89715961Y-103639461D01*
X89715965Y-103639464D01*
X89863446Y-103738009D01*
X89863459Y-103738016D01*
X89969322Y-103781865D01*
X90027334Y-103805894D01*
X90027336Y-103805894D01*
X90027341Y-103805896D01*
X90201304Y-103840499D01*
X90201307Y-103840500D01*
X90201309Y-103840500D01*
X90378693Y-103840500D01*
X90378694Y-103840499D01*
X90454101Y-103825500D01*
X90552658Y-103805896D01*
X90552661Y-103805894D01*
X90552666Y-103805894D01*
X90716547Y-103738013D01*
X90864035Y-103639464D01*
X90864038Y-103639461D01*
X90876681Y-103626819D01*
X90938004Y-103593334D01*
X90964362Y-103590500D01*
X92044071Y-103590500D01*
X92128615Y-103573682D01*
X92169744Y-103565501D01*
X92288127Y-103516465D01*
X92300606Y-103508127D01*
X92394669Y-103445277D01*
X93924779Y-101915166D01*
X93986099Y-101881683D01*
X94055790Y-101886667D01*
X94111724Y-101928538D01*
X94136141Y-101994003D01*
X94127022Y-102050291D01*
X94124108Y-102057326D01*
X94124103Y-102057341D01*
X94089500Y-102231304D01*
X94089500Y-102408695D01*
X94124103Y-102582658D01*
X94124106Y-102582667D01*
X94191983Y-102746540D01*
X94191990Y-102746553D01*
X94290535Y-102894034D01*
X94290538Y-102894038D01*
X94415961Y-103019461D01*
X94415965Y-103019464D01*
X94563446Y-103118009D01*
X94563459Y-103118016D01*
X94686363Y-103168923D01*
X94727334Y-103185894D01*
X94727336Y-103185894D01*
X94727341Y-103185896D01*
X94901304Y-103220499D01*
X94901307Y-103220500D01*
X94901309Y-103220500D01*
X95078693Y-103220500D01*
X95078694Y-103220499D01*
X95136682Y-103208964D01*
X95252658Y-103185896D01*
X95252661Y-103185894D01*
X95252666Y-103185894D01*
X95416547Y-103118013D01*
X95564035Y-103019464D01*
X95689464Y-102894035D01*
X95788013Y-102746547D01*
X95855894Y-102582666D01*
X95869837Y-102512568D01*
X95902221Y-102450659D01*
X95962937Y-102416085D01*
X96032706Y-102419824D01*
X96079135Y-102449080D01*
X97244724Y-103614669D01*
X97315392Y-103685337D01*
X97335332Y-103705277D01*
X97441866Y-103776461D01*
X97441875Y-103776466D01*
X97468692Y-103787574D01*
X97560256Y-103825501D01*
X97560260Y-103825501D01*
X97560261Y-103825502D01*
X97685928Y-103850500D01*
X97685931Y-103850500D01*
X105225638Y-103850500D01*
X105292677Y-103870185D01*
X105313319Y-103886819D01*
X105325961Y-103899461D01*
X105325965Y-103899464D01*
X105473446Y-103998009D01*
X105473459Y-103998016D01*
X105596363Y-104048923D01*
X105637334Y-104065894D01*
X105637336Y-104065894D01*
X105637341Y-104065896D01*
X105811304Y-104100499D01*
X105811307Y-104100500D01*
X105811309Y-104100500D01*
X105988693Y-104100500D01*
X105988694Y-104100499D01*
X106162666Y-104065894D01*
X106162679Y-104065888D01*
X106162933Y-104065812D01*
X106163087Y-104065810D01*
X106168641Y-104064706D01*
X106168850Y-104065758D01*
X106232800Y-104065178D01*
X106291919Y-104102417D01*
X106321520Y-104165706D01*
X106312204Y-104234952D01*
X106302057Y-104253347D01*
X106301991Y-104253445D01*
X106301983Y-104253459D01*
X106234106Y-104417332D01*
X106234103Y-104417341D01*
X106199500Y-104591304D01*
X106199500Y-104768695D01*
X106234103Y-104942658D01*
X106234106Y-104942667D01*
X106301983Y-105106540D01*
X106301990Y-105106553D01*
X106400535Y-105254034D01*
X106400538Y-105254038D01*
X106525961Y-105379461D01*
X106525965Y-105379464D01*
X106673446Y-105478009D01*
X106673459Y-105478016D01*
X106766746Y-105516656D01*
X106837334Y-105545894D01*
X106837336Y-105545894D01*
X106837341Y-105545896D01*
X107011304Y-105580499D01*
X107011307Y-105580500D01*
X107011309Y-105580500D01*
X107188693Y-105580500D01*
X107188694Y-105580499D01*
X107261773Y-105565963D01*
X107362658Y-105545896D01*
X107362661Y-105545894D01*
X107362666Y-105545894D01*
X107526547Y-105478013D01*
X107674035Y-105379464D01*
X107799464Y-105254035D01*
X107898013Y-105106547D01*
X107965894Y-104942666D01*
X107971089Y-104916553D01*
X108000499Y-104768695D01*
X108000500Y-104768693D01*
X108000500Y-104591306D01*
X108000499Y-104591304D01*
X107965896Y-104417341D01*
X107965893Y-104417332D01*
X107898016Y-104253459D01*
X107898009Y-104253446D01*
X107799464Y-104105965D01*
X107799461Y-104105961D01*
X107674038Y-103980538D01*
X107674034Y-103980535D01*
X107526553Y-103881990D01*
X107526540Y-103881983D01*
X107362667Y-103814106D01*
X107362658Y-103814103D01*
X107188694Y-103779500D01*
X107188691Y-103779500D01*
X107011309Y-103779500D01*
X107011306Y-103779500D01*
X106837336Y-103814105D01*
X106837043Y-103814194D01*
X106836881Y-103814195D01*
X106831359Y-103815294D01*
X106831150Y-103814246D01*
X106767176Y-103814815D01*
X106708064Y-103777564D01*
X106678476Y-103714269D01*
X106687804Y-103645025D01*
X106697958Y-103626629D01*
X106698013Y-103626547D01*
X106700778Y-103619873D01*
X106735180Y-103536817D01*
X106765894Y-103462666D01*
X106769354Y-103445275D01*
X106800499Y-103288695D01*
X106800500Y-103288693D01*
X106800500Y-103111306D01*
X106800499Y-103111304D01*
X106765896Y-102937341D01*
X106765893Y-102937332D01*
X106757444Y-102916935D01*
X106730260Y-102851304D01*
X106698016Y-102773459D01*
X106698009Y-102773446D01*
X106599464Y-102625965D01*
X106599461Y-102625961D01*
X106474038Y-102500538D01*
X106474034Y-102500535D01*
X106326553Y-102401990D01*
X106326540Y-102401983D01*
X106162667Y-102334106D01*
X106162658Y-102334103D01*
X105988694Y-102299500D01*
X105988691Y-102299500D01*
X105811309Y-102299500D01*
X105811306Y-102299500D01*
X105637341Y-102334103D01*
X105637332Y-102334106D01*
X105473459Y-102401983D01*
X105473446Y-102401990D01*
X105325965Y-102500535D01*
X105325961Y-102500538D01*
X105313319Y-102513181D01*
X105251996Y-102546666D01*
X105225638Y-102549500D01*
X98070807Y-102549500D01*
X98003768Y-102529815D01*
X97983126Y-102513181D01*
X96807081Y-101337135D01*
X108250500Y-101337135D01*
X108250500Y-103132870D01*
X108250501Y-103132876D01*
X108256908Y-103192483D01*
X108307202Y-103327328D01*
X108307206Y-103327335D01*
X108393452Y-103442544D01*
X108393455Y-103442547D01*
X108508664Y-103528793D01*
X108508671Y-103528797D01*
X108523994Y-103534512D01*
X108640598Y-103578002D01*
X108696531Y-103619873D01*
X108720949Y-103685337D01*
X108706098Y-103753610D01*
X108684947Y-103781865D01*
X108571271Y-103895541D01*
X108446379Y-104067442D01*
X108349904Y-104256782D01*
X108284242Y-104458870D01*
X108284242Y-104458873D01*
X108273769Y-104525000D01*
X109167988Y-104525000D01*
X109135075Y-104582007D01*
X109101000Y-104709174D01*
X109101000Y-104840826D01*
X109135075Y-104967993D01*
X109167988Y-105025000D01*
X108273769Y-105025000D01*
X108284242Y-105091126D01*
X108284242Y-105091129D01*
X108349904Y-105293217D01*
X108446379Y-105482557D01*
X108571272Y-105654459D01*
X108571276Y-105654464D01*
X108721535Y-105804723D01*
X108721540Y-105804727D01*
X108893444Y-105929622D01*
X108902495Y-105934234D01*
X108953292Y-105982208D01*
X108970087Y-106050029D01*
X108947550Y-106116164D01*
X108902499Y-106155202D01*
X108893182Y-106159949D01*
X108721213Y-106284890D01*
X108570890Y-106435213D01*
X108445951Y-106607179D01*
X108349444Y-106796585D01*
X108283753Y-106998760D01*
X108265190Y-107115965D01*
X108250500Y-107208713D01*
X108250500Y-107421287D01*
X108251458Y-107427334D01*
X108281028Y-107614037D01*
X108283754Y-107631243D01*
X108348313Y-107829935D01*
X108349444Y-107833414D01*
X108445951Y-108022820D01*
X108570890Y-108194786D01*
X108721213Y-108345109D01*
X108893182Y-108470050D01*
X108901946Y-108474516D01*
X108952742Y-108522491D01*
X108969536Y-108590312D01*
X108946998Y-108656447D01*
X108901946Y-108695484D01*
X108893182Y-108699949D01*
X108721213Y-108824890D01*
X108570890Y-108975213D01*
X108445951Y-109147179D01*
X108349444Y-109336585D01*
X108283753Y-109538760D01*
X108250500Y-109748713D01*
X108250500Y-109961286D01*
X108277158Y-110129601D01*
X108283754Y-110171243D01*
X108337143Y-110335558D01*
X108349444Y-110373414D01*
X108445951Y-110562820D01*
X108570890Y-110734786D01*
X108721213Y-110885109D01*
X108893179Y-111010048D01*
X108893181Y-111010049D01*
X108893184Y-111010051D01*
X109082588Y-111106557D01*
X109284757Y-111172246D01*
X109494713Y-111205500D01*
X109494714Y-111205500D01*
X109707286Y-111205500D01*
X109707287Y-111205500D01*
X109917243Y-111172246D01*
X110119412Y-111106557D01*
X110308816Y-111010051D01*
X110330789Y-110994086D01*
X110480786Y-110885109D01*
X110480788Y-110885106D01*
X110480792Y-110885104D01*
X110631104Y-110734792D01*
X110631106Y-110734788D01*
X110631109Y-110734786D01*
X110756048Y-110562820D01*
X110756047Y-110562820D01*
X110756051Y-110562816D01*
X110852557Y-110373412D01*
X110918246Y-110171243D01*
X110951500Y-109961287D01*
X110951500Y-109748713D01*
X110918246Y-109538757D01*
X110852557Y-109336588D01*
X110756051Y-109147184D01*
X110756049Y-109147181D01*
X110756048Y-109147179D01*
X110631109Y-108975213D01*
X110480786Y-108824890D01*
X110308820Y-108699951D01*
X110308115Y-108699591D01*
X110300054Y-108695485D01*
X110249259Y-108647512D01*
X110232463Y-108579692D01*
X110254999Y-108513556D01*
X110300054Y-108474515D01*
X110308816Y-108470051D01*
X110330789Y-108454086D01*
X110480786Y-108345109D01*
X110480788Y-108345106D01*
X110480792Y-108345104D01*
X110631104Y-108194792D01*
X110631106Y-108194788D01*
X110631109Y-108194786D01*
X110756048Y-108022820D01*
X110756047Y-108022820D01*
X110756051Y-108022816D01*
X110852557Y-107833412D01*
X110918246Y-107631243D01*
X110951500Y-107421287D01*
X110951500Y-107208713D01*
X110918246Y-106998757D01*
X110852557Y-106796588D01*
X110756051Y-106607184D01*
X110756049Y-106607181D01*
X110756048Y-106607179D01*
X110631109Y-106435213D01*
X110480786Y-106284890D01*
X110308817Y-106159949D01*
X110299504Y-106155204D01*
X110248707Y-106107230D01*
X110231912Y-106039409D01*
X110254449Y-105973274D01*
X110299507Y-105934232D01*
X110308558Y-105929620D01*
X110480459Y-105804727D01*
X110480464Y-105804723D01*
X110630723Y-105654464D01*
X110630727Y-105654459D01*
X110755620Y-105482557D01*
X110852095Y-105293217D01*
X110917757Y-105091129D01*
X110917757Y-105091126D01*
X110928231Y-105025000D01*
X110034012Y-105025000D01*
X110066925Y-104967993D01*
X110101000Y-104840826D01*
X110101000Y-104709174D01*
X110066925Y-104582007D01*
X110034012Y-104525000D01*
X110928231Y-104525000D01*
X110917757Y-104458873D01*
X110917757Y-104458870D01*
X110852095Y-104256782D01*
X110755620Y-104067442D01*
X110630727Y-103895540D01*
X110630723Y-103895535D01*
X110517053Y-103781865D01*
X110483568Y-103720542D01*
X110488552Y-103650850D01*
X110530424Y-103594917D01*
X110561400Y-103578002D01*
X110678006Y-103534512D01*
X110693326Y-103528798D01*
X110693326Y-103528797D01*
X110693331Y-103528796D01*
X110808546Y-103442546D01*
X110894796Y-103327331D01*
X110945091Y-103192483D01*
X110951500Y-103132873D01*
X110951499Y-101337128D01*
X110945091Y-101277517D01*
X110938135Y-101258868D01*
X110894797Y-101142671D01*
X110894793Y-101142664D01*
X110808547Y-101027455D01*
X110808544Y-101027452D01*
X110693335Y-100941206D01*
X110693328Y-100941202D01*
X110558482Y-100890908D01*
X110558483Y-100890908D01*
X110498883Y-100884501D01*
X110498881Y-100884500D01*
X110498873Y-100884500D01*
X110498864Y-100884500D01*
X108703129Y-100884500D01*
X108703123Y-100884501D01*
X108643516Y-100890908D01*
X108508671Y-100941202D01*
X108508664Y-100941206D01*
X108393455Y-101027452D01*
X108393452Y-101027455D01*
X108307206Y-101142664D01*
X108307202Y-101142671D01*
X108256908Y-101277517D01*
X108250631Y-101335907D01*
X108250501Y-101337123D01*
X108250500Y-101337135D01*
X96807081Y-101337135D01*
X96686819Y-101216873D01*
X96653334Y-101155550D01*
X96650500Y-101129192D01*
X96650500Y-101111306D01*
X96650499Y-101111304D01*
X96635433Y-101035559D01*
X101748233Y-101035559D01*
X101748233Y-101258868D01*
X103250233Y-101258868D01*
X104248233Y-101258868D01*
X105750233Y-101258868D01*
X105750233Y-100375577D01*
X105578731Y-100250975D01*
X105574843Y-100248032D01*
X105551684Y-100229773D01*
X105547919Y-100226683D01*
X105518112Y-100201222D01*
X105514473Y-100197988D01*
X105492868Y-100178014D01*
X105489364Y-100174644D01*
X105311356Y-99996636D01*
X105307986Y-99993132D01*
X105288012Y-99971527D01*
X105284778Y-99967888D01*
X105259317Y-99938081D01*
X105256227Y-99934316D01*
X105237968Y-99911157D01*
X105235025Y-99907269D01*
X105125753Y-99756868D01*
X104248233Y-99756868D01*
X104248233Y-101258868D01*
X103250233Y-101258868D01*
X103250233Y-99881097D01*
X102473027Y-100658304D01*
X102468617Y-100662503D01*
X102441315Y-100687247D01*
X102436704Y-100691225D01*
X102398819Y-100722313D01*
X102394021Y-100726056D01*
X102364461Y-100747977D01*
X102359489Y-100751479D01*
X102212211Y-100849886D01*
X102207071Y-100853141D01*
X102175494Y-100872068D01*
X102170198Y-100875068D01*
X102126980Y-100898169D01*
X102121543Y-100900906D01*
X102088249Y-100916653D01*
X102082685Y-100919119D01*
X101919028Y-100986908D01*
X101913352Y-100989098D01*
X101878690Y-101001501D01*
X101872910Y-101003410D01*
X101826015Y-101017636D01*
X101820149Y-101019260D01*
X101784424Y-101028209D01*
X101778485Y-101029542D01*
X101748233Y-101035559D01*
X96635433Y-101035559D01*
X96615896Y-100937341D01*
X96615893Y-100937332D01*
X96599671Y-100898169D01*
X96585364Y-100863627D01*
X96548016Y-100773459D01*
X96548009Y-100773446D01*
X96449464Y-100625965D01*
X96449461Y-100625961D01*
X96324038Y-100500538D01*
X96324034Y-100500535D01*
X96176553Y-100401990D01*
X96176540Y-100401983D01*
X96012667Y-100334106D01*
X96012659Y-100334104D01*
X95972505Y-100326117D01*
X95910594Y-100293732D01*
X95876020Y-100233016D01*
X95879760Y-100163247D01*
X95920627Y-100106575D01*
X95985645Y-100080993D01*
X95996697Y-100080500D01*
X101434071Y-100080500D01*
X101518615Y-100063682D01*
X101559744Y-100055501D01*
X101678127Y-100006465D01*
X101784669Y-99935277D01*
X105545482Y-96174462D01*
X105606803Y-96140979D01*
X105676495Y-96145963D01*
X105732428Y-96187835D01*
X105751092Y-96223827D01*
X105807159Y-96396384D01*
X105809444Y-96403414D01*
X105905951Y-96592820D01*
X106030890Y-96764786D01*
X106181213Y-96915109D01*
X106353182Y-97040050D01*
X106361946Y-97044516D01*
X106412742Y-97092491D01*
X106429536Y-97160312D01*
X106406998Y-97226447D01*
X106361946Y-97265484D01*
X106353182Y-97269949D01*
X106181213Y-97394890D01*
X106030890Y-97545213D01*
X105905951Y-97717179D01*
X105809444Y-97906585D01*
X105809443Y-97906587D01*
X105809443Y-97906588D01*
X105793961Y-97954237D01*
X105743753Y-98108760D01*
X105710500Y-98318713D01*
X105710500Y-98531286D01*
X105742446Y-98732989D01*
X105743754Y-98741243D01*
X105807470Y-98937341D01*
X105809444Y-98943414D01*
X105905951Y-99132820D01*
X106030890Y-99304786D01*
X106181213Y-99455109D01*
X106353179Y-99580048D01*
X106353181Y-99580049D01*
X106353184Y-99580051D01*
X106542588Y-99676557D01*
X106744757Y-99742246D01*
X106954713Y-99775500D01*
X106954714Y-99775500D01*
X107167286Y-99775500D01*
X107167287Y-99775500D01*
X107377243Y-99742246D01*
X107579412Y-99676557D01*
X107768816Y-99580051D01*
X107790789Y-99564086D01*
X107940786Y-99455109D01*
X107940788Y-99455106D01*
X107940792Y-99455104D01*
X108091104Y-99304792D01*
X108091106Y-99304788D01*
X108091109Y-99304786D01*
X108216048Y-99132820D01*
X108216047Y-99132820D01*
X108216051Y-99132816D01*
X108220514Y-99124054D01*
X108268488Y-99073259D01*
X108336308Y-99056463D01*
X108402444Y-99078999D01*
X108441486Y-99124056D01*
X108445951Y-99132820D01*
X108570890Y-99304786D01*
X108721213Y-99455109D01*
X108893179Y-99580048D01*
X108893181Y-99580049D01*
X108893184Y-99580051D01*
X109082588Y-99676557D01*
X109284757Y-99742246D01*
X109494713Y-99775500D01*
X109494714Y-99775500D01*
X109707286Y-99775500D01*
X109707287Y-99775500D01*
X109917243Y-99742246D01*
X110119412Y-99676557D01*
X110308816Y-99580051D01*
X110330789Y-99564086D01*
X110480786Y-99455109D01*
X110480788Y-99455106D01*
X110480792Y-99455104D01*
X110631104Y-99304792D01*
X110631106Y-99304788D01*
X110631109Y-99304786D01*
X110756048Y-99132820D01*
X110756047Y-99132820D01*
X110756051Y-99132816D01*
X110852557Y-98943412D01*
X110918246Y-98741243D01*
X110951500Y-98531287D01*
X110951500Y-98318713D01*
X110918246Y-98108757D01*
X110852557Y-97906588D01*
X110756051Y-97717184D01*
X110756049Y-97717181D01*
X110756048Y-97717179D01*
X110631109Y-97545213D01*
X110480786Y-97394890D01*
X110308820Y-97269951D01*
X110307515Y-97269286D01*
X110300054Y-97265485D01*
X110249259Y-97217512D01*
X110232463Y-97149692D01*
X110254999Y-97083556D01*
X110300054Y-97044515D01*
X110308816Y-97040051D01*
X110330789Y-97024086D01*
X110480786Y-96915109D01*
X110480788Y-96915106D01*
X110480792Y-96915104D01*
X110631104Y-96764792D01*
X110631106Y-96764788D01*
X110631109Y-96764786D01*
X110756048Y-96592820D01*
X110756047Y-96592820D01*
X110756051Y-96592816D01*
X110852557Y-96403412D01*
X110918246Y-96201243D01*
X110951500Y-95991287D01*
X110951500Y-95778713D01*
X110918246Y-95568757D01*
X110852557Y-95366588D01*
X110756051Y-95177184D01*
X110756049Y-95177181D01*
X110756048Y-95177179D01*
X110631109Y-95005213D01*
X110480786Y-94854890D01*
X110308817Y-94729949D01*
X110299504Y-94725204D01*
X110248707Y-94677230D01*
X110231912Y-94609409D01*
X110254449Y-94543274D01*
X110299507Y-94504232D01*
X110308558Y-94499620D01*
X110480459Y-94374727D01*
X110480464Y-94374723D01*
X110630723Y-94224464D01*
X110630727Y-94224459D01*
X110755620Y-94052557D01*
X110852095Y-93863217D01*
X110917757Y-93661129D01*
X110917757Y-93661126D01*
X110928231Y-93595000D01*
X110034012Y-93595000D01*
X110066925Y-93537993D01*
X110101000Y-93410826D01*
X110101000Y-93279174D01*
X110066925Y-93152007D01*
X110034012Y-93095000D01*
X110928231Y-93095000D01*
X110917757Y-93028873D01*
X110917757Y-93028870D01*
X110852095Y-92826782D01*
X110755620Y-92637442D01*
X110630727Y-92465540D01*
X110630723Y-92465535D01*
X110480464Y-92315276D01*
X110480459Y-92315272D01*
X110308557Y-92190379D01*
X110119215Y-92093903D01*
X109917124Y-92028241D01*
X109851000Y-92017768D01*
X109851000Y-92911988D01*
X109793993Y-92879075D01*
X109666826Y-92845000D01*
X109535174Y-92845000D01*
X109408007Y-92879075D01*
X109351000Y-92911988D01*
X109351000Y-92017768D01*
X109350999Y-92017768D01*
X109284875Y-92028241D01*
X109082784Y-92093903D01*
X108893442Y-92190379D01*
X108721541Y-92315271D01*
X108607865Y-92428947D01*
X108546542Y-92462431D01*
X108476850Y-92457447D01*
X108420917Y-92415575D01*
X108404002Y-92384598D01*
X108402406Y-92380320D01*
X108362059Y-92272142D01*
X108354797Y-92252671D01*
X108354793Y-92252664D01*
X108268547Y-92137455D01*
X108268544Y-92137452D01*
X108153335Y-92051206D01*
X108153328Y-92051202D01*
X108018482Y-92000908D01*
X108018483Y-92000908D01*
X107958883Y-91994501D01*
X107958881Y-91994500D01*
X107958873Y-91994500D01*
X107958864Y-91994500D01*
X106163129Y-91994500D01*
X106163123Y-91994501D01*
X106103516Y-92000908D01*
X105968671Y-92051202D01*
X105968664Y-92051206D01*
X105853455Y-92137452D01*
X105853452Y-92137455D01*
X105767206Y-92252664D01*
X105767202Y-92252671D01*
X105716908Y-92387517D01*
X105710501Y-92447116D01*
X105710500Y-92447135D01*
X105710500Y-94118191D01*
X105690815Y-94185230D01*
X105674181Y-94205872D01*
X101136873Y-98743181D01*
X101075550Y-98776666D01*
X101049192Y-98779500D01*
X95425929Y-98779500D01*
X95300261Y-98804497D01*
X95300251Y-98804500D01*
X95273694Y-98815501D01*
X95181881Y-98853530D01*
X95181863Y-98853540D01*
X95075332Y-98924721D01*
X95075325Y-98924727D01*
X92820749Y-101179303D01*
X92759426Y-101212788D01*
X92689734Y-101207804D01*
X92633801Y-101165932D01*
X92611451Y-101115814D01*
X92591158Y-101013798D01*
X92585894Y-100987334D01*
X92556617Y-100916653D01*
X92518016Y-100823459D01*
X92518009Y-100823446D01*
X92419464Y-100675965D01*
X92419461Y-100675961D01*
X92294038Y-100550538D01*
X92294034Y-100550535D01*
X92146553Y-100451990D01*
X92146540Y-100451983D01*
X91982667Y-100384106D01*
X91982658Y-100384103D01*
X91808694Y-100349500D01*
X91808691Y-100349500D01*
X91631309Y-100349500D01*
X91631306Y-100349500D01*
X91457341Y-100384103D01*
X91457332Y-100384106D01*
X91293459Y-100451983D01*
X91293446Y-100451990D01*
X91145965Y-100550535D01*
X91145961Y-100550538D01*
X91020538Y-100675961D01*
X91020535Y-100675965D01*
X90921990Y-100823446D01*
X90921983Y-100823459D01*
X90854106Y-100987332D01*
X90854103Y-100987341D01*
X90819500Y-101161304D01*
X90819500Y-101338695D01*
X90854103Y-101512658D01*
X90854106Y-101512667D01*
X90921983Y-101676540D01*
X90921990Y-101676553D01*
X91020535Y-101824034D01*
X91020538Y-101824038D01*
X91145961Y-101949461D01*
X91145965Y-101949464D01*
X91293446Y-102048009D01*
X91293453Y-102048013D01*
X91300515Y-102050938D01*
X91354919Y-102094779D01*
X91376985Y-102161072D01*
X91359707Y-102228772D01*
X91308570Y-102276383D01*
X91253064Y-102289500D01*
X90964362Y-102289500D01*
X90897323Y-102269815D01*
X90876681Y-102253181D01*
X90864038Y-102240538D01*
X90864034Y-102240535D01*
X90716553Y-102141990D01*
X90716540Y-102141983D01*
X90552667Y-102074106D01*
X90552658Y-102074103D01*
X90378694Y-102039500D01*
X90378691Y-102039500D01*
X90201309Y-102039500D01*
X90201306Y-102039500D01*
X90027341Y-102074103D01*
X90027332Y-102074106D01*
X89863459Y-102141983D01*
X89863446Y-102141990D01*
X89715965Y-102240535D01*
X89715961Y-102240538D01*
X89590538Y-102365961D01*
X89590535Y-102365965D01*
X89491990Y-102513446D01*
X89491983Y-102513459D01*
X89424106Y-102677332D01*
X89424103Y-102677341D01*
X89389500Y-102851304D01*
X88250233Y-102851304D01*
X88250233Y-102256868D01*
X86748233Y-102256868D01*
X86748233Y-102691265D01*
X85511768Y-102691265D01*
X85513728Y-102690509D01*
X85548380Y-102678110D01*
X85554155Y-102676202D01*
X85601048Y-102661975D01*
X85606916Y-102660351D01*
X85642651Y-102651399D01*
X85648591Y-102650065D01*
X85750233Y-102629846D01*
X85750233Y-102256868D01*
X84248233Y-102256868D01*
X84248233Y-103758868D01*
X83250233Y-103758868D01*
X83250233Y-102256868D01*
X81748233Y-102256868D01*
X81748233Y-103758868D01*
X80750233Y-103758868D01*
X80750233Y-102256868D01*
X79248233Y-102256868D01*
X79248233Y-103758868D01*
X78250233Y-103758868D01*
X78250233Y-102256868D01*
X76748233Y-102256868D01*
X76748233Y-103758868D01*
X75750233Y-103758868D01*
X75750233Y-102256868D01*
X75137834Y-102256868D01*
X75142473Y-102286160D01*
X75144000Y-102305558D01*
X75144000Y-102494442D01*
X75142473Y-102513840D01*
X75112925Y-102700399D01*
X75108383Y-102719319D01*
X75050015Y-102898958D01*
X75042569Y-102916935D01*
X74956817Y-103085232D01*
X74946650Y-103101822D01*
X74835627Y-103254633D01*
X74822990Y-103269429D01*
X74689429Y-103402990D01*
X74674633Y-103415627D01*
X74521822Y-103526650D01*
X74505232Y-103536817D01*
X74336935Y-103622569D01*
X74318958Y-103630015D01*
X74248233Y-103652994D01*
X73250233Y-103652994D01*
X73250233Y-103595649D01*
X73134768Y-103536817D01*
X73118178Y-103526650D01*
X72965367Y-103415627D01*
X72950571Y-103402990D01*
X72817010Y-103269429D01*
X72804373Y-103254633D01*
X72693350Y-103101822D01*
X72683183Y-103085232D01*
X72597431Y-102916935D01*
X72589985Y-102898958D01*
X72531617Y-102719319D01*
X72527075Y-102700399D01*
X72497527Y-102513840D01*
X72496000Y-102494442D01*
X72496000Y-102305558D01*
X72497527Y-102286160D01*
X72502166Y-102256868D01*
X71748233Y-102256868D01*
X71748233Y-103758868D01*
X70750233Y-103758868D01*
X70750233Y-102256868D01*
X69988097Y-102256868D01*
X69985288Y-102259060D01*
X69955714Y-102280993D01*
X69950740Y-102284496D01*
X69754314Y-102415744D01*
X69749170Y-102419001D01*
X69717578Y-102437936D01*
X69712282Y-102440936D01*
X69669061Y-102464037D01*
X69663626Y-102466773D01*
X69630346Y-102482513D01*
X69624783Y-102484979D01*
X69406535Y-102575380D01*
X69400859Y-102577570D01*
X69366197Y-102589973D01*
X69360418Y-102591882D01*
X69313522Y-102606109D01*
X69307652Y-102607733D01*
X69271924Y-102616682D01*
X69265986Y-102618016D01*
X69248233Y-102621547D01*
X68250233Y-102621547D01*
X68250233Y-102612212D01*
X68232348Y-102607733D01*
X68226478Y-102606109D01*
X68179582Y-102591882D01*
X68173803Y-102589973D01*
X68139141Y-102577570D01*
X68133465Y-102575380D01*
X67915217Y-102484979D01*
X67909654Y-102482513D01*
X67876374Y-102466773D01*
X67870939Y-102464037D01*
X67827718Y-102440936D01*
X67822422Y-102437936D01*
X67790830Y-102419001D01*
X67785686Y-102415744D01*
X67589260Y-102284496D01*
X67584286Y-102280993D01*
X67554712Y-102259060D01*
X67551903Y-102256868D01*
X66748233Y-102256868D01*
X66748233Y-103758868D01*
X65750233Y-103758868D01*
X65750233Y-102256868D01*
X65062055Y-102256868D01*
X64064038Y-102256868D01*
X64049190Y-99756868D01*
X65047207Y-99756868D01*
X65056128Y-101258868D01*
X65750233Y-101258868D01*
X65750233Y-100636379D01*
X67819500Y-100636379D01*
X67819500Y-100823620D01*
X67856025Y-101007243D01*
X67856027Y-101007251D01*
X67927676Y-101180228D01*
X67927681Y-101180237D01*
X68031697Y-101335907D01*
X68031700Y-101335911D01*
X68164088Y-101468299D01*
X68164092Y-101468302D01*
X68319762Y-101572318D01*
X68319768Y-101572321D01*
X68319769Y-101572322D01*
X68492749Y-101643973D01*
X68656476Y-101676540D01*
X68676379Y-101680499D01*
X68676383Y-101680500D01*
X68676384Y-101680500D01*
X68863617Y-101680500D01*
X68863618Y-101680499D01*
X69047251Y-101643973D01*
X69220231Y-101572322D01*
X69375908Y-101468302D01*
X69508302Y-101335908D01*
X69559778Y-101258868D01*
X71748233Y-101258868D01*
X73143237Y-101258868D01*
X73250233Y-101204350D01*
X73250233Y-100044185D01*
X73178592Y-100029935D01*
X73172651Y-100028601D01*
X73136916Y-100019649D01*
X73131048Y-100018025D01*
X73084155Y-100003798D01*
X73078380Y-100001890D01*
X73071765Y-99999523D01*
X74248233Y-99999523D01*
X74248233Y-101147004D01*
X74318958Y-101169985D01*
X74336935Y-101177431D01*
X74496763Y-101258868D01*
X75750233Y-101258868D01*
X76748233Y-101258868D01*
X78250233Y-101258868D01*
X79248233Y-101258868D01*
X80750233Y-101258868D01*
X80750233Y-101090128D01*
X80716640Y-101085145D01*
X80710643Y-101084104D01*
X80488592Y-101039935D01*
X80482651Y-101038601D01*
X80446916Y-101029649D01*
X80441048Y-101028025D01*
X80394155Y-101013798D01*
X80388380Y-101011890D01*
X80353728Y-100999491D01*
X80348051Y-100997301D01*
X80191765Y-100932566D01*
X81748233Y-100932566D01*
X81748233Y-101258868D01*
X83250233Y-101258868D01*
X83250233Y-100878618D01*
X83141316Y-100805842D01*
X83136340Y-100802338D01*
X83106768Y-100780406D01*
X83101970Y-100776661D01*
X83064088Y-100745572D01*
X83059481Y-100741598D01*
X83032194Y-100716867D01*
X83027785Y-100712669D01*
X82867701Y-100552585D01*
X82863503Y-100548176D01*
X82838772Y-100520889D01*
X82834798Y-100516282D01*
X82803709Y-100478400D01*
X82799964Y-100473602D01*
X82778032Y-100444030D01*
X82774528Y-100439054D01*
X82648751Y-100250817D01*
X82645494Y-100245673D01*
X82626558Y-100214079D01*
X82623558Y-100208784D01*
X82603870Y-100171950D01*
X82485657Y-100348869D01*
X82482153Y-100353845D01*
X82460221Y-100383417D01*
X82456476Y-100388215D01*
X82425387Y-100426097D01*
X82421413Y-100430704D01*
X82396682Y-100457991D01*
X82392484Y-100462400D01*
X82232400Y-100622484D01*
X82227991Y-100626682D01*
X82200704Y-100651413D01*
X82196097Y-100655387D01*
X82158215Y-100686476D01*
X82153417Y-100690221D01*
X82123845Y-100712153D01*
X82118869Y-100715657D01*
X81930632Y-100841434D01*
X81925488Y-100844691D01*
X81893894Y-100863627D01*
X81888599Y-100866627D01*
X81845377Y-100889729D01*
X81839938Y-100892466D01*
X81806656Y-100908206D01*
X81801095Y-100910671D01*
X81748233Y-100932566D01*
X80191765Y-100932566D01*
X80138905Y-100910671D01*
X80133344Y-100908206D01*
X80100062Y-100892466D01*
X80094623Y-100889729D01*
X80051401Y-100866627D01*
X80046106Y-100863627D01*
X80014512Y-100844691D01*
X80009368Y-100841434D01*
X79821131Y-100715657D01*
X79816155Y-100712153D01*
X79786583Y-100690221D01*
X79781785Y-100686476D01*
X79743903Y-100655387D01*
X79739296Y-100651413D01*
X79712009Y-100626682D01*
X79707600Y-100622484D01*
X79547516Y-100462400D01*
X79543318Y-100457991D01*
X79518587Y-100430704D01*
X79514613Y-100426097D01*
X79483524Y-100388215D01*
X79479779Y-100383417D01*
X79457847Y-100353845D01*
X79454343Y-100348869D01*
X79328566Y-100160632D01*
X79325309Y-100155488D01*
X79306373Y-100123894D01*
X79303373Y-100118599D01*
X79280271Y-100075377D01*
X79277534Y-100069938D01*
X79261794Y-100036656D01*
X79259329Y-100031095D01*
X79248233Y-100004306D01*
X79248233Y-101258868D01*
X78250233Y-101258868D01*
X78250233Y-99756868D01*
X76748233Y-99756868D01*
X76748233Y-101258868D01*
X75750233Y-101258868D01*
X75750233Y-99756868D01*
X74732227Y-99756868D01*
X74620632Y-99831434D01*
X74615488Y-99834691D01*
X74583894Y-99853627D01*
X74578599Y-99856627D01*
X74535377Y-99879729D01*
X74529938Y-99882466D01*
X74496656Y-99898206D01*
X74491095Y-99900671D01*
X74281949Y-99987301D01*
X74276272Y-99989491D01*
X74248233Y-99999523D01*
X73071765Y-99999523D01*
X73043728Y-99989491D01*
X73038051Y-99987301D01*
X72828905Y-99900671D01*
X72823344Y-99898206D01*
X72790062Y-99882466D01*
X72784623Y-99879729D01*
X72741401Y-99856627D01*
X72736106Y-99853627D01*
X72704512Y-99834691D01*
X72699368Y-99831434D01*
X72587773Y-99756868D01*
X71748233Y-99756868D01*
X71748233Y-101258868D01*
X69559778Y-101258868D01*
X69612322Y-101180231D01*
X69683973Y-101007251D01*
X69720500Y-100823616D01*
X69720500Y-100636384D01*
X69683973Y-100452749D01*
X69612322Y-100279769D01*
X69612321Y-100279768D01*
X69612318Y-100279762D01*
X69508302Y-100124092D01*
X69508299Y-100124088D01*
X69375911Y-99991700D01*
X69375907Y-99991697D01*
X69220237Y-99887681D01*
X69220228Y-99887676D01*
X69047251Y-99816027D01*
X69047243Y-99816025D01*
X68863620Y-99779500D01*
X68863616Y-99779500D01*
X68676384Y-99779500D01*
X68676379Y-99779500D01*
X68492756Y-99816025D01*
X68492748Y-99816027D01*
X68319771Y-99887676D01*
X68319762Y-99887681D01*
X68164092Y-99991697D01*
X68164088Y-99991700D01*
X68031700Y-100124088D01*
X68031697Y-100124092D01*
X67927681Y-100279762D01*
X67927676Y-100279771D01*
X67856027Y-100452748D01*
X67856025Y-100452756D01*
X67819500Y-100636379D01*
X65750233Y-100636379D01*
X65750233Y-99756868D01*
X65047207Y-99756868D01*
X64049190Y-99756868D01*
X64043263Y-98758868D01*
X67452612Y-98758868D01*
X68250233Y-98758868D01*
X69248233Y-98758868D01*
X69844467Y-98758868D01*
X69831617Y-98719319D01*
X69827075Y-98700399D01*
X69797527Y-98513840D01*
X69796000Y-98494442D01*
X69796000Y-98305558D01*
X69797527Y-98286160D01*
X69826805Y-98101304D01*
X72759500Y-98101304D01*
X72759500Y-98278695D01*
X72794103Y-98452658D01*
X72794106Y-98452667D01*
X72861983Y-98616540D01*
X72861990Y-98616553D01*
X72960535Y-98764034D01*
X72960538Y-98764038D01*
X73085961Y-98889461D01*
X73085965Y-98889464D01*
X73233446Y-98988009D01*
X73233459Y-98988016D01*
X73328825Y-99027517D01*
X73397334Y-99055894D01*
X73397336Y-99055894D01*
X73397341Y-99055896D01*
X73571304Y-99090499D01*
X73571307Y-99090500D01*
X73571309Y-99090500D01*
X73748693Y-99090500D01*
X73748694Y-99090499D01*
X73835367Y-99073259D01*
X73922658Y-99055896D01*
X73922661Y-99055894D01*
X73922666Y-99055894D01*
X74086547Y-98988013D01*
X74234035Y-98889464D01*
X74359464Y-98764035D01*
X74391821Y-98715608D01*
X74445432Y-98670805D01*
X74494923Y-98660500D01*
X80033195Y-98660500D01*
X80100234Y-98680185D01*
X80145989Y-98732989D01*
X80155933Y-98802147D01*
X80147756Y-98831952D01*
X80104106Y-98937332D01*
X80104103Y-98937341D01*
X80069500Y-99111304D01*
X80069500Y-99288695D01*
X80104103Y-99462658D01*
X80104106Y-99462667D01*
X80171983Y-99626540D01*
X80171990Y-99626553D01*
X80270535Y-99774034D01*
X80270538Y-99774038D01*
X80395961Y-99899461D01*
X80395965Y-99899464D01*
X80543446Y-99998009D01*
X80543459Y-99998016D01*
X80625380Y-100031948D01*
X80707334Y-100065894D01*
X80707336Y-100065894D01*
X80707341Y-100065896D01*
X80881304Y-100100499D01*
X80881307Y-100100500D01*
X80881309Y-100100500D01*
X81058693Y-100100500D01*
X81058694Y-100100499D01*
X81156759Y-100080993D01*
X81232658Y-100065896D01*
X81232661Y-100065894D01*
X81232666Y-100065894D01*
X81387187Y-100001890D01*
X81396540Y-99998016D01*
X81396540Y-99998015D01*
X81396547Y-99998013D01*
X81544035Y-99899464D01*
X81669464Y-99774035D01*
X81768013Y-99626547D01*
X81835894Y-99462666D01*
X81837398Y-99455109D01*
X81870499Y-99288695D01*
X81870500Y-99288693D01*
X81870500Y-99111306D01*
X81870499Y-99111304D01*
X81835896Y-98937341D01*
X81835893Y-98937332D01*
X81830669Y-98924721D01*
X81805371Y-98863644D01*
X81792244Y-98831952D01*
X81784775Y-98762483D01*
X81816051Y-98700004D01*
X81876140Y-98664352D01*
X81906805Y-98660500D01*
X83395916Y-98660500D01*
X83462955Y-98680185D01*
X83508710Y-98732989D01*
X83518654Y-98802147D01*
X83499019Y-98853390D01*
X83492174Y-98863633D01*
X83492168Y-98863644D01*
X83424291Y-99027517D01*
X83424288Y-99027526D01*
X83389685Y-99201489D01*
X83389685Y-99378880D01*
X83424288Y-99552843D01*
X83424291Y-99552852D01*
X83492168Y-99716725D01*
X83492175Y-99716738D01*
X83590720Y-99864219D01*
X83590723Y-99864223D01*
X83716146Y-99989646D01*
X83716150Y-99989649D01*
X83863631Y-100088194D01*
X83863644Y-100088201D01*
X83986548Y-100139108D01*
X84027519Y-100156079D01*
X84027521Y-100156079D01*
X84027526Y-100156081D01*
X84201489Y-100190684D01*
X84201492Y-100190685D01*
X84201494Y-100190685D01*
X84378878Y-100190685D01*
X84378879Y-100190684D01*
X84473063Y-100171950D01*
X84552843Y-100156081D01*
X84552846Y-100156079D01*
X84552851Y-100156079D01*
X84716732Y-100088198D01*
X84864220Y-99989649D01*
X84989649Y-99864220D01*
X85062062Y-99755846D01*
X85115674Y-99711041D01*
X85184999Y-99702334D01*
X85248026Y-99732488D01*
X85252845Y-99737056D01*
X85354088Y-99838299D01*
X85354092Y-99838302D01*
X85509762Y-99942318D01*
X85509768Y-99942321D01*
X85509769Y-99942322D01*
X85682749Y-100013973D01*
X85834636Y-100044185D01*
X85866379Y-100050499D01*
X85866383Y-100050500D01*
X85866384Y-100050500D01*
X86053617Y-100050500D01*
X86053618Y-100050499D01*
X86146882Y-100031948D01*
X88073230Y-100031948D01*
X88073230Y-100209339D01*
X88107833Y-100383302D01*
X88107836Y-100383311D01*
X88175713Y-100547184D01*
X88175720Y-100547197D01*
X88274265Y-100694678D01*
X88274268Y-100694682D01*
X88399691Y-100820105D01*
X88399695Y-100820108D01*
X88547176Y-100918653D01*
X88547189Y-100918660D01*
X88648045Y-100960435D01*
X88711064Y-100986538D01*
X88711066Y-100986538D01*
X88711071Y-100986540D01*
X88885034Y-101021143D01*
X88885037Y-101021144D01*
X88885039Y-101021144D01*
X89062423Y-101021144D01*
X89062424Y-101021143D01*
X89120412Y-101009608D01*
X89236388Y-100986540D01*
X89236391Y-100986538D01*
X89236396Y-100986538D01*
X89400277Y-100918657D01*
X89547765Y-100820108D01*
X89673194Y-100694679D01*
X89771743Y-100547191D01*
X89839624Y-100383310D01*
X89841163Y-100375577D01*
X89867002Y-100245673D01*
X89874230Y-100209335D01*
X89874230Y-100031953D01*
X89874230Y-100031950D01*
X89874229Y-100031948D01*
X89839626Y-99857985D01*
X89839623Y-99857976D01*
X89771746Y-99694103D01*
X89771739Y-99694090D01*
X89673194Y-99546609D01*
X89673191Y-99546605D01*
X89547768Y-99421182D01*
X89547764Y-99421179D01*
X89400283Y-99322634D01*
X89400270Y-99322627D01*
X89236397Y-99254750D01*
X89236388Y-99254747D01*
X89062424Y-99220144D01*
X89062421Y-99220144D01*
X88885039Y-99220144D01*
X88885036Y-99220144D01*
X88711071Y-99254747D01*
X88711062Y-99254750D01*
X88547189Y-99322627D01*
X88547176Y-99322634D01*
X88399695Y-99421179D01*
X88399691Y-99421182D01*
X88274268Y-99546605D01*
X88274265Y-99546609D01*
X88175720Y-99694090D01*
X88175713Y-99694103D01*
X88107836Y-99857976D01*
X88107833Y-99857985D01*
X88073230Y-100031948D01*
X86146882Y-100031948D01*
X86237251Y-100013973D01*
X86410231Y-99942322D01*
X86565908Y-99838302D01*
X86698302Y-99705908D01*
X86802322Y-99550231D01*
X86873973Y-99377251D01*
X86910500Y-99193616D01*
X86910500Y-99031596D01*
X86930185Y-98964557D01*
X86982989Y-98918802D01*
X87052147Y-98908858D01*
X87058673Y-98909975D01*
X87061309Y-98910500D01*
X87061312Y-98910500D01*
X87238693Y-98910500D01*
X87238694Y-98910499D01*
X87296682Y-98898964D01*
X87412658Y-98875896D01*
X87412661Y-98875894D01*
X87412666Y-98875894D01*
X87576547Y-98808013D01*
X87650097Y-98758868D01*
X91748233Y-98758868D01*
X93250233Y-98758868D01*
X93250233Y-98340435D01*
X94248233Y-98340435D01*
X94386973Y-98201696D01*
X94391383Y-98197497D01*
X94418685Y-98172753D01*
X94423298Y-98168774D01*
X94461183Y-98137687D01*
X94465975Y-98133948D01*
X94495534Y-98112026D01*
X94500510Y-98108521D01*
X94647795Y-98010110D01*
X94652936Y-98006855D01*
X94684527Y-97987920D01*
X94689826Y-97984918D01*
X94733046Y-97961818D01*
X94738481Y-97959082D01*
X94771762Y-97943342D01*
X94777325Y-97940877D01*
X94891779Y-97893469D01*
X94940974Y-97873092D01*
X94946649Y-97870902D01*
X94981311Y-97858499D01*
X94987091Y-97856590D01*
X95033985Y-97842364D01*
X95039851Y-97840740D01*
X95075576Y-97831791D01*
X95081515Y-97830458D01*
X95255262Y-97795896D01*
X95261260Y-97794855D01*
X95297693Y-97789451D01*
X95303734Y-97788706D01*
X95352506Y-97783903D01*
X95358576Y-97783455D01*
X95395348Y-97781649D01*
X95401431Y-97781500D01*
X95750233Y-97781500D01*
X95750233Y-97441304D01*
X96889500Y-97441304D01*
X96889500Y-97618695D01*
X96924103Y-97792658D01*
X96924106Y-97792667D01*
X96991983Y-97956540D01*
X96991990Y-97956553D01*
X97090535Y-98104034D01*
X97090538Y-98104038D01*
X97215961Y-98229461D01*
X97215965Y-98229464D01*
X97363446Y-98328009D01*
X97363459Y-98328016D01*
X97485988Y-98378768D01*
X97527334Y-98395894D01*
X97527336Y-98395894D01*
X97527341Y-98395896D01*
X97701304Y-98430499D01*
X97701307Y-98430500D01*
X97701309Y-98430500D01*
X97878693Y-98430500D01*
X97878694Y-98430499D01*
X97936682Y-98418964D01*
X98052658Y-98395896D01*
X98052661Y-98395894D01*
X98052666Y-98395894D01*
X98216547Y-98328013D01*
X98364035Y-98229464D01*
X98489464Y-98104035D01*
X98588013Y-97956547D01*
X98655894Y-97792666D01*
X98657727Y-97783455D01*
X98685956Y-97641536D01*
X98690500Y-97618691D01*
X98690500Y-97441309D01*
X98690500Y-97441306D01*
X98690499Y-97441304D01*
X98655896Y-97267341D01*
X98655893Y-97267332D01*
X98655128Y-97265486D01*
X98632688Y-97211310D01*
X98588016Y-97103459D01*
X98588009Y-97103446D01*
X98489464Y-96955965D01*
X98489461Y-96955961D01*
X98364038Y-96830538D01*
X98364034Y-96830535D01*
X98216553Y-96731990D01*
X98216540Y-96731983D01*
X98052667Y-96664106D01*
X98052658Y-96664103D01*
X97878694Y-96629500D01*
X97878691Y-96629500D01*
X97701309Y-96629500D01*
X97701306Y-96629500D01*
X97527341Y-96664103D01*
X97527332Y-96664106D01*
X97363459Y-96731983D01*
X97363446Y-96731990D01*
X97215965Y-96830535D01*
X97215961Y-96830538D01*
X97090538Y-96955961D01*
X97090535Y-96955965D01*
X96991990Y-97103446D01*
X96991983Y-97103459D01*
X96924106Y-97267332D01*
X96924103Y-97267341D01*
X96889500Y-97441304D01*
X95750233Y-97441304D01*
X95750233Y-97256868D01*
X94248233Y-97256868D01*
X94248233Y-98340435D01*
X93250233Y-98340435D01*
X93250233Y-97256868D01*
X91748233Y-97256868D01*
X91748233Y-98758868D01*
X87650097Y-98758868D01*
X87724035Y-98709464D01*
X87849464Y-98584035D01*
X87948013Y-98436547D01*
X88015894Y-98272666D01*
X88018563Y-98259251D01*
X88050499Y-98098695D01*
X88050500Y-98098693D01*
X88050500Y-97921306D01*
X88028760Y-97812016D01*
X88017102Y-97753407D01*
X88023329Y-97683817D01*
X88066192Y-97628640D01*
X88132081Y-97605395D01*
X88200078Y-97621462D01*
X88226400Y-97641536D01*
X88314112Y-97729248D01*
X88314116Y-97729251D01*
X88461597Y-97827796D01*
X88461610Y-97827803D01*
X88570950Y-97873092D01*
X88625485Y-97895681D01*
X88625487Y-97895681D01*
X88625492Y-97895683D01*
X88799455Y-97930286D01*
X88799458Y-97930287D01*
X88799460Y-97930287D01*
X88976844Y-97930287D01*
X88976845Y-97930286D01*
X89034833Y-97918751D01*
X89150809Y-97895683D01*
X89150812Y-97895681D01*
X89150817Y-97895681D01*
X89314698Y-97827800D01*
X89462186Y-97729251D01*
X89587615Y-97603822D01*
X89686164Y-97456334D01*
X89692388Y-97441309D01*
X89701032Y-97420439D01*
X89754045Y-97292453D01*
X89756777Y-97278714D01*
X89789160Y-97216804D01*
X89849875Y-97182228D01*
X89854154Y-97181297D01*
X89941249Y-97163973D01*
X90114229Y-97092322D01*
X90269906Y-96988302D01*
X90402300Y-96855908D01*
X90506320Y-96700231D01*
X90577971Y-96527251D01*
X90614498Y-96343616D01*
X90614498Y-96258868D01*
X91748233Y-96258868D01*
X93250233Y-96258868D01*
X94248233Y-96258868D01*
X95169566Y-96258868D01*
X99248233Y-96258868D01*
X99295528Y-96258868D01*
X99358178Y-96213350D01*
X99374768Y-96203183D01*
X99543065Y-96117431D01*
X99561042Y-96109985D01*
X99740681Y-96051617D01*
X99759601Y-96047075D01*
X99946160Y-96017527D01*
X99965558Y-96016000D01*
X100154442Y-96016000D01*
X100173840Y-96017527D01*
X100360399Y-96047075D01*
X100379319Y-96051617D01*
X100558958Y-96109985D01*
X100576935Y-96117431D01*
X100745232Y-96203183D01*
X100750233Y-96206247D01*
X100750233Y-94756868D01*
X99248233Y-94756868D01*
X99248233Y-96258868D01*
X95169566Y-96258868D01*
X95166501Y-96256476D01*
X95128619Y-96225387D01*
X95124012Y-96221413D01*
X95096725Y-96196682D01*
X95092316Y-96192484D01*
X94932232Y-96032400D01*
X94928034Y-96027991D01*
X94903303Y-96000704D01*
X94899329Y-95996097D01*
X94868240Y-95958215D01*
X94864495Y-95953417D01*
X94842563Y-95923845D01*
X94839059Y-95918869D01*
X94713282Y-95730632D01*
X94710025Y-95725488D01*
X94691089Y-95693894D01*
X94688089Y-95688599D01*
X94664987Y-95645377D01*
X94662250Y-95639938D01*
X94646510Y-95606656D01*
X94644045Y-95601095D01*
X94557415Y-95391949D01*
X94555225Y-95386272D01*
X94542826Y-95351620D01*
X94540918Y-95345845D01*
X94526691Y-95298952D01*
X94525067Y-95293084D01*
X94516115Y-95257349D01*
X94514781Y-95251408D01*
X94470612Y-95029357D01*
X94469571Y-95023360D01*
X94464167Y-94986929D01*
X94463422Y-94980888D01*
X94458619Y-94932116D01*
X94458171Y-94926046D01*
X94456365Y-94889274D01*
X94456216Y-94883191D01*
X94456216Y-94756868D01*
X94248233Y-94756868D01*
X94248233Y-96258868D01*
X93250233Y-96258868D01*
X93250233Y-94756868D01*
X91748233Y-94756868D01*
X91748233Y-96258868D01*
X90614498Y-96258868D01*
X90614498Y-96156384D01*
X90614498Y-96156383D01*
X90614497Y-96156374D01*
X90586168Y-96013958D01*
X90577971Y-95972749D01*
X90506320Y-95799769D01*
X90506319Y-95799768D01*
X90506316Y-95799762D01*
X90402300Y-95644092D01*
X90402297Y-95644088D01*
X90269909Y-95511700D01*
X90269905Y-95511697D01*
X90114235Y-95407681D01*
X90114225Y-95407676D01*
X90052018Y-95381909D01*
X89997615Y-95338068D01*
X89975550Y-95271774D01*
X89984910Y-95219896D01*
X90002602Y-95177184D01*
X90045894Y-95072666D01*
X90053851Y-95032667D01*
X90080499Y-94898695D01*
X90080500Y-94898693D01*
X90080500Y-94721306D01*
X90080499Y-94721304D01*
X90072543Y-94681304D01*
X95454216Y-94681304D01*
X95454216Y-94858695D01*
X95488819Y-95032658D01*
X95488822Y-95032667D01*
X95556699Y-95196540D01*
X95556706Y-95196553D01*
X95655251Y-95344034D01*
X95655254Y-95344038D01*
X95780677Y-95469461D01*
X95780681Y-95469464D01*
X95928162Y-95568009D01*
X95928175Y-95568016D01*
X96024746Y-95608016D01*
X96092050Y-95635894D01*
X96092052Y-95635894D01*
X96092057Y-95635896D01*
X96266020Y-95670499D01*
X96266023Y-95670500D01*
X96266025Y-95670500D01*
X96443409Y-95670500D01*
X96443410Y-95670499D01*
X96514865Y-95656286D01*
X96617374Y-95635896D01*
X96617377Y-95635894D01*
X96617382Y-95635894D01*
X96781263Y-95568013D01*
X96928751Y-95469464D01*
X97054180Y-95344035D01*
X97152729Y-95196547D01*
X97220610Y-95032666D01*
X97221116Y-95030125D01*
X97249133Y-94889274D01*
X97255216Y-94858691D01*
X97255216Y-94681309D01*
X97255216Y-94681306D01*
X97255215Y-94681304D01*
X97220612Y-94507341D01*
X97220609Y-94507332D01*
X97217415Y-94499622D01*
X97203639Y-94466363D01*
X97189118Y-94431304D01*
X101829500Y-94431304D01*
X101829500Y-94608695D01*
X101864103Y-94782658D01*
X101864106Y-94782667D01*
X101931983Y-94946540D01*
X101931990Y-94946553D01*
X102030535Y-95094034D01*
X102030538Y-95094038D01*
X102155961Y-95219461D01*
X102155965Y-95219464D01*
X102303446Y-95318009D01*
X102303459Y-95318016D01*
X102415095Y-95364256D01*
X102467334Y-95385894D01*
X102467336Y-95385894D01*
X102467341Y-95385896D01*
X102641304Y-95420499D01*
X102641307Y-95420500D01*
X102641309Y-95420500D01*
X102818693Y-95420500D01*
X102818694Y-95420499D01*
X102883161Y-95407676D01*
X102992658Y-95385896D01*
X102992661Y-95385894D01*
X102992666Y-95385894D01*
X103156547Y-95318013D01*
X103304035Y-95219464D01*
X103429464Y-95094035D01*
X103528013Y-94946547D01*
X103595894Y-94782666D01*
X103607325Y-94725202D01*
X103621520Y-94653836D01*
X103630500Y-94608691D01*
X103630500Y-94431309D01*
X103630500Y-94431306D01*
X103630499Y-94431304D01*
X103595896Y-94257341D01*
X103595893Y-94257332D01*
X103595835Y-94257193D01*
X103566028Y-94185230D01*
X103528016Y-94093459D01*
X103528009Y-94093446D01*
X103429464Y-93945965D01*
X103429461Y-93945961D01*
X103304038Y-93820538D01*
X103304034Y-93820535D01*
X103156553Y-93721990D01*
X103156540Y-93721983D01*
X102992667Y-93654106D01*
X102992658Y-93654103D01*
X102818694Y-93619500D01*
X102818691Y-93619500D01*
X102641309Y-93619500D01*
X102641306Y-93619500D01*
X102467341Y-93654103D01*
X102467332Y-93654106D01*
X102303459Y-93721983D01*
X102303446Y-93721990D01*
X102155965Y-93820535D01*
X102155961Y-93820538D01*
X102030538Y-93945961D01*
X102030535Y-93945965D01*
X101931990Y-94093446D01*
X101931983Y-94093459D01*
X101864106Y-94257332D01*
X101864103Y-94257341D01*
X101829500Y-94431304D01*
X97189118Y-94431304D01*
X97152732Y-94343459D01*
X97152725Y-94343446D01*
X97054180Y-94195965D01*
X97054177Y-94195961D01*
X96928754Y-94070538D01*
X96928750Y-94070535D01*
X96781269Y-93971990D01*
X96781256Y-93971983D01*
X96617383Y-93904106D01*
X96617374Y-93904103D01*
X96443410Y-93869500D01*
X96443407Y-93869500D01*
X96266025Y-93869500D01*
X96266022Y-93869500D01*
X96092057Y-93904103D01*
X96092048Y-93904106D01*
X95928175Y-93971983D01*
X95928162Y-93971990D01*
X95780681Y-94070535D01*
X95780677Y-94070538D01*
X95655254Y-94195961D01*
X95655251Y-94195965D01*
X95556706Y-94343446D01*
X95556699Y-94343459D01*
X95488822Y-94507332D01*
X95488819Y-94507341D01*
X95454216Y-94681304D01*
X90072543Y-94681304D01*
X90045896Y-94547341D01*
X90045893Y-94547332D01*
X89978016Y-94383459D01*
X89978009Y-94383446D01*
X89879464Y-94235965D01*
X89879461Y-94235961D01*
X89754038Y-94110538D01*
X89754034Y-94110535D01*
X89606553Y-94011990D01*
X89606540Y-94011983D01*
X89442667Y-93944106D01*
X89442658Y-93944103D01*
X89268694Y-93909500D01*
X89268691Y-93909500D01*
X89250808Y-93909500D01*
X89183769Y-93889815D01*
X89163127Y-93873181D01*
X89048814Y-93758868D01*
X91748233Y-93758868D01*
X93250233Y-93758868D01*
X94248233Y-93758868D01*
X94747025Y-93758868D01*
X94839059Y-93621131D01*
X94842563Y-93616155D01*
X94864495Y-93586583D01*
X94868240Y-93581785D01*
X94899329Y-93543903D01*
X94903303Y-93539296D01*
X94928034Y-93512009D01*
X94932232Y-93507600D01*
X95092316Y-93347516D01*
X95096725Y-93343318D01*
X95124012Y-93318587D01*
X95128619Y-93314613D01*
X95166501Y-93283524D01*
X95171299Y-93279779D01*
X95200871Y-93257847D01*
X95205847Y-93254343D01*
X95394084Y-93128566D01*
X95399228Y-93125309D01*
X95430822Y-93106373D01*
X95436117Y-93103373D01*
X95479339Y-93080271D01*
X95484778Y-93077534D01*
X95518060Y-93061794D01*
X95523621Y-93059329D01*
X95732767Y-92972699D01*
X95738444Y-92970509D01*
X95750233Y-92966290D01*
X95750233Y-92912581D01*
X96748233Y-92912581D01*
X96836125Y-92930065D01*
X96842065Y-92931399D01*
X96877800Y-92940351D01*
X96883668Y-92941975D01*
X96930561Y-92956202D01*
X96936336Y-92958110D01*
X96970988Y-92970509D01*
X96976665Y-92972699D01*
X97185811Y-93059329D01*
X97191372Y-93061794D01*
X97224654Y-93077534D01*
X97230093Y-93080271D01*
X97273315Y-93103373D01*
X97278610Y-93106373D01*
X97310204Y-93125309D01*
X97315348Y-93128566D01*
X97503585Y-93254343D01*
X97508561Y-93257847D01*
X97538133Y-93279779D01*
X97542931Y-93283524D01*
X97580813Y-93314613D01*
X97585420Y-93318587D01*
X97612707Y-93343318D01*
X97617116Y-93347516D01*
X97777200Y-93507600D01*
X97781398Y-93512009D01*
X97806129Y-93539296D01*
X97810103Y-93543903D01*
X97841192Y-93581785D01*
X97844937Y-93586583D01*
X97866869Y-93616155D01*
X97870373Y-93621131D01*
X97962407Y-93758868D01*
X98250233Y-93758868D01*
X98250233Y-92797823D01*
X98231858Y-92800549D01*
X98225815Y-92801294D01*
X98177046Y-92806097D01*
X98170975Y-92806545D01*
X98134200Y-92808351D01*
X98128118Y-92808500D01*
X97891882Y-92808500D01*
X97885800Y-92808351D01*
X97849025Y-92806545D01*
X97842954Y-92806097D01*
X97794185Y-92801294D01*
X97788142Y-92800549D01*
X97751714Y-92795145D01*
X97745719Y-92794104D01*
X97514013Y-92748015D01*
X97508076Y-92746682D01*
X97472348Y-92737733D01*
X97466478Y-92736109D01*
X97419582Y-92721882D01*
X97413803Y-92719973D01*
X97379141Y-92707570D01*
X97373465Y-92705380D01*
X97155217Y-92614979D01*
X97149654Y-92612513D01*
X97116374Y-92596773D01*
X97110939Y-92594037D01*
X97067718Y-92570936D01*
X97062422Y-92567936D01*
X97030830Y-92549001D01*
X97025686Y-92545744D01*
X96829260Y-92414496D01*
X96824286Y-92410993D01*
X96794712Y-92389060D01*
X96789912Y-92385314D01*
X96771766Y-92370422D01*
X99248233Y-92370422D01*
X99248233Y-93758868D01*
X100750233Y-93758868D01*
X100750233Y-93374986D01*
X104248233Y-93374986D01*
X104371434Y-93559368D01*
X104374691Y-93564512D01*
X104393627Y-93596106D01*
X104396627Y-93601401D01*
X104419729Y-93644623D01*
X104422466Y-93650062D01*
X104438206Y-93683344D01*
X104440671Y-93688905D01*
X104469650Y-93758868D01*
X104709801Y-93758868D01*
X104712500Y-93756169D01*
X104712500Y-92433752D01*
X104712545Y-92430428D01*
X104713084Y-92410326D01*
X104713217Y-92407006D01*
X104714649Y-92380320D01*
X104714871Y-92377011D01*
X104716481Y-92357018D01*
X104716792Y-92353715D01*
X104727205Y-92256868D01*
X104248233Y-92256868D01*
X104248233Y-93374986D01*
X100750233Y-93374986D01*
X100750233Y-92256868D01*
X99368727Y-92256868D01*
X99304273Y-92321322D01*
X99299864Y-92325520D01*
X99272577Y-92350251D01*
X99267970Y-92354225D01*
X99248233Y-92370422D01*
X96771766Y-92370422D01*
X96752030Y-92354225D01*
X96748233Y-92350949D01*
X96748233Y-92912581D01*
X95750233Y-92912581D01*
X95750233Y-92256868D01*
X94248233Y-92256868D01*
X94248233Y-93758868D01*
X93250233Y-93758868D01*
X93250233Y-92256868D01*
X91748233Y-92256868D01*
X91748233Y-93758868D01*
X89048814Y-93758868D01*
X87836849Y-92546902D01*
X89248233Y-92546902D01*
X89674527Y-92973197D01*
X89703084Y-92980351D01*
X89708952Y-92981975D01*
X89755845Y-92996202D01*
X89761620Y-92998110D01*
X89796272Y-93010509D01*
X89801949Y-93012699D01*
X90011095Y-93099329D01*
X90016656Y-93101794D01*
X90049938Y-93117534D01*
X90055377Y-93120271D01*
X90098599Y-93143373D01*
X90103894Y-93146373D01*
X90135488Y-93165309D01*
X90140632Y-93168566D01*
X90328869Y-93294343D01*
X90333845Y-93297847D01*
X90363417Y-93319779D01*
X90368215Y-93323524D01*
X90406097Y-93354613D01*
X90410704Y-93358587D01*
X90437991Y-93383318D01*
X90442400Y-93387516D01*
X90602484Y-93547600D01*
X90606682Y-93552009D01*
X90631413Y-93579296D01*
X90635387Y-93583903D01*
X90666476Y-93621785D01*
X90670221Y-93626583D01*
X90692153Y-93656155D01*
X90695657Y-93661131D01*
X90750233Y-93742809D01*
X90750233Y-92256868D01*
X89248233Y-92256868D01*
X89248233Y-92546902D01*
X87836849Y-92546902D01*
X86594674Y-91304727D01*
X86594673Y-91304726D01*
X86488125Y-91233533D01*
X86369747Y-91184500D01*
X86369742Y-91184498D01*
X86367783Y-91184109D01*
X86367783Y-91184108D01*
X86367773Y-91184107D01*
X86244071Y-91159500D01*
X86244069Y-91159500D01*
X80754362Y-91159500D01*
X80687323Y-91139815D01*
X80666681Y-91123181D01*
X80654038Y-91110538D01*
X80654034Y-91110535D01*
X80506553Y-91011990D01*
X80506540Y-91011983D01*
X80342667Y-90944106D01*
X80342658Y-90944103D01*
X80168694Y-90909500D01*
X80168691Y-90909500D01*
X79991309Y-90909500D01*
X79991306Y-90909500D01*
X79817341Y-90944103D01*
X79817332Y-90944106D01*
X79653459Y-91011983D01*
X79653446Y-91011990D01*
X79505965Y-91110535D01*
X79505961Y-91110538D01*
X79380538Y-91235961D01*
X79380535Y-91235965D01*
X79281990Y-91383446D01*
X79281983Y-91383459D01*
X79214106Y-91547332D01*
X79214103Y-91547341D01*
X79179500Y-91721304D01*
X79179500Y-91898695D01*
X79214103Y-92072658D01*
X79214106Y-92072667D01*
X79281983Y-92236540D01*
X79281990Y-92236553D01*
X79380535Y-92384034D01*
X79380538Y-92384038D01*
X79505961Y-92509461D01*
X79505965Y-92509464D01*
X79653446Y-92608009D01*
X79653459Y-92608016D01*
X79768081Y-92655493D01*
X79817334Y-92675894D01*
X79817336Y-92675894D01*
X79817341Y-92675896D01*
X79991304Y-92710499D01*
X79991307Y-92710500D01*
X79991309Y-92710500D01*
X80168693Y-92710500D01*
X80168694Y-92710499D01*
X80226682Y-92698964D01*
X80342658Y-92675896D01*
X80342661Y-92675894D01*
X80342666Y-92675894D01*
X80506547Y-92608013D01*
X80654035Y-92509464D01*
X80654038Y-92509461D01*
X80666681Y-92496819D01*
X80728004Y-92463334D01*
X80754362Y-92460500D01*
X85859192Y-92460500D01*
X85926231Y-92480185D01*
X85946873Y-92496819D01*
X88243181Y-94793127D01*
X88276666Y-94854450D01*
X88279500Y-94880808D01*
X88279500Y-94898695D01*
X88314103Y-95072658D01*
X88314106Y-95072667D01*
X88381983Y-95236540D01*
X88381990Y-95236553D01*
X88480535Y-95384034D01*
X88480538Y-95384038D01*
X88605961Y-95509461D01*
X88605965Y-95509464D01*
X88753446Y-95608009D01*
X88753459Y-95608016D01*
X88767645Y-95613892D01*
X88822049Y-95657732D01*
X88844114Y-95724026D01*
X88826835Y-95791726D01*
X88823299Y-95797337D01*
X88821684Y-95799754D01*
X88821674Y-95799771D01*
X88750025Y-95972748D01*
X88750024Y-95972753D01*
X88731731Y-96064713D01*
X88699345Y-96126623D01*
X88638629Y-96161197D01*
X88634314Y-96162136D01*
X88625488Y-96163892D01*
X88625480Y-96163894D01*
X88461610Y-96231770D01*
X88461597Y-96231777D01*
X88314116Y-96330322D01*
X88314112Y-96330325D01*
X88188689Y-96455748D01*
X88188686Y-96455752D01*
X88090141Y-96603233D01*
X88090134Y-96603246D01*
X88022257Y-96767119D01*
X88022254Y-96767128D01*
X87987651Y-96941091D01*
X87987651Y-97118482D01*
X88021048Y-97286378D01*
X88014821Y-97355969D01*
X87971958Y-97411147D01*
X87906068Y-97434391D01*
X87838071Y-97418323D01*
X87811750Y-97398250D01*
X87724038Y-97310538D01*
X87724034Y-97310535D01*
X87576553Y-97211990D01*
X87576540Y-97211983D01*
X87412667Y-97144106D01*
X87412658Y-97144103D01*
X87238694Y-97109500D01*
X87238691Y-97109500D01*
X87061309Y-97109500D01*
X87061306Y-97109500D01*
X86887341Y-97144103D01*
X86887332Y-97144106D01*
X86723459Y-97211983D01*
X86723446Y-97211990D01*
X86575965Y-97310535D01*
X86575961Y-97310538D01*
X86563319Y-97323181D01*
X86501996Y-97356666D01*
X86475638Y-97359500D01*
X85518011Y-97359500D01*
X85429449Y-97377117D01*
X85405257Y-97379500D01*
X85014743Y-97379500D01*
X84990551Y-97377117D01*
X84901989Y-97359500D01*
X84901987Y-97359500D01*
X76728653Y-97359500D01*
X76661614Y-97339815D01*
X76615859Y-97287011D01*
X76605915Y-97217853D01*
X76607035Y-97211310D01*
X76617179Y-97160312D01*
X76620500Y-97143616D01*
X76620500Y-96956384D01*
X76583973Y-96772749D01*
X76512322Y-96599769D01*
X76512321Y-96599768D01*
X76512318Y-96599762D01*
X76408302Y-96444092D01*
X76408299Y-96444088D01*
X76275911Y-96311700D01*
X76275907Y-96311697D01*
X76120237Y-96207681D01*
X76120228Y-96207676D01*
X75947251Y-96136027D01*
X75947243Y-96136025D01*
X75763620Y-96099500D01*
X75763616Y-96099500D01*
X75576384Y-96099500D01*
X75576379Y-96099500D01*
X75392756Y-96136025D01*
X75392748Y-96136027D01*
X75219771Y-96207676D01*
X75219762Y-96207681D01*
X75064092Y-96311697D01*
X75064088Y-96311700D01*
X74931700Y-96444088D01*
X74931697Y-96444092D01*
X74827681Y-96599762D01*
X74827676Y-96599771D01*
X74756027Y-96772748D01*
X74756027Y-96772749D01*
X74719500Y-96956379D01*
X74719500Y-96956383D01*
X74719500Y-96956384D01*
X74719500Y-97143616D01*
X74722821Y-97160312D01*
X74732965Y-97211310D01*
X74726737Y-97280901D01*
X74683873Y-97336078D01*
X74617983Y-97359322D01*
X74611347Y-97359500D01*
X74032780Y-97359500D01*
X73985328Y-97350061D01*
X73922667Y-97324106D01*
X73922658Y-97324103D01*
X73748694Y-97289500D01*
X73748691Y-97289500D01*
X73571309Y-97289500D01*
X73571306Y-97289500D01*
X73397341Y-97324103D01*
X73397332Y-97324106D01*
X73233459Y-97391983D01*
X73233446Y-97391990D01*
X73085965Y-97490535D01*
X73085961Y-97490538D01*
X72960538Y-97615961D01*
X72960535Y-97615965D01*
X72861990Y-97763446D01*
X72861983Y-97763459D01*
X72794106Y-97927332D01*
X72794103Y-97927341D01*
X72759500Y-98101304D01*
X69826805Y-98101304D01*
X69827075Y-98099601D01*
X69831617Y-98080681D01*
X69889985Y-97901042D01*
X69897431Y-97883065D01*
X69983183Y-97714768D01*
X69993350Y-97698178D01*
X70104373Y-97545367D01*
X70117010Y-97530571D01*
X70250571Y-97397010D01*
X70265367Y-97384373D01*
X70418178Y-97273350D01*
X70434768Y-97263183D01*
X70447162Y-97256868D01*
X69248233Y-97256868D01*
X69248233Y-98758868D01*
X68250233Y-98758868D01*
X68250233Y-97256868D01*
X68133543Y-97256868D01*
X68133246Y-97264421D01*
X68132959Y-97269286D01*
X68129881Y-97308365D01*
X68129404Y-97313203D01*
X68125944Y-97342436D01*
X68125277Y-97347259D01*
X68085892Y-97595928D01*
X68085036Y-97600723D01*
X68079287Y-97629623D01*
X68078242Y-97634383D01*
X68069089Y-97672500D01*
X68067862Y-97677205D01*
X68059869Y-97705547D01*
X68058455Y-97710207D01*
X67980658Y-97949640D01*
X67979064Y-97954237D01*
X67968879Y-97981847D01*
X67967107Y-97986375D01*
X67952109Y-98022592D01*
X67950154Y-98027061D01*
X67937811Y-98053836D01*
X67935686Y-98058219D01*
X67821378Y-98282561D01*
X67819083Y-98286854D01*
X67804693Y-98312550D01*
X67802231Y-98316750D01*
X67781750Y-98350173D01*
X67779126Y-98354273D01*
X67762760Y-98378768D01*
X67759974Y-98382765D01*
X67611975Y-98586469D01*
X67609032Y-98590357D01*
X67590773Y-98613516D01*
X67587683Y-98617281D01*
X67562222Y-98647088D01*
X67558988Y-98650727D01*
X67539014Y-98672332D01*
X67535644Y-98675836D01*
X67452612Y-98758868D01*
X64043263Y-98758868D01*
X64032804Y-96997913D01*
X64435500Y-96997913D01*
X64435500Y-97210487D01*
X64435737Y-97211983D01*
X64467281Y-97411147D01*
X64468754Y-97420443D01*
X64534069Y-97621462D01*
X64534444Y-97622614D01*
X64630951Y-97812020D01*
X64755890Y-97983986D01*
X64906213Y-98134309D01*
X65078179Y-98259248D01*
X65078181Y-98259249D01*
X65078184Y-98259251D01*
X65267588Y-98355757D01*
X65469757Y-98421446D01*
X65679713Y-98454700D01*
X65679714Y-98454700D01*
X65892286Y-98454700D01*
X65892287Y-98454700D01*
X66102243Y-98421446D01*
X66304412Y-98355757D01*
X66493816Y-98259251D01*
X66534819Y-98229461D01*
X66665786Y-98134309D01*
X66665788Y-98134306D01*
X66665792Y-98134304D01*
X66816104Y-97983992D01*
X66816106Y-97983988D01*
X66816109Y-97983986D01*
X66941048Y-97812020D01*
X66941047Y-97812020D01*
X66941051Y-97812016D01*
X67037557Y-97622612D01*
X67103246Y-97420443D01*
X67136500Y-97210487D01*
X67136500Y-96997913D01*
X67103246Y-96787957D01*
X67037557Y-96585788D01*
X66941051Y-96396384D01*
X66941049Y-96396381D01*
X66941048Y-96396379D01*
X66841142Y-96258868D01*
X69248233Y-96258868D01*
X70750233Y-96258868D01*
X71748233Y-96258868D01*
X73250233Y-96258868D01*
X73250233Y-95868859D01*
X77224214Y-95868859D01*
X77224496Y-95869260D01*
X77355744Y-96065686D01*
X77359001Y-96070830D01*
X77377936Y-96102422D01*
X77380936Y-96107718D01*
X77404037Y-96150939D01*
X77406773Y-96156374D01*
X77422513Y-96189654D01*
X77424979Y-96195217D01*
X77451344Y-96258868D01*
X78250233Y-96258868D01*
X79248233Y-96258868D01*
X80750233Y-96258868D01*
X81748233Y-96258868D01*
X83250233Y-96258868D01*
X83250233Y-95474190D01*
X84423328Y-95474190D01*
X84423328Y-95661431D01*
X84459853Y-95845054D01*
X84459855Y-95845062D01*
X84531504Y-96018039D01*
X84531509Y-96018048D01*
X84635525Y-96173718D01*
X84635528Y-96173722D01*
X84767916Y-96306110D01*
X84767920Y-96306113D01*
X84923590Y-96410129D01*
X84923596Y-96410132D01*
X84923597Y-96410133D01*
X85096577Y-96481784D01*
X85280207Y-96518310D01*
X85280211Y-96518311D01*
X85280212Y-96518311D01*
X85467445Y-96518311D01*
X85467446Y-96518310D01*
X85651079Y-96481784D01*
X85824059Y-96410133D01*
X85979736Y-96306113D01*
X86112130Y-96173719D01*
X86216150Y-96018042D01*
X86282836Y-95857047D01*
X86326677Y-95802644D01*
X86392971Y-95780579D01*
X86397397Y-95780500D01*
X86488693Y-95780500D01*
X86488694Y-95780499D01*
X86546682Y-95768964D01*
X86662658Y-95745896D01*
X86662661Y-95745894D01*
X86662666Y-95745894D01*
X86826547Y-95678013D01*
X86974035Y-95579464D01*
X87099464Y-95454035D01*
X87198013Y-95306547D01*
X87203590Y-95293084D01*
X87227005Y-95236553D01*
X87265894Y-95142666D01*
X87270886Y-95117573D01*
X87300499Y-94968695D01*
X87300500Y-94968693D01*
X87300500Y-94791306D01*
X87300499Y-94791304D01*
X87265896Y-94617341D01*
X87265893Y-94617332D01*
X87198016Y-94453459D01*
X87198009Y-94453446D01*
X87099464Y-94305965D01*
X87099461Y-94305961D01*
X86974038Y-94180538D01*
X86974034Y-94180535D01*
X86826553Y-94081990D01*
X86826540Y-94081983D01*
X86662667Y-94014106D01*
X86662658Y-94014103D01*
X86488694Y-93979500D01*
X86488691Y-93979500D01*
X86311309Y-93979500D01*
X86311306Y-93979500D01*
X86137341Y-94014103D01*
X86137332Y-94014106D01*
X85973459Y-94081983D01*
X85973446Y-94081990D01*
X85825965Y-94180535D01*
X85825961Y-94180538D01*
X85700538Y-94305961D01*
X85700535Y-94305965D01*
X85601990Y-94453446D01*
X85601983Y-94453459D01*
X85565822Y-94540763D01*
X85521982Y-94595167D01*
X85455688Y-94617232D01*
X85451261Y-94617311D01*
X85280207Y-94617311D01*
X85096584Y-94653836D01*
X85096576Y-94653838D01*
X84923599Y-94725487D01*
X84923590Y-94725492D01*
X84767920Y-94829508D01*
X84767916Y-94829511D01*
X84635528Y-94961899D01*
X84635525Y-94961903D01*
X84531509Y-95117573D01*
X84531504Y-95117582D01*
X84459855Y-95290559D01*
X84459853Y-95290567D01*
X84423328Y-95474190D01*
X83250233Y-95474190D01*
X83250233Y-94756868D01*
X81748233Y-94756868D01*
X81748233Y-96258868D01*
X80750233Y-96258868D01*
X80750233Y-94756868D01*
X79248233Y-94756868D01*
X79248233Y-96258868D01*
X78250233Y-96258868D01*
X78250233Y-94756868D01*
X78023022Y-94756868D01*
X78022473Y-94763840D01*
X77992925Y-94950399D01*
X77988383Y-94969319D01*
X77930015Y-95148958D01*
X77922569Y-95166935D01*
X77836817Y-95335232D01*
X77826650Y-95351822D01*
X77715627Y-95504633D01*
X77702990Y-95519429D01*
X77569429Y-95652990D01*
X77554633Y-95665627D01*
X77401822Y-95776650D01*
X77385232Y-95786817D01*
X77224214Y-95868859D01*
X73250233Y-95868859D01*
X73250233Y-95716172D01*
X74248233Y-95716172D01*
X74375727Y-95588678D01*
X74380136Y-95584480D01*
X74407423Y-95559749D01*
X74412030Y-95555775D01*
X74449912Y-95524686D01*
X74454712Y-95520940D01*
X74484286Y-95499007D01*
X74489260Y-95495504D01*
X74685686Y-95364256D01*
X74690830Y-95360999D01*
X74722422Y-95342064D01*
X74727718Y-95339064D01*
X74770939Y-95315963D01*
X74776374Y-95313227D01*
X74809654Y-95297487D01*
X74815217Y-95295021D01*
X75033465Y-95204620D01*
X75039141Y-95202430D01*
X75073803Y-95190027D01*
X75079582Y-95188118D01*
X75126478Y-95173891D01*
X75132348Y-95172267D01*
X75168076Y-95163318D01*
X75174013Y-95161985D01*
X75405719Y-95115896D01*
X75411714Y-95114855D01*
X75448142Y-95109451D01*
X75454185Y-95108706D01*
X75456822Y-95108446D01*
X75411617Y-94969319D01*
X75407075Y-94950399D01*
X75377527Y-94763840D01*
X75376978Y-94756868D01*
X74248233Y-94756868D01*
X74248233Y-95716172D01*
X73250233Y-95716172D01*
X73250233Y-94756868D01*
X71748233Y-94756868D01*
X71748233Y-96258868D01*
X70750233Y-96258868D01*
X70750233Y-94756868D01*
X69248233Y-94756868D01*
X69248233Y-96258868D01*
X66841142Y-96258868D01*
X66816109Y-96224413D01*
X66702181Y-96110485D01*
X66668696Y-96049162D01*
X66673680Y-95979470D01*
X66715552Y-95923537D01*
X66746529Y-95906622D01*
X66878086Y-95857554D01*
X66878093Y-95857550D01*
X66993187Y-95771390D01*
X66993190Y-95771387D01*
X67079350Y-95656293D01*
X67079354Y-95656286D01*
X67129596Y-95521579D01*
X67129598Y-95521572D01*
X67135999Y-95462044D01*
X67136000Y-95462027D01*
X67136000Y-94814200D01*
X66219012Y-94814200D01*
X66251925Y-94757193D01*
X66286000Y-94630026D01*
X66286000Y-94498374D01*
X66251925Y-94371207D01*
X66219012Y-94314200D01*
X67136000Y-94314200D01*
X67136000Y-93666372D01*
X67135999Y-93666355D01*
X67129598Y-93606827D01*
X67129596Y-93606820D01*
X67079354Y-93472113D01*
X67079350Y-93472106D01*
X66993190Y-93357012D01*
X66993187Y-93357009D01*
X66878093Y-93270849D01*
X66878086Y-93270845D01*
X66743379Y-93220603D01*
X66743372Y-93220601D01*
X66683844Y-93214200D01*
X66036000Y-93214200D01*
X66036000Y-94131188D01*
X65978993Y-94098275D01*
X65851826Y-94064200D01*
X65720174Y-94064200D01*
X65593007Y-94098275D01*
X65536000Y-94131188D01*
X65536000Y-93214200D01*
X64888155Y-93214200D01*
X64828627Y-93220601D01*
X64828620Y-93220603D01*
X64693913Y-93270845D01*
X64693906Y-93270849D01*
X64578812Y-93357009D01*
X64578809Y-93357012D01*
X64492649Y-93472106D01*
X64492645Y-93472113D01*
X64442403Y-93606820D01*
X64442401Y-93606827D01*
X64436000Y-93666355D01*
X64436000Y-94314200D01*
X65352988Y-94314200D01*
X65320075Y-94371207D01*
X65286000Y-94498374D01*
X65286000Y-94630026D01*
X65320075Y-94757193D01*
X65352988Y-94814200D01*
X64436000Y-94814200D01*
X64436000Y-95462044D01*
X64442401Y-95521572D01*
X64442403Y-95521579D01*
X64492645Y-95656286D01*
X64492649Y-95656293D01*
X64578809Y-95771387D01*
X64578812Y-95771390D01*
X64693906Y-95857550D01*
X64693913Y-95857554D01*
X64825470Y-95906622D01*
X64881404Y-95948493D01*
X64905821Y-96013958D01*
X64890969Y-96082231D01*
X64869819Y-96110485D01*
X64755889Y-96224415D01*
X64630951Y-96396379D01*
X64534444Y-96585785D01*
X64468753Y-96787960D01*
X64437023Y-96988299D01*
X64435500Y-96997913D01*
X64032804Y-96997913D01*
X64004646Y-92256868D01*
X67004522Y-92256868D01*
X67010695Y-92258532D01*
X67055564Y-92272142D01*
X67062904Y-92274621D01*
X67260261Y-92348230D01*
X67268441Y-92351619D01*
X67317177Y-92373877D01*
X67325091Y-92377838D01*
X67387681Y-92412015D01*
X67395295Y-92416533D01*
X67440362Y-92445497D01*
X67447632Y-92450545D01*
X67619816Y-92579443D01*
X67626707Y-92584996D01*
X67667192Y-92620076D01*
X67673671Y-92626108D01*
X67724092Y-92676529D01*
X67730124Y-92683008D01*
X67765204Y-92723493D01*
X67770757Y-92730384D01*
X67899655Y-92902568D01*
X67904703Y-92909838D01*
X67933667Y-92954905D01*
X67938185Y-92962519D01*
X67972362Y-93025109D01*
X67976323Y-93033023D01*
X67998581Y-93081759D01*
X68001970Y-93089939D01*
X68075579Y-93287296D01*
X68078058Y-93294636D01*
X68091668Y-93339505D01*
X68093685Y-93346988D01*
X68108028Y-93407699D01*
X68109572Y-93415284D01*
X68117478Y-93461462D01*
X68118545Y-93469131D01*
X68129711Y-93572983D01*
X68130023Y-93576295D01*
X68131636Y-93596344D01*
X68131858Y-93599658D01*
X68133287Y-93626345D01*
X68133420Y-93629661D01*
X68133956Y-93649709D01*
X68134000Y-93653023D01*
X68134000Y-93758868D01*
X68250233Y-93758868D01*
X68250233Y-92655493D01*
X68141042Y-92620015D01*
X68123065Y-92612569D01*
X68031765Y-92566049D01*
X69248233Y-92566049D01*
X69248233Y-93758868D01*
X70750233Y-93758868D01*
X71748233Y-93758868D01*
X73250233Y-93758868D01*
X74248233Y-93758868D01*
X75718713Y-93758868D01*
X75750233Y-93727348D01*
X75750233Y-93326000D01*
X76748233Y-93326000D01*
X76794442Y-93326000D01*
X76813840Y-93327527D01*
X77000399Y-93357075D01*
X77019319Y-93361617D01*
X77198958Y-93419985D01*
X77216935Y-93427431D01*
X77385232Y-93513183D01*
X77401822Y-93523350D01*
X77554633Y-93634373D01*
X77569429Y-93647010D01*
X77681287Y-93758868D01*
X78250233Y-93758868D01*
X81748233Y-93758868D01*
X83250233Y-93758868D01*
X83250233Y-93458500D01*
X81748233Y-93458500D01*
X81748233Y-93758868D01*
X78250233Y-93758868D01*
X78250233Y-92332612D01*
X78241399Y-92297349D01*
X78240065Y-92291408D01*
X78233194Y-92256868D01*
X76748233Y-92256868D01*
X76748233Y-93326000D01*
X75750233Y-93326000D01*
X75750233Y-92256868D01*
X74248233Y-92256868D01*
X74248233Y-93758868D01*
X73250233Y-93758868D01*
X73250233Y-92256868D01*
X71748233Y-92256868D01*
X71748233Y-93758868D01*
X70750233Y-93758868D01*
X70750233Y-92256868D01*
X69645177Y-92256868D01*
X69642990Y-92259429D01*
X69509429Y-92392990D01*
X69494633Y-92405627D01*
X69341822Y-92516650D01*
X69325232Y-92526817D01*
X69248233Y-92566049D01*
X68031765Y-92566049D01*
X67954768Y-92526817D01*
X67938178Y-92516650D01*
X67785367Y-92405627D01*
X67770571Y-92392990D01*
X67637010Y-92259429D01*
X67634823Y-92256868D01*
X67004522Y-92256868D01*
X64004646Y-92256868D01*
X64000921Y-91629628D01*
X64002444Y-91615858D01*
X64001792Y-91615797D01*
X64002559Y-91607704D01*
X64002561Y-91607697D01*
X64000512Y-91551265D01*
X64000435Y-91547626D01*
X64000235Y-91513940D01*
X64019523Y-91446787D01*
X64072055Y-91400720D01*
X64121809Y-91389232D01*
X65620000Y-91360000D01*
X67060000Y-90950000D01*
X67838402Y-90076005D01*
X69248233Y-90076005D01*
X69248233Y-90213949D01*
X69325232Y-90253183D01*
X69341822Y-90263350D01*
X69494633Y-90374373D01*
X69509429Y-90387010D01*
X69642990Y-90520571D01*
X69655627Y-90535367D01*
X69766650Y-90688178D01*
X69776817Y-90704768D01*
X69862569Y-90873065D01*
X69870015Y-90891042D01*
X69928383Y-91070681D01*
X69932925Y-91089601D01*
X69959734Y-91258868D01*
X70750233Y-91258868D01*
X74248233Y-91258868D01*
X75750233Y-91258868D01*
X75750233Y-91191491D01*
X76748233Y-91191491D01*
X76748233Y-91258868D01*
X78250233Y-91258868D01*
X78250233Y-90161500D01*
X81748233Y-90161500D01*
X83250233Y-90161500D01*
X83250233Y-89851304D01*
X84249500Y-89851304D01*
X84249500Y-90028695D01*
X84284103Y-90202658D01*
X84284106Y-90202667D01*
X84351983Y-90366540D01*
X84351990Y-90366553D01*
X84450535Y-90514034D01*
X84450538Y-90514038D01*
X84575961Y-90639461D01*
X84575965Y-90639464D01*
X84723446Y-90738009D01*
X84723459Y-90738016D01*
X84835020Y-90784225D01*
X84887334Y-90805894D01*
X84887336Y-90805894D01*
X84887341Y-90805896D01*
X85061304Y-90840499D01*
X85061307Y-90840500D01*
X85061309Y-90840500D01*
X85238693Y-90840500D01*
X85238694Y-90840499D01*
X85296682Y-90828964D01*
X85412658Y-90805896D01*
X85412661Y-90805894D01*
X85412666Y-90805894D01*
X85576547Y-90738013D01*
X85724035Y-90639464D01*
X85849464Y-90514035D01*
X85941693Y-90376006D01*
X86998965Y-90376006D01*
X87017071Y-90386859D01*
X87022211Y-90390114D01*
X87169489Y-90488521D01*
X87174461Y-90492023D01*
X87204021Y-90513944D01*
X87208819Y-90517687D01*
X87246704Y-90548775D01*
X87251315Y-90552753D01*
X87278617Y-90577497D01*
X87283027Y-90581696D01*
X87960199Y-91258868D01*
X88250233Y-91258868D01*
X88250233Y-90440943D01*
X88199602Y-90432925D01*
X88180681Y-90428383D01*
X88001042Y-90370015D01*
X87983065Y-90362569D01*
X87814768Y-90276817D01*
X87798178Y-90266650D01*
X87751766Y-90232930D01*
X89248233Y-90232930D01*
X89248233Y-91258868D01*
X90750233Y-91258868D01*
X91748233Y-91258868D01*
X93250233Y-91258868D01*
X94248233Y-91258868D01*
X95750233Y-91258868D01*
X95750233Y-90766379D01*
X97059500Y-90766379D01*
X97059500Y-90953620D01*
X97096025Y-91137243D01*
X97096027Y-91137251D01*
X97167676Y-91310228D01*
X97167681Y-91310237D01*
X97271697Y-91465907D01*
X97271700Y-91465911D01*
X97404088Y-91598299D01*
X97404092Y-91598302D01*
X97559762Y-91702318D01*
X97559768Y-91702321D01*
X97559769Y-91702322D01*
X97732749Y-91773973D01*
X97916379Y-91810499D01*
X97916383Y-91810500D01*
X97916384Y-91810500D01*
X98103617Y-91810500D01*
X98103618Y-91810499D01*
X98287251Y-91773973D01*
X98460231Y-91702322D01*
X98615908Y-91598302D01*
X98748302Y-91465908D01*
X98852322Y-91310231D01*
X98923973Y-91137251D01*
X98960500Y-90953616D01*
X98960500Y-90766384D01*
X98923973Y-90582749D01*
X98854647Y-90415382D01*
X98852323Y-90409771D01*
X98852318Y-90409762D01*
X98748302Y-90254092D01*
X98748299Y-90254088D01*
X98728232Y-90234021D01*
X99859316Y-90234021D01*
X99869973Y-90263803D01*
X99871882Y-90269582D01*
X99886109Y-90316478D01*
X99887733Y-90322348D01*
X99896682Y-90358076D01*
X99898015Y-90364013D01*
X99944104Y-90595719D01*
X99945145Y-90601714D01*
X99950549Y-90638142D01*
X99951294Y-90644185D01*
X99956097Y-90692954D01*
X99956545Y-90699025D01*
X99958351Y-90735800D01*
X99958500Y-90741882D01*
X99958500Y-90978118D01*
X99958351Y-90984200D01*
X99956545Y-91020975D01*
X99956097Y-91027046D01*
X99951294Y-91075815D01*
X99950549Y-91081858D01*
X99945145Y-91118286D01*
X99944104Y-91124281D01*
X99917333Y-91258868D01*
X100442667Y-91258868D01*
X100415896Y-91124281D01*
X100414855Y-91118286D01*
X100409451Y-91081858D01*
X100408706Y-91075815D01*
X100403903Y-91027046D01*
X100403455Y-91020975D01*
X100401649Y-90984200D01*
X100401500Y-90978118D01*
X100401500Y-90766379D01*
X101399500Y-90766379D01*
X101399500Y-90953620D01*
X101436025Y-91137243D01*
X101436027Y-91137251D01*
X101507676Y-91310228D01*
X101507681Y-91310237D01*
X101611697Y-91465907D01*
X101611700Y-91465911D01*
X101744088Y-91598299D01*
X101744092Y-91598302D01*
X101899762Y-91702318D01*
X101899768Y-91702321D01*
X101899769Y-91702322D01*
X102072749Y-91773973D01*
X102256379Y-91810499D01*
X102256383Y-91810500D01*
X102256384Y-91810500D01*
X102443617Y-91810500D01*
X102443618Y-91810499D01*
X102627251Y-91773973D01*
X102800231Y-91702322D01*
X102955908Y-91598302D01*
X103088302Y-91465908D01*
X103192322Y-91310231D01*
X103263973Y-91137251D01*
X103300500Y-90953616D01*
X103300500Y-90766384D01*
X103263973Y-90582749D01*
X103194647Y-90415382D01*
X104248233Y-90415382D01*
X104284104Y-90595719D01*
X104285145Y-90601714D01*
X104290549Y-90638142D01*
X104291294Y-90644185D01*
X104296097Y-90692954D01*
X104296545Y-90699025D01*
X104298351Y-90735800D01*
X104298500Y-90741882D01*
X104298500Y-90978118D01*
X104298351Y-90984200D01*
X104296545Y-91020975D01*
X104296097Y-91027046D01*
X104291294Y-91075815D01*
X104290549Y-91081858D01*
X104285145Y-91118286D01*
X104284104Y-91124281D01*
X104257333Y-91258868D01*
X105361767Y-91258868D01*
X105399126Y-91230901D01*
X105406396Y-91225854D01*
X105451463Y-91196890D01*
X105459077Y-91192372D01*
X105521667Y-91158195D01*
X105529581Y-91154233D01*
X105578318Y-91131975D01*
X105586498Y-91128587D01*
X105750233Y-91067518D01*
X105750233Y-89756868D01*
X104248233Y-89756868D01*
X104248233Y-90415382D01*
X103194647Y-90415382D01*
X103192323Y-90409771D01*
X103192318Y-90409762D01*
X103088302Y-90254092D01*
X103088299Y-90254088D01*
X102955911Y-90121700D01*
X102955907Y-90121697D01*
X102800237Y-90017681D01*
X102800228Y-90017676D01*
X102627251Y-89946027D01*
X102627243Y-89946025D01*
X102443620Y-89909500D01*
X102443616Y-89909500D01*
X102256384Y-89909500D01*
X102256379Y-89909500D01*
X102072756Y-89946025D01*
X102072748Y-89946027D01*
X101899771Y-90017676D01*
X101899762Y-90017681D01*
X101744092Y-90121697D01*
X101744088Y-90121700D01*
X101611700Y-90254088D01*
X101611697Y-90254092D01*
X101507681Y-90409762D01*
X101507676Y-90409771D01*
X101436027Y-90582748D01*
X101436025Y-90582756D01*
X101399500Y-90766379D01*
X100401500Y-90766379D01*
X100401500Y-90741882D01*
X100401649Y-90735800D01*
X100403455Y-90699025D01*
X100403903Y-90692954D01*
X100408706Y-90644185D01*
X100409451Y-90638142D01*
X100414855Y-90601714D01*
X100415896Y-90595719D01*
X100461985Y-90364013D01*
X100463318Y-90358076D01*
X100472267Y-90322348D01*
X100473891Y-90316478D01*
X100488118Y-90269582D01*
X100490027Y-90263803D01*
X100502430Y-90229141D01*
X100504620Y-90223465D01*
X100595021Y-90005217D01*
X100597487Y-89999654D01*
X100613227Y-89966374D01*
X100615963Y-89960939D01*
X100639064Y-89917718D01*
X100642064Y-89912422D01*
X100660999Y-89880830D01*
X100664256Y-89875686D01*
X100743648Y-89756868D01*
X100232222Y-89756868D01*
X100166817Y-89885232D01*
X100156650Y-89901822D01*
X100045627Y-90054633D01*
X100032990Y-90069429D01*
X99899429Y-90202990D01*
X99884633Y-90215628D01*
X99859316Y-90234021D01*
X98728232Y-90234021D01*
X98615911Y-90121700D01*
X98615907Y-90121697D01*
X98460237Y-90017681D01*
X98460228Y-90017676D01*
X98287251Y-89946027D01*
X98287243Y-89946025D01*
X98103620Y-89909500D01*
X98103616Y-89909500D01*
X97916384Y-89909500D01*
X97916379Y-89909500D01*
X97732756Y-89946025D01*
X97732748Y-89946027D01*
X97559771Y-90017676D01*
X97559762Y-90017681D01*
X97404092Y-90121697D01*
X97404088Y-90121700D01*
X97271700Y-90254088D01*
X97271697Y-90254092D01*
X97167681Y-90409762D01*
X97167676Y-90409771D01*
X97096027Y-90582748D01*
X97096025Y-90582756D01*
X97059500Y-90766379D01*
X95750233Y-90766379D01*
X95750233Y-89756868D01*
X94248233Y-89756868D01*
X94248233Y-91258868D01*
X93250233Y-91258868D01*
X93250233Y-89756868D01*
X91748233Y-89756868D01*
X91748233Y-91258868D01*
X90750233Y-91258868D01*
X90750233Y-89756868D01*
X89671650Y-89756868D01*
X89636817Y-89825232D01*
X89626650Y-89841822D01*
X89515627Y-89994633D01*
X89502990Y-90009429D01*
X89369429Y-90142990D01*
X89354633Y-90155627D01*
X89248233Y-90232930D01*
X87751766Y-90232930D01*
X87645367Y-90155627D01*
X87630571Y-90142990D01*
X87497010Y-90009429D01*
X87484373Y-89994633D01*
X87373350Y-89841822D01*
X87363183Y-89825232D01*
X87328350Y-89756868D01*
X87044027Y-89756868D01*
X87046097Y-89777884D01*
X87046545Y-89783954D01*
X87048351Y-89820726D01*
X87048500Y-89826809D01*
X87048500Y-90053191D01*
X87048351Y-90059274D01*
X87046545Y-90096046D01*
X87046097Y-90102116D01*
X87041294Y-90150888D01*
X87040549Y-90156929D01*
X87035145Y-90193360D01*
X87034104Y-90199357D01*
X86998965Y-90376006D01*
X85941693Y-90376006D01*
X85948013Y-90366547D01*
X86015894Y-90202666D01*
X86016553Y-90199357D01*
X86044575Y-90058477D01*
X86050500Y-90028691D01*
X86050500Y-89851309D01*
X86050500Y-89851306D01*
X86050499Y-89851304D01*
X86015896Y-89677341D01*
X86015893Y-89677332D01*
X85948016Y-89513459D01*
X85948009Y-89513446D01*
X85849464Y-89365965D01*
X85849461Y-89365961D01*
X85724038Y-89240538D01*
X85724034Y-89240535D01*
X85576553Y-89141990D01*
X85576540Y-89141983D01*
X85412667Y-89074106D01*
X85412658Y-89074103D01*
X85238694Y-89039500D01*
X85238691Y-89039500D01*
X85061309Y-89039500D01*
X85061306Y-89039500D01*
X84887341Y-89074103D01*
X84887332Y-89074106D01*
X84723459Y-89141983D01*
X84723446Y-89141990D01*
X84575965Y-89240535D01*
X84575961Y-89240538D01*
X84450538Y-89365961D01*
X84450535Y-89365965D01*
X84351990Y-89513446D01*
X84351983Y-89513459D01*
X84284106Y-89677332D01*
X84284103Y-89677341D01*
X84249500Y-89851304D01*
X83250233Y-89851304D01*
X83250233Y-89756868D01*
X81748233Y-89756868D01*
X81748233Y-90161500D01*
X78250233Y-90161500D01*
X78250233Y-89756868D01*
X78213807Y-89756868D01*
X78208015Y-89785987D01*
X78206682Y-89791924D01*
X78197733Y-89827652D01*
X78196109Y-89833522D01*
X78181882Y-89880418D01*
X78179973Y-89886197D01*
X78167570Y-89920859D01*
X78165380Y-89926535D01*
X78074979Y-90144783D01*
X78072513Y-90150346D01*
X78056773Y-90183626D01*
X78054037Y-90189061D01*
X78030936Y-90232282D01*
X78027936Y-90237578D01*
X78009001Y-90269170D01*
X78005744Y-90274314D01*
X77874496Y-90470740D01*
X77870993Y-90475714D01*
X77849060Y-90505288D01*
X77845314Y-90510088D01*
X77814225Y-90547970D01*
X77810251Y-90552577D01*
X77785520Y-90579864D01*
X77781322Y-90584273D01*
X77614273Y-90751322D01*
X77609864Y-90755520D01*
X77582577Y-90780251D01*
X77577970Y-90784225D01*
X77540088Y-90815314D01*
X77535288Y-90819060D01*
X77505714Y-90840993D01*
X77500740Y-90844496D01*
X77304314Y-90975744D01*
X77299170Y-90979001D01*
X77267578Y-90997936D01*
X77262282Y-91000936D01*
X77219061Y-91024037D01*
X77213626Y-91026773D01*
X77180346Y-91042513D01*
X77174783Y-91044979D01*
X76956535Y-91135380D01*
X76950859Y-91137570D01*
X76916197Y-91149973D01*
X76910418Y-91151882D01*
X76863522Y-91166109D01*
X76857652Y-91167733D01*
X76821924Y-91176682D01*
X76815987Y-91178015D01*
X76748233Y-91191491D01*
X75750233Y-91191491D01*
X75750233Y-91158146D01*
X75729582Y-91151882D01*
X75723803Y-91149973D01*
X75689141Y-91137570D01*
X75683465Y-91135380D01*
X75465217Y-91044979D01*
X75459654Y-91042513D01*
X75426374Y-91026773D01*
X75420939Y-91024037D01*
X75377718Y-91000936D01*
X75372422Y-90997936D01*
X75340830Y-90979001D01*
X75335686Y-90975744D01*
X75139260Y-90844496D01*
X75134286Y-90840993D01*
X75104712Y-90819060D01*
X75099912Y-90815314D01*
X75062030Y-90784225D01*
X75057423Y-90780251D01*
X75030136Y-90755520D01*
X75025727Y-90751322D01*
X74858678Y-90584273D01*
X74854480Y-90579864D01*
X74829749Y-90552577D01*
X74825775Y-90547970D01*
X74794686Y-90510088D01*
X74790940Y-90505288D01*
X74769007Y-90475714D01*
X74765504Y-90470740D01*
X74634256Y-90274314D01*
X74630999Y-90269170D01*
X74612064Y-90237578D01*
X74609064Y-90232282D01*
X74585963Y-90189061D01*
X74583227Y-90183626D01*
X74567487Y-90150346D01*
X74565021Y-90144783D01*
X74474620Y-89926535D01*
X74472430Y-89920859D01*
X74460027Y-89886197D01*
X74458118Y-89880418D01*
X74443891Y-89833522D01*
X74442267Y-89827652D01*
X74433318Y-89791924D01*
X74431985Y-89785987D01*
X74426193Y-89756868D01*
X74248233Y-89756868D01*
X74248233Y-91258868D01*
X70750233Y-91258868D01*
X70750233Y-90713111D01*
X70749749Y-90712577D01*
X70745775Y-90707970D01*
X70714686Y-90670088D01*
X70710940Y-90665288D01*
X70689007Y-90635714D01*
X70685504Y-90630740D01*
X70554256Y-90434314D01*
X70550999Y-90429170D01*
X70532064Y-90397578D01*
X70529064Y-90392282D01*
X70505963Y-90349061D01*
X70503227Y-90343626D01*
X70487487Y-90310346D01*
X70485021Y-90304783D01*
X70394620Y-90086535D01*
X70392430Y-90080859D01*
X70380027Y-90046197D01*
X70378118Y-90040418D01*
X70363891Y-89993522D01*
X70362267Y-89987652D01*
X70353318Y-89951924D01*
X70351985Y-89945987D01*
X70314367Y-89756868D01*
X69321424Y-89756868D01*
X69316163Y-89888407D01*
X69307241Y-89929882D01*
X69248233Y-90076005D01*
X67838402Y-90076005D01*
X68200000Y-89670000D01*
X68212545Y-89356379D01*
X71289500Y-89356379D01*
X71289500Y-89543620D01*
X71326025Y-89727243D01*
X71326027Y-89727251D01*
X71397676Y-89900228D01*
X71397681Y-89900237D01*
X71501697Y-90055907D01*
X71501700Y-90055911D01*
X71634088Y-90188299D01*
X71634092Y-90188302D01*
X71789762Y-90292318D01*
X71789768Y-90292321D01*
X71789769Y-90292322D01*
X71962749Y-90363973D01*
X72077806Y-90386859D01*
X72146379Y-90400499D01*
X72146383Y-90400500D01*
X72146384Y-90400500D01*
X72333617Y-90400500D01*
X72333618Y-90400499D01*
X72517251Y-90363973D01*
X72690231Y-90292322D01*
X72845908Y-90188302D01*
X72978302Y-90055908D01*
X73082322Y-89900231D01*
X73153973Y-89727251D01*
X73190500Y-89543616D01*
X73190500Y-89356384D01*
X73158673Y-89196379D01*
X75369500Y-89196379D01*
X75369500Y-89383620D01*
X75406025Y-89567243D01*
X75406027Y-89567251D01*
X75477676Y-89740228D01*
X75477681Y-89740237D01*
X75581697Y-89895907D01*
X75581700Y-89895911D01*
X75714088Y-90028299D01*
X75714092Y-90028302D01*
X75869762Y-90132318D01*
X75869768Y-90132321D01*
X75869769Y-90132322D01*
X76042749Y-90203973D01*
X76185069Y-90232282D01*
X76226379Y-90240499D01*
X76226383Y-90240500D01*
X76226384Y-90240500D01*
X76413617Y-90240500D01*
X76413618Y-90240499D01*
X76597251Y-90203973D01*
X76770231Y-90132322D01*
X76925908Y-90028302D01*
X77058302Y-89895908D01*
X77162322Y-89740231D01*
X77233973Y-89567251D01*
X77270500Y-89383616D01*
X77270500Y-89196384D01*
X77233973Y-89012749D01*
X77162322Y-88839769D01*
X77162321Y-88839768D01*
X77162318Y-88839762D01*
X77108266Y-88758868D01*
X79248233Y-88758868D01*
X80750233Y-88758868D01*
X81748233Y-88758868D01*
X83250233Y-88758868D01*
X86748233Y-88758868D01*
X87231701Y-88758868D01*
X87269985Y-88641042D01*
X87277431Y-88623065D01*
X87363183Y-88454768D01*
X87373350Y-88438178D01*
X87484373Y-88285367D01*
X87497010Y-88270571D01*
X87630571Y-88137010D01*
X87645367Y-88124373D01*
X87751767Y-88047069D01*
X89248233Y-88047069D01*
X89354633Y-88124373D01*
X89369429Y-88137010D01*
X89502990Y-88270571D01*
X89515627Y-88285367D01*
X89626650Y-88438178D01*
X89636817Y-88454768D01*
X89722569Y-88623065D01*
X89730015Y-88641042D01*
X89768299Y-88758868D01*
X90750233Y-88758868D01*
X94822610Y-88758868D01*
X95750233Y-88758868D01*
X96748233Y-88758868D01*
X97781196Y-88758868D01*
X97799985Y-88701042D01*
X97807431Y-88683065D01*
X97893183Y-88514768D01*
X97903350Y-88498178D01*
X98014373Y-88345367D01*
X98027010Y-88330571D01*
X98160571Y-88197010D01*
X98175367Y-88184373D01*
X98250233Y-88129979D01*
X98250233Y-88006868D01*
X99604708Y-88006868D01*
X99715232Y-88063183D01*
X99731822Y-88073350D01*
X99884633Y-88184373D01*
X99899429Y-88197010D01*
X100032990Y-88330571D01*
X100045627Y-88345367D01*
X100156650Y-88498178D01*
X100166817Y-88514768D01*
X100252569Y-88683065D01*
X100260015Y-88701042D01*
X100278804Y-88758868D01*
X100750233Y-88758868D01*
X101748233Y-88758868D01*
X103250233Y-88758868D01*
X104248233Y-88758868D01*
X105750233Y-88758868D01*
X105750233Y-88006868D01*
X104248233Y-88006868D01*
X104248233Y-88758868D01*
X103250233Y-88758868D01*
X103250233Y-88006868D01*
X101748233Y-88006868D01*
X101748233Y-88758868D01*
X100750233Y-88758868D01*
X100750233Y-88006868D01*
X99604708Y-88006868D01*
X98250233Y-88006868D01*
X96748233Y-88006868D01*
X96748233Y-88758868D01*
X95750233Y-88758868D01*
X95750233Y-88006868D01*
X95107622Y-88006868D01*
X95068015Y-88205987D01*
X95066682Y-88211924D01*
X95057733Y-88247652D01*
X95056109Y-88253522D01*
X95041882Y-88300418D01*
X95039973Y-88306197D01*
X95027570Y-88340859D01*
X95025380Y-88346535D01*
X94934979Y-88564783D01*
X94932513Y-88570346D01*
X94916773Y-88603626D01*
X94914037Y-88609061D01*
X94890936Y-88652282D01*
X94887936Y-88657578D01*
X94869001Y-88689170D01*
X94865744Y-88694314D01*
X94822610Y-88758868D01*
X90750233Y-88758868D01*
X90750233Y-88006868D01*
X89248233Y-88006868D01*
X89248233Y-88047069D01*
X87751767Y-88047069D01*
X87798178Y-88013350D01*
X87808755Y-88006868D01*
X86748233Y-88006868D01*
X86748233Y-88758868D01*
X83250233Y-88758868D01*
X83250233Y-88006868D01*
X81748233Y-88006868D01*
X81748233Y-88758868D01*
X80750233Y-88758868D01*
X80750233Y-88006868D01*
X79248233Y-88006868D01*
X79248233Y-88758868D01*
X77108266Y-88758868D01*
X77058302Y-88684092D01*
X77058299Y-88684088D01*
X76925911Y-88551700D01*
X76925907Y-88551697D01*
X76770237Y-88447681D01*
X76770228Y-88447676D01*
X76597251Y-88376027D01*
X76597243Y-88376025D01*
X76413620Y-88339500D01*
X76413616Y-88339500D01*
X76226384Y-88339500D01*
X76226379Y-88339500D01*
X76042756Y-88376025D01*
X76042748Y-88376027D01*
X75869771Y-88447676D01*
X75869762Y-88447681D01*
X75714092Y-88551697D01*
X75714088Y-88551700D01*
X75581700Y-88684088D01*
X75581697Y-88684092D01*
X75477681Y-88839762D01*
X75477676Y-88839771D01*
X75406027Y-89012748D01*
X75406025Y-89012756D01*
X75369500Y-89196379D01*
X73158673Y-89196379D01*
X73153973Y-89172749D01*
X73093913Y-89027752D01*
X73082323Y-88999771D01*
X73082318Y-88999762D01*
X72978302Y-88844092D01*
X72978299Y-88844088D01*
X72845911Y-88711700D01*
X72845907Y-88711697D01*
X72690237Y-88607681D01*
X72690228Y-88607676D01*
X72517251Y-88536027D01*
X72517243Y-88536025D01*
X72333620Y-88499500D01*
X72333616Y-88499500D01*
X72146384Y-88499500D01*
X72146379Y-88499500D01*
X71962756Y-88536025D01*
X71962748Y-88536027D01*
X71789771Y-88607676D01*
X71789762Y-88607681D01*
X71634092Y-88711697D01*
X71634088Y-88711700D01*
X71501700Y-88844088D01*
X71501697Y-88844092D01*
X71397681Y-88999762D01*
X71397676Y-88999771D01*
X71326027Y-89172748D01*
X71326025Y-89172756D01*
X71289500Y-89356379D01*
X68212545Y-89356379D01*
X68236445Y-88758868D01*
X69361344Y-88758868D01*
X70417235Y-88758868D01*
X70485021Y-88595217D01*
X70487487Y-88589654D01*
X70503227Y-88556374D01*
X70505963Y-88550939D01*
X70529064Y-88507718D01*
X70532064Y-88502422D01*
X70550999Y-88470830D01*
X70554256Y-88465686D01*
X70685504Y-88269260D01*
X70689007Y-88264286D01*
X70710940Y-88234712D01*
X70714686Y-88229912D01*
X70745775Y-88192030D01*
X70749749Y-88187423D01*
X70750233Y-88186888D01*
X70750233Y-88006868D01*
X69391424Y-88006868D01*
X69361344Y-88758868D01*
X68236445Y-88758868D01*
X68301683Y-87127910D01*
X68324031Y-87061713D01*
X68378622Y-87018105D01*
X68425584Y-87008868D01*
X92273336Y-87008868D01*
X92340375Y-87028553D01*
G37*
%TD.AperFunction*%
%TD*%
M02*
